<svg xmlns="http://www.w3.org/2000/svg" xmlns:xlink="http://www.w3.org/1999/xlink" width="960" height="576" viewBox="0 0 720 432"><path d="M0 432h720V0H0z" style="fill:#fff"/><path d="M45.3 389.3h663.9V27h-664z" style="fill:#fff"/><path d="M113.5 389.3V27" clip-path="url(#a)" style="fill:none;stroke:#b0b0b0;stroke-opacity:.3;stroke-width:.8;stroke-linecap:square"/><defs><path id="b" d="M0 0v3.5" style="stroke:#000;stroke-width:.8"/></defs><use xlink:href="#b" x="113.5" y="389.3" style="stroke:#000;stroke-width:.8"/><g transform="matrix(.1 0 0 -.1 105.6 404)"><defs><path id="c" d="M2034 4250q-487 0-733-480-245-479-245-1442 0-959 245-1439 246-480 733-480 491 0 736 480 246 480 246 1439 0 963-246 1442-245 480-736 480m0 500q785 0 1199-621 414-620 414-1801 0-1178-414-1799Q2819-91 2034-91q-784 0-1198 620-414 621-414 1799 0 1181 414 1801 414 621 1198 621" transform="scale(.01563)"/><path id="d" d="M684 794h660V0H684z" transform="scale(.01563)"/><path id="e" d="M2419 4116 825 1625h1594zm-166 550h794V1625h666v-525h-666V0h-628v1100H313v609z" transform="scale(.01563)"/></defs><use xlink:href="#c"/><use xlink:href="#d" transform="translate(63.6)"/><use xlink:href="#e" transform="translate(95.4)"/></g><path d="M209.1 389.3V27" clip-path="url(#a)" style="fill:none;stroke:#b0b0b0;stroke-opacity:.3;stroke-width:.8;stroke-linecap:square"/><use xlink:href="#b" x="209.1" y="389.3" style="stroke:#000;stroke-width:.8"/><g transform="matrix(.1 0 0 -.1 201.2 404)"><defs><path id="f" d="M2113 2584q-425 0-674-291-248-290-248-796 0-503 248-796 249-292 674-292t673 292q248 293 248 796 0 506-248 796-248 291-673 291m1253 1979v-575q-238 112-480 171-242 60-480 60-625 0-955-422-329-422-376-1275 184 272 462 417 279 145 613 145 703 0 1111-427 408-426 408-1160 0-719-425-1154Q2819-91 2113-91q-810 0-1238 620-428 621-428 1799 0 1106 525 1764t1409 658q238 0 480-47t505-140" transform="scale(.01563)"/></defs><use xlink:href="#c"/><use xlink:href="#d" transform="translate(63.6)"/><use xlink:href="#f" transform="translate(95.4)"/></g><path d="M304.7 389.3V27" clip-path="url(#a)" style="fill:none;stroke:#b0b0b0;stroke-opacity:.3;stroke-width:.8;stroke-linecap:square"/><use xlink:href="#b" x="304.7" y="389.3" style="stroke:#000;stroke-width:.8"/><g transform="matrix(.1 0 0 -.1 296.8 404)"><defs><path id="g" d="M2034 2216q-450 0-708-241-257-241-257-662 0-422 257-663 258-241 708-241t709 242q260 243 260 662 0 421-258 662-257 241-711 241m-631 268q-406 100-633 378-226 279-226 679 0 559 398 884 399 325 1092 325 697 0 1094-325t397-884q0-400-227-679-226-278-629-378 456-106 710-416 255-309 255-755 0-679-414-1042Q2806-91 2034-91q-771 0-1186 362-414 363-414 1042 0 446 256 755 257 310 713 416m-231 997q0-362 226-565 227-203 636-203 407 0 636 203 230 203 230 565 0 363-230 566-229 203-636 203-409 0-636-203-226-203-226-566" transform="scale(.01563)"/></defs><use xlink:href="#c"/><use xlink:href="#d" transform="translate(63.6)"/><use xlink:href="#g" transform="translate(95.4)"/></g><path d="M400.3 389.3V27" clip-path="url(#a)" style="fill:none;stroke:#b0b0b0;stroke-opacity:.3;stroke-width:.8;stroke-linecap:square"/><use xlink:href="#b" x="400.3" y="389.3" style="stroke:#000;stroke-width:.8"/><g transform="matrix(.1 0 0 -.1 392.3 404)"><defs><path id="h" d="M794 531h1031v3560L703 3866v575l1116 225h631V531h1031V0H794z" transform="scale(.01563)"/></defs><use xlink:href="#h"/><use xlink:href="#d" transform="translate(63.6)"/><use xlink:href="#c" transform="translate(95.4)"/></g><path d="M495.9 389.3V27" clip-path="url(#a)" style="fill:none;stroke:#b0b0b0;stroke-opacity:.3;stroke-width:.8;stroke-linecap:square"/><use xlink:href="#b" x="495.9" y="389.3" style="stroke:#000;stroke-width:.8"/><g transform="matrix(.1 0 0 -.1 488 404)"><defs><path id="i" d="M1228 531h2203V0H469v531q359 372 979 998 621 627 780 809 303 340 423 576 121 236 121 464 0 372-261 606-261 235-680 235-297 0-627-103-329-103-704-313v638q381 153 712 231 332 78 607 78 725 0 1156-363 431-362 431-968 0-288-108-546-107-257-392-607-78-91-497-524-418-433-1181-1211" transform="scale(.01563)"/></defs><use xlink:href="#h"/><use xlink:href="#d" transform="translate(63.6)"/><use xlink:href="#i" transform="translate(95.4)"/></g><path d="M591.5 389.3V27" clip-path="url(#a)" style="fill:none;stroke:#b0b0b0;stroke-opacity:.3;stroke-width:.8;stroke-linecap:square"/><use xlink:href="#b" x="591.5" y="389.3" style="stroke:#000;stroke-width:.8"/><g transform="matrix(.1 0 0 -.1 583.5 404)"><use xlink:href="#h"/><use xlink:href="#d" transform="translate(63.6)"/><use xlink:href="#e" transform="translate(95.4)"/></g><path d="M687 389.3V27" clip-path="url(#a)" style="fill:none;stroke:#b0b0b0;stroke-opacity:.3;stroke-width:.8;stroke-linecap:square"/><use xlink:href="#b" x="687.1" y="389.3" style="stroke:#000;stroke-width:.8"/><g transform="matrix(.1 0 0 -.1 679.1 404)"><use xlink:href="#h"/><use xlink:href="#d" transform="translate(63.6)"/><use xlink:href="#f" transform="translate(95.4)"/></g><g transform="matrix(.11 0 0 -.11 281.9 418.4)"><defs><path id="j" d="M1259 2228V519h1013q509 0 754 211 246 211 246 645 0 438-246 645-245 208-754 208zm0 1919V2741h935q462 0 688 173 227 174 227 530 0 353-227 528-226 175-688 175zm-631 519h1613q722 0 1112-300 391-300 391-853 0-429-200-682t-588-315q466-100 724-418 258-317 258-792 0-625-425-966Q3088 0 2303 0H628z" transform="scale(.01563)"/><path id="k" d="M603 3500h575V0H603zm0 1363h575v-729H603z" transform="scale(.01563)"/><path id="l" d="M1172 4494v-994h1184v-447H1172V1153q0-428 117-550t477-122h590V0h-590q-666 0-919 248-253 249-253 905v1900H172v447h422v994z" transform="scale(.01563)"/><path id="m" d="M2834 3397v-544q-243 125-506 187-262 63-544 63-428 0-642-131t-214-394q0-200 153-314t616-217l197-44q612-131 870-370t258-667q0-488-386-773Q2250-91 1575-91q-281 0-586 55T347 128v594q319-166 628-249 309-82 613-82 406 0 624 139 219 139 219 392 0 234-158 359-157 125-692 241l-200 47q-534 112-772 345-237 233-237 639 0 494 350 762 350 269 994 269 318 0 599-47 282-46 519-140" transform="scale(.01563)"/><path id="n" d="M1159 525v-1856H581v4831h578v-531q182 312 458 463 277 152 661 152 638 0 1036-506 399-506 399-1331T3314 415Q2916-91 2278-91q-384 0-661 152-276 152-458 464m1957 1222q0 634-261 995t-717 361q-457 0-718-361t-261-995 261-995 718-361q456 0 717 361t261 995" transform="scale(.01563)"/><path id="o" d="M3597 1894v-281H953q38-594 358-905t892-311q331 0 642 81t618 244V178Q3153 47 2828-22t-659-69q-838 0-1327 487-489 488-489 1320 0 859 464 1363 464 505 1252 505 706 0 1117-455 411-454 411-1235m-575 169q-6 471-264 752-258 282-683 282-481 0-770-272t-333-766z" transform="scale(.01563)"/><path id="p" d="M2631 2963q-97 56-211 82-114 27-251 27-488 0-749-317t-261-911V0H581v3500h578v-544q182 319 472 473 291 155 707 155 59 0 131-8 72-7 159-23z" transform="scale(.01563)"/><path id="q" d="M1259 4147V2394h794q441 0 681 228 241 228 241 650 0 419-241 647-240 228-681 228zm-631 519h1425q785 0 1186-355 402-355 402-1039 0-691-402-1044-401-353-1186-353h-794V0H628z" transform="scale(.01563)"/><path id="r" d="M3513 3500 2247 1797 3578 0h-678L1881 1375 863 0H184l1360 1831L300 3500h678l928-1247 928 1247z" transform="scale(.01563)"/><path id="s" d="M603 4863h575V0H603z" transform="scale(.01563)"/><path id="t" d="M1984 4856q-418-718-622-1422-203-703-203-1425 0-721 205-1429t620-1424h-500Q1016-109 783 600T550 2009q0 697 231 1403 232 707 703 1444z" transform="scale(.01563)"/><path id="u" d="M750 794h659V256L897-744H494L750 256z" transform="scale(.01563)"/><path id="v" d="M1959 3097q-462 0-731-361t-269-989 267-989q268-361 733-361 460 0 728 362 269 363 269 988 0 622-269 986-268 364-728 364m0 487q750 0 1178-488 429-487 429-1349 0-859-429-1349Q2709-91 1959-91q-753 0-1180 489-426 490-426 1349 0 862 426 1349 427 488 1180 488" transform="scale(.01563)"/><path id="w" d="M269 3500h575l719-2731 715 2731h678l719-2731 716 2731h575L4050 0h-678l-753 2869L1863 0h-679z" transform="scale(.01563)"/><path id="x" d="M3116 1747q0 634-261 995t-717 361q-457 0-718-361t-261-995 261-995 718-361q456 0 717 361t261 995M1159 2969q182 312 458 463 277 152 661 152 638 0 1036-506 399-506 399-1331T3314 415Q2916-91 2278-91q-384 0-661 152-276 152-458 464V0H581v4863h578z" transform="scale(.01563)"/><path id="y" d="M513 4856h500q468-737 701-1444 233-706 233-1403 0-700-233-1409T1013-844H513q415 716 620 1424t205 1429q0 722-205 1425-205 704-620 1422" transform="scale(.01563)"/></defs><use xlink:href="#j"/><use xlink:href="#k" transform="translate(68.6)"/><use xlink:href="#l" transform="translate(96.4)"/><use xlink:href="#m" transform="translate(135.6)"/><use xlink:href="#n" transform="translate(219.5)"/><use xlink:href="#o" transform="translate(283)"/><use xlink:href="#p" transform="translate(344.5)"/><use xlink:href="#q" transform="translate(417.4)"/><use xlink:href="#k" transform="translate(475.4)"/><use xlink:href="#r" transform="translate(503.2)"/><use xlink:href="#o" transform="translate(559.3)"/><use xlink:href="#s" transform="translate(620.8)"/><use xlink:href="#t" transform="translate(680.4)"/><use xlink:href="#j" transform="translate(719.4)"/><use xlink:href="#q" transform="translate(788)"/><use xlink:href="#q" transform="translate(848.3)"/><use xlink:href="#u" transform="translate(908.6)"/><use xlink:href="#s" transform="translate(972.2)"/><use xlink:href="#v" transform="translate(1000)"/><use xlink:href="#w" transform="translate(1061.1)"/><use xlink:href="#o" transform="translate(1143)"/><use xlink:href="#p" transform="translate(1204.4)"/><use xlink:href="#k" transform="translate(1277.3)"/><use xlink:href="#m" transform="translate(1305.1)"/><use xlink:href="#x" transform="translate(1389)"/><use xlink:href="#o" transform="translate(1452.5)"/><use xlink:href="#l" transform="translate(1514)"/><use xlink:href="#l" transform="translate(1553.2)"/><use xlink:href="#o" transform="translate(1592.4)"/><use xlink:href="#p" transform="translate(1654)"/><use xlink:href="#y" transform="translate(1695)"/></g><path d="M45.3 340.7h663.9" clip-path="url(#a)" style="fill:none;stroke:#b0b0b0;stroke-opacity:.3;stroke-width:.8;stroke-linecap:square"/><defs><path id="z" d="M0 0h-3.5" style="stroke:#000;stroke-width:.8"/></defs><use xlink:href="#z" x="45.3" y="340.7" style="stroke:#000;stroke-width:.8"/><g transform="matrix(.1 0 0 -.1 25.6 344.5)"><defs><path id="A" d="M2597 2516q453-97 707-404 255-306 255-756 0-690-475-1069Q2609-91 1734-91q-293 0-604 58T488 141v609q262-153 574-231 313-78 654-78 593 0 904 234t311 681q0 413-289 645-289 233-804 233h-544v519h569q465 0 712 186t247 536q0 359-255 551-254 193-729 193-260 0-557-57-297-56-653-174v562q360 100 674 150t592 50q719 0 1137-327 419-326 419-882 0-388-222-655t-631-370" transform="scale(.01563)"/></defs><use xlink:href="#A"/><use xlink:href="#c" transform="translate(63.6)"/></g><path d="M45.3 265.7h663.9" clip-path="url(#a)" style="fill:none;stroke:#b0b0b0;stroke-opacity:.3;stroke-width:.8;stroke-linecap:square"/><use xlink:href="#z" x="45.3" y="265.7" style="stroke:#000;stroke-width:.8"/><g transform="matrix(.1 0 0 -.1 25.6 269.5)"><use xlink:href="#A"/><use xlink:href="#i" transform="translate(63.6)"/></g><path d="M45.3 190.8h663.9" clip-path="url(#a)" style="fill:none;stroke:#b0b0b0;stroke-opacity:.3;stroke-width:.8;stroke-linecap:square"/><use xlink:href="#z" x="45.3" y="190.8" style="stroke:#000;stroke-width:.8"/><g transform="matrix(.1 0 0 -.1 25.6 194.6)"><use xlink:href="#A"/><use xlink:href="#e" transform="translate(63.6)"/></g><path d="M45.3 115.8h663.9" clip-path="url(#a)" style="fill:none;stroke:#b0b0b0;stroke-opacity:.3;stroke-width:.8;stroke-linecap:square"/><use xlink:href="#z" x="45.3" y="115.8" style="stroke:#000;stroke-width:.8"/><g transform="matrix(.1 0 0 -.1 25.6 119.6)"><use xlink:href="#A"/><use xlink:href="#f" transform="translate(63.6)"/></g><path d="M45.3 40.8h663.9" clip-path="url(#a)" style="fill:none;stroke:#b0b0b0;stroke-opacity:.3;stroke-width:.8;stroke-linecap:square"/><use xlink:href="#z" x="45.3" y="40.8" style="stroke:#000;stroke-width:.8"/><g transform="matrix(.1 0 0 -.1 25.6 44.6)"><use xlink:href="#A"/><use xlink:href="#g" transform="translate(63.6)"/></g><g transform="matrix(0 -.11 -.11 0 19.3 271.2)"><defs><path id="B" d="M3425 4513v-616q-359 172-678 256-319 85-616 85-515 0-795-200t-280-569q0-310 186-468 186-157 705-254l381-78q706-135 1042-474t336-907q0-679-455-1029Q2797-91 1919-91q-331 0-705 75-373 75-773 222v650q384-215 753-325 369-109 725-109 540 0 834 212 294 213 294 607 0 343-211 537t-692 291l-385 75q-706 140-1022 440-315 300-315 835 0 619 436 975t1201 356q329 0 669-60 341-59 697-177" transform="scale(.01563)"/><path id="C" d="M628 4666h850L3547 763v3903h612V0h-850L1241 3903V0H628z" transform="scale(.01563)"/><path id="D" d="M2841 2188q203-69 395-294t386-619L4263 0h-679l-596 1197q-232 469-449 622t-592 153h-688V0H628v4666h1425q800 0 1194-335 394-334 394-1009 0-441-205-732-205-290-595-402M1259 4147V2491h794q456 0 689 211t233 620-233 617-689 208z" transform="scale(.01563)"/><path id="E" d="M3513 2113V0h-575v2094q0 497-194 743-194 247-581 247-466 0-735-297-269-296-269-809V0H581v4863h578V2956q207 316 486 472 280 156 646 156 603 0 912-373 310-373 310-1098" transform="scale(.01563)"/><path id="F" d="M2906 1791q0 625-258 968-257 344-723 344-462 0-720-344-258-343-258-968 0-622 258-966t720-344q466 0 723 344 258 344 258 966m575-1357q0-893-397-1329-396-436-1215-436-303 0-572 45t-522 139v559q253-137 500-202 247-66 503-66 566 0 847 295t281 892v285q-178-310-456-463T1784 0Q1141 0 747 490 353 981 353 1791q0 812 394 1302 394 491 1037 491 388 0 666-153t456-462v531h575z" transform="scale(.01563)"/></defs><use xlink:href="#q"/><use xlink:href="#B" transform="translate(60.3)"/><use xlink:href="#C" transform="translate(123.8)"/><use xlink:href="#D" transform="translate(198.6)"/><use xlink:href="#t" transform="translate(299.9)"/><use xlink:href="#E" transform="translate(338.9)"/><use xlink:href="#k" transform="translate(402.2)"/><use xlink:href="#F" transform="translate(430)"/><use xlink:href="#E" transform="translate(493.5)"/><use xlink:href="#o" transform="translate(556.9)"/><use xlink:href="#p" transform="translate(618.4)"/><use xlink:href="#k" transform="translate(691.3)"/><use xlink:href="#m" transform="translate(719)"/><use xlink:href="#x" transform="translate(803)"/><use xlink:href="#o" transform="translate(866.5)"/><use xlink:href="#l" transform="translate(928)"/><use xlink:href="#l" transform="translate(967.2)"/><use xlink:href="#o" transform="translate(1006.4)"/><use xlink:href="#p" transform="translate(1068)"/><use xlink:href="#y" transform="translate(1109)"/></g><path d="M138 277.8h0-22l8.6-11.1-40.4-2 4.5-3.7.6-1.3-13.4 11.1h.1-.4" clip-path="url(#a)" style="fill:none;stroke:#1f77b4;stroke-width:1.5;stroke-linecap:square"/><defs><path id="G" d="M0 3.5a3.5 3.5 0 1 0 0-7 3.5 3.5 0 0 0 0 7z" style="stroke:#1f77b4"/></defs><g clip-path="url(#a)"><use xlink:href="#G" x="138.1" y="277.8" style="fill:#1f77b4;stroke:#1f77b4"/><use xlink:href="#G" x="138.1" y="277.8" style="fill:#1f77b4;stroke:#1f77b4"/><use xlink:href="#G" x="115.9" y="277.8" style="fill:#1f77b4;stroke:#1f77b4"/><use xlink:href="#G" x="124.5" y="266.7" style="fill:#1f77b4;stroke:#1f77b4"/><use xlink:href="#G" x="84.1" y="264.7" style="fill:#1f77b4;stroke:#1f77b4"/><use xlink:href="#G" x="88.6" y="261" style="fill:#1f77b4;stroke:#1f77b4"/><use xlink:href="#G" x="89.2" y="259.7" style="fill:#1f77b4;stroke:#1f77b4"/><use xlink:href="#G" x="75.8" y="270.8" style="fill:#1f77b4;stroke:#1f77b4"/><use xlink:href="#G" x="75.9" y="270.7" style="fill:#1f77b4;stroke:#1f77b4"/><use xlink:href="#G" x="75.5" y="270.8" style="fill:#1f77b4;stroke:#1f77b4"/></g><path d="M138 338.5h-22l8.6-4.9L84.1 367l4.5-8.1.6-.5-13.4 14.4h.1-.4" clip-path="url(#a)" style="fill:none;stroke-dasharray:5.55,2.4;stroke-dashoffset:0;stroke:#1f77b4;stroke-width:1.5"/><defs><path id="H" d="M0 3.5a3.5 3.5 0 1 0 0-7 3.5 3.5 0 0 0 0 7z" style="stroke:#1f77b4"/></defs><g clip-path="url(#a)"><use xlink:href="#H" x="138.1" y="338.5" style="fill-opacity:0;stroke:#1f77b4"/><use xlink:href="#H" x="138.1" y="338.5" style="fill-opacity:0;stroke:#1f77b4"/><use xlink:href="#H" x="115.9" y="338.5" style="fill-opacity:0;stroke:#1f77b4"/><use xlink:href="#H" x="124.5" y="333.6" style="fill-opacity:0;stroke:#1f77b4"/><use xlink:href="#H" x="84.1" y="367" style="fill-opacity:0;stroke:#1f77b4"/><use xlink:href="#H" x="88.6" y="358.9" style="fill-opacity:0;stroke:#1f77b4"/><use xlink:href="#H" x="89.2" y="358.4" style="fill-opacity:0;stroke:#1f77b4"/><use xlink:href="#H" x="75.8" y="372.8" style="fill-opacity:0;stroke:#1f77b4"/><use xlink:href="#H" x="75.9" y="372.7" style="fill-opacity:0;stroke:#1f77b4"/><use xlink:href="#H" x="75.5" y="372.8" style="fill-opacity:0;stroke:#1f77b4"/></g><path d="M170.3 255.6h0-23.7l8.9-9.3-47-2.8 4.4-2.4.8-1-14 9.5.9-.2-1.2.2" clip-path="url(#a)" style="fill:none;stroke:#ff7f0e;stroke-width:1.5;stroke-linecap:square"/><defs><path id="I" d="M-3.5 3.5h7v-7h-7z" style="stroke:#ff7f0e;stroke-linejoin:miter"/></defs><g clip-path="url(#a)"><use xlink:href="#I" x="170.3" y="255.6" style="fill:#ff7f0e;stroke:#ff7f0e;stroke-linejoin:miter"/><use xlink:href="#I" x="170.3" y="255.6" style="fill:#ff7f0e;stroke:#ff7f0e;stroke-linejoin:miter"/><use xlink:href="#I" x="146.6" y="255.6" style="fill:#ff7f0e;stroke:#ff7f0e;stroke-linejoin:miter"/><use xlink:href="#I" x="155.5" y="246.3" style="fill:#ff7f0e;stroke:#ff7f0e;stroke-linejoin:miter"/><use xlink:href="#I" x="108.5" y="243.5" style="fill:#ff7f0e;stroke:#ff7f0e;stroke-linejoin:miter"/><use xlink:href="#I" x="112.9" y="241.1" style="fill:#ff7f0e;stroke:#ff7f0e;stroke-linejoin:miter"/><use xlink:href="#I" x="113.7" y="240" style="fill:#ff7f0e;stroke:#ff7f0e;stroke-linejoin:miter"/><use xlink:href="#I" x="99.7" y="249.6" style="fill:#ff7f0e;stroke:#ff7f0e;stroke-linejoin:miter"/><use xlink:href="#I" x="100.6" y="249.4" style="fill:#ff7f0e;stroke:#ff7f0e;stroke-linejoin:miter"/><use xlink:href="#I" x="99.4" y="249.6" style="fill:#ff7f0e;stroke:#ff7f0e;stroke-linejoin:miter"/></g><path d="M170.3 315.3h-23.7l8.9-3.8-47 30.9 4.4-6.2.8-.7-14 13.6.9-.3-1.2.3" clip-path="url(#a)" style="fill:none;stroke-dasharray:5.55,2.4;stroke-dashoffset:0;stroke:#ff7f0e;stroke-width:1.5"/><defs><path id="J" d="M-3.5 3.5h7v-7h-7z" style="stroke:#ff7f0e;stroke-linejoin:miter"/></defs><g clip-path="url(#a)"><use xlink:href="#J" x="170.3" y="315.3" style="fill-opacity:0;stroke:#ff7f0e;stroke-linejoin:miter"/><use xlink:href="#J" x="170.3" y="315.3" style="fill-opacity:0;stroke:#ff7f0e;stroke-linejoin:miter"/><use xlink:href="#J" x="146.6" y="315.3" style="fill-opacity:0;stroke:#ff7f0e;stroke-linejoin:miter"/><use xlink:href="#J" x="155.5" y="311.5" style="fill-opacity:0;stroke:#ff7f0e;stroke-linejoin:miter"/><use xlink:href="#J" x="108.5" y="342.4" style="fill-opacity:0;stroke:#ff7f0e;stroke-linejoin:miter"/><use xlink:href="#J" x="112.9" y="336.2" style="fill-opacity:0;stroke:#ff7f0e;stroke-linejoin:miter"/><use xlink:href="#J" x="113.7" y="335.5" style="fill-opacity:0;stroke:#ff7f0e;stroke-linejoin:miter"/><use xlink:href="#J" x="99.7" y="349.1" style="fill-opacity:0;stroke:#ff7f0e;stroke-linejoin:miter"/><use xlink:href="#J" x="100.6" y="348.8" style="fill-opacity:0;stroke:#ff7f0e;stroke-linejoin:miter"/><use xlink:href="#J" x="99.4" y="349.1" style="fill-opacity:0;stroke:#ff7f0e;stroke-linejoin:miter"/></g><path d="M215.4 239.6h0H190l9-7.4-54.5-12.8 5.4-2.8.8-1.2-15.8 10.7 2.5-.3-3 .3" clip-path="url(#a)" style="fill:none;stroke:#2ca02c;stroke-width:1.5;stroke-linecap:square"/><defs><path id="K" d="m0-3.5-3.5 7h7z" style="stroke:#2ca02c;stroke-linejoin:miter"/></defs><g clip-path="url(#a)"><use xlink:href="#K" x="215.4" y="239.6" style="fill:#2ca02c;stroke:#2ca02c;stroke-linejoin:miter"/><use xlink:href="#K" x="215.4" y="239.6" style="fill:#2ca02c;stroke:#2ca02c;stroke-linejoin:miter"/><use xlink:href="#K" x="190" y="239.6" style="fill:#2ca02c;stroke:#2ca02c;stroke-linejoin:miter"/><use xlink:href="#K" x="198.9" y="232.2" style="fill:#2ca02c;stroke:#2ca02c;stroke-linejoin:miter"/><use xlink:href="#K" x="144.5" y="219.4" style="fill:#2ca02c;stroke:#2ca02c;stroke-linejoin:miter"/><use xlink:href="#K" x="149.9" y="216.6" style="fill:#2ca02c;stroke:#2ca02c;stroke-linejoin:miter"/><use xlink:href="#K" x="150.7" y="215.4" style="fill:#2ca02c;stroke:#2ca02c;stroke-linejoin:miter"/><use xlink:href="#K" x="134.9" y="226.1" style="fill:#2ca02c;stroke:#2ca02c;stroke-linejoin:miter"/><use xlink:href="#K" x="137.4" y="225.8" style="fill:#2ca02c;stroke:#2ca02c;stroke-linejoin:miter"/><use xlink:href="#K" x="134.4" y="226.1" style="fill:#2ca02c;stroke:#2ca02c;stroke-linejoin:miter"/></g><path d="M215.4 292.5H190l9-3-54.5 21.4 5.4-3.7.8-1.1-15.8 12.6 2.5-.3-3 .4" clip-path="url(#a)" style="fill:none;stroke-dasharray:5.55,2.4;stroke-dashoffset:0;stroke:#2ca02c;stroke-width:1.5"/><defs><path id="L" d="m0-3.5-3.5 7h7z" style="stroke:#2ca02c;stroke-linejoin:miter"/></defs><g clip-path="url(#a)"><use xlink:href="#L" x="215.4" y="292.5" style="fill-opacity:0;stroke:#2ca02c;stroke-linejoin:miter"/><use xlink:href="#L" x="215.4" y="292.5" style="fill-opacity:0;stroke:#2ca02c;stroke-linejoin:miter"/><use xlink:href="#L" x="190" y="292.5" style="fill-opacity:0;stroke:#2ca02c;stroke-linejoin:miter"/><use xlink:href="#L" x="198.9" y="289.4" style="fill-opacity:0;stroke:#2ca02c;stroke-linejoin:miter"/><use xlink:href="#L" x="144.5" y="310.9" style="fill-opacity:0;stroke:#2ca02c;stroke-linejoin:miter"/><use xlink:href="#L" x="149.9" y="307.2" style="fill-opacity:0;stroke:#2ca02c;stroke-linejoin:miter"/><use xlink:href="#L" x="150.7" y="306.1" style="fill-opacity:0;stroke:#2ca02c;stroke-linejoin:miter"/><use xlink:href="#L" x="134.9" y="318.7" style="fill-opacity:0;stroke:#2ca02c;stroke-linejoin:miter"/><use xlink:href="#L" x="137.4" y="318.4" style="fill-opacity:0;stroke:#2ca02c;stroke-linejoin:miter"/><use xlink:href="#L" x="134.4" y="318.8" style="fill-opacity:0;stroke:#2ca02c;stroke-linejoin:miter"/></g><path d="M281.7 205h0-28.1l9-6.1-56.3-14.8 5.6-2.4v-2.6l-21.1 10h-.8" clip-path="url(#a)" style="fill:none;stroke:#d62728;stroke-width:1.5;stroke-linecap:square"/><defs><path id="M" d="m0 5 5-5-5-5-5 5z" style="stroke:#d62728;stroke-linejoin:miter"/></defs><g clip-path="url(#a)"><use xlink:href="#M" x="281.7" y="205" style="fill:#d62728;stroke:#d62728;stroke-linejoin:miter"/><use xlink:href="#M" x="281.7" y="205" style="fill:#d62728;stroke:#d62728;stroke-linejoin:miter"/><use xlink:href="#M" x="253.6" y="205" style="fill:#d62728;stroke:#d62728;stroke-linejoin:miter"/><use xlink:href="#M" x="262.5" y="198.9" style="fill:#d62728;stroke:#d62728;stroke-linejoin:miter"/><use xlink:href="#M" x="206.3" y="184.1" style="fill:#d62728;stroke:#d62728;stroke-linejoin:miter"/><use xlink:href="#M" x="211.9" y="181.7" style="fill:#d62728;stroke:#d62728;stroke-linejoin:miter"/><use xlink:href="#M" x="211.9" y="179.1" style="fill:#d62728;stroke:#d62728;stroke-linejoin:miter"/><use xlink:href="#M" x="190.8" y="189.1" style="fill:#d62728;stroke:#d62728;stroke-linejoin:miter"/><use xlink:href="#M" x="190.1" y="189.1" style="fill:#d62728;stroke:#d62728;stroke-linejoin:miter"/><use xlink:href="#M" x="190" y="189.2" style="fill:#d62728;stroke:#d62728;stroke-linejoin:miter"/></g><path d="M281.7 258.7h-28.1l9-6.3-56.3 16.5 5.6-2.7v-1.5L190.8 275h-.8" clip-path="url(#a)" style="fill:none;stroke-dasharray:5.55,2.4;stroke-dashoffset:0;stroke:#d62728;stroke-width:1.5"/><defs><path id="N" d="m0 5 5-5-5-5-5 5z" style="stroke:#d62728;stroke-linejoin:miter"/></defs><g clip-path="url(#a)"><use xlink:href="#N" x="281.7" y="258.7" style="fill-opacity:0;stroke:#d62728;stroke-linejoin:miter"/><use xlink:href="#N" x="281.7" y="258.7" style="fill-opacity:0;stroke:#d62728;stroke-linejoin:miter"/><use xlink:href="#N" x="253.6" y="258.7" style="fill-opacity:0;stroke:#d62728;stroke-linejoin:miter"/><use xlink:href="#N" x="262.5" y="252.4" style="fill-opacity:0;stroke:#d62728;stroke-linejoin:miter"/><use xlink:href="#N" x="206.3" y="268.9" style="fill-opacity:0;stroke:#d62728;stroke-linejoin:miter"/><use xlink:href="#N" x="211.9" y="266.2" style="fill-opacity:0;stroke:#d62728;stroke-linejoin:miter"/><use xlink:href="#N" x="211.9" y="264.7" style="fill-opacity:0;stroke:#d62728;stroke-linejoin:miter"/><use xlink:href="#N" x="190.8" y="275.1" style="fill-opacity:0;stroke:#d62728;stroke-linejoin:miter"/><use xlink:href="#N" x="190.1" y="275.1" style="fill-opacity:0;stroke:#d62728;stroke-linejoin:miter"/><use xlink:href="#N" x="190" y="275.1" style="fill-opacity:0;stroke:#d62728;stroke-linejoin:miter"/></g><path d="M377.8 163.8h0-33.4l8.6-3.8-28.9-24.3 4.2-1.7 1.7-5.5-23.8 7.4-.5-.2h-.7" clip-path="url(#a)" style="fill:none;stroke:#9467bd;stroke-width:1.5;stroke-linecap:square"/><defs><path id="O" d="m0 3.5 3.5-7h-7z" style="stroke:#9467bd;stroke-linejoin:miter"/></defs><g clip-path="url(#a)"><use xlink:href="#O" x="377.8" y="163.8" style="fill:#9467bd;stroke:#9467bd;stroke-linejoin:miter"/><use xlink:href="#O" x="377.8" y="163.8" style="fill:#9467bd;stroke:#9467bd;stroke-linejoin:miter"/><use xlink:href="#O" x="344.4" y="163.8" style="fill:#9467bd;stroke:#9467bd;stroke-linejoin:miter"/><use xlink:href="#O" x="353" y="160" style="fill:#9467bd;stroke:#9467bd;stroke-linejoin:miter"/><use xlink:href="#O" x="324.1" y="135.7" style="fill:#9467bd;stroke:#9467bd;stroke-linejoin:miter"/><use xlink:href="#O" x="328.3" y="134" style="fill:#9467bd;stroke:#9467bd;stroke-linejoin:miter"/><use xlink:href="#O" x="330" y="128.5" style="fill:#9467bd;stroke:#9467bd;stroke-linejoin:miter"/><use xlink:href="#O" x="306.2" y="135.9" style="fill:#9467bd;stroke:#9467bd;stroke-linejoin:miter"/><use xlink:href="#O" x="305.7" y="135.7" style="fill:#9467bd;stroke:#9467bd;stroke-linejoin:miter"/><use xlink:href="#O" x="305" y="135.8" style="fill:#9467bd;stroke:#9467bd;stroke-linejoin:miter"/></g><path d="M377.8 225.4h-33.4l8.6-3.6-28.9-9.1 4.2-1 1.7-8.4-23.8 8.8-.5-.3-.7.3" clip-path="url(#a)" style="fill:none;stroke-dasharray:5.55,2.4;stroke-dashoffset:0;stroke:#9467bd;stroke-width:1.5"/><defs><path id="P" d="m0 3.5 3.5-7h-7z" style="stroke:#9467bd;stroke-linejoin:miter"/></defs><g clip-path="url(#a)"><use xlink:href="#P" x="377.8" y="225.4" style="fill-opacity:0;stroke:#9467bd;stroke-linejoin:miter"/><use xlink:href="#P" x="377.8" y="225.4" style="fill-opacity:0;stroke:#9467bd;stroke-linejoin:miter"/><use xlink:href="#P" x="344.4" y="225.4" style="fill-opacity:0;stroke:#9467bd;stroke-linejoin:miter"/><use xlink:href="#P" x="353" y="221.8" style="fill-opacity:0;stroke:#9467bd;stroke-linejoin:miter"/><use xlink:href="#P" x="324.1" y="212.7" style="fill-opacity:0;stroke:#9467bd;stroke-linejoin:miter"/><use xlink:href="#P" x="328.3" y="211.7" style="fill-opacity:0;stroke:#9467bd;stroke-linejoin:miter"/><use xlink:href="#P" x="330" y="203.3" style="fill-opacity:0;stroke:#9467bd;stroke-linejoin:miter"/><use xlink:href="#P" x="306.2" y="212.1" style="fill-opacity:0;stroke:#9467bd;stroke-linejoin:miter"/><use xlink:href="#P" x="305.7" y="211.8" style="fill-opacity:0;stroke:#9467bd;stroke-linejoin:miter"/><use xlink:href="#P" x="305" y="212.1" style="fill-opacity:0;stroke:#9467bd;stroke-linejoin:miter"/></g><path d="M679 67.7h0-47.9l7.1-2L610.7 55l2-3 3.9-8.5-17.6 4.4 1-.5-3.2.5" clip-path="url(#a)" style="fill:none;stroke:#8c564b;stroke-width:1.5;stroke-linecap:square"/><defs><path id="Q" d="m-3.5 0 7 3.5v-7z" style="stroke:#8c564b;stroke-linejoin:miter"/></defs><g clip-path="url(#a)"><use xlink:href="#Q" x="679" y="67.7" style="fill:#8c564b;stroke:#8c564b;stroke-linejoin:miter"/><use xlink:href="#Q" x="679" y="67.7" style="fill:#8c564b;stroke:#8c564b;stroke-linejoin:miter"/><use xlink:href="#Q" x="631.1" y="67.7" style="fill:#8c564b;stroke:#8c564b;stroke-linejoin:miter"/><use xlink:href="#Q" x="638.2" y="65.8" style="fill:#8c564b;stroke:#8c564b;stroke-linejoin:miter"/><use xlink:href="#Q" x="610.7" y="54.9" style="fill:#8c564b;stroke:#8c564b;stroke-linejoin:miter"/><use xlink:href="#Q" x="612.8" y="51.9" style="fill:#8c564b;stroke:#8c564b;stroke-linejoin:miter"/><use xlink:href="#Q" x="616.6" y="43.4" style="fill:#8c564b;stroke:#8c564b;stroke-linejoin:miter"/><use xlink:href="#Q" x="599" y="47.8" style="fill:#8c564b;stroke:#8c564b;stroke-linejoin:miter"/><use xlink:href="#Q" x="600" y="47.3" style="fill:#8c564b;stroke:#8c564b;stroke-linejoin:miter"/><use xlink:href="#Q" x="596.8" y="47.8" style="fill:#8c564b;stroke:#8c564b;stroke-linejoin:miter"/></g><path d="M679 149.4h-47.9l7.1-1.7-27.5-27.4 2-.2 3.9-5-17.6.4 1-.4h-3.2" clip-path="url(#a)" style="fill:none;stroke-dasharray:5.55,2.4;stroke-dashoffset:0;stroke:#8c564b;stroke-width:1.5"/><defs><path id="R" d="m-3.5 0 7 3.5v-7z" style="stroke:#8c564b;stroke-linejoin:miter"/></defs><g clip-path="url(#a)"><use xlink:href="#R" x="679" y="149.4" style="fill-opacity:0;stroke:#8c564b;stroke-linejoin:miter"/><use xlink:href="#R" x="679" y="149.4" style="fill-opacity:0;stroke:#8c564b;stroke-linejoin:miter"/><use xlink:href="#R" x="631.1" y="149.4" style="fill-opacity:0;stroke:#8c564b;stroke-linejoin:miter"/><use xlink:href="#R" x="638.2" y="147.7" style="fill-opacity:0;stroke:#8c564b;stroke-linejoin:miter"/><use xlink:href="#R" x="610.7" y="120.3" style="fill-opacity:0;stroke:#8c564b;stroke-linejoin:miter"/><use xlink:href="#R" x="612.8" y="120.1" style="fill-opacity:0;stroke:#8c564b;stroke-linejoin:miter"/><use xlink:href="#R" x="616.6" y="115" style="fill-opacity:0;stroke:#8c564b;stroke-linejoin:miter"/><use xlink:href="#R" x="599" y="115.5" style="fill-opacity:0;stroke:#8c564b;stroke-linejoin:miter"/><use xlink:href="#R" x="600" y="115.1" style="fill-opacity:0;stroke:#8c564b;stroke-linejoin:miter"/><use xlink:href="#R" x="596.8" y="115.2" style="fill-opacity:0;stroke:#8c564b;stroke-linejoin:miter"/></g><path d="M45.3 389.3V27m663.9 362.3V27M45.3 389.3h663.9M45.3 26.9h663.9" style="fill:none;stroke:#000;stroke-width:.8;stroke-linejoin:miter;stroke-linecap:square"/><g transform="matrix(.12 0 0 -.12 311.8 20.9)"><defs><path id="S" d="M191 3500h609L1894 563l1094 2937h609L2284 0h-781z" transform="scale(.01563)"/></defs><use xlink:href="#q"/><use xlink:href="#B" transform="translate(60.3)"/><use xlink:href="#C" transform="translate(123.8)"/><use xlink:href="#D" transform="translate(198.6)"/><use xlink:href="#S" transform="translate(299.9)"/><use xlink:href="#m" transform="translate(359)"/><use xlink:href="#j" transform="translate(443)"/><use xlink:href="#k" transform="translate(511.5)"/><use xlink:href="#l" transform="translate(539.3)"/><use xlink:href="#m" transform="translate(578.5)"/><use xlink:href="#n" transform="translate(662.4)"/><use xlink:href="#o" transform="translate(725.9)"/><use xlink:href="#p" transform="translate(787.4)"/><use xlink:href="#q" transform="translate(860.3)"/><use xlink:href="#k" transform="translate(918.4)"/><use xlink:href="#r" transform="translate(946.1)"/><use xlink:href="#o" transform="translate(1002.2)"/><use xlink:href="#s" transform="translate(1063.7)"/></g><path d="M50.9 103.7h176.4q1.6 0 1.6-1.6V32.5q0-1.6-1.6-1.6H51q-1.6 0-1.6 1.6V102q0 1.6 1.6 1.6z" style="fill:#fff;opacity:.8;stroke:#ccc;stroke-linejoin:miter"/><path d="M52.5 37.4h16" style="fill:none;stroke:#1f77b4;stroke-width:1.5;stroke-linecap:square"/><use xlink:href="#G" x="60.5" y="37.4" style="fill:#1f77b4;stroke:#1f77b4"/><g transform="matrix(.08 0 0 -.08 74.9 40.2)"><defs><path id="T" d="M3328 2828q216 388 516 572t706 184q547 0 844-383 297-382 297-1088V0h-578v2094q0 503-179 746-178 244-543 244-447 0-707-297-259-296-259-809V0h-578v2094q0 506-178 748t-550 242q-441 0-701-298-259-298-259-808V0H581v3500h578v-544q197 322 472 475t653 153q382 0 649-194 267-193 395-562" transform="scale(.01563)"/><path id="U" d="M2194 1759q-697 0-966-159t-269-544q0-306 202-486 202-179 548-179 479 0 768 339t289 901v128zm1147 238V0h-575v531q-197-318-491-470T1556-91q-537 0-855 302-317 302-317 808 0 590 395 890 396 300 1180 300h807v57q0 397-261 614t-733 217q-300 0-585-72-284-72-546-216v532q315 122 612 182 297 61 578 61 760 0 1135-394 375-393 375-1193" transform="scale(.01563)"/><path id="V" d="M3513 2113V0h-575v2094q0 497-194 743-194 247-581 247-466 0-735-297-269-296-269-809V0H581v3500h578v-544q207 316 486 472 280 156 646 156 603 0 912-373 310-373 310-1098" transform="scale(.01563)"/></defs><use xlink:href="#e"/><use xlink:href="#c" transform="translate(63.6)"/><use xlink:href="#t" transform="translate(159)"/><use xlink:href="#T" transform="translate(198)"/><use xlink:href="#o" transform="translate(295.5)"/><use xlink:href="#U" transform="translate(357)"/><use xlink:href="#V" transform="translate(418.3)"/><use xlink:href="#y" transform="translate(481.6)"/></g><path d="M52.5 49.1h16" style="fill:none;stroke-dasharray:5.55,2.4;stroke-dashoffset:0;stroke:#1f77b4;stroke-width:1.5"/><use xlink:href="#H" x="60.5" y="49.1" style="fill-opacity:0;stroke:#1f77b4"/><g transform="matrix(.08 0 0 -.08 74.9 51.9)"><defs><path id="W" d="M691 4666h2478v-532H1269V2991q137 47 274 70 138 23 276 23 781 0 1237-428 457-428 457-1159 0-753-469-1171Q2575-91 1722-91q-294 0-599 50Q819 9 494 109v635q281-153 581-228t634-75q541 0 856 284 316 284 316 772 0 487-316 771-315 285-856 285-253 0-505-56-251-56-513-175z" transform="scale(.01563)"/><path id="X" d="M4653 2053q-272 0-427-231-154-231-154-644 0-406 154-639 155-233 427-233 266 0 420 233 155 233 155 639 0 410-155 642-154 233-420 233m0 397q494 0 784-344 291-343 291-928 0-584-292-927-292-342-783-342-500 0-791 342-290 343-290 927 0 588 292 930t789 342M1428 4353q-269 0-424-233-154-232-154-639 0-412 153-644 153-231 425-231t426 231q155 232 155 644 0 403-156 637-156 235-425 235m2822 397h500L1831-91h-500zm-2822 0q494 0 787-342 294-342 294-927 0-590-292-931t-789-341-786 342q-289 343-289 930 0 582 290 925 291 344 785 344" transform="scale(.01563)"/></defs><use xlink:href="#e"/><use xlink:href="#c" transform="translate(63.6)"/><use xlink:href="#t" transform="translate(159)"/><use xlink:href="#W" transform="translate(198)"/><use xlink:href="#X" transform="translate(261.7)"/><use xlink:href="#w" transform="translate(388.5)"/><use xlink:href="#v" transform="translate(470.3)"/><use xlink:href="#p" transform="translate(531.4)"/><use xlink:href="#m" transform="translate(572.6)"/><use xlink:href="#l" transform="translate(624.7)"/><use xlink:href="#y" transform="translate(663.9)"/></g><path d="M52.5 60.8h16" style="fill:none;stroke:#ff7f0e;stroke-width:1.5;stroke-linecap:square"/><use xlink:href="#I" x="60.5" y="60.8" style="fill:#ff7f0e;stroke:#ff7f0e;stroke-linejoin:miter"/><g transform="matrix(.08 0 0 -.08 74.9 63.6)"><use xlink:href="#W"/><use xlink:href="#c" transform="translate(63.6)"/><use xlink:href="#t" transform="translate(159)"/><use xlink:href="#T" transform="translate(198)"/><use xlink:href="#o" transform="translate(295.5)"/><use xlink:href="#U" transform="translate(357)"/><use xlink:href="#V" transform="translate(418.3)"/><use xlink:href="#y" transform="translate(481.6)"/></g><path d="M52.5 72.6h16" style="fill:none;stroke-dasharray:5.55,2.4;stroke-dashoffset:0;stroke:#ff7f0e;stroke-width:1.5"/><use xlink:href="#J" x="60.5" y="72.6" style="fill-opacity:0;stroke:#ff7f0e;stroke-linejoin:miter"/><g transform="matrix(.08 0 0 -.08 74.9 75.4)"><use xlink:href="#W"/><use xlink:href="#c" transform="translate(63.6)"/><use xlink:href="#t" transform="translate(159)"/><use xlink:href="#W" transform="translate(198)"/><use xlink:href="#X" transform="translate(261.7)"/><use xlink:href="#w" transform="translate(388.5)"/><use xlink:href="#v" transform="translate(470.3)"/><use xlink:href="#p" transform="translate(531.4)"/><use xlink:href="#m" transform="translate(572.6)"/><use xlink:href="#l" transform="translate(624.7)"/><use xlink:href="#y" transform="translate(663.9)"/></g><path d="M52.5 84.3h16" style="fill:none;stroke:#2ca02c;stroke-width:1.5;stroke-linecap:square"/><use xlink:href="#K" x="60.5" y="84.3" style="fill:#2ca02c;stroke:#2ca02c;stroke-linejoin:miter"/><g transform="matrix(.08 0 0 -.08 74.9 87.1)"><use xlink:href="#f"/><use xlink:href="#c" transform="translate(63.6)"/><use xlink:href="#t" transform="translate(159)"/><use xlink:href="#T" transform="translate(198)"/><use xlink:href="#o" transform="translate(295.5)"/><use xlink:href="#U" transform="translate(357)"/><use xlink:href="#V" transform="translate(418.3)"/><use xlink:href="#y" transform="translate(481.6)"/></g><path d="M52.5 96h16" style="fill:none;stroke-dasharray:5.55,2.4;stroke-dashoffset:0;stroke:#2ca02c;stroke-width:1.5"/><use xlink:href="#L" x="60.5" y="96.1" style="fill-opacity:0;stroke:#2ca02c;stroke-linejoin:miter"/><g transform="matrix(.08 0 0 -.08 74.9 98.9)"><use xlink:href="#f"/><use xlink:href="#c" transform="translate(63.6)"/><use xlink:href="#t" transform="translate(159)"/><use xlink:href="#W" transform="translate(198)"/><use xlink:href="#X" transform="translate(261.7)"/><use xlink:href="#w" transform="translate(388.5)"/><use xlink:href="#v" transform="translate(470.3)"/><use xlink:href="#p" transform="translate(531.4)"/><use xlink:href="#m" transform="translate(572.6)"/><use xlink:href="#l" transform="translate(624.7)"/><use xlink:href="#y" transform="translate(663.9)"/></g><path d="M147.1 37.4h16" style="fill:none;stroke:#d62728;stroke-width:1.5;stroke-linecap:square"/><use xlink:href="#M" x="155.1" y="37.4" style="fill:#d62728;stroke:#d62728;stroke-linejoin:miter"/><g transform="matrix(.08 0 0 -.08 169.5 40.2)"><defs><path id="Y" d="M525 4666h3000v-269L1831 0h-659l1594 4134H525z" transform="scale(.01563)"/></defs><use xlink:href="#Y"/><use xlink:href="#c" transform="translate(63.6)"/><use xlink:href="#t" transform="translate(159)"/><use xlink:href="#T" transform="translate(198)"/><use xlink:href="#o" transform="translate(295.5)"/><use xlink:href="#U" transform="translate(357)"/><use xlink:href="#V" transform="translate(418.3)"/><use xlink:href="#y" transform="translate(481.6)"/></g><path d="M147.1 49.1h16" style="fill:none;stroke-dasharray:5.55,2.4;stroke-dashoffset:0;stroke:#d62728;stroke-width:1.5"/><use xlink:href="#N" x="155.1" y="49.1" style="fill-opacity:0;stroke:#d62728;stroke-linejoin:miter"/><g transform="matrix(.08 0 0 -.08 169.5 51.9)"><use xlink:href="#Y"/><use xlink:href="#c" transform="translate(63.6)"/><use xlink:href="#t" transform="translate(159)"/><use xlink:href="#W" transform="translate(198)"/><use xlink:href="#X" transform="translate(261.7)"/><use xlink:href="#w" transform="translate(388.5)"/><use xlink:href="#v" transform="translate(470.3)"/><use xlink:href="#p" transform="translate(531.4)"/><use xlink:href="#m" transform="translate(572.6)"/><use xlink:href="#l" transform="translate(624.7)"/><use xlink:href="#y" transform="translate(663.9)"/></g><path d="M147.1 60.8h16" style="fill:none;stroke:#9467bd;stroke-width:1.5;stroke-linecap:square"/><use xlink:href="#O" x="155.1" y="60.8" style="fill:#9467bd;stroke:#9467bd;stroke-linejoin:miter"/><g transform="matrix(.08 0 0 -.08 169.5 63.6)"><use xlink:href="#g"/><use xlink:href="#c" transform="translate(63.6)"/><use xlink:href="#t" transform="translate(159)"/><use xlink:href="#T" transform="translate(198)"/><use xlink:href="#o" transform="translate(295.5)"/><use xlink:href="#U" transform="translate(357)"/><use xlink:href="#V" transform="translate(418.3)"/><use xlink:href="#y" transform="translate(481.6)"/></g><path d="M147.1 72.6h16" style="fill:none;stroke-dasharray:5.55,2.4;stroke-dashoffset:0;stroke:#9467bd;stroke-width:1.5"/><use xlink:href="#P" x="155.1" y="72.6" style="fill-opacity:0;stroke:#9467bd;stroke-linejoin:miter"/><g transform="matrix(.08 0 0 -.08 169.5 75.4)"><use xlink:href="#g"/><use xlink:href="#c" transform="translate(63.6)"/><use xlink:href="#t" transform="translate(159)"/><use xlink:href="#W" transform="translate(198)"/><use xlink:href="#X" transform="translate(261.7)"/><use xlink:href="#w" transform="translate(388.5)"/><use xlink:href="#v" transform="translate(470.3)"/><use xlink:href="#p" transform="translate(531.4)"/><use xlink:href="#m" transform="translate(572.6)"/><use xlink:href="#l" transform="translate(624.7)"/><use xlink:href="#y" transform="translate(663.9)"/></g><path d="M147.1 84.3h16" style="fill:none;stroke:#8c564b;stroke-width:1.5;stroke-linecap:square"/><use xlink:href="#Q" x="155.1" y="84.3" style="fill:#8c564b;stroke:#8c564b;stroke-linejoin:miter"/><g transform="matrix(.08 0 0 -.08 169.5 87.1)"><defs><path id="Z" d="M703 97v575q238-113 481-172 244-59 479-59 625 0 954 420 330 420 377 1277-181-269-460-413-278-144-615-144-700 0-1108 423-408 424-408 1159 0 718 425 1152 425 435 1131 435 810 0 1236-621 427-620 427-1801 0-1103-524-1761Q2575-91 1691-91q-238 0-482 47Q966 3 703 97m1256 1978q425 0 673 290 249 291 249 798 0 503-249 795-248 292-673 292t-673-292-248-795q0-507 248-798 248-290 673-290" transform="scale(.01563)"/></defs><use xlink:href="#Z"/><use xlink:href="#c" transform="translate(63.6)"/><use xlink:href="#t" transform="translate(159)"/><use xlink:href="#T" transform="translate(198)"/><use xlink:href="#o" transform="translate(295.5)"/><use xlink:href="#U" transform="translate(357)"/><use xlink:href="#V" transform="translate(418.3)"/><use xlink:href="#y" transform="translate(481.6)"/></g><path d="M147.1 96h16" style="fill:none;stroke-dasharray:5.55,2.4;stroke-dashoffset:0;stroke:#8c564b;stroke-width:1.5"/><use xlink:href="#R" x="155.1" y="96.1" style="fill-opacity:0;stroke:#8c564b;stroke-linejoin:miter"/><g transform="matrix(.08 0 0 -.08 169.5 98.9)"><use xlink:href="#Z"/><use xlink:href="#c" transform="translate(63.6)"/><use xlink:href="#t" transform="translate(159)"/><use xlink:href="#W" transform="translate(198)"/><use xlink:href="#X" transform="translate(261.7)"/><use xlink:href="#w" transform="translate(388.5)"/><use xlink:href="#v" transform="translate(470.3)"/><use xlink:href="#p" transform="translate(531.4)"/><use xlink:href="#m" transform="translate(572.6)"/><use xlink:href="#l" transform="translate(624.7)"/><use xlink:href="#y" transform="translate(663.9)"/></g><defs><clipPath id="a"><path d="M45.3 26.9h663.9v362.4H45.3z"/></clipPath></defs></svg>