<svg xmlns="http://www.w3.org/2000/svg" xmlns:xlink="http://www.w3.org/1999/xlink" width="960" height="576" viewBox="0 0 720 432"><path d="M0 432h720V0H0z" style="fill:#fff"/><path d="M54.7 389.3h654.5V27H54.7z" style="fill:#fff"/><path d="M150.6 389.3V27" clip-path="url(#a)" style="fill:none;stroke:#b0b0b0;stroke-opacity:.3;stroke-width:.8;stroke-linecap:square"/><defs><path id="b" d="M0 0v3.5" style="stroke:#000;stroke-width:.8"/></defs><use xlink:href="#b" x="150.6" y="389.3" style="stroke:#000;stroke-width:.8"/><g transform="matrix(.1 0 0 -.1 147.4 404)"><defs><path id="c" d="M1228 531h2203V0H469v531q359 372 979 998 621 627 780 809 303 340 423 576 121 236 121 464 0 372-261 606-261 235-680 235-297 0-627-103-329-103-704-313v638q381 153 712 231 332 78 607 78 725 0 1156-363 431-362 431-968 0-288-108-546-107-257-392-607-78-91-497-524-418-433-1181-1211" transform="scale(.01563)"/></defs><use xlink:href="#c"/></g><path d="M282.8 389.3V27" clip-path="url(#a)" style="fill:none;stroke:#b0b0b0;stroke-opacity:.3;stroke-width:.8;stroke-linecap:square"/><use xlink:href="#b" x="282.8" y="389.3" style="stroke:#000;stroke-width:.8"/><g transform="matrix(.1 0 0 -.1 279.6 404)"><defs><path id="d" d="M2419 4116 825 1625h1594zm-166 550h794V1625h666v-525h-666V0h-628v1100H313v609z" transform="scale(.01563)"/></defs><use xlink:href="#d"/></g><path d="M415 389.3V27" clip-path="url(#a)" style="fill:none;stroke:#b0b0b0;stroke-opacity:.3;stroke-width:.8;stroke-linecap:square"/><use xlink:href="#b" x="415" y="389.3" style="stroke:#000;stroke-width:.8"/><g transform="matrix(.1 0 0 -.1 411.8 404)"><defs><path id="e" d="M2113 2584q-425 0-674-291-248-290-248-796 0-503 248-796 249-292 674-292t673 292q248 293 248 796 0 506-248 796-248 291-673 291m1253 1979v-575q-238 112-480 171-242 60-480 60-625 0-955-422-329-422-376-1275 184 272 462 417 279 145 613 145 703 0 1111-427 408-426 408-1160 0-719-425-1154Q2819-91 2113-91q-810 0-1238 620-428 621-428 1799 0 1106 525 1764t1409 658q238 0 480-47t505-140" transform="scale(.01563)"/></defs><use xlink:href="#e"/></g><path d="M547.2 389.3V27" clip-path="url(#a)" style="fill:none;stroke:#b0b0b0;stroke-opacity:.3;stroke-width:.8;stroke-linecap:square"/><use xlink:href="#b" x="547.2" y="389.3" style="stroke:#000;stroke-width:.8"/><g transform="matrix(.1 0 0 -.1 544 404)"><defs><path id="f" d="M2034 2216q-450 0-708-241-257-241-257-662 0-422 257-663 258-241 708-241t709 242q260 243 260 662 0 421-258 662-257 241-711 241m-631 268q-406 100-633 378-226 279-226 679 0 559 398 884 399 325 1092 325 697 0 1094-325t397-884q0-400-227-679-226-278-629-378 456-106 710-416 255-309 255-755 0-679-414-1042Q2806-91 2034-91q-771 0-1186 362-414 363-414 1042 0 446 256 755 257 310 713 416m-231 997q0-362 226-565 227-203 636-203 407 0 636 203 230 203 230 565 0 363-230 566-229 203-636 203-409 0-636-203-226-203-226-566" transform="scale(.01563)"/></defs><use xlink:href="#f"/></g><path d="M679.5 389.3V27" clip-path="url(#a)" style="fill:none;stroke:#b0b0b0;stroke-opacity:.3;stroke-width:.8;stroke-linecap:square"/><use xlink:href="#b" x="679.5" y="389.3" style="stroke:#000;stroke-width:.8"/><g transform="matrix(.1 0 0 -.1 673 404)"><defs><path id="g" d="M794 531h1031v3560L703 3866v575l1116 225h631V531h1031V0H794z" transform="scale(.01563)"/><path id="h" d="M2034 4250q-487 0-733-480-245-479-245-1442 0-959 245-1439 246-480 733-480 491 0 736 480 246 480 246 1439 0 963-246 1442-245 480-736 480m0 500q785 0 1199-621 414-620 414-1801 0-1178-414-1799Q2819-91 2034-91q-784 0-1198 620-414 621-414 1799 0 1181 414 1801 414 621 1198 621" transform="scale(.01563)"/></defs><use xlink:href="#g"/><use xlink:href="#h" transform="translate(63.6)"/></g><g transform="matrix(.11 0 0 -.11 366.8 418.4)"><defs><path id="i" d="M628 4666h2950v-532H1259V2753h2222v-531H1259V531h2375V0H628z" transform="scale(.01563)"/><path id="j" d="M2375 4863v-479h-550q-309 0-430-125-120-125-120-450v-309h947v-447h-947V0H697v3053H147v447h550v244q0 584 272 851 272 268 862 268z" transform="scale(.01563)"/><path id="k" d="M1959 3097q-462 0-731-361t-269-989 267-989q268-361 733-361 460 0 728 362 269 363 269 988 0 622-269 986-268 364-728 364m0 487q750 0 1178-488 429-487 429-1349 0-859-429-1349Q2709-91 1959-91q-753 0-1180 489-426 490-426 1349 0 862 426 1349 427 488 1180 488" transform="scale(.01563)"/><path id="l" d="M2631 2963q-97 56-211 82-114 27-251 27-488 0-749-317t-261-911V0H581v3500h578v-544q182 319 472 473 291 155 707 155 59 0 131-8 72-7 159-23z" transform="scale(.01563)"/><path id="m" d="M1172 4494v-994h1184v-447H1172V1153q0-428 117-550t477-122h590V0h-590q-666 0-919 248-253 249-253 905v1900H172v447h422v994z" transform="scale(.01563)"/></defs><use xlink:href="#i"/><use xlink:href="#j" transform="translate(63.2)"/><use xlink:href="#j" transform="translate(98.4)"/><use xlink:href="#k" transform="translate(133.6)"/><use xlink:href="#l" transform="translate(194.8)"/><use xlink:href="#m" transform="translate(235.9)"/></g><path d="M54.7 374.8h654.5" clip-path="url(#a)" style="fill:none;stroke:#b0b0b0;stroke-opacity:.3;stroke-width:.8;stroke-linecap:square"/><defs><path id="n" d="M0 0h-3.5" style="stroke:#000;stroke-width:.8"/></defs><use xlink:href="#n" x="54.7" y="374.8" style="stroke:#000;stroke-width:.8"/><g transform="matrix(.1 0 0 -.1 25.5 378.6)"><defs><path id="o" d="M684 794h660V0H684z" transform="scale(.01563)"/><path id="p" d="M691 4666h2478v-532H1269V2991q137 47 274 70 138 23 276 23 781 0 1237-428 457-428 457-1159 0-753-469-1171Q2575-91 1722-91q-294 0-599 50Q819 9 494 109v635q281-153 581-228t634-75q541 0 856 284 316 284 316 772 0 487-316 771-315 285-856 285-253 0-505-56-251-56-513-175z" transform="scale(.01563)"/></defs><use xlink:href="#h"/><use xlink:href="#o" transform="translate(63.6)"/><use xlink:href="#h" transform="translate(95.4)"/><use xlink:href="#p" transform="translate(159)"/></g><path d="M54.7 330.7h654.5" clip-path="url(#a)" style="fill:none;stroke:#b0b0b0;stroke-opacity:.3;stroke-width:.8;stroke-linecap:square"/><use xlink:href="#n" x="54.7" y="330.7" style="stroke:#000;stroke-width:.8"/><g transform="matrix(.1 0 0 -.1 25.5 334.5)"><use xlink:href="#h"/><use xlink:href="#o" transform="translate(63.6)"/><use xlink:href="#g" transform="translate(95.4)"/><use xlink:href="#h" transform="translate(159)"/></g><path d="M54.7 286.5h654.5" clip-path="url(#a)" style="fill:none;stroke:#b0b0b0;stroke-opacity:.3;stroke-width:.8;stroke-linecap:square"/><use xlink:href="#n" x="54.7" y="286.5" style="stroke:#000;stroke-width:.8"/><g transform="matrix(.1 0 0 -.1 25.5 290.3)"><use xlink:href="#h"/><use xlink:href="#o" transform="translate(63.6)"/><use xlink:href="#g" transform="translate(95.4)"/><use xlink:href="#p" transform="translate(159)"/></g><path d="M54.7 242.3h654.5" clip-path="url(#a)" style="fill:none;stroke:#b0b0b0;stroke-opacity:.3;stroke-width:.8;stroke-linecap:square"/><use xlink:href="#n" x="54.7" y="242.3" style="stroke:#000;stroke-width:.8"/><g transform="matrix(.1 0 0 -.1 25.5 246.1)"><use xlink:href="#h"/><use xlink:href="#o" transform="translate(63.6)"/><use xlink:href="#c" transform="translate(95.4)"/><use xlink:href="#h" transform="translate(159)"/></g><path d="M54.7 198.2h654.5" clip-path="url(#a)" style="fill:none;stroke:#b0b0b0;stroke-opacity:.3;stroke-width:.8;stroke-linecap:square"/><use xlink:href="#n" x="54.7" y="198.2" style="stroke:#000;stroke-width:.8"/><g transform="matrix(.1 0 0 -.1 25.5 202)"><use xlink:href="#h"/><use xlink:href="#o" transform="translate(63.6)"/><use xlink:href="#c" transform="translate(95.4)"/><use xlink:href="#p" transform="translate(159)"/></g><path d="M54.7 154h654.5" clip-path="url(#a)" style="fill:none;stroke:#b0b0b0;stroke-opacity:.3;stroke-width:.8;stroke-linecap:square"/><use xlink:href="#n" x="54.7" y="154" style="stroke:#000;stroke-width:.8"/><g transform="matrix(.1 0 0 -.1 25.5 157.8)"><defs><path id="q" d="M2597 2516q453-97 707-404 255-306 255-756 0-690-475-1069Q2609-91 1734-91q-293 0-604 58T488 141v609q262-153 574-231 313-78 654-78 593 0 904 234t311 681q0 413-289 645-289 233-804 233h-544v519h569q465 0 712 186t247 536q0 359-255 551-254 193-729 193-260 0-557-57-297-56-653-174v562q360 100 674 150t592 50q719 0 1137-327 419-326 419-882 0-388-222-655t-631-370" transform="scale(.01563)"/></defs><use xlink:href="#h"/><use xlink:href="#o" transform="translate(63.6)"/><use xlink:href="#q" transform="translate(95.4)"/><use xlink:href="#h" transform="translate(159)"/></g><path d="M54.7 109.9h654.5" clip-path="url(#a)" style="fill:none;stroke:#b0b0b0;stroke-opacity:.3;stroke-width:.8;stroke-linecap:square"/><use xlink:href="#n" x="54.7" y="109.9" style="stroke:#000;stroke-width:.8"/><g transform="matrix(.1 0 0 -.1 25.5 113.7)"><use xlink:href="#h"/><use xlink:href="#o" transform="translate(63.6)"/><use xlink:href="#q" transform="translate(95.4)"/><use xlink:href="#p" transform="translate(159)"/></g><path d="M54.7 65.7h654.5" clip-path="url(#a)" style="fill:none;stroke:#b0b0b0;stroke-opacity:.3;stroke-width:.8;stroke-linecap:square"/><use xlink:href="#n" x="54.7" y="65.7" style="stroke:#000;stroke-width:.8"/><g transform="matrix(.1 0 0 -.1 25.5 69.5)"><use xlink:href="#h"/><use xlink:href="#o" transform="translate(63.6)"/><use xlink:href="#d" transform="translate(95.4)"/><use xlink:href="#h" transform="translate(159)"/></g><g transform="matrix(0 -.11 -.11 0 19.2 319.8)"><defs><path id="r" d="M1259 2228V519h1013q509 0 754 211 246 211 246 645 0 438-246 645-245 208-754 208zm0 1919V2741h935q462 0 688 173 227 174 227 530 0 353-227 528-226 175-688 175zm-631 519h1613q722 0 1112-300 391-300 391-853 0-429-200-682t-588-315q466-100 724-418 258-317 258-792 0-625-425-966Q3088 0 2303 0H628z" transform="scale(.01563)"/><path id="s" d="M2059-325q-243-625-475-815-231-191-618-191H506v481h338q237 0 368 113 132 112 291 531l103 262L191 3500h609L1894 763l1094 2737h609z" transform="scale(.01563)"/><path id="t" d="M3597 1894v-281H953q38-594 358-905t892-311q331 0 642 81t618 244V178Q3153 47 2828-22t-659-69q-838 0-1327 487-489 488-489 1320 0 859 464 1363 464 505 1252 505 706 0 1117-455 411-454 411-1235m-575 169q-6 471-264 752-258 282-683 282-481 0-770-272t-333-766z" transform="scale(.01563)"/><path id="u" d="M2834 3397v-544q-243 125-506 187-262 63-544 63-428 0-642-131t-214-394q0-200 153-314t616-217l197-44q612-131 870-370t258-667q0-488-386-773Q2250-91 1575-91q-281 0-586 55T347 128v594q319-166 628-249 309-82 613-82 406 0 624 139 219 139 219 392 0 234-158 359-157 125-692 241l-200 47q-534 112-772 345-237 233-237 639 0 494 350 762 350 269 994 269 318 0 599-47 282-46 519-140" transform="scale(.01563)"/><path id="v" d="M1259 4147V2394h794q441 0 681 228 241 228 241 650 0 419-241 647-240 228-681 228zm-631 519h1425q785 0 1186-355 402-355 402-1039 0-691-402-1044-401-353-1186-353h-794V0H628z" transform="scale(.01563)"/><path id="w" d="M3425 4513v-616q-359 172-678 256-319 85-616 85-515 0-795-200t-280-569q0-310 186-468 186-157 705-254l381-78q706-135 1042-474t336-907q0-679-455-1029Q2797-91 1919-91q-331 0-705 75-373 75-773 222v650q384-215 753-325 369-109 725-109 540 0 834 212 294 213 294 607 0 343-211 537t-692 291l-385 75q-706 140-1022 440-315 300-315 835 0 619 436 975t1201 356q329 0 669-60 341-59 697-177" transform="scale(.01563)"/><path id="x" d="M603 3500h575V0H603zm0 1363h575v-729H603z" transform="scale(.01563)"/><path id="y" d="M3328 2828q216 388 516 572t706 184q547 0 844-383 297-382 297-1088V0h-578v2094q0 503-179 746-178 244-543 244-447 0-707-297-259-296-259-809V0h-578v2094q0 506-178 748t-550 242q-441 0-701-298-259-298-259-808V0H581v3500h578v-544q197 322 472 475t653 153q382 0 649-194 267-193 395-562" transform="scale(.01563)"/><path id="z" d="M3513 3500 2247 1797 3578 0h-678L1881 1375 863 0H184l1360 1831L300 3500h678l928-1247 928 1247z" transform="scale(.01563)"/><path id="A" d="M603 4863h575V0H603z" transform="scale(.01563)"/><path id="B" d="M1984 4856q-418-718-622-1422-203-703-203-1425 0-721 205-1429t620-1424h-500Q1016-109 783 600T550 2009q0 697 231 1403 232 707 703 1444z" transform="scale(.01563)"/><path id="C" d="M269 3500h575l719-2731 715 2731h678l719-2731 716 2731h575L4050 0h-678l-753 2869L1863 0h-679z" transform="scale(.01563)"/><path id="D" d="M3116 1747q0 634-261 995t-717 361q-457 0-718-361t-261-995 261-995 718-361q456 0 717 361t261 995M1159 2969q182 312 458 463 277 152 661 152 638 0 1036-506 399-506 399-1331T3314 415Q2916-91 2278-91q-384 0-661 152-276 152-458 464V0H581v4863h578z" transform="scale(.01563)"/><path id="E" d="M513 4856h500q468-737 701-1444 233-706 233-1403 0-700-233-1409T1013-844H513q415 716 620 1424t205 1429q0 722-205 1425-205 704-620 1422" transform="scale(.01563)"/></defs><use xlink:href="#r"/><use xlink:href="#s" transform="translate(68.6)"/><use xlink:href="#m" transform="translate(127.8)"/><use xlink:href="#t" transform="translate(167)"/><use xlink:href="#u" transform="translate(228.5)"/><use xlink:href="#v" transform="translate(312.4)"/><use xlink:href="#t" transform="translate(369)"/><use xlink:href="#l" transform="translate(430.6)"/><use xlink:href="#w" transform="translate(503.5)"/><use xlink:href="#u" transform="translate(567)"/><use xlink:href="#x" transform="translate(619)"/><use xlink:href="#y" transform="translate(646.9)"/><use xlink:href="#v" transform="translate(776)"/><use xlink:href="#t" transform="translate(832.7)"/><use xlink:href="#l" transform="translate(894.3)"/><use xlink:href="#v" transform="translate(967.2)"/><use xlink:href="#x" transform="translate(1025.2)"/><use xlink:href="#z" transform="translate(1053)"/><use xlink:href="#t" transform="translate(1109)"/><use xlink:href="#A" transform="translate(1170.6)"/><use xlink:href="#B" transform="translate(1230.1)"/><use xlink:href="#A" transform="translate(1269.2)"/><use xlink:href="#k" transform="translate(1297)"/><use xlink:href="#C" transform="translate(1358.1)"/><use xlink:href="#t" transform="translate(1440)"/><use xlink:href="#l" transform="translate(1501.4)"/><use xlink:href="#x" transform="translate(1574.3)"/><use xlink:href="#u" transform="translate(1602.1)"/><use xlink:href="#D" transform="translate(1686)"/><use xlink:href="#t" transform="translate(1749.5)"/><use xlink:href="#m" transform="translate(1811)"/><use xlink:href="#m" transform="translate(1850.2)"/><use xlink:href="#t" transform="translate(1889.4)"/><use xlink:href="#l" transform="translate(1951)"/><use xlink:href="#E" transform="translate(1992)"/></g><path d="M84.5 349.5h66.1l66.1 8 66.1-1.6 66.1 13.4 66.1-.4 66.1-.2 66.1 4h66.1l66.2.1" clip-path="url(#a)" style="fill:none;stroke:#1f77b4;stroke-width:1.5;stroke-linecap:square"/><defs><path id="F" d="M0 3.5a3.5 3.5 0 1 0 0-7 3.5 3.5 0 0 0 0 7z" style="stroke:#1f77b4"/></defs><g clip-path="url(#a)"><use xlink:href="#F" x="84.5" y="349.5" style="fill:#1f77b4;stroke:#1f77b4"/><use xlink:href="#F" x="150.6" y="349.5" style="fill:#1f77b4;stroke:#1f77b4"/><use xlink:href="#F" x="216.7" y="357.5" style="fill:#1f77b4;stroke:#1f77b4"/><use xlink:href="#F" x="282.8" y="355.9" style="fill:#1f77b4;stroke:#1f77b4"/><use xlink:href="#F" x="348.9" y="369.3" style="fill:#1f77b4;stroke:#1f77b4"/><use xlink:href="#F" x="415" y="368.9" style="fill:#1f77b4;stroke:#1f77b4"/><use xlink:href="#F" x="481.1" y="368.7" style="fill:#1f77b4;stroke:#1f77b4"/><use xlink:href="#F" x="547.2" y="372.7" style="fill:#1f77b4;stroke:#1f77b4"/><use xlink:href="#F" x="613.3" y="372.7" style="fill:#1f77b4;stroke:#1f77b4"/><use xlink:href="#F" x="679.5" y="372.8" style="fill:#1f77b4;stroke:#1f77b4"/></g><path d="M84.5 281.1h66.1l66.1 11.5 66.1-2 66.1 38.6 66.1-.2 66.1-.5 66.1 8.5h66.1l66.2.2" clip-path="url(#a)" style="fill:none;stroke-dasharray:5.55,2.4;stroke-dashoffset:0;stroke:#1f77b4;stroke-width:1.5"/><defs><path id="G" d="M0 3.5a3.5 3.5 0 1 0 0-7 3.5 3.5 0 0 0 0 7z" style="stroke:#1f77b4"/></defs><g clip-path="url(#a)"><use xlink:href="#G" x="84.5" y="281.1" style="fill-opacity:0;stroke:#1f77b4"/><use xlink:href="#G" x="150.6" y="281.1" style="fill-opacity:0;stroke:#1f77b4"/><use xlink:href="#G" x="216.7" y="292.6" style="fill-opacity:0;stroke:#1f77b4"/><use xlink:href="#G" x="282.8" y="290.7" style="fill-opacity:0;stroke:#1f77b4"/><use xlink:href="#G" x="348.9" y="329.2" style="fill-opacity:0;stroke:#1f77b4"/><use xlink:href="#G" x="415" y="329" style="fill-opacity:0;stroke:#1f77b4"/><use xlink:href="#G" x="481.1" y="328.5" style="fill-opacity:0;stroke:#1f77b4"/><use xlink:href="#G" x="547.2" y="337" style="fill-opacity:0;stroke:#1f77b4"/><use xlink:href="#G" x="613.3" y="337" style="fill-opacity:0;stroke:#1f77b4"/><use xlink:href="#G" x="679.5" y="337.2" style="fill-opacity:0;stroke:#1f77b4"/></g><path d="M84.5 340.3h66.1l66.1 8.4 66.1-1.8 66.1 15.5 66.1-.4 66.1-.2 66.1 4.1 66.1-.1 66.2.2" clip-path="url(#a)" style="fill:none;stroke:#ff7f0e;stroke-width:1.5;stroke-linecap:square"/><defs><path id="H" d="M-3.5 3.5h7v-7h-7z" style="stroke:#ff7f0e;stroke-linejoin:miter"/></defs><g clip-path="url(#a)"><use xlink:href="#H" x="84.5" y="340.3" style="fill:#ff7f0e;stroke:#ff7f0e;stroke-linejoin:miter"/><use xlink:href="#H" x="150.6" y="340.3" style="fill:#ff7f0e;stroke:#ff7f0e;stroke-linejoin:miter"/><use xlink:href="#H" x="216.7" y="348.7" style="fill:#ff7f0e;stroke:#ff7f0e;stroke-linejoin:miter"/><use xlink:href="#H" x="282.8" y="346.9" style="fill:#ff7f0e;stroke:#ff7f0e;stroke-linejoin:miter"/><use xlink:href="#H" x="348.9" y="362.4" style="fill:#ff7f0e;stroke:#ff7f0e;stroke-linejoin:miter"/><use xlink:href="#H" x="415" y="362" style="fill:#ff7f0e;stroke:#ff7f0e;stroke-linejoin:miter"/><use xlink:href="#H" x="481.1" y="361.8" style="fill:#ff7f0e;stroke:#ff7f0e;stroke-linejoin:miter"/><use xlink:href="#H" x="547.2" y="365.9" style="fill:#ff7f0e;stroke:#ff7f0e;stroke-linejoin:miter"/><use xlink:href="#H" x="613.3" y="365.8" style="fill:#ff7f0e;stroke:#ff7f0e;stroke-linejoin:miter"/><use xlink:href="#H" x="679.5" y="366" style="fill:#ff7f0e;stroke:#ff7f0e;stroke-linejoin:miter"/></g><path d="M84.5 264.2h66.1l66.1 12.2 66.1-.3 66.1 42.3 66.1.9 66.1-.2 66.1 9h66.1l66.2.3" clip-path="url(#a)" style="fill:none;stroke-dasharray:5.55,2.4;stroke-dashoffset:0;stroke:#ff7f0e;stroke-width:1.5"/><defs><path id="I" d="M-3.5 3.5h7v-7h-7z" style="stroke:#ff7f0e;stroke-linejoin:miter"/></defs><g clip-path="url(#a)"><use xlink:href="#I" x="84.5" y="264.2" style="fill-opacity:0;stroke:#ff7f0e;stroke-linejoin:miter"/><use xlink:href="#I" x="150.6" y="264.2" style="fill-opacity:0;stroke:#ff7f0e;stroke-linejoin:miter"/><use xlink:href="#I" x="216.7" y="276.4" style="fill-opacity:0;stroke:#ff7f0e;stroke-linejoin:miter"/><use xlink:href="#I" x="282.8" y="276.1" style="fill-opacity:0;stroke:#ff7f0e;stroke-linejoin:miter"/><use xlink:href="#I" x="348.9" y="318.4" style="fill-opacity:0;stroke:#ff7f0e;stroke-linejoin:miter"/><use xlink:href="#I" x="415" y="319.3" style="fill-opacity:0;stroke:#ff7f0e;stroke-linejoin:miter"/><use xlink:href="#I" x="481.1" y="319.1" style="fill-opacity:0;stroke:#ff7f0e;stroke-linejoin:miter"/><use xlink:href="#I" x="547.2" y="328.1" style="fill-opacity:0;stroke:#ff7f0e;stroke-linejoin:miter"/><use xlink:href="#I" x="613.3" y="328" style="fill-opacity:0;stroke:#ff7f0e;stroke-linejoin:miter"/><use xlink:href="#I" x="679.5" y="328.4" style="fill-opacity:0;stroke:#ff7f0e;stroke-linejoin:miter"/></g><path d="M84.5 327.2h66.1l66.1 9 66.1-1.8 66.1 18 66.1-1.1 66.1-.2 66.1 4.4 66.1-.3 66.2.6" clip-path="url(#a)" style="fill:none;stroke:#2ca02c;stroke-width:1.5;stroke-linecap:square"/><defs><path id="J" d="m0-3.5-3.5 7h7z" style="stroke:#2ca02c;stroke-linejoin:miter"/></defs><g clip-path="url(#a)"><use xlink:href="#J" x="84.5" y="327.2" style="fill:#2ca02c;stroke:#2ca02c;stroke-linejoin:miter"/><use xlink:href="#J" x="150.6" y="327.2" style="fill:#2ca02c;stroke:#2ca02c;stroke-linejoin:miter"/><use xlink:href="#J" x="216.7" y="336.2" style="fill:#2ca02c;stroke:#2ca02c;stroke-linejoin:miter"/><use xlink:href="#J" x="282.8" y="334.4" style="fill:#2ca02c;stroke:#2ca02c;stroke-linejoin:miter"/><use xlink:href="#J" x="348.9" y="352.3" style="fill:#2ca02c;stroke:#2ca02c;stroke-linejoin:miter"/><use xlink:href="#J" x="415" y="351.3" style="fill:#2ca02c;stroke:#2ca02c;stroke-linejoin:miter"/><use xlink:href="#J" x="481.1" y="351.1" style="fill:#2ca02c;stroke:#2ca02c;stroke-linejoin:miter"/><use xlink:href="#J" x="547.2" y="355.5" style="fill:#2ca02c;stroke:#2ca02c;stroke-linejoin:miter"/><use xlink:href="#J" x="613.3" y="355.2" style="fill:#2ca02c;stroke:#2ca02c;stroke-linejoin:miter"/><use xlink:href="#J" x="679.5" y="355.8" style="fill:#2ca02c;stroke:#2ca02c;stroke-linejoin:miter"/></g><path d="M84.5 241.9h66.1l66.1 15.2 66.1-1.6L349 303l66.1-1.7 66.1-.3 66.1 9 66.1-.6 66.2 1" clip-path="url(#a)" style="fill:none;stroke-dasharray:5.55,2.4;stroke-dashoffset:0;stroke:#2ca02c;stroke-width:1.5"/><defs><path id="K" d="m0-3.5-3.5 7h7z" style="stroke:#2ca02c;stroke-linejoin:miter"/></defs><g clip-path="url(#a)"><use xlink:href="#K" x="84.5" y="241.9" style="fill-opacity:0;stroke:#2ca02c;stroke-linejoin:miter"/><use xlink:href="#K" x="150.6" y="241.9" style="fill-opacity:0;stroke:#2ca02c;stroke-linejoin:miter"/><use xlink:href="#K" x="216.7" y="257.1" style="fill-opacity:0;stroke:#2ca02c;stroke-linejoin:miter"/><use xlink:href="#K" x="282.8" y="255.5" style="fill-opacity:0;stroke:#2ca02c;stroke-linejoin:miter"/><use xlink:href="#K" x="348.9" y="303" style="fill-opacity:0;stroke:#2ca02c;stroke-linejoin:miter"/><use xlink:href="#K" x="415" y="301.3" style="fill-opacity:0;stroke:#2ca02c;stroke-linejoin:miter"/><use xlink:href="#K" x="481.1" y="301" style="fill-opacity:0;stroke:#2ca02c;stroke-linejoin:miter"/><use xlink:href="#K" x="547.2" y="310" style="fill-opacity:0;stroke:#2ca02c;stroke-linejoin:miter"/><use xlink:href="#K" x="613.3" y="309.4" style="fill-opacity:0;stroke:#2ca02c;stroke-linejoin:miter"/><use xlink:href="#K" x="679.5" y="310.4" style="fill-opacity:0;stroke:#2ca02c;stroke-linejoin:miter"/></g><path d="M84.5 308.3h66.1l66.1 9.8 66.1-1.8 66.1 18.5 66.1-.9h66.1l66.1 5.3 66.1.1 66.2.2" clip-path="url(#a)" style="fill:none;stroke:#d62728;stroke-width:1.5;stroke-linecap:square"/><defs><path id="L" d="m0 5 5-5-5-5-5 5z" style="stroke:#d62728;stroke-linejoin:miter"/></defs><g clip-path="url(#a)"><use xlink:href="#L" x="84.5" y="308.3" style="fill:#d62728;stroke:#d62728;stroke-linejoin:miter"/><use xlink:href="#L" x="150.6" y="308.3" style="fill:#d62728;stroke:#d62728;stroke-linejoin:miter"/><use xlink:href="#L" x="216.7" y="318.1" style="fill:#d62728;stroke:#d62728;stroke-linejoin:miter"/><use xlink:href="#L" x="282.8" y="316.3" style="fill:#d62728;stroke:#d62728;stroke-linejoin:miter"/><use xlink:href="#L" x="348.9" y="334.8" style="fill:#d62728;stroke:#d62728;stroke-linejoin:miter"/><use xlink:href="#L" x="415" y="333.9" style="fill:#d62728;stroke:#d62728;stroke-linejoin:miter"/><use xlink:href="#L" x="481.1" y="333.9" style="fill:#d62728;stroke:#d62728;stroke-linejoin:miter"/><use xlink:href="#L" x="547.2" y="339.2" style="fill:#d62728;stroke:#d62728;stroke-linejoin:miter"/><use xlink:href="#L" x="613.3" y="339.3" style="fill:#d62728;stroke:#d62728;stroke-linejoin:miter"/><use xlink:href="#L" x="679.5" y="339.5" style="fill:#d62728;stroke:#d62728;stroke-linejoin:miter"/></g><path d="M84.5 209.5h66.1l66.1 14 66.1-2 66.1 52.7 66.1-1 66.1.1 66.1 8.4 66.1.2 66.2.3" clip-path="url(#a)" style="fill:none;stroke-dasharray:5.55,2.4;stroke-dashoffset:0;stroke:#d62728;stroke-width:1.5"/><defs><path id="M" d="m0 5 5-5-5-5-5 5z" style="stroke:#d62728;stroke-linejoin:miter"/></defs><g clip-path="url(#a)"><use xlink:href="#M" x="84.5" y="209.5" style="fill-opacity:0;stroke:#d62728;stroke-linejoin:miter"/><use xlink:href="#M" x="150.6" y="209.5" style="fill-opacity:0;stroke:#d62728;stroke-linejoin:miter"/><use xlink:href="#M" x="216.7" y="223.5" style="fill-opacity:0;stroke:#d62728;stroke-linejoin:miter"/><use xlink:href="#M" x="282.8" y="221.5" style="fill-opacity:0;stroke:#d62728;stroke-linejoin:miter"/><use xlink:href="#M" x="348.9" y="274.2" style="fill-opacity:0;stroke:#d62728;stroke-linejoin:miter"/><use xlink:href="#M" x="415" y="273.2" style="fill-opacity:0;stroke:#d62728;stroke-linejoin:miter"/><use xlink:href="#M" x="481.1" y="273.3" style="fill-opacity:0;stroke:#d62728;stroke-linejoin:miter"/><use xlink:href="#M" x="547.2" y="281.7" style="fill-opacity:0;stroke:#d62728;stroke-linejoin:miter"/><use xlink:href="#M" x="613.3" y="281.9" style="fill-opacity:0;stroke:#d62728;stroke-linejoin:miter"/><use xlink:href="#M" x="679.5" y="282.2" style="fill-opacity:0;stroke:#d62728;stroke-linejoin:miter"/></g><path d="M84.5 282h66.1l66.1 11 66.1-1.8 66.1 11.7 66.1-.3h66.1l66.1 4.7h66.1l66.2.4" clip-path="url(#a)" style="fill:none;stroke:#9467bd;stroke-width:1.5;stroke-linecap:square"/><defs><path id="N" d="m0 3.5 3.5-7h-7z" style="stroke:#9467bd;stroke-linejoin:miter"/></defs><g clip-path="url(#a)"><use xlink:href="#N" x="84.5" y="281.9" style="fill:#9467bd;stroke:#9467bd;stroke-linejoin:miter"/><use xlink:href="#N" x="150.6" y="281.9" style="fill:#9467bd;stroke:#9467bd;stroke-linejoin:miter"/><use xlink:href="#N" x="216.7" y="293" style="fill:#9467bd;stroke:#9467bd;stroke-linejoin:miter"/><use xlink:href="#N" x="282.8" y="291.2" style="fill:#9467bd;stroke:#9467bd;stroke-linejoin:miter"/><use xlink:href="#N" x="348.9" y="302.9" style="fill:#9467bd;stroke:#9467bd;stroke-linejoin:miter"/><use xlink:href="#N" x="415" y="302.6" style="fill:#9467bd;stroke:#9467bd;stroke-linejoin:miter"/><use xlink:href="#N" x="481.1" y="302.5" style="fill:#9467bd;stroke:#9467bd;stroke-linejoin:miter"/><use xlink:href="#N" x="547.2" y="307.3" style="fill:#9467bd;stroke:#9467bd;stroke-linejoin:miter"/><use xlink:href="#N" x="613.3" y="307.3" style="fill:#9467bd;stroke:#9467bd;stroke-linejoin:miter"/><use xlink:href="#N" x="679.5" y="307.7" style="fill:#9467bd;stroke:#9467bd;stroke-linejoin:miter"/></g><path d="M84.5 163.2h66.1l66.1 18.7 66.1-1.7L349 226l66.1.2h66.1l66.1 7.5h66.1l66.2.4" clip-path="url(#a)" style="fill:none;stroke-dasharray:5.55,2.4;stroke-dashoffset:0;stroke:#9467bd;stroke-width:1.5"/><defs><path id="O" d="m0 3.5 3.5-7h-7z" style="stroke:#9467bd;stroke-linejoin:miter"/></defs><g clip-path="url(#a)"><use xlink:href="#O" x="84.5" y="163.2" style="fill-opacity:0;stroke:#9467bd;stroke-linejoin:miter"/><use xlink:href="#O" x="150.6" y="163.2" style="fill-opacity:0;stroke:#9467bd;stroke-linejoin:miter"/><use xlink:href="#O" x="216.7" y="181.9" style="fill-opacity:0;stroke:#9467bd;stroke-linejoin:miter"/><use xlink:href="#O" x="282.8" y="180.2" style="fill-opacity:0;stroke:#9467bd;stroke-linejoin:miter"/><use xlink:href="#O" x="348.9" y="225.9" style="fill-opacity:0;stroke:#9467bd;stroke-linejoin:miter"/><use xlink:href="#O" x="415" y="226.1" style="fill-opacity:0;stroke:#9467bd;stroke-linejoin:miter"/><use xlink:href="#O" x="481.1" y="226.1" style="fill-opacity:0;stroke:#9467bd;stroke-linejoin:miter"/><use xlink:href="#O" x="547.2" y="233.6" style="fill-opacity:0;stroke:#9467bd;stroke-linejoin:miter"/><use xlink:href="#O" x="613.3" y="233.5" style="fill-opacity:0;stroke:#9467bd;stroke-linejoin:miter"/><use xlink:href="#O" x="679.5" y="234" style="fill-opacity:0;stroke:#9467bd;stroke-linejoin:miter"/></g><path d="M84.5 203.6h66.1l66.1 14.2 66.1-1.7 66.1 12.7 66.1.2 66.1-.2 66.1 2.7 66.1-.7 66.2 1.2" clip-path="url(#a)" style="fill:none;stroke:#8c564b;stroke-width:1.5;stroke-linecap:square"/><defs><path id="P" d="m-3.5 0 7 3.5v-7z" style="stroke:#8c564b;stroke-linejoin:miter"/></defs><g clip-path="url(#a)"><use xlink:href="#P" x="84.5" y="203.6" style="fill:#8c564b;stroke:#8c564b;stroke-linejoin:miter"/><use xlink:href="#P" x="150.6" y="203.6" style="fill:#8c564b;stroke:#8c564b;stroke-linejoin:miter"/><use xlink:href="#P" x="216.7" y="217.8" style="fill:#8c564b;stroke:#8c564b;stroke-linejoin:miter"/><use xlink:href="#P" x="282.8" y="216.1" style="fill:#8c564b;stroke:#8c564b;stroke-linejoin:miter"/><use xlink:href="#P" x="348.9" y="228.8" style="fill:#8c564b;stroke:#8c564b;stroke-linejoin:miter"/><use xlink:href="#P" x="415" y="229" style="fill:#8c564b;stroke:#8c564b;stroke-linejoin:miter"/><use xlink:href="#P" x="481.1" y="228.8" style="fill:#8c564b;stroke:#8c564b;stroke-linejoin:miter"/><use xlink:href="#P" x="547.2" y="231.5" style="fill:#8c564b;stroke:#8c564b;stroke-linejoin:miter"/><use xlink:href="#P" x="613.3" y="230.8" style="fill:#8c564b;stroke:#8c564b;stroke-linejoin:miter"/><use xlink:href="#P" x="679.5" y="232" style="fill:#8c564b;stroke:#8c564b;stroke-linejoin:miter"/></g><path d="M84.5 43.4h66.1L216.7 59l66.1-1.1 66.1 55.7 66.1.5h66.1l66.1 4.5 66.1-4.1 66.2 4.7" clip-path="url(#a)" style="fill:none;stroke-dasharray:5.55,2.4;stroke-dashoffset:0;stroke:#8c564b;stroke-width:1.5"/><defs><path id="Q" d="m-3.5 0 7 3.5v-7z" style="stroke:#8c564b;stroke-linejoin:miter"/></defs><g clip-path="url(#a)"><use xlink:href="#Q" x="84.5" y="43.4" style="fill-opacity:0;stroke:#8c564b;stroke-linejoin:miter"/><use xlink:href="#Q" x="150.6" y="43.4" style="fill-opacity:0;stroke:#8c564b;stroke-linejoin:miter"/><use xlink:href="#Q" x="216.7" y="59.1" style="fill-opacity:0;stroke:#8c564b;stroke-linejoin:miter"/><use xlink:href="#Q" x="282.8" y="58" style="fill-opacity:0;stroke:#8c564b;stroke-linejoin:miter"/><use xlink:href="#Q" x="348.9" y="113.7" style="fill-opacity:0;stroke:#8c564b;stroke-linejoin:miter"/><use xlink:href="#Q" x="415" y="114.2" style="fill-opacity:0;stroke:#8c564b;stroke-linejoin:miter"/><use xlink:href="#Q" x="481.1" y="114.2" style="fill-opacity:0;stroke:#8c564b;stroke-linejoin:miter"/><use xlink:href="#Q" x="547.2" y="118.7" style="fill-opacity:0;stroke:#8c564b;stroke-linejoin:miter"/><use xlink:href="#Q" x="613.3" y="114.6" style="fill-opacity:0;stroke:#8c564b;stroke-linejoin:miter"/><use xlink:href="#Q" x="679.5" y="119.3" style="fill-opacity:0;stroke:#8c564b;stroke-linejoin:miter"/></g><path d="M54.7 389.3V27m654.5 362.3V27M54.7 389.3h654.5M54.7 26.9h654.5" style="fill:none;stroke:#000;stroke-width:.8;stroke-linejoin:miter;stroke-linecap:square"/><g transform="matrix(.12 0 0 -.12 283 20.9)"><defs><path id="R" d="M191 3500h609L1894 563l1094 2937h609L2284 0h-781z" transform="scale(.01563)"/></defs><use xlink:href="#r"/><use xlink:href="#s" transform="translate(68.6)"/><use xlink:href="#m" transform="translate(127.8)"/><use xlink:href="#t" transform="translate(167)"/><use xlink:href="#u" transform="translate(228.5)"/><use xlink:href="#v" transform="translate(312.4)"/><use xlink:href="#t" transform="translate(369)"/><use xlink:href="#l" transform="translate(430.6)"/><use xlink:href="#w" transform="translate(503.5)"/><use xlink:href="#u" transform="translate(567)"/><use xlink:href="#x" transform="translate(619)"/><use xlink:href="#y" transform="translate(646.9)"/><use xlink:href="#v" transform="translate(776)"/><use xlink:href="#t" transform="translate(832.7)"/><use xlink:href="#l" transform="translate(894.3)"/><use xlink:href="#v" transform="translate(967.2)"/><use xlink:href="#x" transform="translate(1025.2)"/><use xlink:href="#z" transform="translate(1053)"/><use xlink:href="#t" transform="translate(1109)"/><use xlink:href="#A" transform="translate(1170.6)"/><use xlink:href="#R" transform="translate(1230.1)"/><use xlink:href="#u" transform="translate(1289.3)"/><use xlink:href="#i" transform="translate(1373.2)"/><use xlink:href="#j" transform="translate(1436.4)"/><use xlink:href="#j" transform="translate(1471.6)"/><use xlink:href="#k" transform="translate(1506.8)"/><use xlink:href="#l" transform="translate(1568)"/><use xlink:href="#m" transform="translate(1609.1)"/></g><path d="M527.1 103.7h176.5q1.6 0 1.6-1.6V32.5q0-1.6-1.6-1.6H527.1q-1.6 0-1.6 1.6V102q0 1.6 1.6 1.6z" style="fill:#fff;opacity:.8;stroke:#ccc;stroke-linejoin:miter"/><path d="M528.7 37.4h16" style="fill:none;stroke:#1f77b4;stroke-width:1.5;stroke-linecap:square"/><use xlink:href="#F" x="536.7" y="37.4" style="fill:#1f77b4;stroke:#1f77b4"/><g transform="matrix(.08 0 0 -.08 551.1 40.2)"><defs><path id="S" d="M2194 1759q-697 0-966-159t-269-544q0-306 202-486 202-179 548-179 479 0 768 339t289 901v128zm1147 238V0h-575v531q-197-318-491-470T1556-91q-537 0-855 302-317 302-317 808 0 590 395 890 396 300 1180 300h807v57q0 397-261 614t-733 217q-300 0-585-72-284-72-546-216v532q315 122 612 182 297 61 578 61 760 0 1135-394 375-393 375-1193" transform="scale(.01563)"/><path id="T" d="M3513 2113V0h-575v2094q0 497-194 743-194 247-581 247-466 0-735-297-269-296-269-809V0H581v3500h578v-544q207 316 486 472 280 156 646 156 603 0 912-373 310-373 310-1098" transform="scale(.01563)"/></defs><use xlink:href="#d"/><use xlink:href="#h" transform="translate(63.6)"/><use xlink:href="#B" transform="translate(159)"/><use xlink:href="#y" transform="translate(198)"/><use xlink:href="#t" transform="translate(295.5)"/><use xlink:href="#S" transform="translate(357)"/><use xlink:href="#T" transform="translate(418.3)"/><use xlink:href="#E" transform="translate(481.6)"/></g><path d="M528.7 49.1h16" style="fill:none;stroke-dasharray:5.55,2.4;stroke-dashoffset:0;stroke:#1f77b4;stroke-width:1.5"/><use xlink:href="#G" x="536.7" y="49.1" style="fill-opacity:0;stroke:#1f77b4"/><g transform="matrix(.08 0 0 -.08 551.1 51.9)"><defs><path id="U" d="M4653 2053q-272 0-427-231-154-231-154-644 0-406 154-639 155-233 427-233 266 0 420 233 155 233 155 639 0 410-155 642-154 233-420 233m0 397q494 0 784-344 291-343 291-928 0-584-292-927-292-342-783-342-500 0-791 342-290 343-290 927 0 588 292 930t789 342M1428 4353q-269 0-424-233-154-232-154-639 0-412 153-644 153-231 425-231t426 231q155 232 155 644 0 403-156 637-156 235-425 235m2822 397h500L1831-91h-500zm-2822 0q494 0 787-342 294-342 294-927 0-590-292-931t-789-341-786 342q-289 343-289 930 0 582 290 925 291 344 785 344" transform="scale(.01563)"/></defs><use xlink:href="#d"/><use xlink:href="#h" transform="translate(63.6)"/><use xlink:href="#B" transform="translate(159)"/><use xlink:href="#p" transform="translate(198)"/><use xlink:href="#U" transform="translate(261.7)"/><use xlink:href="#C" transform="translate(388.5)"/><use xlink:href="#k" transform="translate(470.3)"/><use xlink:href="#l" transform="translate(531.4)"/><use xlink:href="#u" transform="translate(572.6)"/><use xlink:href="#m" transform="translate(624.7)"/><use xlink:href="#E" transform="translate(663.9)"/></g><path d="M528.7 60.8h16" style="fill:none;stroke:#ff7f0e;stroke-width:1.5;stroke-linecap:square"/><use xlink:href="#H" x="536.7" y="60.8" style="fill:#ff7f0e;stroke:#ff7f0e;stroke-linejoin:miter"/><g transform="matrix(.08 0 0 -.08 551.1 63.6)"><use xlink:href="#p"/><use xlink:href="#h" transform="translate(63.6)"/><use xlink:href="#B" transform="translate(159)"/><use xlink:href="#y" transform="translate(198)"/><use xlink:href="#t" transform="translate(295.5)"/><use xlink:href="#S" transform="translate(357)"/><use xlink:href="#T" transform="translate(418.3)"/><use xlink:href="#E" transform="translate(481.6)"/></g><path d="M528.7 72.6h16" style="fill:none;stroke-dasharray:5.55,2.4;stroke-dashoffset:0;stroke:#ff7f0e;stroke-width:1.5"/><use xlink:href="#I" x="536.7" y="72.6" style="fill-opacity:0;stroke:#ff7f0e;stroke-linejoin:miter"/><g transform="matrix(.08 0 0 -.08 551.1 75.4)"><use xlink:href="#p"/><use xlink:href="#h" transform="translate(63.6)"/><use xlink:href="#B" transform="translate(159)"/><use xlink:href="#p" transform="translate(198)"/><use xlink:href="#U" transform="translate(261.7)"/><use xlink:href="#C" transform="translate(388.5)"/><use xlink:href="#k" transform="translate(470.3)"/><use xlink:href="#l" transform="translate(531.4)"/><use xlink:href="#u" transform="translate(572.6)"/><use xlink:href="#m" transform="translate(624.7)"/><use xlink:href="#E" transform="translate(663.9)"/></g><path d="M528.7 84.3h16" style="fill:none;stroke:#2ca02c;stroke-width:1.5;stroke-linecap:square"/><use xlink:href="#J" x="536.7" y="84.3" style="fill:#2ca02c;stroke:#2ca02c;stroke-linejoin:miter"/><g transform="matrix(.08 0 0 -.08 551.1 87.1)"><use xlink:href="#e"/><use xlink:href="#h" transform="translate(63.6)"/><use xlink:href="#B" transform="translate(159)"/><use xlink:href="#y" transform="translate(198)"/><use xlink:href="#t" transform="translate(295.5)"/><use xlink:href="#S" transform="translate(357)"/><use xlink:href="#T" transform="translate(418.3)"/><use xlink:href="#E" transform="translate(481.6)"/></g><path d="M528.7 96h16" style="fill:none;stroke-dasharray:5.55,2.4;stroke-dashoffset:0;stroke:#2ca02c;stroke-width:1.5"/><use xlink:href="#K" x="536.7" y="96.1" style="fill-opacity:0;stroke:#2ca02c;stroke-linejoin:miter"/><g transform="matrix(.08 0 0 -.08 551.1 98.9)"><use xlink:href="#e"/><use xlink:href="#h" transform="translate(63.6)"/><use xlink:href="#B" transform="translate(159)"/><use xlink:href="#p" transform="translate(198)"/><use xlink:href="#U" transform="translate(261.7)"/><use xlink:href="#C" transform="translate(388.5)"/><use xlink:href="#k" transform="translate(470.3)"/><use xlink:href="#l" transform="translate(531.4)"/><use xlink:href="#u" transform="translate(572.6)"/><use xlink:href="#m" transform="translate(624.7)"/><use xlink:href="#E" transform="translate(663.9)"/></g><path d="M623.4 37.4h16" style="fill:none;stroke:#d62728;stroke-width:1.5;stroke-linecap:square"/><use xlink:href="#L" x="631.4" y="37.4" style="fill:#d62728;stroke:#d62728;stroke-linejoin:miter"/><g transform="matrix(.08 0 0 -.08 645.8 40.2)"><defs><path id="V" d="M525 4666h3000v-269L1831 0h-659l1594 4134H525z" transform="scale(.01563)"/></defs><use xlink:href="#V"/><use xlink:href="#h" transform="translate(63.6)"/><use xlink:href="#B" transform="translate(159)"/><use xlink:href="#y" transform="translate(198)"/><use xlink:href="#t" transform="translate(295.5)"/><use xlink:href="#S" transform="translate(357)"/><use xlink:href="#T" transform="translate(418.3)"/><use xlink:href="#E" transform="translate(481.6)"/></g><path d="M623.4 49.1h16" style="fill:none;stroke-dasharray:5.55,2.4;stroke-dashoffset:0;stroke:#d62728;stroke-width:1.5"/><use xlink:href="#M" x="631.4" y="49.1" style="fill-opacity:0;stroke:#d62728;stroke-linejoin:miter"/><g transform="matrix(.08 0 0 -.08 645.8 51.9)"><use xlink:href="#V"/><use xlink:href="#h" transform="translate(63.6)"/><use xlink:href="#B" transform="translate(159)"/><use xlink:href="#p" transform="translate(198)"/><use xlink:href="#U" transform="translate(261.7)"/><use xlink:href="#C" transform="translate(388.5)"/><use xlink:href="#k" transform="translate(470.3)"/><use xlink:href="#l" transform="translate(531.4)"/><use xlink:href="#u" transform="translate(572.6)"/><use xlink:href="#m" transform="translate(624.7)"/><use xlink:href="#E" transform="translate(663.9)"/></g><path d="M623.4 60.8h16" style="fill:none;stroke:#9467bd;stroke-width:1.5;stroke-linecap:square"/><use xlink:href="#N" x="631.4" y="60.8" style="fill:#9467bd;stroke:#9467bd;stroke-linejoin:miter"/><g transform="matrix(.08 0 0 -.08 645.8 63.6)"><use xlink:href="#f"/><use xlink:href="#h" transform="translate(63.6)"/><use xlink:href="#B" transform="translate(159)"/><use xlink:href="#y" transform="translate(198)"/><use xlink:href="#t" transform="translate(295.5)"/><use xlink:href="#S" transform="translate(357)"/><use xlink:href="#T" transform="translate(418.3)"/><use xlink:href="#E" transform="translate(481.6)"/></g><path d="M623.4 72.6h16" style="fill:none;stroke-dasharray:5.55,2.4;stroke-dashoffset:0;stroke:#9467bd;stroke-width:1.5"/><use xlink:href="#O" x="631.4" y="72.6" style="fill-opacity:0;stroke:#9467bd;stroke-linejoin:miter"/><g transform="matrix(.08 0 0 -.08 645.8 75.4)"><use xlink:href="#f"/><use xlink:href="#h" transform="translate(63.6)"/><use xlink:href="#B" transform="translate(159)"/><use xlink:href="#p" transform="translate(198)"/><use xlink:href="#U" transform="translate(261.7)"/><use xlink:href="#C" transform="translate(388.5)"/><use xlink:href="#k" transform="translate(470.3)"/><use xlink:href="#l" transform="translate(531.4)"/><use xlink:href="#u" transform="translate(572.6)"/><use xlink:href="#m" transform="translate(624.7)"/><use xlink:href="#E" transform="translate(663.9)"/></g><path d="M623.4 84.3h16" style="fill:none;stroke:#8c564b;stroke-width:1.5;stroke-linecap:square"/><use xlink:href="#P" x="631.4" y="84.3" style="fill:#8c564b;stroke:#8c564b;stroke-linejoin:miter"/><g transform="matrix(.08 0 0 -.08 645.8 87.1)"><defs><path id="W" d="M703 97v575q238-113 481-172 244-59 479-59 625 0 954 420 330 420 377 1277-181-269-460-413-278-144-615-144-700 0-1108 423-408 424-408 1159 0 718 425 1152 425 435 1131 435 810 0 1236-621 427-620 427-1801 0-1103-524-1761Q2575-91 1691-91q-238 0-482 47Q966 3 703 97m1256 1978q425 0 673 290 249 291 249 798 0 503-249 795-248 292-673 292t-673-292-248-795q0-507 248-798 248-290 673-290" transform="scale(.01563)"/></defs><use xlink:href="#W"/><use xlink:href="#h" transform="translate(63.6)"/><use xlink:href="#B" transform="translate(159)"/><use xlink:href="#y" transform="translate(198)"/><use xlink:href="#t" transform="translate(295.5)"/><use xlink:href="#S" transform="translate(357)"/><use xlink:href="#T" transform="translate(418.3)"/><use xlink:href="#E" transform="translate(481.6)"/></g><path d="M623.4 96h16" style="fill:none;stroke-dasharray:5.55,2.4;stroke-dashoffset:0;stroke:#8c564b;stroke-width:1.5"/><use xlink:href="#Q" x="631.4" y="96.1" style="fill-opacity:0;stroke:#8c564b;stroke-linejoin:miter"/><g transform="matrix(.08 0 0 -.08 645.8 98.9)"><use xlink:href="#W"/><use xlink:href="#h" transform="translate(63.6)"/><use xlink:href="#B" transform="translate(159)"/><use xlink:href="#p" transform="translate(198)"/><use xlink:href="#U" transform="translate(261.7)"/><use xlink:href="#C" transform="translate(388.5)"/><use xlink:href="#k" transform="translate(470.3)"/><use xlink:href="#l" transform="translate(531.4)"/><use xlink:href="#u" transform="translate(572.6)"/><use xlink:href="#m" transform="translate(624.7)"/><use xlink:href="#E" transform="translate(663.9)"/></g><defs><clipPath id="a"><path d="M54.7 26.9h654.5v362.4H54.7z"/></clipPath></defs></svg>