<?xml version="1.0" encoding="utf-8" standalone="no"?>
<!DOCTYPE svg PUBLIC "-//W3C//DTD SVG 1.1//EN"
  "http://www.w3.org/Graphics/SVG/1.1/DTD/svg11.dtd">
<svg xmlns:xlink="http://www.w3.org/1999/xlink" width="720pt" height="432pt" viewBox="0 0 720 432" xmlns="http://www.w3.org/2000/svg" version="1.1">
 <metadata>
  <rdf:RDF xmlns:dc="http://purl.org/dc/elements/1.1/" xmlns:cc="http://creativecommons.org/ns#" xmlns:rdf="http://www.w3.org/1999/02/22-rdf-syntax-ns#">
   <cc:Work>
    <dc:type rdf:resource="http://purl.org/dc/dcmitype/StillImage"/>
    <dc:date>2026-02-20T20:52:45.808888</dc:date>
    <dc:format>image/svg+xml</dc:format>
    <dc:creator>
     <cc:Agent>
      <dc:title>Matplotlib v3.10.8, https://matplotlib.org/</dc:title>
     </cc:Agent>
    </dc:creator>
   </cc:Work>
  </rdf:RDF>
 </metadata>
 <defs>
  <style type="text/css">*{stroke-linejoin: round; stroke-linecap: butt}</style>
 </defs>
 <g id="figure_1">
  <g id="patch_1">
   <path d="M 0 432 
L 720 432 
L 720 0 
L 0 0 
z
" style="fill: #ffffff"/>
  </g>
  <g id="axes_1">
   <g id="patch_2">
    <path d="M 45.29 389.32 
L 709.2 389.32 
L 709.2 26.88 
L 45.29 26.88 
z
" style="fill: #ffffff"/>
   </g>
   <g id="matplotlib.axis_1">
    <g id="xtick_1">
     <g id="line2d_1">
      <path d="M 142.529343 389.32 
L 142.529343 26.88 
" clip-path="url(#p4364dacf5a)" style="fill: none; stroke: #b0b0b0; stroke-opacity: 0.3; stroke-width: 0.8; stroke-linecap: square"/>
     </g>
     <g id="line2d_2">
      <defs>
       <path id="m9f2495c0d6" d="M 0 0 
L 0 3.5 
" style="stroke: #000000; stroke-width: 0.8"/>
      </defs>
      <g>
       <use xlink:href="#m9f2495c0d6" x="142.529343" y="389.32" style="stroke: #000000; stroke-width: 0.8"/>
      </g>
     </g>
     <g id="text_1">
      <!-- 2 -->
      <g transform="translate(139.348093 403.918437) scale(0.1 -0.1)">
       <defs>
        <path id="DejaVuSans-32" d="M 1228 531 
L 3431 531 
L 3431 0 
L 469 0 
L 469 531 
Q 828 903 1448 1529 
Q 2069 2156 2228 2338 
Q 2531 2678 2651 2914 
Q 2772 3150 2772 3378 
Q 2772 3750 2511 3984 
Q 2250 4219 1831 4219 
Q 1534 4219 1204 4116 
Q 875 4013 500 3803 
L 500 4441 
Q 881 4594 1212 4672 
Q 1544 4750 1819 4750 
Q 2544 4750 2975 4387 
Q 3406 4025 3406 3419 
Q 3406 3131 3298 2873 
Q 3191 2616 2906 2266 
Q 2828 2175 2409 1742 
Q 1991 1309 1228 531 
z
" transform="scale(0.015625)"/>
       </defs>
       <use xlink:href="#DejaVuSans-32"/>
      </g>
     </g>
    </g>
    <g id="xtick_2">
     <g id="line2d_3">
      <path d="M 276.652576 389.32 
L 276.652576 26.88 
" clip-path="url(#p4364dacf5a)" style="fill: none; stroke: #b0b0b0; stroke-opacity: 0.3; stroke-width: 0.8; stroke-linecap: square"/>
     </g>
     <g id="line2d_4">
      <g>
       <use xlink:href="#m9f2495c0d6" x="276.652576" y="389.32" style="stroke: #000000; stroke-width: 0.8"/>
      </g>
     </g>
     <g id="text_2">
      <!-- 4 -->
      <g transform="translate(273.471326 403.918437) scale(0.1 -0.1)">
       <defs>
        <path id="DejaVuSans-34" d="M 2419 4116 
L 825 1625 
L 2419 1625 
L 2419 4116 
z
M 2253 4666 
L 3047 4666 
L 3047 1625 
L 3713 1625 
L 3713 1100 
L 3047 1100 
L 3047 0 
L 2419 0 
L 2419 1100 
L 313 1100 
L 313 1709 
L 2253 4666 
z
" transform="scale(0.015625)"/>
       </defs>
       <use xlink:href="#DejaVuSans-34"/>
      </g>
     </g>
    </g>
    <g id="xtick_3">
     <g id="line2d_5">
      <path d="M 410.775808 389.32 
L 410.775808 26.88 
" clip-path="url(#p4364dacf5a)" style="fill: none; stroke: #b0b0b0; stroke-opacity: 0.3; stroke-width: 0.8; stroke-linecap: square"/>
     </g>
     <g id="line2d_6">
      <g>
       <use xlink:href="#m9f2495c0d6" x="410.775808" y="389.32" style="stroke: #000000; stroke-width: 0.8"/>
      </g>
     </g>
     <g id="text_3">
      <!-- 6 -->
      <g transform="translate(407.594558 403.918437) scale(0.1 -0.1)">
       <defs>
        <path id="DejaVuSans-36" d="M 2113 2584 
Q 1688 2584 1439 2293 
Q 1191 2003 1191 1497 
Q 1191 994 1439 701 
Q 1688 409 2113 409 
Q 2538 409 2786 701 
Q 3034 994 3034 1497 
Q 3034 2003 2786 2293 
Q 2538 2584 2113 2584 
z
M 3366 4563 
L 3366 3988 
Q 3128 4100 2886 4159 
Q 2644 4219 2406 4219 
Q 1781 4219 1451 3797 
Q 1122 3375 1075 2522 
Q 1259 2794 1537 2939 
Q 1816 3084 2150 3084 
Q 2853 3084 3261 2657 
Q 3669 2231 3669 1497 
Q 3669 778 3244 343 
Q 2819 -91 2113 -91 
Q 1303 -91 875 529 
Q 447 1150 447 2328 
Q 447 3434 972 4092 
Q 1497 4750 2381 4750 
Q 2619 4750 2861 4703 
Q 3103 4656 3366 4563 
z
" transform="scale(0.015625)"/>
       </defs>
       <use xlink:href="#DejaVuSans-36"/>
      </g>
     </g>
    </g>
    <g id="xtick_4">
     <g id="line2d_7">
      <path d="M 544.89904 389.32 
L 544.89904 26.88 
" clip-path="url(#p4364dacf5a)" style="fill: none; stroke: #b0b0b0; stroke-opacity: 0.3; stroke-width: 0.8; stroke-linecap: square"/>
     </g>
     <g id="line2d_8">
      <g>
       <use xlink:href="#m9f2495c0d6" x="544.89904" y="389.32" style="stroke: #000000; stroke-width: 0.8"/>
      </g>
     </g>
     <g id="text_4">
      <!-- 8 -->
      <g transform="translate(541.71779 403.918437) scale(0.1 -0.1)">
       <defs>
        <path id="DejaVuSans-38" d="M 2034 2216 
Q 1584 2216 1326 1975 
Q 1069 1734 1069 1313 
Q 1069 891 1326 650 
Q 1584 409 2034 409 
Q 2484 409 2743 651 
Q 3003 894 3003 1313 
Q 3003 1734 2745 1975 
Q 2488 2216 2034 2216 
z
M 1403 2484 
Q 997 2584 770 2862 
Q 544 3141 544 3541 
Q 544 4100 942 4425 
Q 1341 4750 2034 4750 
Q 2731 4750 3128 4425 
Q 3525 4100 3525 3541 
Q 3525 3141 3298 2862 
Q 3072 2584 2669 2484 
Q 3125 2378 3379 2068 
Q 3634 1759 3634 1313 
Q 3634 634 3220 271 
Q 2806 -91 2034 -91 
Q 1263 -91 848 271 
Q 434 634 434 1313 
Q 434 1759 690 2068 
Q 947 2378 1403 2484 
z
M 1172 3481 
Q 1172 3119 1398 2916 
Q 1625 2713 2034 2713 
Q 2441 2713 2670 2916 
Q 2900 3119 2900 3481 
Q 2900 3844 2670 4047 
Q 2441 4250 2034 4250 
Q 1625 4250 1398 4047 
Q 1172 3844 1172 3481 
z
" transform="scale(0.015625)"/>
       </defs>
       <use xlink:href="#DejaVuSans-38"/>
      </g>
     </g>
    </g>
    <g id="xtick_5">
     <g id="line2d_9">
      <path d="M 679.022273 389.32 
L 679.022273 26.88 
" clip-path="url(#p4364dacf5a)" style="fill: none; stroke: #b0b0b0; stroke-opacity: 0.3; stroke-width: 0.8; stroke-linecap: square"/>
     </g>
     <g id="line2d_10">
      <g>
       <use xlink:href="#m9f2495c0d6" x="679.022273" y="389.32" style="stroke: #000000; stroke-width: 0.8"/>
      </g>
     </g>
     <g id="text_5">
      <!-- 10 -->
      <g transform="translate(672.659773 403.918437) scale(0.1 -0.1)">
       <defs>
        <path id="DejaVuSans-31" d="M 794 531 
L 1825 531 
L 1825 4091 
L 703 3866 
L 703 4441 
L 1819 4666 
L 2450 4666 
L 2450 531 
L 3481 531 
L 3481 0 
L 794 0 
L 794 531 
z
" transform="scale(0.015625)"/>
        <path id="DejaVuSans-30" d="M 2034 4250 
Q 1547 4250 1301 3770 
Q 1056 3291 1056 2328 
Q 1056 1369 1301 889 
Q 1547 409 2034 409 
Q 2525 409 2770 889 
Q 3016 1369 3016 2328 
Q 3016 3291 2770 3770 
Q 2525 4250 2034 4250 
z
M 2034 4750 
Q 2819 4750 3233 4129 
Q 3647 3509 3647 2328 
Q 3647 1150 3233 529 
Q 2819 -91 2034 -91 
Q 1250 -91 836 529 
Q 422 1150 422 2328 
Q 422 3509 836 4129 
Q 1250 4750 2034 4750 
z
" transform="scale(0.015625)"/>
       </defs>
       <use xlink:href="#DejaVuSans-31"/>
       <use xlink:href="#DejaVuSans-30" transform="translate(63.623047 0)"/>
      </g>
     </g>
    </g>
    <g id="text_6">
     <!-- Effort -->
     <g transform="translate(362.114844 418.356406) scale(0.11 -0.11)">
      <defs>
       <path id="DejaVuSans-45" d="M 628 4666 
L 3578 4666 
L 3578 4134 
L 1259 4134 
L 1259 2753 
L 3481 2753 
L 3481 2222 
L 1259 2222 
L 1259 531 
L 3634 531 
L 3634 0 
L 628 0 
L 628 4666 
z
" transform="scale(0.015625)"/>
       <path id="DejaVuSans-66" d="M 2375 4863 
L 2375 4384 
L 1825 4384 
Q 1516 4384 1395 4259 
Q 1275 4134 1275 3809 
L 1275 3500 
L 2222 3500 
L 2222 3053 
L 1275 3053 
L 1275 0 
L 697 0 
L 697 3053 
L 147 3053 
L 147 3500 
L 697 3500 
L 697 3744 
Q 697 4328 969 4595 
Q 1241 4863 1831 4863 
L 2375 4863 
z
" transform="scale(0.015625)"/>
       <path id="DejaVuSans-6f" d="M 1959 3097 
Q 1497 3097 1228 2736 
Q 959 2375 959 1747 
Q 959 1119 1226 758 
Q 1494 397 1959 397 
Q 2419 397 2687 759 
Q 2956 1122 2956 1747 
Q 2956 2369 2687 2733 
Q 2419 3097 1959 3097 
z
M 1959 3584 
Q 2709 3584 3137 3096 
Q 3566 2609 3566 1747 
Q 3566 888 3137 398 
Q 2709 -91 1959 -91 
Q 1206 -91 779 398 
Q 353 888 353 1747 
Q 353 2609 779 3096 
Q 1206 3584 1959 3584 
z
" transform="scale(0.015625)"/>
       <path id="DejaVuSans-72" d="M 2631 2963 
Q 2534 3019 2420 3045 
Q 2306 3072 2169 3072 
Q 1681 3072 1420 2755 
Q 1159 2438 1159 1844 
L 1159 0 
L 581 0 
L 581 3500 
L 1159 3500 
L 1159 2956 
Q 1341 3275 1631 3429 
Q 1922 3584 2338 3584 
Q 2397 3584 2469 3576 
Q 2541 3569 2628 3553 
L 2631 2963 
z
" transform="scale(0.015625)"/>
       <path id="DejaVuSans-74" d="M 1172 4494 
L 1172 3500 
L 2356 3500 
L 2356 3053 
L 1172 3053 
L 1172 1153 
Q 1172 725 1289 603 
Q 1406 481 1766 481 
L 2356 481 
L 2356 0 
L 1766 0 
Q 1100 0 847 248 
Q 594 497 594 1153 
L 594 3053 
L 172 3053 
L 172 3500 
L 594 3500 
L 594 4494 
L 1172 4494 
z
" transform="scale(0.015625)"/>
      </defs>
      <use xlink:href="#DejaVuSans-45"/>
      <use xlink:href="#DejaVuSans-66" transform="translate(63.183594 0)"/>
      <use xlink:href="#DejaVuSans-66" transform="translate(98.388672 0)"/>
      <use xlink:href="#DejaVuSans-6f" transform="translate(133.59375 0)"/>
      <use xlink:href="#DejaVuSans-72" transform="translate(194.775391 0)"/>
      <use xlink:href="#DejaVuSans-74" transform="translate(235.888672 0)"/>
     </g>
    </g>
   </g>
   <g id="matplotlib.axis_2">
    <g id="ytick_1">
     <g id="line2d_11">
      <path d="M 45.29 345.933922 
L 709.2 345.933922 
" clip-path="url(#p4364dacf5a)" style="fill: none; stroke: #b0b0b0; stroke-opacity: 0.3; stroke-width: 0.8; stroke-linecap: square"/>
     </g>
     <g id="line2d_12">
      <defs>
       <path id="m6088b49979" d="M 0 0 
L -3.5 0 
" style="stroke: #000000; stroke-width: 0.8"/>
      </defs>
      <g>
       <use xlink:href="#m6088b49979" x="45.29" y="345.933922" style="stroke: #000000; stroke-width: 0.8"/>
      </g>
     </g>
     <g id="text_7">
      <!-- 60 -->
      <g transform="translate(25.565 349.733141) scale(0.1 -0.1)">
       <use xlink:href="#DejaVuSans-36"/>
       <use xlink:href="#DejaVuSans-30" transform="translate(63.623047 0)"/>
      </g>
     </g>
    </g>
    <g id="ytick_2">
     <g id="line2d_13">
      <path d="M 45.29 287.476685 
L 709.2 287.476685 
" clip-path="url(#p4364dacf5a)" style="fill: none; stroke: #b0b0b0; stroke-opacity: 0.3; stroke-width: 0.8; stroke-linecap: square"/>
     </g>
     <g id="line2d_14">
      <g>
       <use xlink:href="#m6088b49979" x="45.29" y="287.476685" style="stroke: #000000; stroke-width: 0.8"/>
      </g>
     </g>
     <g id="text_8">
      <!-- 65 -->
      <g transform="translate(25.565 291.275904) scale(0.1 -0.1)">
       <defs>
        <path id="DejaVuSans-35" d="M 691 4666 
L 3169 4666 
L 3169 4134 
L 1269 4134 
L 1269 2991 
Q 1406 3038 1543 3061 
Q 1681 3084 1819 3084 
Q 2600 3084 3056 2656 
Q 3513 2228 3513 1497 
Q 3513 744 3044 326 
Q 2575 -91 1722 -91 
Q 1428 -91 1123 -41 
Q 819 9 494 109 
L 494 744 
Q 775 591 1075 516 
Q 1375 441 1709 441 
Q 2250 441 2565 725 
Q 2881 1009 2881 1497 
Q 2881 1984 2565 2268 
Q 2250 2553 1709 2553 
Q 1456 2553 1204 2497 
Q 953 2441 691 2322 
L 691 4666 
z
" transform="scale(0.015625)"/>
       </defs>
       <use xlink:href="#DejaVuSans-36"/>
       <use xlink:href="#DejaVuSans-35" transform="translate(63.623047 0)"/>
      </g>
     </g>
    </g>
    <g id="ytick_3">
     <g id="line2d_15">
      <path d="M 45.29 229.019448 
L 709.2 229.019448 
" clip-path="url(#p4364dacf5a)" style="fill: none; stroke: #b0b0b0; stroke-opacity: 0.3; stroke-width: 0.8; stroke-linecap: square"/>
     </g>
     <g id="line2d_16">
      <g>
       <use xlink:href="#m6088b49979" x="45.29" y="229.019448" style="stroke: #000000; stroke-width: 0.8"/>
      </g>
     </g>
     <g id="text_9">
      <!-- 70 -->
      <g transform="translate(25.565 232.818667) scale(0.1 -0.1)">
       <defs>
        <path id="DejaVuSans-37" d="M 525 4666 
L 3525 4666 
L 3525 4397 
L 1831 0 
L 1172 0 
L 2766 4134 
L 525 4134 
L 525 4666 
z
" transform="scale(0.015625)"/>
       </defs>
       <use xlink:href="#DejaVuSans-37"/>
       <use xlink:href="#DejaVuSans-30" transform="translate(63.623047 0)"/>
      </g>
     </g>
    </g>
    <g id="ytick_4">
     <g id="line2d_17">
      <path d="M 45.29 170.56221 
L 709.2 170.56221 
" clip-path="url(#p4364dacf5a)" style="fill: none; stroke: #b0b0b0; stroke-opacity: 0.3; stroke-width: 0.8; stroke-linecap: square"/>
     </g>
     <g id="line2d_18">
      <g>
       <use xlink:href="#m6088b49979" x="45.29" y="170.56221" style="stroke: #000000; stroke-width: 0.8"/>
      </g>
     </g>
     <g id="text_10">
      <!-- 75 -->
      <g transform="translate(25.565 174.361429) scale(0.1 -0.1)">
       <use xlink:href="#DejaVuSans-37"/>
       <use xlink:href="#DejaVuSans-35" transform="translate(63.623047 0)"/>
      </g>
     </g>
    </g>
    <g id="ytick_5">
     <g id="line2d_19">
      <path d="M 45.29 112.104973 
L 709.2 112.104973 
" clip-path="url(#p4364dacf5a)" style="fill: none; stroke: #b0b0b0; stroke-opacity: 0.3; stroke-width: 0.8; stroke-linecap: square"/>
     </g>
     <g id="line2d_20">
      <g>
       <use xlink:href="#m6088b49979" x="45.29" y="112.104973" style="stroke: #000000; stroke-width: 0.8"/>
      </g>
     </g>
     <g id="text_11">
      <!-- 80 -->
      <g transform="translate(25.565 115.904192) scale(0.1 -0.1)">
       <use xlink:href="#DejaVuSans-38"/>
       <use xlink:href="#DejaVuSans-30" transform="translate(63.623047 0)"/>
      </g>
     </g>
    </g>
    <g id="ytick_6">
     <g id="line2d_21">
      <path d="M 45.29 53.647736 
L 709.2 53.647736 
" clip-path="url(#p4364dacf5a)" style="fill: none; stroke: #b0b0b0; stroke-opacity: 0.3; stroke-width: 0.8; stroke-linecap: square"/>
     </g>
     <g id="line2d_22">
      <g>
       <use xlink:href="#m6088b49979" x="45.29" y="53.647736" style="stroke: #000000; stroke-width: 0.8"/>
      </g>
     </g>
     <g id="text_12">
      <!-- 85 -->
      <g transform="translate(25.565 57.446955) scale(0.1 -0.1)">
       <use xlink:href="#DejaVuSans-38"/>
       <use xlink:href="#DejaVuSans-35" transform="translate(63.623047 0)"/>
      </g>
     </g>
    </g>
    <g id="text_13">
     <!-- SSIMULACRA2 (higher is better) -->
     <g transform="translate(19.277344 295.433125) rotate(-90) scale(0.11 -0.11)">
      <defs>
       <path id="DejaVuSans-53" d="M 3425 4513 
L 3425 3897 
Q 3066 4069 2747 4153 
Q 2428 4238 2131 4238 
Q 1616 4238 1336 4038 
Q 1056 3838 1056 3469 
Q 1056 3159 1242 3001 
Q 1428 2844 1947 2747 
L 2328 2669 
Q 3034 2534 3370 2195 
Q 3706 1856 3706 1288 
Q 3706 609 3251 259 
Q 2797 -91 1919 -91 
Q 1588 -91 1214 -16 
Q 841 59 441 206 
L 441 856 
Q 825 641 1194 531 
Q 1563 422 1919 422 
Q 2459 422 2753 634 
Q 3047 847 3047 1241 
Q 3047 1584 2836 1778 
Q 2625 1972 2144 2069 
L 1759 2144 
Q 1053 2284 737 2584 
Q 422 2884 422 3419 
Q 422 4038 858 4394 
Q 1294 4750 2059 4750 
Q 2388 4750 2728 4690 
Q 3069 4631 3425 4513 
z
" transform="scale(0.015625)"/>
       <path id="DejaVuSans-49" d="M 628 4666 
L 1259 4666 
L 1259 0 
L 628 0 
L 628 4666 
z
" transform="scale(0.015625)"/>
       <path id="DejaVuSans-4d" d="M 628 4666 
L 1569 4666 
L 2759 1491 
L 3956 4666 
L 4897 4666 
L 4897 0 
L 4281 0 
L 4281 4097 
L 3078 897 
L 2444 897 
L 1241 4097 
L 1241 0 
L 628 0 
L 628 4666 
z
" transform="scale(0.015625)"/>
       <path id="DejaVuSans-55" d="M 556 4666 
L 1191 4666 
L 1191 1831 
Q 1191 1081 1462 751 
Q 1734 422 2344 422 
Q 2950 422 3222 751 
Q 3494 1081 3494 1831 
L 3494 4666 
L 4128 4666 
L 4128 1753 
Q 4128 841 3676 375 
Q 3225 -91 2344 -91 
Q 1459 -91 1007 375 
Q 556 841 556 1753 
L 556 4666 
z
" transform="scale(0.015625)"/>
       <path id="DejaVuSans-4c" d="M 628 4666 
L 1259 4666 
L 1259 531 
L 3531 531 
L 3531 0 
L 628 0 
L 628 4666 
z
" transform="scale(0.015625)"/>
       <path id="DejaVuSans-41" d="M 2188 4044 
L 1331 1722 
L 3047 1722 
L 2188 4044 
z
M 1831 4666 
L 2547 4666 
L 4325 0 
L 3669 0 
L 3244 1197 
L 1141 1197 
L 716 0 
L 50 0 
L 1831 4666 
z
" transform="scale(0.015625)"/>
       <path id="DejaVuSans-43" d="M 4122 4306 
L 4122 3641 
Q 3803 3938 3442 4084 
Q 3081 4231 2675 4231 
Q 1875 4231 1450 3742 
Q 1025 3253 1025 2328 
Q 1025 1406 1450 917 
Q 1875 428 2675 428 
Q 3081 428 3442 575 
Q 3803 722 4122 1019 
L 4122 359 
Q 3791 134 3420 21 
Q 3050 -91 2638 -91 
Q 1578 -91 968 557 
Q 359 1206 359 2328 
Q 359 3453 968 4101 
Q 1578 4750 2638 4750 
Q 3056 4750 3426 4639 
Q 3797 4528 4122 4306 
z
" transform="scale(0.015625)"/>
       <path id="DejaVuSans-52" d="M 2841 2188 
Q 3044 2119 3236 1894 
Q 3428 1669 3622 1275 
L 4263 0 
L 3584 0 
L 2988 1197 
Q 2756 1666 2539 1819 
Q 2322 1972 1947 1972 
L 1259 1972 
L 1259 0 
L 628 0 
L 628 4666 
L 2053 4666 
Q 2853 4666 3247 4331 
Q 3641 3997 3641 3322 
Q 3641 2881 3436 2590 
Q 3231 2300 2841 2188 
z
M 1259 4147 
L 1259 2491 
L 2053 2491 
Q 2509 2491 2742 2702 
Q 2975 2913 2975 3322 
Q 2975 3731 2742 3939 
Q 2509 4147 2053 4147 
L 1259 4147 
z
" transform="scale(0.015625)"/>
       <path id="DejaVuSans-20" transform="scale(0.015625)"/>
       <path id="DejaVuSans-28" d="M 1984 4856 
Q 1566 4138 1362 3434 
Q 1159 2731 1159 2009 
Q 1159 1288 1364 580 
Q 1569 -128 1984 -844 
L 1484 -844 
Q 1016 -109 783 600 
Q 550 1309 550 2009 
Q 550 2706 781 3412 
Q 1013 4119 1484 4856 
L 1984 4856 
z
" transform="scale(0.015625)"/>
       <path id="DejaVuSans-68" d="M 3513 2113 
L 3513 0 
L 2938 0 
L 2938 2094 
Q 2938 2591 2744 2837 
Q 2550 3084 2163 3084 
Q 1697 3084 1428 2787 
Q 1159 2491 1159 1978 
L 1159 0 
L 581 0 
L 581 4863 
L 1159 4863 
L 1159 2956 
Q 1366 3272 1645 3428 
Q 1925 3584 2291 3584 
Q 2894 3584 3203 3211 
Q 3513 2838 3513 2113 
z
" transform="scale(0.015625)"/>
       <path id="DejaVuSans-69" d="M 603 3500 
L 1178 3500 
L 1178 0 
L 603 0 
L 603 3500 
z
M 603 4863 
L 1178 4863 
L 1178 4134 
L 603 4134 
L 603 4863 
z
" transform="scale(0.015625)"/>
       <path id="DejaVuSans-67" d="M 2906 1791 
Q 2906 2416 2648 2759 
Q 2391 3103 1925 3103 
Q 1463 3103 1205 2759 
Q 947 2416 947 1791 
Q 947 1169 1205 825 
Q 1463 481 1925 481 
Q 2391 481 2648 825 
Q 2906 1169 2906 1791 
z
M 3481 434 
Q 3481 -459 3084 -895 
Q 2688 -1331 1869 -1331 
Q 1566 -1331 1297 -1286 
Q 1028 -1241 775 -1147 
L 775 -588 
Q 1028 -725 1275 -790 
Q 1522 -856 1778 -856 
Q 2344 -856 2625 -561 
Q 2906 -266 2906 331 
L 2906 616 
Q 2728 306 2450 153 
Q 2172 0 1784 0 
Q 1141 0 747 490 
Q 353 981 353 1791 
Q 353 2603 747 3093 
Q 1141 3584 1784 3584 
Q 2172 3584 2450 3431 
Q 2728 3278 2906 2969 
L 2906 3500 
L 3481 3500 
L 3481 434 
z
" transform="scale(0.015625)"/>
       <path id="DejaVuSans-65" d="M 3597 1894 
L 3597 1613 
L 953 1613 
Q 991 1019 1311 708 
Q 1631 397 2203 397 
Q 2534 397 2845 478 
Q 3156 559 3463 722 
L 3463 178 
Q 3153 47 2828 -22 
Q 2503 -91 2169 -91 
Q 1331 -91 842 396 
Q 353 884 353 1716 
Q 353 2575 817 3079 
Q 1281 3584 2069 3584 
Q 2775 3584 3186 3129 
Q 3597 2675 3597 1894 
z
M 3022 2063 
Q 3016 2534 2758 2815 
Q 2500 3097 2075 3097 
Q 1594 3097 1305 2825 
Q 1016 2553 972 2059 
L 3022 2063 
z
" transform="scale(0.015625)"/>
       <path id="DejaVuSans-73" d="M 2834 3397 
L 2834 2853 
Q 2591 2978 2328 3040 
Q 2066 3103 1784 3103 
Q 1356 3103 1142 2972 
Q 928 2841 928 2578 
Q 928 2378 1081 2264 
Q 1234 2150 1697 2047 
L 1894 2003 
Q 2506 1872 2764 1633 
Q 3022 1394 3022 966 
Q 3022 478 2636 193 
Q 2250 -91 1575 -91 
Q 1294 -91 989 -36 
Q 684 19 347 128 
L 347 722 
Q 666 556 975 473 
Q 1284 391 1588 391 
Q 1994 391 2212 530 
Q 2431 669 2431 922 
Q 2431 1156 2273 1281 
Q 2116 1406 1581 1522 
L 1381 1569 
Q 847 1681 609 1914 
Q 372 2147 372 2553 
Q 372 3047 722 3315 
Q 1072 3584 1716 3584 
Q 2034 3584 2315 3537 
Q 2597 3491 2834 3397 
z
" transform="scale(0.015625)"/>
       <path id="DejaVuSans-62" d="M 3116 1747 
Q 3116 2381 2855 2742 
Q 2594 3103 2138 3103 
Q 1681 3103 1420 2742 
Q 1159 2381 1159 1747 
Q 1159 1113 1420 752 
Q 1681 391 2138 391 
Q 2594 391 2855 752 
Q 3116 1113 3116 1747 
z
M 1159 2969 
Q 1341 3281 1617 3432 
Q 1894 3584 2278 3584 
Q 2916 3584 3314 3078 
Q 3713 2572 3713 1747 
Q 3713 922 3314 415 
Q 2916 -91 2278 -91 
Q 1894 -91 1617 61 
Q 1341 213 1159 525 
L 1159 0 
L 581 0 
L 581 4863 
L 1159 4863 
L 1159 2969 
z
" transform="scale(0.015625)"/>
       <path id="DejaVuSans-29" d="M 513 4856 
L 1013 4856 
Q 1481 4119 1714 3412 
Q 1947 2706 1947 2009 
Q 1947 1309 1714 600 
Q 1481 -109 1013 -844 
L 513 -844 
Q 928 -128 1133 580 
Q 1338 1288 1338 2009 
Q 1338 2731 1133 3434 
Q 928 4138 513 4856 
z
" transform="scale(0.015625)"/>
      </defs>
      <use xlink:href="#DejaVuSans-53"/>
      <use xlink:href="#DejaVuSans-53" transform="translate(63.476562 0)"/>
      <use xlink:href="#DejaVuSans-49" transform="translate(126.953125 0)"/>
      <use xlink:href="#DejaVuSans-4d" transform="translate(156.445312 0)"/>
      <use xlink:href="#DejaVuSans-55" transform="translate(242.724609 0)"/>
      <use xlink:href="#DejaVuSans-4c" transform="translate(315.917969 0)"/>
      <use xlink:href="#DejaVuSans-41" transform="translate(373.880859 0)"/>
      <use xlink:href="#DejaVuSans-43" transform="translate(440.539062 0)"/>
      <use xlink:href="#DejaVuSans-52" transform="translate(510.363281 0)"/>
      <use xlink:href="#DejaVuSans-41" transform="translate(575.845703 0)"/>
      <use xlink:href="#DejaVuSans-32" transform="translate(644.253906 0)"/>
      <use xlink:href="#DejaVuSans-20" transform="translate(707.876953 0)"/>
      <use xlink:href="#DejaVuSans-28" transform="translate(739.664062 0)"/>
      <use xlink:href="#DejaVuSans-68" transform="translate(778.677734 0)"/>
      <use xlink:href="#DejaVuSans-69" transform="translate(842.056641 0)"/>
      <use xlink:href="#DejaVuSans-67" transform="translate(869.839844 0)"/>
      <use xlink:href="#DejaVuSans-68" transform="translate(933.316406 0)"/>
      <use xlink:href="#DejaVuSans-65" transform="translate(996.695312 0)"/>
      <use xlink:href="#DejaVuSans-72" transform="translate(1058.21875 0)"/>
      <use xlink:href="#DejaVuSans-20" transform="translate(1099.332031 0)"/>
      <use xlink:href="#DejaVuSans-69" transform="translate(1131.119141 0)"/>
      <use xlink:href="#DejaVuSans-73" transform="translate(1158.902344 0)"/>
      <use xlink:href="#DejaVuSans-20" transform="translate(1211.001953 0)"/>
      <use xlink:href="#DejaVuSans-62" transform="translate(1242.789062 0)"/>
      <use xlink:href="#DejaVuSans-65" transform="translate(1306.265625 0)"/>
      <use xlink:href="#DejaVuSans-74" transform="translate(1367.789062 0)"/>
      <use xlink:href="#DejaVuSans-74" transform="translate(1406.998047 0)"/>
      <use xlink:href="#DejaVuSans-65" transform="translate(1446.207031 0)"/>
      <use xlink:href="#DejaVuSans-72" transform="translate(1507.730469 0)"/>
      <use xlink:href="#DejaVuSans-29" transform="translate(1548.84375 0)"/>
     </g>
    </g>
   </g>
   <g id="line2d_23">
    <path d="M 75.467727 215.309166 
L 142.529343 215.309166 
L 209.59096 215.309166 
L 276.652576 206.974329 
L 343.714192 234.682786 
L 410.775808 231.362458 
L 477.837424 229.982427 
L 544.89904 244.179179 
L 611.960657 243.896225 
L 679.022273 244.292445 
" clip-path="url(#p4364dacf5a)" style="fill: none; stroke: #1f77b4; stroke-width: 1.5; stroke-linecap: square"/>
    <defs>
     <path id="mb7e49f36b7" d="M 0 3.5 
C 0.928211 3.5 1.81853 3.131218 2.474874 2.474874 
C 3.131218 1.81853 3.5 0.928211 3.5 0 
C 3.5 -0.928211 3.131218 -1.81853 2.474874 -2.474874 
C 1.81853 -3.131218 0.928211 -3.5 0 -3.5 
C -0.928211 -3.5 -1.81853 -3.131218 -2.474874 -2.474874 
C -3.131218 -1.81853 -3.5 -0.928211 -3.5 0 
C -3.5 0.928211 -3.131218 1.81853 -2.474874 2.474874 
C -1.81853 3.131218 -0.928211 3.5 0 3.5 
z
" style="stroke: #1f77b4"/>
    </defs>
    <g clip-path="url(#p4364dacf5a)">
     <use xlink:href="#mb7e49f36b7" x="75.467727" y="215.309166" style="fill: #1f77b4; stroke: #1f77b4"/>
     <use xlink:href="#mb7e49f36b7" x="142.529343" y="215.309166" style="fill: #1f77b4; stroke: #1f77b4"/>
     <use xlink:href="#mb7e49f36b7" x="209.59096" y="215.309166" style="fill: #1f77b4; stroke: #1f77b4"/>
     <use xlink:href="#mb7e49f36b7" x="276.652576" y="206.974329" style="fill: #1f77b4; stroke: #1f77b4"/>
     <use xlink:href="#mb7e49f36b7" x="343.714192" y="234.682786" style="fill: #1f77b4; stroke: #1f77b4"/>
     <use xlink:href="#mb7e49f36b7" x="410.775808" y="231.362458" style="fill: #1f77b4; stroke: #1f77b4"/>
     <use xlink:href="#mb7e49f36b7" x="477.837424" y="229.982427" style="fill: #1f77b4; stroke: #1f77b4"/>
     <use xlink:href="#mb7e49f36b7" x="544.89904" y="244.179179" style="fill: #1f77b4; stroke: #1f77b4"/>
     <use xlink:href="#mb7e49f36b7" x="611.960657" y="243.896225" style="fill: #1f77b4; stroke: #1f77b4"/>
     <use xlink:href="#mb7e49f36b7" x="679.022273" y="244.292445" style="fill: #1f77b4; stroke: #1f77b4"/>
    </g>
   </g>
   <g id="line2d_24">
    <path d="M 75.467727 285.008968 
L 142.529343 285.008968 
L 209.59096 285.008968 
L 276.652576 277.769737 
L 343.714192 364.410581 
L 410.775808 361.900007 
L 477.837424 359.534247 
L 544.89904 372.845455 
L 611.960657 371.631251 
L 679.022273 372.805433 
" clip-path="url(#p4364dacf5a)" style="fill: none; stroke-dasharray: 5.55,2.4; stroke-dashoffset: 0; stroke: #1f77b4; stroke-width: 1.5"/>
    <defs>
     <path id="md891056674" d="M 0 3.5 
C 0.928211 3.5 1.81853 3.131218 2.474874 2.474874 
C 3.131218 1.81853 3.5 0.928211 3.5 0 
C 3.5 -0.928211 3.131218 -1.81853 2.474874 -2.474874 
C 1.81853 -3.131218 0.928211 -3.5 0 -3.5 
C -0.928211 -3.5 -1.81853 -3.131218 -2.474874 -2.474874 
C -3.131218 -1.81853 -3.5 -0.928211 -3.5 0 
C -3.5 0.928211 -3.131218 1.81853 -2.474874 2.474874 
C -1.81853 3.131218 -0.928211 3.5 0 3.5 
z
" style="stroke: #1f77b4"/>
    </defs>
    <g clip-path="url(#p4364dacf5a)">
     <use xlink:href="#md891056674" x="75.467727" y="285.008968" style="fill-opacity: 0; stroke: #1f77b4"/>
     <use xlink:href="#md891056674" x="142.529343" y="285.008968" style="fill-opacity: 0; stroke: #1f77b4"/>
     <use xlink:href="#md891056674" x="209.59096" y="285.008968" style="fill-opacity: 0; stroke: #1f77b4"/>
     <use xlink:href="#md891056674" x="276.652576" y="277.769737" style="fill-opacity: 0; stroke: #1f77b4"/>
     <use xlink:href="#md891056674" x="343.714192" y="364.410581" style="fill-opacity: 0; stroke: #1f77b4"/>
     <use xlink:href="#md891056674" x="410.775808" y="361.900007" style="fill-opacity: 0; stroke: #1f77b4"/>
     <use xlink:href="#md891056674" x="477.837424" y="359.534247" style="fill-opacity: 0; stroke: #1f77b4"/>
     <use xlink:href="#md891056674" x="544.89904" y="372.845455" style="fill-opacity: 0; stroke: #1f77b4"/>
     <use xlink:href="#md891056674" x="611.960657" y="371.631251" style="fill-opacity: 0; stroke: #1f77b4"/>
     <use xlink:href="#md891056674" x="679.022273" y="372.805433" style="fill-opacity: 0; stroke: #1f77b4"/>
    </g>
   </g>
   <g id="line2d_25">
    <path d="M 75.467727 181.30007 
L 142.529343 181.30007 
L 209.59096 181.30007 
L 276.652576 175.128417 
L 343.714192 194.734827 
L 410.775808 191.457884 
L 477.837424 190.171388 
L 544.89904 198.777562 
L 611.960657 198.360516 
L 679.022273 198.684072 
" clip-path="url(#p4364dacf5a)" style="fill: none; stroke: #ff7f0e; stroke-width: 1.5; stroke-linecap: square"/>
    <defs>
     <path id="m4d7228b559" d="M -3.5 3.5 
L 3.5 3.5 
L 3.5 -3.5 
L -3.5 -3.5 
z
" style="stroke: #ff7f0e; stroke-linejoin: miter"/>
    </defs>
    <g clip-path="url(#p4364dacf5a)">
     <use xlink:href="#m4d7228b559" x="75.467727" y="181.30007" style="fill: #ff7f0e; stroke: #ff7f0e; stroke-linejoin: miter"/>
     <use xlink:href="#m4d7228b559" x="142.529343" y="181.30007" style="fill: #ff7f0e; stroke: #ff7f0e; stroke-linejoin: miter"/>
     <use xlink:href="#m4d7228b559" x="209.59096" y="181.30007" style="fill: #ff7f0e; stroke: #ff7f0e; stroke-linejoin: miter"/>
     <use xlink:href="#m4d7228b559" x="276.652576" y="175.128417" style="fill: #ff7f0e; stroke: #ff7f0e; stroke-linejoin: miter"/>
     <use xlink:href="#m4d7228b559" x="343.714192" y="194.734827" style="fill: #ff7f0e; stroke: #ff7f0e; stroke-linejoin: miter"/>
     <use xlink:href="#m4d7228b559" x="410.775808" y="191.457884" style="fill: #ff7f0e; stroke: #ff7f0e; stroke-linejoin: miter"/>
     <use xlink:href="#m4d7228b559" x="477.837424" y="190.171388" style="fill: #ff7f0e; stroke: #ff7f0e; stroke-linejoin: miter"/>
     <use xlink:href="#m4d7228b559" x="544.89904" y="198.777562" style="fill: #ff7f0e; stroke: #ff7f0e; stroke-linejoin: miter"/>
     <use xlink:href="#m4d7228b559" x="611.960657" y="198.360516" style="fill: #ff7f0e; stroke: #ff7f0e; stroke-linejoin: miter"/>
     <use xlink:href="#m4d7228b559" x="679.022273" y="198.684072" style="fill: #ff7f0e; stroke: #ff7f0e; stroke-linejoin: miter"/>
    </g>
   </g>
   <g id="line2d_26">
    <path d="M 75.467727 244.757101 
L 142.529343 244.757101 
L 209.59096 244.757101 
L 276.652576 239.227873 
L 343.714192 315.396692 
L 410.775808 311.176869 
L 477.837424 307.109361 
L 544.89904 309.263265 
L 611.960657 307.067015 
L 679.022273 308.691457 
" clip-path="url(#p4364dacf5a)" style="fill: none; stroke-dasharray: 5.55,2.4; stroke-dashoffset: 0; stroke: #ff7f0e; stroke-width: 1.5"/>
    <defs>
     <path id="ma700afb728" d="M -3.5 3.5 
L 3.5 3.5 
L 3.5 -3.5 
L -3.5 -3.5 
z
" style="stroke: #ff7f0e; stroke-linejoin: miter"/>
    </defs>
    <g clip-path="url(#p4364dacf5a)">
     <use xlink:href="#ma700afb728" x="75.467727" y="244.757101" style="fill-opacity: 0; stroke: #ff7f0e; stroke-linejoin: miter"/>
     <use xlink:href="#ma700afb728" x="142.529343" y="244.757101" style="fill-opacity: 0; stroke: #ff7f0e; stroke-linejoin: miter"/>
     <use xlink:href="#ma700afb728" x="209.59096" y="244.757101" style="fill-opacity: 0; stroke: #ff7f0e; stroke-linejoin: miter"/>
     <use xlink:href="#ma700afb728" x="276.652576" y="239.227873" style="fill-opacity: 0; stroke: #ff7f0e; stroke-linejoin: miter"/>
     <use xlink:href="#ma700afb728" x="343.714192" y="315.396692" style="fill-opacity: 0; stroke: #ff7f0e; stroke-linejoin: miter"/>
     <use xlink:href="#ma700afb728" x="410.775808" y="311.176869" style="fill-opacity: 0; stroke: #ff7f0e; stroke-linejoin: miter"/>
     <use xlink:href="#ma700afb728" x="477.837424" y="307.109361" style="fill-opacity: 0; stroke: #ff7f0e; stroke-linejoin: miter"/>
     <use xlink:href="#ma700afb728" x="544.89904" y="309.263265" style="fill-opacity: 0; stroke: #ff7f0e; stroke-linejoin: miter"/>
     <use xlink:href="#ma700afb728" x="611.960657" y="307.067015" style="fill-opacity: 0; stroke: #ff7f0e; stroke-linejoin: miter"/>
     <use xlink:href="#ma700afb728" x="679.022273" y="308.691457" style="fill-opacity: 0; stroke: #ff7f0e; stroke-linejoin: miter"/>
    </g>
   </g>
   <g id="line2d_27">
    <path d="M 75.467727 145.633016 
L 142.529343 145.633016 
L 209.59096 145.633016 
L 276.652576 140.980543 
L 343.714192 150.735278 
L 410.775808 149.445566 
L 477.837424 147.367722 
L 544.89904 149.805442 
L 611.960657 149.182403 
L 679.022273 149.981028 
" clip-path="url(#p4364dacf5a)" style="fill: none; stroke: #2ca02c; stroke-width: 1.5; stroke-linecap: square"/>
    <defs>
     <path id="me306faa953" d="M 0 -3.5 
L -3.5 3.5 
L 3.5 3.5 
z
" style="stroke: #2ca02c; stroke-linejoin: miter"/>
    </defs>
    <g clip-path="url(#p4364dacf5a)">
     <use xlink:href="#me306faa953" x="75.467727" y="145.633016" style="fill: #2ca02c; stroke: #2ca02c; stroke-linejoin: miter"/>
     <use xlink:href="#me306faa953" x="142.529343" y="145.633016" style="fill: #2ca02c; stroke: #2ca02c; stroke-linejoin: miter"/>
     <use xlink:href="#me306faa953" x="209.59096" y="145.633016" style="fill: #2ca02c; stroke: #2ca02c; stroke-linejoin: miter"/>
     <use xlink:href="#me306faa953" x="276.652576" y="140.980543" style="fill: #2ca02c; stroke: #2ca02c; stroke-linejoin: miter"/>
     <use xlink:href="#me306faa953" x="343.714192" y="150.735278" style="fill: #2ca02c; stroke: #2ca02c; stroke-linejoin: miter"/>
     <use xlink:href="#me306faa953" x="410.775808" y="149.445566" style="fill: #2ca02c; stroke: #2ca02c; stroke-linejoin: miter"/>
     <use xlink:href="#me306faa953" x="477.837424" y="147.367722" style="fill: #2ca02c; stroke: #2ca02c; stroke-linejoin: miter"/>
     <use xlink:href="#me306faa953" x="544.89904" y="149.805442" style="fill: #2ca02c; stroke: #2ca02c; stroke-linejoin: miter"/>
     <use xlink:href="#me306faa953" x="611.960657" y="149.182403" style="fill: #2ca02c; stroke: #2ca02c; stroke-linejoin: miter"/>
     <use xlink:href="#me306faa953" x="679.022273" y="149.981028" style="fill: #2ca02c; stroke: #2ca02c; stroke-linejoin: miter"/>
    </g>
   </g>
   <g id="line2d_28">
    <path d="M 75.467727 202.294516 
L 142.529343 202.294516 
L 209.59096 202.294516 
L 276.652576 198.285957 
L 343.714192 256.57784 
L 410.775808 255.62534 
L 477.837424 249.48314 
L 544.89904 245.096112 
L 611.960657 242.507395 
L 679.022273 244.873347 
" clip-path="url(#p4364dacf5a)" style="fill: none; stroke-dasharray: 5.55,2.4; stroke-dashoffset: 0; stroke: #2ca02c; stroke-width: 1.5"/>
    <defs>
     <path id="mad10ccc926" d="M 0 -3.5 
L -3.5 3.5 
L 3.5 3.5 
z
" style="stroke: #2ca02c; stroke-linejoin: miter"/>
    </defs>
    <g clip-path="url(#p4364dacf5a)">
     <use xlink:href="#mad10ccc926" x="75.467727" y="202.294516" style="fill-opacity: 0; stroke: #2ca02c; stroke-linejoin: miter"/>
     <use xlink:href="#mad10ccc926" x="142.529343" y="202.294516" style="fill-opacity: 0; stroke: #2ca02c; stroke-linejoin: miter"/>
     <use xlink:href="#mad10ccc926" x="209.59096" y="202.294516" style="fill-opacity: 0; stroke: #2ca02c; stroke-linejoin: miter"/>
     <use xlink:href="#mad10ccc926" x="276.652576" y="198.285957" style="fill-opacity: 0; stroke: #2ca02c; stroke-linejoin: miter"/>
     <use xlink:href="#mad10ccc926" x="343.714192" y="256.57784" style="fill-opacity: 0; stroke: #2ca02c; stroke-linejoin: miter"/>
     <use xlink:href="#mad10ccc926" x="410.775808" y="255.62534" style="fill-opacity: 0; stroke: #2ca02c; stroke-linejoin: miter"/>
     <use xlink:href="#mad10ccc926" x="477.837424" y="249.48314" style="fill-opacity: 0; stroke: #2ca02c; stroke-linejoin: miter"/>
     <use xlink:href="#mad10ccc926" x="544.89904" y="245.096112" style="fill-opacity: 0; stroke: #2ca02c; stroke-linejoin: miter"/>
     <use xlink:href="#mad10ccc926" x="611.960657" y="242.507395" style="fill-opacity: 0; stroke: #2ca02c; stroke-linejoin: miter"/>
     <use xlink:href="#mad10ccc926" x="679.022273" y="244.873347" style="fill-opacity: 0; stroke: #2ca02c; stroke-linejoin: miter"/>
    </g>
   </g>
   <g id="line2d_29">
    <path d="M 75.467727 84.699685 
L 142.529343 84.699685 
L 209.59096 84.699685 
L 276.652576 80.730715 
L 343.714192 104.267962 
L 410.775808 103.973496 
L 477.837424 101.909365 
L 544.89904 101.254804 
L 611.960657 100.264769 
L 679.022273 100.946779 
" clip-path="url(#p4364dacf5a)" style="fill: none; stroke: #d62728; stroke-width: 1.5; stroke-linecap: square"/>
    <defs>
     <path id="mfa4b1bfb92" d="M -0 4.949747 
L 4.949747 0 
L 0 -4.949747 
L -4.949747 -0 
z
" style="stroke: #d62728; stroke-linejoin: miter"/>
    </defs>
    <g clip-path="url(#p4364dacf5a)">
     <use xlink:href="#mfa4b1bfb92" x="75.467727" y="84.699685" style="fill: #d62728; stroke: #d62728; stroke-linejoin: miter"/>
     <use xlink:href="#mfa4b1bfb92" x="142.529343" y="84.699685" style="fill: #d62728; stroke: #d62728; stroke-linejoin: miter"/>
     <use xlink:href="#mfa4b1bfb92" x="209.59096" y="84.699685" style="fill: #d62728; stroke: #d62728; stroke-linejoin: miter"/>
     <use xlink:href="#mfa4b1bfb92" x="276.652576" y="80.730715" style="fill: #d62728; stroke: #d62728; stroke-linejoin: miter"/>
     <use xlink:href="#mfa4b1bfb92" x="343.714192" y="104.267962" style="fill: #d62728; stroke: #d62728; stroke-linejoin: miter"/>
     <use xlink:href="#mfa4b1bfb92" x="410.775808" y="103.973496" style="fill: #d62728; stroke: #d62728; stroke-linejoin: miter"/>
     <use xlink:href="#mfa4b1bfb92" x="477.837424" y="101.909365" style="fill: #d62728; stroke: #d62728; stroke-linejoin: miter"/>
     <use xlink:href="#mfa4b1bfb92" x="544.89904" y="101.254804" style="fill: #d62728; stroke: #d62728; stroke-linejoin: miter"/>
     <use xlink:href="#mfa4b1bfb92" x="611.960657" y="100.264769" style="fill: #d62728; stroke: #d62728; stroke-linejoin: miter"/>
     <use xlink:href="#mfa4b1bfb92" x="679.022273" y="100.946779" style="fill: #d62728; stroke: #d62728; stroke-linejoin: miter"/>
    </g>
   </g>
   <g id="line2d_30">
    <path d="M 75.467727 125.821077 
L 142.529343 125.821077 
L 209.59096 125.821077 
L 276.652576 123.109485 
L 343.714192 192.32472 
L 410.775808 192.868434 
L 477.837424 186.394569 
L 544.89904 178.313193 
L 611.960657 176.011835 
L 679.022273 177.923026 
" clip-path="url(#p4364dacf5a)" style="fill: none; stroke-dasharray: 5.55,2.4; stroke-dashoffset: 0; stroke: #d62728; stroke-width: 1.5"/>
    <defs>
     <path id="m4afb908290" d="M -0 4.949747 
L 4.949747 0 
L 0 -4.949747 
L -4.949747 -0 
z
" style="stroke: #d62728; stroke-linejoin: miter"/>
    </defs>
    <g clip-path="url(#p4364dacf5a)">
     <use xlink:href="#m4afb908290" x="75.467727" y="125.821077" style="fill-opacity: 0; stroke: #d62728; stroke-linejoin: miter"/>
     <use xlink:href="#m4afb908290" x="142.529343" y="125.821077" style="fill-opacity: 0; stroke: #d62728; stroke-linejoin: miter"/>
     <use xlink:href="#m4afb908290" x="209.59096" y="125.821077" style="fill-opacity: 0; stroke: #d62728; stroke-linejoin: miter"/>
     <use xlink:href="#m4afb908290" x="276.652576" y="123.109485" style="fill-opacity: 0; stroke: #d62728; stroke-linejoin: miter"/>
     <use xlink:href="#m4afb908290" x="343.714192" y="192.32472" style="fill-opacity: 0; stroke: #d62728; stroke-linejoin: miter"/>
     <use xlink:href="#m4afb908290" x="410.775808" y="192.868434" style="fill-opacity: 0; stroke: #d62728; stroke-linejoin: miter"/>
     <use xlink:href="#m4afb908290" x="477.837424" y="186.394569" style="fill-opacity: 0; stroke: #d62728; stroke-linejoin: miter"/>
     <use xlink:href="#m4afb908290" x="544.89904" y="178.313193" style="fill-opacity: 0; stroke: #d62728; stroke-linejoin: miter"/>
     <use xlink:href="#m4afb908290" x="611.960657" y="176.011835" style="fill-opacity: 0; stroke: #d62728; stroke-linejoin: miter"/>
     <use xlink:href="#m4afb908290" x="679.022273" y="177.923026" style="fill-opacity: 0; stroke: #d62728; stroke-linejoin: miter"/>
    </g>
   </g>
   <g id="line2d_31">
    <path d="M 75.467727 45.163825 
L 142.529343 45.163825 
L 209.59096 45.163825 
L 276.652576 43.354545 
L 343.714192 54.593894 
L 410.775808 54.75089 
L 477.837424 52.380016 
L 544.89904 50.336689 
L 611.960657 49.153105 
L 679.022273 50.402419 
" clip-path="url(#p4364dacf5a)" style="fill: none; stroke: #9467bd; stroke-width: 1.5; stroke-linecap: square"/>
    <defs>
     <path id="m873fdbb750" d="M -0 3.5 
L 3.5 -3.5 
L -3.5 -3.5 
z
" style="stroke: #9467bd; stroke-linejoin: miter"/>
    </defs>
    <g clip-path="url(#p4364dacf5a)">
     <use xlink:href="#m873fdbb750" x="75.467727" y="45.163825" style="fill: #9467bd; stroke: #9467bd; stroke-linejoin: miter"/>
     <use xlink:href="#m873fdbb750" x="142.529343" y="45.163825" style="fill: #9467bd; stroke: #9467bd; stroke-linejoin: miter"/>
     <use xlink:href="#m873fdbb750" x="209.59096" y="45.163825" style="fill: #9467bd; stroke: #9467bd; stroke-linejoin: miter"/>
     <use xlink:href="#m873fdbb750" x="276.652576" y="43.354545" style="fill: #9467bd; stroke: #9467bd; stroke-linejoin: miter"/>
     <use xlink:href="#m873fdbb750" x="343.714192" y="54.593894" style="fill: #9467bd; stroke: #9467bd; stroke-linejoin: miter"/>
     <use xlink:href="#m873fdbb750" x="410.775808" y="54.75089" style="fill: #9467bd; stroke: #9467bd; stroke-linejoin: miter"/>
     <use xlink:href="#m873fdbb750" x="477.837424" y="52.380016" style="fill: #9467bd; stroke: #9467bd; stroke-linejoin: miter"/>
     <use xlink:href="#m873fdbb750" x="544.89904" y="50.336689" style="fill: #9467bd; stroke: #9467bd; stroke-linejoin: miter"/>
     <use xlink:href="#m873fdbb750" x="611.960657" y="49.153105" style="fill: #9467bd; stroke: #9467bd; stroke-linejoin: miter"/>
     <use xlink:href="#m873fdbb750" x="679.022273" y="50.402419" style="fill: #9467bd; stroke: #9467bd; stroke-linejoin: miter"/>
    </g>
   </g>
   <g id="line2d_32">
    <path d="M 75.467727 77.042119 
L 142.529343 77.042119 
L 209.59096 77.042119 
L 276.652576 76.037459 
L 343.714192 120.579031 
L 410.775808 121.439001 
L 477.837424 115.74088 
L 544.89904 110.602283 
L 611.960657 108.034452 
L 679.022273 110.757752 
" clip-path="url(#p4364dacf5a)" style="fill: none; stroke-dasharray: 5.55,2.4; stroke-dashoffset: 0; stroke: #9467bd; stroke-width: 1.5"/>
    <defs>
     <path id="mc93de9fc3c" d="M -0 3.5 
L 3.5 -3.5 
L -3.5 -3.5 
z
" style="stroke: #9467bd; stroke-linejoin: miter"/>
    </defs>
    <g clip-path="url(#p4364dacf5a)">
     <use xlink:href="#mc93de9fc3c" x="75.467727" y="77.042119" style="fill-opacity: 0; stroke: #9467bd; stroke-linejoin: miter"/>
     <use xlink:href="#mc93de9fc3c" x="142.529343" y="77.042119" style="fill-opacity: 0; stroke: #9467bd; stroke-linejoin: miter"/>
     <use xlink:href="#mc93de9fc3c" x="209.59096" y="77.042119" style="fill-opacity: 0; stroke: #9467bd; stroke-linejoin: miter"/>
     <use xlink:href="#mc93de9fc3c" x="276.652576" y="76.037459" style="fill-opacity: 0; stroke: #9467bd; stroke-linejoin: miter"/>
     <use xlink:href="#mc93de9fc3c" x="343.714192" y="120.579031" style="fill-opacity: 0; stroke: #9467bd; stroke-linejoin: miter"/>
     <use xlink:href="#mc93de9fc3c" x="410.775808" y="121.439001" style="fill-opacity: 0; stroke: #9467bd; stroke-linejoin: miter"/>
     <use xlink:href="#mc93de9fc3c" x="477.837424" y="115.74088" style="fill-opacity: 0; stroke: #9467bd; stroke-linejoin: miter"/>
     <use xlink:href="#mc93de9fc3c" x="544.89904" y="110.602283" style="fill-opacity: 0; stroke: #9467bd; stroke-linejoin: miter"/>
     <use xlink:href="#mc93de9fc3c" x="611.960657" y="108.034452" style="fill-opacity: 0; stroke: #9467bd; stroke-linejoin: miter"/>
     <use xlink:href="#mc93de9fc3c" x="679.022273" y="110.757752" style="fill-opacity: 0; stroke: #9467bd; stroke-linejoin: miter"/>
    </g>
   </g>
   <g id="patch_3">
    <path d="M 45.29 389.32 
L 45.29 26.88 
" style="fill: none; stroke: #000000; stroke-width: 0.8; stroke-linejoin: miter; stroke-linecap: square"/>
   </g>
   <g id="patch_4">
    <path d="M 709.2 389.32 
L 709.2 26.88 
" style="fill: none; stroke: #000000; stroke-width: 0.8; stroke-linejoin: miter; stroke-linecap: square"/>
   </g>
   <g id="patch_5">
    <path d="M 45.29 389.32 
L 709.2 389.32 
" style="fill: none; stroke: #000000; stroke-width: 0.8; stroke-linejoin: miter; stroke-linecap: square"/>
   </g>
   <g id="patch_6">
    <path d="M 45.29 26.88 
L 709.2 26.88 
" style="fill: none; stroke: #000000; stroke-width: 0.8; stroke-linejoin: miter; stroke-linecap: square"/>
   </g>
   <g id="text_14">
    <!-- SSIMULACRA2 vs Effort -->
    <g transform="translate(307.774375 20.88) scale(0.12 -0.12)">
     <defs>
      <path id="DejaVuSans-76" d="M 191 3500 
L 800 3500 
L 1894 563 
L 2988 3500 
L 3597 3500 
L 2284 0 
L 1503 0 
L 191 3500 
z
" transform="scale(0.015625)"/>
     </defs>
     <use xlink:href="#DejaVuSans-53"/>
     <use xlink:href="#DejaVuSans-53" transform="translate(63.476562 0)"/>
     <use xlink:href="#DejaVuSans-49" transform="translate(126.953125 0)"/>
     <use xlink:href="#DejaVuSans-4d" transform="translate(156.445312 0)"/>
     <use xlink:href="#DejaVuSans-55" transform="translate(242.724609 0)"/>
     <use xlink:href="#DejaVuSans-4c" transform="translate(315.917969 0)"/>
     <use xlink:href="#DejaVuSans-41" transform="translate(373.880859 0)"/>
     <use xlink:href="#DejaVuSans-43" transform="translate(440.539062 0)"/>
     <use xlink:href="#DejaVuSans-52" transform="translate(510.363281 0)"/>
     <use xlink:href="#DejaVuSans-41" transform="translate(575.845703 0)"/>
     <use xlink:href="#DejaVuSans-32" transform="translate(644.253906 0)"/>
     <use xlink:href="#DejaVuSans-20" transform="translate(707.876953 0)"/>
     <use xlink:href="#DejaVuSans-76" transform="translate(739.664062 0)"/>
     <use xlink:href="#DejaVuSans-73" transform="translate(798.84375 0)"/>
     <use xlink:href="#DejaVuSans-20" transform="translate(850.943359 0)"/>
     <use xlink:href="#DejaVuSans-45" transform="translate(882.730469 0)"/>
     <use xlink:href="#DejaVuSans-66" transform="translate(945.914062 0)"/>
     <use xlink:href="#DejaVuSans-66" transform="translate(981.119141 0)"/>
     <use xlink:href="#DejaVuSans-6f" transform="translate(1016.324219 0)"/>
     <use xlink:href="#DejaVuSans-72" transform="translate(1077.505859 0)"/>
     <use xlink:href="#DejaVuSans-74" transform="translate(1118.619141 0)"/>
    </g>
   </g>
   <g id="legend_1">
    <g id="patch_7">
     <path d="M 50.89 385.32 
L 227.3475 385.32 
Q 228.9475 385.32 228.9475 383.72 
L 228.9475 325.8075 
Q 228.9475 324.2075 227.3475 324.2075 
L 50.89 324.2075 
Q 49.29 324.2075 49.29 325.8075 
L 49.29 383.72 
Q 49.29 385.32 50.89 385.32 
z
" style="fill: #ffffff; opacity: 0.8; stroke: #cccccc; stroke-linejoin: miter"/>
    </g>
    <g id="line2d_33">
     <path d="M 52.49 330.68625 
L 60.49 330.68625 
L 68.49 330.68625 
" style="fill: none; stroke: #1f77b4; stroke-width: 1.5; stroke-linecap: square"/>
     <g>
      <use xlink:href="#mb7e49f36b7" x="60.49" y="330.68625" style="fill: #1f77b4; stroke: #1f77b4"/>
     </g>
    </g>
    <g id="text_15">
     <!-- 70 (mean) -->
     <g transform="translate(74.89 333.48625) scale(0.08 -0.08)">
      <defs>
       <path id="DejaVuSans-6d" d="M 3328 2828 
Q 3544 3216 3844 3400 
Q 4144 3584 4550 3584 
Q 5097 3584 5394 3201 
Q 5691 2819 5691 2113 
L 5691 0 
L 5113 0 
L 5113 2094 
Q 5113 2597 4934 2840 
Q 4756 3084 4391 3084 
Q 3944 3084 3684 2787 
Q 3425 2491 3425 1978 
L 3425 0 
L 2847 0 
L 2847 2094 
Q 2847 2600 2669 2842 
Q 2491 3084 2119 3084 
Q 1678 3084 1418 2786 
Q 1159 2488 1159 1978 
L 1159 0 
L 581 0 
L 581 3500 
L 1159 3500 
L 1159 2956 
Q 1356 3278 1631 3431 
Q 1906 3584 2284 3584 
Q 2666 3584 2933 3390 
Q 3200 3197 3328 2828 
z
" transform="scale(0.015625)"/>
       <path id="DejaVuSans-61" d="M 2194 1759 
Q 1497 1759 1228 1600 
Q 959 1441 959 1056 
Q 959 750 1161 570 
Q 1363 391 1709 391 
Q 2188 391 2477 730 
Q 2766 1069 2766 1631 
L 2766 1759 
L 2194 1759 
z
M 3341 1997 
L 3341 0 
L 2766 0 
L 2766 531 
Q 2569 213 2275 61 
Q 1981 -91 1556 -91 
Q 1019 -91 701 211 
Q 384 513 384 1019 
Q 384 1609 779 1909 
Q 1175 2209 1959 2209 
L 2766 2209 
L 2766 2266 
Q 2766 2663 2505 2880 
Q 2244 3097 1772 3097 
Q 1472 3097 1187 3025 
Q 903 2953 641 2809 
L 641 3341 
Q 956 3463 1253 3523 
Q 1550 3584 1831 3584 
Q 2591 3584 2966 3190 
Q 3341 2797 3341 1997 
z
" transform="scale(0.015625)"/>
       <path id="DejaVuSans-6e" d="M 3513 2113 
L 3513 0 
L 2938 0 
L 2938 2094 
Q 2938 2591 2744 2837 
Q 2550 3084 2163 3084 
Q 1697 3084 1428 2787 
Q 1159 2491 1159 1978 
L 1159 0 
L 581 0 
L 581 3500 
L 1159 3500 
L 1159 2956 
Q 1366 3272 1645 3428 
Q 1925 3584 2291 3584 
Q 2894 3584 3203 3211 
Q 3513 2838 3513 2113 
z
" transform="scale(0.015625)"/>
      </defs>
      <use xlink:href="#DejaVuSans-37"/>
      <use xlink:href="#DejaVuSans-30" transform="translate(63.623047 0)"/>
      <use xlink:href="#DejaVuSans-20" transform="translate(127.246094 0)"/>
      <use xlink:href="#DejaVuSans-28" transform="translate(159.033203 0)"/>
      <use xlink:href="#DejaVuSans-6d" transform="translate(198.046875 0)"/>
      <use xlink:href="#DejaVuSans-65" transform="translate(295.458984 0)"/>
      <use xlink:href="#DejaVuSans-61" transform="translate(356.982422 0)"/>
      <use xlink:href="#DejaVuSans-6e" transform="translate(418.261719 0)"/>
      <use xlink:href="#DejaVuSans-29" transform="translate(481.640625 0)"/>
     </g>
    </g>
    <g id="line2d_34">
     <path d="M 52.49 342.42875 
L 60.49 342.42875 
L 68.49 342.42875 
" style="fill: none; stroke-dasharray: 5.55,2.4; stroke-dashoffset: 0; stroke: #1f77b4; stroke-width: 1.5"/>
     <g>
      <use xlink:href="#md891056674" x="60.49" y="342.42875" style="fill-opacity: 0; stroke: #1f77b4"/>
     </g>
    </g>
    <g id="text_16">
     <!-- 70 (5% worst) -->
     <g transform="translate(74.89 345.22875) scale(0.08 -0.08)">
      <defs>
       <path id="DejaVuSans-25" d="M 4653 2053 
Q 4381 2053 4226 1822 
Q 4072 1591 4072 1178 
Q 4072 772 4226 539 
Q 4381 306 4653 306 
Q 4919 306 5073 539 
Q 5228 772 5228 1178 
Q 5228 1588 5073 1820 
Q 4919 2053 4653 2053 
z
M 4653 2450 
Q 5147 2450 5437 2106 
Q 5728 1763 5728 1178 
Q 5728 594 5436 251 
Q 5144 -91 4653 -91 
Q 4153 -91 3862 251 
Q 3572 594 3572 1178 
Q 3572 1766 3864 2108 
Q 4156 2450 4653 2450 
z
M 1428 4353 
Q 1159 4353 1004 4120 
Q 850 3888 850 3481 
Q 850 3069 1003 2837 
Q 1156 2606 1428 2606 
Q 1700 2606 1854 2837 
Q 2009 3069 2009 3481 
Q 2009 3884 1853 4118 
Q 1697 4353 1428 4353 
z
M 4250 4750 
L 4750 4750 
L 1831 -91 
L 1331 -91 
L 4250 4750 
z
M 1428 4750 
Q 1922 4750 2215 4408 
Q 2509 4066 2509 3481 
Q 2509 2891 2217 2550 
Q 1925 2209 1428 2209 
Q 931 2209 642 2551 
Q 353 2894 353 3481 
Q 353 4063 643 4406 
Q 934 4750 1428 4750 
z
" transform="scale(0.015625)"/>
       <path id="DejaVuSans-77" d="M 269 3500 
L 844 3500 
L 1563 769 
L 2278 3500 
L 2956 3500 
L 3675 769 
L 4391 3500 
L 4966 3500 
L 4050 0 
L 3372 0 
L 2619 2869 
L 1863 0 
L 1184 0 
L 269 3500 
z
" transform="scale(0.015625)"/>
      </defs>
      <use xlink:href="#DejaVuSans-37"/>
      <use xlink:href="#DejaVuSans-30" transform="translate(63.623047 0)"/>
      <use xlink:href="#DejaVuSans-20" transform="translate(127.246094 0)"/>
      <use xlink:href="#DejaVuSans-28" transform="translate(159.033203 0)"/>
      <use xlink:href="#DejaVuSans-35" transform="translate(198.046875 0)"/>
      <use xlink:href="#DejaVuSans-25" transform="translate(261.669922 0)"/>
      <use xlink:href="#DejaVuSans-20" transform="translate(356.689453 0)"/>
      <use xlink:href="#DejaVuSans-77" transform="translate(388.476562 0)"/>
      <use xlink:href="#DejaVuSans-6f" transform="translate(470.263672 0)"/>
      <use xlink:href="#DejaVuSans-72" transform="translate(531.445312 0)"/>
      <use xlink:href="#DejaVuSans-73" transform="translate(572.558594 0)"/>
      <use xlink:href="#DejaVuSans-74" transform="translate(624.658203 0)"/>
      <use xlink:href="#DejaVuSans-29" transform="translate(663.867188 0)"/>
     </g>
    </g>
    <g id="line2d_35">
     <path d="M 52.49 354.17125 
L 60.49 354.17125 
L 68.49 354.17125 
" style="fill: none; stroke: #ff7f0e; stroke-width: 1.5; stroke-linecap: square"/>
     <g>
      <use xlink:href="#m4d7228b559" x="60.49" y="354.17125" style="fill: #ff7f0e; stroke: #ff7f0e; stroke-linejoin: miter"/>
     </g>
    </g>
    <g id="text_17">
     <!-- 75 (mean) -->
     <g transform="translate(74.89 356.97125) scale(0.08 -0.08)">
      <use xlink:href="#DejaVuSans-37"/>
      <use xlink:href="#DejaVuSans-35" transform="translate(63.623047 0)"/>
      <use xlink:href="#DejaVuSans-20" transform="translate(127.246094 0)"/>
      <use xlink:href="#DejaVuSans-28" transform="translate(159.033203 0)"/>
      <use xlink:href="#DejaVuSans-6d" transform="translate(198.046875 0)"/>
      <use xlink:href="#DejaVuSans-65" transform="translate(295.458984 0)"/>
      <use xlink:href="#DejaVuSans-61" transform="translate(356.982422 0)"/>
      <use xlink:href="#DejaVuSans-6e" transform="translate(418.261719 0)"/>
      <use xlink:href="#DejaVuSans-29" transform="translate(481.640625 0)"/>
     </g>
    </g>
    <g id="line2d_36">
     <path d="M 52.49 365.91375 
L 60.49 365.91375 
L 68.49 365.91375 
" style="fill: none; stroke-dasharray: 5.55,2.4; stroke-dashoffset: 0; stroke: #ff7f0e; stroke-width: 1.5"/>
     <g>
      <use xlink:href="#ma700afb728" x="60.49" y="365.91375" style="fill-opacity: 0; stroke: #ff7f0e; stroke-linejoin: miter"/>
     </g>
    </g>
    <g id="text_18">
     <!-- 75 (5% worst) -->
     <g transform="translate(74.89 368.71375) scale(0.08 -0.08)">
      <use xlink:href="#DejaVuSans-37"/>
      <use xlink:href="#DejaVuSans-35" transform="translate(63.623047 0)"/>
      <use xlink:href="#DejaVuSans-20" transform="translate(127.246094 0)"/>
      <use xlink:href="#DejaVuSans-28" transform="translate(159.033203 0)"/>
      <use xlink:href="#DejaVuSans-35" transform="translate(198.046875 0)"/>
      <use xlink:href="#DejaVuSans-25" transform="translate(261.669922 0)"/>
      <use xlink:href="#DejaVuSans-20" transform="translate(356.689453 0)"/>
      <use xlink:href="#DejaVuSans-77" transform="translate(388.476562 0)"/>
      <use xlink:href="#DejaVuSans-6f" transform="translate(470.263672 0)"/>
      <use xlink:href="#DejaVuSans-72" transform="translate(531.445312 0)"/>
      <use xlink:href="#DejaVuSans-73" transform="translate(572.558594 0)"/>
      <use xlink:href="#DejaVuSans-74" transform="translate(624.658203 0)"/>
      <use xlink:href="#DejaVuSans-29" transform="translate(663.867188 0)"/>
     </g>
    </g>
    <g id="line2d_37">
     <path d="M 52.49 377.65625 
L 60.49 377.65625 
L 68.49 377.65625 
" style="fill: none; stroke: #2ca02c; stroke-width: 1.5; stroke-linecap: square"/>
     <g>
      <use xlink:href="#me306faa953" x="60.49" y="377.65625" style="fill: #2ca02c; stroke: #2ca02c; stroke-linejoin: miter"/>
     </g>
    </g>
    <g id="text_19">
     <!-- 80 (mean) -->
     <g transform="translate(74.89 380.45625) scale(0.08 -0.08)">
      <use xlink:href="#DejaVuSans-38"/>
      <use xlink:href="#DejaVuSans-30" transform="translate(63.623047 0)"/>
      <use xlink:href="#DejaVuSans-20" transform="translate(127.246094 0)"/>
      <use xlink:href="#DejaVuSans-28" transform="translate(159.033203 0)"/>
      <use xlink:href="#DejaVuSans-6d" transform="translate(198.046875 0)"/>
      <use xlink:href="#DejaVuSans-65" transform="translate(295.458984 0)"/>
      <use xlink:href="#DejaVuSans-61" transform="translate(356.982422 0)"/>
      <use xlink:href="#DejaVuSans-6e" transform="translate(418.261719 0)"/>
      <use xlink:href="#DejaVuSans-29" transform="translate(481.640625 0)"/>
     </g>
    </g>
    <g id="line2d_38">
     <path d="M 147.11875 330.68625 
L 155.11875 330.68625 
L 163.11875 330.68625 
" style="fill: none; stroke-dasharray: 5.55,2.4; stroke-dashoffset: 0; stroke: #2ca02c; stroke-width: 1.5"/>
     <g>
      <use xlink:href="#mad10ccc926" x="155.11875" y="330.68625" style="fill-opacity: 0; stroke: #2ca02c; stroke-linejoin: miter"/>
     </g>
    </g>
    <g id="text_20">
     <!-- 80 (5% worst) -->
     <g transform="translate(169.51875 333.48625) scale(0.08 -0.08)">
      <use xlink:href="#DejaVuSans-38"/>
      <use xlink:href="#DejaVuSans-30" transform="translate(63.623047 0)"/>
      <use xlink:href="#DejaVuSans-20" transform="translate(127.246094 0)"/>
      <use xlink:href="#DejaVuSans-28" transform="translate(159.033203 0)"/>
      <use xlink:href="#DejaVuSans-35" transform="translate(198.046875 0)"/>
      <use xlink:href="#DejaVuSans-25" transform="translate(261.669922 0)"/>
      <use xlink:href="#DejaVuSans-20" transform="translate(356.689453 0)"/>
      <use xlink:href="#DejaVuSans-77" transform="translate(388.476562 0)"/>
      <use xlink:href="#DejaVuSans-6f" transform="translate(470.263672 0)"/>
      <use xlink:href="#DejaVuSans-72" transform="translate(531.445312 0)"/>
      <use xlink:href="#DejaVuSans-73" transform="translate(572.558594 0)"/>
      <use xlink:href="#DejaVuSans-74" transform="translate(624.658203 0)"/>
      <use xlink:href="#DejaVuSans-29" transform="translate(663.867188 0)"/>
     </g>
    </g>
    <g id="line2d_39">
     <path d="M 147.11875 342.42875 
L 155.11875 342.42875 
L 163.11875 342.42875 
" style="fill: none; stroke: #d62728; stroke-width: 1.5; stroke-linecap: square"/>
     <g>
      <use xlink:href="#mfa4b1bfb92" x="155.11875" y="342.42875" style="fill: #d62728; stroke: #d62728; stroke-linejoin: miter"/>
     </g>
    </g>
    <g id="text_21">
     <!-- 85 (mean) -->
     <g transform="translate(169.51875 345.22875) scale(0.08 -0.08)">
      <use xlink:href="#DejaVuSans-38"/>
      <use xlink:href="#DejaVuSans-35" transform="translate(63.623047 0)"/>
      <use xlink:href="#DejaVuSans-20" transform="translate(127.246094 0)"/>
      <use xlink:href="#DejaVuSans-28" transform="translate(159.033203 0)"/>
      <use xlink:href="#DejaVuSans-6d" transform="translate(198.046875 0)"/>
      <use xlink:href="#DejaVuSans-65" transform="translate(295.458984 0)"/>
      <use xlink:href="#DejaVuSans-61" transform="translate(356.982422 0)"/>
      <use xlink:href="#DejaVuSans-6e" transform="translate(418.261719 0)"/>
      <use xlink:href="#DejaVuSans-29" transform="translate(481.640625 0)"/>
     </g>
    </g>
    <g id="line2d_40">
     <path d="M 147.11875 354.17125 
L 155.11875 354.17125 
L 163.11875 354.17125 
" style="fill: none; stroke-dasharray: 5.55,2.4; stroke-dashoffset: 0; stroke: #d62728; stroke-width: 1.5"/>
     <g>
      <use xlink:href="#m4afb908290" x="155.11875" y="354.17125" style="fill-opacity: 0; stroke: #d62728; stroke-linejoin: miter"/>
     </g>
    </g>
    <g id="text_22">
     <!-- 85 (5% worst) -->
     <g transform="translate(169.51875 356.97125) scale(0.08 -0.08)">
      <use xlink:href="#DejaVuSans-38"/>
      <use xlink:href="#DejaVuSans-35" transform="translate(63.623047 0)"/>
      <use xlink:href="#DejaVuSans-20" transform="translate(127.246094 0)"/>
      <use xlink:href="#DejaVuSans-28" transform="translate(159.033203 0)"/>
      <use xlink:href="#DejaVuSans-35" transform="translate(198.046875 0)"/>
      <use xlink:href="#DejaVuSans-25" transform="translate(261.669922 0)"/>
      <use xlink:href="#DejaVuSans-20" transform="translate(356.689453 0)"/>
      <use xlink:href="#DejaVuSans-77" transform="translate(388.476562 0)"/>
      <use xlink:href="#DejaVuSans-6f" transform="translate(470.263672 0)"/>
      <use xlink:href="#DejaVuSans-72" transform="translate(531.445312 0)"/>
      <use xlink:href="#DejaVuSans-73" transform="translate(572.558594 0)"/>
      <use xlink:href="#DejaVuSans-74" transform="translate(624.658203 0)"/>
      <use xlink:href="#DejaVuSans-29" transform="translate(663.867188 0)"/>
     </g>
    </g>
    <g id="line2d_41">
     <path d="M 147.11875 365.91375 
L 155.11875 365.91375 
L 163.11875 365.91375 
" style="fill: none; stroke: #9467bd; stroke-width: 1.5; stroke-linecap: square"/>
     <g>
      <use xlink:href="#m873fdbb750" x="155.11875" y="365.91375" style="fill: #9467bd; stroke: #9467bd; stroke-linejoin: miter"/>
     </g>
    </g>
    <g id="text_23">
     <!-- 90 (mean) -->
     <g transform="translate(169.51875 368.71375) scale(0.08 -0.08)">
      <defs>
       <path id="DejaVuSans-39" d="M 703 97 
L 703 672 
Q 941 559 1184 500 
Q 1428 441 1663 441 
Q 2288 441 2617 861 
Q 2947 1281 2994 2138 
Q 2813 1869 2534 1725 
Q 2256 1581 1919 1581 
Q 1219 1581 811 2004 
Q 403 2428 403 3163 
Q 403 3881 828 4315 
Q 1253 4750 1959 4750 
Q 2769 4750 3195 4129 
Q 3622 3509 3622 2328 
Q 3622 1225 3098 567 
Q 2575 -91 1691 -91 
Q 1453 -91 1209 -44 
Q 966 3 703 97 
z
M 1959 2075 
Q 2384 2075 2632 2365 
Q 2881 2656 2881 3163 
Q 2881 3666 2632 3958 
Q 2384 4250 1959 4250 
Q 1534 4250 1286 3958 
Q 1038 3666 1038 3163 
Q 1038 2656 1286 2365 
Q 1534 2075 1959 2075 
z
" transform="scale(0.015625)"/>
      </defs>
      <use xlink:href="#DejaVuSans-39"/>
      <use xlink:href="#DejaVuSans-30" transform="translate(63.623047 0)"/>
      <use xlink:href="#DejaVuSans-20" transform="translate(127.246094 0)"/>
      <use xlink:href="#DejaVuSans-28" transform="translate(159.033203 0)"/>
      <use xlink:href="#DejaVuSans-6d" transform="translate(198.046875 0)"/>
      <use xlink:href="#DejaVuSans-65" transform="translate(295.458984 0)"/>
      <use xlink:href="#DejaVuSans-61" transform="translate(356.982422 0)"/>
      <use xlink:href="#DejaVuSans-6e" transform="translate(418.261719 0)"/>
      <use xlink:href="#DejaVuSans-29" transform="translate(481.640625 0)"/>
     </g>
    </g>
    <g id="line2d_42">
     <path d="M 147.11875 377.65625 
L 155.11875 377.65625 
L 163.11875 377.65625 
" style="fill: none; stroke-dasharray: 5.55,2.4; stroke-dashoffset: 0; stroke: #9467bd; stroke-width: 1.5"/>
     <g>
      <use xlink:href="#mc93de9fc3c" x="155.11875" y="377.65625" style="fill-opacity: 0; stroke: #9467bd; stroke-linejoin: miter"/>
     </g>
    </g>
    <g id="text_24">
     <!-- 90 (5% worst) -->
     <g transform="translate(169.51875 380.45625) scale(0.08 -0.08)">
      <use xlink:href="#DejaVuSans-39"/>
      <use xlink:href="#DejaVuSans-30" transform="translate(63.623047 0)"/>
      <use xlink:href="#DejaVuSans-20" transform="translate(127.246094 0)"/>
      <use xlink:href="#DejaVuSans-28" transform="translate(159.033203 0)"/>
      <use xlink:href="#DejaVuSans-35" transform="translate(198.046875 0)"/>
      <use xlink:href="#DejaVuSans-25" transform="translate(261.669922 0)"/>
      <use xlink:href="#DejaVuSans-20" transform="translate(356.689453 0)"/>
      <use xlink:href="#DejaVuSans-77" transform="translate(388.476562 0)"/>
      <use xlink:href="#DejaVuSans-6f" transform="translate(470.263672 0)"/>
      <use xlink:href="#DejaVuSans-72" transform="translate(531.445312 0)"/>
      <use xlink:href="#DejaVuSans-73" transform="translate(572.558594 0)"/>
      <use xlink:href="#DejaVuSans-74" transform="translate(624.658203 0)"/>
      <use xlink:href="#DejaVuSans-29" transform="translate(663.867188 0)"/>
     </g>
    </g>
   </g>
  </g>
 </g>
 <defs>
  <clipPath id="p4364dacf5a">
   <rect x="45.29" y="26.88" width="663.91" height="362.44"/>
  </clipPath>
 </defs>
</svg>
