<svg xmlns="http://www.w3.org/2000/svg" xmlns:xlink="http://www.w3.org/1999/xlink" width="960" height="576" viewBox="0 0 720 432"><path d="M0 432h720V0H0z" style="fill:#fff"/><path d="M67.3 389.3h641.9V27H67.3z" style="fill:#fff"/><path d="M161.3 389.3V27" clip-path="url(#a)" style="fill:none;stroke:#b0b0b0;stroke-opacity:.3;stroke-width:.8;stroke-linecap:square"/><defs><path id="b" d="M0 0v3.5" style="stroke:#000;stroke-width:.8"/></defs><use xlink:href="#b" x="161.3" y="389.3" style="stroke:#000;stroke-width:.8"/><g transform="matrix(.1 0 0 -.1 158.2 404)"><defs><path id="c" d="M1228 531h2203V0H469v531q359 372 979 998 621 627 780 809 303 340 423 576 121 236 121 464 0 372-261 606-261 235-680 235-297 0-627-103-329-103-704-313v638q381 153 712 231 332 78 607 78 725 0 1156-363 431-362 431-968 0-288-108-546-107-257-392-607-78-91-497-524-418-433-1181-1211" transform="scale(.01563)"/></defs><use xlink:href="#c"/></g><path d="M291 389.3V27" clip-path="url(#a)" style="fill:none;stroke:#b0b0b0;stroke-opacity:.3;stroke-width:.8;stroke-linecap:square"/><use xlink:href="#b" x="291" y="389.3" style="stroke:#000;stroke-width:.8"/><g transform="matrix(.1 0 0 -.1 287.8 404)"><defs><path id="d" d="M2419 4116 825 1625h1594zm-166 550h794V1625h666v-525h-666V0h-628v1100H313v609z" transform="scale(.01563)"/></defs><use xlink:href="#d"/></g><path d="M420.7 389.3V27" clip-path="url(#a)" style="fill:none;stroke:#b0b0b0;stroke-opacity:.3;stroke-width:.8;stroke-linecap:square"/><use xlink:href="#b" x="420.7" y="389.3" style="stroke:#000;stroke-width:.8"/><g transform="matrix(.1 0 0 -.1 417.5 404)"><defs><path id="e" d="M2113 2584q-425 0-674-291-248-290-248-796 0-503 248-796 249-292 674-292t673 292q248 293 248 796 0 506-248 796-248 291-673 291m1253 1979v-575q-238 112-480 171-242 60-480 60-625 0-955-422-329-422-376-1275 184 272 462 417 279 145 613 145 703 0 1111-427 408-426 408-1160 0-719-425-1154Q2819-91 2113-91q-810 0-1238 620-428 621-428 1799 0 1106 525 1764t1409 658q238 0 480-47t505-140" transform="scale(.01563)"/></defs><use xlink:href="#e"/></g><path d="M550.4 389.3V27" clip-path="url(#a)" style="fill:none;stroke:#b0b0b0;stroke-opacity:.3;stroke-width:.8;stroke-linecap:square"/><use xlink:href="#b" x="550.4" y="389.3" style="stroke:#000;stroke-width:.8"/><g transform="matrix(.1 0 0 -.1 547.2 404)"><defs><path id="f" d="M2034 2216q-450 0-708-241-257-241-257-662 0-422 257-663 258-241 708-241t709 242q260 243 260 662 0 421-258 662-257 241-711 241m-631 268q-406 100-633 378-226 279-226 679 0 559 398 884 399 325 1092 325 697 0 1094-325t397-884q0-400-227-679-226-278-629-378 456-106 710-416 255-309 255-755 0-679-414-1042Q2806-91 2034-91q-771 0-1186 362-414 363-414 1042 0 446 256 755 257 310 713 416m-231 997q0-362 226-565 227-203 636-203 407 0 636 203 230 203 230 565 0 363-230 566-229 203-636 203-409 0-636-203-226-203-226-566" transform="scale(.01563)"/></defs><use xlink:href="#f"/></g><path d="M680 389.3V27" clip-path="url(#a)" style="fill:none;stroke:#b0b0b0;stroke-opacity:.3;stroke-width:.8;stroke-linecap:square"/><use xlink:href="#b" x="680" y="389.3" style="stroke:#000;stroke-width:.8"/><g transform="matrix(.1 0 0 -.1 673.7 404)"><defs><path id="g" d="M794 531h1031v3560L703 3866v575l1116 225h631V531h1031V0H794z" transform="scale(.01563)"/><path id="h" d="M2034 4250q-487 0-733-480-245-479-245-1442 0-959 245-1439 246-480 733-480 491 0 736 480 246 480 246 1439 0 963-246 1442-245 480-736 480m0 500q785 0 1199-621 414-620 414-1801 0-1178-414-1799Q2819-91 2034-91q-784 0-1198 620-414 621-414 1799 0 1181 414 1801 414 621 1198 621" transform="scale(.01563)"/></defs><use xlink:href="#g"/><use xlink:href="#h" transform="translate(63.6)"/></g><g transform="matrix(.11 0 0 -.11 373.1 418.4)"><defs><path id="i" d="M628 4666h2950v-532H1259V2753h2222v-531H1259V531h2375V0H628z" transform="scale(.01563)"/><path id="j" d="M2375 4863v-479h-550q-309 0-430-125-120-125-120-450v-309h947v-447h-947V0H697v3053H147v447h550v244q0 584 272 851 272 268 862 268z" transform="scale(.01563)"/><path id="k" d="M1959 3097q-462 0-731-361t-269-989 267-989q268-361 733-361 460 0 728 362 269 363 269 988 0 622-269 986-268 364-728 364m0 487q750 0 1178-488 429-487 429-1349 0-859-429-1349Q2709-91 1959-91q-753 0-1180 489-426 490-426 1349 0 862 426 1349 427 488 1180 488" transform="scale(.01563)"/><path id="l" d="M2631 2963q-97 56-211 82-114 27-251 27-488 0-749-317t-261-911V0H581v3500h578v-544q182 319 472 473 291 155 707 155 59 0 131-8 72-7 159-23z" transform="scale(.01563)"/><path id="m" d="M1172 4494v-994h1184v-447H1172V1153q0-428 117-550t477-122h590V0h-590q-666 0-919 248-253 249-253 905v1900H172v447h422v994z" transform="scale(.01563)"/></defs><use xlink:href="#i"/><use xlink:href="#j" transform="translate(63.2)"/><use xlink:href="#j" transform="translate(98.4)"/><use xlink:href="#k" transform="translate(133.6)"/><use xlink:href="#l" transform="translate(194.8)"/><use xlink:href="#m" transform="translate(235.9)"/></g><path d="M67.3 387.8h641.9" clip-path="url(#a)" style="fill:none;stroke:#b0b0b0;stroke-opacity:.3;stroke-width:.8;stroke-linecap:square"/><defs><path id="n" d="M0 0h-3.5" style="stroke:#000;stroke-width:.8"/></defs><use xlink:href="#n" x="67.3" y="387.8" style="stroke:#000;stroke-width:.8"/><g transform="matrix(.1 0 0 -.1 25.3 391.6)"><defs><path id="o" d="M684 794h660V0H684z" transform="scale(.01563)"/><path id="p" d="M691 4666h2478v-532H1269V2991q137 47 274 70 138 23 276 23 781 0 1237-428 457-428 457-1159 0-753-469-1171Q2575-91 1722-91q-294 0-599 50Q819 9 494 109v635q281-153 581-228t634-75q541 0 856 284 316 284 316 772 0 487-316 771-315 285-856 285-253 0-505-56-251-56-513-175z" transform="scale(.01563)"/></defs><use xlink:href="#h"/><use xlink:href="#o" transform="translate(63.6)"/><use xlink:href="#h" transform="translate(95.4)"/><use xlink:href="#h" transform="translate(159)"/><use xlink:href="#p" transform="translate(222.7)"/><use xlink:href="#h" transform="translate(286.3)"/></g><path d="M67.3 346.7h641.9" clip-path="url(#a)" style="fill:none;stroke:#b0b0b0;stroke-opacity:.3;stroke-width:.8;stroke-linecap:square"/><use xlink:href="#n" x="67.3" y="346.7" style="stroke:#000;stroke-width:.8"/><g transform="matrix(.1 0 0 -.1 25.3 350.5)"><defs><path id="q" d="M525 4666h3000v-269L1831 0h-659l1594 4134H525z" transform="scale(.01563)"/></defs><use xlink:href="#h"/><use xlink:href="#o" transform="translate(63.6)"/><use xlink:href="#h" transform="translate(95.4)"/><use xlink:href="#h" transform="translate(159)"/><use xlink:href="#q" transform="translate(222.7)"/><use xlink:href="#p" transform="translate(286.3)"/></g><path d="M67.3 305.7h641.9" clip-path="url(#a)" style="fill:none;stroke:#b0b0b0;stroke-opacity:.3;stroke-width:.8;stroke-linecap:square"/><use xlink:href="#n" x="67.3" y="305.7" style="stroke:#000;stroke-width:.8"/><g transform="matrix(.1 0 0 -.1 25.3 309.5)"><use xlink:href="#h"/><use xlink:href="#o" transform="translate(63.6)"/><use xlink:href="#h" transform="translate(95.4)"/><use xlink:href="#g" transform="translate(159)"/><use xlink:href="#h" transform="translate(222.7)"/><use xlink:href="#h" transform="translate(286.3)"/></g><path d="M67.3 264.6h641.9" clip-path="url(#a)" style="fill:none;stroke:#b0b0b0;stroke-opacity:.3;stroke-width:.8;stroke-linecap:square"/><use xlink:href="#n" x="67.3" y="264.6" style="stroke:#000;stroke-width:.8"/><g transform="matrix(.1 0 0 -.1 25.3 268.4)"><use xlink:href="#h"/><use xlink:href="#o" transform="translate(63.6)"/><use xlink:href="#h" transform="translate(95.4)"/><use xlink:href="#g" transform="translate(159)"/><use xlink:href="#c" transform="translate(222.7)"/><use xlink:href="#p" transform="translate(286.3)"/></g><path d="M67.3 223.5h641.9" clip-path="url(#a)" style="fill:none;stroke:#b0b0b0;stroke-opacity:.3;stroke-width:.8;stroke-linecap:square"/><use xlink:href="#n" x="67.3" y="223.5" style="stroke:#000;stroke-width:.8"/><g transform="matrix(.1 0 0 -.1 25.3 227.3)"><use xlink:href="#h"/><use xlink:href="#o" transform="translate(63.6)"/><use xlink:href="#h" transform="translate(95.4)"/><use xlink:href="#g" transform="translate(159)"/><use xlink:href="#p" transform="translate(222.7)"/><use xlink:href="#h" transform="translate(286.3)"/></g><path d="M67.3 182.5h641.9" clip-path="url(#a)" style="fill:none;stroke:#b0b0b0;stroke-opacity:.3;stroke-width:.8;stroke-linecap:square"/><use xlink:href="#n" x="67.3" y="182.5" style="stroke:#000;stroke-width:.8"/><g transform="matrix(.1 0 0 -.1 25.3 186.3)"><use xlink:href="#h"/><use xlink:href="#o" transform="translate(63.6)"/><use xlink:href="#h" transform="translate(95.4)"/><use xlink:href="#g" transform="translate(159)"/><use xlink:href="#q" transform="translate(222.7)"/><use xlink:href="#p" transform="translate(286.3)"/></g><path d="M67.3 141.4h641.9" clip-path="url(#a)" style="fill:none;stroke:#b0b0b0;stroke-opacity:.3;stroke-width:.8;stroke-linecap:square"/><use xlink:href="#n" x="67.3" y="141.4" style="stroke:#000;stroke-width:.8"/><g transform="matrix(.1 0 0 -.1 25.3 145.2)"><use xlink:href="#h"/><use xlink:href="#o" transform="translate(63.6)"/><use xlink:href="#h" transform="translate(95.4)"/><use xlink:href="#c" transform="translate(159)"/><use xlink:href="#h" transform="translate(222.7)"/><use xlink:href="#h" transform="translate(286.3)"/></g><path d="M67.3 100.3h641.9" clip-path="url(#a)" style="fill:none;stroke:#b0b0b0;stroke-opacity:.3;stroke-width:.8;stroke-linecap:square"/><use xlink:href="#n" x="67.3" y="100.3" style="stroke:#000;stroke-width:.8"/><g transform="matrix(.1 0 0 -.1 25.3 104.1)"><use xlink:href="#h"/><use xlink:href="#o" transform="translate(63.6)"/><use xlink:href="#h" transform="translate(95.4)"/><use xlink:href="#c" transform="translate(159)"/><use xlink:href="#c" transform="translate(222.7)"/><use xlink:href="#p" transform="translate(286.3)"/></g><path d="M67.3 59.3h641.9" clip-path="url(#a)" style="fill:none;stroke:#b0b0b0;stroke-opacity:.3;stroke-width:.8;stroke-linecap:square"/><use xlink:href="#n" x="67.3" y="59.3" style="stroke:#000;stroke-width:.8"/><g transform="matrix(.1 0 0 -.1 25.3 63)"><use xlink:href="#h"/><use xlink:href="#o" transform="translate(63.6)"/><use xlink:href="#h" transform="translate(95.4)"/><use xlink:href="#c" transform="translate(159)"/><use xlink:href="#p" transform="translate(222.7)"/><use xlink:href="#h" transform="translate(286.3)"/></g><g transform="matrix(0 -.11 -.11 0 19 335.2)"><defs><path id="r" d="M1259 2228V519h1013q509 0 754 211 246 211 246 645 0 438-246 645-245 208-754 208zm0 1919V2741h935q462 0 688 173 227 174 227 530 0 353-227 528-226 175-688 175zm-631 519h1613q722 0 1112-300 391-300 391-853 0-429-200-682t-588-315q466-100 724-418 258-317 258-792 0-625-425-966Q3088 0 2303 0H628z" transform="scale(.01563)"/><path id="s" d="M603 3500h575V0H603zm0 1363h575v-729H603z" transform="scale(.01563)"/><path id="t" d="M2834 3397v-544q-243 125-506 187-262 63-544 63-428 0-642-131t-214-394q0-200 153-314t616-217l197-44q612-131 870-370t258-667q0-488-386-773Q2250-91 1575-91q-281 0-586 55T347 128v594q319-166 628-249 309-82 613-82 406 0 624 139 219 139 219 392 0 234-158 359-157 125-692 241l-200 47q-534 112-772 345-237 233-237 639 0 494 350 762 350 269 994 269 318 0 599-47 282-46 519-140" transform="scale(.01563)"/><path id="u" d="M1259 4147V2394h794q441 0 681 228 241 228 241 650 0 419-241 647-240 228-681 228zm-631 519h1425q785 0 1186-355 402-355 402-1039 0-691-402-1044-401-353-1186-353h-794V0H628z" transform="scale(.01563)"/><path id="v" d="M3597 1894v-281H953q38-594 358-905t892-311q331 0 642 81t618 244V178Q3153 47 2828-22t-659-69q-838 0-1327 487-489 488-489 1320 0 859 464 1363 464 505 1252 505 706 0 1117-455 411-454 411-1235m-575 169q-6 471-264 752-258 282-683 282-481 0-770-272t-333-766z" transform="scale(.01563)"/><path id="w" d="M3425 4513v-616q-359 172-678 256-319 85-616 85-515 0-795-200t-280-569q0-310 186-468 186-157 705-254l381-78q706-135 1042-474t336-907q0-679-455-1029Q2797-91 1919-91q-331 0-705 75-373 75-773 222v650q384-215 753-325 369-109 725-109 540 0 834 212 294 213 294 607 0 343-211 537t-692 291l-385 75q-706 140-1022 440-315 300-315 835 0 619 436 975t1201 356q329 0 669-60 341-59 697-177" transform="scale(.01563)"/><path id="x" d="M3328 2828q216 388 516 572t706 184q547 0 844-383 297-382 297-1088V0h-578v2094q0 503-179 746-178 244-543 244-447 0-707-297-259-296-259-809V0h-578v2094q0 506-178 748t-550 242q-441 0-701-298-259-298-259-808V0H581v3500h578v-544q197 322 472 475t653 153q382 0 649-194 267-193 395-562" transform="scale(.01563)"/><path id="y" d="M544 1381v2119h575V1403q0-497 193-746 194-248 582-248 465 0 735 297 271 297 271 810v1984h575V0h-575v538q-209-319-486-474-276-155-642-155-603 0-916 375-312 375-312 1097m1447 2203" transform="scale(.01563)"/><path id="z" d="M603 4863h575V0H603z" transform="scale(.01563)"/><path id="A" d="M2194 1759q-697 0-966-159t-269-544q0-306 202-486 202-179 548-179 479 0 768 339t289 901v128zm1147 238V0h-575v531q-197-318-491-470T1556-91q-537 0-855 302-317 302-317 808 0 590 395 890 396 300 1180 300h807v57q0 397-261 614t-733 217q-300 0-585-72-284-72-546-216v532q315 122 612 182 297 61 578 61 760 0 1135-394 375-393 375-1193" transform="scale(.01563)"/><path id="B" d="M3122 3366v-538q-244 135-489 202t-495 67q-560 0-870-355-309-354-309-995t309-996q310-354 870-354 250 0 495 67t489 202V134Q2881 22 2623-34q-257-57-548-57-791 0-1257 497-465 497-465 1341 0 856 470 1346 471 491 1290 491 265 0 518-55 253-54 491-163" transform="scale(.01563)"/><path id="C" d="M3513 3500 2247 1797 3578 0h-678L1881 1375 863 0H184l1360 1831L300 3500h678l928-1247 928 1247z" transform="scale(.01563)"/><path id="D" d="M1984 4856q-418-718-622-1422-203-703-203-1425 0-721 205-1429t620-1424h-500Q1016-109 783 600T550 2009q0 697 231 1403 232 707 703 1444z" transform="scale(.01563)"/><path id="E" d="M269 3500h575l719-2731 715 2731h678l719-2731 716 2731h575L4050 0h-678l-753 2869L1863 0h-679z" transform="scale(.01563)"/><path id="F" d="M3116 1747q0 634-261 995t-717 361q-457 0-718-361t-261-995 261-995 718-361q456 0 717 361t261 995M1159 2969q182 312 458 463 277 152 661 152 638 0 1036-506 399-506 399-1331T3314 415Q2916-91 2278-91q-384 0-661 152-276 152-458 464V0H581v4863h578z" transform="scale(.01563)"/><path id="G" d="M513 4856h500q468-737 701-1444 233-706 233-1403 0-700-233-1409T1013-844H513q415 716 620 1424t205 1429q0 722-205 1425-205 704-620 1422" transform="scale(.01563)"/></defs><use xlink:href="#r"/><use xlink:href="#s" transform="translate(68.6)"/><use xlink:href="#m" transform="translate(96.4)"/><use xlink:href="#t" transform="translate(135.6)"/><use xlink:href="#u" transform="translate(219.5)"/><use xlink:href="#v" transform="translate(276.2)"/><use xlink:href="#l" transform="translate(337.7)"/><use xlink:href="#w" transform="translate(410.6)"/><use xlink:href="#t" transform="translate(474)"/><use xlink:href="#s" transform="translate(526.2)"/><use xlink:href="#x" transform="translate(554)"/><use xlink:href="#y" transform="translate(651.4)"/><use xlink:href="#z" transform="translate(714.7)"/><use xlink:href="#A" transform="translate(742.5)"/><use xlink:href="#B" transform="translate(803.8)"/><use xlink:href="#l" transform="translate(858.8)"/><use xlink:href="#A" transform="translate(899.9)"/><use xlink:href="#c" transform="translate(961.2)"/><use xlink:href="#u" transform="translate(1056.6)"/><use xlink:href="#v" transform="translate(1113.3)"/><use xlink:href="#l" transform="translate(1174.8)"/><use xlink:href="#u" transform="translate(1247.7)"/><use xlink:href="#s" transform="translate(1305.7)"/><use xlink:href="#C" transform="translate(1333.5)"/><use xlink:href="#v" transform="translate(1389.6)"/><use xlink:href="#z" transform="translate(1451.1)"/><use xlink:href="#D" transform="translate(1510.7)"/><use xlink:href="#z" transform="translate(1549.7)"/><use xlink:href="#k" transform="translate(1577.5)"/><use xlink:href="#E" transform="translate(1638.6)"/><use xlink:href="#v" transform="translate(1720.4)"/><use xlink:href="#l" transform="translate(1782)"/><use xlink:href="#s" transform="translate(1854.9)"/><use xlink:href="#t" transform="translate(1882.6)"/><use xlink:href="#F" transform="translate(1966.5)"/><use xlink:href="#v" transform="translate(2030)"/><use xlink:href="#m" transform="translate(2091.5)"/><use xlink:href="#m" transform="translate(2130.7)"/><use xlink:href="#v" transform="translate(2170)"/><use xlink:href="#l" transform="translate(2231.5)"/><use xlink:href="#G" transform="translate(2272.6)"/></g><path d="M96.5 341.2h64.8l64.9 13.1 64.8-2.5 65 14.2 64.8 4.3 64.8-.3 64.9 2.7h64.8l64.8.1" clip-path="url(#a)" style="fill:none;stroke:#1f77b4;stroke-width:1.5;stroke-linecap:square"/><defs><path id="H" d="M0 3.5a3.5 3.5 0 1 0 0-7 3.5 3.5 0 0 0 0 7z" style="stroke:#1f77b4"/></defs><g clip-path="url(#a)"><use xlink:href="#H" x="96.5" y="341.2" style="fill:#1f77b4;stroke:#1f77b4"/><use xlink:href="#H" x="161.3" y="341.2" style="fill:#1f77b4;stroke:#1f77b4"/><use xlink:href="#H" x="226.2" y="354.3" style="fill:#1f77b4;stroke:#1f77b4"/><use xlink:href="#H" x="291" y="351.8" style="fill:#1f77b4;stroke:#1f77b4"/><use xlink:href="#H" x="355.9" y="366" style="fill:#1f77b4;stroke:#1f77b4"/><use xlink:href="#H" x="420.7" y="370.3" style="fill:#1f77b4;stroke:#1f77b4"/><use xlink:href="#H" x="485.5" y="370" style="fill:#1f77b4;stroke:#1f77b4"/><use xlink:href="#H" x="550.4" y="372.7" style="fill:#1f77b4;stroke:#1f77b4"/><use xlink:href="#H" x="615.2" y="372.6" style="fill:#1f77b4;stroke:#1f77b4"/><use xlink:href="#H" x="680" y="372.8" style="fill:#1f77b4;stroke:#1f77b4"/></g><path d="M96.5 290h64.8l64.9 17.4 64.8-1.2 64.9 16.2 64.8 7.5 64.8-.5 64.9 3h64.8l64.8.3" clip-path="url(#a)" style="fill:none;stroke-dasharray:5.55,2.4;stroke-dashoffset:0;stroke:#1f77b4;stroke-width:1.5"/><defs><path id="I" d="M0 3.5a3.5 3.5 0 1 0 0-7 3.5 3.5 0 0 0 0 7z" style="stroke:#1f77b4"/></defs><g clip-path="url(#a)"><use xlink:href="#I" x="96.5" y="290" style="fill-opacity:0;stroke:#1f77b4"/><use xlink:href="#I" x="161.3" y="290" style="fill-opacity:0;stroke:#1f77b4"/><use xlink:href="#I" x="226.2" y="307.4" style="fill-opacity:0;stroke:#1f77b4"/><use xlink:href="#I" x="291" y="306.2" style="fill-opacity:0;stroke:#1f77b4"/><use xlink:href="#I" x="355.9" y="322.4" style="fill-opacity:0;stroke:#1f77b4"/><use xlink:href="#I" x="420.7" y="329.9" style="fill-opacity:0;stroke:#1f77b4"/><use xlink:href="#I" x="485.5" y="329.4" style="fill-opacity:0;stroke:#1f77b4"/><use xlink:href="#I" x="550.4" y="332.4" style="fill-opacity:0;stroke:#1f77b4"/><use xlink:href="#I" x="615.2" y="332.5" style="fill-opacity:0;stroke:#1f77b4"/><use xlink:href="#I" x="680" y="332.7" style="fill-opacity:0;stroke:#1f77b4"/></g><path d="M96.5 333.7h64.8l64.9 13 64.8-3 64.9 17 64.8 3.4 64.8-.3 64.9 4 64.8-.3 64.8.6" clip-path="url(#a)" style="fill:none;stroke:#ff7f0e;stroke-width:1.5;stroke-linecap:square"/><defs><path id="J" d="M-3.5 3.5h7v-7h-7z" style="stroke:#ff7f0e;stroke-linejoin:miter"/></defs><g clip-path="url(#a)"><use xlink:href="#J" x="96.5" y="333.7" style="fill:#ff7f0e;stroke:#ff7f0e;stroke-linejoin:miter"/><use xlink:href="#J" x="161.3" y="333.7" style="fill:#ff7f0e;stroke:#ff7f0e;stroke-linejoin:miter"/><use xlink:href="#J" x="226.2" y="346.6" style="fill:#ff7f0e;stroke:#ff7f0e;stroke-linejoin:miter"/><use xlink:href="#J" x="291" y="343.8" style="fill:#ff7f0e;stroke:#ff7f0e;stroke-linejoin:miter"/><use xlink:href="#J" x="355.9" y="360.8" style="fill:#ff7f0e;stroke:#ff7f0e;stroke-linejoin:miter"/><use xlink:href="#J" x="420.7" y="364.1" style="fill:#ff7f0e;stroke:#ff7f0e;stroke-linejoin:miter"/><use xlink:href="#J" x="485.5" y="363.8" style="fill:#ff7f0e;stroke:#ff7f0e;stroke-linejoin:miter"/><use xlink:href="#J" x="550.4" y="367.9" style="fill:#ff7f0e;stroke:#ff7f0e;stroke-linejoin:miter"/><use xlink:href="#J" x="615.2" y="367.5" style="fill:#ff7f0e;stroke:#ff7f0e;stroke-linejoin:miter"/><use xlink:href="#J" x="680" y="368.1" style="fill:#ff7f0e;stroke:#ff7f0e;stroke-linejoin:miter"/></g><path d="M96.5 278.6h64.8l64.9 17.9 64.8-2 65 21.5 64.8 5.5h64.8l64.9 5 64.8-.2 64.8.6" clip-path="url(#a)" style="fill:none;stroke-dasharray:5.55,2.4;stroke-dashoffset:0;stroke:#ff7f0e;stroke-width:1.5"/><defs><path id="K" d="M-3.5 3.5h7v-7h-7z" style="stroke:#ff7f0e;stroke-linejoin:miter"/></defs><g clip-path="url(#a)"><use xlink:href="#K" x="96.5" y="278.6" style="fill-opacity:0;stroke:#ff7f0e;stroke-linejoin:miter"/><use xlink:href="#K" x="161.3" y="278.6" style="fill-opacity:0;stroke:#ff7f0e;stroke-linejoin:miter"/><use xlink:href="#K" x="226.2" y="296.5" style="fill-opacity:0;stroke:#ff7f0e;stroke-linejoin:miter"/><use xlink:href="#K" x="291" y="294.6" style="fill-opacity:0;stroke:#ff7f0e;stroke-linejoin:miter"/><use xlink:href="#K" x="355.9" y="316" style="fill-opacity:0;stroke:#ff7f0e;stroke-linejoin:miter"/><use xlink:href="#K" x="420.7" y="321.5" style="fill-opacity:0;stroke:#ff7f0e;stroke-linejoin:miter"/><use xlink:href="#K" x="485.5" y="321.5" style="fill-opacity:0;stroke:#ff7f0e;stroke-linejoin:miter"/><use xlink:href="#K" x="550.4" y="326.6" style="fill-opacity:0;stroke:#ff7f0e;stroke-linejoin:miter"/><use xlink:href="#K" x="615.2" y="326.3" style="fill-opacity:0;stroke:#ff7f0e;stroke-linejoin:miter"/><use xlink:href="#K" x="680" y="326.9" style="fill-opacity:0;stroke:#ff7f0e;stroke-linejoin:miter"/></g><path d="M96.5 321.7h64.8l64.9 12.8 64.8-2.8 64.9 23.6 64.8-1.9 64.8-.3 64.9 4.8 64.8-1.2 64.8 1.5" clip-path="url(#a)" style="fill:none;stroke:#2ca02c;stroke-width:1.5;stroke-linecap:square"/><defs><path id="L" d="m0-3.5-3.5 7h7z" style="stroke:#2ca02c;stroke-linejoin:miter"/></defs><g clip-path="url(#a)"><use xlink:href="#L" x="96.5" y="321.7" style="fill:#2ca02c;stroke:#2ca02c;stroke-linejoin:miter"/><use xlink:href="#L" x="161.3" y="321.7" style="fill:#2ca02c;stroke:#2ca02c;stroke-linejoin:miter"/><use xlink:href="#L" x="226.2" y="334.5" style="fill:#2ca02c;stroke:#2ca02c;stroke-linejoin:miter"/><use xlink:href="#L" x="291" y="331.7" style="fill:#2ca02c;stroke:#2ca02c;stroke-linejoin:miter"/><use xlink:href="#L" x="355.9" y="355.3" style="fill:#2ca02c;stroke:#2ca02c;stroke-linejoin:miter"/><use xlink:href="#L" x="420.7" y="353.4" style="fill:#2ca02c;stroke:#2ca02c;stroke-linejoin:miter"/><use xlink:href="#L" x="485.5" y="353.1" style="fill:#2ca02c;stroke:#2ca02c;stroke-linejoin:miter"/><use xlink:href="#L" x="550.4" y="357.9" style="fill:#2ca02c;stroke:#2ca02c;stroke-linejoin:miter"/><use xlink:href="#L" x="615.2" y="356.7" style="fill:#2ca02c;stroke:#2ca02c;stroke-linejoin:miter"/><use xlink:href="#L" x="680" y="358.2" style="fill:#2ca02c;stroke:#2ca02c;stroke-linejoin:miter"/></g><path d="M96.5 261h64.8l64.9 18.2 64.8-2 64.9 32.3 64.8-2.8 64.8-.5 64.9 6.3 64.8-1.2 64.8 1.6" clip-path="url(#a)" style="fill:none;stroke-dasharray:5.55,2.4;stroke-dashoffset:0;stroke:#2ca02c;stroke-width:1.5"/><defs><path id="M" d="m0-3.5-3.5 7h7z" style="stroke:#2ca02c;stroke-linejoin:miter"/></defs><g clip-path="url(#a)"><use xlink:href="#M" x="96.5" y="261.1" style="fill-opacity:0;stroke:#2ca02c;stroke-linejoin:miter"/><use xlink:href="#M" x="161.3" y="261.1" style="fill-opacity:0;stroke:#2ca02c;stroke-linejoin:miter"/><use xlink:href="#M" x="226.2" y="279.2" style="fill-opacity:0;stroke:#2ca02c;stroke-linejoin:miter"/><use xlink:href="#M" x="291" y="277.3" style="fill-opacity:0;stroke:#2ca02c;stroke-linejoin:miter"/><use xlink:href="#M" x="355.9" y="309.5" style="fill-opacity:0;stroke:#2ca02c;stroke-linejoin:miter"/><use xlink:href="#M" x="420.7" y="306.7" style="fill-opacity:0;stroke:#2ca02c;stroke-linejoin:miter"/><use xlink:href="#M" x="485.5" y="306.2" style="fill-opacity:0;stroke:#2ca02c;stroke-linejoin:miter"/><use xlink:href="#M" x="550.4" y="312.5" style="fill-opacity:0;stroke:#2ca02c;stroke-linejoin:miter"/><use xlink:href="#M" x="615.2" y="311.3" style="fill-opacity:0;stroke:#2ca02c;stroke-linejoin:miter"/><use xlink:href="#M" x="680" y="312.9" style="fill-opacity:0;stroke:#2ca02c;stroke-linejoin:miter"/></g><path d="M96.5 301.2h64.8l64.9 13.2 64.8-2.7 64.9 23.8 64.8-2 64.8.3 64.9 7.2 64.8.4H680" clip-path="url(#a)" style="fill:none;stroke:#d62728;stroke-width:1.5;stroke-linecap:square"/><defs><path id="N" d="m0 5 5-5-5-5-5 5z" style="stroke:#d62728;stroke-linejoin:miter"/></defs><g clip-path="url(#a)"><use xlink:href="#N" x="96.5" y="301.2" style="fill:#d62728;stroke:#d62728;stroke-linejoin:miter"/><use xlink:href="#N" x="161.3" y="301.2" style="fill:#d62728;stroke:#d62728;stroke-linejoin:miter"/><use xlink:href="#N" x="226.2" y="314.4" style="fill:#d62728;stroke:#d62728;stroke-linejoin:miter"/><use xlink:href="#N" x="291" y="311.7" style="fill:#d62728;stroke:#d62728;stroke-linejoin:miter"/><use xlink:href="#N" x="355.9" y="335.5" style="fill:#d62728;stroke:#d62728;stroke-linejoin:miter"/><use xlink:href="#N" x="420.7" y="333.5" style="fill:#d62728;stroke:#d62728;stroke-linejoin:miter"/><use xlink:href="#N" x="485.5" y="333.8" style="fill:#d62728;stroke:#d62728;stroke-linejoin:miter"/><use xlink:href="#N" x="550.4" y="341" style="fill:#d62728;stroke:#d62728;stroke-linejoin:miter"/><use xlink:href="#N" x="615.2" y="341.4" style="fill:#d62728;stroke:#d62728;stroke-linejoin:miter"/><use xlink:href="#N" x="680" y="341.3" style="fill:#d62728;stroke:#d62728;stroke-linejoin:miter"/></g><path d="M96.5 229.8h64.8l64.9 19.7 64.8-2.2 64.9 33.5 64.8-2.6 64.8.7 64.9 8.9 64.8.4H680" clip-path="url(#a)" style="fill:none;stroke-dasharray:5.55,2.4;stroke-dashoffset:0;stroke:#d62728;stroke-width:1.5"/><defs><path id="O" d="m0 5 5-5-5-5-5 5z" style="stroke:#d62728;stroke-linejoin:miter"/></defs><g clip-path="url(#a)"><use xlink:href="#O" x="96.5" y="229.8" style="fill-opacity:0;stroke:#d62728;stroke-linejoin:miter"/><use xlink:href="#O" x="161.3" y="229.8" style="fill-opacity:0;stroke:#d62728;stroke-linejoin:miter"/><use xlink:href="#O" x="226.2" y="249.5" style="fill-opacity:0;stroke:#d62728;stroke-linejoin:miter"/><use xlink:href="#O" x="291" y="247.3" style="fill-opacity:0;stroke:#d62728;stroke-linejoin:miter"/><use xlink:href="#O" x="355.9" y="280.8" style="fill-opacity:0;stroke:#d62728;stroke-linejoin:miter"/><use xlink:href="#O" x="420.7" y="278.2" style="fill-opacity:0;stroke:#d62728;stroke-linejoin:miter"/><use xlink:href="#O" x="485.5" y="278.9" style="fill-opacity:0;stroke:#d62728;stroke-linejoin:miter"/><use xlink:href="#O" x="550.4" y="287.8" style="fill-opacity:0;stroke:#d62728;stroke-linejoin:miter"/><use xlink:href="#O" x="615.2" y="288.2" style="fill-opacity:0;stroke:#d62728;stroke-linejoin:miter"/><use xlink:href="#O" x="680" y="288.3" style="fill-opacity:0;stroke:#d62728;stroke-linejoin:miter"/></g><path d="M96.5 270.8h64.8l64.9 14.6 64.8-2.8 65 12.4 64.8-1.6 64.8-.4 64.9 9 64.8.3 64.8.2" clip-path="url(#a)" style="fill:none;stroke:#9467bd;stroke-width:1.5;stroke-linecap:square"/><defs><path id="P" d="m0 3.5 3.5-7h-7z" style="stroke:#9467bd;stroke-linejoin:miter"/></defs><g clip-path="url(#a)"><use xlink:href="#P" x="96.5" y="270.8" style="fill:#9467bd;stroke:#9467bd;stroke-linejoin:miter"/><use xlink:href="#P" x="161.3" y="270.8" style="fill:#9467bd;stroke:#9467bd;stroke-linejoin:miter"/><use xlink:href="#P" x="226.2" y="285.4" style="fill:#9467bd;stroke:#9467bd;stroke-linejoin:miter"/><use xlink:href="#P" x="291" y="282.6" style="fill:#9467bd;stroke:#9467bd;stroke-linejoin:miter"/><use xlink:href="#P" x="355.9" y="295" style="fill:#9467bd;stroke:#9467bd;stroke-linejoin:miter"/><use xlink:href="#P" x="420.7" y="293.4" style="fill:#9467bd;stroke:#9467bd;stroke-linejoin:miter"/><use xlink:href="#P" x="485.5" y="293" style="fill:#9467bd;stroke:#9467bd;stroke-linejoin:miter"/><use xlink:href="#P" x="550.4" y="302.1" style="fill:#9467bd;stroke:#9467bd;stroke-linejoin:miter"/><use xlink:href="#P" x="615.2" y="302.3" style="fill:#9467bd;stroke:#9467bd;stroke-linejoin:miter"/><use xlink:href="#P" x="680" y="302.5" style="fill:#9467bd;stroke:#9467bd;stroke-linejoin:miter"/></g><path d="M96.5 184.7h64.8l64.9 22.4 64.8-2 64.9 16.7 64.8-1.2 64.8-1.4 64.9 11.2h64.8l64.8.7" clip-path="url(#a)" style="fill:none;stroke-dasharray:5.55,2.4;stroke-dashoffset:0;stroke:#9467bd;stroke-width:1.5"/><defs><path id="Q" d="m0 3.5 3.5-7h-7z" style="stroke:#9467bd;stroke-linejoin:miter"/></defs><g clip-path="url(#a)"><use xlink:href="#Q" x="96.5" y="184.7" style="fill-opacity:0;stroke:#9467bd;stroke-linejoin:miter"/><use xlink:href="#Q" x="161.3" y="184.7" style="fill-opacity:0;stroke:#9467bd;stroke-linejoin:miter"/><use xlink:href="#Q" x="226.2" y="207.1" style="fill-opacity:0;stroke:#9467bd;stroke-linejoin:miter"/><use xlink:href="#Q" x="291" y="205.1" style="fill-opacity:0;stroke:#9467bd;stroke-linejoin:miter"/><use xlink:href="#Q" x="355.9" y="221.8" style="fill-opacity:0;stroke:#9467bd;stroke-linejoin:miter"/><use xlink:href="#Q" x="420.7" y="220.6" style="fill-opacity:0;stroke:#9467bd;stroke-linejoin:miter"/><use xlink:href="#Q" x="485.5" y="219.2" style="fill-opacity:0;stroke:#9467bd;stroke-linejoin:miter"/><use xlink:href="#Q" x="550.4" y="230.4" style="fill-opacity:0;stroke:#9467bd;stroke-linejoin:miter"/><use xlink:href="#Q" x="615.2" y="230.4" style="fill-opacity:0;stroke:#9467bd;stroke-linejoin:miter"/><use xlink:href="#Q" x="680" y="231.1" style="fill-opacity:0;stroke:#9467bd;stroke-linejoin:miter"/></g><path d="M96.5 169.6h64.8l64.9 19 64.8-2.4 64.9 10 64.8-.9 64.8-1 64.9 7.3 64.8-.1 64.8 1" clip-path="url(#a)" style="fill:none;stroke:#8c564b;stroke-width:1.5;stroke-linecap:square"/><defs><path id="R" d="m-3.5 0 7 3.5v-7z" style="stroke:#8c564b;stroke-linejoin:miter"/></defs><g clip-path="url(#a)"><use xlink:href="#R" x="96.5" y="169.6" style="fill:#8c564b;stroke:#8c564b;stroke-linejoin:miter"/><use xlink:href="#R" x="161.3" y="169.6" style="fill:#8c564b;stroke:#8c564b;stroke-linejoin:miter"/><use xlink:href="#R" x="226.2" y="188.6" style="fill:#8c564b;stroke:#8c564b;stroke-linejoin:miter"/><use xlink:href="#R" x="291" y="186.2" style="fill:#8c564b;stroke:#8c564b;stroke-linejoin:miter"/><use xlink:href="#R" x="355.9" y="196.2" style="fill:#8c564b;stroke:#8c564b;stroke-linejoin:miter"/><use xlink:href="#R" x="420.7" y="195.3" style="fill:#8c564b;stroke:#8c564b;stroke-linejoin:miter"/><use xlink:href="#R" x="485.5" y="194.3" style="fill:#8c564b;stroke:#8c564b;stroke-linejoin:miter"/><use xlink:href="#R" x="550.4" y="201.6" style="fill:#8c564b;stroke:#8c564b;stroke-linejoin:miter"/><use xlink:href="#R" x="615.2" y="201.5" style="fill:#8c564b;stroke:#8c564b;stroke-linejoin:miter"/><use xlink:href="#R" x="680" y="202.5" style="fill:#8c564b;stroke:#8c564b;stroke-linejoin:miter"/></g><path d="M96.5 43.4h64.8l64.9 27.2 64.8-2.2 65 13.7 64.8.2 64.8-3.3 64.9 6.5 64.8-.6 64.8 2.4" clip-path="url(#a)" style="fill:none;stroke-dasharray:5.55,2.4;stroke-dashoffset:0;stroke:#8c564b;stroke-width:1.5"/><defs><path id="S" d="m-3.5 0 7 3.5v-7z" style="stroke:#8c564b;stroke-linejoin:miter"/></defs><g clip-path="url(#a)"><use xlink:href="#S" x="96.5" y="43.4" style="fill-opacity:0;stroke:#8c564b;stroke-linejoin:miter"/><use xlink:href="#S" x="161.3" y="43.4" style="fill-opacity:0;stroke:#8c564b;stroke-linejoin:miter"/><use xlink:href="#S" x="226.2" y="70.6" style="fill-opacity:0;stroke:#8c564b;stroke-linejoin:miter"/><use xlink:href="#S" x="291" y="68.4" style="fill-opacity:0;stroke:#8c564b;stroke-linejoin:miter"/><use xlink:href="#S" x="355.9" y="82.1" style="fill-opacity:0;stroke:#8c564b;stroke-linejoin:miter"/><use xlink:href="#S" x="420.7" y="82.3" style="fill-opacity:0;stroke:#8c564b;stroke-linejoin:miter"/><use xlink:href="#S" x="485.5" y="79" style="fill-opacity:0;stroke:#8c564b;stroke-linejoin:miter"/><use xlink:href="#S" x="550.4" y="85.5" style="fill-opacity:0;stroke:#8c564b;stroke-linejoin:miter"/><use xlink:href="#S" x="615.2" y="84.9" style="fill-opacity:0;stroke:#8c564b;stroke-linejoin:miter"/><use xlink:href="#S" x="680" y="87.3" style="fill-opacity:0;stroke:#8c564b;stroke-linejoin:miter"/></g><path d="M67.3 389.3V27m641.9 362.3V27M67.3 389.3h641.9M67.3 26.9h641.9" style="fill:none;stroke:#000;stroke-width:.8;stroke-linejoin:miter;stroke-linecap:square"/><g transform="matrix(.12 0 0 -.12 272.5 20.9)"><defs><path id="T" d="M191 3500h609L1894 563l1094 2937h609L2284 0h-781z" transform="scale(.01563)"/></defs><use xlink:href="#r"/><use xlink:href="#s" transform="translate(68.6)"/><use xlink:href="#m" transform="translate(96.4)"/><use xlink:href="#t" transform="translate(135.6)"/><use xlink:href="#u" transform="translate(219.5)"/><use xlink:href="#v" transform="translate(276.2)"/><use xlink:href="#l" transform="translate(337.7)"/><use xlink:href="#w" transform="translate(410.6)"/><use xlink:href="#t" transform="translate(474)"/><use xlink:href="#s" transform="translate(526.2)"/><use xlink:href="#x" transform="translate(554)"/><use xlink:href="#y" transform="translate(651.4)"/><use xlink:href="#z" transform="translate(714.7)"/><use xlink:href="#A" transform="translate(742.5)"/><use xlink:href="#B" transform="translate(803.8)"/><use xlink:href="#l" transform="translate(858.8)"/><use xlink:href="#A" transform="translate(899.9)"/><use xlink:href="#c" transform="translate(961.2)"/><use xlink:href="#u" transform="translate(1056.6)"/><use xlink:href="#v" transform="translate(1113.3)"/><use xlink:href="#l" transform="translate(1174.8)"/><use xlink:href="#u" transform="translate(1247.7)"/><use xlink:href="#s" transform="translate(1305.7)"/><use xlink:href="#C" transform="translate(1333.5)"/><use xlink:href="#v" transform="translate(1389.6)"/><use xlink:href="#z" transform="translate(1451.1)"/><use xlink:href="#T" transform="translate(1510.7)"/><use xlink:href="#t" transform="translate(1569.8)"/><use xlink:href="#i" transform="translate(1653.7)"/><use xlink:href="#j" transform="translate(1717)"/><use xlink:href="#j" transform="translate(1752.1)"/><use xlink:href="#k" transform="translate(1787.3)"/><use xlink:href="#l" transform="translate(1848.5)"/><use xlink:href="#m" transform="translate(1889.6)"/></g><path d="M300 103.7h176.5q1.6 0 1.6-1.6V32.5q0-1.6-1.6-1.6H300q-1.6 0-1.6 1.6V102q0 1.6 1.6 1.6z" style="fill:#fff;opacity:.8;stroke:#ccc;stroke-linejoin:miter"/><path d="M301.6 37.4h16" style="fill:none;stroke:#1f77b4;stroke-width:1.5;stroke-linecap:square"/><use xlink:href="#H" x="309.6" y="37.4" style="fill:#1f77b4;stroke:#1f77b4"/><g transform="matrix(.08 0 0 -.08 324 40.2)"><defs><path id="U" d="M3513 2113V0h-575v2094q0 497-194 743-194 247-581 247-466 0-735-297-269-296-269-809V0H581v3500h578v-544q207 316 486 472 280 156 646 156 603 0 912-373 310-373 310-1098" transform="scale(.01563)"/></defs><use xlink:href="#d"/><use xlink:href="#h" transform="translate(63.6)"/><use xlink:href="#D" transform="translate(159)"/><use xlink:href="#x" transform="translate(198)"/><use xlink:href="#v" transform="translate(295.5)"/><use xlink:href="#A" transform="translate(357)"/><use xlink:href="#U" transform="translate(418.3)"/><use xlink:href="#G" transform="translate(481.6)"/></g><path d="M301.6 49.1h16" style="fill:none;stroke-dasharray:5.55,2.4;stroke-dashoffset:0;stroke:#1f77b4;stroke-width:1.5"/><use xlink:href="#I" x="309.6" y="49.1" style="fill-opacity:0;stroke:#1f77b4"/><g transform="matrix(.08 0 0 -.08 324 51.9)"><defs><path id="V" d="M4653 2053q-272 0-427-231-154-231-154-644 0-406 154-639 155-233 427-233 266 0 420 233 155 233 155 639 0 410-155 642-154 233-420 233m0 397q494 0 784-344 291-343 291-928 0-584-292-927-292-342-783-342-500 0-791 342-290 343-290 927 0 588 292 930t789 342M1428 4353q-269 0-424-233-154-232-154-639 0-412 153-644 153-231 425-231t426 231q155 232 155 644 0 403-156 637-156 235-425 235m2822 397h500L1831-91h-500zm-2822 0q494 0 787-342 294-342 294-927 0-590-292-931t-789-341-786 342q-289 343-289 930 0 582 290 925 291 344 785 344" transform="scale(.01563)"/></defs><use xlink:href="#d"/><use xlink:href="#h" transform="translate(63.6)"/><use xlink:href="#D" transform="translate(159)"/><use xlink:href="#p" transform="translate(198)"/><use xlink:href="#V" transform="translate(261.7)"/><use xlink:href="#E" transform="translate(388.5)"/><use xlink:href="#k" transform="translate(470.3)"/><use xlink:href="#l" transform="translate(531.4)"/><use xlink:href="#t" transform="translate(572.6)"/><use xlink:href="#m" transform="translate(624.7)"/><use xlink:href="#G" transform="translate(663.9)"/></g><path d="M301.6 60.8h16" style="fill:none;stroke:#ff7f0e;stroke-width:1.5;stroke-linecap:square"/><use xlink:href="#J" x="309.6" y="60.8" style="fill:#ff7f0e;stroke:#ff7f0e;stroke-linejoin:miter"/><g transform="matrix(.08 0 0 -.08 324 63.6)"><use xlink:href="#p"/><use xlink:href="#h" transform="translate(63.6)"/><use xlink:href="#D" transform="translate(159)"/><use xlink:href="#x" transform="translate(198)"/><use xlink:href="#v" transform="translate(295.5)"/><use xlink:href="#A" transform="translate(357)"/><use xlink:href="#U" transform="translate(418.3)"/><use xlink:href="#G" transform="translate(481.6)"/></g><path d="M301.6 72.6h16" style="fill:none;stroke-dasharray:5.55,2.4;stroke-dashoffset:0;stroke:#ff7f0e;stroke-width:1.5"/><use xlink:href="#K" x="309.6" y="72.6" style="fill-opacity:0;stroke:#ff7f0e;stroke-linejoin:miter"/><g transform="matrix(.08 0 0 -.08 324 75.4)"><use xlink:href="#p"/><use xlink:href="#h" transform="translate(63.6)"/><use xlink:href="#D" transform="translate(159)"/><use xlink:href="#p" transform="translate(198)"/><use xlink:href="#V" transform="translate(261.7)"/><use xlink:href="#E" transform="translate(388.5)"/><use xlink:href="#k" transform="translate(470.3)"/><use xlink:href="#l" transform="translate(531.4)"/><use xlink:href="#t" transform="translate(572.6)"/><use xlink:href="#m" transform="translate(624.7)"/><use xlink:href="#G" transform="translate(663.9)"/></g><path d="M301.6 84.3h16" style="fill:none;stroke:#2ca02c;stroke-width:1.5;stroke-linecap:square"/><use xlink:href="#L" x="309.6" y="84.3" style="fill:#2ca02c;stroke:#2ca02c;stroke-linejoin:miter"/><g transform="matrix(.08 0 0 -.08 324 87.1)"><use xlink:href="#e"/><use xlink:href="#h" transform="translate(63.6)"/><use xlink:href="#D" transform="translate(159)"/><use xlink:href="#x" transform="translate(198)"/><use xlink:href="#v" transform="translate(295.5)"/><use xlink:href="#A" transform="translate(357)"/><use xlink:href="#U" transform="translate(418.3)"/><use xlink:href="#G" transform="translate(481.6)"/></g><path d="M301.6 96h16" style="fill:none;stroke-dasharray:5.55,2.4;stroke-dashoffset:0;stroke:#2ca02c;stroke-width:1.5"/><use xlink:href="#M" x="309.6" y="96.1" style="fill-opacity:0;stroke:#2ca02c;stroke-linejoin:miter"/><g transform="matrix(.08 0 0 -.08 324 98.9)"><use xlink:href="#e"/><use xlink:href="#h" transform="translate(63.6)"/><use xlink:href="#D" transform="translate(159)"/><use xlink:href="#p" transform="translate(198)"/><use xlink:href="#V" transform="translate(261.7)"/><use xlink:href="#E" transform="translate(388.5)"/><use xlink:href="#k" transform="translate(470.3)"/><use xlink:href="#l" transform="translate(531.4)"/><use xlink:href="#t" transform="translate(572.6)"/><use xlink:href="#m" transform="translate(624.7)"/><use xlink:href="#G" transform="translate(663.9)"/></g><path d="M396.3 37.4h16" style="fill:none;stroke:#d62728;stroke-width:1.5;stroke-linecap:square"/><use xlink:href="#N" x="404.3" y="37.4" style="fill:#d62728;stroke:#d62728;stroke-linejoin:miter"/><g transform="matrix(.08 0 0 -.08 418.7 40.2)"><use xlink:href="#q"/><use xlink:href="#h" transform="translate(63.6)"/><use xlink:href="#D" transform="translate(159)"/><use xlink:href="#x" transform="translate(198)"/><use xlink:href="#v" transform="translate(295.5)"/><use xlink:href="#A" transform="translate(357)"/><use xlink:href="#U" transform="translate(418.3)"/><use xlink:href="#G" transform="translate(481.6)"/></g><path d="M396.3 49.1h16" style="fill:none;stroke-dasharray:5.55,2.4;stroke-dashoffset:0;stroke:#d62728;stroke-width:1.5"/><use xlink:href="#O" x="404.3" y="49.1" style="fill-opacity:0;stroke:#d62728;stroke-linejoin:miter"/><g transform="matrix(.08 0 0 -.08 418.7 51.9)"><use xlink:href="#q"/><use xlink:href="#h" transform="translate(63.6)"/><use xlink:href="#D" transform="translate(159)"/><use xlink:href="#p" transform="translate(198)"/><use xlink:href="#V" transform="translate(261.7)"/><use xlink:href="#E" transform="translate(388.5)"/><use xlink:href="#k" transform="translate(470.3)"/><use xlink:href="#l" transform="translate(531.4)"/><use xlink:href="#t" transform="translate(572.6)"/><use xlink:href="#m" transform="translate(624.7)"/><use xlink:href="#G" transform="translate(663.9)"/></g><path d="M396.3 60.8h16" style="fill:none;stroke:#9467bd;stroke-width:1.5;stroke-linecap:square"/><use xlink:href="#P" x="404.3" y="60.8" style="fill:#9467bd;stroke:#9467bd;stroke-linejoin:miter"/><g transform="matrix(.08 0 0 -.08 418.7 63.6)"><use xlink:href="#f"/><use xlink:href="#h" transform="translate(63.6)"/><use xlink:href="#D" transform="translate(159)"/><use xlink:href="#x" transform="translate(198)"/><use xlink:href="#v" transform="translate(295.5)"/><use xlink:href="#A" transform="translate(357)"/><use xlink:href="#U" transform="translate(418.3)"/><use xlink:href="#G" transform="translate(481.6)"/></g><path d="M396.3 72.6h16" style="fill:none;stroke-dasharray:5.55,2.4;stroke-dashoffset:0;stroke:#9467bd;stroke-width:1.5"/><use xlink:href="#Q" x="404.3" y="72.6" style="fill-opacity:0;stroke:#9467bd;stroke-linejoin:miter"/><g transform="matrix(.08 0 0 -.08 418.7 75.4)"><use xlink:href="#f"/><use xlink:href="#h" transform="translate(63.6)"/><use xlink:href="#D" transform="translate(159)"/><use xlink:href="#p" transform="translate(198)"/><use xlink:href="#V" transform="translate(261.7)"/><use xlink:href="#E" transform="translate(388.5)"/><use xlink:href="#k" transform="translate(470.3)"/><use xlink:href="#l" transform="translate(531.4)"/><use xlink:href="#t" transform="translate(572.6)"/><use xlink:href="#m" transform="translate(624.7)"/><use xlink:href="#G" transform="translate(663.9)"/></g><path d="M396.3 84.3h16" style="fill:none;stroke:#8c564b;stroke-width:1.5;stroke-linecap:square"/><use xlink:href="#R" x="404.3" y="84.3" style="fill:#8c564b;stroke:#8c564b;stroke-linejoin:miter"/><g transform="matrix(.08 0 0 -.08 418.7 87.1)"><defs><path id="W" d="M703 97v575q238-113 481-172 244-59 479-59 625 0 954 420 330 420 377 1277-181-269-460-413-278-144-615-144-700 0-1108 423-408 424-408 1159 0 718 425 1152 425 435 1131 435 810 0 1236-621 427-620 427-1801 0-1103-524-1761Q2575-91 1691-91q-238 0-482 47Q966 3 703 97m1256 1978q425 0 673 290 249 291 249 798 0 503-249 795-248 292-673 292t-673-292-248-795q0-507 248-798 248-290 673-290" transform="scale(.01563)"/></defs><use xlink:href="#W"/><use xlink:href="#h" transform="translate(63.6)"/><use xlink:href="#D" transform="translate(159)"/><use xlink:href="#x" transform="translate(198)"/><use xlink:href="#v" transform="translate(295.5)"/><use xlink:href="#A" transform="translate(357)"/><use xlink:href="#U" transform="translate(418.3)"/><use xlink:href="#G" transform="translate(481.6)"/></g><path d="M396.3 96h16" style="fill:none;stroke-dasharray:5.55,2.4;stroke-dashoffset:0;stroke:#8c564b;stroke-width:1.5"/><use xlink:href="#S" x="404.3" y="96.1" style="fill-opacity:0;stroke:#8c564b;stroke-linejoin:miter"/><g transform="matrix(.08 0 0 -.08 418.7 98.9)"><use xlink:href="#W"/><use xlink:href="#h" transform="translate(63.6)"/><use xlink:href="#D" transform="translate(159)"/><use xlink:href="#p" transform="translate(198)"/><use xlink:href="#V" transform="translate(261.7)"/><use xlink:href="#E" transform="translate(388.5)"/><use xlink:href="#k" transform="translate(470.3)"/><use xlink:href="#l" transform="translate(531.4)"/><use xlink:href="#t" transform="translate(572.6)"/><use xlink:href="#m" transform="translate(624.7)"/><use xlink:href="#G" transform="translate(663.9)"/></g><defs><clipPath id="a"><path d="M67.3 26.9h641.9v362.4H67.3z"/></clipPath></defs></svg>