<svg xmlns="http://www.w3.org/2000/svg" xmlns:xlink="http://www.w3.org/1999/xlink" width="960" height="576" viewBox="0 0 720 432"><path d="M0 432h720V0H0z" style="fill:#fff"/><path d="M56.7 389.3h652.5V27H56.7z" style="fill:#fff"/><path d="M152.2 389.3V27" clip-path="url(#a)" style="fill:none;stroke:#b0b0b0;stroke-opacity:.3;stroke-width:.8;stroke-linecap:square"/><defs><path id="b" d="M0 0v3.5" style="stroke:#000;stroke-width:.8"/></defs><use xlink:href="#b" x="152.2" y="389.3" style="stroke:#000;stroke-width:.8"/><g transform="matrix(.1 0 0 -.1 149 404)"><defs><path id="c" d="M1228 531h2203V0H469v531q359 372 979 998 621 627 780 809 303 340 423 576 121 236 121 464 0 372-261 606-261 235-680 235-297 0-627-103-329-103-704-313v638q381 153 712 231 332 78 607 78 725 0 1156-363 431-362 431-968 0-288-108-546-107-257-392-607-78-91-497-524-418-433-1181-1211" transform="scale(.01563)"/></defs><use xlink:href="#c"/></g><path d="M284 389.3V27" clip-path="url(#a)" style="fill:none;stroke:#b0b0b0;stroke-opacity:.3;stroke-width:.8;stroke-linecap:square"/><use xlink:href="#b" x="284.1" y="389.3" style="stroke:#000;stroke-width:.8"/><g transform="matrix(.1 0 0 -.1 280.9 404)"><defs><path id="d" d="M2419 4116 825 1625h1594zm-166 550h794V1625h666v-525h-666V0h-628v1100H313v609z" transform="scale(.01563)"/></defs><use xlink:href="#d"/></g><path d="M415.9 389.3V27" clip-path="url(#a)" style="fill:none;stroke:#b0b0b0;stroke-opacity:.3;stroke-width:.8;stroke-linecap:square"/><use xlink:href="#b" x="415.9" y="389.3" style="stroke:#000;stroke-width:.8"/><g transform="matrix(.1 0 0 -.1 412.7 404)"><defs><path id="e" d="M2113 2584q-425 0-674-291-248-290-248-796 0-503 248-796 249-292 674-292t673 292q248 293 248 796 0 506-248 796-248 291-673 291m1253 1979v-575q-238 112-480 171-242 60-480 60-625 0-955-422-329-422-376-1275 184 272 462 417 279 145 613 145 703 0 1111-427 408-426 408-1160 0-719-425-1154Q2819-91 2113-91q-810 0-1238 620-428 621-428 1799 0 1106 525 1764t1409 658q238 0 480-47t505-140" transform="scale(.01563)"/></defs><use xlink:href="#e"/></g><path d="M547.7 389.3V27" clip-path="url(#a)" style="fill:none;stroke:#b0b0b0;stroke-opacity:.3;stroke-width:.8;stroke-linecap:square"/><use xlink:href="#b" x="547.7" y="389.3" style="stroke:#000;stroke-width:.8"/><g transform="matrix(.1 0 0 -.1 544.5 404)"><defs><path id="f" d="M2034 2216q-450 0-708-241-257-241-257-662 0-422 257-663 258-241 708-241t709 242q260 243 260 662 0 421-258 662-257 241-711 241m-631 268q-406 100-633 378-226 279-226 679 0 559 398 884 399 325 1092 325 697 0 1094-325t397-884q0-400-227-679-226-278-629-378 456-106 710-416 255-309 255-755 0-679-414-1042Q2806-91 2034-91q-771 0-1186 362-414 363-414 1042 0 446 256 755 257 310 713 416m-231 997q0-362 226-565 227-203 636-203 407 0 636 203 230 203 230 565 0 363-230 566-229 203-636 203-409 0-636-203-226-203-226-566" transform="scale(.01563)"/></defs><use xlink:href="#f"/></g><path d="M679.5 389.3V27" clip-path="url(#a)" style="fill:none;stroke:#b0b0b0;stroke-opacity:.3;stroke-width:.8;stroke-linecap:square"/><use xlink:href="#b" x="679.5" y="389.3" style="stroke:#000;stroke-width:.8"/><g transform="matrix(.1 0 0 -.1 673.2 404)"><defs><path id="g" d="M794 531h1031v3560L703 3866v575l1116 225h631V531h1031V0H794z" transform="scale(.01563)"/><path id="h" d="M2034 4250q-487 0-733-480-245-479-245-1442 0-959 245-1439 246-480 733-480 491 0 736 480 246 480 246 1439 0 963-246 1442-245 480-736 480m0 500q785 0 1199-621 414-620 414-1801 0-1178-414-1799Q2819-91 2034-91q-784 0-1198 620-414 621-414 1799 0 1181 414 1801 414 621 1198 621" transform="scale(.01563)"/></defs><use xlink:href="#g"/><use xlink:href="#h" transform="translate(63.6)"/></g><g transform="matrix(.11 0 0 -.11 367.8 418.4)"><defs><path id="i" d="M628 4666h2950v-532H1259V2753h2222v-531H1259V531h2375V0H628z" transform="scale(.01563)"/><path id="j" d="M2375 4863v-479h-550q-309 0-430-125-120-125-120-450v-309h947v-447h-947V0H697v3053H147v447h550v244q0 584 272 851 272 268 862 268z" transform="scale(.01563)"/><path id="k" d="M1959 3097q-462 0-731-361t-269-989 267-989q268-361 733-361 460 0 728 362 269 363 269 988 0 622-269 986-268 364-728 364m0 487q750 0 1178-488 429-487 429-1349 0-859-429-1349Q2709-91 1959-91q-753 0-1180 489-426 490-426 1349 0 862 426 1349 427 488 1180 488" transform="scale(.01563)"/><path id="l" d="M2631 2963q-97 56-211 82-114 27-251 27-488 0-749-317t-261-911V0H581v3500h578v-544q182 319 472 473 291 155 707 155 59 0 131-8 72-7 159-23z" transform="scale(.01563)"/><path id="m" d="M1172 4494v-994h1184v-447H1172V1153q0-428 117-550t477-122h590V0h-590q-666 0-919 248-253 249-253 905v1900H172v447h422v994z" transform="scale(.01563)"/></defs><use xlink:href="#i"/><use xlink:href="#j" transform="translate(63.2)"/><use xlink:href="#j" transform="translate(98.4)"/><use xlink:href="#k" transform="translate(133.6)"/><use xlink:href="#l" transform="translate(194.8)"/><use xlink:href="#m" transform="translate(235.9)"/></g><path d="M56.7 333h652.5" clip-path="url(#a)" style="fill:none;stroke:#b0b0b0;stroke-opacity:.3;stroke-width:.8;stroke-linecap:square"/><defs><path id="n" d="M0 0h-3.5" style="stroke:#000;stroke-width:.8"/></defs><use xlink:href="#n" x="56.7" y="332.9" style="stroke:#000;stroke-width:.8"/><g transform="matrix(.1 0 0 -.1 26.2 336.7)"><defs><path id="o" d="M678 2272h4006v-531H678z" transform="scale(.01563)"/><path id="p" d="M525 4666h3000v-269L1831 0h-659l1594 4134H525z" transform="scale(.01563)"/></defs><use xlink:href="#g" transform="translate(0 .7)"/><use xlink:href="#h" transform="translate(63.6 .7)"/><use xlink:href="#o" transform="matrix(.7 0 0 .7 128.2 39)"/><use xlink:href="#p" transform="matrix(.7 0 0 .7 186.9 39)"/></g><path d="M56.7 140.9h652.5" clip-path="url(#a)" style="fill:none;stroke:#b0b0b0;stroke-opacity:.3;stroke-width:.8;stroke-linecap:square"/><use xlink:href="#n" x="56.7" y="140.9" style="stroke:#000;stroke-width:.8"/><g transform="matrix(.1 0 0 -.1 26.2 144.7)"><use xlink:href="#g" transform="translate(0 .8)"/><use xlink:href="#h" transform="translate(63.6 .8)"/><use xlink:href="#o" transform="matrix(.7 0 0 .7 128.2 39)"/><use xlink:href="#e" transform="matrix(.7 0 0 .7 186.9 39)"/></g><defs><path id="q" d="M0 0h-2" style="stroke:#000;stroke-width:.6"/></defs><use xlink:href="#q" x="56.7" y="375.5" style="stroke:#000;stroke-width:.6"/><use xlink:href="#q" x="56.7" y="362.7" style="stroke:#000;stroke-width:.6"/><use xlink:href="#q" x="56.7" y="351.5" style="stroke:#000;stroke-width:.6"/><use xlink:href="#q" x="56.7" y="341.7" style="stroke:#000;stroke-width:.6"/><use xlink:href="#q" x="56.7" y="275.1" style="stroke:#000;stroke-width:.6"/><use xlink:href="#q" x="56.7" y="241.3" style="stroke:#000;stroke-width:.6"/><use xlink:href="#q" x="56.7" y="217.3" style="stroke:#000;stroke-width:.6"/><use xlink:href="#q" x="56.7" y="198.7" style="stroke:#000;stroke-width:.6"/><use xlink:href="#q" x="56.7" y="183.5" style="stroke:#000;stroke-width:.6"/><use xlink:href="#q" x="56.7" y="170.6" style="stroke:#000;stroke-width:.6"/><use xlink:href="#q" x="56.7" y="159.5" style="stroke:#000;stroke-width:.6"/><use xlink:href="#q" x="56.7" y="149.7" style="stroke:#000;stroke-width:.6"/><use xlink:href="#q" x="56.7" y="83.1" style="stroke:#000;stroke-width:.6"/><use xlink:href="#q" x="56.7" y="49.3" style="stroke:#000;stroke-width:.6"/><g transform="matrix(0 -.11 -.11 0 19.9 376.1)"><defs><path id="r" d="M3513 2113V0h-575v2094q0 497-194 743-194 247-581 247-466 0-735-297-269-296-269-809V0H581v3500h578v-544q207 316 486 472 280 156 646 156 603 0 912-373 310-373 310-1098" transform="scale(.01563)"/><path id="s" d="M3122 3366v-538q-244 135-489 202t-495 67q-560 0-870-355-309-354-309-995t309-996q310-354 870-354 250 0 495 67t489 202V134Q2881 22 2623-34q-257-57-548-57-791 0-1257 497-465 497-465 1341 0 856 470 1346 471 491 1290 491 265 0 518-55 253-54 491-163" transform="scale(.01563)"/><path id="t" d="M2906 2969v1894h575V0h-575v525q-181-312-458-464-276-152-664-152-634 0-1033 506-398 507-398 1332t398 1331q399 506 1033 506 388 0 664-152 277-151 458-463M947 1747q0-634 261-995t717-361 718 361q263 361 263 995t-263 995q-262 361-718 361t-717-361-261-995" transform="scale(.01563)"/><path id="u" d="M603 3500h575V0H603zm0 1363h575v-729H603z" transform="scale(.01563)"/><path id="v" d="M2906 1791q0 625-258 968-257 344-723 344-462 0-720-344-258-343-258-968 0-622 258-966t720-344q466 0 723 344 258 344 258 966m575-1357q0-893-397-1329-396-436-1215-436-303 0-572 45t-522 139v559q253-137 500-202 247-66 503-66 566 0 847 295t281 892v285q-178-310-456-463T1784 0Q1141 0 747 490 353 981 353 1791q0 812 394 1302 394 491 1037 491 388 0 666-153t456-462v531h575z" transform="scale(.01563)"/><path id="w" d="M-19 4666h3947v-532H2272V0h-634v4134H-19z" transform="scale(.01563)"/><path id="x" d="M3328 2828q216 388 516 572t706 184q547 0 844-383 297-382 297-1088V0h-578v2094q0 503-179 746-178 244-543 244-447 0-707-297-259-296-259-809V0h-578v2094q0 506-178 748t-550 242q-441 0-701-298-259-298-259-808V0H581v3500h578v-544q197 322 472 475t653 153q382 0 649-194 267-193 395-562" transform="scale(.01563)"/><path id="y" d="M3597 1894v-281H953q38-594 358-905t892-311q331 0 642 81t618 244V178Q3153 47 2828-22t-659-69q-838 0-1327 487-489 488-489 1320 0 859 464 1363 464 505 1252 505 706 0 1117-455 411-454 411-1235m-575 169q-6 471-264 752-258 282-683 282-481 0-770-272t-333-766z" transform="scale(.01563)"/><path id="z" d="M1159 525v-1856H581v4831h578v-531q182 312 458 463 277 152 661 152 638 0 1036-506 399-506 399-1331T3314 415Q2916-91 2278-91q-384 0-661 152-276 152-458 464m1957 1222q0 634-261 995t-717 361q-457 0-718-361t-261-995 261-995 718-361q456 0 717 361t261 995" transform="scale(.01563)"/><path id="A" d="M1259 4147V2394h794q441 0 681 228 241 228 241 650 0 419-241 647-240 228-681 228zm-631 519h1425q785 0 1186-355 402-355 402-1039 0-691-402-1044-401-353-1186-353h-794V0H628z" transform="scale(.01563)"/><path id="B" d="M3513 3500 2247 1797 3578 0h-678L1881 1375 863 0H184l1360 1831L300 3500h678l928-1247 928 1247z" transform="scale(.01563)"/><path id="C" d="M603 4863h575V0H603z" transform="scale(.01563)"/><path id="D" d="M1984 4856q-418-718-622-1422-203-703-203-1425 0-721 205-1429t620-1424h-500Q1016-109 783 600T550 2009q0 697 231 1403 232 707 703 1444z" transform="scale(.01563)"/><path id="E" d="M2834 3397v-544q-243 125-506 187-262 63-544 63-428 0-642-131t-214-394q0-200 153-314t616-217l197-44q612-131 870-370t258-667q0-488-386-773Q2250-91 1575-91q-281 0-586 55T347 128v594q319-166 628-249 309-82 613-82 406 0 624 139 219 139 219 392 0 234-158 359-157 125-692 241l-200 47q-534 112-772 345-237 233-237 639 0 494 350 762 350 269 994 269 318 0 599-47 282-46 519-140" transform="scale(.01563)"/><path id="F" d="M750 794h659V256L897-744H494L750 256z" transform="scale(.01563)"/><path id="G" d="M269 3500h575l719-2731 715 2731h678l719-2731 716 2731h575L4050 0h-678l-753 2869L1863 0h-679z" transform="scale(.01563)"/><path id="H" d="M3116 1747q0 634-261 995t-717 361q-457 0-718-361t-261-995 261-995 718-361q456 0 717 361t261 995M1159 2969q182 312 458 463 277 152 661 152 638 0 1036-506 399-506 399-1331T3314 415Q2916-91 2278-91q-384 0-661 152-276 152-458 464V0H581v4863h578z" transform="scale(.01563)"/><path id="I" d="M513 4856h500q468-737 701-1444 233-706 233-1403 0-700-233-1409T1013-844H513q415 716 620 1424t205 1429q0 722-205 1425-205 704-620 1422" transform="scale(.01563)"/><path id="J" d="M550 4863h1325v-447h-750V-397h750v-447H550z" transform="scale(.01563)"/><path id="K" d="M2194 1759q-697 0-966-159t-269-544q0-306 202-486 202-179 548-179 479 0 768 339t289 901v128zm1147 238V0h-575v531q-197-318-491-470T1556-91q-537 0-855 302-317 302-317 808 0 590 395 890 396 300 1180 300h807v57q0 397-261 614t-733 217q-300 0-585-72-284-72-546-216v532q315 122 612 182 297 61 578 61 760 0 1135-394 375-393 375-1193" transform="scale(.01563)"/><path id="L" d="M1947 4863V-844H622v447h747v4813H622v447z" transform="scale(.01563)"/></defs><use xlink:href="#i"/><use xlink:href="#r" transform="translate(63.2)"/><use xlink:href="#s" transform="translate(126.6)"/><use xlink:href="#k" transform="translate(181.5)"/><use xlink:href="#t" transform="translate(242.7)"/><use xlink:href="#u" transform="translate(306.2)"/><use xlink:href="#r" transform="translate(334)"/><use xlink:href="#v" transform="translate(397.4)"/><use xlink:href="#w" transform="translate(492.6)"/><use xlink:href="#u" transform="translate(550.6)"/><use xlink:href="#x" transform="translate(578.4)"/><use xlink:href="#y" transform="translate(675.8)"/><use xlink:href="#z" transform="translate(769)"/><use xlink:href="#y" transform="translate(832.6)"/><use xlink:href="#l" transform="translate(894)"/><use xlink:href="#A" transform="translate(967)"/><use xlink:href="#u" transform="translate(1025)"/><use xlink:href="#B" transform="translate(1052.8)"/><use xlink:href="#y" transform="translate(1108.9)"/><use xlink:href="#C" transform="translate(1170.4)"/><use xlink:href="#D" transform="translate(1230)"/><use xlink:href="#E" transform="translate(1269)"/><use xlink:href="#y" transform="translate(1321)"/><use xlink:href="#s" transform="translate(1382.6)"/><use xlink:href="#k" transform="translate(1437.6)"/><use xlink:href="#r" transform="translate(1498.8)"/><use xlink:href="#t" transform="translate(1562.2)"/><use xlink:href="#E" transform="translate(1625.6)"/><use xlink:href="#F" transform="translate(1677.7)"/><use xlink:href="#C" transform="translate(1741.3)"/><use xlink:href="#k" transform="translate(1769)"/><use xlink:href="#G" transform="translate(1830.3)"/><use xlink:href="#y" transform="translate(1912)"/><use xlink:href="#l" transform="translate(1973.6)"/><use xlink:href="#u" transform="translate(2046.5)"/><use xlink:href="#E" transform="translate(2074.3)"/><use xlink:href="#H" transform="translate(2158.2)"/><use xlink:href="#y" transform="translate(2221.6)"/><use xlink:href="#m" transform="translate(2283.2)"/><use xlink:href="#m" transform="translate(2322.4)"/><use xlink:href="#y" transform="translate(2361.6)"/><use xlink:href="#l" transform="translate(2423)"/><use xlink:href="#I" transform="translate(2464.2)"/><use xlink:href="#J" transform="translate(2535)"/><use xlink:href="#C" transform="translate(2574)"/><use xlink:href="#k" transform="translate(2601.8)"/><use xlink:href="#v" transform="translate(2663)"/><use xlink:href="#E" transform="translate(2758.2)"/><use xlink:href="#s" transform="translate(2810.3)"/><use xlink:href="#K" transform="translate(2865.3)"/><use xlink:href="#C" transform="translate(2926.6)"/><use xlink:href="#y" transform="translate(2954.4)"/><use xlink:href="#L" transform="translate(3016)"/></g><path d="m86.3 360.8 66 1 65.9-4.3 65.9-6.7 65.9-117 65.9-39.6 65.9-17.6 66-101.5 65.8-28.4 66 27.2" clip-path="url(#a)" style="fill:none;stroke:#1f77b4;stroke-width:1.5;stroke-linecap:square"/><defs><path id="M" d="M0 3.5a3.5 3.5 0 1 0 0-7 3.5 3.5 0 0 0 0 7z" style="stroke:#1f77b4"/></defs><g clip-path="url(#a)"><use xlink:href="#M" x="86.3" y="360.8" style="fill:#1f77b4;stroke:#1f77b4"/><use xlink:href="#M" x="152.2" y="361.7" style="fill:#1f77b4;stroke:#1f77b4"/><use xlink:href="#M" x="218.2" y="357.5" style="fill:#1f77b4;stroke:#1f77b4"/><use xlink:href="#M" x="284.1" y="350.8" style="fill:#1f77b4;stroke:#1f77b4"/><use xlink:href="#M" x="350" y="233.8" style="fill:#1f77b4;stroke:#1f77b4"/><use xlink:href="#M" x="415.9" y="194.2" style="fill:#1f77b4;stroke:#1f77b4"/><use xlink:href="#M" x="481.8" y="176.6" style="fill:#1f77b4;stroke:#1f77b4"/><use xlink:href="#M" x="547.7" y="75.1" style="fill:#1f77b4;stroke:#1f77b4"/><use xlink:href="#M" x="613.6" y="46.7" style="fill:#1f77b4;stroke:#1f77b4"/><use xlink:href="#M" x="679.5" y="73.9" style="fill:#1f77b4;stroke:#1f77b4"/></g><path d="m86.3 372.2 66-.2 65.9-2.5 65.9-7.2L350 243l65.9-43.1 65.9-11.2 66-109.2 65.8-29.9 66 28.9" clip-path="url(#a)" style="fill:none;stroke-dasharray:5.55,2.4;stroke-dashoffset:0;stroke:#1f77b4;stroke-width:1.5"/><defs><path id="N" d="M0 3.5a3.5 3.5 0 1 0 0-7 3.5 3.5 0 0 0 0 7z" style="stroke:#1f77b4"/></defs><g clip-path="url(#a)"><use xlink:href="#N" x="86.3" y="372.2" style="fill-opacity:0;stroke:#1f77b4"/><use xlink:href="#N" x="152.2" y="372" style="fill-opacity:0;stroke:#1f77b4"/><use xlink:href="#N" x="218.2" y="369.5" style="fill-opacity:0;stroke:#1f77b4"/><use xlink:href="#N" x="284.1" y="362.3" style="fill-opacity:0;stroke:#1f77b4"/><use xlink:href="#N" x="350" y="243.1" style="fill-opacity:0;stroke:#1f77b4"/><use xlink:href="#N" x="415.9" y="200" style="fill-opacity:0;stroke:#1f77b4"/><use xlink:href="#N" x="481.8" y="188.8" style="fill-opacity:0;stroke:#1f77b4"/><use xlink:href="#N" x="547.7" y="79.6" style="fill-opacity:0;stroke:#1f77b4"/><use xlink:href="#N" x="613.6" y="49.7" style="fill-opacity:0;stroke:#1f77b4"/><use xlink:href="#N" x="679.5" y="78.6" style="fill-opacity:0;stroke:#1f77b4"/></g><path d="m86.3 349 66 2.6 65.9-8.8 65.9-3L350 227.1l65.9-38.1 65.9-21.1 66-96.7 65.8-27.8 66 26.3" clip-path="url(#a)" style="fill:none;stroke-dasharray:1.5,2.475;stroke-dashoffset:0;stroke:#1f77b4;stroke-width:1.5"/><g clip-path="url(#a)"><use xlink:href="#N" x="86.3" y="349.1" style="fill-opacity:0;stroke:#1f77b4"/><use xlink:href="#N" x="152.2" y="351.6" style="fill-opacity:0;stroke:#1f77b4"/><use xlink:href="#N" x="218.2" y="342.8" style="fill-opacity:0;stroke:#1f77b4"/><use xlink:href="#N" x="284.1" y="339.8" style="fill-opacity:0;stroke:#1f77b4"/><use xlink:href="#N" x="350" y="227.1" style="fill-opacity:0;stroke:#1f77b4"/><use xlink:href="#N" x="415.9" y="189" style="fill-opacity:0;stroke:#1f77b4"/><use xlink:href="#N" x="481.8" y="167.9" style="fill-opacity:0;stroke:#1f77b4"/><use xlink:href="#N" x="547.7" y="71.2" style="fill-opacity:0;stroke:#1f77b4"/><use xlink:href="#N" x="613.6" y="43.4" style="fill-opacity:0;stroke:#1f77b4"/><use xlink:href="#N" x="679.5" y="69.7" style="fill-opacity:0;stroke:#1f77b4"/></g><path d="m86.3 360 66-.1 65.9-3.9 65.9-6.2L350 233.4l65.9-38.7 65.9-17.5 66-97.7 65.8-28.2 66 26.8" clip-path="url(#a)" style="fill:none;stroke:#ff7f0e;stroke-width:1.5;stroke-linecap:square"/><defs><path id="O" d="M-3.5 3.5h7v-7h-7z" style="stroke:#ff7f0e;stroke-linejoin:miter"/></defs><g clip-path="url(#a)"><use xlink:href="#O" x="86.3" y="360.1" style="fill:#ff7f0e;stroke:#ff7f0e;stroke-linejoin:miter"/><use xlink:href="#O" x="152.2" y="359.9" style="fill:#ff7f0e;stroke:#ff7f0e;stroke-linejoin:miter"/><use xlink:href="#O" x="218.2" y="356" style="fill:#ff7f0e;stroke:#ff7f0e;stroke-linejoin:miter"/><use xlink:href="#O" x="284.1" y="349.8" style="fill:#ff7f0e;stroke:#ff7f0e;stroke-linejoin:miter"/><use xlink:href="#O" x="350" y="233.4" style="fill:#ff7f0e;stroke:#ff7f0e;stroke-linejoin:miter"/><use xlink:href="#O" x="415.9" y="194.7" style="fill:#ff7f0e;stroke:#ff7f0e;stroke-linejoin:miter"/><use xlink:href="#O" x="481.8" y="177.2" style="fill:#ff7f0e;stroke:#ff7f0e;stroke-linejoin:miter"/><use xlink:href="#O" x="547.7" y="79.5" style="fill:#ff7f0e;stroke:#ff7f0e;stroke-linejoin:miter"/><use xlink:href="#O" x="613.6" y="51.3" style="fill:#ff7f0e;stroke:#ff7f0e;stroke-linejoin:miter"/><use xlink:href="#O" x="679.5" y="78.1" style="fill:#ff7f0e;stroke:#ff7f0e;stroke-linejoin:miter"/></g><path d="m86.3 372.8 66-2.2 65.9-1.1 65.9-8.2L350 242.6l65.9-40.9 65.9-12 66-106.2 65.8-27.8 66 28" clip-path="url(#a)" style="fill:none;stroke-dasharray:5.55,2.4;stroke-dashoffset:0;stroke:#ff7f0e;stroke-width:1.5"/><defs><path id="P" d="M-3.5 3.5h7v-7h-7z" style="stroke:#ff7f0e;stroke-linejoin:miter"/></defs><g clip-path="url(#a)"><use xlink:href="#P" x="86.3" y="372.8" style="fill-opacity:0;stroke:#ff7f0e;stroke-linejoin:miter"/><use xlink:href="#P" x="152.2" y="370.6" style="fill-opacity:0;stroke:#ff7f0e;stroke-linejoin:miter"/><use xlink:href="#P" x="218.2" y="369.5" style="fill-opacity:0;stroke:#ff7f0e;stroke-linejoin:miter"/><use xlink:href="#P" x="284.1" y="361.3" style="fill-opacity:0;stroke:#ff7f0e;stroke-linejoin:miter"/><use xlink:href="#P" x="350" y="242.6" style="fill-opacity:0;stroke:#ff7f0e;stroke-linejoin:miter"/><use xlink:href="#P" x="415.9" y="201.7" style="fill-opacity:0;stroke:#ff7f0e;stroke-linejoin:miter"/><use xlink:href="#P" x="481.8" y="189.7" style="fill-opacity:0;stroke:#ff7f0e;stroke-linejoin:miter"/><use xlink:href="#P" x="547.7" y="83.5" style="fill-opacity:0;stroke:#ff7f0e;stroke-linejoin:miter"/><use xlink:href="#P" x="613.6" y="55.7" style="fill-opacity:0;stroke:#ff7f0e;stroke-linejoin:miter"/><use xlink:href="#P" x="679.5" y="83.7" style="fill-opacity:0;stroke:#ff7f0e;stroke-linejoin:miter"/></g><path d="m86.3 350 66-1.3 65.9-9 65.9-2.2 65.9-111 65.9-37.7 65.9-22.4 66-90.9 65.8-28 66 25.2" clip-path="url(#a)" style="fill:none;stroke-dasharray:1.5,2.475;stroke-dashoffset:0;stroke:#ff7f0e;stroke-width:1.5"/><g clip-path="url(#a)"><use xlink:href="#P" x="86.3" y="350" style="fill-opacity:0;stroke:#ff7f0e;stroke-linejoin:miter"/><use xlink:href="#P" x="152.2" y="348.7" style="fill-opacity:0;stroke:#ff7f0e;stroke-linejoin:miter"/><use xlink:href="#P" x="218.2" y="339.7" style="fill-opacity:0;stroke:#ff7f0e;stroke-linejoin:miter"/><use xlink:href="#P" x="284.1" y="337.5" style="fill-opacity:0;stroke:#ff7f0e;stroke-linejoin:miter"/><use xlink:href="#P" x="350" y="226.5" style="fill-opacity:0;stroke:#ff7f0e;stroke-linejoin:miter"/><use xlink:href="#P" x="415.9" y="188.8" style="fill-opacity:0;stroke:#ff7f0e;stroke-linejoin:miter"/><use xlink:href="#P" x="481.8" y="166.4" style="fill-opacity:0;stroke:#ff7f0e;stroke-linejoin:miter"/><use xlink:href="#P" x="547.7" y="75.5" style="fill-opacity:0;stroke:#ff7f0e;stroke-linejoin:miter"/><use xlink:href="#P" x="613.6" y="47.5" style="fill-opacity:0;stroke:#ff7f0e;stroke-linejoin:miter"/><use xlink:href="#P" x="679.5" y="72.7" style="fill-opacity:0;stroke:#ff7f0e;stroke-linejoin:miter"/></g><path d="m86.3 359 66-.5 65.9-4.4 65.9-7.4L350 232.4l65.9-39.4 65.9-13.3 66-99.4 65.8-28.6 66 26.5" clip-path="url(#a)" style="fill:none;stroke:#2ca02c;stroke-width:1.5;stroke-linecap:square"/><defs><path id="Q" d="m0-3.5-3.5 7h7z" style="stroke:#2ca02c;stroke-linejoin:miter"/></defs><g clip-path="url(#a)"><use xlink:href="#Q" x="86.3" y="359" style="fill:#2ca02c;stroke:#2ca02c;stroke-linejoin:miter"/><use xlink:href="#Q" x="152.2" y="358.5" style="fill:#2ca02c;stroke:#2ca02c;stroke-linejoin:miter"/><use xlink:href="#Q" x="218.2" y="354.1" style="fill:#2ca02c;stroke:#2ca02c;stroke-linejoin:miter"/><use xlink:href="#Q" x="284.1" y="346.7" style="fill:#2ca02c;stroke:#2ca02c;stroke-linejoin:miter"/><use xlink:href="#Q" x="350" y="232.4" style="fill:#2ca02c;stroke:#2ca02c;stroke-linejoin:miter"/><use xlink:href="#Q" x="415.9" y="193" style="fill:#2ca02c;stroke:#2ca02c;stroke-linejoin:miter"/><use xlink:href="#Q" x="481.8" y="179.7" style="fill:#2ca02c;stroke:#2ca02c;stroke-linejoin:miter"/><use xlink:href="#Q" x="547.7" y="80.3" style="fill:#2ca02c;stroke:#2ca02c;stroke-linejoin:miter"/><use xlink:href="#Q" x="613.6" y="51.7" style="fill:#2ca02c;stroke:#2ca02c;stroke-linejoin:miter"/><use xlink:href="#Q" x="679.5" y="78.2" style="fill:#2ca02c;stroke:#2ca02c;stroke-linejoin:miter"/></g><path d="m86.3 370.3 66 .8 65.9-1.2 65.9-8L350 242.6l65.9-42.4 65.9-8.4 66-107 65.8-29.1 66 27.7" clip-path="url(#a)" style="fill:none;stroke-dasharray:5.55,2.4;stroke-dashoffset:0;stroke:#2ca02c;stroke-width:1.5"/><defs><path id="R" d="m0-3.5-3.5 7h7z" style="stroke:#2ca02c;stroke-linejoin:miter"/></defs><g clip-path="url(#a)"><use xlink:href="#R" x="86.3" y="370.3" style="fill-opacity:0;stroke:#2ca02c;stroke-linejoin:miter"/><use xlink:href="#R" x="152.2" y="371.1" style="fill-opacity:0;stroke:#2ca02c;stroke-linejoin:miter"/><use xlink:href="#R" x="218.2" y="369.9" style="fill-opacity:0;stroke:#2ca02c;stroke-linejoin:miter"/><use xlink:href="#R" x="284.1" y="362" style="fill-opacity:0;stroke:#2ca02c;stroke-linejoin:miter"/><use xlink:href="#R" x="350" y="242.5" style="fill-opacity:0;stroke:#2ca02c;stroke-linejoin:miter"/><use xlink:href="#R" x="415.9" y="200.1" style="fill-opacity:0;stroke:#2ca02c;stroke-linejoin:miter"/><use xlink:href="#R" x="481.8" y="191.7" style="fill-opacity:0;stroke:#2ca02c;stroke-linejoin:miter"/><use xlink:href="#R" x="547.7" y="84.7" style="fill-opacity:0;stroke:#2ca02c;stroke-linejoin:miter"/><use xlink:href="#R" x="613.6" y="55.6" style="fill-opacity:0;stroke:#2ca02c;stroke-linejoin:miter"/><use xlink:href="#R" x="679.5" y="83.3" style="fill-opacity:0;stroke:#2ca02c;stroke-linejoin:miter"/></g><path d="m86.3 347.7 66-1 65.9-5.8 65.9-8.2 65.9-107 65.9-40.9 65.9-15.7 66-93.3 65.8-28.6 66 25.8" clip-path="url(#a)" style="fill:none;stroke-dasharray:1.5,2.475;stroke-dashoffset:0;stroke:#2ca02c;stroke-width:1.5"/><g clip-path="url(#a)"><use xlink:href="#R" x="86.3" y="347.7" style="fill-opacity:0;stroke:#2ca02c;stroke-linejoin:miter"/><use xlink:href="#R" x="152.2" y="346.7" style="fill-opacity:0;stroke:#2ca02c;stroke-linejoin:miter"/><use xlink:href="#R" x="218.2" y="340.9" style="fill-opacity:0;stroke:#2ca02c;stroke-linejoin:miter"/><use xlink:href="#R" x="284.1" y="332.7" style="fill-opacity:0;stroke:#2ca02c;stroke-linejoin:miter"/><use xlink:href="#R" x="350" y="225.6" style="fill-opacity:0;stroke:#2ca02c;stroke-linejoin:miter"/><use xlink:href="#R" x="415.9" y="184.8" style="fill-opacity:0;stroke:#2ca02c;stroke-linejoin:miter"/><use xlink:href="#R" x="481.8" y="169.1" style="fill-opacity:0;stroke:#2ca02c;stroke-linejoin:miter"/><use xlink:href="#R" x="547.7" y="75.8" style="fill-opacity:0;stroke:#2ca02c;stroke-linejoin:miter"/><use xlink:href="#R" x="613.6" y="47.2" style="fill-opacity:0;stroke:#2ca02c;stroke-linejoin:miter"/><use xlink:href="#R" x="679.5" y="73" style="fill-opacity:0;stroke:#2ca02c;stroke-linejoin:miter"/></g><path d="m86.3 356.3 66 1.1 65.9-7.2 65.9-7.4 65.9-113 65.9-40 65.9-13 66-97.5 65.8-29 66 25.2" clip-path="url(#a)" style="fill:none;stroke:#d62728;stroke-width:1.5;stroke-linecap:square"/><defs><path id="S" d="m0 5 5-5-5-5-5 5z" style="stroke:#d62728;stroke-linejoin:miter"/></defs><g clip-path="url(#a)"><use xlink:href="#S" x="86.3" y="356.3" style="fill:#d62728;stroke:#d62728;stroke-linejoin:miter"/><use xlink:href="#S" x="152.2" y="357.4" style="fill:#d62728;stroke:#d62728;stroke-linejoin:miter"/><use xlink:href="#S" x="218.2" y="350.2" style="fill:#d62728;stroke:#d62728;stroke-linejoin:miter"/><use xlink:href="#S" x="284.1" y="342.8" style="fill:#d62728;stroke:#d62728;stroke-linejoin:miter"/><use xlink:href="#S" x="350" y="229.7" style="fill:#d62728;stroke:#d62728;stroke-linejoin:miter"/><use xlink:href="#S" x="415.9" y="189.7" style="fill:#d62728;stroke:#d62728;stroke-linejoin:miter"/><use xlink:href="#S" x="481.8" y="176.8" style="fill:#d62728;stroke:#d62728;stroke-linejoin:miter"/><use xlink:href="#S" x="547.7" y="79.3" style="fill:#d62728;stroke:#d62728;stroke-linejoin:miter"/><use xlink:href="#S" x="613.6" y="50.3" style="fill:#d62728;stroke:#d62728;stroke-linejoin:miter"/><use xlink:href="#S" x="679.5" y="75.5" style="fill:#d62728;stroke:#d62728;stroke-linejoin:miter"/></g><path d="m86.3 370.3 66-.3 65.9-2 65.9-9L350 240.6l65.9-41.8 65.9-9.2 66-106 65.8-29.4 66 27.1" clip-path="url(#a)" style="fill:none;stroke-dasharray:5.55,2.4;stroke-dashoffset:0;stroke:#d62728;stroke-width:1.5"/><defs><path id="T" d="m0 5 5-5-5-5-5 5z" style="stroke:#d62728;stroke-linejoin:miter"/></defs><g clip-path="url(#a)"><use xlink:href="#T" x="86.3" y="370.3" style="fill-opacity:0;stroke:#d62728;stroke-linejoin:miter"/><use xlink:href="#T" x="152.2" y="370" style="fill-opacity:0;stroke:#d62728;stroke-linejoin:miter"/><use xlink:href="#T" x="218.2" y="367.9" style="fill-opacity:0;stroke:#d62728;stroke-linejoin:miter"/><use xlink:href="#T" x="284.1" y="359" style="fill-opacity:0;stroke:#d62728;stroke-linejoin:miter"/><use xlink:href="#T" x="350" y="240.6" style="fill-opacity:0;stroke:#d62728;stroke-linejoin:miter"/><use xlink:href="#T" x="415.9" y="198.8" style="fill-opacity:0;stroke:#d62728;stroke-linejoin:miter"/><use xlink:href="#T" x="481.8" y="189.6" style="fill-opacity:0;stroke:#d62728;stroke-linejoin:miter"/><use xlink:href="#T" x="547.7" y="83.6" style="fill-opacity:0;stroke:#d62728;stroke-linejoin:miter"/><use xlink:href="#T" x="613.6" y="54.2" style="fill-opacity:0;stroke:#d62728;stroke-linejoin:miter"/><use xlink:href="#T" x="679.5" y="81.3" style="fill-opacity:0;stroke:#d62728;stroke-linejoin:miter"/></g><path d="m86.3 343.9 66 .7 65.9-8.8 65.9-7.5 65.9-106 65.9-41.9 65.9-14.5 66-91.7 65.8-28 66 22.9" clip-path="url(#a)" style="fill:none;stroke-dasharray:1.5,2.475;stroke-dashoffset:0;stroke:#d62728;stroke-width:1.5"/><g clip-path="url(#a)"><use xlink:href="#T" x="86.3" y="343.9" style="fill-opacity:0;stroke:#d62728;stroke-linejoin:miter"/><use xlink:href="#T" x="152.2" y="344.6" style="fill-opacity:0;stroke:#d62728;stroke-linejoin:miter"/><use xlink:href="#T" x="218.2" y="335.8" style="fill-opacity:0;stroke:#d62728;stroke-linejoin:miter"/><use xlink:href="#T" x="284.1" y="328.3" style="fill-opacity:0;stroke:#d62728;stroke-linejoin:miter"/><use xlink:href="#T" x="350" y="222.3" style="fill-opacity:0;stroke:#d62728;stroke-linejoin:miter"/><use xlink:href="#T" x="415.9" y="180.4" style="fill-opacity:0;stroke:#d62728;stroke-linejoin:miter"/><use xlink:href="#T" x="481.8" y="165.9" style="fill-opacity:0;stroke:#d62728;stroke-linejoin:miter"/><use xlink:href="#T" x="547.7" y="74.2" style="fill-opacity:0;stroke:#d62728;stroke-linejoin:miter"/><use xlink:href="#T" x="613.6" y="46.1" style="fill-opacity:0;stroke:#d62728;stroke-linejoin:miter"/><use xlink:href="#T" x="679.5" y="69.1" style="fill-opacity:0;stroke:#d62728;stroke-linejoin:miter"/></g><path d="m86.3 349.7 66 .4 65.9-9.2 65.9-6.5L350 226l65.9-41.6 65.9-12.3 66-93.8 65.8-29.6 66 22.7" clip-path="url(#a)" style="fill:none;stroke:#9467bd;stroke-width:1.5;stroke-linecap:square"/><defs><path id="U" d="m0 3.5 3.5-7h-7z" style="stroke:#9467bd;stroke-linejoin:miter"/></defs><g clip-path="url(#a)"><use xlink:href="#U" x="86.3" y="349.7" style="fill:#9467bd;stroke:#9467bd;stroke-linejoin:miter"/><use xlink:href="#U" x="152.2" y="350.1" style="fill:#9467bd;stroke:#9467bd;stroke-linejoin:miter"/><use xlink:href="#U" x="218.2" y="340.9" style="fill:#9467bd;stroke:#9467bd;stroke-linejoin:miter"/><use xlink:href="#U" x="284.1" y="334.4" style="fill:#9467bd;stroke:#9467bd;stroke-linejoin:miter"/><use xlink:href="#U" x="350" y="225.9" style="fill:#9467bd;stroke:#9467bd;stroke-linejoin:miter"/><use xlink:href="#U" x="415.9" y="184.3" style="fill:#9467bd;stroke:#9467bd;stroke-linejoin:miter"/><use xlink:href="#U" x="481.8" y="172" style="fill:#9467bd;stroke:#9467bd;stroke-linejoin:miter"/><use xlink:href="#U" x="547.7" y="78.2" style="fill:#9467bd;stroke:#9467bd;stroke-linejoin:miter"/><use xlink:href="#U" x="613.6" y="48.6" style="fill:#9467bd;stroke:#9467bd;stroke-linejoin:miter"/><use xlink:href="#U" x="679.5" y="71.3" style="fill:#9467bd;stroke:#9467bd;stroke-linejoin:miter"/></g><path d="m86.3 363.1 66 .7 65.9-3.9 65.9-9.6L350 232.2l65.9-33 65.9-12.7 66-103.5 65.8-29.3 66 25.5" clip-path="url(#a)" style="fill:none;stroke-dasharray:5.55,2.4;stroke-dashoffset:0;stroke:#9467bd;stroke-width:1.5"/><defs><path id="V" d="m0 3.5 3.5-7h-7z" style="stroke:#9467bd;stroke-linejoin:miter"/></defs><g clip-path="url(#a)"><use xlink:href="#V" x="86.3" y="363.1" style="fill-opacity:0;stroke:#9467bd;stroke-linejoin:miter"/><use xlink:href="#V" x="152.2" y="363.8" style="fill-opacity:0;stroke:#9467bd;stroke-linejoin:miter"/><use xlink:href="#V" x="218.2" y="359.9" style="fill-opacity:0;stroke:#9467bd;stroke-linejoin:miter"/><use xlink:href="#V" x="284.1" y="350.3" style="fill-opacity:0;stroke:#9467bd;stroke-linejoin:miter"/><use xlink:href="#V" x="350" y="232.2" style="fill-opacity:0;stroke:#9467bd;stroke-linejoin:miter"/><use xlink:href="#V" x="415.9" y="199.1" style="fill-opacity:0;stroke:#9467bd;stroke-linejoin:miter"/><use xlink:href="#V" x="481.8" y="186.5" style="fill-opacity:0;stroke:#9467bd;stroke-linejoin:miter"/><use xlink:href="#V" x="547.7" y="83" style="fill-opacity:0;stroke:#9467bd;stroke-linejoin:miter"/><use xlink:href="#V" x="613.6" y="53.7" style="fill-opacity:0;stroke:#9467bd;stroke-linejoin:miter"/><use xlink:href="#V" x="679.5" y="79.2" style="fill-opacity:0;stroke:#9467bd;stroke-linejoin:miter"/></g><path d="m86.3 336.5 66-1 65.9-10.6 65.9-6L350 219l65.9-44.7 65.9-12.5 66-88L613.5 44l66 20.6" clip-path="url(#a)" style="fill:none;stroke-dasharray:1.5,2.475;stroke-dashoffset:0;stroke:#9467bd;stroke-width:1.5"/><g clip-path="url(#a)"><use xlink:href="#V" x="86.3" y="336.5" style="fill-opacity:0;stroke:#9467bd;stroke-linejoin:miter"/><use xlink:href="#V" x="152.2" y="335.6" style="fill-opacity:0;stroke:#9467bd;stroke-linejoin:miter"/><use xlink:href="#V" x="218.2" y="324.9" style="fill-opacity:0;stroke:#9467bd;stroke-linejoin:miter"/><use xlink:href="#V" x="284.1" y="318.9" style="fill-opacity:0;stroke:#9467bd;stroke-linejoin:miter"/><use xlink:href="#V" x="350" y="219" style="fill-opacity:0;stroke:#9467bd;stroke-linejoin:miter"/><use xlink:href="#V" x="415.9" y="174.3" style="fill-opacity:0;stroke:#9467bd;stroke-linejoin:miter"/><use xlink:href="#V" x="481.8" y="161.8" style="fill-opacity:0;stroke:#9467bd;stroke-linejoin:miter"/><use xlink:href="#V" x="547.7" y="73.8" style="fill-opacity:0;stroke:#9467bd;stroke-linejoin:miter"/><use xlink:href="#V" x="613.6" y="44" style="fill-opacity:0;stroke:#9467bd;stroke-linejoin:miter"/><use xlink:href="#V" x="679.5" y="64.6" style="fill-opacity:0;stroke:#9467bd;stroke-linejoin:miter"/></g><path d="M56.7 389.3V27m652.5 362.3V27M56.7 389.3h652.5M56.7 26.9h652.5" style="fill:none;stroke:#000;stroke-width:.8;stroke-linejoin:miter;stroke-linecap:square"/><g transform="matrix(.12 0 0 -.12 284 20.9)"><defs><path id="W" d="M191 3500h609L1894 563l1094 2937h609L2284 0h-781z" transform="scale(.01563)"/></defs><use xlink:href="#i"/><use xlink:href="#r" transform="translate(63.2)"/><use xlink:href="#s" transform="translate(126.6)"/><use xlink:href="#k" transform="translate(181.5)"/><use xlink:href="#t" transform="translate(242.7)"/><use xlink:href="#u" transform="translate(306.2)"/><use xlink:href="#r" transform="translate(334)"/><use xlink:href="#v" transform="translate(397.4)"/><use xlink:href="#w" transform="translate(492.6)"/><use xlink:href="#u" transform="translate(550.6)"/><use xlink:href="#x" transform="translate(578.4)"/><use xlink:href="#y" transform="translate(675.8)"/><use xlink:href="#z" transform="translate(769)"/><use xlink:href="#y" transform="translate(832.6)"/><use xlink:href="#l" transform="translate(894)"/><use xlink:href="#A" transform="translate(967)"/><use xlink:href="#u" transform="translate(1025)"/><use xlink:href="#B" transform="translate(1052.8)"/><use xlink:href="#y" transform="translate(1108.9)"/><use xlink:href="#C" transform="translate(1170.4)"/><use xlink:href="#W" transform="translate(1230)"/><use xlink:href="#E" transform="translate(1289.2)"/><use xlink:href="#i" transform="translate(1373)"/><use xlink:href="#j" transform="translate(1436.2)"/><use xlink:href="#j" transform="translate(1471.4)"/><use xlink:href="#k" transform="translate(1506.6)"/><use xlink:href="#l" transform="translate(1567.8)"/><use xlink:href="#m" transform="translate(1609)"/></g><path d="M62.3 127.2H265q1.6 0 1.6-1.6V32.5q0-1.6-1.6-1.6H62.3q-1.6 0-1.6 1.6v93.1q0 1.6 1.6 1.6z" style="fill:#fff;opacity:.8;stroke:#ccc;stroke-linejoin:miter"/><path d="M63.9 37.4h16" style="fill:none;stroke:#1f77b4;stroke-width:1.5;stroke-linecap:square"/><use xlink:href="#M" x="71.9" y="37.4" style="fill:#1f77b4;stroke:#1f77b4"/><g transform="matrix(.08 0 0 -.08 86.3 40.2)"><defs><path id="X" d="M691 4666h2478v-532H1269V2991q137 47 274 70 138 23 276 23 781 0 1237-428 457-428 457-1159 0-753-469-1171Q2575-91 1722-91q-294 0-599 50Q819 9 494 109v635q281-153 581-228t634-75q541 0 856 284 316 284 316 772 0 487-316 771-315 285-856 285-253 0-505-56-251-56-513-175z" transform="scale(.01563)"/></defs><use xlink:href="#X"/><use xlink:href="#h" transform="translate(63.6)"/><use xlink:href="#D" transform="translate(159)"/><use xlink:href="#x" transform="translate(198)"/><use xlink:href="#y" transform="translate(295.5)"/><use xlink:href="#K" transform="translate(357)"/><use xlink:href="#r" transform="translate(418.3)"/><use xlink:href="#I" transform="translate(481.6)"/></g><path d="M63.9 49.1h16" style="fill:none;stroke-dasharray:5.55,2.4;stroke-dashoffset:0;stroke:#1f77b4;stroke-width:1.5"/><use xlink:href="#N" x="71.9" y="49.1" style="fill-opacity:0;stroke:#1f77b4"/><g transform="matrix(.08 0 0 -.08 86.3 51.9)"><defs><path id="Y" d="M4653 2053q-272 0-427-231-154-231-154-644 0-406 154-639 155-233 427-233 266 0 420 233 155 233 155 639 0 410-155 642-154 233-420 233m0 397q494 0 784-344 291-343 291-928 0-584-292-927-292-342-783-342-500 0-791 342-290 343-290 927 0 588 292 930t789 342M1428 4353q-269 0-424-233-154-232-154-639 0-412 153-644 153-231 425-231t426 231q155 232 155 644 0 403-156 637-156 235-425 235m2822 397h500L1831-91h-500zm-2822 0q494 0 787-342 294-342 294-927 0-590-292-931t-789-341-786 342q-289 343-289 930 0 582 290 925 291 344 785 344" transform="scale(.01563)"/></defs><use xlink:href="#X"/><use xlink:href="#h" transform="translate(63.6)"/><use xlink:href="#D" transform="translate(159)"/><use xlink:href="#X" transform="translate(198)"/><use xlink:href="#Y" transform="translate(261.7)"/><use xlink:href="#j" transform="translate(388.5)"/><use xlink:href="#K" transform="translate(423.7)"/><use xlink:href="#E" transform="translate(485)"/><use xlink:href="#m" transform="translate(537)"/><use xlink:href="#y" transform="translate(576.3)"/><use xlink:href="#E" transform="translate(637.8)"/><use xlink:href="#m" transform="translate(689.9)"/><use xlink:href="#I" transform="translate(729.1)"/></g><path d="M63.9 60.8h16" style="fill:none;stroke-dasharray:1.5,2.475;stroke-dashoffset:0;stroke:#1f77b4;stroke-width:1.5"/><use xlink:href="#N" x="71.9" y="60.8" style="fill-opacity:0;stroke:#1f77b4"/><g transform="matrix(.08 0 0 -.08 86.3 63.6)"><defs><path id="Z" d="M703 97v575q238-113 481-172 244-59 479-59 625 0 954 420 330 420 377 1277-181-269-460-413-278-144-615-144-700 0-1108 423-408 424-408 1159 0 718 425 1152 425 435 1131 435 810 0 1236-621 427-620 427-1801 0-1103-524-1761Q2575-91 1691-91q-238 0-482 47Q966 3 703 97m1256 1978q425 0 673 290 249 291 249 798 0 503-249 795-248 292-673 292t-673-292-248-795q0-507 248-798 248-290 673-290" transform="scale(.01563)"/></defs><use xlink:href="#X"/><use xlink:href="#h" transform="translate(63.6)"/><use xlink:href="#D" transform="translate(159)"/><use xlink:href="#Z" transform="translate(198)"/><use xlink:href="#X" transform="translate(261.7)"/><use xlink:href="#Y" transform="translate(325.3)"/><use xlink:href="#E" transform="translate(452.1)"/><use xlink:href="#C" transform="translate(504.2)"/><use xlink:href="#k" transform="translate(532)"/><use xlink:href="#G" transform="translate(593.2)"/><use xlink:href="#y" transform="translate(675)"/><use xlink:href="#E" transform="translate(736.5)"/><use xlink:href="#m" transform="translate(788.6)"/><use xlink:href="#I" transform="translate(827.8)"/></g><path d="M63.9 72.6h16" style="fill:none;stroke:#ff7f0e;stroke-width:1.5;stroke-linecap:square"/><use xlink:href="#O" x="71.9" y="72.6" style="fill:#ff7f0e;stroke:#ff7f0e;stroke-linejoin:miter"/><g transform="matrix(.08 0 0 -.08 86.3 75.4)"><use xlink:href="#e"/><use xlink:href="#h" transform="translate(63.6)"/><use xlink:href="#D" transform="translate(159)"/><use xlink:href="#x" transform="translate(198)"/><use xlink:href="#y" transform="translate(295.5)"/><use xlink:href="#K" transform="translate(357)"/><use xlink:href="#r" transform="translate(418.3)"/><use xlink:href="#I" transform="translate(481.6)"/></g><path d="M63.9 84.3h16" style="fill:none;stroke-dasharray:5.55,2.4;stroke-dashoffset:0;stroke:#ff7f0e;stroke-width:1.5"/><use xlink:href="#P" x="71.9" y="84.3" style="fill-opacity:0;stroke:#ff7f0e;stroke-linejoin:miter"/><g transform="matrix(.08 0 0 -.08 86.3 87.1)"><use xlink:href="#e"/><use xlink:href="#h" transform="translate(63.6)"/><use xlink:href="#D" transform="translate(159)"/><use xlink:href="#X" transform="translate(198)"/><use xlink:href="#Y" transform="translate(261.7)"/><use xlink:href="#j" transform="translate(388.5)"/><use xlink:href="#K" transform="translate(423.7)"/><use xlink:href="#E" transform="translate(485)"/><use xlink:href="#m" transform="translate(537)"/><use xlink:href="#y" transform="translate(576.3)"/><use xlink:href="#E" transform="translate(637.8)"/><use xlink:href="#m" transform="translate(689.9)"/><use xlink:href="#I" transform="translate(729.1)"/></g><path d="M63.9 96h16" style="fill:none;stroke-dasharray:1.5,2.475;stroke-dashoffset:0;stroke:#ff7f0e;stroke-width:1.5"/><use xlink:href="#P" x="71.9" y="96.1" style="fill-opacity:0;stroke:#ff7f0e;stroke-linejoin:miter"/><g transform="matrix(.08 0 0 -.08 86.3 98.9)"><use xlink:href="#e"/><use xlink:href="#h" transform="translate(63.6)"/><use xlink:href="#D" transform="translate(159)"/><use xlink:href="#Z" transform="translate(198)"/><use xlink:href="#X" transform="translate(261.7)"/><use xlink:href="#Y" transform="translate(325.3)"/><use xlink:href="#E" transform="translate(452.1)"/><use xlink:href="#C" transform="translate(504.2)"/><use xlink:href="#k" transform="translate(532)"/><use xlink:href="#G" transform="translate(593.2)"/><use xlink:href="#y" transform="translate(675)"/><use xlink:href="#E" transform="translate(736.5)"/><use xlink:href="#m" transform="translate(788.6)"/><use xlink:href="#I" transform="translate(827.8)"/></g><path d="M63.9 107.8h16" style="fill:none;stroke:#2ca02c;stroke-width:1.5;stroke-linecap:square"/><use xlink:href="#Q" x="71.9" y="107.8" style="fill:#2ca02c;stroke:#2ca02c;stroke-linejoin:miter"/><g transform="matrix(.08 0 0 -.08 86.3 110.6)"><use xlink:href="#p"/><use xlink:href="#h" transform="translate(63.6)"/><use xlink:href="#D" transform="translate(159)"/><use xlink:href="#x" transform="translate(198)"/><use xlink:href="#y" transform="translate(295.5)"/><use xlink:href="#K" transform="translate(357)"/><use xlink:href="#r" transform="translate(418.3)"/><use xlink:href="#I" transform="translate(481.6)"/></g><path d="M63.9 119.6h16" style="fill:none;stroke-dasharray:5.55,2.4;stroke-dashoffset:0;stroke:#2ca02c;stroke-width:1.5"/><use xlink:href="#R" x="71.9" y="119.6" style="fill-opacity:0;stroke:#2ca02c;stroke-linejoin:miter"/><g transform="matrix(.08 0 0 -.08 86.3 122.4)"><use xlink:href="#p"/><use xlink:href="#h" transform="translate(63.6)"/><use xlink:href="#D" transform="translate(159)"/><use xlink:href="#X" transform="translate(198)"/><use xlink:href="#Y" transform="translate(261.7)"/><use xlink:href="#j" transform="translate(388.5)"/><use xlink:href="#K" transform="translate(423.7)"/><use xlink:href="#E" transform="translate(485)"/><use xlink:href="#m" transform="translate(537)"/><use xlink:href="#y" transform="translate(576.3)"/><use xlink:href="#E" transform="translate(637.8)"/><use xlink:href="#m" transform="translate(689.9)"/><use xlink:href="#I" transform="translate(729.1)"/></g><path d="M171.6 37.4h16" style="fill:none;stroke-dasharray:1.5,2.475;stroke-dashoffset:0;stroke:#2ca02c;stroke-width:1.5"/><use xlink:href="#R" x="179.6" y="37.4" style="fill-opacity:0;stroke:#2ca02c;stroke-linejoin:miter"/><g transform="matrix(.08 0 0 -.08 194 40.2)"><use xlink:href="#p"/><use xlink:href="#h" transform="translate(63.6)"/><use xlink:href="#D" transform="translate(159)"/><use xlink:href="#Z" transform="translate(198)"/><use xlink:href="#X" transform="translate(261.7)"/><use xlink:href="#Y" transform="translate(325.3)"/><use xlink:href="#E" transform="translate(452.1)"/><use xlink:href="#C" transform="translate(504.2)"/><use xlink:href="#k" transform="translate(532)"/><use xlink:href="#G" transform="translate(593.2)"/><use xlink:href="#y" transform="translate(675)"/><use xlink:href="#E" transform="translate(736.5)"/><use xlink:href="#m" transform="translate(788.6)"/><use xlink:href="#I" transform="translate(827.8)"/></g><path d="M171.6 49.1h16" style="fill:none;stroke:#d62728;stroke-width:1.5;stroke-linecap:square"/><use xlink:href="#S" x="179.6" y="49.1" style="fill:#d62728;stroke:#d62728;stroke-linejoin:miter"/><g transform="matrix(.08 0 0 -.08 194 51.9)"><use xlink:href="#f"/><use xlink:href="#h" transform="translate(63.6)"/><use xlink:href="#D" transform="translate(159)"/><use xlink:href="#x" transform="translate(198)"/><use xlink:href="#y" transform="translate(295.5)"/><use xlink:href="#K" transform="translate(357)"/><use xlink:href="#r" transform="translate(418.3)"/><use xlink:href="#I" transform="translate(481.6)"/></g><path d="M171.6 60.8h16" style="fill:none;stroke-dasharray:5.55,2.4;stroke-dashoffset:0;stroke:#d62728;stroke-width:1.5"/><use xlink:href="#T" x="179.6" y="60.8" style="fill-opacity:0;stroke:#d62728;stroke-linejoin:miter"/><g transform="matrix(.08 0 0 -.08 194 63.6)"><use xlink:href="#f"/><use xlink:href="#h" transform="translate(63.6)"/><use xlink:href="#D" transform="translate(159)"/><use xlink:href="#X" transform="translate(198)"/><use xlink:href="#Y" transform="translate(261.7)"/><use xlink:href="#j" transform="translate(388.5)"/><use xlink:href="#K" transform="translate(423.7)"/><use xlink:href="#E" transform="translate(485)"/><use xlink:href="#m" transform="translate(537)"/><use xlink:href="#y" transform="translate(576.3)"/><use xlink:href="#E" transform="translate(637.8)"/><use xlink:href="#m" transform="translate(689.9)"/><use xlink:href="#I" transform="translate(729.1)"/></g><path d="M171.6 72.6h16" style="fill:none;stroke-dasharray:1.5,2.475;stroke-dashoffset:0;stroke:#d62728;stroke-width:1.5"/><use xlink:href="#T" x="179.6" y="72.6" style="fill-opacity:0;stroke:#d62728;stroke-linejoin:miter"/><g transform="matrix(.08 0 0 -.08 194 75.4)"><use xlink:href="#f"/><use xlink:href="#h" transform="translate(63.6)"/><use xlink:href="#D" transform="translate(159)"/><use xlink:href="#Z" transform="translate(198)"/><use xlink:href="#X" transform="translate(261.7)"/><use xlink:href="#Y" transform="translate(325.3)"/><use xlink:href="#E" transform="translate(452.1)"/><use xlink:href="#C" transform="translate(504.2)"/><use xlink:href="#k" transform="translate(532)"/><use xlink:href="#G" transform="translate(593.2)"/><use xlink:href="#y" transform="translate(675)"/><use xlink:href="#E" transform="translate(736.5)"/><use xlink:href="#m" transform="translate(788.6)"/><use xlink:href="#I" transform="translate(827.8)"/></g><path d="M171.6 84.3h16" style="fill:none;stroke:#9467bd;stroke-width:1.5;stroke-linecap:square"/><use xlink:href="#U" x="179.6" y="84.3" style="fill:#9467bd;stroke:#9467bd;stroke-linejoin:miter"/><g transform="matrix(.08 0 0 -.08 194 87.1)"><use xlink:href="#Z"/><use xlink:href="#h" transform="translate(63.6)"/><use xlink:href="#D" transform="translate(159)"/><use xlink:href="#x" transform="translate(198)"/><use xlink:href="#y" transform="translate(295.5)"/><use xlink:href="#K" transform="translate(357)"/><use xlink:href="#r" transform="translate(418.3)"/><use xlink:href="#I" transform="translate(481.6)"/></g><path d="M171.6 96h16" style="fill:none;stroke-dasharray:5.55,2.4;stroke-dashoffset:0;stroke:#9467bd;stroke-width:1.5"/><use xlink:href="#V" x="179.6" y="96.1" style="fill-opacity:0;stroke:#9467bd;stroke-linejoin:miter"/><g transform="matrix(.08 0 0 -.08 194 98.9)"><use xlink:href="#Z"/><use xlink:href="#h" transform="translate(63.6)"/><use xlink:href="#D" transform="translate(159)"/><use xlink:href="#X" transform="translate(198)"/><use xlink:href="#Y" transform="translate(261.7)"/><use xlink:href="#j" transform="translate(388.5)"/><use xlink:href="#K" transform="translate(423.7)"/><use xlink:href="#E" transform="translate(485)"/><use xlink:href="#m" transform="translate(537)"/><use xlink:href="#y" transform="translate(576.3)"/><use xlink:href="#E" transform="translate(637.8)"/><use xlink:href="#m" transform="translate(689.9)"/><use xlink:href="#I" transform="translate(729.1)"/></g><path d="M171.6 107.8h16" style="fill:none;stroke-dasharray:1.5,2.475;stroke-dashoffset:0;stroke:#9467bd;stroke-width:1.5"/><use xlink:href="#V" x="179.6" y="107.8" style="fill-opacity:0;stroke:#9467bd;stroke-linejoin:miter"/><g transform="matrix(.08 0 0 -.08 194 110.6)"><use xlink:href="#Z"/><use xlink:href="#h" transform="translate(63.6)"/><use xlink:href="#D" transform="translate(159)"/><use xlink:href="#Z" transform="translate(198)"/><use xlink:href="#X" transform="translate(261.7)"/><use xlink:href="#Y" transform="translate(325.3)"/><use xlink:href="#E" transform="translate(452.1)"/><use xlink:href="#C" transform="translate(504.2)"/><use xlink:href="#k" transform="translate(532)"/><use xlink:href="#G" transform="translate(593.2)"/><use xlink:href="#y" transform="translate(675)"/><use xlink:href="#E" transform="translate(736.5)"/><use xlink:href="#m" transform="translate(788.6)"/><use xlink:href="#I" transform="translate(827.8)"/></g><defs><clipPath id="a"><path d="M56.7 26.9h652.5v362.4H56.7z"/></clipPath></defs></svg>