<?xml version="1.0" encoding="utf-8" standalone="no"?>
<!DOCTYPE svg PUBLIC "-//W3C//DTD SVG 1.1//EN"
  "http://www.w3.org/Graphics/SVG/1.1/DTD/svg11.dtd">
<svg xmlns:xlink="http://www.w3.org/1999/xlink" width="720pt" height="432pt" viewBox="0 0 720 432" xmlns="http://www.w3.org/2000/svg" version="1.1">
 <metadata>
  <rdf:RDF xmlns:dc="http://purl.org/dc/elements/1.1/" xmlns:cc="http://creativecommons.org/ns#" xmlns:rdf="http://www.w3.org/1999/02/22-rdf-syntax-ns#">
   <cc:Work>
    <dc:type rdf:resource="http://purl.org/dc/dcmitype/StillImage"/>
    <dc:date>2026-02-27T16:56:52.362318</dc:date>
    <dc:format>image/svg+xml</dc:format>
    <dc:creator>
     <cc:Agent>
      <dc:title>Matplotlib v3.10.8, https://matplotlib.org/</dc:title>
     </cc:Agent>
    </dc:creator>
   </cc:Work>
  </rdf:RDF>
 </metadata>
 <defs>
  <style type="text/css">*{stroke-linejoin: round; stroke-linecap: butt}</style>
 </defs>
 <g id="figure_1">
  <g id="patch_1">
   <path d="M 0 432 
L 720 432 
L 720 0 
L 0 0 
z
" style="fill: #ffffff"/>
  </g>
  <g id="axes_1">
   <g id="patch_2">
    <path d="M 61.13 389.32 
L 709.2 389.32 
L 709.2 26.88 
L 61.13 26.88 
z
" style="fill: #ffffff"/>
   </g>
   <g id="matplotlib.axis_1">
    <g id="xtick_1">
     <g id="line2d_1">
      <path d="M 90.587727 389.32 
L 90.587727 26.88 
" clip-path="url(#p02037d4fa2)" style="fill: none; stroke: #b0b0b0; stroke-opacity: 0.3; stroke-width: 0.8; stroke-linecap: square"/>
     </g>
     <g id="line2d_2">
      <defs>
       <path id="m2dde292999" d="M 0 0 
L 0 3.5 
" style="stroke: #000000; stroke-width: 0.8"/>
      </defs>
      <g>
       <use xlink:href="#m2dde292999" x="90.587727" y="389.32" style="stroke: #000000; stroke-width: 0.8"/>
      </g>
     </g>
     <g id="text_1">
      <!-- 0 -->
      <g transform="translate(87.406477 403.918437) scale(0.1 -0.1)">
       <defs>
        <path id="DejaVuSans-30" d="M 2034 4250 
Q 1547 4250 1301 3770 
Q 1056 3291 1056 2328 
Q 1056 1369 1301 889 
Q 1547 409 2034 409 
Q 2525 409 2770 889 
Q 3016 1369 3016 2328 
Q 3016 3291 2770 3770 
Q 2525 4250 2034 4250 
z
M 2034 4750 
Q 2819 4750 3233 4129 
Q 3647 3509 3647 2328 
Q 3647 1150 3233 529 
Q 2819 -91 2034 -91 
Q 1250 -91 836 529 
Q 422 1150 422 2328 
Q 422 3509 836 4129 
Q 1250 4750 2034 4750 
z
" transform="scale(0.015625)"/>
       </defs>
       <use xlink:href="#DejaVuSans-30"/>
      </g>
     </g>
    </g>
    <g id="xtick_2">
     <g id="line2d_3">
      <path d="M 188.780152 389.32 
L 188.780152 26.88 
" clip-path="url(#p02037d4fa2)" style="fill: none; stroke: #b0b0b0; stroke-opacity: 0.3; stroke-width: 0.8; stroke-linecap: square"/>
     </g>
     <g id="line2d_4">
      <g>
       <use xlink:href="#m2dde292999" x="188.780152" y="389.32" style="stroke: #000000; stroke-width: 0.8"/>
      </g>
     </g>
     <g id="text_2">
      <!-- 1 -->
      <g transform="translate(185.598902 403.918437) scale(0.1 -0.1)">
       <defs>
        <path id="DejaVuSans-31" d="M 794 531 
L 1825 531 
L 1825 4091 
L 703 3866 
L 703 4441 
L 1819 4666 
L 2450 4666 
L 2450 531 
L 3481 531 
L 3481 0 
L 794 0 
L 794 531 
z
" transform="scale(0.015625)"/>
       </defs>
       <use xlink:href="#DejaVuSans-31"/>
      </g>
     </g>
    </g>
    <g id="xtick_3">
     <g id="line2d_5">
      <path d="M 286.972576 389.32 
L 286.972576 26.88 
" clip-path="url(#p02037d4fa2)" style="fill: none; stroke: #b0b0b0; stroke-opacity: 0.3; stroke-width: 0.8; stroke-linecap: square"/>
     </g>
     <g id="line2d_6">
      <g>
       <use xlink:href="#m2dde292999" x="286.972576" y="389.32" style="stroke: #000000; stroke-width: 0.8"/>
      </g>
     </g>
     <g id="text_3">
      <!-- 2 -->
      <g transform="translate(283.791326 403.918437) scale(0.1 -0.1)">
       <defs>
        <path id="DejaVuSans-32" d="M 1228 531 
L 3431 531 
L 3431 0 
L 469 0 
L 469 531 
Q 828 903 1448 1529 
Q 2069 2156 2228 2338 
Q 2531 2678 2651 2914 
Q 2772 3150 2772 3378 
Q 2772 3750 2511 3984 
Q 2250 4219 1831 4219 
Q 1534 4219 1204 4116 
Q 875 4013 500 3803 
L 500 4441 
Q 881 4594 1212 4672 
Q 1544 4750 1819 4750 
Q 2544 4750 2975 4387 
Q 3406 4025 3406 3419 
Q 3406 3131 3298 2873 
Q 3191 2616 2906 2266 
Q 2828 2175 2409 1742 
Q 1991 1309 1228 531 
z
" transform="scale(0.015625)"/>
       </defs>
       <use xlink:href="#DejaVuSans-32"/>
      </g>
     </g>
    </g>
    <g id="xtick_4">
     <g id="line2d_7">
      <path d="M 385.165 389.32 
L 385.165 26.88 
" clip-path="url(#p02037d4fa2)" style="fill: none; stroke: #b0b0b0; stroke-opacity: 0.3; stroke-width: 0.8; stroke-linecap: square"/>
     </g>
     <g id="line2d_8">
      <g>
       <use xlink:href="#m2dde292999" x="385.165" y="389.32" style="stroke: #000000; stroke-width: 0.8"/>
      </g>
     </g>
     <g id="text_4">
      <!-- 3 -->
      <g transform="translate(381.98375 403.918437) scale(0.1 -0.1)">
       <defs>
        <path id="DejaVuSans-33" d="M 2597 2516 
Q 3050 2419 3304 2112 
Q 3559 1806 3559 1356 
Q 3559 666 3084 287 
Q 2609 -91 1734 -91 
Q 1441 -91 1130 -33 
Q 819 25 488 141 
L 488 750 
Q 750 597 1062 519 
Q 1375 441 1716 441 
Q 2309 441 2620 675 
Q 2931 909 2931 1356 
Q 2931 1769 2642 2001 
Q 2353 2234 1838 2234 
L 1294 2234 
L 1294 2753 
L 1863 2753 
Q 2328 2753 2575 2939 
Q 2822 3125 2822 3475 
Q 2822 3834 2567 4026 
Q 2313 4219 1838 4219 
Q 1578 4219 1281 4162 
Q 984 4106 628 3988 
L 628 4550 
Q 988 4650 1302 4700 
Q 1616 4750 1894 4750 
Q 2613 4750 3031 4423 
Q 3450 4097 3450 3541 
Q 3450 3153 3228 2886 
Q 3006 2619 2597 2516 
z
" transform="scale(0.015625)"/>
       </defs>
       <use xlink:href="#DejaVuSans-33"/>
      </g>
     </g>
    </g>
    <g id="xtick_5">
     <g id="line2d_9">
      <path d="M 483.357424 389.32 
L 483.357424 26.88 
" clip-path="url(#p02037d4fa2)" style="fill: none; stroke: #b0b0b0; stroke-opacity: 0.3; stroke-width: 0.8; stroke-linecap: square"/>
     </g>
     <g id="line2d_10">
      <g>
       <use xlink:href="#m2dde292999" x="483.357424" y="389.32" style="stroke: #000000; stroke-width: 0.8"/>
      </g>
     </g>
     <g id="text_5">
      <!-- 4 -->
      <g transform="translate(480.176174 403.918437) scale(0.1 -0.1)">
       <defs>
        <path id="DejaVuSans-34" d="M 2419 4116 
L 825 1625 
L 2419 1625 
L 2419 4116 
z
M 2253 4666 
L 3047 4666 
L 3047 1625 
L 3713 1625 
L 3713 1100 
L 3047 1100 
L 3047 0 
L 2419 0 
L 2419 1100 
L 313 1100 
L 313 1709 
L 2253 4666 
z
" transform="scale(0.015625)"/>
       </defs>
       <use xlink:href="#DejaVuSans-34"/>
      </g>
     </g>
    </g>
    <g id="xtick_6">
     <g id="line2d_11">
      <path d="M 581.549848 389.32 
L 581.549848 26.88 
" clip-path="url(#p02037d4fa2)" style="fill: none; stroke: #b0b0b0; stroke-opacity: 0.3; stroke-width: 0.8; stroke-linecap: square"/>
     </g>
     <g id="line2d_12">
      <g>
       <use xlink:href="#m2dde292999" x="581.549848" y="389.32" style="stroke: #000000; stroke-width: 0.8"/>
      </g>
     </g>
     <g id="text_6">
      <!-- 5 -->
      <g transform="translate(578.368598 403.918437) scale(0.1 -0.1)">
       <defs>
        <path id="DejaVuSans-35" d="M 691 4666 
L 3169 4666 
L 3169 4134 
L 1269 4134 
L 1269 2991 
Q 1406 3038 1543 3061 
Q 1681 3084 1819 3084 
Q 2600 3084 3056 2656 
Q 3513 2228 3513 1497 
Q 3513 744 3044 326 
Q 2575 -91 1722 -91 
Q 1428 -91 1123 -41 
Q 819 9 494 109 
L 494 744 
Q 775 591 1075 516 
Q 1375 441 1709 441 
Q 2250 441 2565 725 
Q 2881 1009 2881 1497 
Q 2881 1984 2565 2268 
Q 2250 2553 1709 2553 
Q 1456 2553 1204 2497 
Q 953 2441 691 2322 
L 691 4666 
z
" transform="scale(0.015625)"/>
       </defs>
       <use xlink:href="#DejaVuSans-35"/>
      </g>
     </g>
    </g>
    <g id="xtick_7">
     <g id="line2d_13">
      <path d="M 679.742273 389.32 
L 679.742273 26.88 
" clip-path="url(#p02037d4fa2)" style="fill: none; stroke: #b0b0b0; stroke-opacity: 0.3; stroke-width: 0.8; stroke-linecap: square"/>
     </g>
     <g id="line2d_14">
      <g>
       <use xlink:href="#m2dde292999" x="679.742273" y="389.32" style="stroke: #000000; stroke-width: 0.8"/>
      </g>
     </g>
     <g id="text_7">
      <!-- 6 -->
      <g transform="translate(676.561023 403.918437) scale(0.1 -0.1)">
       <defs>
        <path id="DejaVuSans-36" d="M 2113 2584 
Q 1688 2584 1439 2293 
Q 1191 2003 1191 1497 
Q 1191 994 1439 701 
Q 1688 409 2113 409 
Q 2538 409 2786 701 
Q 3034 994 3034 1497 
Q 3034 2003 2786 2293 
Q 2538 2584 2113 2584 
z
M 3366 4563 
L 3366 3988 
Q 3128 4100 2886 4159 
Q 2644 4219 2406 4219 
Q 1781 4219 1451 3797 
Q 1122 3375 1075 2522 
Q 1259 2794 1537 2939 
Q 1816 3084 2150 3084 
Q 2853 3084 3261 2657 
Q 3669 2231 3669 1497 
Q 3669 778 3244 343 
Q 2819 -91 2113 -91 
Q 1303 -91 875 529 
Q 447 1150 447 2328 
Q 447 3434 972 4092 
Q 1497 4750 2381 4750 
Q 2619 4750 2861 4703 
Q 3103 4656 3366 4563 
z
" transform="scale(0.015625)"/>
       </defs>
       <use xlink:href="#DejaVuSans-36"/>
      </g>
     </g>
    </g>
    <g id="text_8">
     <!-- Method -->
     <g transform="translate(364.536563 418.356406) scale(0.11 -0.11)">
      <defs>
       <path id="DejaVuSans-4d" d="M 628 4666 
L 1569 4666 
L 2759 1491 
L 3956 4666 
L 4897 4666 
L 4897 0 
L 4281 0 
L 4281 4097 
L 3078 897 
L 2444 897 
L 1241 4097 
L 1241 0 
L 628 0 
L 628 4666 
z
" transform="scale(0.015625)"/>
       <path id="DejaVuSans-65" d="M 3597 1894 
L 3597 1613 
L 953 1613 
Q 991 1019 1311 708 
Q 1631 397 2203 397 
Q 2534 397 2845 478 
Q 3156 559 3463 722 
L 3463 178 
Q 3153 47 2828 -22 
Q 2503 -91 2169 -91 
Q 1331 -91 842 396 
Q 353 884 353 1716 
Q 353 2575 817 3079 
Q 1281 3584 2069 3584 
Q 2775 3584 3186 3129 
Q 3597 2675 3597 1894 
z
M 3022 2063 
Q 3016 2534 2758 2815 
Q 2500 3097 2075 3097 
Q 1594 3097 1305 2825 
Q 1016 2553 972 2059 
L 3022 2063 
z
" transform="scale(0.015625)"/>
       <path id="DejaVuSans-74" d="M 1172 4494 
L 1172 3500 
L 2356 3500 
L 2356 3053 
L 1172 3053 
L 1172 1153 
Q 1172 725 1289 603 
Q 1406 481 1766 481 
L 2356 481 
L 2356 0 
L 1766 0 
Q 1100 0 847 248 
Q 594 497 594 1153 
L 594 3053 
L 172 3053 
L 172 3500 
L 594 3500 
L 594 4494 
L 1172 4494 
z
" transform="scale(0.015625)"/>
       <path id="DejaVuSans-68" d="M 3513 2113 
L 3513 0 
L 2938 0 
L 2938 2094 
Q 2938 2591 2744 2837 
Q 2550 3084 2163 3084 
Q 1697 3084 1428 2787 
Q 1159 2491 1159 1978 
L 1159 0 
L 581 0 
L 581 4863 
L 1159 4863 
L 1159 2956 
Q 1366 3272 1645 3428 
Q 1925 3584 2291 3584 
Q 2894 3584 3203 3211 
Q 3513 2838 3513 2113 
z
" transform="scale(0.015625)"/>
       <path id="DejaVuSans-6f" d="M 1959 3097 
Q 1497 3097 1228 2736 
Q 959 2375 959 1747 
Q 959 1119 1226 758 
Q 1494 397 1959 397 
Q 2419 397 2687 759 
Q 2956 1122 2956 1747 
Q 2956 2369 2687 2733 
Q 2419 3097 1959 3097 
z
M 1959 3584 
Q 2709 3584 3137 3096 
Q 3566 2609 3566 1747 
Q 3566 888 3137 398 
Q 2709 -91 1959 -91 
Q 1206 -91 779 398 
Q 353 888 353 1747 
Q 353 2609 779 3096 
Q 1206 3584 1959 3584 
z
" transform="scale(0.015625)"/>
       <path id="DejaVuSans-64" d="M 2906 2969 
L 2906 4863 
L 3481 4863 
L 3481 0 
L 2906 0 
L 2906 525 
Q 2725 213 2448 61 
Q 2172 -91 1784 -91 
Q 1150 -91 751 415 
Q 353 922 353 1747 
Q 353 2572 751 3078 
Q 1150 3584 1784 3584 
Q 2172 3584 2448 3432 
Q 2725 3281 2906 2969 
z
M 947 1747 
Q 947 1113 1208 752 
Q 1469 391 1925 391 
Q 2381 391 2643 752 
Q 2906 1113 2906 1747 
Q 2906 2381 2643 2742 
Q 2381 3103 1925 3103 
Q 1469 3103 1208 2742 
Q 947 2381 947 1747 
z
" transform="scale(0.015625)"/>
      </defs>
      <use xlink:href="#DejaVuSans-4d"/>
      <use xlink:href="#DejaVuSans-65" transform="translate(86.279297 0)"/>
      <use xlink:href="#DejaVuSans-74" transform="translate(147.802734 0)"/>
      <use xlink:href="#DejaVuSans-68" transform="translate(187.011719 0)"/>
      <use xlink:href="#DejaVuSans-6f" transform="translate(250.390625 0)"/>
      <use xlink:href="#DejaVuSans-64" transform="translate(311.572266 0)"/>
     </g>
    </g>
   </g>
   <g id="matplotlib.axis_2">
    <g id="ytick_1">
     <g id="line2d_15">
      <path d="M 61.13 360.203254 
L 709.2 360.203254 
" clip-path="url(#p02037d4fa2)" style="fill: none; stroke: #b0b0b0; stroke-opacity: 0.3; stroke-width: 0.8; stroke-linecap: square"/>
     </g>
     <g id="line2d_16">
      <defs>
       <path id="m450f951cdd" d="M 0 0 
L -3.5 0 
" style="stroke: #000000; stroke-width: 0.8"/>
      </defs>
      <g>
       <use xlink:href="#m450f951cdd" x="61.13" y="360.203254" style="stroke: #000000; stroke-width: 0.8"/>
      </g>
     </g>
     <g id="text_9">
      <!-- 0.004 -->
      <g transform="translate(25.501875 364.002473) scale(0.1 -0.1)">
       <defs>
        <path id="DejaVuSans-2e" d="M 684 794 
L 1344 794 
L 1344 0 
L 684 0 
L 684 794 
z
" transform="scale(0.015625)"/>
       </defs>
       <use xlink:href="#DejaVuSans-30"/>
       <use xlink:href="#DejaVuSans-2e" transform="translate(63.623047 0)"/>
       <use xlink:href="#DejaVuSans-30" transform="translate(95.410156 0)"/>
       <use xlink:href="#DejaVuSans-30" transform="translate(159.033203 0)"/>
       <use xlink:href="#DejaVuSans-34" transform="translate(222.65625 0)"/>
      </g>
     </g>
    </g>
    <g id="ytick_2">
     <g id="line2d_17">
      <path d="M 61.13 311.025214 
L 709.2 311.025214 
" clip-path="url(#p02037d4fa2)" style="fill: none; stroke: #b0b0b0; stroke-opacity: 0.3; stroke-width: 0.8; stroke-linecap: square"/>
     </g>
     <g id="line2d_18">
      <g>
       <use xlink:href="#m450f951cdd" x="61.13" y="311.025214" style="stroke: #000000; stroke-width: 0.8"/>
      </g>
     </g>
     <g id="text_10">
      <!-- 0.006 -->
      <g transform="translate(25.501875 314.824433) scale(0.1 -0.1)">
       <use xlink:href="#DejaVuSans-30"/>
       <use xlink:href="#DejaVuSans-2e" transform="translate(63.623047 0)"/>
       <use xlink:href="#DejaVuSans-30" transform="translate(95.410156 0)"/>
       <use xlink:href="#DejaVuSans-30" transform="translate(159.033203 0)"/>
       <use xlink:href="#DejaVuSans-36" transform="translate(222.65625 0)"/>
      </g>
     </g>
    </g>
    <g id="ytick_3">
     <g id="line2d_19">
      <path d="M 61.13 261.847174 
L 709.2 261.847174 
" clip-path="url(#p02037d4fa2)" style="fill: none; stroke: #b0b0b0; stroke-opacity: 0.3; stroke-width: 0.8; stroke-linecap: square"/>
     </g>
     <g id="line2d_20">
      <g>
       <use xlink:href="#m450f951cdd" x="61.13" y="261.847174" style="stroke: #000000; stroke-width: 0.8"/>
      </g>
     </g>
     <g id="text_11">
      <!-- 0.008 -->
      <g transform="translate(25.501875 265.646393) scale(0.1 -0.1)">
       <defs>
        <path id="DejaVuSans-38" d="M 2034 2216 
Q 1584 2216 1326 1975 
Q 1069 1734 1069 1313 
Q 1069 891 1326 650 
Q 1584 409 2034 409 
Q 2484 409 2743 651 
Q 3003 894 3003 1313 
Q 3003 1734 2745 1975 
Q 2488 2216 2034 2216 
z
M 1403 2484 
Q 997 2584 770 2862 
Q 544 3141 544 3541 
Q 544 4100 942 4425 
Q 1341 4750 2034 4750 
Q 2731 4750 3128 4425 
Q 3525 4100 3525 3541 
Q 3525 3141 3298 2862 
Q 3072 2584 2669 2484 
Q 3125 2378 3379 2068 
Q 3634 1759 3634 1313 
Q 3634 634 3220 271 
Q 2806 -91 2034 -91 
Q 1263 -91 848 271 
Q 434 634 434 1313 
Q 434 1759 690 2068 
Q 947 2378 1403 2484 
z
M 1172 3481 
Q 1172 3119 1398 2916 
Q 1625 2713 2034 2713 
Q 2441 2713 2670 2916 
Q 2900 3119 2900 3481 
Q 2900 3844 2670 4047 
Q 2441 4250 2034 4250 
Q 1625 4250 1398 4047 
Q 1172 3844 1172 3481 
z
" transform="scale(0.015625)"/>
       </defs>
       <use xlink:href="#DejaVuSans-30"/>
       <use xlink:href="#DejaVuSans-2e" transform="translate(63.623047 0)"/>
       <use xlink:href="#DejaVuSans-30" transform="translate(95.410156 0)"/>
       <use xlink:href="#DejaVuSans-30" transform="translate(159.033203 0)"/>
       <use xlink:href="#DejaVuSans-38" transform="translate(222.65625 0)"/>
      </g>
     </g>
    </g>
    <g id="ytick_4">
     <g id="line2d_21">
      <path d="M 61.13 212.669134 
L 709.2 212.669134 
" clip-path="url(#p02037d4fa2)" style="fill: none; stroke: #b0b0b0; stroke-opacity: 0.3; stroke-width: 0.8; stroke-linecap: square"/>
     </g>
     <g id="line2d_22">
      <g>
       <use xlink:href="#m450f951cdd" x="61.13" y="212.669134" style="stroke: #000000; stroke-width: 0.8"/>
      </g>
     </g>
     <g id="text_12">
      <!-- 0.010 -->
      <g transform="translate(25.501875 216.468353) scale(0.1 -0.1)">
       <use xlink:href="#DejaVuSans-30"/>
       <use xlink:href="#DejaVuSans-2e" transform="translate(63.623047 0)"/>
       <use xlink:href="#DejaVuSans-30" transform="translate(95.410156 0)"/>
       <use xlink:href="#DejaVuSans-31" transform="translate(159.033203 0)"/>
       <use xlink:href="#DejaVuSans-30" transform="translate(222.65625 0)"/>
      </g>
     </g>
    </g>
    <g id="ytick_5">
     <g id="line2d_23">
      <path d="M 61.13 163.491094 
L 709.2 163.491094 
" clip-path="url(#p02037d4fa2)" style="fill: none; stroke: #b0b0b0; stroke-opacity: 0.3; stroke-width: 0.8; stroke-linecap: square"/>
     </g>
     <g id="line2d_24">
      <g>
       <use xlink:href="#m450f951cdd" x="61.13" y="163.491094" style="stroke: #000000; stroke-width: 0.8"/>
      </g>
     </g>
     <g id="text_13">
      <!-- 0.012 -->
      <g transform="translate(25.501875 167.290312) scale(0.1 -0.1)">
       <use xlink:href="#DejaVuSans-30"/>
       <use xlink:href="#DejaVuSans-2e" transform="translate(63.623047 0)"/>
       <use xlink:href="#DejaVuSans-30" transform="translate(95.410156 0)"/>
       <use xlink:href="#DejaVuSans-31" transform="translate(159.033203 0)"/>
       <use xlink:href="#DejaVuSans-32" transform="translate(222.65625 0)"/>
      </g>
     </g>
    </g>
    <g id="ytick_6">
     <g id="line2d_25">
      <path d="M 61.13 114.313054 
L 709.2 114.313054 
" clip-path="url(#p02037d4fa2)" style="fill: none; stroke: #b0b0b0; stroke-opacity: 0.3; stroke-width: 0.8; stroke-linecap: square"/>
     </g>
     <g id="line2d_26">
      <g>
       <use xlink:href="#m450f951cdd" x="61.13" y="114.313054" style="stroke: #000000; stroke-width: 0.8"/>
      </g>
     </g>
     <g id="text_14">
      <!-- 0.014 -->
      <g transform="translate(25.501875 118.112272) scale(0.1 -0.1)">
       <use xlink:href="#DejaVuSans-30"/>
       <use xlink:href="#DejaVuSans-2e" transform="translate(63.623047 0)"/>
       <use xlink:href="#DejaVuSans-30" transform="translate(95.410156 0)"/>
       <use xlink:href="#DejaVuSans-31" transform="translate(159.033203 0)"/>
       <use xlink:href="#DejaVuSans-34" transform="translate(222.65625 0)"/>
      </g>
     </g>
    </g>
    <g id="ytick_7">
     <g id="line2d_27">
      <path d="M 61.13 65.135013 
L 709.2 65.135013 
" clip-path="url(#p02037d4fa2)" style="fill: none; stroke: #b0b0b0; stroke-opacity: 0.3; stroke-width: 0.8; stroke-linecap: square"/>
     </g>
     <g id="line2d_28">
      <g>
       <use xlink:href="#m450f951cdd" x="61.13" y="65.135013" style="stroke: #000000; stroke-width: 0.8"/>
      </g>
     </g>
     <g id="text_15">
      <!-- 0.016 -->
      <g transform="translate(25.501875 68.934232) scale(0.1 -0.1)">
       <use xlink:href="#DejaVuSans-30"/>
       <use xlink:href="#DejaVuSans-2e" transform="translate(63.623047 0)"/>
       <use xlink:href="#DejaVuSans-30" transform="translate(95.410156 0)"/>
       <use xlink:href="#DejaVuSans-31" transform="translate(159.033203 0)"/>
       <use xlink:href="#DejaVuSans-36" transform="translate(222.65625 0)"/>
      </g>
     </g>
    </g>
    <g id="text_16">
     <!-- Bytes Per Psnr Per Pixel (lower is better) -->
     <g transform="translate(19.214219 318.397344) rotate(-90) scale(0.11 -0.11)">
      <defs>
       <path id="DejaVuSans-42" d="M 1259 2228 
L 1259 519 
L 2272 519 
Q 2781 519 3026 730 
Q 3272 941 3272 1375 
Q 3272 1813 3026 2020 
Q 2781 2228 2272 2228 
L 1259 2228 
z
M 1259 4147 
L 1259 2741 
L 2194 2741 
Q 2656 2741 2882 2914 
Q 3109 3088 3109 3444 
Q 3109 3797 2882 3972 
Q 2656 4147 2194 4147 
L 1259 4147 
z
M 628 4666 
L 2241 4666 
Q 2963 4666 3353 4366 
Q 3744 4066 3744 3513 
Q 3744 3084 3544 2831 
Q 3344 2578 2956 2516 
Q 3422 2416 3680 2098 
Q 3938 1781 3938 1306 
Q 3938 681 3513 340 
Q 3088 0 2303 0 
L 628 0 
L 628 4666 
z
" transform="scale(0.015625)"/>
       <path id="DejaVuSans-79" d="M 2059 -325 
Q 1816 -950 1584 -1140 
Q 1353 -1331 966 -1331 
L 506 -1331 
L 506 -850 
L 844 -850 
Q 1081 -850 1212 -737 
Q 1344 -625 1503 -206 
L 1606 56 
L 191 3500 
L 800 3500 
L 1894 763 
L 2988 3500 
L 3597 3500 
L 2059 -325 
z
" transform="scale(0.015625)"/>
       <path id="DejaVuSans-73" d="M 2834 3397 
L 2834 2853 
Q 2591 2978 2328 3040 
Q 2066 3103 1784 3103 
Q 1356 3103 1142 2972 
Q 928 2841 928 2578 
Q 928 2378 1081 2264 
Q 1234 2150 1697 2047 
L 1894 2003 
Q 2506 1872 2764 1633 
Q 3022 1394 3022 966 
Q 3022 478 2636 193 
Q 2250 -91 1575 -91 
Q 1294 -91 989 -36 
Q 684 19 347 128 
L 347 722 
Q 666 556 975 473 
Q 1284 391 1588 391 
Q 1994 391 2212 530 
Q 2431 669 2431 922 
Q 2431 1156 2273 1281 
Q 2116 1406 1581 1522 
L 1381 1569 
Q 847 1681 609 1914 
Q 372 2147 372 2553 
Q 372 3047 722 3315 
Q 1072 3584 1716 3584 
Q 2034 3584 2315 3537 
Q 2597 3491 2834 3397 
z
" transform="scale(0.015625)"/>
       <path id="DejaVuSans-20" transform="scale(0.015625)"/>
       <path id="DejaVuSans-50" d="M 1259 4147 
L 1259 2394 
L 2053 2394 
Q 2494 2394 2734 2622 
Q 2975 2850 2975 3272 
Q 2975 3691 2734 3919 
Q 2494 4147 2053 4147 
L 1259 4147 
z
M 628 4666 
L 2053 4666 
Q 2838 4666 3239 4311 
Q 3641 3956 3641 3272 
Q 3641 2581 3239 2228 
Q 2838 1875 2053 1875 
L 1259 1875 
L 1259 0 
L 628 0 
L 628 4666 
z
" transform="scale(0.015625)"/>
       <path id="DejaVuSans-72" d="M 2631 2963 
Q 2534 3019 2420 3045 
Q 2306 3072 2169 3072 
Q 1681 3072 1420 2755 
Q 1159 2438 1159 1844 
L 1159 0 
L 581 0 
L 581 3500 
L 1159 3500 
L 1159 2956 
Q 1341 3275 1631 3429 
Q 1922 3584 2338 3584 
Q 2397 3584 2469 3576 
Q 2541 3569 2628 3553 
L 2631 2963 
z
" transform="scale(0.015625)"/>
       <path id="DejaVuSans-6e" d="M 3513 2113 
L 3513 0 
L 2938 0 
L 2938 2094 
Q 2938 2591 2744 2837 
Q 2550 3084 2163 3084 
Q 1697 3084 1428 2787 
Q 1159 2491 1159 1978 
L 1159 0 
L 581 0 
L 581 3500 
L 1159 3500 
L 1159 2956 
Q 1366 3272 1645 3428 
Q 1925 3584 2291 3584 
Q 2894 3584 3203 3211 
Q 3513 2838 3513 2113 
z
" transform="scale(0.015625)"/>
       <path id="DejaVuSans-69" d="M 603 3500 
L 1178 3500 
L 1178 0 
L 603 0 
L 603 3500 
z
M 603 4863 
L 1178 4863 
L 1178 4134 
L 603 4134 
L 603 4863 
z
" transform="scale(0.015625)"/>
       <path id="DejaVuSans-78" d="M 3513 3500 
L 2247 1797 
L 3578 0 
L 2900 0 
L 1881 1375 
L 863 0 
L 184 0 
L 1544 1831 
L 300 3500 
L 978 3500 
L 1906 2253 
L 2834 3500 
L 3513 3500 
z
" transform="scale(0.015625)"/>
       <path id="DejaVuSans-6c" d="M 603 4863 
L 1178 4863 
L 1178 0 
L 603 0 
L 603 4863 
z
" transform="scale(0.015625)"/>
       <path id="DejaVuSans-28" d="M 1984 4856 
Q 1566 4138 1362 3434 
Q 1159 2731 1159 2009 
Q 1159 1288 1364 580 
Q 1569 -128 1984 -844 
L 1484 -844 
Q 1016 -109 783 600 
Q 550 1309 550 2009 
Q 550 2706 781 3412 
Q 1013 4119 1484 4856 
L 1984 4856 
z
" transform="scale(0.015625)"/>
       <path id="DejaVuSans-77" d="M 269 3500 
L 844 3500 
L 1563 769 
L 2278 3500 
L 2956 3500 
L 3675 769 
L 4391 3500 
L 4966 3500 
L 4050 0 
L 3372 0 
L 2619 2869 
L 1863 0 
L 1184 0 
L 269 3500 
z
" transform="scale(0.015625)"/>
       <path id="DejaVuSans-62" d="M 3116 1747 
Q 3116 2381 2855 2742 
Q 2594 3103 2138 3103 
Q 1681 3103 1420 2742 
Q 1159 2381 1159 1747 
Q 1159 1113 1420 752 
Q 1681 391 2138 391 
Q 2594 391 2855 752 
Q 3116 1113 3116 1747 
z
M 1159 2969 
Q 1341 3281 1617 3432 
Q 1894 3584 2278 3584 
Q 2916 3584 3314 3078 
Q 3713 2572 3713 1747 
Q 3713 922 3314 415 
Q 2916 -91 2278 -91 
Q 1894 -91 1617 61 
Q 1341 213 1159 525 
L 1159 0 
L 581 0 
L 581 4863 
L 1159 4863 
L 1159 2969 
z
" transform="scale(0.015625)"/>
       <path id="DejaVuSans-29" d="M 513 4856 
L 1013 4856 
Q 1481 4119 1714 3412 
Q 1947 2706 1947 2009 
Q 1947 1309 1714 600 
Q 1481 -109 1013 -844 
L 513 -844 
Q 928 -128 1133 580 
Q 1338 1288 1338 2009 
Q 1338 2731 1133 3434 
Q 928 4138 513 4856 
z
" transform="scale(0.015625)"/>
      </defs>
      <use xlink:href="#DejaVuSans-42"/>
      <use xlink:href="#DejaVuSans-79" transform="translate(68.603516 0)"/>
      <use xlink:href="#DejaVuSans-74" transform="translate(127.783203 0)"/>
      <use xlink:href="#DejaVuSans-65" transform="translate(166.992188 0)"/>
      <use xlink:href="#DejaVuSans-73" transform="translate(228.515625 0)"/>
      <use xlink:href="#DejaVuSans-20" transform="translate(280.615234 0)"/>
      <use xlink:href="#DejaVuSans-50" transform="translate(312.402344 0)"/>
      <use xlink:href="#DejaVuSans-65" transform="translate(369.080078 0)"/>
      <use xlink:href="#DejaVuSans-72" transform="translate(430.603516 0)"/>
      <use xlink:href="#DejaVuSans-20" transform="translate(471.716797 0)"/>
      <use xlink:href="#DejaVuSans-50" transform="translate(503.503906 0)"/>
      <use xlink:href="#DejaVuSans-73" transform="translate(562.056641 0)"/>
      <use xlink:href="#DejaVuSans-6e" transform="translate(614.15625 0)"/>
      <use xlink:href="#DejaVuSans-72" transform="translate(677.535156 0)"/>
      <use xlink:href="#DejaVuSans-20" transform="translate(718.648438 0)"/>
      <use xlink:href="#DejaVuSans-50" transform="translate(750.435547 0)"/>
      <use xlink:href="#DejaVuSans-65" transform="translate(807.113281 0)"/>
      <use xlink:href="#DejaVuSans-72" transform="translate(868.636719 0)"/>
      <use xlink:href="#DejaVuSans-20" transform="translate(909.75 0)"/>
      <use xlink:href="#DejaVuSans-50" transform="translate(941.537109 0)"/>
      <use xlink:href="#DejaVuSans-69" transform="translate(999.589844 0)"/>
      <use xlink:href="#DejaVuSans-78" transform="translate(1027.373047 0)"/>
      <use xlink:href="#DejaVuSans-65" transform="translate(1083.427734 0)"/>
      <use xlink:href="#DejaVuSans-6c" transform="translate(1144.951172 0)"/>
      <use xlink:href="#DejaVuSans-20" transform="translate(1172.734375 0)"/>
      <use xlink:href="#DejaVuSans-28" transform="translate(1204.521484 0)"/>
      <use xlink:href="#DejaVuSans-6c" transform="translate(1243.535156 0)"/>
      <use xlink:href="#DejaVuSans-6f" transform="translate(1271.318359 0)"/>
      <use xlink:href="#DejaVuSans-77" transform="translate(1332.5 0)"/>
      <use xlink:href="#DejaVuSans-65" transform="translate(1414.287109 0)"/>
      <use xlink:href="#DejaVuSans-72" transform="translate(1475.810547 0)"/>
      <use xlink:href="#DejaVuSans-20" transform="translate(1516.923828 0)"/>
      <use xlink:href="#DejaVuSans-69" transform="translate(1548.710938 0)"/>
      <use xlink:href="#DejaVuSans-73" transform="translate(1576.494141 0)"/>
      <use xlink:href="#DejaVuSans-20" transform="translate(1628.59375 0)"/>
      <use xlink:href="#DejaVuSans-62" transform="translate(1660.380859 0)"/>
      <use xlink:href="#DejaVuSans-65" transform="translate(1723.857422 0)"/>
      <use xlink:href="#DejaVuSans-74" transform="translate(1785.380859 0)"/>
      <use xlink:href="#DejaVuSans-74" transform="translate(1824.589844 0)"/>
      <use xlink:href="#DejaVuSans-65" transform="translate(1863.798828 0)"/>
      <use xlink:href="#DejaVuSans-72" transform="translate(1925.322266 0)"/>
      <use xlink:href="#DejaVuSans-29" transform="translate(1966.435547 0)"/>
     </g>
    </g>
   </g>
   <g id="line2d_29">
    <path d="M 90.587727 351.778253 
L 188.780152 355.574995 
L 286.972576 364.36991 
L 385.165 368.686947 
L 483.357424 368.560859 
L 581.549848 370.385326 
L 679.742273 372.845455 
" clip-path="url(#p02037d4fa2)" style="fill: none; stroke: #1f77b4; stroke-width: 1.5; stroke-linecap: square"/>
    <defs>
     <path id="m8dd8e2efc5" d="M 0 3.5 
C 0.928211 3.5 1.81853 3.131218 2.474874 2.474874 
C 3.131218 1.81853 3.5 0.928211 3.5 0 
C 3.5 -0.928211 3.131218 -1.81853 2.474874 -2.474874 
C 1.81853 -3.131218 0.928211 -3.5 0 -3.5 
C -0.928211 -3.5 -1.81853 -3.131218 -2.474874 -2.474874 
C -3.131218 -1.81853 -3.5 -0.928211 -3.5 0 
C -3.5 0.928211 -3.131218 1.81853 -2.474874 2.474874 
C -1.81853 3.131218 -0.928211 3.5 0 3.5 
z
" style="stroke: #1f77b4"/>
    </defs>
    <g clip-path="url(#p02037d4fa2)">
     <use xlink:href="#m8dd8e2efc5" x="90.587727" y="351.778253" style="fill: #1f77b4; stroke: #1f77b4"/>
     <use xlink:href="#m8dd8e2efc5" x="188.780152" y="355.574995" style="fill: #1f77b4; stroke: #1f77b4"/>
     <use xlink:href="#m8dd8e2efc5" x="286.972576" y="364.36991" style="fill: #1f77b4; stroke: #1f77b4"/>
     <use xlink:href="#m8dd8e2efc5" x="385.165" y="368.686947" style="fill: #1f77b4; stroke: #1f77b4"/>
     <use xlink:href="#m8dd8e2efc5" x="483.357424" y="368.560859" style="fill: #1f77b4; stroke: #1f77b4"/>
     <use xlink:href="#m8dd8e2efc5" x="581.549848" y="370.385326" style="fill: #1f77b4; stroke: #1f77b4"/>
     <use xlink:href="#m8dd8e2efc5" x="679.742273" y="372.845455" style="fill: #1f77b4; stroke: #1f77b4"/>
    </g>
   </g>
   <g id="line2d_30">
    <path d="M 90.587727 246.013762 
L 188.780152 249.028871 
L 286.972576 259.378437 
L 385.165 265.130674 
L 483.357424 264.980511 
L 581.549848 269.244018 
L 679.742273 272.75969 
" clip-path="url(#p02037d4fa2)" style="fill: none; stroke-dasharray: 5.55,2.4; stroke-dashoffset: 0; stroke: #1f77b4; stroke-width: 1.5"/>
    <defs>
     <path id="mcd1736a930" d="M 0 3.5 
C 0.928211 3.5 1.81853 3.131218 2.474874 2.474874 
C 3.131218 1.81853 3.5 0.928211 3.5 0 
C 3.5 -0.928211 3.131218 -1.81853 2.474874 -2.474874 
C 1.81853 -3.131218 0.928211 -3.5 0 -3.5 
C -0.928211 -3.5 -1.81853 -3.131218 -2.474874 -2.474874 
C -3.131218 -1.81853 -3.5 -0.928211 -3.5 0 
C -3.5 0.928211 -3.131218 1.81853 -2.474874 2.474874 
C -1.81853 3.131218 -0.928211 3.5 0 3.5 
z
" style="stroke: #1f77b4"/>
    </defs>
    <g clip-path="url(#p02037d4fa2)">
     <use xlink:href="#mcd1736a930" x="90.587727" y="246.013762" style="fill-opacity: 0; stroke: #1f77b4"/>
     <use xlink:href="#mcd1736a930" x="188.780152" y="249.028871" style="fill-opacity: 0; stroke: #1f77b4"/>
     <use xlink:href="#mcd1736a930" x="286.972576" y="259.378437" style="fill-opacity: 0; stroke: #1f77b4"/>
     <use xlink:href="#mcd1736a930" x="385.165" y="265.130674" style="fill-opacity: 0; stroke: #1f77b4"/>
     <use xlink:href="#mcd1736a930" x="483.357424" y="264.980511" style="fill-opacity: 0; stroke: #1f77b4"/>
     <use xlink:href="#mcd1736a930" x="581.549848" y="269.244018" style="fill-opacity: 0; stroke: #1f77b4"/>
     <use xlink:href="#mcd1736a930" x="679.742273" y="272.75969" style="fill-opacity: 0; stroke: #1f77b4"/>
    </g>
   </g>
   <g id="line2d_31">
    <path d="M 90.587727 335.966565 
L 188.780152 340.089669 
L 286.972576 347.570969 
L 385.165 351.588159 
L 483.357424 351.473175 
L 581.549848 353.516117 
L 679.742273 356.004176 
" clip-path="url(#p02037d4fa2)" style="fill: none; stroke: #ff7f0e; stroke-width: 1.5; stroke-linecap: square"/>
    <defs>
     <path id="mc2c886bf4d" d="M -3.5 3.5 
L 3.5 3.5 
L 3.5 -3.5 
L -3.5 -3.5 
z
" style="stroke: #ff7f0e; stroke-linejoin: miter"/>
    </defs>
    <g clip-path="url(#p02037d4fa2)">
     <use xlink:href="#mc2c886bf4d" x="90.587727" y="335.966565" style="fill: #ff7f0e; stroke: #ff7f0e; stroke-linejoin: miter"/>
     <use xlink:href="#mc2c886bf4d" x="188.780152" y="340.089669" style="fill: #ff7f0e; stroke: #ff7f0e; stroke-linejoin: miter"/>
     <use xlink:href="#mc2c886bf4d" x="286.972576" y="347.570969" style="fill: #ff7f0e; stroke: #ff7f0e; stroke-linejoin: miter"/>
     <use xlink:href="#mc2c886bf4d" x="385.165" y="351.588159" style="fill: #ff7f0e; stroke: #ff7f0e; stroke-linejoin: miter"/>
     <use xlink:href="#mc2c886bf4d" x="483.357424" y="351.473175" style="fill: #ff7f0e; stroke: #ff7f0e; stroke-linejoin: miter"/>
     <use xlink:href="#mc2c886bf4d" x="581.549848" y="353.516117" style="fill: #ff7f0e; stroke: #ff7f0e; stroke-linejoin: miter"/>
     <use xlink:href="#mc2c886bf4d" x="679.742273" y="356.004176" style="fill: #ff7f0e; stroke: #ff7f0e; stroke-linejoin: miter"/>
    </g>
   </g>
   <g id="line2d_32">
    <path d="M 90.587727 217.129816 
L 188.780152 220.510982 
L 286.972576 227.872294 
L 385.165 233.115038 
L 483.357424 232.936009 
L 581.549848 237.10322 
L 679.742273 240.611251 
" clip-path="url(#p02037d4fa2)" style="fill: none; stroke-dasharray: 5.55,2.4; stroke-dashoffset: 0; stroke: #ff7f0e; stroke-width: 1.5"/>
    <defs>
     <path id="m70251684ac" d="M -3.5 3.5 
L 3.5 3.5 
L 3.5 -3.5 
L -3.5 -3.5 
z
" style="stroke: #ff7f0e; stroke-linejoin: miter"/>
    </defs>
    <g clip-path="url(#p02037d4fa2)">
     <use xlink:href="#m70251684ac" x="90.587727" y="217.129816" style="fill-opacity: 0; stroke: #ff7f0e; stroke-linejoin: miter"/>
     <use xlink:href="#m70251684ac" x="188.780152" y="220.510982" style="fill-opacity: 0; stroke: #ff7f0e; stroke-linejoin: miter"/>
     <use xlink:href="#m70251684ac" x="286.972576" y="227.872294" style="fill-opacity: 0; stroke: #ff7f0e; stroke-linejoin: miter"/>
     <use xlink:href="#m70251684ac" x="385.165" y="233.115038" style="fill-opacity: 0; stroke: #ff7f0e; stroke-linejoin: miter"/>
     <use xlink:href="#m70251684ac" x="483.357424" y="232.936009" style="fill-opacity: 0; stroke: #ff7f0e; stroke-linejoin: miter"/>
     <use xlink:href="#m70251684ac" x="581.549848" y="237.10322" style="fill-opacity: 0; stroke: #ff7f0e; stroke-linejoin: miter"/>
     <use xlink:href="#m70251684ac" x="679.742273" y="240.611251" style="fill-opacity: 0; stroke: #ff7f0e; stroke-linejoin: miter"/>
    </g>
   </g>
   <g id="line2d_33">
    <path d="M 90.587727 312.61839 
L 188.780152 317.396463 
L 286.972576 325.502879 
L 385.165 329.078598 
L 483.357424 328.903325 
L 581.549848 331.772338 
L 679.742273 334.18203 
" clip-path="url(#p02037d4fa2)" style="fill: none; stroke: #2ca02c; stroke-width: 1.5; stroke-linecap: square"/>
    <defs>
     <path id="m64a8fff58d" d="M 0 -3.5 
L -3.5 3.5 
L 3.5 3.5 
z
" style="stroke: #2ca02c; stroke-linejoin: miter"/>
    </defs>
    <g clip-path="url(#p02037d4fa2)">
     <use xlink:href="#m64a8fff58d" x="90.587727" y="312.61839" style="fill: #2ca02c; stroke: #2ca02c; stroke-linejoin: miter"/>
     <use xlink:href="#m64a8fff58d" x="188.780152" y="317.396463" style="fill: #2ca02c; stroke: #2ca02c; stroke-linejoin: miter"/>
     <use xlink:href="#m64a8fff58d" x="286.972576" y="325.502879" style="fill: #2ca02c; stroke: #2ca02c; stroke-linejoin: miter"/>
     <use xlink:href="#m64a8fff58d" x="385.165" y="329.078598" style="fill: #2ca02c; stroke: #2ca02c; stroke-linejoin: miter"/>
     <use xlink:href="#m64a8fff58d" x="483.357424" y="328.903325" style="fill: #2ca02c; stroke: #2ca02c; stroke-linejoin: miter"/>
     <use xlink:href="#m64a8fff58d" x="581.549848" y="331.772338" style="fill: #2ca02c; stroke: #2ca02c; stroke-linejoin: miter"/>
     <use xlink:href="#m64a8fff58d" x="679.742273" y="334.18203" style="fill: #2ca02c; stroke: #2ca02c; stroke-linejoin: miter"/>
    </g>
   </g>
   <g id="line2d_34">
    <path d="M 90.587727 180.380038 
L 188.780152 184.352061 
L 286.972576 189.269631 
L 385.165 193.193155 
L 483.357424 192.879448 
L 581.549848 197.585969 
L 679.742273 200.193887 
" clip-path="url(#p02037d4fa2)" style="fill: none; stroke-dasharray: 5.55,2.4; stroke-dashoffset: 0; stroke: #2ca02c; stroke-width: 1.5"/>
    <defs>
     <path id="mc3db31f84f" d="M 0 -3.5 
L -3.5 3.5 
L 3.5 3.5 
z
" style="stroke: #2ca02c; stroke-linejoin: miter"/>
    </defs>
    <g clip-path="url(#p02037d4fa2)">
     <use xlink:href="#mc3db31f84f" x="90.587727" y="180.380038" style="fill-opacity: 0; stroke: #2ca02c; stroke-linejoin: miter"/>
     <use xlink:href="#mc3db31f84f" x="188.780152" y="184.352061" style="fill-opacity: 0; stroke: #2ca02c; stroke-linejoin: miter"/>
     <use xlink:href="#mc3db31f84f" x="286.972576" y="189.269631" style="fill-opacity: 0; stroke: #2ca02c; stroke-linejoin: miter"/>
     <use xlink:href="#mc3db31f84f" x="385.165" y="193.193155" style="fill-opacity: 0; stroke: #2ca02c; stroke-linejoin: miter"/>
     <use xlink:href="#mc3db31f84f" x="483.357424" y="192.879448" style="fill-opacity: 0; stroke: #2ca02c; stroke-linejoin: miter"/>
     <use xlink:href="#mc3db31f84f" x="581.549848" y="197.585969" style="fill-opacity: 0; stroke: #2ca02c; stroke-linejoin: miter"/>
     <use xlink:href="#mc3db31f84f" x="679.742273" y="200.193887" style="fill-opacity: 0; stroke: #2ca02c; stroke-linejoin: miter"/>
    </g>
   </g>
   <g id="line2d_35">
    <path d="M 90.587727 284.122629 
L 188.780152 289.269315 
L 286.972576 293.177321 
L 385.165 295.430858 
L 483.357424 295.182199 
L 581.549848 297.796496 
L 679.742273 300.096136 
" clip-path="url(#p02037d4fa2)" style="fill: none; stroke: #d62728; stroke-width: 1.5; stroke-linecap: square"/>
    <defs>
     <path id="m55bd126bde" d="M -0 4.949747 
L 4.949747 0 
L 0 -4.949747 
L -4.949747 -0 
z
" style="stroke: #d62728; stroke-linejoin: miter"/>
    </defs>
    <g clip-path="url(#p02037d4fa2)">
     <use xlink:href="#m55bd126bde" x="90.587727" y="284.122629" style="fill: #d62728; stroke: #d62728; stroke-linejoin: miter"/>
     <use xlink:href="#m55bd126bde" x="188.780152" y="289.269315" style="fill: #d62728; stroke: #d62728; stroke-linejoin: miter"/>
     <use xlink:href="#m55bd126bde" x="286.972576" y="293.177321" style="fill: #d62728; stroke: #d62728; stroke-linejoin: miter"/>
     <use xlink:href="#m55bd126bde" x="385.165" y="295.430858" style="fill: #d62728; stroke: #d62728; stroke-linejoin: miter"/>
     <use xlink:href="#m55bd126bde" x="483.357424" y="295.182199" style="fill: #d62728; stroke: #d62728; stroke-linejoin: miter"/>
     <use xlink:href="#m55bd126bde" x="581.549848" y="297.796496" style="fill: #d62728; stroke: #d62728; stroke-linejoin: miter"/>
     <use xlink:href="#m55bd126bde" x="679.742273" y="300.096136" style="fill: #d62728; stroke: #d62728; stroke-linejoin: miter"/>
    </g>
   </g>
   <g id="line2d_36">
    <path d="M 90.587727 129.004192 
L 188.780152 132.759221 
L 286.972576 138.664871 
L 385.165 140.324134 
L 483.357424 139.943334 
L 581.549848 143.239676 
L 679.742273 144.955882 
" clip-path="url(#p02037d4fa2)" style="fill: none; stroke-dasharray: 5.55,2.4; stroke-dashoffset: 0; stroke: #d62728; stroke-width: 1.5"/>
    <defs>
     <path id="ma1664f4765" d="M -0 4.949747 
L 4.949747 0 
L 0 -4.949747 
L -4.949747 -0 
z
" style="stroke: #d62728; stroke-linejoin: miter"/>
    </defs>
    <g clip-path="url(#p02037d4fa2)">
     <use xlink:href="#ma1664f4765" x="90.587727" y="129.004192" style="fill-opacity: 0; stroke: #d62728; stroke-linejoin: miter"/>
     <use xlink:href="#ma1664f4765" x="188.780152" y="132.759221" style="fill-opacity: 0; stroke: #d62728; stroke-linejoin: miter"/>
     <use xlink:href="#ma1664f4765" x="286.972576" y="138.664871" style="fill-opacity: 0; stroke: #d62728; stroke-linejoin: miter"/>
     <use xlink:href="#ma1664f4765" x="385.165" y="140.324134" style="fill-opacity: 0; stroke: #d62728; stroke-linejoin: miter"/>
     <use xlink:href="#ma1664f4765" x="483.357424" y="139.943334" style="fill-opacity: 0; stroke: #d62728; stroke-linejoin: miter"/>
     <use xlink:href="#ma1664f4765" x="581.549848" y="143.239676" style="fill-opacity: 0; stroke: #d62728; stroke-linejoin: miter"/>
     <use xlink:href="#ma1664f4765" x="679.742273" y="144.955882" style="fill-opacity: 0; stroke: #d62728; stroke-linejoin: miter"/>
    </g>
   </g>
   <g id="line2d_37">
    <path d="M 90.587727 228.010924 
L 188.780152 235.054483 
L 286.972576 236.651824 
L 385.165 236.857763 
L 483.357424 236.559872 
L 581.549848 240.33544 
L 679.742273 242.943306 
" clip-path="url(#p02037d4fa2)" style="fill: none; stroke: #9467bd; stroke-width: 1.5; stroke-linecap: square"/>
    <defs>
     <path id="mf6e885fe29" d="M -0 3.5 
L 3.5 -3.5 
L -3.5 -3.5 
z
" style="stroke: #9467bd; stroke-linejoin: miter"/>
    </defs>
    <g clip-path="url(#p02037d4fa2)">
     <use xlink:href="#mf6e885fe29" x="90.587727" y="228.010924" style="fill: #9467bd; stroke: #9467bd; stroke-linejoin: miter"/>
     <use xlink:href="#mf6e885fe29" x="188.780152" y="235.054483" style="fill: #9467bd; stroke: #9467bd; stroke-linejoin: miter"/>
     <use xlink:href="#mf6e885fe29" x="286.972576" y="236.651824" style="fill: #9467bd; stroke: #9467bd; stroke-linejoin: miter"/>
     <use xlink:href="#mf6e885fe29" x="385.165" y="236.857763" style="fill: #9467bd; stroke: #9467bd; stroke-linejoin: miter"/>
     <use xlink:href="#mf6e885fe29" x="483.357424" y="236.559872" style="fill: #9467bd; stroke: #9467bd; stroke-linejoin: miter"/>
     <use xlink:href="#mf6e885fe29" x="581.549848" y="240.33544" style="fill: #9467bd; stroke: #9467bd; stroke-linejoin: miter"/>
     <use xlink:href="#mf6e885fe29" x="679.742273" y="242.943306" style="fill: #9467bd; stroke: #9467bd; stroke-linejoin: miter"/>
    </g>
   </g>
   <g id="line2d_38">
    <path d="M 90.587727 43.354545 
L 188.780152 48.027106 
L 286.972576 62.116249 
L 385.165 59.902258 
L 483.357424 59.580677 
L 581.549848 60.683809 
L 679.742273 62.339427 
" clip-path="url(#p02037d4fa2)" style="fill: none; stroke-dasharray: 5.55,2.4; stroke-dashoffset: 0; stroke: #9467bd; stroke-width: 1.5"/>
    <defs>
     <path id="m9d5f0437e9" d="M -0 3.5 
L 3.5 -3.5 
L -3.5 -3.5 
z
" style="stroke: #9467bd; stroke-linejoin: miter"/>
    </defs>
    <g clip-path="url(#p02037d4fa2)">
     <use xlink:href="#m9d5f0437e9" x="90.587727" y="43.354545" style="fill-opacity: 0; stroke: #9467bd; stroke-linejoin: miter"/>
     <use xlink:href="#m9d5f0437e9" x="188.780152" y="48.027106" style="fill-opacity: 0; stroke: #9467bd; stroke-linejoin: miter"/>
     <use xlink:href="#m9d5f0437e9" x="286.972576" y="62.116249" style="fill-opacity: 0; stroke: #9467bd; stroke-linejoin: miter"/>
     <use xlink:href="#m9d5f0437e9" x="385.165" y="59.902258" style="fill-opacity: 0; stroke: #9467bd; stroke-linejoin: miter"/>
     <use xlink:href="#m9d5f0437e9" x="483.357424" y="59.580677" style="fill-opacity: 0; stroke: #9467bd; stroke-linejoin: miter"/>
     <use xlink:href="#m9d5f0437e9" x="581.549848" y="60.683809" style="fill-opacity: 0; stroke: #9467bd; stroke-linejoin: miter"/>
     <use xlink:href="#m9d5f0437e9" x="679.742273" y="62.339427" style="fill-opacity: 0; stroke: #9467bd; stroke-linejoin: miter"/>
    </g>
   </g>
   <g id="patch_3">
    <path d="M 61.13 389.32 
L 61.13 26.88 
" style="fill: none; stroke: #000000; stroke-width: 0.8; stroke-linejoin: miter; stroke-linecap: square"/>
   </g>
   <g id="patch_4">
    <path d="M 709.2 389.32 
L 709.2 26.88 
" style="fill: none; stroke: #000000; stroke-width: 0.8; stroke-linejoin: miter; stroke-linecap: square"/>
   </g>
   <g id="patch_5">
    <path d="M 61.13 389.32 
L 709.2 389.32 
" style="fill: none; stroke: #000000; stroke-width: 0.8; stroke-linejoin: miter; stroke-linecap: square"/>
   </g>
   <g id="patch_6">
    <path d="M 61.13 26.88 
L 709.2 26.88 
" style="fill: none; stroke: #000000; stroke-width: 0.8; stroke-linejoin: miter; stroke-linecap: square"/>
   </g>
   <g id="text_17">
    <!-- Bytes Per Psnr Per Pixel vs Method -->
    <g transform="translate(281.808438 20.88) scale(0.12 -0.12)">
     <defs>
      <path id="DejaVuSans-76" d="M 191 3500 
L 800 3500 
L 1894 563 
L 2988 3500 
L 3597 3500 
L 2284 0 
L 1503 0 
L 191 3500 
z
" transform="scale(0.015625)"/>
     </defs>
     <use xlink:href="#DejaVuSans-42"/>
     <use xlink:href="#DejaVuSans-79" transform="translate(68.603516 0)"/>
     <use xlink:href="#DejaVuSans-74" transform="translate(127.783203 0)"/>
     <use xlink:href="#DejaVuSans-65" transform="translate(166.992188 0)"/>
     <use xlink:href="#DejaVuSans-73" transform="translate(228.515625 0)"/>
     <use xlink:href="#DejaVuSans-20" transform="translate(280.615234 0)"/>
     <use xlink:href="#DejaVuSans-50" transform="translate(312.402344 0)"/>
     <use xlink:href="#DejaVuSans-65" transform="translate(369.080078 0)"/>
     <use xlink:href="#DejaVuSans-72" transform="translate(430.603516 0)"/>
     <use xlink:href="#DejaVuSans-20" transform="translate(471.716797 0)"/>
     <use xlink:href="#DejaVuSans-50" transform="translate(503.503906 0)"/>
     <use xlink:href="#DejaVuSans-73" transform="translate(562.056641 0)"/>
     <use xlink:href="#DejaVuSans-6e" transform="translate(614.15625 0)"/>
     <use xlink:href="#DejaVuSans-72" transform="translate(677.535156 0)"/>
     <use xlink:href="#DejaVuSans-20" transform="translate(718.648438 0)"/>
     <use xlink:href="#DejaVuSans-50" transform="translate(750.435547 0)"/>
     <use xlink:href="#DejaVuSans-65" transform="translate(807.113281 0)"/>
     <use xlink:href="#DejaVuSans-72" transform="translate(868.636719 0)"/>
     <use xlink:href="#DejaVuSans-20" transform="translate(909.75 0)"/>
     <use xlink:href="#DejaVuSans-50" transform="translate(941.537109 0)"/>
     <use xlink:href="#DejaVuSans-69" transform="translate(999.589844 0)"/>
     <use xlink:href="#DejaVuSans-78" transform="translate(1027.373047 0)"/>
     <use xlink:href="#DejaVuSans-65" transform="translate(1083.427734 0)"/>
     <use xlink:href="#DejaVuSans-6c" transform="translate(1144.951172 0)"/>
     <use xlink:href="#DejaVuSans-20" transform="translate(1172.734375 0)"/>
     <use xlink:href="#DejaVuSans-76" transform="translate(1204.521484 0)"/>
     <use xlink:href="#DejaVuSans-73" transform="translate(1263.701172 0)"/>
     <use xlink:href="#DejaVuSans-20" transform="translate(1315.800781 0)"/>
     <use xlink:href="#DejaVuSans-4d" transform="translate(1347.587891 0)"/>
     <use xlink:href="#DejaVuSans-65" transform="translate(1433.867188 0)"/>
     <use xlink:href="#DejaVuSans-74" transform="translate(1495.390625 0)"/>
     <use xlink:href="#DejaVuSans-68" transform="translate(1534.599609 0)"/>
     <use xlink:href="#DejaVuSans-6f" transform="translate(1597.978516 0)"/>
     <use xlink:href="#DejaVuSans-64" transform="translate(1659.160156 0)"/>
    </g>
   </g>
   <g id="legend_1">
    <g id="patch_7">
     <path d="M 296.93625 91.9925 
L 473.39375 91.9925 
Q 474.99375 91.9925 474.99375 90.3925 
L 474.99375 32.48 
Q 474.99375 30.88 473.39375 30.88 
L 296.93625 30.88 
Q 295.33625 30.88 295.33625 32.48 
L 295.33625 90.3925 
Q 295.33625 91.9925 296.93625 91.9925 
z
" style="fill: #ffffff; opacity: 0.8; stroke: #cccccc; stroke-linejoin: miter"/>
    </g>
    <g id="line2d_39">
     <path d="M 298.53625 37.35875 
L 306.53625 37.35875 
L 314.53625 37.35875 
" style="fill: none; stroke: #1f77b4; stroke-width: 1.5; stroke-linecap: square"/>
     <g>
      <use xlink:href="#m8dd8e2efc5" x="306.53625" y="37.35875" style="fill: #1f77b4; stroke: #1f77b4"/>
     </g>
    </g>
    <g id="text_18">
     <!-- 75 (mean) -->
     <g transform="translate(320.93625 40.15875) scale(0.08 -0.08)">
      <defs>
       <path id="DejaVuSans-37" d="M 525 4666 
L 3525 4666 
L 3525 4397 
L 1831 0 
L 1172 0 
L 2766 4134 
L 525 4134 
L 525 4666 
z
" transform="scale(0.015625)"/>
       <path id="DejaVuSans-6d" d="M 3328 2828 
Q 3544 3216 3844 3400 
Q 4144 3584 4550 3584 
Q 5097 3584 5394 3201 
Q 5691 2819 5691 2113 
L 5691 0 
L 5113 0 
L 5113 2094 
Q 5113 2597 4934 2840 
Q 4756 3084 4391 3084 
Q 3944 3084 3684 2787 
Q 3425 2491 3425 1978 
L 3425 0 
L 2847 0 
L 2847 2094 
Q 2847 2600 2669 2842 
Q 2491 3084 2119 3084 
Q 1678 3084 1418 2786 
Q 1159 2488 1159 1978 
L 1159 0 
L 581 0 
L 581 3500 
L 1159 3500 
L 1159 2956 
Q 1356 3278 1631 3431 
Q 1906 3584 2284 3584 
Q 2666 3584 2933 3390 
Q 3200 3197 3328 2828 
z
" transform="scale(0.015625)"/>
       <path id="DejaVuSans-61" d="M 2194 1759 
Q 1497 1759 1228 1600 
Q 959 1441 959 1056 
Q 959 750 1161 570 
Q 1363 391 1709 391 
Q 2188 391 2477 730 
Q 2766 1069 2766 1631 
L 2766 1759 
L 2194 1759 
z
M 3341 1997 
L 3341 0 
L 2766 0 
L 2766 531 
Q 2569 213 2275 61 
Q 1981 -91 1556 -91 
Q 1019 -91 701 211 
Q 384 513 384 1019 
Q 384 1609 779 1909 
Q 1175 2209 1959 2209 
L 2766 2209 
L 2766 2266 
Q 2766 2663 2505 2880 
Q 2244 3097 1772 3097 
Q 1472 3097 1187 3025 
Q 903 2953 641 2809 
L 641 3341 
Q 956 3463 1253 3523 
Q 1550 3584 1831 3584 
Q 2591 3584 2966 3190 
Q 3341 2797 3341 1997 
z
" transform="scale(0.015625)"/>
      </defs>
      <use xlink:href="#DejaVuSans-37"/>
      <use xlink:href="#DejaVuSans-35" transform="translate(63.623047 0)"/>
      <use xlink:href="#DejaVuSans-20" transform="translate(127.246094 0)"/>
      <use xlink:href="#DejaVuSans-28" transform="translate(159.033203 0)"/>
      <use xlink:href="#DejaVuSans-6d" transform="translate(198.046875 0)"/>
      <use xlink:href="#DejaVuSans-65" transform="translate(295.458984 0)"/>
      <use xlink:href="#DejaVuSans-61" transform="translate(356.982422 0)"/>
      <use xlink:href="#DejaVuSans-6e" transform="translate(418.261719 0)"/>
      <use xlink:href="#DejaVuSans-29" transform="translate(481.640625 0)"/>
     </g>
    </g>
    <g id="line2d_40">
     <path d="M 298.53625 49.10125 
L 306.53625 49.10125 
L 314.53625 49.10125 
" style="fill: none; stroke-dasharray: 5.55,2.4; stroke-dashoffset: 0; stroke: #1f77b4; stroke-width: 1.5"/>
     <g>
      <use xlink:href="#mcd1736a930" x="306.53625" y="49.10125" style="fill-opacity: 0; stroke: #1f77b4"/>
     </g>
    </g>
    <g id="text_19">
     <!-- 75 (5% worst) -->
     <g transform="translate(320.93625 51.90125) scale(0.08 -0.08)">
      <defs>
       <path id="DejaVuSans-25" d="M 4653 2053 
Q 4381 2053 4226 1822 
Q 4072 1591 4072 1178 
Q 4072 772 4226 539 
Q 4381 306 4653 306 
Q 4919 306 5073 539 
Q 5228 772 5228 1178 
Q 5228 1588 5073 1820 
Q 4919 2053 4653 2053 
z
M 4653 2450 
Q 5147 2450 5437 2106 
Q 5728 1763 5728 1178 
Q 5728 594 5436 251 
Q 5144 -91 4653 -91 
Q 4153 -91 3862 251 
Q 3572 594 3572 1178 
Q 3572 1766 3864 2108 
Q 4156 2450 4653 2450 
z
M 1428 4353 
Q 1159 4353 1004 4120 
Q 850 3888 850 3481 
Q 850 3069 1003 2837 
Q 1156 2606 1428 2606 
Q 1700 2606 1854 2837 
Q 2009 3069 2009 3481 
Q 2009 3884 1853 4118 
Q 1697 4353 1428 4353 
z
M 4250 4750 
L 4750 4750 
L 1831 -91 
L 1331 -91 
L 4250 4750 
z
M 1428 4750 
Q 1922 4750 2215 4408 
Q 2509 4066 2509 3481 
Q 2509 2891 2217 2550 
Q 1925 2209 1428 2209 
Q 931 2209 642 2551 
Q 353 2894 353 3481 
Q 353 4063 643 4406 
Q 934 4750 1428 4750 
z
" transform="scale(0.015625)"/>
      </defs>
      <use xlink:href="#DejaVuSans-37"/>
      <use xlink:href="#DejaVuSans-35" transform="translate(63.623047 0)"/>
      <use xlink:href="#DejaVuSans-20" transform="translate(127.246094 0)"/>
      <use xlink:href="#DejaVuSans-28" transform="translate(159.033203 0)"/>
      <use xlink:href="#DejaVuSans-35" transform="translate(198.046875 0)"/>
      <use xlink:href="#DejaVuSans-25" transform="translate(261.669922 0)"/>
      <use xlink:href="#DejaVuSans-20" transform="translate(356.689453 0)"/>
      <use xlink:href="#DejaVuSans-77" transform="translate(388.476562 0)"/>
      <use xlink:href="#DejaVuSans-6f" transform="translate(470.263672 0)"/>
      <use xlink:href="#DejaVuSans-72" transform="translate(531.445312 0)"/>
      <use xlink:href="#DejaVuSans-73" transform="translate(572.558594 0)"/>
      <use xlink:href="#DejaVuSans-74" transform="translate(624.658203 0)"/>
      <use xlink:href="#DejaVuSans-29" transform="translate(663.867188 0)"/>
     </g>
    </g>
    <g id="line2d_41">
     <path d="M 298.53625 60.84375 
L 306.53625 60.84375 
L 314.53625 60.84375 
" style="fill: none; stroke: #ff7f0e; stroke-width: 1.5; stroke-linecap: square"/>
     <g>
      <use xlink:href="#mc2c886bf4d" x="306.53625" y="60.84375" style="fill: #ff7f0e; stroke: #ff7f0e; stroke-linejoin: miter"/>
     </g>
    </g>
    <g id="text_20">
     <!-- 80 (mean) -->
     <g transform="translate(320.93625 63.64375) scale(0.08 -0.08)">
      <use xlink:href="#DejaVuSans-38"/>
      <use xlink:href="#DejaVuSans-30" transform="translate(63.623047 0)"/>
      <use xlink:href="#DejaVuSans-20" transform="translate(127.246094 0)"/>
      <use xlink:href="#DejaVuSans-28" transform="translate(159.033203 0)"/>
      <use xlink:href="#DejaVuSans-6d" transform="translate(198.046875 0)"/>
      <use xlink:href="#DejaVuSans-65" transform="translate(295.458984 0)"/>
      <use xlink:href="#DejaVuSans-61" transform="translate(356.982422 0)"/>
      <use xlink:href="#DejaVuSans-6e" transform="translate(418.261719 0)"/>
      <use xlink:href="#DejaVuSans-29" transform="translate(481.640625 0)"/>
     </g>
    </g>
    <g id="line2d_42">
     <path d="M 298.53625 72.58625 
L 306.53625 72.58625 
L 314.53625 72.58625 
" style="fill: none; stroke-dasharray: 5.55,2.4; stroke-dashoffset: 0; stroke: #ff7f0e; stroke-width: 1.5"/>
     <g>
      <use xlink:href="#m70251684ac" x="306.53625" y="72.58625" style="fill-opacity: 0; stroke: #ff7f0e; stroke-linejoin: miter"/>
     </g>
    </g>
    <g id="text_21">
     <!-- 80 (5% worst) -->
     <g transform="translate(320.93625 75.38625) scale(0.08 -0.08)">
      <use xlink:href="#DejaVuSans-38"/>
      <use xlink:href="#DejaVuSans-30" transform="translate(63.623047 0)"/>
      <use xlink:href="#DejaVuSans-20" transform="translate(127.246094 0)"/>
      <use xlink:href="#DejaVuSans-28" transform="translate(159.033203 0)"/>
      <use xlink:href="#DejaVuSans-35" transform="translate(198.046875 0)"/>
      <use xlink:href="#DejaVuSans-25" transform="translate(261.669922 0)"/>
      <use xlink:href="#DejaVuSans-20" transform="translate(356.689453 0)"/>
      <use xlink:href="#DejaVuSans-77" transform="translate(388.476562 0)"/>
      <use xlink:href="#DejaVuSans-6f" transform="translate(470.263672 0)"/>
      <use xlink:href="#DejaVuSans-72" transform="translate(531.445312 0)"/>
      <use xlink:href="#DejaVuSans-73" transform="translate(572.558594 0)"/>
      <use xlink:href="#DejaVuSans-74" transform="translate(624.658203 0)"/>
      <use xlink:href="#DejaVuSans-29" transform="translate(663.867188 0)"/>
     </g>
    </g>
    <g id="line2d_43">
     <path d="M 298.53625 84.32875 
L 306.53625 84.32875 
L 314.53625 84.32875 
" style="fill: none; stroke: #2ca02c; stroke-width: 1.5; stroke-linecap: square"/>
     <g>
      <use xlink:href="#m64a8fff58d" x="306.53625" y="84.32875" style="fill: #2ca02c; stroke: #2ca02c; stroke-linejoin: miter"/>
     </g>
    </g>
    <g id="text_22">
     <!-- 85 (mean) -->
     <g transform="translate(320.93625 87.12875) scale(0.08 -0.08)">
      <use xlink:href="#DejaVuSans-38"/>
      <use xlink:href="#DejaVuSans-35" transform="translate(63.623047 0)"/>
      <use xlink:href="#DejaVuSans-20" transform="translate(127.246094 0)"/>
      <use xlink:href="#DejaVuSans-28" transform="translate(159.033203 0)"/>
      <use xlink:href="#DejaVuSans-6d" transform="translate(198.046875 0)"/>
      <use xlink:href="#DejaVuSans-65" transform="translate(295.458984 0)"/>
      <use xlink:href="#DejaVuSans-61" transform="translate(356.982422 0)"/>
      <use xlink:href="#DejaVuSans-6e" transform="translate(418.261719 0)"/>
      <use xlink:href="#DejaVuSans-29" transform="translate(481.640625 0)"/>
     </g>
    </g>
    <g id="line2d_44">
     <path d="M 393.165 37.35875 
L 401.165 37.35875 
L 409.165 37.35875 
" style="fill: none; stroke-dasharray: 5.55,2.4; stroke-dashoffset: 0; stroke: #2ca02c; stroke-width: 1.5"/>
     <g>
      <use xlink:href="#mc3db31f84f" x="401.165" y="37.35875" style="fill-opacity: 0; stroke: #2ca02c; stroke-linejoin: miter"/>
     </g>
    </g>
    <g id="text_23">
     <!-- 85 (5% worst) -->
     <g transform="translate(415.565 40.15875) scale(0.08 -0.08)">
      <use xlink:href="#DejaVuSans-38"/>
      <use xlink:href="#DejaVuSans-35" transform="translate(63.623047 0)"/>
      <use xlink:href="#DejaVuSans-20" transform="translate(127.246094 0)"/>
      <use xlink:href="#DejaVuSans-28" transform="translate(159.033203 0)"/>
      <use xlink:href="#DejaVuSans-35" transform="translate(198.046875 0)"/>
      <use xlink:href="#DejaVuSans-25" transform="translate(261.669922 0)"/>
      <use xlink:href="#DejaVuSans-20" transform="translate(356.689453 0)"/>
      <use xlink:href="#DejaVuSans-77" transform="translate(388.476562 0)"/>
      <use xlink:href="#DejaVuSans-6f" transform="translate(470.263672 0)"/>
      <use xlink:href="#DejaVuSans-72" transform="translate(531.445312 0)"/>
      <use xlink:href="#DejaVuSans-73" transform="translate(572.558594 0)"/>
      <use xlink:href="#DejaVuSans-74" transform="translate(624.658203 0)"/>
      <use xlink:href="#DejaVuSans-29" transform="translate(663.867188 0)"/>
     </g>
    </g>
    <g id="line2d_45">
     <path d="M 393.165 49.10125 
L 401.165 49.10125 
L 409.165 49.10125 
" style="fill: none; stroke: #d62728; stroke-width: 1.5; stroke-linecap: square"/>
     <g>
      <use xlink:href="#m55bd126bde" x="401.165" y="49.10125" style="fill: #d62728; stroke: #d62728; stroke-linejoin: miter"/>
     </g>
    </g>
    <g id="text_24">
     <!-- 90 (mean) -->
     <g transform="translate(415.565 51.90125) scale(0.08 -0.08)">
      <defs>
       <path id="DejaVuSans-39" d="M 703 97 
L 703 672 
Q 941 559 1184 500 
Q 1428 441 1663 441 
Q 2288 441 2617 861 
Q 2947 1281 2994 2138 
Q 2813 1869 2534 1725 
Q 2256 1581 1919 1581 
Q 1219 1581 811 2004 
Q 403 2428 403 3163 
Q 403 3881 828 4315 
Q 1253 4750 1959 4750 
Q 2769 4750 3195 4129 
Q 3622 3509 3622 2328 
Q 3622 1225 3098 567 
Q 2575 -91 1691 -91 
Q 1453 -91 1209 -44 
Q 966 3 703 97 
z
M 1959 2075 
Q 2384 2075 2632 2365 
Q 2881 2656 2881 3163 
Q 2881 3666 2632 3958 
Q 2384 4250 1959 4250 
Q 1534 4250 1286 3958 
Q 1038 3666 1038 3163 
Q 1038 2656 1286 2365 
Q 1534 2075 1959 2075 
z
" transform="scale(0.015625)"/>
      </defs>
      <use xlink:href="#DejaVuSans-39"/>
      <use xlink:href="#DejaVuSans-30" transform="translate(63.623047 0)"/>
      <use xlink:href="#DejaVuSans-20" transform="translate(127.246094 0)"/>
      <use xlink:href="#DejaVuSans-28" transform="translate(159.033203 0)"/>
      <use xlink:href="#DejaVuSans-6d" transform="translate(198.046875 0)"/>
      <use xlink:href="#DejaVuSans-65" transform="translate(295.458984 0)"/>
      <use xlink:href="#DejaVuSans-61" transform="translate(356.982422 0)"/>
      <use xlink:href="#DejaVuSans-6e" transform="translate(418.261719 0)"/>
      <use xlink:href="#DejaVuSans-29" transform="translate(481.640625 0)"/>
     </g>
    </g>
    <g id="line2d_46">
     <path d="M 393.165 60.84375 
L 401.165 60.84375 
L 409.165 60.84375 
" style="fill: none; stroke-dasharray: 5.55,2.4; stroke-dashoffset: 0; stroke: #d62728; stroke-width: 1.5"/>
     <g>
      <use xlink:href="#ma1664f4765" x="401.165" y="60.84375" style="fill-opacity: 0; stroke: #d62728; stroke-linejoin: miter"/>
     </g>
    </g>
    <g id="text_25">
     <!-- 90 (5% worst) -->
     <g transform="translate(415.565 63.64375) scale(0.08 -0.08)">
      <use xlink:href="#DejaVuSans-39"/>
      <use xlink:href="#DejaVuSans-30" transform="translate(63.623047 0)"/>
      <use xlink:href="#DejaVuSans-20" transform="translate(127.246094 0)"/>
      <use xlink:href="#DejaVuSans-28" transform="translate(159.033203 0)"/>
      <use xlink:href="#DejaVuSans-35" transform="translate(198.046875 0)"/>
      <use xlink:href="#DejaVuSans-25" transform="translate(261.669922 0)"/>
      <use xlink:href="#DejaVuSans-20" transform="translate(356.689453 0)"/>
      <use xlink:href="#DejaVuSans-77" transform="translate(388.476562 0)"/>
      <use xlink:href="#DejaVuSans-6f" transform="translate(470.263672 0)"/>
      <use xlink:href="#DejaVuSans-72" transform="translate(531.445312 0)"/>
      <use xlink:href="#DejaVuSans-73" transform="translate(572.558594 0)"/>
      <use xlink:href="#DejaVuSans-74" transform="translate(624.658203 0)"/>
      <use xlink:href="#DejaVuSans-29" transform="translate(663.867188 0)"/>
     </g>
    </g>
    <g id="line2d_47">
     <path d="M 393.165 72.58625 
L 401.165 72.58625 
L 409.165 72.58625 
" style="fill: none; stroke: #9467bd; stroke-width: 1.5; stroke-linecap: square"/>
     <g>
      <use xlink:href="#mf6e885fe29" x="401.165" y="72.58625" style="fill: #9467bd; stroke: #9467bd; stroke-linejoin: miter"/>
     </g>
    </g>
    <g id="text_26">
     <!-- 95 (mean) -->
     <g transform="translate(415.565 75.38625) scale(0.08 -0.08)">
      <use xlink:href="#DejaVuSans-39"/>
      <use xlink:href="#DejaVuSans-35" transform="translate(63.623047 0)"/>
      <use xlink:href="#DejaVuSans-20" transform="translate(127.246094 0)"/>
      <use xlink:href="#DejaVuSans-28" transform="translate(159.033203 0)"/>
      <use xlink:href="#DejaVuSans-6d" transform="translate(198.046875 0)"/>
      <use xlink:href="#DejaVuSans-65" transform="translate(295.458984 0)"/>
      <use xlink:href="#DejaVuSans-61" transform="translate(356.982422 0)"/>
      <use xlink:href="#DejaVuSans-6e" transform="translate(418.261719 0)"/>
      <use xlink:href="#DejaVuSans-29" transform="translate(481.640625 0)"/>
     </g>
    </g>
    <g id="line2d_48">
     <path d="M 393.165 84.32875 
L 401.165 84.32875 
L 409.165 84.32875 
" style="fill: none; stroke-dasharray: 5.55,2.4; stroke-dashoffset: 0; stroke: #9467bd; stroke-width: 1.5"/>
     <g>
      <use xlink:href="#m9d5f0437e9" x="401.165" y="84.32875" style="fill-opacity: 0; stroke: #9467bd; stroke-linejoin: miter"/>
     </g>
    </g>
    <g id="text_27">
     <!-- 95 (5% worst) -->
     <g transform="translate(415.565 87.12875) scale(0.08 -0.08)">
      <use xlink:href="#DejaVuSans-39"/>
      <use xlink:href="#DejaVuSans-35" transform="translate(63.623047 0)"/>
      <use xlink:href="#DejaVuSans-20" transform="translate(127.246094 0)"/>
      <use xlink:href="#DejaVuSans-28" transform="translate(159.033203 0)"/>
      <use xlink:href="#DejaVuSans-35" transform="translate(198.046875 0)"/>
      <use xlink:href="#DejaVuSans-25" transform="translate(261.669922 0)"/>
      <use xlink:href="#DejaVuSans-20" transform="translate(356.689453 0)"/>
      <use xlink:href="#DejaVuSans-77" transform="translate(388.476562 0)"/>
      <use xlink:href="#DejaVuSans-6f" transform="translate(470.263672 0)"/>
      <use xlink:href="#DejaVuSans-72" transform="translate(531.445312 0)"/>
      <use xlink:href="#DejaVuSans-73" transform="translate(572.558594 0)"/>
      <use xlink:href="#DejaVuSans-74" transform="translate(624.658203 0)"/>
      <use xlink:href="#DejaVuSans-29" transform="translate(663.867188 0)"/>
     </g>
    </g>
   </g>
  </g>
 </g>
 <defs>
  <clipPath id="p02037d4fa2">
   <rect x="61.13" y="26.88" width="648.07" height="362.44"/>
  </clipPath>
 </defs>
</svg>
