<svg xmlns="http://www.w3.org/2000/svg" xmlns:xlink="http://www.w3.org/1999/xlink" width="960" height="576" viewBox="0 0 720 432"><path d="M0 432h720V0H0z" style="fill:#fff"/><path d="M61 389.3h648.2V27H61z" style="fill:#fff"/><path d="M90.5 389.3V27" clip-path="url(#a)" style="fill:none;stroke:#b0b0b0;stroke-opacity:.3;stroke-width:.8;stroke-linecap:square"/><defs><path id="b" d="M0 0v3.5" style="stroke:#000;stroke-width:.8"/></defs><use xlink:href="#b" x="90.5" y="389.3" style="stroke:#000;stroke-width:.8"/><g transform="matrix(.1 0 0 -.1 87.3 404)"><defs><path id="c" d="M2034 4250q-487 0-733-480-245-479-245-1442 0-959 245-1439 246-480 733-480 491 0 736 480 246 480 246 1439 0 963-246 1442-245 480-736 480m0 500q785 0 1199-621 414-620 414-1801 0-1178-414-1799Q2819-91 2034-91q-784 0-1198 620-414 621-414 1799 0 1181 414 1801 414 621 1198 621" transform="scale(.01563)"/></defs><use xlink:href="#c"/></g><path d="M188.7 389.3V27" clip-path="url(#a)" style="fill:none;stroke:#b0b0b0;stroke-opacity:.3;stroke-width:.8;stroke-linecap:square"/><use xlink:href="#b" x="188.7" y="389.3" style="stroke:#000;stroke-width:.8"/><g transform="matrix(.1 0 0 -.1 185.5 404)"><defs><path id="d" d="M794 531h1031v3560L703 3866v575l1116 225h631V531h1031V0H794z" transform="scale(.01563)"/></defs><use xlink:href="#d"/></g><path d="M287 389.3V27" clip-path="url(#a)" style="fill:none;stroke:#b0b0b0;stroke-opacity:.3;stroke-width:.8;stroke-linecap:square"/><use xlink:href="#b" x="286.9" y="389.3" style="stroke:#000;stroke-width:.8"/><g transform="matrix(.1 0 0 -.1 283.7 404)"><defs><path id="e" d="M1228 531h2203V0H469v531q359 372 979 998 621 627 780 809 303 340 423 576 121 236 121 464 0 372-261 606-261 235-680 235-297 0-627-103-329-103-704-313v638q381 153 712 231 332 78 607 78 725 0 1156-363 431-362 431-968 0-288-108-546-107-257-392-607-78-91-497-524-418-433-1181-1211" transform="scale(.01563)"/></defs><use xlink:href="#e"/></g><path d="M385.1 389.3V27" clip-path="url(#a)" style="fill:none;stroke:#b0b0b0;stroke-opacity:.3;stroke-width:.8;stroke-linecap:square"/><use xlink:href="#b" x="385.1" y="389.3" style="stroke:#000;stroke-width:.8"/><g transform="matrix(.1 0 0 -.1 382 404)"><defs><path id="f" d="M2597 2516q453-97 707-404 255-306 255-756 0-690-475-1069Q2609-91 1734-91q-293 0-604 58T488 141v609q262-153 574-231 313-78 654-78 593 0 904 234t311 681q0 413-289 645-289 233-804 233h-544v519h569q465 0 712 186t247 536q0 359-255 551-254 193-729 193-260 0-557-57-297-56-653-174v562q360 100 674 150t592 50q719 0 1137-327 419-326 419-882 0-388-222-655t-631-370" transform="scale(.01563)"/></defs><use xlink:href="#f"/></g><path d="M483.3 389.3V27" clip-path="url(#a)" style="fill:none;stroke:#b0b0b0;stroke-opacity:.3;stroke-width:.8;stroke-linecap:square"/><use xlink:href="#b" x="483.3" y="389.3" style="stroke:#000;stroke-width:.8"/><g transform="matrix(.1 0 0 -.1 480.1 404)"><defs><path id="g" d="M2419 4116 825 1625h1594zm-166 550h794V1625h666v-525h-666V0h-628v1100H313v609z" transform="scale(.01563)"/></defs><use xlink:href="#g"/></g><path d="M581.5 389.3V27" clip-path="url(#a)" style="fill:none;stroke:#b0b0b0;stroke-opacity:.3;stroke-width:.8;stroke-linecap:square"/><use xlink:href="#b" x="581.5" y="389.3" style="stroke:#000;stroke-width:.8"/><g transform="matrix(.1 0 0 -.1 578.4 404)"><defs><path id="h" d="M691 4666h2478v-532H1269V2991q137 47 274 70 138 23 276 23 781 0 1237-428 457-428 457-1159 0-753-469-1171Q2575-91 1722-91q-294 0-599 50Q819 9 494 109v635q281-153 581-228t634-75q541 0 856 284 316 284 316 772 0 487-316 771-315 285-856 285-253 0-505-56-251-56-513-175z" transform="scale(.01563)"/></defs><use xlink:href="#h"/></g><path d="M679.7 389.3V27" clip-path="url(#a)" style="fill:none;stroke:#b0b0b0;stroke-opacity:.3;stroke-width:.8;stroke-linecap:square"/><use xlink:href="#b" x="679.7" y="389.3" style="stroke:#000;stroke-width:.8"/><g transform="matrix(.1 0 0 -.1 676.6 404)"><defs><path id="i" d="M2113 2584q-425 0-674-291-248-290-248-796 0-503 248-796 249-292 674-292t673 292q248 293 248 796 0 506-248 796-248 291-673 291m1253 1979v-575q-238 112-480 171-242 60-480 60-625 0-955-422-329-422-376-1275 184 272 462 417 279 145 613 145 703 0 1111-427 408-426 408-1160 0-719-425-1154Q2819-91 2113-91q-810 0-1238 620-428 621-428 1799 0 1106 525 1764t1409 658q238 0 480-47t505-140" transform="scale(.01563)"/></defs><use xlink:href="#i"/></g><g transform="matrix(.11 0 0 -.11 364.5 418.4)"><defs><path id="j" d="M628 4666h941l1190-3175 1197 3175h941V0h-616v4097L3078 897h-634L1241 4097V0H628z" transform="scale(.01563)"/><path id="k" d="M3597 1894v-281H953q38-594 358-905t892-311q331 0 642 81t618 244V178Q3153 47 2828-22t-659-69q-838 0-1327 487-489 488-489 1320 0 859 464 1363 464 505 1252 505 706 0 1117-455 411-454 411-1235m-575 169q-6 471-264 752-258 282-683 282-481 0-770-272t-333-766z" transform="scale(.01563)"/><path id="l" d="M1172 4494v-994h1184v-447H1172V1153q0-428 117-550t477-122h590V0h-590q-666 0-919 248-253 249-253 905v1900H172v447h422v994z" transform="scale(.01563)"/><path id="m" d="M3513 2113V0h-575v2094q0 497-194 743-194 247-581 247-466 0-735-297-269-296-269-809V0H581v4863h578V2956q207 316 486 472 280 156 646 156 603 0 912-373 310-373 310-1098" transform="scale(.01563)"/><path id="n" d="M1959 3097q-462 0-731-361t-269-989 267-989q268-361 733-361 460 0 728 362 269 363 269 988 0 622-269 986-268 364-728 364m0 487q750 0 1178-488 429-487 429-1349 0-859-429-1349Q2709-91 1959-91q-753 0-1180 489-426 490-426 1349 0 862 426 1349 427 488 1180 488" transform="scale(.01563)"/><path id="o" d="M2906 2969v1894h575V0h-575v525q-181-312-458-464-276-152-664-152-634 0-1033 506-398 507-398 1332t398 1331q399 506 1033 506 388 0 664-152 277-151 458-463M947 1747q0-634 261-995t717-361 718 361q263 361 263 995t-263 995q-262 361-718 361t-717-361-261-995" transform="scale(.01563)"/></defs><use xlink:href="#j"/><use xlink:href="#k" transform="translate(86.3)"/><use xlink:href="#l" transform="translate(147.8)"/><use xlink:href="#m" transform="translate(187)"/><use xlink:href="#n" transform="translate(250.4)"/><use xlink:href="#o" transform="translate(311.6)"/></g><path d="M61 336.9h648.2" clip-path="url(#a)" style="fill:none;stroke:#b0b0b0;stroke-opacity:.3;stroke-width:.8;stroke-linecap:square"/><defs><path id="p" d="M0 0h-3.5" style="stroke:#000;stroke-width:.8"/></defs><use xlink:href="#p" x="61" y="336.9" style="stroke:#000;stroke-width:.8"/><g transform="matrix(.1 0 0 -.1 25.4 340.7)"><defs><path id="q" d="M684 794h660V0H684z" transform="scale(.01563)"/></defs><use xlink:href="#c"/><use xlink:href="#q" transform="translate(63.6)"/><use xlink:href="#c" transform="translate(95.4)"/><use xlink:href="#c" transform="translate(159)"/><use xlink:href="#h" transform="translate(222.7)"/></g><path d="M61 279h648.2" clip-path="url(#a)" style="fill:none;stroke:#b0b0b0;stroke-opacity:.3;stroke-width:.8;stroke-linecap:square"/><use xlink:href="#p" x="61" y="279.1" style="stroke:#000;stroke-width:.8"/><g transform="matrix(.1 0 0 -.1 25.4 282.9)"><use xlink:href="#c"/><use xlink:href="#q" transform="translate(63.6)"/><use xlink:href="#c" transform="translate(95.4)"/><use xlink:href="#d" transform="translate(159)"/><use xlink:href="#c" transform="translate(222.7)"/></g><path d="M61 221.3h648.2" clip-path="url(#a)" style="fill:none;stroke:#b0b0b0;stroke-opacity:.3;stroke-width:.8;stroke-linecap:square"/><use xlink:href="#p" x="61" y="221.3" style="stroke:#000;stroke-width:.8"/><g transform="matrix(.1 0 0 -.1 25.4 225.1)"><use xlink:href="#c"/><use xlink:href="#q" transform="translate(63.6)"/><use xlink:href="#c" transform="translate(95.4)"/><use xlink:href="#d" transform="translate(159)"/><use xlink:href="#h" transform="translate(222.7)"/></g><path d="M61 163.5h648.2" clip-path="url(#a)" style="fill:none;stroke:#b0b0b0;stroke-opacity:.3;stroke-width:.8;stroke-linecap:square"/><use xlink:href="#p" x="61" y="163.5" style="stroke:#000;stroke-width:.8"/><g transform="matrix(.1 0 0 -.1 25.4 167.3)"><use xlink:href="#c"/><use xlink:href="#q" transform="translate(63.6)"/><use xlink:href="#c" transform="translate(95.4)"/><use xlink:href="#e" transform="translate(159)"/><use xlink:href="#c" transform="translate(222.7)"/></g><path d="M61 105.8h648.2" clip-path="url(#a)" style="fill:none;stroke:#b0b0b0;stroke-opacity:.3;stroke-width:.8;stroke-linecap:square"/><use xlink:href="#p" x="61" y="105.8" style="stroke:#000;stroke-width:.8"/><g transform="matrix(.1 0 0 -.1 25.4 109.6)"><use xlink:href="#c"/><use xlink:href="#q" transform="translate(63.6)"/><use xlink:href="#c" transform="translate(95.4)"/><use xlink:href="#e" transform="translate(159)"/><use xlink:href="#h" transform="translate(222.7)"/></g><path d="M61 48h648.2" clip-path="url(#a)" style="fill:none;stroke:#b0b0b0;stroke-opacity:.3;stroke-width:.8;stroke-linecap:square"/><use xlink:href="#p" x="61" y="48" style="stroke:#000;stroke-width:.8"/><g transform="matrix(.1 0 0 -.1 25.4 51.8)"><use xlink:href="#c"/><use xlink:href="#q" transform="translate(63.6)"/><use xlink:href="#c" transform="translate(95.4)"/><use xlink:href="#f" transform="translate(159)"/><use xlink:href="#c" transform="translate(222.7)"/></g><g transform="matrix(0 -.11 -.11 0 19.1 318.4)"><defs><path id="r" d="M1259 2228V519h1013q509 0 754 211 246 211 246 645 0 438-246 645-245 208-754 208zm0 1919V2741h935q462 0 688 173 227 174 227 530 0 353-227 528-226 175-688 175zm-631 519h1613q722 0 1112-300 391-300 391-853 0-429-200-682t-588-315q466-100 724-418 258-317 258-792 0-625-425-966Q3088 0 2303 0H628z" transform="scale(.01563)"/><path id="s" d="M2059-325q-243-625-475-815-231-191-618-191H506v481h338q237 0 368 113 132 112 291 531l103 262L191 3500h609L1894 763l1094 2737h609z" transform="scale(.01563)"/><path id="t" d="M2834 3397v-544q-243 125-506 187-262 63-544 63-428 0-642-131t-214-394q0-200 153-314t616-217l197-44q612-131 870-370t258-667q0-488-386-773Q2250-91 1575-91q-281 0-586 55T347 128v594q319-166 628-249 309-82 613-82 406 0 624 139 219 139 219 392 0 234-158 359-157 125-692 241l-200 47q-534 112-772 345-237 233-237 639 0 494 350 762 350 269 994 269 318 0 599-47 282-46 519-140" transform="scale(.01563)"/><path id="u" d="M1259 4147V2394h794q441 0 681 228 241 228 241 650 0 419-241 647-240 228-681 228zm-631 519h1425q785 0 1186-355 402-355 402-1039 0-691-402-1044-401-353-1186-353h-794V0H628z" transform="scale(.01563)"/><path id="v" d="M2631 2963q-97 56-211 82-114 27-251 27-488 0-749-317t-261-911V0H581v3500h578v-544q182 319 472 473 291 155 707 155 59 0 131-8 72-7 159-23z" transform="scale(.01563)"/><path id="w" d="M3513 2113V0h-575v2094q0 497-194 743-194 247-581 247-466 0-735-297-269-296-269-809V0H581v3500h578v-544q207 316 486 472 280 156 646 156 603 0 912-373 310-373 310-1098" transform="scale(.01563)"/><path id="x" d="M603 3500h575V0H603zm0 1363h575v-729H603z" transform="scale(.01563)"/><path id="y" d="M3513 3500 2247 1797 3578 0h-678L1881 1375 863 0H184l1360 1831L300 3500h678l928-1247 928 1247z" transform="scale(.01563)"/><path id="z" d="M603 4863h575V0H603z" transform="scale(.01563)"/><path id="A" d="M1984 4856q-418-718-622-1422-203-703-203-1425 0-721 205-1429t620-1424h-500Q1016-109 783 600T550 2009q0 697 231 1403 232 707 703 1444z" transform="scale(.01563)"/><path id="B" d="M269 3500h575l719-2731 715 2731h678l719-2731 716 2731h575L4050 0h-678l-753 2869L1863 0h-679z" transform="scale(.01563)"/><path id="C" d="M3116 1747q0 634-261 995t-717 361q-457 0-718-361t-261-995 261-995 718-361q456 0 717 361t261 995M1159 2969q182 312 458 463 277 152 661 152 638 0 1036-506 399-506 399-1331T3314 415Q2916-91 2278-91q-384 0-661 152-276 152-458 464V0H581v4863h578z" transform="scale(.01563)"/><path id="D" d="M513 4856h500q468-737 701-1444 233-706 233-1403 0-700-233-1409T1013-844H513q415 716 620 1424t205 1429q0 722-205 1425-205 704-620 1422" transform="scale(.01563)"/></defs><use xlink:href="#r"/><use xlink:href="#s" transform="translate(68.6)"/><use xlink:href="#l" transform="translate(127.8)"/><use xlink:href="#k" transform="translate(167)"/><use xlink:href="#t" transform="translate(228.5)"/><use xlink:href="#u" transform="translate(312.4)"/><use xlink:href="#k" transform="translate(369)"/><use xlink:href="#v" transform="translate(430.6)"/><use xlink:href="#u" transform="translate(503.5)"/><use xlink:href="#t" transform="translate(562)"/><use xlink:href="#w" transform="translate(614.2)"/><use xlink:href="#v" transform="translate(677.5)"/><use xlink:href="#u" transform="translate(750.4)"/><use xlink:href="#k" transform="translate(807.1)"/><use xlink:href="#v" transform="translate(868.6)"/><use xlink:href="#u" transform="translate(941.5)"/><use xlink:href="#x" transform="translate(999.6)"/><use xlink:href="#y" transform="translate(1027.4)"/><use xlink:href="#k" transform="translate(1083.4)"/><use xlink:href="#z" transform="translate(1145)"/><use xlink:href="#A" transform="translate(1204.5)"/><use xlink:href="#z" transform="translate(1243.5)"/><use xlink:href="#n" transform="translate(1271.3)"/><use xlink:href="#B" transform="translate(1332.5)"/><use xlink:href="#k" transform="translate(1414.3)"/><use xlink:href="#v" transform="translate(1475.8)"/><use xlink:href="#x" transform="translate(1548.7)"/><use xlink:href="#t" transform="translate(1576.5)"/><use xlink:href="#C" transform="translate(1660.4)"/><use xlink:href="#k" transform="translate(1723.9)"/><use xlink:href="#l" transform="translate(1785.4)"/><use xlink:href="#l" transform="translate(1824.6)"/><use xlink:href="#k" transform="translate(1863.8)"/><use xlink:href="#v" transform="translate(1925.3)"/><use xlink:href="#D" transform="translate(1966.4)"/></g><path d="m90.5 364.4 98.2 1.3 98.2 4.1 98.2 1.8h98.2l98.2.4 98.2.8" clip-path="url(#a)" style="fill:none;stroke:#1f77b4;stroke-width:1.5;stroke-linecap:square"/><defs><path id="E" d="M0 3.5a3.5 3.5 0 1 0 0-7 3.5 3.5 0 0 0 0 7z" style="stroke:#1f77b4"/></defs><g clip-path="url(#a)"><use xlink:href="#E" x="90.5" y="364.4" style="fill:#1f77b4;stroke:#1f77b4"/><use xlink:href="#E" x="188.7" y="365.7" style="fill:#1f77b4;stroke:#1f77b4"/><use xlink:href="#E" x="286.9" y="369.8" style="fill:#1f77b4;stroke:#1f77b4"/><use xlink:href="#E" x="385.1" y="371.6" style="fill:#1f77b4;stroke:#1f77b4"/><use xlink:href="#E" x="483.3" y="371.6" style="fill:#1f77b4;stroke:#1f77b4"/><use xlink:href="#E" x="581.5" y="372" style="fill:#1f77b4;stroke:#1f77b4"/><use xlink:href="#E" x="679.7" y="372.8" style="fill:#1f77b4;stroke:#1f77b4"/></g><path d="m90.5 330.8 98.2 1.2 98.2 4.6 98.2 3.6h98.2l98.2 1.6 98.2 1.8" clip-path="url(#a)" style="fill:none;stroke-dasharray:5.55,2.4;stroke-dashoffset:0;stroke:#1f77b4;stroke-width:1.5"/><defs><path id="F" d="M0 3.5a3.5 3.5 0 1 0 0-7 3.5 3.5 0 0 0 0 7z" style="stroke:#1f77b4"/></defs><g clip-path="url(#a)"><use xlink:href="#F" x="90.5" y="330.8" style="fill-opacity:0;stroke:#1f77b4"/><use xlink:href="#F" x="188.7" y="332" style="fill-opacity:0;stroke:#1f77b4"/><use xlink:href="#F" x="286.9" y="336.6" style="fill-opacity:0;stroke:#1f77b4"/><use xlink:href="#F" x="385.1" y="340.2" style="fill-opacity:0;stroke:#1f77b4"/><use xlink:href="#F" x="483.3" y="340.1" style="fill-opacity:0;stroke:#1f77b4"/><use xlink:href="#F" x="581.5" y="341.8" style="fill-opacity:0;stroke:#1f77b4"/><use xlink:href="#F" x="679.7" y="343.6" style="fill-opacity:0;stroke:#1f77b4"/></g><path d="m90.5 360.5 98.2 1.4 98.2 4 98.2 2 98.2-.1 98.2.5 98.2 1" clip-path="url(#a)" style="fill:none;stroke:#ff7f0e;stroke-width:1.5;stroke-linecap:square"/><defs><path id="G" d="M-3.5 3.5h7v-7h-7z" style="stroke:#ff7f0e;stroke-linejoin:miter"/></defs><g clip-path="url(#a)"><use xlink:href="#G" x="90.5" y="360.5" style="fill:#ff7f0e;stroke:#ff7f0e;stroke-linejoin:miter"/><use xlink:href="#G" x="188.7" y="361.9" style="fill:#ff7f0e;stroke:#ff7f0e;stroke-linejoin:miter"/><use xlink:href="#G" x="286.9" y="366" style="fill:#ff7f0e;stroke:#ff7f0e;stroke-linejoin:miter"/><use xlink:href="#G" x="385.1" y="367.8" style="fill:#ff7f0e;stroke:#ff7f0e;stroke-linejoin:miter"/><use xlink:href="#G" x="483.3" y="367.8" style="fill:#ff7f0e;stroke:#ff7f0e;stroke-linejoin:miter"/><use xlink:href="#G" x="581.5" y="368.3" style="fill:#ff7f0e;stroke:#ff7f0e;stroke-linejoin:miter"/><use xlink:href="#G" x="679.7" y="369.2" style="fill:#ff7f0e;stroke:#ff7f0e;stroke-linejoin:miter"/></g><path d="m90.5 324.5 98.2.7 98.2 4 98.2 3.2h98.2l98.2 1.2 98.2 1.8" clip-path="url(#a)" style="fill:none;stroke-dasharray:5.55,2.4;stroke-dashoffset:0;stroke:#ff7f0e;stroke-width:1.5"/><defs><path id="H" d="M-3.5 3.5h7v-7h-7z" style="stroke:#ff7f0e;stroke-linejoin:miter"/></defs><g clip-path="url(#a)"><use xlink:href="#H" x="90.5" y="324.5" style="fill-opacity:0;stroke:#ff7f0e;stroke-linejoin:miter"/><use xlink:href="#H" x="188.7" y="325.2" style="fill-opacity:0;stroke:#ff7f0e;stroke-linejoin:miter"/><use xlink:href="#H" x="286.9" y="329.2" style="fill-opacity:0;stroke:#ff7f0e;stroke-linejoin:miter"/><use xlink:href="#H" x="385.1" y="332.4" style="fill-opacity:0;stroke:#ff7f0e;stroke-linejoin:miter"/><use xlink:href="#H" x="483.3" y="332.3" style="fill-opacity:0;stroke:#ff7f0e;stroke-linejoin:miter"/><use xlink:href="#H" x="581.5" y="333.6" style="fill-opacity:0;stroke:#ff7f0e;stroke-linejoin:miter"/><use xlink:href="#H" x="679.7" y="335.4" style="fill-opacity:0;stroke:#ff7f0e;stroke-linejoin:miter"/></g><path d="m90.5 357 98.2 1.4 98.2 4.1 98.2 1.9h98.2l98.2.6 98.2 1" clip-path="url(#a)" style="fill:none;stroke:#2ca02c;stroke-width:1.5;stroke-linecap:square"/><defs><path id="I" d="m0-3.5-3.5 7h7z" style="stroke:#2ca02c;stroke-linejoin:miter"/></defs><g clip-path="url(#a)"><use xlink:href="#I" x="90.5" y="356.9" style="fill:#2ca02c;stroke:#2ca02c;stroke-linejoin:miter"/><use xlink:href="#I" x="188.7" y="358.4" style="fill:#2ca02c;stroke:#2ca02c;stroke-linejoin:miter"/><use xlink:href="#I" x="286.9" y="362.5" style="fill:#2ca02c;stroke:#2ca02c;stroke-linejoin:miter"/><use xlink:href="#I" x="385.1" y="364.4" style="fill:#2ca02c;stroke:#2ca02c;stroke-linejoin:miter"/><use xlink:href="#I" x="483.3" y="364.3" style="fill:#2ca02c;stroke:#2ca02c;stroke-linejoin:miter"/><use xlink:href="#I" x="581.5" y="365" style="fill:#2ca02c;stroke:#2ca02c;stroke-linejoin:miter"/><use xlink:href="#I" x="679.7" y="366" style="fill:#2ca02c;stroke:#2ca02c;stroke-linejoin:miter"/></g><path d="m90.5 317.3 98.2 1.5L287 323l98.2 3.1h98.2l98.2 1.3 98.2 1.7" clip-path="url(#a)" style="fill:none;stroke-dasharray:5.55,2.4;stroke-dashoffset:0;stroke:#2ca02c;stroke-width:1.5"/><defs><path id="J" d="m0-3.5-3.5 7h7z" style="stroke:#2ca02c;stroke-linejoin:miter"/></defs><g clip-path="url(#a)"><use xlink:href="#J" x="90.5" y="317.3" style="fill-opacity:0;stroke:#2ca02c;stroke-linejoin:miter"/><use xlink:href="#J" x="188.7" y="318.8" style="fill-opacity:0;stroke:#2ca02c;stroke-linejoin:miter"/><use xlink:href="#J" x="286.9" y="322.9" style="fill-opacity:0;stroke:#2ca02c;stroke-linejoin:miter"/><use xlink:href="#J" x="385.1" y="326" style="fill-opacity:0;stroke:#2ca02c;stroke-linejoin:miter"/><use xlink:href="#J" x="483.3" y="326" style="fill-opacity:0;stroke:#2ca02c;stroke-linejoin:miter"/><use xlink:href="#J" x="581.5" y="327.3" style="fill-opacity:0;stroke:#2ca02c;stroke-linejoin:miter"/><use xlink:href="#J" x="679.7" y="329" style="fill-opacity:0;stroke:#2ca02c;stroke-linejoin:miter"/></g><path d="m90.5 353.4 98.2 1.5 98.2 4.3 98.2 1.8h98.2l98.2.7 98.2 1" clip-path="url(#a)" style="fill:none;stroke:#d62728;stroke-width:1.5;stroke-linecap:square"/><defs><path id="K" d="m0 5 5-5-5-5-5 5z" style="stroke:#d62728;stroke-linejoin:miter"/></defs><g clip-path="url(#a)"><use xlink:href="#K" x="90.5" y="353.4" style="fill:#d62728;stroke:#d62728;stroke-linejoin:miter"/><use xlink:href="#K" x="188.7" y="354.9" style="fill:#d62728;stroke:#d62728;stroke-linejoin:miter"/><use xlink:href="#K" x="286.9" y="359.2" style="fill:#d62728;stroke:#d62728;stroke-linejoin:miter"/><use xlink:href="#K" x="385.1" y="361" style="fill:#d62728;stroke:#d62728;stroke-linejoin:miter"/><use xlink:href="#K" x="483.3" y="360.9" style="fill:#d62728;stroke:#d62728;stroke-linejoin:miter"/><use xlink:href="#K" x="581.5" y="361.7" style="fill:#d62728;stroke:#d62728;stroke-linejoin:miter"/><use xlink:href="#K" x="679.7" y="362.7" style="fill:#d62728;stroke:#d62728;stroke-linejoin:miter"/></g><path d="m90.5 310 98.2 1.5 98.2 4.6 98.2 2.8h98.2l98.2 1.6 98.2 1.9" clip-path="url(#a)" style="fill:none;stroke-dasharray:5.55,2.4;stroke-dashoffset:0;stroke:#d62728;stroke-width:1.5"/><defs><path id="L" d="m0 5 5-5-5-5-5 5z" style="stroke:#d62728;stroke-linejoin:miter"/></defs><g clip-path="url(#a)"><use xlink:href="#L" x="90.5" y="310.1" style="fill-opacity:0;stroke:#d62728;stroke-linejoin:miter"/><use xlink:href="#L" x="188.7" y="311.5" style="fill-opacity:0;stroke:#d62728;stroke-linejoin:miter"/><use xlink:href="#L" x="286.9" y="316.1" style="fill-opacity:0;stroke:#d62728;stroke-linejoin:miter"/><use xlink:href="#L" x="385.1" y="318.9" style="fill-opacity:0;stroke:#d62728;stroke-linejoin:miter"/><use xlink:href="#L" x="483.3" y="318.8" style="fill-opacity:0;stroke:#d62728;stroke-linejoin:miter"/><use xlink:href="#L" x="581.5" y="320.5" style="fill-opacity:0;stroke:#d62728;stroke-linejoin:miter"/><use xlink:href="#L" x="679.7" y="322.4" style="fill-opacity:0;stroke:#d62728;stroke-linejoin:miter"/></g><path d="m90.5 349.6 98.2 1.8 98.2 4.1 98.2 1.8h98.2l98.2.8 98.2 1" clip-path="url(#a)" style="fill:none;stroke:#9467bd;stroke-width:1.5;stroke-linecap:square"/><defs><path id="M" d="m0 3.5 3.5-7h-7z" style="stroke:#9467bd;stroke-linejoin:miter"/></defs><g clip-path="url(#a)"><use xlink:href="#M" x="90.5" y="349.6" style="fill:#9467bd;stroke:#9467bd;stroke-linejoin:miter"/><use xlink:href="#M" x="188.7" y="351.4" style="fill:#9467bd;stroke:#9467bd;stroke-linejoin:miter"/><use xlink:href="#M" x="286.9" y="355.5" style="fill:#9467bd;stroke:#9467bd;stroke-linejoin:miter"/><use xlink:href="#M" x="385.1" y="357.3" style="fill:#9467bd;stroke:#9467bd;stroke-linejoin:miter"/><use xlink:href="#M" x="483.3" y="357.2" style="fill:#9467bd;stroke:#9467bd;stroke-linejoin:miter"/><use xlink:href="#M" x="581.5" y="358.1" style="fill:#9467bd;stroke:#9467bd;stroke-linejoin:miter"/><use xlink:href="#M" x="679.7" y="359.1" style="fill:#9467bd;stroke:#9467bd;stroke-linejoin:miter"/></g><path d="m90.5 302.9 98.2.7 98.2 5.9 98.2 2.9 98.2-.1 98.2 1.4 98.2 1.6" clip-path="url(#a)" style="fill:none;stroke-dasharray:5.55,2.4;stroke-dashoffset:0;stroke:#9467bd;stroke-width:1.5"/><defs><path id="N" d="m0 3.5 3.5-7h-7z" style="stroke:#9467bd;stroke-linejoin:miter"/></defs><g clip-path="url(#a)"><use xlink:href="#N" x="90.5" y="302.9" style="fill-opacity:0;stroke:#9467bd;stroke-linejoin:miter"/><use xlink:href="#N" x="188.7" y="303.6" style="fill-opacity:0;stroke:#9467bd;stroke-linejoin:miter"/><use xlink:href="#N" x="286.9" y="309.5" style="fill-opacity:0;stroke:#9467bd;stroke-linejoin:miter"/><use xlink:href="#N" x="385.1" y="312.4" style="fill-opacity:0;stroke:#9467bd;stroke-linejoin:miter"/><use xlink:href="#N" x="483.3" y="312.3" style="fill-opacity:0;stroke:#9467bd;stroke-linejoin:miter"/><use xlink:href="#N" x="581.5" y="313.7" style="fill-opacity:0;stroke:#9467bd;stroke-linejoin:miter"/><use xlink:href="#N" x="679.7" y="315.3" style="fill-opacity:0;stroke:#9467bd;stroke-linejoin:miter"/></g><path d="m90.5 340.7 98.2 2 98.2 3.5 98.2 1.6h98.2l98.2 1 98.2 1" clip-path="url(#a)" style="fill:none;stroke:#8c564b;stroke-width:1.5;stroke-linecap:square"/><defs><path id="O" d="m-3.5 0 7 3.5v-7z" style="stroke:#8c564b;stroke-linejoin:miter"/></defs><g clip-path="url(#a)"><use xlink:href="#O" x="90.5" y="340.7" style="fill:#8c564b;stroke:#8c564b;stroke-linejoin:miter"/><use xlink:href="#O" x="188.7" y="342.6" style="fill:#8c564b;stroke:#8c564b;stroke-linejoin:miter"/><use xlink:href="#O" x="286.9" y="346.2" style="fill:#8c564b;stroke:#8c564b;stroke-linejoin:miter"/><use xlink:href="#O" x="385.1" y="347.8" style="fill:#8c564b;stroke:#8c564b;stroke-linejoin:miter"/><use xlink:href="#O" x="483.3" y="347.8" style="fill:#8c564b;stroke:#8c564b;stroke-linejoin:miter"/><use xlink:href="#O" x="581.5" y="348.8" style="fill:#8c564b;stroke:#8c564b;stroke-linejoin:miter"/><use xlink:href="#O" x="679.7" y="349.9" style="fill:#8c564b;stroke:#8c564b;stroke-linejoin:miter"/></g><path d="m90.5 291.8 98.2.6 98.2 2.8 98.2 2.5h98.2l98.2 1.3 98.2 1.5" clip-path="url(#a)" style="fill:none;stroke-dasharray:5.55,2.4;stroke-dashoffset:0;stroke:#8c564b;stroke-width:1.5"/><defs><path id="P" d="m-3.5 0 7 3.5v-7z" style="stroke:#8c564b;stroke-linejoin:miter"/></defs><g clip-path="url(#a)"><use xlink:href="#P" x="90.5" y="291.8" style="fill-opacity:0;stroke:#8c564b;stroke-linejoin:miter"/><use xlink:href="#P" x="188.7" y="292.4" style="fill-opacity:0;stroke:#8c564b;stroke-linejoin:miter"/><use xlink:href="#P" x="286.9" y="295.2" style="fill-opacity:0;stroke:#8c564b;stroke-linejoin:miter"/><use xlink:href="#P" x="385.1" y="297.7" style="fill-opacity:0;stroke:#8c564b;stroke-linejoin:miter"/><use xlink:href="#P" x="483.3" y="297.6" style="fill-opacity:0;stroke:#8c564b;stroke-linejoin:miter"/><use xlink:href="#P" x="581.5" y="299" style="fill-opacity:0;stroke:#8c564b;stroke-linejoin:miter"/><use xlink:href="#P" x="679.7" y="300.5" style="fill-opacity:0;stroke:#8c564b;stroke-linejoin:miter"/></g><path d="m90.5 318.6 98.2 2.2 98.2 2 98.2.8 98.2-.1 98.2 1.4 98.2 1" clip-path="url(#a)" style="fill:none;stroke:#e377c2;stroke-width:1.5;stroke-linecap:square"/><defs><path id="Q" d="m3.5 0-7-3.5v7z" style="stroke:#e377c2;stroke-linejoin:miter"/></defs><g clip-path="url(#a)"><use xlink:href="#Q" x="90.5" y="318.6" style="fill:#e377c2;stroke:#e377c2;stroke-linejoin:miter"/><use xlink:href="#Q" x="188.7" y="320.8" style="fill:#e377c2;stroke:#e377c2;stroke-linejoin:miter"/><use xlink:href="#Q" x="286.9" y="322.8" style="fill:#e377c2;stroke:#e377c2;stroke-linejoin:miter"/><use xlink:href="#Q" x="385.1" y="323.6" style="fill:#e377c2;stroke:#e377c2;stroke-linejoin:miter"/><use xlink:href="#Q" x="483.3" y="323.5" style="fill:#e377c2;stroke:#e377c2;stroke-linejoin:miter"/><use xlink:href="#Q" x="581.5" y="324.9" style="fill:#e377c2;stroke:#e377c2;stroke-linejoin:miter"/><use xlink:href="#Q" x="679.7" y="325.8" style="fill:#e377c2;stroke:#e377c2;stroke-linejoin:miter"/></g><path d="m90.5 254.8 98.2.7 98.2 2.8 98.2 1.8h98.2l98.2.5 98.2.9" clip-path="url(#a)" style="fill:none;stroke-dasharray:5.55,2.4;stroke-dashoffset:0;stroke:#e377c2;stroke-width:1.5"/><defs><path id="R" d="m3.5 0-7-3.5v7z" style="stroke:#e377c2;stroke-linejoin:miter"/></defs><g clip-path="url(#a)"><use xlink:href="#R" x="90.5" y="254.8" style="fill-opacity:0;stroke:#e377c2;stroke-linejoin:miter"/><use xlink:href="#R" x="188.7" y="255.5" style="fill-opacity:0;stroke:#e377c2;stroke-linejoin:miter"/><use xlink:href="#R" x="286.9" y="258.3" style="fill-opacity:0;stroke:#e377c2;stroke-linejoin:miter"/><use xlink:href="#R" x="385.1" y="260.1" style="fill-opacity:0;stroke:#e377c2;stroke-linejoin:miter"/><use xlink:href="#R" x="483.3" y="260" style="fill-opacity:0;stroke:#e377c2;stroke-linejoin:miter"/><use xlink:href="#R" x="581.5" y="260.6" style="fill-opacity:0;stroke:#e377c2;stroke-linejoin:miter"/><use xlink:href="#R" x="679.7" y="261.5" style="fill-opacity:0;stroke:#e377c2;stroke-linejoin:miter"/></g><path d="m90.5 210.3 98.2 1 98.2-.2 98.2 56.6h98.2l98.2 1 98.2.9" clip-path="url(#a)" style="fill:none;stroke:#7f7f7f;stroke-width:1.5;stroke-linecap:square"/><defs><path id="S" d="m0-3.5-3.3 2.4 1.2 4h4.2l1.2-4z" style="stroke:#7f7f7f;stroke-linejoin:miter"/></defs><g clip-path="url(#a)"><use xlink:href="#S" x="90.5" y="210.3" style="fill:#7f7f7f;stroke:#7f7f7f;stroke-linejoin:miter"/><use xlink:href="#S" x="188.7" y="211.3" style="fill:#7f7f7f;stroke:#7f7f7f;stroke-linejoin:miter"/><use xlink:href="#S" x="286.9" y="211.1" style="fill:#7f7f7f;stroke:#7f7f7f;stroke-linejoin:miter"/><use xlink:href="#S" x="385.1" y="267.7" style="fill:#7f7f7f;stroke:#7f7f7f;stroke-linejoin:miter"/><use xlink:href="#S" x="483.3" y="267.7" style="fill:#7f7f7f;stroke:#7f7f7f;stroke-linejoin:miter"/><use xlink:href="#S" x="581.5" y="268.7" style="fill:#7f7f7f;stroke:#7f7f7f;stroke-linejoin:miter"/><use xlink:href="#S" x="679.7" y="269.6" style="fill:#7f7f7f;stroke:#7f7f7f;stroke-linejoin:miter"/></g><path d="m90.5 43.4 98.2 1H287l98.2 140h98.2l98.2.1 98.2.7" clip-path="url(#a)" style="fill:none;stroke-dasharray:5.55,2.4;stroke-dashoffset:0;stroke:#7f7f7f;stroke-width:1.5"/><defs><path id="T" d="m0-3.5-3.3 2.4 1.2 4h4.2l1.2-4z" style="stroke:#7f7f7f;stroke-linejoin:miter"/></defs><g clip-path="url(#a)"><use xlink:href="#T" x="90.5" y="43.4" style="fill-opacity:0;stroke:#7f7f7f;stroke-linejoin:miter"/><use xlink:href="#T" x="188.7" y="44.3" style="fill-opacity:0;stroke:#7f7f7f;stroke-linejoin:miter"/><use xlink:href="#T" x="286.9" y="44.3" style="fill-opacity:0;stroke:#7f7f7f;stroke-linejoin:miter"/><use xlink:href="#T" x="385.1" y="184.3" style="fill-opacity:0;stroke:#7f7f7f;stroke-linejoin:miter"/><use xlink:href="#T" x="483.3" y="184.3" style="fill-opacity:0;stroke:#7f7f7f;stroke-linejoin:miter"/><use xlink:href="#T" x="581.5" y="184.5" style="fill-opacity:0;stroke:#7f7f7f;stroke-linejoin:miter"/><use xlink:href="#T" x="679.7" y="185.2" style="fill-opacity:0;stroke:#7f7f7f;stroke-linejoin:miter"/></g><path d="M61 389.3V27m648.2 362.3V27M61 389.3h648.2M61 26.9h648.2" style="fill:none;stroke:#000;stroke-width:.8;stroke-linejoin:miter;stroke-linecap:square"/><g transform="matrix(.12 0 0 -.12 281.8 20.9)"><defs><path id="U" d="M191 3500h609L1894 563l1094 2937h609L2284 0h-781z" transform="scale(.01563)"/></defs><use xlink:href="#r"/><use xlink:href="#s" transform="translate(68.6)"/><use xlink:href="#l" transform="translate(127.8)"/><use xlink:href="#k" transform="translate(167)"/><use xlink:href="#t" transform="translate(228.5)"/><use xlink:href="#u" transform="translate(312.4)"/><use xlink:href="#k" transform="translate(369)"/><use xlink:href="#v" transform="translate(430.6)"/><use xlink:href="#u" transform="translate(503.5)"/><use xlink:href="#t" transform="translate(562)"/><use xlink:href="#w" transform="translate(614.2)"/><use xlink:href="#v" transform="translate(677.5)"/><use xlink:href="#u" transform="translate(750.4)"/><use xlink:href="#k" transform="translate(807.1)"/><use xlink:href="#v" transform="translate(868.6)"/><use xlink:href="#u" transform="translate(941.5)"/><use xlink:href="#x" transform="translate(999.6)"/><use xlink:href="#y" transform="translate(1027.4)"/><use xlink:href="#k" transform="translate(1083.4)"/><use xlink:href="#z" transform="translate(1145)"/><use xlink:href="#U" transform="translate(1204.5)"/><use xlink:href="#t" transform="translate(1263.7)"/><use xlink:href="#j" transform="translate(1347.6)"/><use xlink:href="#k" transform="translate(1433.9)"/><use xlink:href="#l" transform="translate(1495.4)"/><use xlink:href="#m" transform="translate(1534.6)"/><use xlink:href="#n" transform="translate(1598)"/><use xlink:href="#o" transform="translate(1659.2)"/></g><path d="M522 127.2h181.6q1.6 0 1.6-1.6V32.5q0-1.6-1.6-1.6H522.1q-1.6 0-1.6 1.6v93.1q0 1.6 1.6 1.6z" style="fill:#fff;opacity:.8;stroke:#ccc;stroke-linejoin:miter"/><path d="M523.7 37.4h16" style="fill:none;stroke:#1f77b4;stroke-width:1.5;stroke-linecap:square"/><use xlink:href="#E" x="531.7" y="37.4" style="fill:#1f77b4;stroke:#1f77b4"/><g transform="matrix(.08 0 0 -.08 546 40.2)"><defs><path id="V" d="M3328 2828q216 388 516 572t706 184q547 0 844-383 297-382 297-1088V0h-578v2094q0 503-179 746-178 244-543 244-447 0-707-297-259-296-259-809V0h-578v2094q0 506-178 748t-550 242q-441 0-701-298-259-298-259-808V0H581v3500h578v-544q197 322 472 475t653 153q382 0 649-194 267-193 395-562" transform="scale(.01563)"/><path id="W" d="M2194 1759q-697 0-966-159t-269-544q0-306 202-486 202-179 548-179 479 0 768 339t289 901v128zm1147 238V0h-575v531q-197-318-491-470T1556-91q-537 0-855 302-317 302-317 808 0 590 395 890 396 300 1180 300h807v57q0 397-261 614t-733 217q-300 0-585-72-284-72-546-216v532q315 122 612 182 297 61 578 61 760 0 1135-394 375-393 375-1193" transform="scale(.01563)"/></defs><use xlink:href="#f"/><use xlink:href="#c" transform="translate(63.6)"/><use xlink:href="#A" transform="translate(159)"/><use xlink:href="#V" transform="translate(198)"/><use xlink:href="#k" transform="translate(295.5)"/><use xlink:href="#W" transform="translate(357)"/><use xlink:href="#w" transform="translate(418.3)"/><use xlink:href="#D" transform="translate(481.6)"/></g><path d="M523.7 49.1h16" style="fill:none;stroke-dasharray:5.55,2.4;stroke-dashoffset:0;stroke:#1f77b4;stroke-width:1.5"/><use xlink:href="#F" x="531.7" y="49.1" style="fill-opacity:0;stroke:#1f77b4"/><g transform="matrix(.08 0 0 -.08 546 51.9)"><defs><path id="X" d="M4653 2053q-272 0-427-231-154-231-154-644 0-406 154-639 155-233 427-233 266 0 420 233 155 233 155 639 0 410-155 642-154 233-420 233m0 397q494 0 784-344 291-343 291-928 0-584-292-927-292-342-783-342-500 0-791 342-290 343-290 927 0 588 292 930t789 342M1428 4353q-269 0-424-233-154-232-154-639 0-412 153-644 153-231 425-231t426 231q155 232 155 644 0 403-156 637-156 235-425 235m2822 397h500L1831-91h-500zm-2822 0q494 0 787-342 294-342 294-927 0-590-292-931t-789-341-786 342q-289 343-289 930 0 582 290 925 291 344 785 344" transform="scale(.01563)"/></defs><use xlink:href="#f"/><use xlink:href="#c" transform="translate(63.6)"/><use xlink:href="#A" transform="translate(159)"/><use xlink:href="#h" transform="translate(198)"/><use xlink:href="#X" transform="translate(261.7)"/><use xlink:href="#B" transform="translate(388.5)"/><use xlink:href="#n" transform="translate(470.3)"/><use xlink:href="#v" transform="translate(531.4)"/><use xlink:href="#t" transform="translate(572.6)"/><use xlink:href="#l" transform="translate(624.7)"/><use xlink:href="#D" transform="translate(663.9)"/></g><path d="M523.7 60.8h16" style="fill:none;stroke:#ff7f0e;stroke-width:1.5;stroke-linecap:square"/><use xlink:href="#G" x="531.7" y="60.8" style="fill:#ff7f0e;stroke:#ff7f0e;stroke-linejoin:miter"/><g transform="matrix(.08 0 0 -.08 546 63.6)"><use xlink:href="#g"/><use xlink:href="#c" transform="translate(63.6)"/><use xlink:href="#A" transform="translate(159)"/><use xlink:href="#V" transform="translate(198)"/><use xlink:href="#k" transform="translate(295.5)"/><use xlink:href="#W" transform="translate(357)"/><use xlink:href="#w" transform="translate(418.3)"/><use xlink:href="#D" transform="translate(481.6)"/></g><path d="M523.7 72.6h16" style="fill:none;stroke-dasharray:5.55,2.4;stroke-dashoffset:0;stroke:#ff7f0e;stroke-width:1.5"/><use xlink:href="#H" x="531.7" y="72.6" style="fill-opacity:0;stroke:#ff7f0e;stroke-linejoin:miter"/><g transform="matrix(.08 0 0 -.08 546 75.4)"><use xlink:href="#g"/><use xlink:href="#c" transform="translate(63.6)"/><use xlink:href="#A" transform="translate(159)"/><use xlink:href="#h" transform="translate(198)"/><use xlink:href="#X" transform="translate(261.7)"/><use xlink:href="#B" transform="translate(388.5)"/><use xlink:href="#n" transform="translate(470.3)"/><use xlink:href="#v" transform="translate(531.4)"/><use xlink:href="#t" transform="translate(572.6)"/><use xlink:href="#l" transform="translate(624.7)"/><use xlink:href="#D" transform="translate(663.9)"/></g><path d="M523.7 84.3h16" style="fill:none;stroke:#2ca02c;stroke-width:1.5;stroke-linecap:square"/><use xlink:href="#I" x="531.7" y="84.3" style="fill:#2ca02c;stroke:#2ca02c;stroke-linejoin:miter"/><g transform="matrix(.08 0 0 -.08 546 87.1)"><use xlink:href="#h"/><use xlink:href="#c" transform="translate(63.6)"/><use xlink:href="#A" transform="translate(159)"/><use xlink:href="#V" transform="translate(198)"/><use xlink:href="#k" transform="translate(295.5)"/><use xlink:href="#W" transform="translate(357)"/><use xlink:href="#w" transform="translate(418.3)"/><use xlink:href="#D" transform="translate(481.6)"/></g><path d="M523.7 96h16" style="fill:none;stroke-dasharray:5.55,2.4;stroke-dashoffset:0;stroke:#2ca02c;stroke-width:1.5"/><use xlink:href="#J" x="531.7" y="96.1" style="fill-opacity:0;stroke:#2ca02c;stroke-linejoin:miter"/><g transform="matrix(.08 0 0 -.08 546 98.9)"><use xlink:href="#h"/><use xlink:href="#c" transform="translate(63.6)"/><use xlink:href="#A" transform="translate(159)"/><use xlink:href="#h" transform="translate(198)"/><use xlink:href="#X" transform="translate(261.7)"/><use xlink:href="#B" transform="translate(388.5)"/><use xlink:href="#n" transform="translate(470.3)"/><use xlink:href="#v" transform="translate(531.4)"/><use xlink:href="#t" transform="translate(572.6)"/><use xlink:href="#l" transform="translate(624.7)"/><use xlink:href="#D" transform="translate(663.9)"/></g><path d="M523.7 107.8h16" style="fill:none;stroke:#d62728;stroke-width:1.5;stroke-linecap:square"/><use xlink:href="#K" x="531.7" y="107.8" style="fill:#d62728;stroke:#d62728;stroke-linejoin:miter"/><g transform="matrix(.08 0 0 -.08 546 110.6)"><use xlink:href="#i"/><use xlink:href="#c" transform="translate(63.6)"/><use xlink:href="#A" transform="translate(159)"/><use xlink:href="#V" transform="translate(198)"/><use xlink:href="#k" transform="translate(295.5)"/><use xlink:href="#W" transform="translate(357)"/><use xlink:href="#w" transform="translate(418.3)"/><use xlink:href="#D" transform="translate(481.6)"/></g><path d="M523.7 119.6h16" style="fill:none;stroke-dasharray:5.55,2.4;stroke-dashoffset:0;stroke:#d62728;stroke-width:1.5"/><use xlink:href="#L" x="531.7" y="119.6" style="fill-opacity:0;stroke:#d62728;stroke-linejoin:miter"/><g transform="matrix(.08 0 0 -.08 546 122.4)"><use xlink:href="#i"/><use xlink:href="#c" transform="translate(63.6)"/><use xlink:href="#A" transform="translate(159)"/><use xlink:href="#h" transform="translate(198)"/><use xlink:href="#X" transform="translate(261.7)"/><use xlink:href="#B" transform="translate(388.5)"/><use xlink:href="#n" transform="translate(470.3)"/><use xlink:href="#v" transform="translate(531.4)"/><use xlink:href="#t" transform="translate(572.6)"/><use xlink:href="#l" transform="translate(624.7)"/><use xlink:href="#D" transform="translate(663.9)"/></g><path d="M618.3 37.4h16" style="fill:none;stroke:#9467bd;stroke-width:1.5;stroke-linecap:square"/><use xlink:href="#M" x="626.3" y="37.4" style="fill:#9467bd;stroke:#9467bd;stroke-linejoin:miter"/><g transform="matrix(.08 0 0 -.08 640.7 40.2)"><defs><path id="Y" d="M525 4666h3000v-269L1831 0h-659l1594 4134H525z" transform="scale(.01563)"/></defs><use xlink:href="#Y"/><use xlink:href="#c" transform="translate(63.6)"/><use xlink:href="#A" transform="translate(159)"/><use xlink:href="#V" transform="translate(198)"/><use xlink:href="#k" transform="translate(295.5)"/><use xlink:href="#W" transform="translate(357)"/><use xlink:href="#w" transform="translate(418.3)"/><use xlink:href="#D" transform="translate(481.6)"/></g><path d="M618.3 49.1h16" style="fill:none;stroke-dasharray:5.55,2.4;stroke-dashoffset:0;stroke:#9467bd;stroke-width:1.5"/><use xlink:href="#N" x="626.3" y="49.1" style="fill-opacity:0;stroke:#9467bd;stroke-linejoin:miter"/><g transform="matrix(.08 0 0 -.08 640.7 51.9)"><use xlink:href="#Y"/><use xlink:href="#c" transform="translate(63.6)"/><use xlink:href="#A" transform="translate(159)"/><use xlink:href="#h" transform="translate(198)"/><use xlink:href="#X" transform="translate(261.7)"/><use xlink:href="#B" transform="translate(388.5)"/><use xlink:href="#n" transform="translate(470.3)"/><use xlink:href="#v" transform="translate(531.4)"/><use xlink:href="#t" transform="translate(572.6)"/><use xlink:href="#l" transform="translate(624.7)"/><use xlink:href="#D" transform="translate(663.9)"/></g><path d="M618.3 60.8h16" style="fill:none;stroke:#8c564b;stroke-width:1.5;stroke-linecap:square"/><use xlink:href="#O" x="626.3" y="60.8" style="fill:#8c564b;stroke:#8c564b;stroke-linejoin:miter"/><g transform="matrix(.08 0 0 -.08 640.7 63.6)"><defs><path id="Z" d="M2034 2216q-450 0-708-241-257-241-257-662 0-422 257-663 258-241 708-241t709 242q260 243 260 662 0 421-258 662-257 241-711 241m-631 268q-406 100-633 378-226 279-226 679 0 559 398 884 399 325 1092 325 697 0 1094-325t397-884q0-400-227-679-226-278-629-378 456-106 710-416 255-309 255-755 0-679-414-1042Q2806-91 2034-91q-771 0-1186 362-414 363-414 1042 0 446 256 755 257 310 713 416m-231 997q0-362 226-565 227-203 636-203 407 0 636 203 230 203 230 565 0 363-230 566-229 203-636 203-409 0-636-203-226-203-226-566" transform="scale(.01563)"/></defs><use xlink:href="#Z"/><use xlink:href="#c" transform="translate(63.6)"/><use xlink:href="#A" transform="translate(159)"/><use xlink:href="#V" transform="translate(198)"/><use xlink:href="#k" transform="translate(295.5)"/><use xlink:href="#W" transform="translate(357)"/><use xlink:href="#w" transform="translate(418.3)"/><use xlink:href="#D" transform="translate(481.6)"/></g><path d="M618.3 72.6h16" style="fill:none;stroke-dasharray:5.55,2.4;stroke-dashoffset:0;stroke:#8c564b;stroke-width:1.5"/><use xlink:href="#P" x="626.3" y="72.6" style="fill-opacity:0;stroke:#8c564b;stroke-linejoin:miter"/><g transform="matrix(.08 0 0 -.08 640.7 75.4)"><use xlink:href="#Z"/><use xlink:href="#c" transform="translate(63.6)"/><use xlink:href="#A" transform="translate(159)"/><use xlink:href="#h" transform="translate(198)"/><use xlink:href="#X" transform="translate(261.7)"/><use xlink:href="#B" transform="translate(388.5)"/><use xlink:href="#n" transform="translate(470.3)"/><use xlink:href="#v" transform="translate(531.4)"/><use xlink:href="#t" transform="translate(572.6)"/><use xlink:href="#l" transform="translate(624.7)"/><use xlink:href="#D" transform="translate(663.9)"/></g><path d="M618.3 84.3h16" style="fill:none;stroke:#e377c2;stroke-width:1.5;stroke-linecap:square"/><use xlink:href="#Q" x="626.3" y="84.3" style="fill:#e377c2;stroke:#e377c2;stroke-linejoin:miter"/><g transform="matrix(.08 0 0 -.08 640.7 87.1)"><defs><path id="aa" d="M703 97v575q238-113 481-172 244-59 479-59 625 0 954 420 330 420 377 1277-181-269-460-413-278-144-615-144-700 0-1108 423-408 424-408 1159 0 718 425 1152 425 435 1131 435 810 0 1236-621 427-620 427-1801 0-1103-524-1761Q2575-91 1691-91q-238 0-482 47Q966 3 703 97m1256 1978q425 0 673 290 249 291 249 798 0 503-249 795-248 292-673 292t-673-292-248-795q0-507 248-798 248-290 673-290" transform="scale(.01563)"/></defs><use xlink:href="#aa"/><use xlink:href="#c" transform="translate(63.6)"/><use xlink:href="#A" transform="translate(159)"/><use xlink:href="#V" transform="translate(198)"/><use xlink:href="#k" transform="translate(295.5)"/><use xlink:href="#W" transform="translate(357)"/><use xlink:href="#w" transform="translate(418.3)"/><use xlink:href="#D" transform="translate(481.6)"/></g><path d="M618.3 96h16" style="fill:none;stroke-dasharray:5.55,2.4;stroke-dashoffset:0;stroke:#e377c2;stroke-width:1.5"/><use xlink:href="#R" x="626.3" y="96.1" style="fill-opacity:0;stroke:#e377c2;stroke-linejoin:miter"/><g transform="matrix(.08 0 0 -.08 640.7 98.9)"><use xlink:href="#aa"/><use xlink:href="#c" transform="translate(63.6)"/><use xlink:href="#A" transform="translate(159)"/><use xlink:href="#h" transform="translate(198)"/><use xlink:href="#X" transform="translate(261.7)"/><use xlink:href="#B" transform="translate(388.5)"/><use xlink:href="#n" transform="translate(470.3)"/><use xlink:href="#v" transform="translate(531.4)"/><use xlink:href="#t" transform="translate(572.6)"/><use xlink:href="#l" transform="translate(624.7)"/><use xlink:href="#D" transform="translate(663.9)"/></g><path d="M618.3 107.8h16" style="fill:none;stroke:#7f7f7f;stroke-width:1.5;stroke-linecap:square"/><use xlink:href="#S" x="626.3" y="107.8" style="fill:#7f7f7f;stroke:#7f7f7f;stroke-linejoin:miter"/><g transform="matrix(.08 0 0 -.08 640.7 110.6)"><use xlink:href="#d"/><use xlink:href="#c" transform="translate(63.6)"/><use xlink:href="#c" transform="translate(127.2)"/><use xlink:href="#A" transform="translate(222.7)"/><use xlink:href="#V" transform="translate(261.7)"/><use xlink:href="#k" transform="translate(359)"/><use xlink:href="#W" transform="translate(420.6)"/><use xlink:href="#w" transform="translate(481.9)"/><use xlink:href="#D" transform="translate(545.3)"/></g><path d="M618.3 119.6h16" style="fill:none;stroke-dasharray:5.55,2.4;stroke-dashoffset:0;stroke:#7f7f7f;stroke-width:1.5"/><use xlink:href="#T" x="626.3" y="119.6" style="fill-opacity:0;stroke:#7f7f7f;stroke-linejoin:miter"/><g transform="matrix(.08 0 0 -.08 640.7 122.4)"><use xlink:href="#d"/><use xlink:href="#c" transform="translate(63.6)"/><use xlink:href="#c" transform="translate(127.2)"/><use xlink:href="#A" transform="translate(222.7)"/><use xlink:href="#h" transform="translate(261.7)"/><use xlink:href="#X" transform="translate(325.3)"/><use xlink:href="#B" transform="translate(452.1)"/><use xlink:href="#n" transform="translate(533.9)"/><use xlink:href="#v" transform="translate(595)"/><use xlink:href="#t" transform="translate(636.2)"/><use xlink:href="#l" transform="translate(688.3)"/><use xlink:href="#D" transform="translate(727.5)"/></g><defs><clipPath id="a"><path d="M61 26.9h648.2v362.4H61z"/></clipPath></defs></svg>