<svg xmlns="http://www.w3.org/2000/svg" xmlns:xlink="http://www.w3.org/1999/xlink" width="960" height="576" viewBox="0 0 720 432"><path d="M0 432h720V0H0z" style="fill:#fff"/><path d="M61 389.3h648.2V27H61z" style="fill:#fff"/><path d="M133.4 389.3V27" clip-path="url(#a)" style="fill:none;stroke:#b0b0b0;stroke-opacity:.3;stroke-width:.8;stroke-linecap:square"/><defs><path id="b" d="M0 0v3.5" style="stroke:#000;stroke-width:.8"/></defs><use xlink:href="#b" x="133.4" y="389.3" style="stroke:#000;stroke-width:.8"/><g transform="matrix(.1 0 0 -.1 125.5 404)"><defs><path id="c" d="M2034 4250q-487 0-733-480-245-479-245-1442 0-959 245-1439 246-480 733-480 491 0 736 480 246 480 246 1439 0 963-246 1442-245 480-736 480m0 500q785 0 1199-621 414-620 414-1801 0-1178-414-1799Q2819-91 2034-91q-784 0-1198 620-414 621-414 1799 0 1181 414 1801 414 621 1198 621" transform="scale(.01563)"/><path id="d" d="M684 794h660V0H684z" transform="scale(.01563)"/><path id="e" d="M794 531h1031v3560L703 3866v575l1116 225h631V531h1031V0H794z" transform="scale(.01563)"/></defs><use xlink:href="#c"/><use xlink:href="#d" transform="translate(63.6)"/><use xlink:href="#e" transform="translate(95.4)"/></g><path d="M232.7 389.3V27" clip-path="url(#a)" style="fill:none;stroke:#b0b0b0;stroke-opacity:.3;stroke-width:.8;stroke-linecap:square"/><use xlink:href="#b" x="232.7" y="389.3" style="stroke:#000;stroke-width:.8"/><g transform="matrix(.1 0 0 -.1 224.8 404)"><defs><path id="f" d="M1228 531h2203V0H469v531q359 372 979 998 621 627 780 809 303 340 423 576 121 236 121 464 0 372-261 606-261 235-680 235-297 0-627-103-329-103-704-313v638q381 153 712 231 332 78 607 78 725 0 1156-363 431-362 431-968 0-288-108-546-107-257-392-607-78-91-497-524-418-433-1181-1211" transform="scale(.01563)"/></defs><use xlink:href="#c"/><use xlink:href="#d" transform="translate(63.6)"/><use xlink:href="#f" transform="translate(95.4)"/></g><path d="M332 389.3V27" clip-path="url(#a)" style="fill:none;stroke:#b0b0b0;stroke-opacity:.3;stroke-width:.8;stroke-linecap:square"/><use xlink:href="#b" x="332" y="389.3" style="stroke:#000;stroke-width:.8"/><g transform="matrix(.1 0 0 -.1 324 404)"><defs><path id="g" d="M2597 2516q453-97 707-404 255-306 255-756 0-690-475-1069Q2609-91 1734-91q-293 0-604 58T488 141v609q262-153 574-231 313-78 654-78 593 0 904 234t311 681q0 413-289 645-289 233-804 233h-544v519h569q465 0 712 186t247 536q0 359-255 551-254 193-729 193-260 0-557-57-297-56-653-174v562q360 100 674 150t592 50q719 0 1137-327 419-326 419-882 0-388-222-655t-631-370" transform="scale(.01563)"/></defs><use xlink:href="#c"/><use xlink:href="#d" transform="translate(63.6)"/><use xlink:href="#g" transform="translate(95.4)"/></g><path d="M431.3 389.3V27" clip-path="url(#a)" style="fill:none;stroke:#b0b0b0;stroke-opacity:.3;stroke-width:.8;stroke-linecap:square"/><use xlink:href="#b" x="431.3" y="389.3" style="stroke:#000;stroke-width:.8"/><g transform="matrix(.1 0 0 -.1 423.4 404)"><defs><path id="h" d="M2419 4116 825 1625h1594zm-166 550h794V1625h666v-525h-666V0h-628v1100H313v609z" transform="scale(.01563)"/></defs><use xlink:href="#c"/><use xlink:href="#d" transform="translate(63.6)"/><use xlink:href="#h" transform="translate(95.4)"/></g><path d="M530.6 389.3V27" clip-path="url(#a)" style="fill:none;stroke:#b0b0b0;stroke-opacity:.3;stroke-width:.8;stroke-linecap:square"/><use xlink:href="#b" x="530.6" y="389.3" style="stroke:#000;stroke-width:.8"/><g transform="matrix(.1 0 0 -.1 522.7 404)"><defs><path id="i" d="M691 4666h2478v-532H1269V2991q137 47 274 70 138 23 276 23 781 0 1237-428 457-428 457-1159 0-753-469-1171Q2575-91 1722-91q-294 0-599 50Q819 9 494 109v635q281-153 581-228t634-75q541 0 856 284 316 284 316 772 0 487-316 771-315 285-856 285-253 0-505-56-251-56-513-175z" transform="scale(.01563)"/></defs><use xlink:href="#c"/><use xlink:href="#d" transform="translate(63.6)"/><use xlink:href="#i" transform="translate(95.4)"/></g><path d="M630 389.3V27" clip-path="url(#a)" style="fill:none;stroke:#b0b0b0;stroke-opacity:.3;stroke-width:.8;stroke-linecap:square"/><use xlink:href="#b" x="629.9" y="389.3" style="stroke:#000;stroke-width:.8"/><g transform="matrix(.1 0 0 -.1 622 404)"><defs><path id="j" d="M2113 2584q-425 0-674-291-248-290-248-796 0-503 248-796 249-292 674-292t673 292q248 293 248 796 0 506-248 796-248 291-673 291m1253 1979v-575q-238 112-480 171-242 60-480 60-625 0-955-422-329-422-376-1275 184 272 462 417 279 145 613 145 703 0 1111-427 408-426 408-1160 0-719-425-1154Q2819-91 2113-91q-810 0-1238 620-428 621-428 1799 0 1106 525 1764t1409 658q238 0 480-47t505-140" transform="scale(.01563)"/></defs><use xlink:href="#c"/><use xlink:href="#d" transform="translate(63.6)"/><use xlink:href="#j" transform="translate(95.4)"/></g><g transform="matrix(.11 0 0 -.11 298.5 418.4)"><defs><path id="k" d="M1259 2228V519h1013q509 0 754 211 246 211 246 645 0 438-246 645-245 208-754 208zm0 1919V2741h935q462 0 688 173 227 174 227 530 0 353-227 528-226 175-688 175zm-631 519h1613q722 0 1112-300 391-300 391-853 0-429-200-682t-588-315q466-100 724-418 258-317 258-792 0-625-425-966Q3088 0 2303 0H628z" transform="scale(.01563)"/><path id="l" d="M2059-325q-243-625-475-815-231-191-618-191H506v481h338q237 0 368 113 132 112 291 531l103 262L191 3500h609L1894 763l1094 2737h609z" transform="scale(.01563)"/><path id="m" d="M1172 4494v-994h1184v-447H1172V1153q0-428 117-550t477-122h590V0h-590q-666 0-919 248-253 249-253 905v1900H172v447h422v994z" transform="scale(.01563)"/><path id="n" d="M3597 1894v-281H953q38-594 358-905t892-311q331 0 642 81t618 244V178Q3153 47 2828-22t-659-69q-838 0-1327 487-489 488-489 1320 0 859 464 1363 464 505 1252 505 706 0 1117-455 411-454 411-1235m-575 169q-6 471-264 752-258 282-683 282-481 0-770-272t-333-766z" transform="scale(.01563)"/><path id="o" d="M2834 3397v-544q-243 125-506 187-262 63-544 63-428 0-642-131t-214-394q0-200 153-314t616-217l197-44q612-131 870-370t258-667q0-488-386-773Q2250-91 1575-91q-281 0-586 55T347 128v594q319-166 628-249 309-82 613-82 406 0 624 139 219 139 219 392 0 234-158 359-157 125-692 241l-200 47q-534 112-772 345-237 233-237 639 0 494 350 762 350 269 994 269 318 0 599-47 282-46 519-140" transform="scale(.01563)"/><path id="p" d="M1159 525v-1856H581v4831h578v-531q182 312 458 463 277 152 661 152 638 0 1036-506 399-506 399-1331T3314 415Q2916-91 2278-91q-384 0-661 152-276 152-458 464m1957 1222q0 634-261 995t-717 361q-457 0-718-361t-261-995 261-995 718-361q456 0 717 361t261 995" transform="scale(.01563)"/><path id="q" d="M2631 2963q-97 56-211 82-114 27-251 27-488 0-749-317t-261-911V0H581v3500h578v-544q182 319 472 473 291 155 707 155 59 0 131-8 72-7 159-23z" transform="scale(.01563)"/><path id="r" d="M1259 4147V2394h794q441 0 681 228 241 228 241 650 0 419-241 647-240 228-681 228zm-631 519h1425q785 0 1186-355 402-355 402-1039 0-691-402-1044-401-353-1186-353h-794V0H628z" transform="scale(.01563)"/><path id="s" d="M603 3500h575V0H603zm0 1363h575v-729H603z" transform="scale(.01563)"/><path id="t" d="M3513 3500 2247 1797 3578 0h-678L1881 1375 863 0H184l1360 1831L300 3500h678l928-1247 928 1247z" transform="scale(.01563)"/><path id="u" d="M603 4863h575V0H603z" transform="scale(.01563)"/><path id="v" d="M1984 4856q-418-718-622-1422-203-703-203-1425 0-721 205-1429t620-1424h-500Q1016-109 783 600T550 2009q0 697 231 1403 232 707 703 1444z" transform="scale(.01563)"/><path id="w" d="M1959 3097q-462 0-731-361t-269-989 267-989q268-361 733-361 460 0 728 362 269 363 269 988 0 622-269 986-268 364-728 364m0 487q750 0 1178-488 429-487 429-1349 0-859-429-1349Q2709-91 1959-91q-753 0-1180 489-426 490-426 1349 0 862 426 1349 427 488 1180 488" transform="scale(.01563)"/><path id="x" d="M269 3500h575l719-2731 715 2731h678l719-2731 716 2731h575L4050 0h-678l-753 2869L1863 0h-679z" transform="scale(.01563)"/><path id="y" d="M3116 1747q0 634-261 995t-717 361q-457 0-718-361t-261-995 261-995 718-361q456 0 717 361t261 995M1159 2969q182 312 458 463 277 152 661 152 638 0 1036-506 399-506 399-1331T3314 415Q2916-91 2278-91q-384 0-661 152-276 152-458 464V0H581v4863h578z" transform="scale(.01563)"/><path id="z" d="M513 4856h500q468-737 701-1444 233-706 233-1403 0-700-233-1409T1013-844H513q415 716 620 1424t205 1429q0 722-205 1425-205 704-620 1422" transform="scale(.01563)"/></defs><use xlink:href="#k"/><use xlink:href="#l" transform="translate(68.6)"/><use xlink:href="#m" transform="translate(127.8)"/><use xlink:href="#n" transform="translate(167)"/><use xlink:href="#o" transform="translate(228.5)"/><use xlink:href="#p" transform="translate(312.4)"/><use xlink:href="#n" transform="translate(375.9)"/><use xlink:href="#q" transform="translate(437.4)"/><use xlink:href="#r" transform="translate(510.3)"/><use xlink:href="#s" transform="translate(568.4)"/><use xlink:href="#t" transform="translate(596.1)"/><use xlink:href="#n" transform="translate(652.2)"/><use xlink:href="#u" transform="translate(713.7)"/><use xlink:href="#v" transform="translate(773.3)"/><use xlink:href="#u" transform="translate(812.3)"/><use xlink:href="#w" transform="translate(840)"/><use xlink:href="#x" transform="translate(901.3)"/><use xlink:href="#n" transform="translate(983)"/><use xlink:href="#q" transform="translate(1044.6)"/><use xlink:href="#s" transform="translate(1117.5)"/><use xlink:href="#o" transform="translate(1145.3)"/><use xlink:href="#y" transform="translate(1229.1)"/><use xlink:href="#n" transform="translate(1292.6)"/><use xlink:href="#m" transform="translate(1354.1)"/><use xlink:href="#m" transform="translate(1393.4)"/><use xlink:href="#n" transform="translate(1432.6)"/><use xlink:href="#q" transform="translate(1494)"/><use xlink:href="#z" transform="translate(1535.2)"/></g><path d="M61 375.3h648.2" clip-path="url(#a)" style="fill:none;stroke:#b0b0b0;stroke-opacity:.3;stroke-width:.8;stroke-linecap:square"/><defs><path id="A" d="M0 0h-3.5" style="stroke:#000;stroke-width:.8"/></defs><use xlink:href="#A" x="61" y="375.3" style="stroke:#000;stroke-width:.8"/><g transform="matrix(.1 0 0 -.1 25.4 379)"><defs><path id="B" d="M2034 2216q-450 0-708-241-257-241-257-662 0-422 257-663 258-241 708-241t709 242q260 243 260 662 0 421-258 662-257 241-711 241m-631 268q-406 100-633 378-226 279-226 679 0 559 398 884 399 325 1092 325 697 0 1094-325t397-884q0-400-227-679-226-278-629-378 456-106 710-416 255-309 255-755 0-679-414-1042Q2806-91 2034-91q-771 0-1186 362-414 363-414 1042 0 446 256 755 257 310 713 416m-231 997q0-362 226-565 227-203 636-203 407 0 636 203 230 203 230 565 0 363-230 566-229 203-636 203-409 0-636-203-226-203-226-566" transform="scale(.01563)"/></defs><use xlink:href="#c"/><use xlink:href="#d" transform="translate(63.6)"/><use xlink:href="#B" transform="translate(95.4)"/><use xlink:href="#c" transform="translate(159)"/><use xlink:href="#c" transform="translate(222.7)"/></g><path d="M61 330.2h648.2" clip-path="url(#a)" style="fill:none;stroke:#b0b0b0;stroke-opacity:.3;stroke-width:.8;stroke-linecap:square"/><use xlink:href="#A" x="61" y="330.2" style="stroke:#000;stroke-width:.8"/><g transform="matrix(.1 0 0 -.1 25.4 334)"><use xlink:href="#c"/><use xlink:href="#d" transform="translate(63.6)"/><use xlink:href="#B" transform="translate(95.4)"/><use xlink:href="#f" transform="translate(159)"/><use xlink:href="#i" transform="translate(222.7)"/></g><path d="M61 285.2h648.2" clip-path="url(#a)" style="fill:none;stroke:#b0b0b0;stroke-opacity:.3;stroke-width:.8;stroke-linecap:square"/><use xlink:href="#A" x="61" y="285.2" style="stroke:#000;stroke-width:.8"/><g transform="matrix(.1 0 0 -.1 25.4 289)"><use xlink:href="#c"/><use xlink:href="#d" transform="translate(63.6)"/><use xlink:href="#B" transform="translate(95.4)"/><use xlink:href="#i" transform="translate(159)"/><use xlink:href="#c" transform="translate(222.7)"/></g><path d="M61 240.2h648.2" clip-path="url(#a)" style="fill:none;stroke:#b0b0b0;stroke-opacity:.3;stroke-width:.8;stroke-linecap:square"/><use xlink:href="#A" x="61" y="240.2" style="stroke:#000;stroke-width:.8"/><g transform="matrix(.1 0 0 -.1 25.4 244)"><defs><path id="C" d="M525 4666h3000v-269L1831 0h-659l1594 4134H525z" transform="scale(.01563)"/></defs><use xlink:href="#c"/><use xlink:href="#d" transform="translate(63.6)"/><use xlink:href="#B" transform="translate(95.4)"/><use xlink:href="#C" transform="translate(159)"/><use xlink:href="#i" transform="translate(222.7)"/></g><path d="M61 195.2h648.2" clip-path="url(#a)" style="fill:none;stroke:#b0b0b0;stroke-opacity:.3;stroke-width:.8;stroke-linecap:square"/><use xlink:href="#A" x="61" y="195.2" style="stroke:#000;stroke-width:.8"/><g transform="matrix(.1 0 0 -.1 25.4 199)"><defs><path id="D" d="M703 97v575q238-113 481-172 244-59 479-59 625 0 954 420 330 420 377 1277-181-269-460-413-278-144-615-144-700 0-1108 423-408 424-408 1159 0 718 425 1152 425 435 1131 435 810 0 1236-621 427-620 427-1801 0-1103-524-1761Q2575-91 1691-91q-238 0-482 47Q966 3 703 97m1256 1978q425 0 673 290 249 291 249 798 0 503-249 795-248 292-673 292t-673-292-248-795q0-507 248-798 248-290 673-290" transform="scale(.01563)"/></defs><use xlink:href="#c"/><use xlink:href="#d" transform="translate(63.6)"/><use xlink:href="#D" transform="translate(95.4)"/><use xlink:href="#c" transform="translate(159)"/><use xlink:href="#c" transform="translate(222.7)"/></g><path d="M61 150.2h648.2" clip-path="url(#a)" style="fill:none;stroke:#b0b0b0;stroke-opacity:.3;stroke-width:.8;stroke-linecap:square"/><use xlink:href="#A" x="61" y="150.2" style="stroke:#000;stroke-width:.8"/><g transform="matrix(.1 0 0 -.1 25.4 154)"><use xlink:href="#c"/><use xlink:href="#d" transform="translate(63.6)"/><use xlink:href="#D" transform="translate(95.4)"/><use xlink:href="#f" transform="translate(159)"/><use xlink:href="#i" transform="translate(222.7)"/></g><path d="M61 105.2h648.2" clip-path="url(#a)" style="fill:none;stroke:#b0b0b0;stroke-opacity:.3;stroke-width:.8;stroke-linecap:square"/><use xlink:href="#A" x="61" y="105.2" style="stroke:#000;stroke-width:.8"/><g transform="matrix(.1 0 0 -.1 25.4 109)"><use xlink:href="#c"/><use xlink:href="#d" transform="translate(63.6)"/><use xlink:href="#D" transform="translate(95.4)"/><use xlink:href="#i" transform="translate(159)"/><use xlink:href="#c" transform="translate(222.7)"/></g><path d="M61 60.2h648.2" clip-path="url(#a)" style="fill:none;stroke:#b0b0b0;stroke-opacity:.3;stroke-width:.8;stroke-linecap:square"/><use xlink:href="#A" x="61" y="60.2" style="stroke:#000;stroke-width:.8"/><g transform="matrix(.1 0 0 -.1 25.4 64)"><use xlink:href="#c"/><use xlink:href="#d" transform="translate(63.6)"/><use xlink:href="#D" transform="translate(95.4)"/><use xlink:href="#C" transform="translate(159)"/><use xlink:href="#i" transform="translate(222.7)"/></g><g transform="matrix(0 -.11 -.11 0 19.1 269.8)"><defs><path id="E" d="M3425 4513v-616q-359 172-678 256-319 85-616 85-515 0-795-200t-280-569q0-310 186-468 186-157 705-254l381-78q706-135 1042-474t336-907q0-679-455-1029Q2797-91 1919-91q-331 0-705 75-373 75-773 222v650q384-215 753-325 369-109 725-109 540 0 834 212 294 213 294 607 0 343-211 537t-692 291l-385 75q-706 140-1022 440-315 300-315 835 0 619 436 975t1201 356q329 0 669-60 341-59 697-177" transform="scale(.01563)"/><path id="F" d="M628 4666h631V0H628z" transform="scale(.01563)"/><path id="G" d="M628 4666h941l1190-3175 1197 3175h941V0h-616v4097L3078 897h-634L1241 4097V0H628z" transform="scale(.01563)"/><path id="H" d="M3513 2113V0h-575v2094q0 497-194 743-194 247-581 247-466 0-735-297-269-296-269-809V0H581v4863h578V2956q207 316 486 472 280 156 646 156 603 0 912-373 310-373 310-1098" transform="scale(.01563)"/><path id="I" d="M2906 1791q0 625-258 968-257 344-723 344-462 0-720-344-258-343-258-968 0-622 258-966t720-344q466 0 723 344 258 344 258 966m575-1357q0-893-397-1329-396-436-1215-436-303 0-572 45t-522 139v559q253-137 500-202 247-66 503-66 566 0 847 295t281 892v285q-178-310-456-463T1784 0Q1141 0 747 490 353 981 353 1791q0 812 394 1302 394 491 1037 491 388 0 666-153t456-462v531h575z" transform="scale(.01563)"/></defs><use xlink:href="#E"/><use xlink:href="#E" transform="translate(63.5)"/><use xlink:href="#F" transform="translate(127)"/><use xlink:href="#G" transform="translate(156.4)"/><use xlink:href="#v" transform="translate(274.5)"/><use xlink:href="#H" transform="translate(313.5)"/><use xlink:href="#s" transform="translate(376.9)"/><use xlink:href="#I" transform="translate(404.7)"/><use xlink:href="#H" transform="translate(468.2)"/><use xlink:href="#n" transform="translate(531.5)"/><use xlink:href="#q" transform="translate(593)"/><use xlink:href="#s" transform="translate(666)"/><use xlink:href="#o" transform="translate(693.8)"/><use xlink:href="#y" transform="translate(777.6)"/><use xlink:href="#n" transform="translate(841.1)"/><use xlink:href="#m" transform="translate(902.6)"/><use xlink:href="#m" transform="translate(941.8)"/><use xlink:href="#n" transform="translate(981)"/><use xlink:href="#q" transform="translate(1042.6)"/><use xlink:href="#z" transform="translate(1083.7)"/></g><path d="m113.8 212.5-3.4-1.9H98.2l-4.3-1 .1-.5-1.3 5.2-2.2 1.3" clip-path="url(#a)" style="fill:none;stroke:#1f77b4;stroke-width:1.5;stroke-linecap:square"/><defs><path id="J" d="M0 3.5a3.5 3.5 0 1 0 0-7 3.5 3.5 0 0 0 0 7z" style="stroke:#1f77b4"/></defs><g clip-path="url(#a)"><use xlink:href="#J" x="113.8" y="212.5" style="fill:#1f77b4;stroke:#1f77b4"/><use xlink:href="#J" x="110.4" y="210.6" style="fill:#1f77b4;stroke:#1f77b4"/><use xlink:href="#J" x="98.2" y="210.5" style="fill:#1f77b4;stroke:#1f77b4"/><use xlink:href="#J" x="93.9" y="209.6" style="fill:#1f77b4;stroke:#1f77b4"/><use xlink:href="#J" x="94" y="209.1" style="fill:#1f77b4;stroke:#1f77b4"/><use xlink:href="#J" x="92.7" y="214.3" style="fill:#1f77b4;stroke:#1f77b4"/><use xlink:href="#J" x="90.5" y="215.6" style="fill:#1f77b4;stroke:#1f77b4"/></g><path d="m113.8 372.8-3.4-3.7-12.2.2-4.3-.1.1-.3-1.3 3.6-2.2-.2" clip-path="url(#a)" style="fill:none;stroke-dasharray:5.55,2.4;stroke-dashoffset:0;stroke:#1f77b4;stroke-width:1.5"/><defs><path id="K" d="M0 3.5a3.5 3.5 0 1 0 0-7 3.5 3.5 0 0 0 0 7z" style="stroke:#1f77b4"/></defs><g clip-path="url(#a)"><use xlink:href="#K" x="113.8" y="372.8" style="fill-opacity:0;stroke:#1f77b4"/><use xlink:href="#K" x="110.4" y="369.1" style="fill-opacity:0;stroke:#1f77b4"/><use xlink:href="#K" x="98.2" y="369.3" style="fill-opacity:0;stroke:#1f77b4"/><use xlink:href="#K" x="93.9" y="369.2" style="fill-opacity:0;stroke:#1f77b4"/><use xlink:href="#K" x="94" y="368.9" style="fill-opacity:0;stroke:#1f77b4"/><use xlink:href="#K" x="92.7" y="372.5" style="fill-opacity:0;stroke:#1f77b4"/><use xlink:href="#K" x="90.5" y="372.3" style="fill-opacity:0;stroke:#1f77b4"/></g><path d="m126.6 190-3.9-2.1-12.2-2.4-4.4-2.1.2-.4-1.8 4.7-2.5 1.2" clip-path="url(#a)" style="fill:none;stroke:#ff7f0e;stroke-width:1.5;stroke-linecap:square"/><defs><path id="L" d="M-3.5 3.5h7v-7h-7z" style="stroke:#ff7f0e;stroke-linejoin:miter"/></defs><g clip-path="url(#a)"><use xlink:href="#L" x="126.6" y="190.1" style="fill:#ff7f0e;stroke:#ff7f0e;stroke-linejoin:miter"/><use xlink:href="#L" x="122.7" y="187.9" style="fill:#ff7f0e;stroke:#ff7f0e;stroke-linejoin:miter"/><use xlink:href="#L" x="110.5" y="185.5" style="fill:#ff7f0e;stroke:#ff7f0e;stroke-linejoin:miter"/><use xlink:href="#L" x="106.1" y="183.4" style="fill:#ff7f0e;stroke:#ff7f0e;stroke-linejoin:miter"/><use xlink:href="#L" x="106.3" y="183" style="fill:#ff7f0e;stroke:#ff7f0e;stroke-linejoin:miter"/><use xlink:href="#L" x="104.5" y="187.7" style="fill:#ff7f0e;stroke:#ff7f0e;stroke-linejoin:miter"/><use xlink:href="#L" x="102" y="188.9" style="fill:#ff7f0e;stroke:#ff7f0e;stroke-linejoin:miter"/></g><path d="m126.6 355-3.9-31.7-12.2 6.6-4.4-.7.2-.7-1.8 4.2-2.5 1.5" clip-path="url(#a)" style="fill:none;stroke-dasharray:5.55,2.4;stroke-dashoffset:0;stroke:#ff7f0e;stroke-width:1.5"/><defs><path id="M" d="M-3.5 3.5h7v-7h-7z" style="stroke:#ff7f0e;stroke-linejoin:miter"/></defs><g clip-path="url(#a)"><use xlink:href="#M" x="126.6" y="355" style="fill-opacity:0;stroke:#ff7f0e;stroke-linejoin:miter"/><use xlink:href="#M" x="122.7" y="323.3" style="fill-opacity:0;stroke:#ff7f0e;stroke-linejoin:miter"/><use xlink:href="#M" x="110.5" y="329.9" style="fill-opacity:0;stroke:#ff7f0e;stroke-linejoin:miter"/><use xlink:href="#M" x="106.1" y="329.2" style="fill-opacity:0;stroke:#ff7f0e;stroke-linejoin:miter"/><use xlink:href="#M" x="106.3" y="328.5" style="fill-opacity:0;stroke:#ff7f0e;stroke-linejoin:miter"/><use xlink:href="#M" x="104.5" y="332.7" style="fill-opacity:0;stroke:#ff7f0e;stroke-linejoin:miter"/><use xlink:href="#M" x="102" y="334.2" style="fill-opacity:0;stroke:#ff7f0e;stroke-linejoin:miter"/></g><path d="m138.8 170-4.2-.5-12.7-2.4-4.4-2.8.1-.4-2.3 4.3-2.7 1.4" clip-path="url(#a)" style="fill:none;stroke:#2ca02c;stroke-width:1.5;stroke-linecap:square"/><defs><path id="N" d="m0-3.5-3.5 7h7z" style="stroke:#2ca02c;stroke-linejoin:miter"/></defs><g clip-path="url(#a)"><use xlink:href="#N" x="138.8" y="170" style="fill:#2ca02c;stroke:#2ca02c;stroke-linejoin:miter"/><use xlink:href="#N" x="134.6" y="169.5" style="fill:#2ca02c;stroke:#2ca02c;stroke-linejoin:miter"/><use xlink:href="#N" x="121.9" y="167.1" style="fill:#2ca02c;stroke:#2ca02c;stroke-linejoin:miter"/><use xlink:href="#N" x="117.5" y="164.3" style="fill:#2ca02c;stroke:#2ca02c;stroke-linejoin:miter"/><use xlink:href="#N" x="117.6" y="163.9" style="fill:#2ca02c;stroke:#2ca02c;stroke-linejoin:miter"/><use xlink:href="#N" x="115.3" y="168.2" style="fill:#2ca02c;stroke:#2ca02c;stroke-linejoin:miter"/><use xlink:href="#N" x="112.6" y="169.6" style="fill:#2ca02c;stroke:#2ca02c;stroke-linejoin:miter"/></g><path d="m138.8 290.8-4.2-.5-12.7-5-4.4.5.1-.5-2.3 15-2.7 4.8" clip-path="url(#a)" style="fill:none;stroke-dasharray:5.55,2.4;stroke-dashoffset:0;stroke:#2ca02c;stroke-width:1.5"/><defs><path id="O" d="m0-3.5-3.5 7h7z" style="stroke:#2ca02c;stroke-linejoin:miter"/></defs><g clip-path="url(#a)"><use xlink:href="#O" x="138.8" y="290.8" style="fill-opacity:0;stroke:#2ca02c;stroke-linejoin:miter"/><use xlink:href="#O" x="134.6" y="290.3" style="fill-opacity:0;stroke:#2ca02c;stroke-linejoin:miter"/><use xlink:href="#O" x="121.9" y="285.2" style="fill-opacity:0;stroke:#2ca02c;stroke-linejoin:miter"/><use xlink:href="#O" x="117.5" y="285.8" style="fill-opacity:0;stroke:#2ca02c;stroke-linejoin:miter"/><use xlink:href="#O" x="117.6" y="285.3" style="fill-opacity:0;stroke:#2ca02c;stroke-linejoin:miter"/><use xlink:href="#O" x="115.3" y="300.3" style="fill-opacity:0;stroke:#2ca02c;stroke-linejoin:miter"/><use xlink:href="#O" x="112.6" y="305.1" style="fill-opacity:0;stroke:#2ca02c;stroke-linejoin:miter"/></g><path d="m151.1 153.2-4.5-.5-13.5-1.3-4.3-2.7.1-.4-2.6 4.1-2.9 1" clip-path="url(#a)" style="fill:none;stroke:#d62728;stroke-width:1.5;stroke-linecap:square"/><defs><path id="P" d="m0 5 5-5-5-5-5 5z" style="stroke:#d62728;stroke-linejoin:miter"/></defs><g clip-path="url(#a)"><use xlink:href="#P" x="151.1" y="153.2" style="fill:#d62728;stroke:#d62728;stroke-linejoin:miter"/><use xlink:href="#P" x="146.6" y="152.7" style="fill:#d62728;stroke:#d62728;stroke-linejoin:miter"/><use xlink:href="#P" x="133.1" y="151.4" style="fill:#d62728;stroke:#d62728;stroke-linejoin:miter"/><use xlink:href="#P" x="128.8" y="148.7" style="fill:#d62728;stroke:#d62728;stroke-linejoin:miter"/><use xlink:href="#P" x="128.9" y="148.3" style="fill:#d62728;stroke:#d62728;stroke-linejoin:miter"/><use xlink:href="#P" x="126.3" y="152.4" style="fill:#d62728;stroke:#d62728;stroke-linejoin:miter"/><use xlink:href="#P" x="123.4" y="153.5" style="fill:#d62728;stroke:#d62728;stroke-linejoin:miter"/></g><path d="m151.1 260.3-4.5-.2L133 257l-4.3-.3.1-.3-2.6 3.5-2.9 1.8" clip-path="url(#a)" style="fill:none;stroke-dasharray:5.55,2.4;stroke-dashoffset:0;stroke:#d62728;stroke-width:1.5"/><defs><path id="Q" d="m0 5 5-5-5-5-5 5z" style="stroke:#d62728;stroke-linejoin:miter"/></defs><g clip-path="url(#a)"><use xlink:href="#Q" x="151.1" y="260.3" style="fill-opacity:0;stroke:#d62728;stroke-linejoin:miter"/><use xlink:href="#Q" x="146.6" y="260.1" style="fill-opacity:0;stroke:#d62728;stroke-linejoin:miter"/><use xlink:href="#Q" x="133.1" y="256.9" style="fill-opacity:0;stroke:#d62728;stroke-linejoin:miter"/><use xlink:href="#Q" x="128.8" y="256.6" style="fill-opacity:0;stroke:#d62728;stroke-linejoin:miter"/><use xlink:href="#Q" x="128.9" y="256.3" style="fill-opacity:0;stroke:#d62728;stroke-linejoin:miter"/><use xlink:href="#Q" x="126.3" y="259.8" style="fill-opacity:0;stroke:#d62728;stroke-linejoin:miter"/><use xlink:href="#Q" x="123.4" y="261.6" style="fill-opacity:0;stroke:#d62728;stroke-linejoin:miter"/></g><path d="m164.5 138.7-5-.4-13.7-1-4.3-2.8.2-.5-3 4-3 .6" clip-path="url(#a)" style="fill:none;stroke:#9467bd;stroke-width:1.5;stroke-linecap:square"/><defs><path id="R" d="m0 3.5 3.5-7h-7z" style="stroke:#9467bd;stroke-linejoin:miter"/></defs><g clip-path="url(#a)"><use xlink:href="#R" x="164.5" y="138.7" style="fill:#9467bd;stroke:#9467bd;stroke-linejoin:miter"/><use xlink:href="#R" x="159.4" y="138.3" style="fill:#9467bd;stroke:#9467bd;stroke-linejoin:miter"/><use xlink:href="#R" x="145.8" y="137.3" style="fill:#9467bd;stroke:#9467bd;stroke-linejoin:miter"/><use xlink:href="#R" x="141.5" y="134.5" style="fill:#9467bd;stroke:#9467bd;stroke-linejoin:miter"/><use xlink:href="#R" x="141.7" y="134" style="fill:#9467bd;stroke:#9467bd;stroke-linejoin:miter"/><use xlink:href="#R" x="138.7" y="138" style="fill:#9467bd;stroke:#9467bd;stroke-linejoin:miter"/><use xlink:href="#R" x="135.8" y="138.6" style="fill:#9467bd;stroke:#9467bd;stroke-linejoin:miter"/></g><path d="m164.5 236.7-5-.2-13.7-7.6-4.3 1 .2-.4-3 4.1-3 1.2" clip-path="url(#a)" style="fill:none;stroke-dasharray:5.55,2.4;stroke-dashoffset:0;stroke:#9467bd;stroke-width:1.5"/><defs><path id="S" d="m0 3.5 3.5-7h-7z" style="stroke:#9467bd;stroke-linejoin:miter"/></defs><g clip-path="url(#a)"><use xlink:href="#S" x="164.5" y="236.7" style="fill-opacity:0;stroke:#9467bd;stroke-linejoin:miter"/><use xlink:href="#S" x="159.4" y="236.5" style="fill-opacity:0;stroke:#9467bd;stroke-linejoin:miter"/><use xlink:href="#S" x="145.8" y="228.9" style="fill-opacity:0;stroke:#9467bd;stroke-linejoin:miter"/><use xlink:href="#S" x="141.5" y="229.9" style="fill-opacity:0;stroke:#9467bd;stroke-linejoin:miter"/><use xlink:href="#S" x="141.7" y="229.5" style="fill-opacity:0;stroke:#9467bd;stroke-linejoin:miter"/><use xlink:href="#S" x="138.7" y="233.6" style="fill-opacity:0;stroke:#9467bd;stroke-linejoin:miter"/><use xlink:href="#S" x="135.8" y="234.8" style="fill-opacity:0;stroke:#9467bd;stroke-linejoin:miter"/></g><path d="m197.4 112.2-6-.2-12.3-1.9-4-2.7.1-.2-3.7 3.2-3.2.2" clip-path="url(#a)" style="fill:none;stroke:#8c564b;stroke-width:1.5;stroke-linecap:square"/><defs><path id="T" d="m-3.5 0 7 3.5v-7z" style="stroke:#8c564b;stroke-linejoin:miter"/></defs><g clip-path="url(#a)"><use xlink:href="#T" x="197.4" y="112.2" style="fill:#8c564b;stroke:#8c564b;stroke-linejoin:miter"/><use xlink:href="#T" x="191.4" y="112" style="fill:#8c564b;stroke:#8c564b;stroke-linejoin:miter"/><use xlink:href="#T" x="179.1" y="110.1" style="fill:#8c564b;stroke:#8c564b;stroke-linejoin:miter"/><use xlink:href="#T" x="175" y="107.4" style="fill:#8c564b;stroke:#8c564b;stroke-linejoin:miter"/><use xlink:href="#T" x="175.2" y="107.2" style="fill:#8c564b;stroke:#8c564b;stroke-linejoin:miter"/><use xlink:href="#T" x="171.5" y="110.4" style="fill:#8c564b;stroke:#8c564b;stroke-linejoin:miter"/><use xlink:href="#T" x="168.3" y="110.6" style="fill:#8c564b;stroke:#8c564b;stroke-linejoin:miter"/></g><path d="m197.4 195.5-6-.1-12.3-6.2-4-2.7.1-.5-3.7 5.5-3.2-2" clip-path="url(#a)" style="fill:none;stroke-dasharray:5.55,2.4;stroke-dashoffset:0;stroke:#8c564b;stroke-width:1.5"/><defs><path id="U" d="m-3.5 0 7 3.5v-7z" style="stroke:#8c564b;stroke-linejoin:miter"/></defs><g clip-path="url(#a)"><use xlink:href="#U" x="197.4" y="195.5" style="fill-opacity:0;stroke:#8c564b;stroke-linejoin:miter"/><use xlink:href="#U" x="191.4" y="195.4" style="fill-opacity:0;stroke:#8c564b;stroke-linejoin:miter"/><use xlink:href="#U" x="179.1" y="189.2" style="fill-opacity:0;stroke:#8c564b;stroke-linejoin:miter"/><use xlink:href="#U" x="175" y="186.5" style="fill-opacity:0;stroke:#8c564b;stroke-linejoin:miter"/><use xlink:href="#U" x="175.2" y="186" style="fill-opacity:0;stroke:#8c564b;stroke-linejoin:miter"/><use xlink:href="#U" x="171.5" y="191.5" style="fill-opacity:0;stroke:#8c564b;stroke-linejoin:miter"/><use xlink:href="#U" x="168.3" y="189.5" style="fill-opacity:0;stroke:#8c564b;stroke-linejoin:miter"/></g><path d="m283 71.6-7.3-.1-8.4-.6-1-3 .4.5-5.3 1.5-3.1.2" clip-path="url(#a)" style="fill:none;stroke:#e377c2;stroke-width:1.5;stroke-linecap:square"/><defs><path id="V" d="m3.5 0-7-3.5v7z" style="stroke:#e377c2;stroke-linejoin:miter"/></defs><g clip-path="url(#a)"><use xlink:href="#V" x="283" y="71.6" style="fill:#e377c2;stroke:#e377c2;stroke-linejoin:miter"/><use xlink:href="#V" x="275.7" y="71.5" style="fill:#e377c2;stroke:#e377c2;stroke-linejoin:miter"/><use xlink:href="#V" x="267.3" y="70.9" style="fill:#e377c2;stroke:#e377c2;stroke-linejoin:miter"/><use xlink:href="#V" x="266.3" y="68" style="fill:#e377c2;stroke:#e377c2;stroke-linejoin:miter"/><use xlink:href="#V" x="266.7" y="68.4" style="fill:#e377c2;stroke:#e377c2;stroke-linejoin:miter"/><use xlink:href="#V" x="261.4" y="69.9" style="fill:#e377c2;stroke:#e377c2;stroke-linejoin:miter"/><use xlink:href="#V" x="258.3" y="70.1" style="fill:#e377c2;stroke:#e377c2;stroke-linejoin:miter"/></g><path d="M283 121.4h-7.3l-8.4.4-1-1 .4 6.9-5.3-.3-3.1.8" clip-path="url(#a)" style="fill:none;stroke-dasharray:5.55,2.4;stroke-dashoffset:0;stroke:#e377c2;stroke-width:1.5"/><defs><path id="W" d="m3.5 0-7-3.5v7z" style="stroke:#e377c2;stroke-linejoin:miter"/></defs><g clip-path="url(#a)"><use xlink:href="#W" x="283" y="121.4" style="fill-opacity:0;stroke:#e377c2;stroke-linejoin:miter"/><use xlink:href="#W" x="275.7" y="121.4" style="fill-opacity:0;stroke:#e377c2;stroke-linejoin:miter"/><use xlink:href="#W" x="267.3" y="121.8" style="fill-opacity:0;stroke:#e377c2;stroke-linejoin:miter"/><use xlink:href="#W" x="266.3" y="120.8" style="fill-opacity:0;stroke:#e377c2;stroke-linejoin:miter"/><use xlink:href="#W" x="266.7" y="127.7" style="fill-opacity:0;stroke:#e377c2;stroke-linejoin:miter"/><use xlink:href="#W" x="261.4" y="127.4" style="fill-opacity:0;stroke:#e377c2;stroke-linejoin:miter"/><use xlink:href="#W" x="258.3" y="128.2" style="fill-opacity:0;stroke:#e377c2;stroke-linejoin:miter"/></g><path d="M679.7 44.1h-3.5.8l-195-.7h.3l-4.2.3h-3.2" clip-path="url(#a)" style="fill:none;stroke:#7f7f7f;stroke-width:1.5;stroke-linecap:square"/><defs><path id="X" d="m0-3.5-3.3 2.4 1.2 4h4.2l1.2-4z" style="stroke:#7f7f7f;stroke-linejoin:miter"/></defs><g clip-path="url(#a)"><use xlink:href="#X" x="679.7" y="44.1" style="fill:#7f7f7f;stroke:#7f7f7f;stroke-linejoin:miter"/><use xlink:href="#X" x="676.2" y="44.1" style="fill:#7f7f7f;stroke:#7f7f7f;stroke-linejoin:miter"/><use xlink:href="#X" x="677" y="44" style="fill:#7f7f7f;stroke:#7f7f7f;stroke-linejoin:miter"/><use xlink:href="#X" x="482.1" y="43.4" style="fill:#7f7f7f;stroke:#7f7f7f;stroke-linejoin:miter"/><use xlink:href="#X" x="482.3" y="43.4" style="fill:#7f7f7f;stroke:#7f7f7f;stroke-linejoin:miter"/><use xlink:href="#X" x="478.1" y="43.7" style="fill:#7f7f7f;stroke:#7f7f7f;stroke-linejoin:miter"/><use xlink:href="#X" x="474.9" y="43.8" style="fill:#7f7f7f;stroke:#7f7f7f;stroke-linejoin:miter"/></g><path d="m679.7 75.7-3.5-.2h.8L482 75h.3l-4.2.4h-3.2" clip-path="url(#a)" style="fill:none;stroke-dasharray:5.55,2.4;stroke-dashoffset:0;stroke:#7f7f7f;stroke-width:1.5"/><defs><path id="Y" d="m0-3.5-3.3 2.4 1.2 4h4.2l1.2-4z" style="stroke:#7f7f7f;stroke-linejoin:miter"/></defs><g clip-path="url(#a)"><use xlink:href="#Y" x="679.7" y="75.7" style="fill-opacity:0;stroke:#7f7f7f;stroke-linejoin:miter"/><use xlink:href="#Y" x="676.2" y="75.5" style="fill-opacity:0;stroke:#7f7f7f;stroke-linejoin:miter"/><use xlink:href="#Y" x="677" y="75.5" style="fill-opacity:0;stroke:#7f7f7f;stroke-linejoin:miter"/><use xlink:href="#Y" x="482.1" y="75.1" style="fill-opacity:0;stroke:#7f7f7f;stroke-linejoin:miter"/><use xlink:href="#Y" x="482.3" y="75" style="fill-opacity:0;stroke:#7f7f7f;stroke-linejoin:miter"/><use xlink:href="#Y" x="478.1" y="75.5" style="fill-opacity:0;stroke:#7f7f7f;stroke-linejoin:miter"/><use xlink:href="#Y" x="474.9" y="75.4" style="fill-opacity:0;stroke:#7f7f7f;stroke-linejoin:miter"/></g><path d="M61 389.3V27m648.2 362.3V27M61 389.3h648.2M61 26.9h648.2" style="fill:none;stroke:#000;stroke-width:.8;stroke-linejoin:miter;stroke-linecap:square"/><g transform="matrix(.12 0 0 -.12 315.6 20.9)"><defs><path id="Z" d="M191 3500h609L1894 563l1094 2937h609L2284 0h-781z" transform="scale(.01563)"/></defs><use xlink:href="#E"/><use xlink:href="#E" transform="translate(63.5)"/><use xlink:href="#F" transform="translate(127)"/><use xlink:href="#G" transform="translate(156.4)"/><use xlink:href="#Z" transform="translate(274.5)"/><use xlink:href="#o" transform="translate(333.7)"/><use xlink:href="#k" transform="translate(417.6)"/><use xlink:href="#l" transform="translate(486.2)"/><use xlink:href="#m" transform="translate(545.4)"/><use xlink:href="#n" transform="translate(584.6)"/><use xlink:href="#o" transform="translate(646)"/><use xlink:href="#p" transform="translate(730)"/><use xlink:href="#n" transform="translate(793.5)"/><use xlink:href="#q" transform="translate(855)"/><use xlink:href="#r" transform="translate(927.9)"/><use xlink:href="#s" transform="translate(986)"/><use xlink:href="#t" transform="translate(1013.7)"/><use xlink:href="#n" transform="translate(1069.8)"/><use xlink:href="#u" transform="translate(1131.3)"/></g><path d="M522 385.3h181.6q1.6 0 1.6-1.6v-93.1q0-1.6-1.6-1.6H522.1q-1.6 0-1.6 1.6v93.1q0 1.6 1.6 1.6z" style="fill:#fff;opacity:.8;stroke:#ccc;stroke-linejoin:miter"/><path d="M523.7 295.5h16" style="fill:none;stroke:#1f77b4;stroke-width:1.5;stroke-linecap:square"/><use xlink:href="#J" x="531.7" y="295.5" style="fill:#1f77b4;stroke:#1f77b4"/><g transform="matrix(.08 0 0 -.08 546 298.3)"><defs><path id="aa" d="M3328 2828q216 388 516 572t706 184q547 0 844-383 297-382 297-1088V0h-578v2094q0 503-179 746-178 244-543 244-447 0-707-297-259-296-259-809V0h-578v2094q0 506-178 748t-550 242q-441 0-701-298-259-298-259-808V0H581v3500h578v-544q197 322 472 475t653 153q382 0 649-194 267-193 395-562" transform="scale(.01563)"/><path id="ab" d="M2194 1759q-697 0-966-159t-269-544q0-306 202-486 202-179 548-179 479 0 768 339t289 901v128zm1147 238V0h-575v531q-197-318-491-470T1556-91q-537 0-855 302-317 302-317 808 0 590 395 890 396 300 1180 300h807v57q0 397-261 614t-733 217q-300 0-585-72-284-72-546-216v532q315 122 612 182 297 61 578 61 760 0 1135-394 375-393 375-1193" transform="scale(.01563)"/><path id="ac" d="M3513 2113V0h-575v2094q0 497-194 743-194 247-581 247-466 0-735-297-269-296-269-809V0H581v3500h578v-544q207 316 486 472 280 156 646 156 603 0 912-373 310-373 310-1098" transform="scale(.01563)"/></defs><use xlink:href="#g"/><use xlink:href="#c" transform="translate(63.6)"/><use xlink:href="#v" transform="translate(159)"/><use xlink:href="#aa" transform="translate(198)"/><use xlink:href="#n" transform="translate(295.5)"/><use xlink:href="#ab" transform="translate(357)"/><use xlink:href="#ac" transform="translate(418.3)"/><use xlink:href="#z" transform="translate(481.6)"/></g><path d="M523.7 307.2h16" style="fill:none;stroke-dasharray:5.55,2.4;stroke-dashoffset:0;stroke:#1f77b4;stroke-width:1.5"/><use xlink:href="#K" x="531.7" y="307.2" style="fill-opacity:0;stroke:#1f77b4"/><g transform="matrix(.08 0 0 -.08 546 310)"><defs><path id="ad" d="M4653 2053q-272 0-427-231-154-231-154-644 0-406 154-639 155-233 427-233 266 0 420 233 155 233 155 639 0 410-155 642-154 233-420 233m0 397q494 0 784-344 291-343 291-928 0-584-292-927-292-342-783-342-500 0-791 342-290 343-290 927 0 588 292 930t789 342M1428 4353q-269 0-424-233-154-232-154-639 0-412 153-644 153-231 425-231t426 231q155 232 155 644 0 403-156 637-156 235-425 235m2822 397h500L1831-91h-500zm-2822 0q494 0 787-342 294-342 294-927 0-590-292-931t-789-341-786 342q-289 343-289 930 0 582 290 925 291 344 785 344" transform="scale(.01563)"/></defs><use xlink:href="#g"/><use xlink:href="#c" transform="translate(63.6)"/><use xlink:href="#v" transform="translate(159)"/><use xlink:href="#i" transform="translate(198)"/><use xlink:href="#ad" transform="translate(261.7)"/><use xlink:href="#x" transform="translate(388.5)"/><use xlink:href="#w" transform="translate(470.3)"/><use xlink:href="#q" transform="translate(531.4)"/><use xlink:href="#o" transform="translate(572.6)"/><use xlink:href="#m" transform="translate(624.7)"/><use xlink:href="#z" transform="translate(663.9)"/></g><path d="M523.7 319h16" style="fill:none;stroke:#ff7f0e;stroke-width:1.5;stroke-linecap:square"/><use xlink:href="#L" x="531.7" y="318.9" style="fill:#ff7f0e;stroke:#ff7f0e;stroke-linejoin:miter"/><g transform="matrix(.08 0 0 -.08 546 321.7)"><use xlink:href="#h"/><use xlink:href="#c" transform="translate(63.6)"/><use xlink:href="#v" transform="translate(159)"/><use xlink:href="#aa" transform="translate(198)"/><use xlink:href="#n" transform="translate(295.5)"/><use xlink:href="#ab" transform="translate(357)"/><use xlink:href="#ac" transform="translate(418.3)"/><use xlink:href="#z" transform="translate(481.6)"/></g><path d="M523.7 330.7h16" style="fill:none;stroke-dasharray:5.55,2.4;stroke-dashoffset:0;stroke:#ff7f0e;stroke-width:1.5"/><use xlink:href="#M" x="531.7" y="330.7" style="fill-opacity:0;stroke:#ff7f0e;stroke-linejoin:miter"/><g transform="matrix(.08 0 0 -.08 546 333.5)"><use xlink:href="#h"/><use xlink:href="#c" transform="translate(63.6)"/><use xlink:href="#v" transform="translate(159)"/><use xlink:href="#i" transform="translate(198)"/><use xlink:href="#ad" transform="translate(261.7)"/><use xlink:href="#x" transform="translate(388.5)"/><use xlink:href="#w" transform="translate(470.3)"/><use xlink:href="#q" transform="translate(531.4)"/><use xlink:href="#o" transform="translate(572.6)"/><use xlink:href="#m" transform="translate(624.7)"/><use xlink:href="#z" transform="translate(663.9)"/></g><path d="M523.7 342.4h16" style="fill:none;stroke:#2ca02c;stroke-width:1.5;stroke-linecap:square"/><use xlink:href="#N" x="531.7" y="342.4" style="fill:#2ca02c;stroke:#2ca02c;stroke-linejoin:miter"/><g transform="matrix(.08 0 0 -.08 546 345.2)"><use xlink:href="#i"/><use xlink:href="#c" transform="translate(63.6)"/><use xlink:href="#v" transform="translate(159)"/><use xlink:href="#aa" transform="translate(198)"/><use xlink:href="#n" transform="translate(295.5)"/><use xlink:href="#ab" transform="translate(357)"/><use xlink:href="#ac" transform="translate(418.3)"/><use xlink:href="#z" transform="translate(481.6)"/></g><path d="M523.7 354.2h16" style="fill:none;stroke-dasharray:5.55,2.4;stroke-dashoffset:0;stroke:#2ca02c;stroke-width:1.5"/><use xlink:href="#O" x="531.7" y="354.2" style="fill-opacity:0;stroke:#2ca02c;stroke-linejoin:miter"/><g transform="matrix(.08 0 0 -.08 546 357)"><use xlink:href="#i"/><use xlink:href="#c" transform="translate(63.6)"/><use xlink:href="#v" transform="translate(159)"/><use xlink:href="#i" transform="translate(198)"/><use xlink:href="#ad" transform="translate(261.7)"/><use xlink:href="#x" transform="translate(388.5)"/><use xlink:href="#w" transform="translate(470.3)"/><use xlink:href="#q" transform="translate(531.4)"/><use xlink:href="#o" transform="translate(572.6)"/><use xlink:href="#m" transform="translate(624.7)"/><use xlink:href="#z" transform="translate(663.9)"/></g><path d="M523.7 366h16" style="fill:none;stroke:#d62728;stroke-width:1.5;stroke-linecap:square"/><use xlink:href="#P" x="531.7" y="365.9" style="fill:#d62728;stroke:#d62728;stroke-linejoin:miter"/><g transform="matrix(.08 0 0 -.08 546 368.7)"><use xlink:href="#j"/><use xlink:href="#c" transform="translate(63.6)"/><use xlink:href="#v" transform="translate(159)"/><use xlink:href="#aa" transform="translate(198)"/><use xlink:href="#n" transform="translate(295.5)"/><use xlink:href="#ab" transform="translate(357)"/><use xlink:href="#ac" transform="translate(418.3)"/><use xlink:href="#z" transform="translate(481.6)"/></g><path d="M523.7 377.7h16" style="fill:none;stroke-dasharray:5.55,2.4;stroke-dashoffset:0;stroke:#d62728;stroke-width:1.5"/><use xlink:href="#Q" x="531.7" y="377.7" style="fill-opacity:0;stroke:#d62728;stroke-linejoin:miter"/><g transform="matrix(.08 0 0 -.08 546 380.5)"><use xlink:href="#j"/><use xlink:href="#c" transform="translate(63.6)"/><use xlink:href="#v" transform="translate(159)"/><use xlink:href="#i" transform="translate(198)"/><use xlink:href="#ad" transform="translate(261.7)"/><use xlink:href="#x" transform="translate(388.5)"/><use xlink:href="#w" transform="translate(470.3)"/><use xlink:href="#q" transform="translate(531.4)"/><use xlink:href="#o" transform="translate(572.6)"/><use xlink:href="#m" transform="translate(624.7)"/><use xlink:href="#z" transform="translate(663.9)"/></g><path d="M618.3 295.5h16" style="fill:none;stroke:#9467bd;stroke-width:1.5;stroke-linecap:square"/><use xlink:href="#R" x="626.3" y="295.5" style="fill:#9467bd;stroke:#9467bd;stroke-linejoin:miter"/><g transform="matrix(.08 0 0 -.08 640.7 298.3)"><use xlink:href="#C"/><use xlink:href="#c" transform="translate(63.6)"/><use xlink:href="#v" transform="translate(159)"/><use xlink:href="#aa" transform="translate(198)"/><use xlink:href="#n" transform="translate(295.5)"/><use xlink:href="#ab" transform="translate(357)"/><use xlink:href="#ac" transform="translate(418.3)"/><use xlink:href="#z" transform="translate(481.6)"/></g><path d="M618.3 307.2h16" style="fill:none;stroke-dasharray:5.55,2.4;stroke-dashoffset:0;stroke:#9467bd;stroke-width:1.5"/><use xlink:href="#S" x="626.3" y="307.2" style="fill-opacity:0;stroke:#9467bd;stroke-linejoin:miter"/><g transform="matrix(.08 0 0 -.08 640.7 310)"><use xlink:href="#C"/><use xlink:href="#c" transform="translate(63.6)"/><use xlink:href="#v" transform="translate(159)"/><use xlink:href="#i" transform="translate(198)"/><use xlink:href="#ad" transform="translate(261.7)"/><use xlink:href="#x" transform="translate(388.5)"/><use xlink:href="#w" transform="translate(470.3)"/><use xlink:href="#q" transform="translate(531.4)"/><use xlink:href="#o" transform="translate(572.6)"/><use xlink:href="#m" transform="translate(624.7)"/><use xlink:href="#z" transform="translate(663.9)"/></g><path d="M618.3 319h16" style="fill:none;stroke:#8c564b;stroke-width:1.5;stroke-linecap:square"/><use xlink:href="#T" x="626.3" y="318.9" style="fill:#8c564b;stroke:#8c564b;stroke-linejoin:miter"/><g transform="matrix(.08 0 0 -.08 640.7 321.7)"><use xlink:href="#B"/><use xlink:href="#c" transform="translate(63.6)"/><use xlink:href="#v" transform="translate(159)"/><use xlink:href="#aa" transform="translate(198)"/><use xlink:href="#n" transform="translate(295.5)"/><use xlink:href="#ab" transform="translate(357)"/><use xlink:href="#ac" transform="translate(418.3)"/><use xlink:href="#z" transform="translate(481.6)"/></g><path d="M618.3 330.7h16" style="fill:none;stroke-dasharray:5.55,2.4;stroke-dashoffset:0;stroke:#8c564b;stroke-width:1.5"/><use xlink:href="#U" x="626.3" y="330.7" style="fill-opacity:0;stroke:#8c564b;stroke-linejoin:miter"/><g transform="matrix(.08 0 0 -.08 640.7 333.5)"><use xlink:href="#B"/><use xlink:href="#c" transform="translate(63.6)"/><use xlink:href="#v" transform="translate(159)"/><use xlink:href="#i" transform="translate(198)"/><use xlink:href="#ad" transform="translate(261.7)"/><use xlink:href="#x" transform="translate(388.5)"/><use xlink:href="#w" transform="translate(470.3)"/><use xlink:href="#q" transform="translate(531.4)"/><use xlink:href="#o" transform="translate(572.6)"/><use xlink:href="#m" transform="translate(624.7)"/><use xlink:href="#z" transform="translate(663.9)"/></g><path d="M618.3 342.4h16" style="fill:none;stroke:#e377c2;stroke-width:1.5;stroke-linecap:square"/><use xlink:href="#V" x="626.3" y="342.4" style="fill:#e377c2;stroke:#e377c2;stroke-linejoin:miter"/><g transform="matrix(.08 0 0 -.08 640.7 345.2)"><use xlink:href="#D"/><use xlink:href="#c" transform="translate(63.6)"/><use xlink:href="#v" transform="translate(159)"/><use xlink:href="#aa" transform="translate(198)"/><use xlink:href="#n" transform="translate(295.5)"/><use xlink:href="#ab" transform="translate(357)"/><use xlink:href="#ac" transform="translate(418.3)"/><use xlink:href="#z" transform="translate(481.6)"/></g><path d="M618.3 354.2h16" style="fill:none;stroke-dasharray:5.55,2.4;stroke-dashoffset:0;stroke:#e377c2;stroke-width:1.5"/><use xlink:href="#W" x="626.3" y="354.2" style="fill-opacity:0;stroke:#e377c2;stroke-linejoin:miter"/><g transform="matrix(.08 0 0 -.08 640.7 357)"><use xlink:href="#D"/><use xlink:href="#c" transform="translate(63.6)"/><use xlink:href="#v" transform="translate(159)"/><use xlink:href="#i" transform="translate(198)"/><use xlink:href="#ad" transform="translate(261.7)"/><use xlink:href="#x" transform="translate(388.5)"/><use xlink:href="#w" transform="translate(470.3)"/><use xlink:href="#q" transform="translate(531.4)"/><use xlink:href="#o" transform="translate(572.6)"/><use xlink:href="#m" transform="translate(624.7)"/><use xlink:href="#z" transform="translate(663.9)"/></g><path d="M618.3 366h16" style="fill:none;stroke:#7f7f7f;stroke-width:1.5;stroke-linecap:square"/><use xlink:href="#X" x="626.3" y="365.9" style="fill:#7f7f7f;stroke:#7f7f7f;stroke-linejoin:miter"/><g transform="matrix(.08 0 0 -.08 640.7 368.7)"><use xlink:href="#e"/><use xlink:href="#c" transform="translate(63.6)"/><use xlink:href="#c" transform="translate(127.2)"/><use xlink:href="#v" transform="translate(222.7)"/><use xlink:href="#aa" transform="translate(261.7)"/><use xlink:href="#n" transform="translate(359)"/><use xlink:href="#ab" transform="translate(420.6)"/><use xlink:href="#ac" transform="translate(481.9)"/><use xlink:href="#z" transform="translate(545.3)"/></g><path d="M618.3 377.7h16" style="fill:none;stroke-dasharray:5.55,2.4;stroke-dashoffset:0;stroke:#7f7f7f;stroke-width:1.5"/><use xlink:href="#Y" x="626.3" y="377.7" style="fill-opacity:0;stroke:#7f7f7f;stroke-linejoin:miter"/><g transform="matrix(.08 0 0 -.08 640.7 380.5)"><use xlink:href="#e"/><use xlink:href="#c" transform="translate(63.6)"/><use xlink:href="#c" transform="translate(127.2)"/><use xlink:href="#v" transform="translate(222.7)"/><use xlink:href="#i" transform="translate(261.7)"/><use xlink:href="#ad" transform="translate(325.3)"/><use xlink:href="#x" transform="translate(452.1)"/><use xlink:href="#w" transform="translate(533.9)"/><use xlink:href="#q" transform="translate(595)"/><use xlink:href="#o" transform="translate(636.2)"/><use xlink:href="#m" transform="translate(688.3)"/><use xlink:href="#z" transform="translate(727.5)"/></g><defs><clipPath id="a"><path d="M61 26.9h648.2v362.4H61z"/></clipPath></defs></svg>