<svg xmlns="http://www.w3.org/2000/svg" width="400" height="400" viewBox="0 0 105.8 105.8"><path fill="#cf677e" d="M11.9 50.8c-1.3 0-2.4 1-2.4 2.4v1.5c0 1.3 1 2.4 2.4 2.4h.8v14.8L1.2 90.3a7 7 0 0 0 5.9 10.6h30a7 7 0 0 0 6.1-10q-5.7-9.6-11.8-19V57h.8c1.3 0 2.4-1 2.4-2.4v-1.5c0-1.3-1-2.4-2.4-2.4H18Zm7 6.3h6.3v15.6c0 1.2.8 2.2 1.4 3.2l3.9 6.2H13.6l4.4-7q.8-1 1-2.4z"/><path fill="#24b891" d="M37.9 67.5v2.1q.8 2.2 2.2 4.1h40.2L65 53.5 53.3 68.7l-8.5-10Z"/><path fill="#118ab2" d="M76 5a19.4 19.4 0 0 0-19.3 19.3 19 19 0 0 0 19.2 19.3q5.2 0 10.2-3L99.6 54l6-6-13.2-13.4q3-5 3-10.3c0-11-8.7-19.4-19.4-19.4m0 8.5c6.7 0 10.7 5.5 10.7 10.8C86.7 30.3 82 35 76 35c-5.3 0-10.8-4-10.8-10.7 0-6 4.8-10.8 10.8-10.8"/><path fill="#073b4c" d="M26.6 13.5a8.7 8.7 0 0 0-8.6 8.6v22.3h8.6V22.1H48q0-4.4 2.1-8.6zm19 68.8c1.5 2.8 3.6 5.4 4.4 8.6h36.7c4.1 0 8.6-3.4 8.6-8.6V60.8l-8.6-8.6v30.1z"/><path fill="#ffb91c" d="M44.6 34.4a7.4 7.4 0 0 1 7.3 7.4 7.4 7.4 0 0 1-7.3 7.3 7.4 7.4 0 0 1-7.4-7.3 7.4 7.4 0 0 1 7.4-7.4"/></svg>