<?xml version="1.0" encoding="UTF-8" standalone="no"?>
<!-- Created with Inkscape (http://www.inkscape.org/) -->

<svg
   width="400"
   height="400"
   viewBox="0 0 105.83333 105.83333"
   version="1.1"
   id="svg1"
   inkscape:version="1.4.3 (0d15f75042, 2025-12-25)"
   sodipodi:docname="logo-original.svg"
   inkscape:export-filename="logo.png"
   inkscape:export-xdpi="43.200001"
   inkscape:export-ydpi="43.200001"
   xmlns:inkscape="http://www.inkscape.org/namespaces/inkscape"
   xmlns:sodipodi="http://sodipodi.sourceforge.net/DTD/sodipodi-0.dtd"
   xmlns="http://www.w3.org/2000/svg"
   xmlns:svg="http://www.w3.org/2000/svg">
  <sodipodi:namedview
     id="namedview1"
     pagecolor="#ffffff"
     bordercolor="#000000"
     borderopacity="0.25"
     inkscape:showpageshadow="2"
     inkscape:pageopacity="0.0"
     inkscape:pagecheckerboard="0"
     inkscape:deskcolor="#d1d1d1"
     inkscape:document-units="mm"
     showgrid="true"
     inkscape:zoom="1.4257276"
     inkscape:cx="76.452192"
     inkscape:cy="218.48493"
     inkscape:window-width="1856"
     inkscape:window-height="1043"
     inkscape:window-x="0"
     inkscape:window-y="0"
     inkscape:window-maximized="1"
     inkscape:current-layer="g28">
    <inkscape:grid
       id="grid1"
       units="px"
       originx="0"
       originy="0"
       spacingx="0.26458333"
       spacingy="0.26458333"
       empcolor="#0099e5"
       empopacity="0.30196078"
       color="#0099e5"
       opacity="0.14901961"
       empspacing="5"
       enabled="true"
       visible="true" />
  </sodipodi:namedview>
  <defs
     id="defs1" />
  <g
     inkscape:label="Layer 1"
     inkscape:groupmode="layer"
     id="layer1"
     style="display:none">
    <path
       fill="currentColor"
       d="m 70.207221,38.802708 c 2.16176,0 3.983804,-0.741171 5.466147,-2.254385 1.513226,-1.482345 2.254397,-3.304401 2.254397,-5.466146 0,-2.069107 -0.741171,-3.922034 -2.254397,-5.466134 -1.482343,-1.54411 -3.304387,-2.254399 -5.466147,-2.254399 -2.069092,0 -3.922021,0.710243 -5.466131,2.254399 -1.544111,1.5441 -2.254399,3.397027 -2.254399,5.466134 0,2.161745 0.710241,3.983801 2.254399,5.466146 1.54411,1.513214 3.397039,2.254385 5.466131,2.254385 m 11.766104,-0.27791 9.57346,9.542577 -4.354377,4.354387 -9.696996,-9.57346 c -2.408807,1.451458 -4.879383,2.130864 -7.38083,2.130864 -3.860266,0 -7.133781,-1.297052 -9.789638,-4.014677 -2.624983,-2.686752 -4.014684,-5.960256 -4.014684,-9.882288 0,-3.798499 1.389701,-7.102897 4.107326,-9.789638 2.686752,-2.717625 5.991139,-4.107326 9.789635,-4.107326 3.922035,0 7.195549,1.389701 9.882291,4.107326 2.717623,2.686741 4.014674,5.991139 4.014674,9.789638 0,2.563215 -0.679426,5.033789 -2.130861,7.442597 M 73.295444,66.59666 H 39.325085 l 8.492586,-10.808743 6.083781,7.195539 8.399947,-10.870511 z m 4.632321,-15.441064 6.176421,6.176421 v 15.441074 c 0,1.698521 -0.586752,3.08821 -1.822044,4.323504 -1.266167,1.2044 -2.717625,1.85293 -4.354377,1.85293 H 34.692762 c -1.698518,0 -3.088209,-0.648497 -4.323503,-1.85293 -1.204397,-1.235294 -1.852928,-2.624983 -1.852928,-4.323504 V 29.538089 c 0,-1.636751 0.648497,-3.088211 1.852928,-4.354377 1.235294,-1.23528 2.624985,-1.822044 4.323503,-1.822044 h 16.985174 c -0.926406,1.976455 -1.451457,4.04556 -1.5441,6.176421 H 34.692762 v 43.235002 h 43.235003 z"
       id="path1-2"
       style="stroke-width:0.264582"
       inkscape:label="https://icon-sets.iconify.design/mdi/image-search-outline/" />
    <g
       id="g2"
       transform="matrix(1.0893598,0,0,1.0893598,-1.7050823,-3.733371)"
       style="stroke-width:0.917974"
       inkscape:label="https://icon-sets.iconify.design/fa-solid/flask/">
      <path
         id="path2"
         style="fill:#ffffff;fill-opacity:1;stroke-width:0.242879"
         d="m 36.322266,45.222656 c -4.73333,0.114983 -9.491979,-0.20385 -14.207404,0.244537 -3.298013,0.910821 -4.998426,4.909745 -3.966394,8.049395 0.310096,1.130402 0.959947,2.172438 1.855438,2.930678 -0.01911,1.904232 0.04847,3.809575 -0.03516,5.71289 -2.568947,4.321681 -5.450919,8.467186 -7.763001,12.934404 -1.771545,4.791499 1.658714,10.775408 6.766907,11.469893 3.819062,0.364281 7.658579,0.06438 11.486706,0.164595 4.051748,-0.03906 8.130214,0.178861 12.160448,-0.289274 4.946445,-1.203762 8.013172,-7.359976 5.751284,-11.98079 -1.901522,-3.595893 -4.262352,-6.922508 -6.326973,-10.420878 -0.39194,-0.717535 -1.022718,-1.376505 -1.183201,-2.177559 -0.0015,-1.810965 -0.02122,-3.622376 0.03361,-5.432813 3.06781,-2.647781 2.749993,-8.27806 -0.802734,-10.365234 -1.108062,-0.731911 -2.47344,-0.874811 -3.769531,-0.839844 z" />
      <path
         fill="currentColor"
         d="m 44.187158,75.501198 -7.56062,-12.160211 v -9.741073 h 0.51608 c 0.85799,0 1.54825,-0.690261 1.54825,-1.54825 v -1.032166 c 0,-0.857989 -0.69026,-1.54825 -1.54825,-1.54825 H 23.724452 c -0.857989,0 -1.54825,0.690261 -1.54825,1.54825 v 1.032166 c 0,0.857989 0.690261,1.54825 1.54825,1.54825 h 0.516083 v 9.741073 l -7.560621,12.160211 c -1.890155,3.038444 0.290297,6.999385 3.877076,6.999385 h 19.753088 c 3.59323,0 5.76723,-3.967394 3.87708,-6.999385 m -19.30797,-5.386616 3.109402,-5.006009 c 0.238689,-0.335454 0.37416,-0.748321 0.37416,-1.186992 V 53.599914 h 4.12867 v 10.321667 c 0,0.445122 0.141919,0.851538 0.374156,1.186992 l 3.109402,5.006009 z"
         id="path1-3"
         style="stroke-width:0.242879" />
    </g>
    <circle
       style="fill:#000000;fill-opacity:1;stroke:#ffffff;stroke-width:1.05833;stroke-miterlimit:16"
       id="path3"
       cx="47.625"
       cy="43.65625"
       r="5.2916665" />
  </g>
  <g
     inkscape:label="Layer 1"
     inkscape:groupmode="layer"
     id="g28"
     style="display:inline">
    <path
       d="m 11.879066,50.824198 c -1.300771,0 -2.3474194,1.046647 -2.3474194,2.347419 v 1.564227 c 0,1.30077 1.0466484,2.347417 2.3474194,2.347417 H 12.66082 V 71.851719 L 1.1984555,90.287295 c -2.8656072,4.606494 0.4400884,10.611565 5.8778963,10.611565 H 37.023916 c 5.211398,0 8.453357,-5.504326 6.215914,-10.006011 C 39.361538,84.512394 35.381996,78.192976 31.439449,71.851719 V 57.083261 h 0.782472 c 1.300772,0 2.346698,-1.046647 2.346698,-2.347417 v -1.564227 c 0,-1.300772 -1.045926,-2.347419 -2.346698,-2.347419 H 26.566254 17.96984 Z m 7.031468,6.259063 h 6.259782 v 15.648738 c 0.01547,1.204661 0.787108,2.154165 1.395938,3.134207 l 3.885035,6.254749 H 13.62956 l 4.34028,-6.987599 c 0.520286,-0.737068 0.88457,-1.488267 0.940694,-2.401357 z"
       style="fill:#cf677e;fill-opacity:1;stroke-width:0.242878"
       id="path24"
       sodipodi:nodetypes="sssscccsssccssssccsccsccccsc" />
    <path
       d="m 37.853856,67.539488 c 0.0018,0.689277 0.0045,1.378428 0.005,2.067655 0.461678,1.495536 1.464469,2.756875 2.266152,4.093599 H 80.289343 L 64.989411,53.544154 53.299064,68.672203 44.832104,58.658276 Z"
       style="fill:#24b891;fill-opacity:1;stroke-width:0.210393"
       id="path25"
       sodipodi:nodetypes="cccccccc" />
    <path
       d="m 75.991496,4.9344685 c -10.647333,0 -19.340312,8.6875675 -19.340312,19.3410305 0,10.266242 7.72149,19.340313 19.211577,19.340313 3.481283,0 6.919759,-0.945195 10.272114,-2.9652 l 13.4955,13.322895 6.059855,-6.059849 -13.32362,-13.280462 c 2.019972,-3.352354 2.965917,-6.790451 2.965917,-10.357697 0,-10.976577 -8.653029,-19.3410305 -19.341031,-19.3410305 z m 0,8.5964135 c 6.706946,0 10.744618,5.438267 10.744618,10.744617 0,6.042765 -4.707787,10.744618 -10.744618,10.744618 -5.305244,0 -10.744618,-4.040034 -10.744618,-10.744618 0,-6.000912 4.73792,-10.744617 10.744618,-10.744617 z"
       style="fill:#118ab2;fill-opacity:1;stroke-width:0.210393"
       id="path26"
       sodipodi:nodetypes="sssccccsssssss" />
    <path
       id="path27"
       style="fill:#073b4c;fill-opacity:1;stroke-width:0.210393"
       d="m 26.566254,13.530882 c -5.243534,0 -8.596414,4.534289 -8.596414,8.595694 v 22.253728 c 2.863592,-0.01734 5.731676,0.03499 8.596414,0.04243 V 22.126577 h 21.489235 c 0.128928,-2.965534 0.859638,-5.845048 2.148925,-8.595694 z m 18.944761,68.766273 c 1.583619,2.806243 3.672918,5.445608 4.531582,8.595694 h 36.693517 c 4.063072,0 8.596413,-3.355511 8.596413,-8.595694 V 60.8072 l -8.596413,-8.595694 v 30.085649 z"
       sodipodi:nodetypes="sscccccsccsscccc" />
    <path
       d="m 44.563848,34.410248 a 7.36445,7.36445 0 0 1 7.364451,7.364451 7.36445,7.36445 0 0 1 -7.364451,7.364451 7.36445,7.36445 0 0 1 -7.364451,-7.364451 7.36445,7.36445 0 0 1 7.364451,-7.364451 z"
       style="fill:#ffb91c;fill-opacity:1;stroke:none;stroke-width:1.05833;stroke-miterlimit:16"
       id="path28" />
  </g>
</svg>
