<?xml version="1.0" encoding="utf-8" standalone="no"?>
<!DOCTYPE svg PUBLIC "-//W3C//DTD SVG 1.1//EN"
  "http://www.w3.org/Graphics/SVG/1.1/DTD/svg11.dtd">
<svg xmlns:xlink="http://www.w3.org/1999/xlink" width="720pt" height="432pt" viewBox="0 0 720 432" xmlns="http://www.w3.org/2000/svg" version="1.1">
 <metadata>
  <rdf:RDF xmlns:dc="http://purl.org/dc/elements/1.1/" xmlns:cc="http://creativecommons.org/ns#" xmlns:rdf="http://www.w3.org/1999/02/22-rdf-syntax-ns#">
   <cc:Work>
    <dc:type rdf:resource="http://purl.org/dc/dcmitype/StillImage"/>
    <dc:date>2026-02-20T20:42:13.326466</dc:date>
    <dc:format>image/svg+xml</dc:format>
    <dc:creator>
     <cc:Agent>
      <dc:title>Matplotlib v3.10.8, https://matplotlib.org/</dc:title>
     </cc:Agent>
    </dc:creator>
   </cc:Work>
  </rdf:RDF>
 </metadata>
 <defs>
  <style type="text/css">*{stroke-linejoin: round; stroke-linecap: butt}</style>
 </defs>
 <g id="figure_1">
  <g id="patch_1">
   <path d="M 0 432 
L 720 432 
L 720 0 
L 0 0 
z
" style="fill: #ffffff"/>
  </g>
  <g id="axes_1">
   <g id="patch_2">
    <path d="M 45.29 389.32 
L 709.2 389.32 
L 709.2 26.88 
L 45.29 26.88 
z
" style="fill: #ffffff"/>
   </g>
   <g id="matplotlib.axis_1">
    <g id="xtick_1">
     <g id="line2d_1">
      <path d="M 116.163833 389.32 
L 116.163833 26.88 
" clip-path="url(#p21d1a87e18)" style="fill: none; stroke: #b0b0b0; stroke-opacity: 0.3; stroke-width: 0.8; stroke-linecap: square"/>
     </g>
     <g id="line2d_2">
      <defs>
       <path id="m91b74b6520" d="M 0 0 
L 0 3.5 
" style="stroke: #000000; stroke-width: 0.8"/>
      </defs>
      <g>
       <use xlink:href="#m91b74b6520" x="116.163833" y="389.32" style="stroke: #000000; stroke-width: 0.8"/>
      </g>
     </g>
     <g id="text_1">
      <!-- 250 -->
      <g transform="translate(106.620083 403.918437) scale(0.1 -0.1)">
       <defs>
        <path id="DejaVuSans-32" d="M 1228 531 
L 3431 531 
L 3431 0 
L 469 0 
L 469 531 
Q 828 903 1448 1529 
Q 2069 2156 2228 2338 
Q 2531 2678 2651 2914 
Q 2772 3150 2772 3378 
Q 2772 3750 2511 3984 
Q 2250 4219 1831 4219 
Q 1534 4219 1204 4116 
Q 875 4013 500 3803 
L 500 4441 
Q 881 4594 1212 4672 
Q 1544 4750 1819 4750 
Q 2544 4750 2975 4387 
Q 3406 4025 3406 3419 
Q 3406 3131 3298 2873 
Q 3191 2616 2906 2266 
Q 2828 2175 2409 1742 
Q 1991 1309 1228 531 
z
" transform="scale(0.015625)"/>
        <path id="DejaVuSans-35" d="M 691 4666 
L 3169 4666 
L 3169 4134 
L 1269 4134 
L 1269 2991 
Q 1406 3038 1543 3061 
Q 1681 3084 1819 3084 
Q 2600 3084 3056 2656 
Q 3513 2228 3513 1497 
Q 3513 744 3044 326 
Q 2575 -91 1722 -91 
Q 1428 -91 1123 -41 
Q 819 9 494 109 
L 494 744 
Q 775 591 1075 516 
Q 1375 441 1709 441 
Q 2250 441 2565 725 
Q 2881 1009 2881 1497 
Q 2881 1984 2565 2268 
Q 2250 2553 1709 2553 
Q 1456 2553 1204 2497 
Q 953 2441 691 2322 
L 691 4666 
z
" transform="scale(0.015625)"/>
        <path id="DejaVuSans-30" d="M 2034 4250 
Q 1547 4250 1301 3770 
Q 1056 3291 1056 2328 
Q 1056 1369 1301 889 
Q 1547 409 2034 409 
Q 2525 409 2770 889 
Q 3016 1369 3016 2328 
Q 3016 3291 2770 3770 
Q 2525 4250 2034 4250 
z
M 2034 4750 
Q 2819 4750 3233 4129 
Q 3647 3509 3647 2328 
Q 3647 1150 3233 529 
Q 2819 -91 2034 -91 
Q 1250 -91 836 529 
Q 422 1150 422 2328 
Q 422 3509 836 4129 
Q 1250 4750 2034 4750 
z
" transform="scale(0.015625)"/>
       </defs>
       <use xlink:href="#DejaVuSans-32"/>
       <use xlink:href="#DejaVuSans-35" transform="translate(63.623047 0)"/>
       <use xlink:href="#DejaVuSans-30" transform="translate(127.246094 0)"/>
      </g>
     </g>
    </g>
    <g id="xtick_2">
     <g id="line2d_3">
      <path d="M 194.425573 389.32 
L 194.425573 26.88 
" clip-path="url(#p21d1a87e18)" style="fill: none; stroke: #b0b0b0; stroke-opacity: 0.3; stroke-width: 0.8; stroke-linecap: square"/>
     </g>
     <g id="line2d_4">
      <g>
       <use xlink:href="#m91b74b6520" x="194.425573" y="389.32" style="stroke: #000000; stroke-width: 0.8"/>
      </g>
     </g>
     <g id="text_2">
      <!-- 500 -->
      <g transform="translate(184.881823 403.918437) scale(0.1 -0.1)">
       <use xlink:href="#DejaVuSans-35"/>
       <use xlink:href="#DejaVuSans-30" transform="translate(63.623047 0)"/>
       <use xlink:href="#DejaVuSans-30" transform="translate(127.246094 0)"/>
      </g>
     </g>
    </g>
    <g id="xtick_3">
     <g id="line2d_5">
      <path d="M 272.687314 389.32 
L 272.687314 26.88 
" clip-path="url(#p21d1a87e18)" style="fill: none; stroke: #b0b0b0; stroke-opacity: 0.3; stroke-width: 0.8; stroke-linecap: square"/>
     </g>
     <g id="line2d_6">
      <g>
       <use xlink:href="#m91b74b6520" x="272.687314" y="389.32" style="stroke: #000000; stroke-width: 0.8"/>
      </g>
     </g>
     <g id="text_3">
      <!-- 750 -->
      <g transform="translate(263.143564 403.918437) scale(0.1 -0.1)">
       <defs>
        <path id="DejaVuSans-37" d="M 525 4666 
L 3525 4666 
L 3525 4397 
L 1831 0 
L 1172 0 
L 2766 4134 
L 525 4134 
L 525 4666 
z
" transform="scale(0.015625)"/>
       </defs>
       <use xlink:href="#DejaVuSans-37"/>
       <use xlink:href="#DejaVuSans-35" transform="translate(63.623047 0)"/>
       <use xlink:href="#DejaVuSans-30" transform="translate(127.246094 0)"/>
      </g>
     </g>
    </g>
    <g id="xtick_4">
     <g id="line2d_7">
      <path d="M 350.949055 389.32 
L 350.949055 26.88 
" clip-path="url(#p21d1a87e18)" style="fill: none; stroke: #b0b0b0; stroke-opacity: 0.3; stroke-width: 0.8; stroke-linecap: square"/>
     </g>
     <g id="line2d_8">
      <g>
       <use xlink:href="#m91b74b6520" x="350.949055" y="389.32" style="stroke: #000000; stroke-width: 0.8"/>
      </g>
     </g>
     <g id="text_4">
      <!-- 1000 -->
      <g transform="translate(338.224055 403.918437) scale(0.1 -0.1)">
       <defs>
        <path id="DejaVuSans-31" d="M 794 531 
L 1825 531 
L 1825 4091 
L 703 3866 
L 703 4441 
L 1819 4666 
L 2450 4666 
L 2450 531 
L 3481 531 
L 3481 0 
L 794 0 
L 794 531 
z
" transform="scale(0.015625)"/>
       </defs>
       <use xlink:href="#DejaVuSans-31"/>
       <use xlink:href="#DejaVuSans-30" transform="translate(63.623047 0)"/>
       <use xlink:href="#DejaVuSans-30" transform="translate(127.246094 0)"/>
       <use xlink:href="#DejaVuSans-30" transform="translate(190.869141 0)"/>
      </g>
     </g>
    </g>
    <g id="xtick_5">
     <g id="line2d_9">
      <path d="M 429.210796 389.32 
L 429.210796 26.88 
" clip-path="url(#p21d1a87e18)" style="fill: none; stroke: #b0b0b0; stroke-opacity: 0.3; stroke-width: 0.8; stroke-linecap: square"/>
     </g>
     <g id="line2d_10">
      <g>
       <use xlink:href="#m91b74b6520" x="429.210796" y="389.32" style="stroke: #000000; stroke-width: 0.8"/>
      </g>
     </g>
     <g id="text_5">
      <!-- 1250 -->
      <g transform="translate(416.485796 403.918437) scale(0.1 -0.1)">
       <use xlink:href="#DejaVuSans-31"/>
       <use xlink:href="#DejaVuSans-32" transform="translate(63.623047 0)"/>
       <use xlink:href="#DejaVuSans-35" transform="translate(127.246094 0)"/>
       <use xlink:href="#DejaVuSans-30" transform="translate(190.869141 0)"/>
      </g>
     </g>
    </g>
    <g id="xtick_6">
     <g id="line2d_11">
      <path d="M 507.472537 389.32 
L 507.472537 26.88 
" clip-path="url(#p21d1a87e18)" style="fill: none; stroke: #b0b0b0; stroke-opacity: 0.3; stroke-width: 0.8; stroke-linecap: square"/>
     </g>
     <g id="line2d_12">
      <g>
       <use xlink:href="#m91b74b6520" x="507.472537" y="389.32" style="stroke: #000000; stroke-width: 0.8"/>
      </g>
     </g>
     <g id="text_6">
      <!-- 1500 -->
      <g transform="translate(494.747537 403.918437) scale(0.1 -0.1)">
       <use xlink:href="#DejaVuSans-31"/>
       <use xlink:href="#DejaVuSans-35" transform="translate(63.623047 0)"/>
       <use xlink:href="#DejaVuSans-30" transform="translate(127.246094 0)"/>
       <use xlink:href="#DejaVuSans-30" transform="translate(190.869141 0)"/>
      </g>
     </g>
    </g>
    <g id="xtick_7">
     <g id="line2d_13">
      <path d="M 585.734278 389.32 
L 585.734278 26.88 
" clip-path="url(#p21d1a87e18)" style="fill: none; stroke: #b0b0b0; stroke-opacity: 0.3; stroke-width: 0.8; stroke-linecap: square"/>
     </g>
     <g id="line2d_14">
      <g>
       <use xlink:href="#m91b74b6520" x="585.734278" y="389.32" style="stroke: #000000; stroke-width: 0.8"/>
      </g>
     </g>
     <g id="text_7">
      <!-- 1750 -->
      <g transform="translate(573.009278 403.918437) scale(0.1 -0.1)">
       <use xlink:href="#DejaVuSans-31"/>
       <use xlink:href="#DejaVuSans-37" transform="translate(63.623047 0)"/>
       <use xlink:href="#DejaVuSans-35" transform="translate(127.246094 0)"/>
       <use xlink:href="#DejaVuSans-30" transform="translate(190.869141 0)"/>
      </g>
     </g>
    </g>
    <g id="xtick_8">
     <g id="line2d_15">
      <path d="M 663.996018 389.32 
L 663.996018 26.88 
" clip-path="url(#p21d1a87e18)" style="fill: none; stroke: #b0b0b0; stroke-opacity: 0.3; stroke-width: 0.8; stroke-linecap: square"/>
     </g>
     <g id="line2d_16">
      <g>
       <use xlink:href="#m91b74b6520" x="663.996018" y="389.32" style="stroke: #000000; stroke-width: 0.8"/>
      </g>
     </g>
     <g id="text_8">
      <!-- 2000 -->
      <g transform="translate(651.271018 403.918437) scale(0.1 -0.1)">
       <use xlink:href="#DejaVuSans-32"/>
       <use xlink:href="#DejaVuSans-30" transform="translate(63.623047 0)"/>
       <use xlink:href="#DejaVuSans-30" transform="translate(127.246094 0)"/>
       <use xlink:href="#DejaVuSans-30" transform="translate(190.869141 0)"/>
      </g>
     </g>
    </g>
    <g id="text_9">
     <!-- Resolution -->
     <g transform="translate(348.5075 418.356406) scale(0.11 -0.11)">
      <defs>
       <path id="DejaVuSans-52" d="M 2841 2188 
Q 3044 2119 3236 1894 
Q 3428 1669 3622 1275 
L 4263 0 
L 3584 0 
L 2988 1197 
Q 2756 1666 2539 1819 
Q 2322 1972 1947 1972 
L 1259 1972 
L 1259 0 
L 628 0 
L 628 4666 
L 2053 4666 
Q 2853 4666 3247 4331 
Q 3641 3997 3641 3322 
Q 3641 2881 3436 2590 
Q 3231 2300 2841 2188 
z
M 1259 4147 
L 1259 2491 
L 2053 2491 
Q 2509 2491 2742 2702 
Q 2975 2913 2975 3322 
Q 2975 3731 2742 3939 
Q 2509 4147 2053 4147 
L 1259 4147 
z
" transform="scale(0.015625)"/>
       <path id="DejaVuSans-65" d="M 3597 1894 
L 3597 1613 
L 953 1613 
Q 991 1019 1311 708 
Q 1631 397 2203 397 
Q 2534 397 2845 478 
Q 3156 559 3463 722 
L 3463 178 
Q 3153 47 2828 -22 
Q 2503 -91 2169 -91 
Q 1331 -91 842 396 
Q 353 884 353 1716 
Q 353 2575 817 3079 
Q 1281 3584 2069 3584 
Q 2775 3584 3186 3129 
Q 3597 2675 3597 1894 
z
M 3022 2063 
Q 3016 2534 2758 2815 
Q 2500 3097 2075 3097 
Q 1594 3097 1305 2825 
Q 1016 2553 972 2059 
L 3022 2063 
z
" transform="scale(0.015625)"/>
       <path id="DejaVuSans-73" d="M 2834 3397 
L 2834 2853 
Q 2591 2978 2328 3040 
Q 2066 3103 1784 3103 
Q 1356 3103 1142 2972 
Q 928 2841 928 2578 
Q 928 2378 1081 2264 
Q 1234 2150 1697 2047 
L 1894 2003 
Q 2506 1872 2764 1633 
Q 3022 1394 3022 966 
Q 3022 478 2636 193 
Q 2250 -91 1575 -91 
Q 1294 -91 989 -36 
Q 684 19 347 128 
L 347 722 
Q 666 556 975 473 
Q 1284 391 1588 391 
Q 1994 391 2212 530 
Q 2431 669 2431 922 
Q 2431 1156 2273 1281 
Q 2116 1406 1581 1522 
L 1381 1569 
Q 847 1681 609 1914 
Q 372 2147 372 2553 
Q 372 3047 722 3315 
Q 1072 3584 1716 3584 
Q 2034 3584 2315 3537 
Q 2597 3491 2834 3397 
z
" transform="scale(0.015625)"/>
       <path id="DejaVuSans-6f" d="M 1959 3097 
Q 1497 3097 1228 2736 
Q 959 2375 959 1747 
Q 959 1119 1226 758 
Q 1494 397 1959 397 
Q 2419 397 2687 759 
Q 2956 1122 2956 1747 
Q 2956 2369 2687 2733 
Q 2419 3097 1959 3097 
z
M 1959 3584 
Q 2709 3584 3137 3096 
Q 3566 2609 3566 1747 
Q 3566 888 3137 398 
Q 2709 -91 1959 -91 
Q 1206 -91 779 398 
Q 353 888 353 1747 
Q 353 2609 779 3096 
Q 1206 3584 1959 3584 
z
" transform="scale(0.015625)"/>
       <path id="DejaVuSans-6c" d="M 603 4863 
L 1178 4863 
L 1178 0 
L 603 0 
L 603 4863 
z
" transform="scale(0.015625)"/>
       <path id="DejaVuSans-75" d="M 544 1381 
L 544 3500 
L 1119 3500 
L 1119 1403 
Q 1119 906 1312 657 
Q 1506 409 1894 409 
Q 2359 409 2629 706 
Q 2900 1003 2900 1516 
L 2900 3500 
L 3475 3500 
L 3475 0 
L 2900 0 
L 2900 538 
Q 2691 219 2414 64 
Q 2138 -91 1772 -91 
Q 1169 -91 856 284 
Q 544 659 544 1381 
z
M 1991 3584 
L 1991 3584 
z
" transform="scale(0.015625)"/>
       <path id="DejaVuSans-74" d="M 1172 4494 
L 1172 3500 
L 2356 3500 
L 2356 3053 
L 1172 3053 
L 1172 1153 
Q 1172 725 1289 603 
Q 1406 481 1766 481 
L 2356 481 
L 2356 0 
L 1766 0 
Q 1100 0 847 248 
Q 594 497 594 1153 
L 594 3053 
L 172 3053 
L 172 3500 
L 594 3500 
L 594 4494 
L 1172 4494 
z
" transform="scale(0.015625)"/>
       <path id="DejaVuSans-69" d="M 603 3500 
L 1178 3500 
L 1178 0 
L 603 0 
L 603 3500 
z
M 603 4863 
L 1178 4863 
L 1178 4134 
L 603 4134 
L 603 4863 
z
" transform="scale(0.015625)"/>
       <path id="DejaVuSans-6e" d="M 3513 2113 
L 3513 0 
L 2938 0 
L 2938 2094 
Q 2938 2591 2744 2837 
Q 2550 3084 2163 3084 
Q 1697 3084 1428 2787 
Q 1159 2491 1159 1978 
L 1159 0 
L 581 0 
L 581 3500 
L 1159 3500 
L 1159 2956 
Q 1366 3272 1645 3428 
Q 1925 3584 2291 3584 
Q 2894 3584 3203 3211 
Q 3513 2838 3513 2113 
z
" transform="scale(0.015625)"/>
      </defs>
      <use xlink:href="#DejaVuSans-52"/>
      <use xlink:href="#DejaVuSans-65" transform="translate(64.982422 0)"/>
      <use xlink:href="#DejaVuSans-73" transform="translate(126.505859 0)"/>
      <use xlink:href="#DejaVuSans-6f" transform="translate(178.605469 0)"/>
      <use xlink:href="#DejaVuSans-6c" transform="translate(239.787109 0)"/>
      <use xlink:href="#DejaVuSans-75" transform="translate(267.570312 0)"/>
      <use xlink:href="#DejaVuSans-74" transform="translate(330.949219 0)"/>
      <use xlink:href="#DejaVuSans-69" transform="translate(370.158203 0)"/>
      <use xlink:href="#DejaVuSans-6f" transform="translate(397.941406 0)"/>
      <use xlink:href="#DejaVuSans-6e" transform="translate(459.123047 0)"/>
     </g>
    </g>
   </g>
   <g id="matplotlib.axis_2">
    <g id="ytick_1">
     <g id="line2d_17">
      <path d="M 45.29 330.784562 
L 709.2 330.784562 
" clip-path="url(#p21d1a87e18)" style="fill: none; stroke: #b0b0b0; stroke-opacity: 0.3; stroke-width: 0.8; stroke-linecap: square"/>
     </g>
     <g id="line2d_18">
      <defs>
       <path id="m67125f4883" d="M 0 0 
L -3.5 0 
" style="stroke: #000000; stroke-width: 0.8"/>
      </defs>
      <g>
       <use xlink:href="#m67125f4883" x="45.29" y="330.784562" style="stroke: #000000; stroke-width: 0.8"/>
      </g>
     </g>
     <g id="text_10">
      <!-- 40 -->
      <g transform="translate(25.565 334.583781) scale(0.1 -0.1)">
       <defs>
        <path id="DejaVuSans-34" d="M 2419 4116 
L 825 1625 
L 2419 1625 
L 2419 4116 
z
M 2253 4666 
L 3047 4666 
L 3047 1625 
L 3713 1625 
L 3713 1100 
L 3047 1100 
L 3047 0 
L 2419 0 
L 2419 1100 
L 313 1100 
L 313 1709 
L 2253 4666 
z
" transform="scale(0.015625)"/>
       </defs>
       <use xlink:href="#DejaVuSans-34"/>
       <use xlink:href="#DejaVuSans-30" transform="translate(63.623047 0)"/>
      </g>
     </g>
    </g>
    <g id="ytick_2">
     <g id="line2d_19">
      <path d="M 45.29 268.514997 
L 709.2 268.514997 
" clip-path="url(#p21d1a87e18)" style="fill: none; stroke: #b0b0b0; stroke-opacity: 0.3; stroke-width: 0.8; stroke-linecap: square"/>
     </g>
     <g id="line2d_20">
      <g>
       <use xlink:href="#m67125f4883" x="45.29" y="268.514997" style="stroke: #000000; stroke-width: 0.8"/>
      </g>
     </g>
     <g id="text_11">
      <!-- 50 -->
      <g transform="translate(25.565 272.314215) scale(0.1 -0.1)">
       <use xlink:href="#DejaVuSans-35"/>
       <use xlink:href="#DejaVuSans-30" transform="translate(63.623047 0)"/>
      </g>
     </g>
    </g>
    <g id="ytick_3">
     <g id="line2d_21">
      <path d="M 45.29 206.245431 
L 709.2 206.245431 
" clip-path="url(#p21d1a87e18)" style="fill: none; stroke: #b0b0b0; stroke-opacity: 0.3; stroke-width: 0.8; stroke-linecap: square"/>
     </g>
     <g id="line2d_22">
      <g>
       <use xlink:href="#m67125f4883" x="45.29" y="206.245431" style="stroke: #000000; stroke-width: 0.8"/>
      </g>
     </g>
     <g id="text_12">
      <!-- 60 -->
      <g transform="translate(25.565 210.04465) scale(0.1 -0.1)">
       <defs>
        <path id="DejaVuSans-36" d="M 2113 2584 
Q 1688 2584 1439 2293 
Q 1191 2003 1191 1497 
Q 1191 994 1439 701 
Q 1688 409 2113 409 
Q 2538 409 2786 701 
Q 3034 994 3034 1497 
Q 3034 2003 2786 2293 
Q 2538 2584 2113 2584 
z
M 3366 4563 
L 3366 3988 
Q 3128 4100 2886 4159 
Q 2644 4219 2406 4219 
Q 1781 4219 1451 3797 
Q 1122 3375 1075 2522 
Q 1259 2794 1537 2939 
Q 1816 3084 2150 3084 
Q 2853 3084 3261 2657 
Q 3669 2231 3669 1497 
Q 3669 778 3244 343 
Q 2819 -91 2113 -91 
Q 1303 -91 875 529 
Q 447 1150 447 2328 
Q 447 3434 972 4092 
Q 1497 4750 2381 4750 
Q 2619 4750 2861 4703 
Q 3103 4656 3366 4563 
z
" transform="scale(0.015625)"/>
       </defs>
       <use xlink:href="#DejaVuSans-36"/>
       <use xlink:href="#DejaVuSans-30" transform="translate(63.623047 0)"/>
      </g>
     </g>
    </g>
    <g id="ytick_4">
     <g id="line2d_23">
      <path d="M 45.29 143.975866 
L 709.2 143.975866 
" clip-path="url(#p21d1a87e18)" style="fill: none; stroke: #b0b0b0; stroke-opacity: 0.3; stroke-width: 0.8; stroke-linecap: square"/>
     </g>
     <g id="line2d_24">
      <g>
       <use xlink:href="#m67125f4883" x="45.29" y="143.975866" style="stroke: #000000; stroke-width: 0.8"/>
      </g>
     </g>
     <g id="text_13">
      <!-- 70 -->
      <g transform="translate(25.565 147.775085) scale(0.1 -0.1)">
       <use xlink:href="#DejaVuSans-37"/>
       <use xlink:href="#DejaVuSans-30" transform="translate(63.623047 0)"/>
      </g>
     </g>
    </g>
    <g id="ytick_5">
     <g id="line2d_25">
      <path d="M 45.29 81.706301 
L 709.2 81.706301 
" clip-path="url(#p21d1a87e18)" style="fill: none; stroke: #b0b0b0; stroke-opacity: 0.3; stroke-width: 0.8; stroke-linecap: square"/>
     </g>
     <g id="line2d_26">
      <g>
       <use xlink:href="#m67125f4883" x="45.29" y="81.706301" style="stroke: #000000; stroke-width: 0.8"/>
      </g>
     </g>
     <g id="text_14">
      <!-- 80 -->
      <g transform="translate(25.565 85.505519) scale(0.1 -0.1)">
       <defs>
        <path id="DejaVuSans-38" d="M 2034 2216 
Q 1584 2216 1326 1975 
Q 1069 1734 1069 1313 
Q 1069 891 1326 650 
Q 1584 409 2034 409 
Q 2484 409 2743 651 
Q 3003 894 3003 1313 
Q 3003 1734 2745 1975 
Q 2488 2216 2034 2216 
z
M 1403 2484 
Q 997 2584 770 2862 
Q 544 3141 544 3541 
Q 544 4100 942 4425 
Q 1341 4750 2034 4750 
Q 2731 4750 3128 4425 
Q 3525 4100 3525 3541 
Q 3525 3141 3298 2862 
Q 3072 2584 2669 2484 
Q 3125 2378 3379 2068 
Q 3634 1759 3634 1313 
Q 3634 634 3220 271 
Q 2806 -91 2034 -91 
Q 1263 -91 848 271 
Q 434 634 434 1313 
Q 434 1759 690 2068 
Q 947 2378 1403 2484 
z
M 1172 3481 
Q 1172 3119 1398 2916 
Q 1625 2713 2034 2713 
Q 2441 2713 2670 2916 
Q 2900 3119 2900 3481 
Q 2900 3844 2670 4047 
Q 2441 4250 2034 4250 
Q 1625 4250 1398 4047 
Q 1172 3844 1172 3481 
z
" transform="scale(0.015625)"/>
       </defs>
       <use xlink:href="#DejaVuSans-38"/>
       <use xlink:href="#DejaVuSans-30" transform="translate(63.623047 0)"/>
      </g>
     </g>
    </g>
    <g id="text_15">
     <!-- SSIMULACRA2 (higher is better) -->
     <g transform="translate(19.277344 295.433125) rotate(-90) scale(0.11 -0.11)">
      <defs>
       <path id="DejaVuSans-53" d="M 3425 4513 
L 3425 3897 
Q 3066 4069 2747 4153 
Q 2428 4238 2131 4238 
Q 1616 4238 1336 4038 
Q 1056 3838 1056 3469 
Q 1056 3159 1242 3001 
Q 1428 2844 1947 2747 
L 2328 2669 
Q 3034 2534 3370 2195 
Q 3706 1856 3706 1288 
Q 3706 609 3251 259 
Q 2797 -91 1919 -91 
Q 1588 -91 1214 -16 
Q 841 59 441 206 
L 441 856 
Q 825 641 1194 531 
Q 1563 422 1919 422 
Q 2459 422 2753 634 
Q 3047 847 3047 1241 
Q 3047 1584 2836 1778 
Q 2625 1972 2144 2069 
L 1759 2144 
Q 1053 2284 737 2584 
Q 422 2884 422 3419 
Q 422 4038 858 4394 
Q 1294 4750 2059 4750 
Q 2388 4750 2728 4690 
Q 3069 4631 3425 4513 
z
" transform="scale(0.015625)"/>
       <path id="DejaVuSans-49" d="M 628 4666 
L 1259 4666 
L 1259 0 
L 628 0 
L 628 4666 
z
" transform="scale(0.015625)"/>
       <path id="DejaVuSans-4d" d="M 628 4666 
L 1569 4666 
L 2759 1491 
L 3956 4666 
L 4897 4666 
L 4897 0 
L 4281 0 
L 4281 4097 
L 3078 897 
L 2444 897 
L 1241 4097 
L 1241 0 
L 628 0 
L 628 4666 
z
" transform="scale(0.015625)"/>
       <path id="DejaVuSans-55" d="M 556 4666 
L 1191 4666 
L 1191 1831 
Q 1191 1081 1462 751 
Q 1734 422 2344 422 
Q 2950 422 3222 751 
Q 3494 1081 3494 1831 
L 3494 4666 
L 4128 4666 
L 4128 1753 
Q 4128 841 3676 375 
Q 3225 -91 2344 -91 
Q 1459 -91 1007 375 
Q 556 841 556 1753 
L 556 4666 
z
" transform="scale(0.015625)"/>
       <path id="DejaVuSans-4c" d="M 628 4666 
L 1259 4666 
L 1259 531 
L 3531 531 
L 3531 0 
L 628 0 
L 628 4666 
z
" transform="scale(0.015625)"/>
       <path id="DejaVuSans-41" d="M 2188 4044 
L 1331 1722 
L 3047 1722 
L 2188 4044 
z
M 1831 4666 
L 2547 4666 
L 4325 0 
L 3669 0 
L 3244 1197 
L 1141 1197 
L 716 0 
L 50 0 
L 1831 4666 
z
" transform="scale(0.015625)"/>
       <path id="DejaVuSans-43" d="M 4122 4306 
L 4122 3641 
Q 3803 3938 3442 4084 
Q 3081 4231 2675 4231 
Q 1875 4231 1450 3742 
Q 1025 3253 1025 2328 
Q 1025 1406 1450 917 
Q 1875 428 2675 428 
Q 3081 428 3442 575 
Q 3803 722 4122 1019 
L 4122 359 
Q 3791 134 3420 21 
Q 3050 -91 2638 -91 
Q 1578 -91 968 557 
Q 359 1206 359 2328 
Q 359 3453 968 4101 
Q 1578 4750 2638 4750 
Q 3056 4750 3426 4639 
Q 3797 4528 4122 4306 
z
" transform="scale(0.015625)"/>
       <path id="DejaVuSans-20" transform="scale(0.015625)"/>
       <path id="DejaVuSans-28" d="M 1984 4856 
Q 1566 4138 1362 3434 
Q 1159 2731 1159 2009 
Q 1159 1288 1364 580 
Q 1569 -128 1984 -844 
L 1484 -844 
Q 1016 -109 783 600 
Q 550 1309 550 2009 
Q 550 2706 781 3412 
Q 1013 4119 1484 4856 
L 1984 4856 
z
" transform="scale(0.015625)"/>
       <path id="DejaVuSans-68" d="M 3513 2113 
L 3513 0 
L 2938 0 
L 2938 2094 
Q 2938 2591 2744 2837 
Q 2550 3084 2163 3084 
Q 1697 3084 1428 2787 
Q 1159 2491 1159 1978 
L 1159 0 
L 581 0 
L 581 4863 
L 1159 4863 
L 1159 2956 
Q 1366 3272 1645 3428 
Q 1925 3584 2291 3584 
Q 2894 3584 3203 3211 
Q 3513 2838 3513 2113 
z
" transform="scale(0.015625)"/>
       <path id="DejaVuSans-67" d="M 2906 1791 
Q 2906 2416 2648 2759 
Q 2391 3103 1925 3103 
Q 1463 3103 1205 2759 
Q 947 2416 947 1791 
Q 947 1169 1205 825 
Q 1463 481 1925 481 
Q 2391 481 2648 825 
Q 2906 1169 2906 1791 
z
M 3481 434 
Q 3481 -459 3084 -895 
Q 2688 -1331 1869 -1331 
Q 1566 -1331 1297 -1286 
Q 1028 -1241 775 -1147 
L 775 -588 
Q 1028 -725 1275 -790 
Q 1522 -856 1778 -856 
Q 2344 -856 2625 -561 
Q 2906 -266 2906 331 
L 2906 616 
Q 2728 306 2450 153 
Q 2172 0 1784 0 
Q 1141 0 747 490 
Q 353 981 353 1791 
Q 353 2603 747 3093 
Q 1141 3584 1784 3584 
Q 2172 3584 2450 3431 
Q 2728 3278 2906 2969 
L 2906 3500 
L 3481 3500 
L 3481 434 
z
" transform="scale(0.015625)"/>
       <path id="DejaVuSans-72" d="M 2631 2963 
Q 2534 3019 2420 3045 
Q 2306 3072 2169 3072 
Q 1681 3072 1420 2755 
Q 1159 2438 1159 1844 
L 1159 0 
L 581 0 
L 581 3500 
L 1159 3500 
L 1159 2956 
Q 1341 3275 1631 3429 
Q 1922 3584 2338 3584 
Q 2397 3584 2469 3576 
Q 2541 3569 2628 3553 
L 2631 2963 
z
" transform="scale(0.015625)"/>
       <path id="DejaVuSans-62" d="M 3116 1747 
Q 3116 2381 2855 2742 
Q 2594 3103 2138 3103 
Q 1681 3103 1420 2742 
Q 1159 2381 1159 1747 
Q 1159 1113 1420 752 
Q 1681 391 2138 391 
Q 2594 391 2855 752 
Q 3116 1113 3116 1747 
z
M 1159 2969 
Q 1341 3281 1617 3432 
Q 1894 3584 2278 3584 
Q 2916 3584 3314 3078 
Q 3713 2572 3713 1747 
Q 3713 922 3314 415 
Q 2916 -91 2278 -91 
Q 1894 -91 1617 61 
Q 1341 213 1159 525 
L 1159 0 
L 581 0 
L 581 4863 
L 1159 4863 
L 1159 2969 
z
" transform="scale(0.015625)"/>
       <path id="DejaVuSans-29" d="M 513 4856 
L 1013 4856 
Q 1481 4119 1714 3412 
Q 1947 2706 1947 2009 
Q 1947 1309 1714 600 
Q 1481 -109 1013 -844 
L 513 -844 
Q 928 -128 1133 580 
Q 1338 1288 1338 2009 
Q 1338 2731 1133 3434 
Q 928 4138 513 4856 
z
" transform="scale(0.015625)"/>
      </defs>
      <use xlink:href="#DejaVuSans-53"/>
      <use xlink:href="#DejaVuSans-53" transform="translate(63.476562 0)"/>
      <use xlink:href="#DejaVuSans-49" transform="translate(126.953125 0)"/>
      <use xlink:href="#DejaVuSans-4d" transform="translate(156.445312 0)"/>
      <use xlink:href="#DejaVuSans-55" transform="translate(242.724609 0)"/>
      <use xlink:href="#DejaVuSans-4c" transform="translate(315.917969 0)"/>
      <use xlink:href="#DejaVuSans-41" transform="translate(373.880859 0)"/>
      <use xlink:href="#DejaVuSans-43" transform="translate(440.539062 0)"/>
      <use xlink:href="#DejaVuSans-52" transform="translate(510.363281 0)"/>
      <use xlink:href="#DejaVuSans-41" transform="translate(575.845703 0)"/>
      <use xlink:href="#DejaVuSans-32" transform="translate(644.253906 0)"/>
      <use xlink:href="#DejaVuSans-20" transform="translate(707.876953 0)"/>
      <use xlink:href="#DejaVuSans-28" transform="translate(739.664062 0)"/>
      <use xlink:href="#DejaVuSans-68" transform="translate(778.677734 0)"/>
      <use xlink:href="#DejaVuSans-69" transform="translate(842.056641 0)"/>
      <use xlink:href="#DejaVuSans-67" transform="translate(869.839844 0)"/>
      <use xlink:href="#DejaVuSans-68" transform="translate(933.316406 0)"/>
      <use xlink:href="#DejaVuSans-65" transform="translate(996.695312 0)"/>
      <use xlink:href="#DejaVuSans-72" transform="translate(1058.21875 0)"/>
      <use xlink:href="#DejaVuSans-20" transform="translate(1099.332031 0)"/>
      <use xlink:href="#DejaVuSans-69" transform="translate(1131.119141 0)"/>
      <use xlink:href="#DejaVuSans-73" transform="translate(1158.902344 0)"/>
      <use xlink:href="#DejaVuSans-20" transform="translate(1211.001953 0)"/>
      <use xlink:href="#DejaVuSans-62" transform="translate(1242.789062 0)"/>
      <use xlink:href="#DejaVuSans-65" transform="translate(1306.265625 0)"/>
      <use xlink:href="#DejaVuSans-74" transform="translate(1367.789062 0)"/>
      <use xlink:href="#DejaVuSans-74" transform="translate(1406.998047 0)"/>
      <use xlink:href="#DejaVuSans-65" transform="translate(1446.207031 0)"/>
      <use xlink:href="#DejaVuSans-72" transform="translate(1507.730469 0)"/>
      <use xlink:href="#DejaVuSans-29" transform="translate(1548.84375 0)"/>
     </g>
    </g>
   </g>
   <g id="line2d_27">
    <path d="M 75.467727 99.002425 
L 87.989606 87.473715 
L 100.511484 52.911825 
L 113.033363 43.354545 
L 138.07712 50.264864 
L 188.164634 56.236004 
L 263.295905 63.148411 
L 438.602205 72.388565 
L 679.022273 80.786015 
" clip-path="url(#p21d1a87e18)" style="fill: none; stroke: #1f77b4; stroke-width: 1.5; stroke-linecap: square"/>
    <defs>
     <path id="m4368ca7740" d="M 0 3.5 
C 0.928211 3.5 1.81853 3.131218 2.474874 2.474874 
C 3.131218 1.81853 3.5 0.928211 3.5 0 
C 3.5 -0.928211 3.131218 -1.81853 2.474874 -2.474874 
C 1.81853 -3.131218 0.928211 -3.5 0 -3.5 
C -0.928211 -3.5 -1.81853 -3.131218 -2.474874 -2.474874 
C -3.131218 -1.81853 -3.5 -0.928211 -3.5 0 
C -3.5 0.928211 -3.131218 1.81853 -2.474874 2.474874 
C -1.81853 3.131218 -0.928211 3.5 0 3.5 
z
" style="stroke: #1f77b4"/>
    </defs>
    <g clip-path="url(#p21d1a87e18)">
     <use xlink:href="#m4368ca7740" x="75.467727" y="99.002425" style="fill: #1f77b4; stroke: #1f77b4"/>
     <use xlink:href="#m4368ca7740" x="87.989606" y="87.473715" style="fill: #1f77b4; stroke: #1f77b4"/>
     <use xlink:href="#m4368ca7740" x="100.511484" y="52.911825" style="fill: #1f77b4; stroke: #1f77b4"/>
     <use xlink:href="#m4368ca7740" x="113.033363" y="43.354545" style="fill: #1f77b4; stroke: #1f77b4"/>
     <use xlink:href="#m4368ca7740" x="138.07712" y="50.264864" style="fill: #1f77b4; stroke: #1f77b4"/>
     <use xlink:href="#m4368ca7740" x="188.164634" y="56.236004" style="fill: #1f77b4; stroke: #1f77b4"/>
     <use xlink:href="#m4368ca7740" x="263.295905" y="63.148411" style="fill: #1f77b4; stroke: #1f77b4"/>
     <use xlink:href="#m4368ca7740" x="438.602205" y="72.388565" style="fill: #1f77b4; stroke: #1f77b4"/>
     <use xlink:href="#m4368ca7740" x="679.022273" y="80.786015" style="fill: #1f77b4; stroke: #1f77b4"/>
    </g>
   </g>
   <g id="line2d_28">
    <path d="M 75.467727 134.735135 
L 87.989606 131.388163 
L 100.511484 104.820427 
L 113.033363 53.910321 
L 138.07712 61.175925 
L 188.164634 70.085013 
L 263.295905 80.071316 
L 438.602205 88.199051 
L 679.022273 97.750853 
" clip-path="url(#p21d1a87e18)" style="fill: none; stroke-dasharray: 5.55,2.4; stroke-dashoffset: 0; stroke: #1f77b4; stroke-width: 1.5"/>
    <defs>
     <path id="m93aa34ca7c" d="M 0 3.5 
C 0.928211 3.5 1.81853 3.131218 2.474874 2.474874 
C 3.131218 1.81853 3.5 0.928211 3.5 0 
C 3.5 -0.928211 3.131218 -1.81853 2.474874 -2.474874 
C 1.81853 -3.131218 0.928211 -3.5 0 -3.5 
C -0.928211 -3.5 -1.81853 -3.131218 -2.474874 -2.474874 
C -3.131218 -1.81853 -3.5 -0.928211 -3.5 0 
C -3.5 0.928211 -3.131218 1.81853 -2.474874 2.474874 
C -1.81853 3.131218 -0.928211 3.5 0 3.5 
z
" style="stroke: #1f77b4"/>
    </defs>
    <g clip-path="url(#p21d1a87e18)">
     <use xlink:href="#m93aa34ca7c" x="75.467727" y="134.735135" style="fill-opacity: 0; stroke: #1f77b4"/>
     <use xlink:href="#m93aa34ca7c" x="87.989606" y="131.388163" style="fill-opacity: 0; stroke: #1f77b4"/>
     <use xlink:href="#m93aa34ca7c" x="100.511484" y="104.820427" style="fill-opacity: 0; stroke: #1f77b4"/>
     <use xlink:href="#m93aa34ca7c" x="113.033363" y="53.910321" style="fill-opacity: 0; stroke: #1f77b4"/>
     <use xlink:href="#m93aa34ca7c" x="138.07712" y="61.175925" style="fill-opacity: 0; stroke: #1f77b4"/>
     <use xlink:href="#m93aa34ca7c" x="188.164634" y="70.085013" style="fill-opacity: 0; stroke: #1f77b4"/>
     <use xlink:href="#m93aa34ca7c" x="263.295905" y="80.071316" style="fill-opacity: 0; stroke: #1f77b4"/>
     <use xlink:href="#m93aa34ca7c" x="438.602205" y="88.199051" style="fill-opacity: 0; stroke: #1f77b4"/>
     <use xlink:href="#m93aa34ca7c" x="679.022273" y="97.750853" style="fill-opacity: 0; stroke: #1f77b4"/>
    </g>
   </g>
   <g id="line2d_29">
    <path d="M 75.467727 261.897967 
L 87.989606 213.640092 
L 100.511484 104.731748 
L 113.033363 84.474056 
L 138.07712 88.979933 
L 188.164634 88.566822 
L 263.295905 88.924813 
L 438.602205 85.872588 
L 679.022273 82.065626 
" clip-path="url(#p21d1a87e18)" style="fill: none; stroke: #ff7f0e; stroke-width: 1.5; stroke-linecap: square"/>
    <defs>
     <path id="m183c26da33" d="M -3.5 3.5 
L 3.5 3.5 
L 3.5 -3.5 
L -3.5 -3.5 
z
" style="stroke: #ff7f0e; stroke-linejoin: miter"/>
    </defs>
    <g clip-path="url(#p21d1a87e18)">
     <use xlink:href="#m183c26da33" x="75.467727" y="261.897967" style="fill: #ff7f0e; stroke: #ff7f0e; stroke-linejoin: miter"/>
     <use xlink:href="#m183c26da33" x="87.989606" y="213.640092" style="fill: #ff7f0e; stroke: #ff7f0e; stroke-linejoin: miter"/>
     <use xlink:href="#m183c26da33" x="100.511484" y="104.731748" style="fill: #ff7f0e; stroke: #ff7f0e; stroke-linejoin: miter"/>
     <use xlink:href="#m183c26da33" x="113.033363" y="84.474056" style="fill: #ff7f0e; stroke: #ff7f0e; stroke-linejoin: miter"/>
     <use xlink:href="#m183c26da33" x="138.07712" y="88.979933" style="fill: #ff7f0e; stroke: #ff7f0e; stroke-linejoin: miter"/>
     <use xlink:href="#m183c26da33" x="188.164634" y="88.566822" style="fill: #ff7f0e; stroke: #ff7f0e; stroke-linejoin: miter"/>
     <use xlink:href="#m183c26da33" x="263.295905" y="88.924813" style="fill: #ff7f0e; stroke: #ff7f0e; stroke-linejoin: miter"/>
     <use xlink:href="#m183c26da33" x="438.602205" y="85.872588" style="fill: #ff7f0e; stroke: #ff7f0e; stroke-linejoin: miter"/>
     <use xlink:href="#m183c26da33" x="679.022273" y="82.065626" style="fill: #ff7f0e; stroke: #ff7f0e; stroke-linejoin: miter"/>
    </g>
   </g>
   <g id="line2d_30">
    <path d="M 75.467727 372.845455 
L 87.989606 348.644055 
L 100.511484 220.515697 
L 113.033363 113.008309 
L 138.07712 116.840113 
L 188.164634 122.994464 
L 263.295905 129.35287 
L 438.602205 141.831325 
L 679.022273 138.294857 
" clip-path="url(#p21d1a87e18)" style="fill: none; stroke-dasharray: 5.55,2.4; stroke-dashoffset: 0; stroke: #ff7f0e; stroke-width: 1.5"/>
    <defs>
     <path id="m8cc22ea6dd" d="M -3.5 3.5 
L 3.5 3.5 
L 3.5 -3.5 
L -3.5 -3.5 
z
" style="stroke: #ff7f0e; stroke-linejoin: miter"/>
    </defs>
    <g clip-path="url(#p21d1a87e18)">
     <use xlink:href="#m8cc22ea6dd" x="75.467727" y="372.845455" style="fill-opacity: 0; stroke: #ff7f0e; stroke-linejoin: miter"/>
     <use xlink:href="#m8cc22ea6dd" x="87.989606" y="348.644055" style="fill-opacity: 0; stroke: #ff7f0e; stroke-linejoin: miter"/>
     <use xlink:href="#m8cc22ea6dd" x="100.511484" y="220.515697" style="fill-opacity: 0; stroke: #ff7f0e; stroke-linejoin: miter"/>
     <use xlink:href="#m8cc22ea6dd" x="113.033363" y="113.008309" style="fill-opacity: 0; stroke: #ff7f0e; stroke-linejoin: miter"/>
     <use xlink:href="#m8cc22ea6dd" x="138.07712" y="116.840113" style="fill-opacity: 0; stroke: #ff7f0e; stroke-linejoin: miter"/>
     <use xlink:href="#m8cc22ea6dd" x="188.164634" y="122.994464" style="fill-opacity: 0; stroke: #ff7f0e; stroke-linejoin: miter"/>
     <use xlink:href="#m8cc22ea6dd" x="263.295905" y="129.35287" style="fill-opacity: 0; stroke: #ff7f0e; stroke-linejoin: miter"/>
     <use xlink:href="#m8cc22ea6dd" x="438.602205" y="141.831325" style="fill-opacity: 0; stroke: #ff7f0e; stroke-linejoin: miter"/>
     <use xlink:href="#m8cc22ea6dd" x="679.022273" y="138.294857" style="fill-opacity: 0; stroke: #ff7f0e; stroke-linejoin: miter"/>
    </g>
   </g>
   <g id="line2d_31">
    <path d="M 75.467727 260.776764 
L 87.989606 217.268266 
L 100.511484 96.882425 
L 113.033363 77.433283 
L 138.07712 78.410251 
L 188.164634 79.961087 
L 263.295905 79.908435 
L 438.602205 79.199045 
L 679.022273 75.400115 
" clip-path="url(#p21d1a87e18)" style="fill: none; stroke: #2ca02c; stroke-width: 1.5; stroke-linecap: square"/>
    <defs>
     <path id="mc54e8d47f9" d="M 0 -3.5 
L -3.5 3.5 
L 3.5 3.5 
z
" style="stroke: #2ca02c; stroke-linejoin: miter"/>
    </defs>
    <g clip-path="url(#p21d1a87e18)">
     <use xlink:href="#mc54e8d47f9" x="75.467727" y="260.776764" style="fill: #2ca02c; stroke: #2ca02c; stroke-linejoin: miter"/>
     <use xlink:href="#mc54e8d47f9" x="87.989606" y="217.268266" style="fill: #2ca02c; stroke: #2ca02c; stroke-linejoin: miter"/>
     <use xlink:href="#mc54e8d47f9" x="100.511484" y="96.882425" style="fill: #2ca02c; stroke: #2ca02c; stroke-linejoin: miter"/>
     <use xlink:href="#mc54e8d47f9" x="113.033363" y="77.433283" style="fill: #2ca02c; stroke: #2ca02c; stroke-linejoin: miter"/>
     <use xlink:href="#mc54e8d47f9" x="138.07712" y="78.410251" style="fill: #2ca02c; stroke: #2ca02c; stroke-linejoin: miter"/>
     <use xlink:href="#mc54e8d47f9" x="188.164634" y="79.961087" style="fill: #2ca02c; stroke: #2ca02c; stroke-linejoin: miter"/>
     <use xlink:href="#mc54e8d47f9" x="263.295905" y="79.908435" style="fill: #2ca02c; stroke: #2ca02c; stroke-linejoin: miter"/>
     <use xlink:href="#mc54e8d47f9" x="438.602205" y="79.199045" style="fill: #2ca02c; stroke: #2ca02c; stroke-linejoin: miter"/>
     <use xlink:href="#mc54e8d47f9" x="679.022273" y="75.400115" style="fill: #2ca02c; stroke: #2ca02c; stroke-linejoin: miter"/>
    </g>
   </g>
   <g id="line2d_32">
    <path d="M 75.467727 334.364683 
L 87.989606 323.891467 
L 100.511484 201.947661 
L 113.033363 96.96246 
L 138.07712 102.241147 
L 188.164634 104.04321 
L 263.295905 103.110436 
L 438.602205 112.918605 
L 679.022273 115.743596 
" clip-path="url(#p21d1a87e18)" style="fill: none; stroke-dasharray: 5.55,2.4; stroke-dashoffset: 0; stroke: #2ca02c; stroke-width: 1.5"/>
    <defs>
     <path id="mf70d37634e" d="M 0 -3.5 
L -3.5 3.5 
L 3.5 3.5 
z
" style="stroke: #2ca02c; stroke-linejoin: miter"/>
    </defs>
    <g clip-path="url(#p21d1a87e18)">
     <use xlink:href="#mf70d37634e" x="75.467727" y="334.364683" style="fill-opacity: 0; stroke: #2ca02c; stroke-linejoin: miter"/>
     <use xlink:href="#mf70d37634e" x="87.989606" y="323.891467" style="fill-opacity: 0; stroke: #2ca02c; stroke-linejoin: miter"/>
     <use xlink:href="#mf70d37634e" x="100.511484" y="201.947661" style="fill-opacity: 0; stroke: #2ca02c; stroke-linejoin: miter"/>
     <use xlink:href="#mf70d37634e" x="113.033363" y="96.96246" style="fill-opacity: 0; stroke: #2ca02c; stroke-linejoin: miter"/>
     <use xlink:href="#mf70d37634e" x="138.07712" y="102.241147" style="fill-opacity: 0; stroke: #2ca02c; stroke-linejoin: miter"/>
     <use xlink:href="#mf70d37634e" x="188.164634" y="104.04321" style="fill-opacity: 0; stroke: #2ca02c; stroke-linejoin: miter"/>
     <use xlink:href="#mf70d37634e" x="263.295905" y="103.110436" style="fill-opacity: 0; stroke: #2ca02c; stroke-linejoin: miter"/>
     <use xlink:href="#mf70d37634e" x="438.602205" y="112.918605" style="fill-opacity: 0; stroke: #2ca02c; stroke-linejoin: miter"/>
     <use xlink:href="#mf70d37634e" x="679.022273" y="115.743596" style="fill-opacity: 0; stroke: #2ca02c; stroke-linejoin: miter"/>
    </g>
   </g>
   <g id="line2d_33">
    <path d="M 75.467727 215.814683 
L 87.989606 179.09536 
L 100.511484 84.782109 
L 113.033363 65.838107 
L 138.07712 71.697532 
L 188.164634 73.659193 
L 263.295905 78.5328 
L 438.602205 84.175613 
L 679.022273 86.609226 
" clip-path="url(#p21d1a87e18)" style="fill: none; stroke: #d62728; stroke-width: 1.5; stroke-linecap: square"/>
    <defs>
     <path id="m3ce512f761" d="M -0 4.949747 
L 4.949747 0 
L 0 -4.949747 
L -4.949747 -0 
z
" style="stroke: #d62728; stroke-linejoin: miter"/>
    </defs>
    <g clip-path="url(#p21d1a87e18)">
     <use xlink:href="#m3ce512f761" x="75.467727" y="215.814683" style="fill: #d62728; stroke: #d62728; stroke-linejoin: miter"/>
     <use xlink:href="#m3ce512f761" x="87.989606" y="179.09536" style="fill: #d62728; stroke: #d62728; stroke-linejoin: miter"/>
     <use xlink:href="#m3ce512f761" x="100.511484" y="84.782109" style="fill: #d62728; stroke: #d62728; stroke-linejoin: miter"/>
     <use xlink:href="#m3ce512f761" x="113.033363" y="65.838107" style="fill: #d62728; stroke: #d62728; stroke-linejoin: miter"/>
     <use xlink:href="#m3ce512f761" x="138.07712" y="71.697532" style="fill: #d62728; stroke: #d62728; stroke-linejoin: miter"/>
     <use xlink:href="#m3ce512f761" x="188.164634" y="73.659193" style="fill: #d62728; stroke: #d62728; stroke-linejoin: miter"/>
     <use xlink:href="#m3ce512f761" x="263.295905" y="78.5328" style="fill: #d62728; stroke: #d62728; stroke-linejoin: miter"/>
     <use xlink:href="#m3ce512f761" x="438.602205" y="84.175613" style="fill: #d62728; stroke: #d62728; stroke-linejoin: miter"/>
     <use xlink:href="#m3ce512f761" x="679.022273" y="86.609226" style="fill: #d62728; stroke: #d62728; stroke-linejoin: miter"/>
    </g>
   </g>
   <g id="line2d_34">
    <path d="M 75.467727 333.551961 
L 87.989606 312.527175 
L 100.511484 182.891784 
L 113.033363 97.773886 
L 138.07712 102.463252 
L 188.164634 106.922947 
L 263.295905 118.393497 
L 438.602205 131.097935 
L 679.022273 127.771793 
" clip-path="url(#p21d1a87e18)" style="fill: none; stroke-dasharray: 5.55,2.4; stroke-dashoffset: 0; stroke: #d62728; stroke-width: 1.5"/>
    <defs>
     <path id="m78b8962b0c" d="M -0 4.949747 
L 4.949747 0 
L 0 -4.949747 
L -4.949747 -0 
z
" style="stroke: #d62728; stroke-linejoin: miter"/>
    </defs>
    <g clip-path="url(#p21d1a87e18)">
     <use xlink:href="#m78b8962b0c" x="75.467727" y="333.551961" style="fill-opacity: 0; stroke: #d62728; stroke-linejoin: miter"/>
     <use xlink:href="#m78b8962b0c" x="87.989606" y="312.527175" style="fill-opacity: 0; stroke: #d62728; stroke-linejoin: miter"/>
     <use xlink:href="#m78b8962b0c" x="100.511484" y="182.891784" style="fill-opacity: 0; stroke: #d62728; stroke-linejoin: miter"/>
     <use xlink:href="#m78b8962b0c" x="113.033363" y="97.773886" style="fill-opacity: 0; stroke: #d62728; stroke-linejoin: miter"/>
     <use xlink:href="#m78b8962b0c" x="138.07712" y="102.463252" style="fill-opacity: 0; stroke: #d62728; stroke-linejoin: miter"/>
     <use xlink:href="#m78b8962b0c" x="188.164634" y="106.922947" style="fill-opacity: 0; stroke: #d62728; stroke-linejoin: miter"/>
     <use xlink:href="#m78b8962b0c" x="263.295905" y="118.393497" style="fill-opacity: 0; stroke: #d62728; stroke-linejoin: miter"/>
     <use xlink:href="#m78b8962b0c" x="438.602205" y="131.097935" style="fill-opacity: 0; stroke: #d62728; stroke-linejoin: miter"/>
     <use xlink:href="#m78b8962b0c" x="679.022273" y="127.771793" style="fill-opacity: 0; stroke: #d62728; stroke-linejoin: miter"/>
    </g>
   </g>
   <g id="patch_3">
    <path d="M 45.29 389.32 
L 45.29 26.88 
" style="fill: none; stroke: #000000; stroke-width: 0.8; stroke-linejoin: miter; stroke-linecap: square"/>
   </g>
   <g id="patch_4">
    <path d="M 709.2 389.32 
L 709.2 26.88 
" style="fill: none; stroke: #000000; stroke-width: 0.8; stroke-linejoin: miter; stroke-linecap: square"/>
   </g>
   <g id="patch_5">
    <path d="M 45.29 389.32 
L 709.2 389.32 
" style="fill: none; stroke: #000000; stroke-width: 0.8; stroke-linejoin: miter; stroke-linecap: square"/>
   </g>
   <g id="patch_6">
    <path d="M 45.29 26.88 
L 709.2 26.88 
" style="fill: none; stroke: #000000; stroke-width: 0.8; stroke-linejoin: miter; stroke-linecap: square"/>
   </g>
   <g id="text_16">
    <!-- SSIMULACRA2 vs Resolution -->
    <g transform="translate(292.93 20.88) scale(0.12 -0.12)">
     <defs>
      <path id="DejaVuSans-76" d="M 191 3500 
L 800 3500 
L 1894 563 
L 2988 3500 
L 3597 3500 
L 2284 0 
L 1503 0 
L 191 3500 
z
" transform="scale(0.015625)"/>
     </defs>
     <use xlink:href="#DejaVuSans-53"/>
     <use xlink:href="#DejaVuSans-53" transform="translate(63.476562 0)"/>
     <use xlink:href="#DejaVuSans-49" transform="translate(126.953125 0)"/>
     <use xlink:href="#DejaVuSans-4d" transform="translate(156.445312 0)"/>
     <use xlink:href="#DejaVuSans-55" transform="translate(242.724609 0)"/>
     <use xlink:href="#DejaVuSans-4c" transform="translate(315.917969 0)"/>
     <use xlink:href="#DejaVuSans-41" transform="translate(373.880859 0)"/>
     <use xlink:href="#DejaVuSans-43" transform="translate(440.539062 0)"/>
     <use xlink:href="#DejaVuSans-52" transform="translate(510.363281 0)"/>
     <use xlink:href="#DejaVuSans-41" transform="translate(575.845703 0)"/>
     <use xlink:href="#DejaVuSans-32" transform="translate(644.253906 0)"/>
     <use xlink:href="#DejaVuSans-20" transform="translate(707.876953 0)"/>
     <use xlink:href="#DejaVuSans-76" transform="translate(739.664062 0)"/>
     <use xlink:href="#DejaVuSans-73" transform="translate(798.84375 0)"/>
     <use xlink:href="#DejaVuSans-20" transform="translate(850.943359 0)"/>
     <use xlink:href="#DejaVuSans-52" transform="translate(882.730469 0)"/>
     <use xlink:href="#DejaVuSans-65" transform="translate(947.712891 0)"/>
     <use xlink:href="#DejaVuSans-73" transform="translate(1009.236328 0)"/>
     <use xlink:href="#DejaVuSans-6f" transform="translate(1061.335938 0)"/>
     <use xlink:href="#DejaVuSans-6c" transform="translate(1122.517578 0)"/>
     <use xlink:href="#DejaVuSans-75" transform="translate(1150.300781 0)"/>
     <use xlink:href="#DejaVuSans-74" transform="translate(1213.679688 0)"/>
     <use xlink:href="#DejaVuSans-69" transform="translate(1252.888672 0)"/>
     <use xlink:href="#DejaVuSans-6f" transform="translate(1280.671875 0)"/>
     <use xlink:href="#DejaVuSans-6e" transform="translate(1341.853516 0)"/>
    </g>
   </g>
   <g id="legend_1">
    <g id="patch_7">
     <path d="M 480.2175 385.32 
L 703.6 385.32 
Q 705.2 385.32 705.2 383.72 
L 705.2 336.66 
Q 705.2 335.06 703.6 335.06 
L 480.2175 335.06 
Q 478.6175 335.06 478.6175 336.66 
L 478.6175 383.72 
Q 478.6175 385.32 480.2175 385.32 
z
" style="fill: #ffffff; opacity: 0.8; stroke: #cccccc; stroke-linejoin: miter"/>
    </g>
    <g id="line2d_35">
     <path d="M 481.8175 341.53875 
L 489.8175 341.53875 
L 497.8175 341.53875 
" style="fill: none; stroke: #1f77b4; stroke-width: 1.5; stroke-linecap: square"/>
     <g>
      <use xlink:href="#m4368ca7740" x="489.8175" y="341.53875" style="fill: #1f77b4; stroke: #1f77b4"/>
     </g>
    </g>
    <g id="text_17">
     <!-- avif_65 (mean) -->
     <g transform="translate(504.2175 344.33875) scale(0.08 -0.08)">
      <defs>
       <path id="DejaVuSans-61" d="M 2194 1759 
Q 1497 1759 1228 1600 
Q 959 1441 959 1056 
Q 959 750 1161 570 
Q 1363 391 1709 391 
Q 2188 391 2477 730 
Q 2766 1069 2766 1631 
L 2766 1759 
L 2194 1759 
z
M 3341 1997 
L 3341 0 
L 2766 0 
L 2766 531 
Q 2569 213 2275 61 
Q 1981 -91 1556 -91 
Q 1019 -91 701 211 
Q 384 513 384 1019 
Q 384 1609 779 1909 
Q 1175 2209 1959 2209 
L 2766 2209 
L 2766 2266 
Q 2766 2663 2505 2880 
Q 2244 3097 1772 3097 
Q 1472 3097 1187 3025 
Q 903 2953 641 2809 
L 641 3341 
Q 956 3463 1253 3523 
Q 1550 3584 1831 3584 
Q 2591 3584 2966 3190 
Q 3341 2797 3341 1997 
z
" transform="scale(0.015625)"/>
       <path id="DejaVuSans-66" d="M 2375 4863 
L 2375 4384 
L 1825 4384 
Q 1516 4384 1395 4259 
Q 1275 4134 1275 3809 
L 1275 3500 
L 2222 3500 
L 2222 3053 
L 1275 3053 
L 1275 0 
L 697 0 
L 697 3053 
L 147 3053 
L 147 3500 
L 697 3500 
L 697 3744 
Q 697 4328 969 4595 
Q 1241 4863 1831 4863 
L 2375 4863 
z
" transform="scale(0.015625)"/>
       <path id="DejaVuSans-5f" d="M 3263 -1063 
L 3263 -1509 
L -63 -1509 
L -63 -1063 
L 3263 -1063 
z
" transform="scale(0.015625)"/>
       <path id="DejaVuSans-6d" d="M 3328 2828 
Q 3544 3216 3844 3400 
Q 4144 3584 4550 3584 
Q 5097 3584 5394 3201 
Q 5691 2819 5691 2113 
L 5691 0 
L 5113 0 
L 5113 2094 
Q 5113 2597 4934 2840 
Q 4756 3084 4391 3084 
Q 3944 3084 3684 2787 
Q 3425 2491 3425 1978 
L 3425 0 
L 2847 0 
L 2847 2094 
Q 2847 2600 2669 2842 
Q 2491 3084 2119 3084 
Q 1678 3084 1418 2786 
Q 1159 2488 1159 1978 
L 1159 0 
L 581 0 
L 581 3500 
L 1159 3500 
L 1159 2956 
Q 1356 3278 1631 3431 
Q 1906 3584 2284 3584 
Q 2666 3584 2933 3390 
Q 3200 3197 3328 2828 
z
" transform="scale(0.015625)"/>
      </defs>
      <use xlink:href="#DejaVuSans-61"/>
      <use xlink:href="#DejaVuSans-76" transform="translate(61.279297 0)"/>
      <use xlink:href="#DejaVuSans-69" transform="translate(120.458984 0)"/>
      <use xlink:href="#DejaVuSans-66" transform="translate(148.242188 0)"/>
      <use xlink:href="#DejaVuSans-5f" transform="translate(183.447266 0)"/>
      <use xlink:href="#DejaVuSans-36" transform="translate(233.447266 0)"/>
      <use xlink:href="#DejaVuSans-35" transform="translate(297.070312 0)"/>
      <use xlink:href="#DejaVuSans-20" transform="translate(360.693359 0)"/>
      <use xlink:href="#DejaVuSans-28" transform="translate(392.480469 0)"/>
      <use xlink:href="#DejaVuSans-6d" transform="translate(431.494141 0)"/>
      <use xlink:href="#DejaVuSans-65" transform="translate(528.90625 0)"/>
      <use xlink:href="#DejaVuSans-61" transform="translate(590.429688 0)"/>
      <use xlink:href="#DejaVuSans-6e" transform="translate(651.708984 0)"/>
      <use xlink:href="#DejaVuSans-29" transform="translate(715.087891 0)"/>
     </g>
    </g>
    <g id="line2d_36">
     <path d="M 481.8175 353.50375 
L 489.8175 353.50375 
L 497.8175 353.50375 
" style="fill: none; stroke-dasharray: 5.55,2.4; stroke-dashoffset: 0; stroke: #1f77b4; stroke-width: 1.5"/>
     <g>
      <use xlink:href="#m93aa34ca7c" x="489.8175" y="353.50375" style="fill-opacity: 0; stroke: #1f77b4"/>
     </g>
    </g>
    <g id="text_18">
     <!-- avif_65 (5% worst) -->
     <g transform="translate(504.2175 356.30375) scale(0.08 -0.08)">
      <defs>
       <path id="DejaVuSans-25" d="M 4653 2053 
Q 4381 2053 4226 1822 
Q 4072 1591 4072 1178 
Q 4072 772 4226 539 
Q 4381 306 4653 306 
Q 4919 306 5073 539 
Q 5228 772 5228 1178 
Q 5228 1588 5073 1820 
Q 4919 2053 4653 2053 
z
M 4653 2450 
Q 5147 2450 5437 2106 
Q 5728 1763 5728 1178 
Q 5728 594 5436 251 
Q 5144 -91 4653 -91 
Q 4153 -91 3862 251 
Q 3572 594 3572 1178 
Q 3572 1766 3864 2108 
Q 4156 2450 4653 2450 
z
M 1428 4353 
Q 1159 4353 1004 4120 
Q 850 3888 850 3481 
Q 850 3069 1003 2837 
Q 1156 2606 1428 2606 
Q 1700 2606 1854 2837 
Q 2009 3069 2009 3481 
Q 2009 3884 1853 4118 
Q 1697 4353 1428 4353 
z
M 4250 4750 
L 4750 4750 
L 1831 -91 
L 1331 -91 
L 4250 4750 
z
M 1428 4750 
Q 1922 4750 2215 4408 
Q 2509 4066 2509 3481 
Q 2509 2891 2217 2550 
Q 1925 2209 1428 2209 
Q 931 2209 642 2551 
Q 353 2894 353 3481 
Q 353 4063 643 4406 
Q 934 4750 1428 4750 
z
" transform="scale(0.015625)"/>
       <path id="DejaVuSans-77" d="M 269 3500 
L 844 3500 
L 1563 769 
L 2278 3500 
L 2956 3500 
L 3675 769 
L 4391 3500 
L 4966 3500 
L 4050 0 
L 3372 0 
L 2619 2869 
L 1863 0 
L 1184 0 
L 269 3500 
z
" transform="scale(0.015625)"/>
      </defs>
      <use xlink:href="#DejaVuSans-61"/>
      <use xlink:href="#DejaVuSans-76" transform="translate(61.279297 0)"/>
      <use xlink:href="#DejaVuSans-69" transform="translate(120.458984 0)"/>
      <use xlink:href="#DejaVuSans-66" transform="translate(148.242188 0)"/>
      <use xlink:href="#DejaVuSans-5f" transform="translate(183.447266 0)"/>
      <use xlink:href="#DejaVuSans-36" transform="translate(233.447266 0)"/>
      <use xlink:href="#DejaVuSans-35" transform="translate(297.070312 0)"/>
      <use xlink:href="#DejaVuSans-20" transform="translate(360.693359 0)"/>
      <use xlink:href="#DejaVuSans-28" transform="translate(392.480469 0)"/>
      <use xlink:href="#DejaVuSans-35" transform="translate(431.494141 0)"/>
      <use xlink:href="#DejaVuSans-25" transform="translate(495.117188 0)"/>
      <use xlink:href="#DejaVuSans-20" transform="translate(590.136719 0)"/>
      <use xlink:href="#DejaVuSans-77" transform="translate(621.923828 0)"/>
      <use xlink:href="#DejaVuSans-6f" transform="translate(703.710938 0)"/>
      <use xlink:href="#DejaVuSans-72" transform="translate(764.892578 0)"/>
      <use xlink:href="#DejaVuSans-73" transform="translate(806.005859 0)"/>
      <use xlink:href="#DejaVuSans-74" transform="translate(858.105469 0)"/>
      <use xlink:href="#DejaVuSans-29" transform="translate(897.314453 0)"/>
     </g>
    </g>
    <g id="line2d_37">
     <path d="M 481.8175 365.46875 
L 489.8175 365.46875 
L 497.8175 365.46875 
" style="fill: none; stroke: #ff7f0e; stroke-width: 1.5; stroke-linecap: square"/>
     <g>
      <use xlink:href="#m183c26da33" x="489.8175" y="365.46875" style="fill: #ff7f0e; stroke: #ff7f0e; stroke-linejoin: miter"/>
     </g>
    </g>
    <g id="text_19">
     <!-- jpeg_85 (mean) -->
     <g transform="translate(504.2175 368.26875) scale(0.08 -0.08)">
      <defs>
       <path id="DejaVuSans-6a" d="M 603 3500 
L 1178 3500 
L 1178 -63 
Q 1178 -731 923 -1031 
Q 669 -1331 103 -1331 
L -116 -1331 
L -116 -844 
L 38 -844 
Q 366 -844 484 -692 
Q 603 -541 603 -63 
L 603 3500 
z
M 603 4863 
L 1178 4863 
L 1178 4134 
L 603 4134 
L 603 4863 
z
" transform="scale(0.015625)"/>
       <path id="DejaVuSans-70" d="M 1159 525 
L 1159 -1331 
L 581 -1331 
L 581 3500 
L 1159 3500 
L 1159 2969 
Q 1341 3281 1617 3432 
Q 1894 3584 2278 3584 
Q 2916 3584 3314 3078 
Q 3713 2572 3713 1747 
Q 3713 922 3314 415 
Q 2916 -91 2278 -91 
Q 1894 -91 1617 61 
Q 1341 213 1159 525 
z
M 3116 1747 
Q 3116 2381 2855 2742 
Q 2594 3103 2138 3103 
Q 1681 3103 1420 2742 
Q 1159 2381 1159 1747 
Q 1159 1113 1420 752 
Q 1681 391 2138 391 
Q 2594 391 2855 752 
Q 3116 1113 3116 1747 
z
" transform="scale(0.015625)"/>
      </defs>
      <use xlink:href="#DejaVuSans-6a"/>
      <use xlink:href="#DejaVuSans-70" transform="translate(27.783203 0)"/>
      <use xlink:href="#DejaVuSans-65" transform="translate(91.259766 0)"/>
      <use xlink:href="#DejaVuSans-67" transform="translate(152.783203 0)"/>
      <use xlink:href="#DejaVuSans-5f" transform="translate(216.259766 0)"/>
      <use xlink:href="#DejaVuSans-38" transform="translate(266.259766 0)"/>
      <use xlink:href="#DejaVuSans-35" transform="translate(329.882812 0)"/>
      <use xlink:href="#DejaVuSans-20" transform="translate(393.505859 0)"/>
      <use xlink:href="#DejaVuSans-28" transform="translate(425.292969 0)"/>
      <use xlink:href="#DejaVuSans-6d" transform="translate(464.306641 0)"/>
      <use xlink:href="#DejaVuSans-65" transform="translate(561.71875 0)"/>
      <use xlink:href="#DejaVuSans-61" transform="translate(623.242188 0)"/>
      <use xlink:href="#DejaVuSans-6e" transform="translate(684.521484 0)"/>
      <use xlink:href="#DejaVuSans-29" transform="translate(747.900391 0)"/>
     </g>
    </g>
    <g id="line2d_38">
     <path d="M 481.8175 377.43375 
L 489.8175 377.43375 
L 497.8175 377.43375 
" style="fill: none; stroke-dasharray: 5.55,2.4; stroke-dashoffset: 0; stroke: #ff7f0e; stroke-width: 1.5"/>
     <g>
      <use xlink:href="#m8cc22ea6dd" x="489.8175" y="377.43375" style="fill-opacity: 0; stroke: #ff7f0e; stroke-linejoin: miter"/>
     </g>
    </g>
    <g id="text_20">
     <!-- jpeg_85 (5% worst) -->
     <g transform="translate(504.2175 380.23375) scale(0.08 -0.08)">
      <use xlink:href="#DejaVuSans-6a"/>
      <use xlink:href="#DejaVuSans-70" transform="translate(27.783203 0)"/>
      <use xlink:href="#DejaVuSans-65" transform="translate(91.259766 0)"/>
      <use xlink:href="#DejaVuSans-67" transform="translate(152.783203 0)"/>
      <use xlink:href="#DejaVuSans-5f" transform="translate(216.259766 0)"/>
      <use xlink:href="#DejaVuSans-38" transform="translate(266.259766 0)"/>
      <use xlink:href="#DejaVuSans-35" transform="translate(329.882812 0)"/>
      <use xlink:href="#DejaVuSans-20" transform="translate(393.505859 0)"/>
      <use xlink:href="#DejaVuSans-28" transform="translate(425.292969 0)"/>
      <use xlink:href="#DejaVuSans-35" transform="translate(464.306641 0)"/>
      <use xlink:href="#DejaVuSans-25" transform="translate(527.929688 0)"/>
      <use xlink:href="#DejaVuSans-20" transform="translate(622.949219 0)"/>
      <use xlink:href="#DejaVuSans-77" transform="translate(654.736328 0)"/>
      <use xlink:href="#DejaVuSans-6f" transform="translate(736.523438 0)"/>
      <use xlink:href="#DejaVuSans-72" transform="translate(797.705078 0)"/>
      <use xlink:href="#DejaVuSans-73" transform="translate(838.818359 0)"/>
      <use xlink:href="#DejaVuSans-74" transform="translate(890.917969 0)"/>
      <use xlink:href="#DejaVuSans-29" transform="translate(930.126953 0)"/>
     </g>
    </g>
    <g id="line2d_39">
     <path d="M 597.74875 341.53875 
L 605.74875 341.53875 
L 613.74875 341.53875 
" style="fill: none; stroke: #2ca02c; stroke-width: 1.5; stroke-linecap: square"/>
     <g>
      <use xlink:href="#mc54e8d47f9" x="605.74875" y="341.53875" style="fill: #2ca02c; stroke: #2ca02c; stroke-linejoin: miter"/>
     </g>
    </g>
    <g id="text_21">
     <!-- jxl_85 (mean) -->
     <g transform="translate(620.14875 344.33875) scale(0.08 -0.08)">
      <defs>
       <path id="DejaVuSans-78" d="M 3513 3500 
L 2247 1797 
L 3578 0 
L 2900 0 
L 1881 1375 
L 863 0 
L 184 0 
L 1544 1831 
L 300 3500 
L 978 3500 
L 1906 2253 
L 2834 3500 
L 3513 3500 
z
" transform="scale(0.015625)"/>
      </defs>
      <use xlink:href="#DejaVuSans-6a"/>
      <use xlink:href="#DejaVuSans-78" transform="translate(27.783203 0)"/>
      <use xlink:href="#DejaVuSans-6c" transform="translate(86.962891 0)"/>
      <use xlink:href="#DejaVuSans-5f" transform="translate(114.746094 0)"/>
      <use xlink:href="#DejaVuSans-38" transform="translate(164.746094 0)"/>
      <use xlink:href="#DejaVuSans-35" transform="translate(228.369141 0)"/>
      <use xlink:href="#DejaVuSans-20" transform="translate(291.992188 0)"/>
      <use xlink:href="#DejaVuSans-28" transform="translate(323.779297 0)"/>
      <use xlink:href="#DejaVuSans-6d" transform="translate(362.792969 0)"/>
      <use xlink:href="#DejaVuSans-65" transform="translate(460.205078 0)"/>
      <use xlink:href="#DejaVuSans-61" transform="translate(521.728516 0)"/>
      <use xlink:href="#DejaVuSans-6e" transform="translate(583.007812 0)"/>
      <use xlink:href="#DejaVuSans-29" transform="translate(646.386719 0)"/>
     </g>
    </g>
    <g id="line2d_40">
     <path d="M 597.74875 353.50375 
L 605.74875 353.50375 
L 613.74875 353.50375 
" style="fill: none; stroke-dasharray: 5.55,2.4; stroke-dashoffset: 0; stroke: #2ca02c; stroke-width: 1.5"/>
     <g>
      <use xlink:href="#mf70d37634e" x="605.74875" y="353.50375" style="fill-opacity: 0; stroke: #2ca02c; stroke-linejoin: miter"/>
     </g>
    </g>
    <g id="text_22">
     <!-- jxl_85 (5% worst) -->
     <g transform="translate(620.14875 356.30375) scale(0.08 -0.08)">
      <use xlink:href="#DejaVuSans-6a"/>
      <use xlink:href="#DejaVuSans-78" transform="translate(27.783203 0)"/>
      <use xlink:href="#DejaVuSans-6c" transform="translate(86.962891 0)"/>
      <use xlink:href="#DejaVuSans-5f" transform="translate(114.746094 0)"/>
      <use xlink:href="#DejaVuSans-38" transform="translate(164.746094 0)"/>
      <use xlink:href="#DejaVuSans-35" transform="translate(228.369141 0)"/>
      <use xlink:href="#DejaVuSans-20" transform="translate(291.992188 0)"/>
      <use xlink:href="#DejaVuSans-28" transform="translate(323.779297 0)"/>
      <use xlink:href="#DejaVuSans-35" transform="translate(362.792969 0)"/>
      <use xlink:href="#DejaVuSans-25" transform="translate(426.416016 0)"/>
      <use xlink:href="#DejaVuSans-20" transform="translate(521.435547 0)"/>
      <use xlink:href="#DejaVuSans-77" transform="translate(553.222656 0)"/>
      <use xlink:href="#DejaVuSans-6f" transform="translate(635.009766 0)"/>
      <use xlink:href="#DejaVuSans-72" transform="translate(696.191406 0)"/>
      <use xlink:href="#DejaVuSans-73" transform="translate(737.304688 0)"/>
      <use xlink:href="#DejaVuSans-74" transform="translate(789.404297 0)"/>
      <use xlink:href="#DejaVuSans-29" transform="translate(828.613281 0)"/>
     </g>
    </g>
    <g id="line2d_41">
     <path d="M 597.74875 365.46875 
L 605.74875 365.46875 
L 613.74875 365.46875 
" style="fill: none; stroke: #d62728; stroke-width: 1.5; stroke-linecap: square"/>
     <g>
      <use xlink:href="#m3ce512f761" x="605.74875" y="365.46875" style="fill: #d62728; stroke: #d62728; stroke-linejoin: miter"/>
     </g>
    </g>
    <g id="text_23">
     <!-- webp_87 (mean) -->
     <g transform="translate(620.14875 368.26875) scale(0.08 -0.08)">
      <use xlink:href="#DejaVuSans-77"/>
      <use xlink:href="#DejaVuSans-65" transform="translate(81.787109 0)"/>
      <use xlink:href="#DejaVuSans-62" transform="translate(143.310547 0)"/>
      <use xlink:href="#DejaVuSans-70" transform="translate(206.787109 0)"/>
      <use xlink:href="#DejaVuSans-5f" transform="translate(270.263672 0)"/>
      <use xlink:href="#DejaVuSans-38" transform="translate(320.263672 0)"/>
      <use xlink:href="#DejaVuSans-37" transform="translate(383.886719 0)"/>
      <use xlink:href="#DejaVuSans-20" transform="translate(447.509766 0)"/>
      <use xlink:href="#DejaVuSans-28" transform="translate(479.296875 0)"/>
      <use xlink:href="#DejaVuSans-6d" transform="translate(518.310547 0)"/>
      <use xlink:href="#DejaVuSans-65" transform="translate(615.722656 0)"/>
      <use xlink:href="#DejaVuSans-61" transform="translate(677.246094 0)"/>
      <use xlink:href="#DejaVuSans-6e" transform="translate(738.525391 0)"/>
      <use xlink:href="#DejaVuSans-29" transform="translate(801.904297 0)"/>
     </g>
    </g>
    <g id="line2d_42">
     <path d="M 597.74875 377.43375 
L 605.74875 377.43375 
L 613.74875 377.43375 
" style="fill: none; stroke-dasharray: 5.55,2.4; stroke-dashoffset: 0; stroke: #d62728; stroke-width: 1.5"/>
     <g>
      <use xlink:href="#m78b8962b0c" x="605.74875" y="377.43375" style="fill-opacity: 0; stroke: #d62728; stroke-linejoin: miter"/>
     </g>
    </g>
    <g id="text_24">
     <!-- webp_87 (5% worst) -->
     <g transform="translate(620.14875 380.23375) scale(0.08 -0.08)">
      <use xlink:href="#DejaVuSans-77"/>
      <use xlink:href="#DejaVuSans-65" transform="translate(81.787109 0)"/>
      <use xlink:href="#DejaVuSans-62" transform="translate(143.310547 0)"/>
      <use xlink:href="#DejaVuSans-70" transform="translate(206.787109 0)"/>
      <use xlink:href="#DejaVuSans-5f" transform="translate(270.263672 0)"/>
      <use xlink:href="#DejaVuSans-38" transform="translate(320.263672 0)"/>
      <use xlink:href="#DejaVuSans-37" transform="translate(383.886719 0)"/>
      <use xlink:href="#DejaVuSans-20" transform="translate(447.509766 0)"/>
      <use xlink:href="#DejaVuSans-28" transform="translate(479.296875 0)"/>
      <use xlink:href="#DejaVuSans-35" transform="translate(518.310547 0)"/>
      <use xlink:href="#DejaVuSans-25" transform="translate(581.933594 0)"/>
      <use xlink:href="#DejaVuSans-20" transform="translate(676.953125 0)"/>
      <use xlink:href="#DejaVuSans-77" transform="translate(708.740234 0)"/>
      <use xlink:href="#DejaVuSans-6f" transform="translate(790.527344 0)"/>
      <use xlink:href="#DejaVuSans-72" transform="translate(851.708984 0)"/>
      <use xlink:href="#DejaVuSans-73" transform="translate(892.822266 0)"/>
      <use xlink:href="#DejaVuSans-74" transform="translate(944.921875 0)"/>
      <use xlink:href="#DejaVuSans-29" transform="translate(984.130859 0)"/>
     </g>
    </g>
   </g>
  </g>
 </g>
 <defs>
  <clipPath id="p21d1a87e18">
   <rect x="45.29" y="26.88" width="663.91" height="362.44"/>
  </clipPath>
 </defs>
</svg>
