<svg xmlns="http://www.w3.org/2000/svg" xmlns:xlink="http://www.w3.org/1999/xlink" width="960" height="576" viewBox="0 0 720 432"><path d="M0 432h720V0H0z" style="fill:#fff"/><path d="M45.3 389.3h663.9V27h-664z" style="fill:#fff"/><path d="M145 389.3V27" clip-path="url(#a)" style="fill:none;stroke:#b0b0b0;stroke-opacity:.3;stroke-width:.8;stroke-linecap:square"/><defs><path id="b" d="M0 0v3.5" style="stroke:#000;stroke-width:.8"/></defs><use xlink:href="#b" x="145.1" y="389.3" style="stroke:#000;stroke-width:.8"/><g transform="matrix(.1 0 0 -.1 137.1 404)"><defs><path id="c" d="M794 531h1031v3560L703 3866v575l1116 225h631V531h1031V0H794z" transform="scale(.01563)"/><path id="d" d="M684 794h660V0H684z" transform="scale(.01563)"/><path id="e" d="M691 4666h2478v-532H1269V2991q137 47 274 70 138 23 276 23 781 0 1237-428 457-428 457-1159 0-753-469-1171Q2575-91 1722-91q-294 0-599 50Q819 9 494 109v635q281-153 581-228t634-75q541 0 856 284 316 284 316 772 0 487-316 771-315 285-856 285-253 0-505-56-251-56-513-175z" transform="scale(.01563)"/></defs><use xlink:href="#c"/><use xlink:href="#d" transform="translate(63.6)"/><use xlink:href="#e" transform="translate(95.4)"/></g><path d="M263.4 389.3V27" clip-path="url(#a)" style="fill:none;stroke:#b0b0b0;stroke-opacity:.3;stroke-width:.8;stroke-linecap:square"/><use xlink:href="#b" x="263.4" y="389.3" style="stroke:#000;stroke-width:.8"/><g transform="matrix(.1 0 0 -.1 255.4 404)"><defs><path id="f" d="M1228 531h2203V0H469v531q359 372 979 998 621 627 780 809 303 340 423 576 121 236 121 464 0 372-261 606-261 235-680 235-297 0-627-103-329-103-704-313v638q381 153 712 231 332 78 607 78 725 0 1156-363 431-362 431-968 0-288-108-546-107-257-392-607-78-91-497-524-418-433-1181-1211" transform="scale(.01563)"/><path id="g" d="M2034 4250q-487 0-733-480-245-479-245-1442 0-959 245-1439 246-480 733-480 491 0 736 480 246 480 246 1439 0 963-246 1442-245 480-736 480m0 500q785 0 1199-621 414-620 414-1801 0-1178-414-1799Q2819-91 2034-91q-784 0-1198 620-414 621-414 1799 0 1181 414 1801 414 621 1198 621" transform="scale(.01563)"/></defs><use xlink:href="#f"/><use xlink:href="#d" transform="translate(63.6)"/><use xlink:href="#g" transform="translate(95.4)"/></g><path d="M381.7 389.3V27" clip-path="url(#a)" style="fill:none;stroke:#b0b0b0;stroke-opacity:.3;stroke-width:.8;stroke-linecap:square"/><use xlink:href="#b" x="381.7" y="389.3" style="stroke:#000;stroke-width:.8"/><g transform="matrix(.1 0 0 -.1 373.7 404)"><use xlink:href="#f"/><use xlink:href="#d" transform="translate(63.6)"/><use xlink:href="#e" transform="translate(95.4)"/></g><path d="M500 389.3V27" clip-path="url(#a)" style="fill:none;stroke:#b0b0b0;stroke-opacity:.3;stroke-width:.8;stroke-linecap:square"/><use xlink:href="#b" x="500" y="389.3" style="stroke:#000;stroke-width:.8"/><g transform="matrix(.1 0 0 -.1 492 404)"><defs><path id="h" d="M2597 2516q453-97 707-404 255-306 255-756 0-690-475-1069Q2609-91 1734-91q-293 0-604 58T488 141v609q262-153 574-231 313-78 654-78 593 0 904 234t311 681q0 413-289 645-289 233-804 233h-544v519h569q465 0 712 186t247 536q0 359-255 551-254 193-729 193-260 0-557-57-297-56-653-174v562q360 100 674 150t592 50q719 0 1137-327 419-326 419-882 0-388-222-655t-631-370" transform="scale(.01563)"/></defs><use xlink:href="#h"/><use xlink:href="#d" transform="translate(63.6)"/><use xlink:href="#g" transform="translate(95.4)"/></g><path d="M618.3 389.3V27" clip-path="url(#a)" style="fill:none;stroke:#b0b0b0;stroke-opacity:.3;stroke-width:.8;stroke-linecap:square"/><use xlink:href="#b" x="618.3" y="389.3" style="stroke:#000;stroke-width:.8"/><g transform="matrix(.1 0 0 -.1 610.4 404)"><use xlink:href="#h"/><use xlink:href="#d" transform="translate(63.6)"/><use xlink:href="#e" transform="translate(95.4)"/></g><g transform="matrix(.11 0 0 -.11 281.9 418.4)"><defs><path id="i" d="M1259 2228V519h1013q509 0 754 211 246 211 246 645 0 438-246 645-245 208-754 208zm0 1919V2741h935q462 0 688 173 227 174 227 530 0 353-227 528-226 175-688 175zm-631 519h1613q722 0 1112-300 391-300 391-853 0-429-200-682t-588-315q466-100 724-418 258-317 258-792 0-625-425-966Q3088 0 2303 0H628z" transform="scale(.01563)"/><path id="j" d="M603 3500h575V0H603zm0 1363h575v-729H603z" transform="scale(.01563)"/><path id="k" d="M1172 4494v-994h1184v-447H1172V1153q0-428 117-550t477-122h590V0h-590q-666 0-919 248-253 249-253 905v1900H172v447h422v994z" transform="scale(.01563)"/><path id="l" d="M2834 3397v-544q-243 125-506 187-262 63-544 63-428 0-642-131t-214-394q0-200 153-314t616-217l197-44q612-131 870-370t258-667q0-488-386-773Q2250-91 1575-91q-281 0-586 55T347 128v594q319-166 628-249 309-82 613-82 406 0 624 139 219 139 219 392 0 234-158 359-157 125-692 241l-200 47q-534 112-772 345-237 233-237 639 0 494 350 762 350 269 994 269 318 0 599-47 282-46 519-140" transform="scale(.01563)"/><path id="m" d="M1159 525v-1856H581v4831h578v-531q182 312 458 463 277 152 661 152 638 0 1036-506 399-506 399-1331T3314 415Q2916-91 2278-91q-384 0-661 152-276 152-458 464m1957 1222q0 634-261 995t-717 361q-457 0-718-361t-261-995 261-995 718-361q456 0 717 361t261 995" transform="scale(.01563)"/><path id="n" d="M3597 1894v-281H953q38-594 358-905t892-311q331 0 642 81t618 244V178Q3153 47 2828-22t-659-69q-838 0-1327 487-489 488-489 1320 0 859 464 1363 464 505 1252 505 706 0 1117-455 411-454 411-1235m-575 169q-6 471-264 752-258 282-683 282-481 0-770-272t-333-766z" transform="scale(.01563)"/><path id="o" d="M2631 2963q-97 56-211 82-114 27-251 27-488 0-749-317t-261-911V0H581v3500h578v-544q182 319 472 473 291 155 707 155 59 0 131-8 72-7 159-23z" transform="scale(.01563)"/><path id="p" d="M1259 4147V2394h794q441 0 681 228 241 228 241 650 0 419-241 647-240 228-681 228zm-631 519h1425q785 0 1186-355 402-355 402-1039 0-691-402-1044-401-353-1186-353h-794V0H628z" transform="scale(.01563)"/><path id="q" d="M3513 3500 2247 1797 3578 0h-678L1881 1375 863 0H184l1360 1831L300 3500h678l928-1247 928 1247z" transform="scale(.01563)"/><path id="r" d="M603 4863h575V0H603z" transform="scale(.01563)"/><path id="s" d="M1984 4856q-418-718-622-1422-203-703-203-1425 0-721 205-1429t620-1424h-500Q1016-109 783 600T550 2009q0 697 231 1403 232 707 703 1444z" transform="scale(.01563)"/><path id="t" d="M750 794h659V256L897-744H494L750 256z" transform="scale(.01563)"/><path id="u" d="M1959 3097q-462 0-731-361t-269-989 267-989q268-361 733-361 460 0 728 362 269 363 269 988 0 622-269 986-268 364-728 364m0 487q750 0 1178-488 429-487 429-1349 0-859-429-1349Q2709-91 1959-91q-753 0-1180 489-426 490-426 1349 0 862 426 1349 427 488 1180 488" transform="scale(.01563)"/><path id="v" d="M269 3500h575l719-2731 715 2731h678l719-2731 716 2731h575L4050 0h-678l-753 2869L1863 0h-679z" transform="scale(.01563)"/><path id="w" d="M3116 1747q0 634-261 995t-717 361q-457 0-718-361t-261-995 261-995 718-361q456 0 717 361t261 995M1159 2969q182 312 458 463 277 152 661 152 638 0 1036-506 399-506 399-1331T3314 415Q2916-91 2278-91q-384 0-661 152-276 152-458 464V0H581v4863h578z" transform="scale(.01563)"/><path id="x" d="M513 4856h500q468-737 701-1444 233-706 233-1403 0-700-233-1409T1013-844H513q415 716 620 1424t205 1429q0 722-205 1425-205 704-620 1422" transform="scale(.01563)"/></defs><use xlink:href="#i"/><use xlink:href="#j" transform="translate(68.6)"/><use xlink:href="#k" transform="translate(96.4)"/><use xlink:href="#l" transform="translate(135.6)"/><use xlink:href="#m" transform="translate(219.5)"/><use xlink:href="#n" transform="translate(283)"/><use xlink:href="#o" transform="translate(344.5)"/><use xlink:href="#p" transform="translate(417.4)"/><use xlink:href="#j" transform="translate(475.4)"/><use xlink:href="#q" transform="translate(503.2)"/><use xlink:href="#n" transform="translate(559.3)"/><use xlink:href="#r" transform="translate(620.8)"/><use xlink:href="#s" transform="translate(680.4)"/><use xlink:href="#i" transform="translate(719.4)"/><use xlink:href="#p" transform="translate(788)"/><use xlink:href="#p" transform="translate(848.3)"/><use xlink:href="#t" transform="translate(908.6)"/><use xlink:href="#r" transform="translate(972.2)"/><use xlink:href="#u" transform="translate(1000)"/><use xlink:href="#v" transform="translate(1061.1)"/><use xlink:href="#n" transform="translate(1143)"/><use xlink:href="#o" transform="translate(1204.4)"/><use xlink:href="#j" transform="translate(1277.3)"/><use xlink:href="#l" transform="translate(1305.1)"/><use xlink:href="#w" transform="translate(1389)"/><use xlink:href="#n" transform="translate(1452.5)"/><use xlink:href="#k" transform="translate(1514)"/><use xlink:href="#k" transform="translate(1553.2)"/><use xlink:href="#n" transform="translate(1592.4)"/><use xlink:href="#o" transform="translate(1654)"/><use xlink:href="#x" transform="translate(1695)"/></g><path d="M45.3 369h663.9" clip-path="url(#a)" style="fill:none;stroke:#b0b0b0;stroke-opacity:.3;stroke-width:.8;stroke-linecap:square"/><defs><path id="y" d="M0 0h-3.5" style="stroke:#000;stroke-width:.8"/></defs><use xlink:href="#y" x="45.3" y="369" style="stroke:#000;stroke-width:.8"/><g transform="matrix(.1 0 0 -.1 25.6 372.8)"><defs><path id="z" d="M2113 2584q-425 0-674-291-248-290-248-796 0-503 248-796 249-292 674-292t673 292q248 293 248 796 0 506-248 796-248 291-673 291m1253 1979v-575q-238 112-480 171-242 60-480 60-625 0-955-422-329-422-376-1275 184 272 462 417 279 145 613 145 703 0 1111-427 408-426 408-1160 0-719-425-1154Q2819-91 2113-91q-810 0-1238 620-428 621-428 1799 0 1106 525 1764t1409 658q238 0 480-47t505-140" transform="scale(.01563)"/></defs><use xlink:href="#f"/><use xlink:href="#z" transform="translate(63.6)"/></g><path d="M45.3 317.2h663.9" clip-path="url(#a)" style="fill:none;stroke:#b0b0b0;stroke-opacity:.3;stroke-width:.8;stroke-linecap:square"/><use xlink:href="#y" x="45.3" y="317.2" style="stroke:#000;stroke-width:.8"/><g transform="matrix(.1 0 0 -.1 25.6 321)"><defs><path id="A" d="M2034 2216q-450 0-708-241-257-241-257-662 0-422 257-663 258-241 708-241t709 242q260 243 260 662 0 421-258 662-257 241-711 241m-631 268q-406 100-633 378-226 279-226 679 0 559 398 884 399 325 1092 325 697 0 1094-325t397-884q0-400-227-679-226-278-629-378 456-106 710-416 255-309 255-755 0-679-414-1042Q2806-91 2034-91q-771 0-1186 362-414 363-414 1042 0 446 256 755 257 310 713 416m-231 997q0-362 226-565 227-203 636-203 407 0 636 203 230 203 230 565 0 363-230 566-229 203-636 203-409 0-636-203-226-203-226-566" transform="scale(.01563)"/></defs><use xlink:href="#f"/><use xlink:href="#A" transform="translate(63.6)"/></g><path d="M45.3 265.4h663.9" clip-path="url(#a)" style="fill:none;stroke:#b0b0b0;stroke-opacity:.3;stroke-width:.8;stroke-linecap:square"/><use xlink:href="#y" x="45.3" y="265.4" style="stroke:#000;stroke-width:.8"/><g transform="matrix(.1 0 0 -.1 25.6 269.2)"><use xlink:href="#h"/><use xlink:href="#g" transform="translate(63.6)"/></g><path d="M45.3 213.5h663.9" clip-path="url(#a)" style="fill:none;stroke:#b0b0b0;stroke-opacity:.3;stroke-width:.8;stroke-linecap:square"/><use xlink:href="#y" x="45.3" y="213.5" style="stroke:#000;stroke-width:.8"/><g transform="matrix(.1 0 0 -.1 25.6 217.3)"><use xlink:href="#h"/><use xlink:href="#f" transform="translate(63.6)"/></g><path d="M45.3 161.7h663.9" clip-path="url(#a)" style="fill:none;stroke:#b0b0b0;stroke-opacity:.3;stroke-width:.8;stroke-linecap:square"/><use xlink:href="#y" x="45.3" y="161.7" style="stroke:#000;stroke-width:.8"/><g transform="matrix(.1 0 0 -.1 25.6 165.5)"><defs><path id="B" d="M2419 4116 825 1625h1594zm-166 550h794V1625h666v-525h-666V0h-628v1100H313v609z" transform="scale(.01563)"/></defs><use xlink:href="#h"/><use xlink:href="#B" transform="translate(63.6)"/></g><path d="M45.3 109.8h663.9" clip-path="url(#a)" style="fill:none;stroke:#b0b0b0;stroke-opacity:.3;stroke-width:.8;stroke-linecap:square"/><use xlink:href="#y" x="45.3" y="109.8" style="stroke:#000;stroke-width:.8"/><g transform="matrix(.1 0 0 -.1 25.6 113.6)"><use xlink:href="#h"/><use xlink:href="#z" transform="translate(63.6)"/></g><path d="M45.3 58h663.9" clip-path="url(#a)" style="fill:none;stroke:#b0b0b0;stroke-opacity:.3;stroke-width:.8;stroke-linecap:square"/><use xlink:href="#y" x="45.3" y="58" style="stroke:#000;stroke-width:.8"/><g transform="matrix(.1 0 0 -.1 25.6 61.8)"><use xlink:href="#h"/><use xlink:href="#A" transform="translate(63.6)"/></g><g transform="matrix(0 -.11 -.11 0 19.3 271.2)"><defs><path id="C" d="M3425 4513v-616q-359 172-678 256-319 85-616 85-515 0-795-200t-280-569q0-310 186-468 186-157 705-254l381-78q706-135 1042-474t336-907q0-679-455-1029Q2797-91 1919-91q-331 0-705 75-373 75-773 222v650q384-215 753-325 369-109 725-109 540 0 834 212 294 213 294 607 0 343-211 537t-692 291l-385 75q-706 140-1022 440-315 300-315 835 0 619 436 975t1201 356q329 0 669-60 341-59 697-177" transform="scale(.01563)"/><path id="D" d="M628 4666h850L3547 763v3903h612V0h-850L1241 3903V0H628z" transform="scale(.01563)"/><path id="E" d="M2841 2188q203-69 395-294t386-619L4263 0h-679l-596 1197q-232 469-449 622t-592 153h-688V0H628v4666h1425q800 0 1194-335 394-334 394-1009 0-441-205-732-205-290-595-402M1259 4147V2491h794q456 0 689 211t233 620-233 617-689 208z" transform="scale(.01563)"/><path id="F" d="M3513 2113V0h-575v2094q0 497-194 743-194 247-581 247-466 0-735-297-269-296-269-809V0H581v4863h578V2956q207 316 486 472 280 156 646 156 603 0 912-373 310-373 310-1098" transform="scale(.01563)"/><path id="G" d="M2906 1791q0 625-258 968-257 344-723 344-462 0-720-344-258-343-258-968 0-622 258-966t720-344q466 0 723 344 258 344 258 966m575-1357q0-893-397-1329-396-436-1215-436-303 0-572 45t-522 139v559q253-137 500-202 247-66 503-66 566 0 847 295t281 892v285q-178-310-456-463T1784 0Q1141 0 747 490 353 981 353 1791q0 812 394 1302 394 491 1037 491 388 0 666-153t456-462v531h575z" transform="scale(.01563)"/></defs><use xlink:href="#p"/><use xlink:href="#C" transform="translate(60.3)"/><use xlink:href="#D" transform="translate(123.8)"/><use xlink:href="#E" transform="translate(198.6)"/><use xlink:href="#s" transform="translate(299.9)"/><use xlink:href="#F" transform="translate(338.9)"/><use xlink:href="#j" transform="translate(402.2)"/><use xlink:href="#G" transform="translate(430)"/><use xlink:href="#F" transform="translate(493.5)"/><use xlink:href="#n" transform="translate(556.9)"/><use xlink:href="#o" transform="translate(618.4)"/><use xlink:href="#j" transform="translate(691.3)"/><use xlink:href="#l" transform="translate(719)"/><use xlink:href="#w" transform="translate(803)"/><use xlink:href="#n" transform="translate(866.5)"/><use xlink:href="#k" transform="translate(928)"/><use xlink:href="#k" transform="translate(967.2)"/><use xlink:href="#n" transform="translate(1006.4)"/><use xlink:href="#o" transform="translate(1068)"/><use xlink:href="#x" transform="translate(1109)"/></g><path d="m607.6 107.3-100.2-6.7-66-5.5-43-4.2-57.6-5.7-71.2-6.6-49-6.4-74-14.7-63.8-14.1" clip-path="url(#a)" style="fill:none;stroke:#1f77b4;stroke-width:1.5;stroke-linecap:square"/><defs><path id="H" d="M0 3.5a3.5 3.5 0 1 0 0-7 3.5 3.5 0 0 0 0 7z" style="stroke:#1f77b4"/></defs><g clip-path="url(#a)"><use xlink:href="#H" x="607.6" y="107.3" style="fill:#1f77b4;stroke:#1f77b4"/><use xlink:href="#H" x="507.4" y="100.6" style="fill:#1f77b4;stroke:#1f77b4"/><use xlink:href="#H" x="441.4" y="95.1" style="fill:#1f77b4;stroke:#1f77b4"/><use xlink:href="#H" x="398.4" y="90.9" style="fill:#1f77b4;stroke:#1f77b4"/><use xlink:href="#H" x="340.8" y="85.2" style="fill:#1f77b4;stroke:#1f77b4"/><use xlink:href="#H" x="269.6" y="78.6" style="fill:#1f77b4;stroke:#1f77b4"/><use xlink:href="#H" x="220.5" y="72.2" style="fill:#1f77b4;stroke:#1f77b4"/><use xlink:href="#H" x="146.5" y="57.5" style="fill:#1f77b4;stroke:#1f77b4"/><use xlink:href="#H" x="82.8" y="43.4" style="fill:#1f77b4;stroke:#1f77b4"/></g><path d="m607.6 144.6-100.2-13.2-66-3.8-43-2.1-57.6-4.4-71.2-5-49-2.4-74-9.2-63.8-5.4" clip-path="url(#a)" style="fill:none;stroke-dasharray:5.55,2.4;stroke-dashoffset:0;stroke:#1f77b4;stroke-width:1.5"/><defs><path id="I" d="M0 3.5a3.5 3.5 0 1 0 0-7 3.5 3.5 0 0 0 0 7z" style="stroke:#1f77b4"/></defs><g clip-path="url(#a)"><use xlink:href="#I" x="607.6" y="144.6" style="fill-opacity:0;stroke:#1f77b4"/><use xlink:href="#I" x="507.4" y="131.4" style="fill-opacity:0;stroke:#1f77b4"/><use xlink:href="#I" x="441.4" y="127.6" style="fill-opacity:0;stroke:#1f77b4"/><use xlink:href="#I" x="398.4" y="125.5" style="fill-opacity:0;stroke:#1f77b4"/><use xlink:href="#I" x="340.8" y="121.1" style="fill-opacity:0;stroke:#1f77b4"/><use xlink:href="#I" x="269.6" y="116.1" style="fill-opacity:0;stroke:#1f77b4"/><use xlink:href="#I" x="220.5" y="113.7" style="fill-opacity:0;stroke:#1f77b4"/><use xlink:href="#I" x="146.5" y="104.5" style="fill-opacity:0;stroke:#1f77b4"/><use xlink:href="#I" x="82.8" y="99.1" style="fill-opacity:0;stroke:#1f77b4"/></g><path d="m679 253.2-103.7-12-57-11-45.9-7.8-46.6-13.1-61.4-17.6-43.8-16.2-62.3-34.6-51.5-38.3" clip-path="url(#a)" style="fill:none;stroke:#ff7f0e;stroke-width:1.5;stroke-linecap:square"/><defs><path id="J" d="M-3.5 3.5h7v-7h-7z" style="stroke:#ff7f0e;stroke-linejoin:miter"/></defs><g clip-path="url(#a)"><use xlink:href="#J" x="679" y="253.2" style="fill:#ff7f0e;stroke:#ff7f0e;stroke-linejoin:miter"/><use xlink:href="#J" x="575.3" y="241.1" style="fill:#ff7f0e;stroke:#ff7f0e;stroke-linejoin:miter"/><use xlink:href="#J" x="518.3" y="230.3" style="fill:#ff7f0e;stroke:#ff7f0e;stroke-linejoin:miter"/><use xlink:href="#J" x="472.4" y="222.4" style="fill:#ff7f0e;stroke:#ff7f0e;stroke-linejoin:miter"/><use xlink:href="#J" x="425.8" y="209.3" style="fill:#ff7f0e;stroke:#ff7f0e;stroke-linejoin:miter"/><use xlink:href="#J" x="364.4" y="191.7" style="fill:#ff7f0e;stroke:#ff7f0e;stroke-linejoin:miter"/><use xlink:href="#J" x="320.6" y="175.5" style="fill:#ff7f0e;stroke:#ff7f0e;stroke-linejoin:miter"/><use xlink:href="#J" x="258.3" y="140.9" style="fill:#ff7f0e;stroke:#ff7f0e;stroke-linejoin:miter"/><use xlink:href="#J" x="206.8" y="102.6" style="fill:#ff7f0e;stroke:#ff7f0e;stroke-linejoin:miter"/></g><path d="m679 354.2-103.7-18.4-57-13.2-45.9-7-46.6-9.7-61.4-15.2-43.8-12.9-62.3-26-51.5-25" clip-path="url(#a)" style="fill:none;stroke-dasharray:5.55,2.4;stroke-dashoffset:0;stroke:#ff7f0e;stroke-width:1.5"/><defs><path id="K" d="M-3.5 3.5h7v-7h-7z" style="stroke:#ff7f0e;stroke-linejoin:miter"/></defs><g clip-path="url(#a)"><use xlink:href="#K" x="679" y="354.2" style="fill-opacity:0;stroke:#ff7f0e;stroke-linejoin:miter"/><use xlink:href="#K" x="575.3" y="335.8" style="fill-opacity:0;stroke:#ff7f0e;stroke-linejoin:miter"/><use xlink:href="#K" x="518.3" y="322.6" style="fill-opacity:0;stroke:#ff7f0e;stroke-linejoin:miter"/><use xlink:href="#K" x="472.4" y="315.6" style="fill-opacity:0;stroke:#ff7f0e;stroke-linejoin:miter"/><use xlink:href="#K" x="425.8" y="305.9" style="fill-opacity:0;stroke:#ff7f0e;stroke-linejoin:miter"/><use xlink:href="#K" x="364.4" y="290.7" style="fill-opacity:0;stroke:#ff7f0e;stroke-linejoin:miter"/><use xlink:href="#K" x="320.6" y="277.8" style="fill-opacity:0;stroke:#ff7f0e;stroke-linejoin:miter"/><use xlink:href="#K" x="258.3" y="251.8" style="fill-opacity:0;stroke:#ff7f0e;stroke-linejoin:miter"/><use xlink:href="#K" x="206.8" y="226.8" style="fill-opacity:0;stroke:#ff7f0e;stroke-linejoin:miter"/></g><path d="m459.6 259.4-62.7-15.8-49.6-13.2-35.5-8-39.7-14-57.3-18.6-40-14.9-56.1-30-43.2-34" clip-path="url(#a)" style="fill:none;stroke:#2ca02c;stroke-width:1.5;stroke-linecap:square"/><defs><path id="L" d="m0-3.5-3.5 7h7z" style="stroke:#2ca02c;stroke-linejoin:miter"/></defs><g clip-path="url(#a)"><use xlink:href="#L" x="459.6" y="259.4" style="fill:#2ca02c;stroke:#2ca02c;stroke-linejoin:miter"/><use xlink:href="#L" x="396.9" y="243.6" style="fill:#2ca02c;stroke:#2ca02c;stroke-linejoin:miter"/><use xlink:href="#L" x="347.3" y="230.4" style="fill:#2ca02c;stroke:#2ca02c;stroke-linejoin:miter"/><use xlink:href="#L" x="311.8" y="222.4" style="fill:#2ca02c;stroke:#2ca02c;stroke-linejoin:miter"/><use xlink:href="#L" x="272.1" y="208.4" style="fill:#2ca02c;stroke:#2ca02c;stroke-linejoin:miter"/><use xlink:href="#L" x="214.8" y="189.8" style="fill:#2ca02c;stroke:#2ca02c;stroke-linejoin:miter"/><use xlink:href="#L" x="174.9" y="174.9" style="fill:#2ca02c;stroke:#2ca02c;stroke-linejoin:miter"/><use xlink:href="#L" x="118.7" y="144.9" style="fill:#2ca02c;stroke:#2ca02c;stroke-linejoin:miter"/><use xlink:href="#L" x="75.5" y="110.9" style="fill:#2ca02c;stroke:#2ca02c;stroke-linejoin:miter"/></g><path d="m459.6 372.8-62.7-22.4-49.6-13.7-35.5-10.2-39.7-22.3-57.3-25-40-13.2-56.1-21.3L75.5 225" clip-path="url(#a)" style="fill:none;stroke-dasharray:5.55,2.4;stroke-dashoffset:0;stroke:#2ca02c;stroke-width:1.5"/><defs><path id="M" d="m0-3.5-3.5 7h7z" style="stroke:#2ca02c;stroke-linejoin:miter"/></defs><g clip-path="url(#a)"><use xlink:href="#M" x="459.6" y="372.8" style="fill-opacity:0;stroke:#2ca02c;stroke-linejoin:miter"/><use xlink:href="#M" x="396.9" y="350.4" style="fill-opacity:0;stroke:#2ca02c;stroke-linejoin:miter"/><use xlink:href="#M" x="347.3" y="336.7" style="fill-opacity:0;stroke:#2ca02c;stroke-linejoin:miter"/><use xlink:href="#M" x="311.8" y="326.5" style="fill-opacity:0;stroke:#2ca02c;stroke-linejoin:miter"/><use xlink:href="#M" x="272.1" y="304.2" style="fill-opacity:0;stroke:#2ca02c;stroke-linejoin:miter"/><use xlink:href="#M" x="214.8" y="279.1" style="fill-opacity:0;stroke:#2ca02c;stroke-linejoin:miter"/><use xlink:href="#M" x="174.9" y="266" style="fill-opacity:0;stroke:#2ca02c;stroke-linejoin:miter"/><use xlink:href="#M" x="118.7" y="244.7" style="fill-opacity:0;stroke:#2ca02c;stroke-linejoin:miter"/><use xlink:href="#M" x="75.5" y="225" style="fill-opacity:0;stroke:#2ca02c;stroke-linejoin:miter"/></g><path d="m599.8 200.2-78-13.3-42.5-10.4-43.8-9-43.5-11.8-57.1-16-44.2-13.1-74.8-24.5-61-26" clip-path="url(#a)" style="fill:none;stroke:#d62728;stroke-width:1.5;stroke-linecap:square"/><defs><path id="N" d="m0 5 5-5-5-5-5 5z" style="stroke:#d62728;stroke-linejoin:miter"/></defs><g clip-path="url(#a)"><use xlink:href="#N" x="599.8" y="200.2" style="fill:#d62728;stroke:#d62728;stroke-linejoin:miter"/><use xlink:href="#N" x="521.8" y="186.9" style="fill:#d62728;stroke:#d62728;stroke-linejoin:miter"/><use xlink:href="#N" x="479.3" y="176.5" style="fill:#d62728;stroke:#d62728;stroke-linejoin:miter"/><use xlink:href="#N" x="435.5" y="167.6" style="fill:#d62728;stroke:#d62728;stroke-linejoin:miter"/><use xlink:href="#N" x="392" y="155.7" style="fill:#d62728;stroke:#d62728;stroke-linejoin:miter"/><use xlink:href="#N" x="334.9" y="139.7" style="fill:#d62728;stroke:#d62728;stroke-linejoin:miter"/><use xlink:href="#N" x="290.7" y="126.6" style="fill:#d62728;stroke:#d62728;stroke-linejoin:miter"/><use xlink:href="#N" x="215.9" y="102.1" style="fill:#d62728;stroke:#d62728;stroke-linejoin:miter"/><use xlink:href="#N" x="154.9" y="76.1" style="fill:#d62728;stroke:#d62728;stroke-linejoin:miter"/></g><path d="m599.8 319.8-78-21-42.5-11.4-43.8-9.8-43.5-11.1-57.1-16.7-44.2-12-74.8-26.3-61-26.4" clip-path="url(#a)" style="fill:none;stroke-dasharray:5.55,2.4;stroke-dashoffset:0;stroke:#d62728;stroke-width:1.5"/><defs><path id="O" d="m0 5 5-5-5-5-5 5z" style="stroke:#d62728;stroke-linejoin:miter"/></defs><g clip-path="url(#a)"><use xlink:href="#O" x="599.8" y="319.8" style="fill-opacity:0;stroke:#d62728;stroke-linejoin:miter"/><use xlink:href="#O" x="521.8" y="298.8" style="fill-opacity:0;stroke:#d62728;stroke-linejoin:miter"/><use xlink:href="#O" x="479.3" y="287.4" style="fill-opacity:0;stroke:#d62728;stroke-linejoin:miter"/><use xlink:href="#O" x="435.5" y="277.6" style="fill-opacity:0;stroke:#d62728;stroke-linejoin:miter"/><use xlink:href="#O" x="392" y="266.5" style="fill-opacity:0;stroke:#d62728;stroke-linejoin:miter"/><use xlink:href="#O" x="334.9" y="249.8" style="fill-opacity:0;stroke:#d62728;stroke-linejoin:miter"/><use xlink:href="#O" x="290.7" y="237.7" style="fill-opacity:0;stroke:#d62728;stroke-linejoin:miter"/><use xlink:href="#O" x="215.9" y="211.5" style="fill-opacity:0;stroke:#d62728;stroke-linejoin:miter"/><use xlink:href="#O" x="154.9" y="185.1" style="fill-opacity:0;stroke:#d62728;stroke-linejoin:miter"/></g><path d="M45.3 389.3V27m663.9 362.3V27M45.3 389.3h663.9M45.3 26.9h663.9" style="fill:none;stroke:#000;stroke-width:.8;stroke-linejoin:miter;stroke-linecap:square"/><g transform="matrix(.12 0 0 -.12 311.8 20.9)"><defs><path id="P" d="M191 3500h609L1894 563l1094 2937h609L2284 0h-781z" transform="scale(.01563)"/></defs><use xlink:href="#p"/><use xlink:href="#C" transform="translate(60.3)"/><use xlink:href="#D" transform="translate(123.8)"/><use xlink:href="#E" transform="translate(198.6)"/><use xlink:href="#P" transform="translate(299.9)"/><use xlink:href="#l" transform="translate(359)"/><use xlink:href="#i" transform="translate(443)"/><use xlink:href="#j" transform="translate(511.5)"/><use xlink:href="#k" transform="translate(539.3)"/><use xlink:href="#l" transform="translate(578.5)"/><use xlink:href="#m" transform="translate(662.4)"/><use xlink:href="#n" transform="translate(725.9)"/><use xlink:href="#o" transform="translate(787.4)"/><use xlink:href="#p" transform="translate(860.3)"/><use xlink:href="#j" transform="translate(918.4)"/><use xlink:href="#q" transform="translate(946.1)"/><use xlink:href="#n" transform="translate(1002.2)"/><use xlink:href="#r" transform="translate(1063.7)"/></g><path d="M508.6 80.3h195q1.6 0 1.6-1.6V32.5q0-1.6-1.6-1.6h-195q-1.6 0-1.6 1.6v46.2q0 1.5 1.6 1.5z" style="fill:#fff;opacity:.8;stroke:#ccc;stroke-linejoin:miter"/><path d="M510.2 37.4h16" style="fill:none;stroke:#1f77b4;stroke-width:1.5;stroke-linecap:square"/><use xlink:href="#H" x="518.2" y="37.4" style="fill:#1f77b4;stroke:#1f77b4"/><g transform="matrix(.08 0 0 -.08 532.6 40.2)"><defs><path id="Q" d="M2194 1759q-697 0-966-159t-269-544q0-306 202-486 202-179 548-179 479 0 768 339t289 901v128zm1147 238V0h-575v531q-197-318-491-470T1556-91q-537 0-855 302-317 302-317 808 0 590 395 890 396 300 1180 300h807v57q0 397-261 614t-733 217q-300 0-585-72-284-72-546-216v532q315 122 612 182 297 61 578 61 760 0 1135-394 375-393 375-1193" transform="scale(.01563)"/><path id="R" d="M2375 4863v-479h-550q-309 0-430-125-120-125-120-450v-309h947v-447h-947V0H697v3053H147v447h550v244q0 584 272 851 272 268 862 268z" transform="scale(.01563)"/><path id="S" d="M3328 2828q216 388 516 572t706 184q547 0 844-383 297-382 297-1088V0h-578v2094q0 503-179 746-178 244-543 244-447 0-707-297-259-296-259-809V0h-578v2094q0 506-178 748t-550 242q-441 0-701-298-259-298-259-808V0H581v3500h578v-544q197 322 472 475t653 153q382 0 649-194 267-193 395-562" transform="scale(.01563)"/><path id="T" d="M3513 2113V0h-575v2094q0 497-194 743-194 247-581 247-466 0-735-297-269-296-269-809V0H581v3500h578v-544q207 316 486 472 280 156 646 156 603 0 912-373 310-373 310-1098" transform="scale(.01563)"/></defs><use xlink:href="#Q"/><use xlink:href="#P" transform="translate(61.3)"/><use xlink:href="#j" transform="translate(120.5)"/><use xlink:href="#R" transform="translate(148.2)"/><use xlink:href="#s" transform="translate(215.2)"/><use xlink:href="#S" transform="translate(254.2)"/><use xlink:href="#n" transform="translate(351.7)"/><use xlink:href="#Q" transform="translate(413.2)"/><use xlink:href="#T" transform="translate(474.5)"/><use xlink:href="#x" transform="translate(537.8)"/></g><path d="M510.2 49.1h16" style="fill:none;stroke-dasharray:5.55,2.4;stroke-dashoffset:0;stroke:#1f77b4;stroke-width:1.5"/><use xlink:href="#I" x="518.2" y="49.1" style="fill-opacity:0;stroke:#1f77b4"/><g transform="matrix(.08 0 0 -.08 532.6 51.9)"><defs><path id="U" d="M4653 2053q-272 0-427-231-154-231-154-644 0-406 154-639 155-233 427-233 266 0 420 233 155 233 155 639 0 410-155 642-154 233-420 233m0 397q494 0 784-344 291-343 291-928 0-584-292-927-292-342-783-342-500 0-791 342-290 343-290 927 0 588 292 930t789 342M1428 4353q-269 0-424-233-154-232-154-639 0-412 153-644 153-231 425-231t426 231q155 232 155 644 0 403-156 637-156 235-425 235m2822 397h500L1831-91h-500zm-2822 0q494 0 787-342 294-342 294-927 0-590-292-931t-789-341-786 342q-289 343-289 930 0 582 290 925 291 344 785 344" transform="scale(.01563)"/></defs><use xlink:href="#Q"/><use xlink:href="#P" transform="translate(61.3)"/><use xlink:href="#j" transform="translate(120.5)"/><use xlink:href="#R" transform="translate(148.2)"/><use xlink:href="#s" transform="translate(215.2)"/><use xlink:href="#e" transform="translate(254.2)"/><use xlink:href="#U" transform="translate(317.9)"/><use xlink:href="#v" transform="translate(444.7)"/><use xlink:href="#u" transform="translate(526.5)"/><use xlink:href="#o" transform="translate(587.6)"/><use xlink:href="#l" transform="translate(628.8)"/><use xlink:href="#k" transform="translate(680.9)"/><use xlink:href="#x" transform="translate(720)"/></g><path d="M510.2 60.8h16" style="fill:none;stroke:#ff7f0e;stroke-width:1.5;stroke-linecap:square"/><use xlink:href="#J" x="518.2" y="60.8" style="fill:#ff7f0e;stroke:#ff7f0e;stroke-linejoin:miter"/><g transform="matrix(.08 0 0 -.08 532.6 63.6)"><defs><path id="V" d="M603 3500h575V-63q0-668-255-968-254-300-820-300h-219v487H38q328 0 446 152Q603-541 603-63zm0 1363h575v-729H603z" transform="scale(.01563)"/></defs><use xlink:href="#V"/><use xlink:href="#m" transform="translate(27.8)"/><use xlink:href="#n" transform="translate(91.3)"/><use xlink:href="#G" transform="translate(152.8)"/><use xlink:href="#s" transform="translate(248)"/><use xlink:href="#S" transform="translate(287)"/><use xlink:href="#n" transform="translate(384.5)"/><use xlink:href="#Q" transform="translate(446)"/><use xlink:href="#T" transform="translate(507.3)"/><use xlink:href="#x" transform="translate(570.7)"/></g><path d="M510.2 72.6h16" style="fill:none;stroke-dasharray:5.55,2.4;stroke-dashoffset:0;stroke:#ff7f0e;stroke-width:1.5"/><use xlink:href="#K" x="518.2" y="72.6" style="fill-opacity:0;stroke:#ff7f0e;stroke-linejoin:miter"/><g transform="matrix(.08 0 0 -.08 532.6 75.4)"><use xlink:href="#V"/><use xlink:href="#m" transform="translate(27.8)"/><use xlink:href="#n" transform="translate(91.3)"/><use xlink:href="#G" transform="translate(152.8)"/><use xlink:href="#s" transform="translate(248)"/><use xlink:href="#e" transform="translate(287)"/><use xlink:href="#U" transform="translate(350.7)"/><use xlink:href="#v" transform="translate(477.5)"/><use xlink:href="#u" transform="translate(559.3)"/><use xlink:href="#o" transform="translate(620.5)"/><use xlink:href="#l" transform="translate(661.6)"/><use xlink:href="#k" transform="translate(713.7)"/><use xlink:href="#x" transform="translate(752.9)"/></g><path d="M612 37.4h16" style="fill:none;stroke:#2ca02c;stroke-width:1.5;stroke-linecap:square"/><use xlink:href="#L" x="619.9" y="37.4" style="fill:#2ca02c;stroke:#2ca02c;stroke-linejoin:miter"/><g transform="matrix(.08 0 0 -.08 634.3 40.2)"><use xlink:href="#V"/><use xlink:href="#q" transform="translate(27.8)"/><use xlink:href="#r" transform="translate(87)"/><use xlink:href="#s" transform="translate(146.5)"/><use xlink:href="#S" transform="translate(185.5)"/><use xlink:href="#n" transform="translate(283)"/><use xlink:href="#Q" transform="translate(344.5)"/><use xlink:href="#T" transform="translate(405.8)"/><use xlink:href="#x" transform="translate(469.1)"/></g><path d="M612 49.1h16" style="fill:none;stroke-dasharray:5.55,2.4;stroke-dashoffset:0;stroke:#2ca02c;stroke-width:1.5"/><use xlink:href="#M" x="619.9" y="49.1" style="fill-opacity:0;stroke:#2ca02c;stroke-linejoin:miter"/><g transform="matrix(.08 0 0 -.08 634.3 51.9)"><use xlink:href="#V"/><use xlink:href="#q" transform="translate(27.8)"/><use xlink:href="#r" transform="translate(87)"/><use xlink:href="#s" transform="translate(146.5)"/><use xlink:href="#e" transform="translate(185.5)"/><use xlink:href="#U" transform="translate(249.2)"/><use xlink:href="#v" transform="translate(376)"/><use xlink:href="#u" transform="translate(457.8)"/><use xlink:href="#o" transform="translate(519)"/><use xlink:href="#l" transform="translate(560)"/><use xlink:href="#k" transform="translate(612.2)"/><use xlink:href="#x" transform="translate(651.4)"/></g><path d="M612 60.8h16" style="fill:none;stroke:#d62728;stroke-width:1.5;stroke-linecap:square"/><use xlink:href="#N" x="619.9" y="60.8" style="fill:#d62728;stroke:#d62728;stroke-linejoin:miter"/><g transform="matrix(.08 0 0 -.08 634.3 63.6)"><use xlink:href="#v"/><use xlink:href="#n" transform="translate(81.8)"/><use xlink:href="#w" transform="translate(143.3)"/><use xlink:href="#m" transform="translate(206.8)"/><use xlink:href="#s" transform="translate(302)"/><use xlink:href="#S" transform="translate(341)"/><use xlink:href="#n" transform="translate(438.5)"/><use xlink:href="#Q" transform="translate(500)"/><use xlink:href="#T" transform="translate(561.3)"/><use xlink:href="#x" transform="translate(624.7)"/></g><path d="M612 72.6h16" style="fill:none;stroke-dasharray:5.55,2.4;stroke-dashoffset:0;stroke:#d62728;stroke-width:1.5"/><use xlink:href="#O" x="619.9" y="72.6" style="fill-opacity:0;stroke:#d62728;stroke-linejoin:miter"/><g transform="matrix(.08 0 0 -.08 634.3 75.4)"><use xlink:href="#v"/><use xlink:href="#n" transform="translate(81.8)"/><use xlink:href="#w" transform="translate(143.3)"/><use xlink:href="#m" transform="translate(206.8)"/><use xlink:href="#s" transform="translate(302)"/><use xlink:href="#e" transform="translate(341)"/><use xlink:href="#U" transform="translate(404.7)"/><use xlink:href="#v" transform="translate(531.5)"/><use xlink:href="#u" transform="translate(613.3)"/><use xlink:href="#o" transform="translate(674.5)"/><use xlink:href="#l" transform="translate(715.6)"/><use xlink:href="#k" transform="translate(767.7)"/><use xlink:href="#x" transform="translate(806.9)"/></g><defs><clipPath id="a"><path d="M45.3 26.9h663.9v362.4H45.3z"/></clipPath></defs></svg>