<svg xmlns="http://www.w3.org/2000/svg" xmlns:xlink="http://www.w3.org/1999/xlink" width="960" height="576" viewBox="0 0 720 432"><path d="M0 432h720V0H0z" style="fill:#fff"/><path d="M39 389.3h670.2V27H39z" style="fill:#fff"/><path d="M110.5 389.3V27" clip-path="url(#a)" style="fill:none;stroke:#b0b0b0;stroke-opacity:.3;stroke-width:.8;stroke-linecap:square"/><defs><path id="b" d="M0 0v3.5" style="stroke:#000;stroke-width:.8"/></defs><use xlink:href="#b" x="110.5" y="389.3" style="stroke:#000;stroke-width:.8"/><g transform="matrix(.1 0 0 -.1 101 404)"><defs><path id="c" d="M1228 531h2203V0H469v531q359 372 979 998 621 627 780 809 303 340 423 576 121 236 121 464 0 372-261 606-261 235-680 235-297 0-627-103-329-103-704-313v638q381 153 712 231 332 78 607 78 725 0 1156-363 431-362 431-968 0-288-108-546-107-257-392-607-78-91-497-524-418-433-1181-1211" transform="scale(.01563)"/><path id="d" d="M691 4666h2478v-532H1269V2991q137 47 274 70 138 23 276 23 781 0 1237-428 457-428 457-1159 0-753-469-1171Q2575-91 1722-91q-294 0-599 50Q819 9 494 109v635q281-153 581-228t634-75q541 0 856 284 316 284 316 772 0 487-316 771-315 285-856 285-253 0-505-56-251-56-513-175z" transform="scale(.01563)"/><path id="e" d="M2034 4250q-487 0-733-480-245-479-245-1442 0-959 245-1439 246-480 733-480 491 0 736 480 246 480 246 1439 0 963-246 1442-245 480-736 480m0 500q785 0 1199-621 414-620 414-1801 0-1178-414-1799Q2819-91 2034-91q-784 0-1198 620-414 621-414 1799 0 1181 414 1801 414 621 1198 621" transform="scale(.01563)"/></defs><use xlink:href="#c"/><use xlink:href="#d" transform="translate(63.6)"/><use xlink:href="#e" transform="translate(127.2)"/></g><path d="M189.5 389.3V27" clip-path="url(#a)" style="fill:none;stroke:#b0b0b0;stroke-opacity:.3;stroke-width:.8;stroke-linecap:square"/><use xlink:href="#b" x="189.5" y="389.3" style="stroke:#000;stroke-width:.8"/><g transform="matrix(.1 0 0 -.1 180 404)"><use xlink:href="#d"/><use xlink:href="#e" transform="translate(63.6)"/><use xlink:href="#e" transform="translate(127.2)"/></g><path d="M268.5 389.3V27" clip-path="url(#a)" style="fill:none;stroke:#b0b0b0;stroke-opacity:.3;stroke-width:.8;stroke-linecap:square"/><use xlink:href="#b" x="268.5" y="389.3" style="stroke:#000;stroke-width:.8"/><g transform="matrix(.1 0 0 -.1 259 404)"><defs><path id="f" d="M525 4666h3000v-269L1831 0h-659l1594 4134H525z" transform="scale(.01563)"/></defs><use xlink:href="#f"/><use xlink:href="#d" transform="translate(63.6)"/><use xlink:href="#e" transform="translate(127.2)"/></g><path d="M347.5 389.3V27" clip-path="url(#a)" style="fill:none;stroke:#b0b0b0;stroke-opacity:.3;stroke-width:.8;stroke-linecap:square"/><use xlink:href="#b" x="347.5" y="389.3" style="stroke:#000;stroke-width:.8"/><g transform="matrix(.1 0 0 -.1 334.8 404)"><defs><path id="g" d="M794 531h1031v3560L703 3866v575l1116 225h631V531h1031V0H794z" transform="scale(.01563)"/></defs><use xlink:href="#g"/><use xlink:href="#e" transform="translate(63.6)"/><use xlink:href="#e" transform="translate(127.2)"/><use xlink:href="#e" transform="translate(190.9)"/></g><path d="M426.6 389.3V27" clip-path="url(#a)" style="fill:none;stroke:#b0b0b0;stroke-opacity:.3;stroke-width:.8;stroke-linecap:square"/><use xlink:href="#b" x="426.6" y="389.3" style="stroke:#000;stroke-width:.8"/><g transform="matrix(.1 0 0 -.1 413.8 404)"><use xlink:href="#g"/><use xlink:href="#c" transform="translate(63.6)"/><use xlink:href="#d" transform="translate(127.2)"/><use xlink:href="#e" transform="translate(190.9)"/></g><path d="M505.6 389.3V27" clip-path="url(#a)" style="fill:none;stroke:#b0b0b0;stroke-opacity:.3;stroke-width:.8;stroke-linecap:square"/><use xlink:href="#b" x="505.6" y="389.3" style="stroke:#000;stroke-width:.8"/><g transform="matrix(.1 0 0 -.1 492.8 404)"><use xlink:href="#g"/><use xlink:href="#d" transform="translate(63.6)"/><use xlink:href="#e" transform="translate(127.2)"/><use xlink:href="#e" transform="translate(190.9)"/></g><path d="M584.6 389.3V27" clip-path="url(#a)" style="fill:none;stroke:#b0b0b0;stroke-opacity:.3;stroke-width:.8;stroke-linecap:square"/><use xlink:href="#b" x="584.6" y="389.3" style="stroke:#000;stroke-width:.8"/><g transform="matrix(.1 0 0 -.1 571.8 404)"><use xlink:href="#g"/><use xlink:href="#f" transform="translate(63.6)"/><use xlink:href="#d" transform="translate(127.2)"/><use xlink:href="#e" transform="translate(190.9)"/></g><path d="M663.6 389.3V27" clip-path="url(#a)" style="fill:none;stroke:#b0b0b0;stroke-opacity:.3;stroke-width:.8;stroke-linecap:square"/><use xlink:href="#b" x="663.6" y="389.3" style="stroke:#000;stroke-width:.8"/><g transform="matrix(.1 0 0 -.1 650.8 404)"><use xlink:href="#c"/><use xlink:href="#e" transform="translate(63.6)"/><use xlink:href="#e" transform="translate(127.2)"/><use xlink:href="#e" transform="translate(190.9)"/></g><g transform="matrix(.11 0 0 -.11 345.4 418.4)"><defs><path id="h" d="M2841 2188q203-69 395-294t386-619L4263 0h-679l-596 1197q-232 469-449 622t-592 153h-688V0H628v4666h1425q800 0 1194-335 394-334 394-1009 0-441-205-732-205-290-595-402M1259 4147V2491h794q456 0 689 211t233 620-233 617-689 208z" transform="scale(.01563)"/><path id="i" d="M3597 1894v-281H953q38-594 358-905t892-311q331 0 642 81t618 244V178Q3153 47 2828-22t-659-69q-838 0-1327 487-489 488-489 1320 0 859 464 1363 464 505 1252 505 706 0 1117-455 411-454 411-1235m-575 169q-6 471-264 752-258 282-683 282-481 0-770-272t-333-766z" transform="scale(.01563)"/><path id="j" d="M2834 3397v-544q-243 125-506 187-262 63-544 63-428 0-642-131t-214-394q0-200 153-314t616-217l197-44q612-131 870-370t258-667q0-488-386-773Q2250-91 1575-91q-281 0-586 55T347 128v594q319-166 628-249 309-82 613-82 406 0 624 139 219 139 219 392 0 234-158 359-157 125-692 241l-200 47q-534 112-772 345-237 233-237 639 0 494 350 762 350 269 994 269 318 0 599-47 282-46 519-140" transform="scale(.01563)"/><path id="k" d="M1959 3097q-462 0-731-361t-269-989 267-989q268-361 733-361 460 0 728 362 269 363 269 988 0 622-269 986-268 364-728 364m0 487q750 0 1178-488 429-487 429-1349 0-859-429-1349Q2709-91 1959-91q-753 0-1180 489-426 490-426 1349 0 862 426 1349 427 488 1180 488" transform="scale(.01563)"/><path id="l" d="M603 4863h575V0H603z" transform="scale(.01563)"/><path id="m" d="M544 1381v2119h575V1403q0-497 193-746 194-248 582-248 465 0 735 297 271 297 271 810v1984h575V0h-575v538q-209-319-486-474-276-155-642-155-603 0-916 375-312 375-312 1097m1447 2203" transform="scale(.01563)"/><path id="n" d="M1172 4494v-994h1184v-447H1172V1153q0-428 117-550t477-122h590V0h-590q-666 0-919 248-253 249-253 905v1900H172v447h422v994z" transform="scale(.01563)"/><path id="o" d="M603 3500h575V0H603zm0 1363h575v-729H603z" transform="scale(.01563)"/><path id="p" d="M3513 2113V0h-575v2094q0 497-194 743-194 247-581 247-466 0-735-297-269-296-269-809V0H581v3500h578v-544q207 316 486 472 280 156 646 156 603 0 912-373 310-373 310-1098" transform="scale(.01563)"/></defs><use xlink:href="#h"/><use xlink:href="#i" transform="translate(65)"/><use xlink:href="#j" transform="translate(126.5)"/><use xlink:href="#k" transform="translate(178.6)"/><use xlink:href="#l" transform="translate(239.8)"/><use xlink:href="#m" transform="translate(267.6)"/><use xlink:href="#n" transform="translate(331)"/><use xlink:href="#o" transform="translate(370.2)"/><use xlink:href="#k" transform="translate(398)"/><use xlink:href="#p" transform="translate(459.1)"/></g><path d="M39 340.4h670.2" clip-path="url(#a)" style="fill:none;stroke:#b0b0b0;stroke-opacity:.3;stroke-width:.8;stroke-linecap:square"/><defs><path id="q" d="M0 0h-3.5" style="stroke:#000;stroke-width:.8"/></defs><use xlink:href="#q" x="39" y="340.4" style="stroke:#000;stroke-width:.8"/><use xlink:href="#g" transform="matrix(.1 0 0 -.1 25.6 344.2)"/><path d="M39 269h670.2" clip-path="url(#a)" style="fill:none;stroke:#b0b0b0;stroke-opacity:.3;stroke-width:.8;stroke-linecap:square"/><use xlink:href="#q" x="39" y="269" style="stroke:#000;stroke-width:.8"/><use xlink:href="#c" transform="matrix(.1 0 0 -.1 25.6 272.8)"/><path d="M39 197.5h670.2" clip-path="url(#a)" style="fill:none;stroke:#b0b0b0;stroke-opacity:.3;stroke-width:.8;stroke-linecap:square"/><use xlink:href="#q" x="39" y="197.5" style="stroke:#000;stroke-width:.8"/><g transform="matrix(.1 0 0 -.1 25.6 201.3)"><defs><path id="r" d="M2597 2516q453-97 707-404 255-306 255-756 0-690-475-1069Q2609-91 1734-91q-293 0-604 58T488 141v609q262-153 574-231 313-78 654-78 593 0 904 234t311 681q0 413-289 645-289 233-804 233h-544v519h569q465 0 712 186t247 536q0 359-255 551-254 193-729 193-260 0-557-57-297-56-653-174v562q360 100 674 150t592 50q719 0 1137-327 419-326 419-882 0-388-222-655t-631-370" transform="scale(.01563)"/></defs><use xlink:href="#r"/></g><path d="M39 126h670.2" clip-path="url(#a)" style="fill:none;stroke:#b0b0b0;stroke-opacity:.3;stroke-width:.8;stroke-linecap:square"/><use xlink:href="#q" x="39" y="126" style="stroke:#000;stroke-width:.8"/><g transform="matrix(.1 0 0 -.1 25.6 129.8)"><defs><path id="s" d="M2419 4116 825 1625h1594zm-166 550h794V1625h666v-525h-666V0h-628v1100H313v609z" transform="scale(.01563)"/></defs><use xlink:href="#s"/></g><path d="M39 54.5h670.2" clip-path="url(#a)" style="fill:none;stroke:#b0b0b0;stroke-opacity:.3;stroke-width:.8;stroke-linecap:square"/><use xlink:href="#q" x="39" y="54.5" style="stroke:#000;stroke-width:.8"/><use xlink:href="#d" transform="matrix(.1 0 0 -.1 25.6 58.3)"/><g transform="matrix(0 -.11 -.11 0 19.3 303.5)"><defs><path id="t" d="M1259 2228V519h1013q509 0 754 211 246 211 246 645 0 438-246 645-245 208-754 208zm0 1919V2741h935q462 0 688 173 227 174 227 530 0 353-227 528-226 175-688 175zm-631 519h1613q722 0 1112-300 391-300 391-853 0-429-200-682t-588-315q466-100 724-418 258-317 258-792 0-625-425-966Q3088 0 2303 0H628z" transform="scale(.01563)"/><path id="u" d="M1159 525v-1856H581v4831h578v-531q182 312 458 463 277 152 661 152 638 0 1036-506 399-506 399-1331T3314 415Q2916-91 2278-91q-384 0-661 152-276 152-458 464m1957 1222q0 634-261 995t-717 361q-457 0-718-361t-261-995 261-995 718-361q456 0 717 361t261 995" transform="scale(.01563)"/><path id="v" d="M2631 2963q-97 56-211 82-114 27-251 27-488 0-749-317t-261-911V0H581v3500h578v-544q182 319 472 473 291 155 707 155 59 0 131-8 72-7 159-23z" transform="scale(.01563)"/><path id="w" d="M1259 4147V2394h794q441 0 681 228 241 228 241 650 0 419-241 647-240 228-681 228zm-631 519h1425q785 0 1186-355 402-355 402-1039 0-691-402-1044-401-353-1186-353h-794V0H628z" transform="scale(.01563)"/><path id="x" d="M3513 3500 2247 1797 3578 0h-678L1881 1375 863 0H184l1360 1831L300 3500h678l928-1247 928 1247z" transform="scale(.01563)"/><path id="y" d="M1984 4856q-418-718-622-1422-203-703-203-1425 0-721 205-1429t620-1424h-500Q1016-109 783 600T550 2009q0 697 231 1403 232 707 703 1444z" transform="scale(.01563)"/><path id="z" d="M750 794h659V256L897-744H494L750 256z" transform="scale(.01563)"/><path id="A" d="M269 3500h575l719-2731 715 2731h678l719-2731 716 2731h575L4050 0h-678l-753 2869L1863 0h-679z" transform="scale(.01563)"/><path id="B" d="M3116 1747q0 634-261 995t-717 361q-457 0-718-361t-261-995 261-995 718-361q456 0 717 361t261 995M1159 2969q182 312 458 463 277 152 661 152 638 0 1036-506 399-506 399-1331T3314 415Q2916-91 2278-91q-384 0-661 152-276 152-458 464V0H581v4863h578z" transform="scale(.01563)"/><path id="C" d="M513 4856h500q468-737 701-1444 233-706 233-1403 0-700-233-1409T1013-844H513q415 716 620 1424t205 1429q0 722-205 1425-205 704-620 1422" transform="scale(.01563)"/></defs><use xlink:href="#t"/><use xlink:href="#o" transform="translate(68.6)"/><use xlink:href="#n" transform="translate(96.4)"/><use xlink:href="#j" transform="translate(135.6)"/><use xlink:href="#u" transform="translate(219.5)"/><use xlink:href="#i" transform="translate(283)"/><use xlink:href="#v" transform="translate(344.5)"/><use xlink:href="#w" transform="translate(417.4)"/><use xlink:href="#o" transform="translate(475.4)"/><use xlink:href="#x" transform="translate(503.2)"/><use xlink:href="#i" transform="translate(559.3)"/><use xlink:href="#l" transform="translate(620.8)"/><use xlink:href="#y" transform="translate(680.4)"/><use xlink:href="#t" transform="translate(719.4)"/><use xlink:href="#w" transform="translate(788)"/><use xlink:href="#w" transform="translate(848.3)"/><use xlink:href="#z" transform="translate(908.6)"/><use xlink:href="#l" transform="translate(972.2)"/><use xlink:href="#k" transform="translate(1000)"/><use xlink:href="#A" transform="translate(1061.1)"/><use xlink:href="#i" transform="translate(1143)"/><use xlink:href="#v" transform="translate(1204.4)"/><use xlink:href="#o" transform="translate(1277.3)"/><use xlink:href="#j" transform="translate(1305.1)"/><use xlink:href="#B" transform="translate(1389)"/><use xlink:href="#i" transform="translate(1452.5)"/><use xlink:href="#n" transform="translate(1514)"/><use xlink:href="#n" transform="translate(1553.2)"/><use xlink:href="#i" transform="translate(1592.4)"/><use xlink:href="#v" transform="translate(1654)"/><use xlink:href="#C" transform="translate(1695)"/></g><path d="M69.5 165 82 195.3l12.6 19.9 12.7 13 25.3 17.4 50.5 21.5 75.9 14.8 177 22.4 242.6 19.2" clip-path="url(#a)" style="fill:none;stroke:#1f77b4;stroke-width:1.5;stroke-linecap:square"/><defs><path id="D" d="M0 3.5a3.5 3.5 0 1 0 0-7 3.5 3.5 0 0 0 0 7z" style="stroke:#1f77b4"/></defs><g clip-path="url(#a)"><use xlink:href="#D" x="69.5" y="165" style="fill:#1f77b4;stroke:#1f77b4"/><use xlink:href="#D" x="82.1" y="195.3" style="fill:#1f77b4;stroke:#1f77b4"/><use xlink:href="#D" x="94.7" y="215.2" style="fill:#1f77b4;stroke:#1f77b4"/><use xlink:href="#D" x="107.4" y="228.2" style="fill:#1f77b4;stroke:#1f77b4"/><use xlink:href="#D" x="132.7" y="245.6" style="fill:#1f77b4;stroke:#1f77b4"/><use xlink:href="#D" x="183.2" y="267.1" style="fill:#1f77b4;stroke:#1f77b4"/><use xlink:href="#D" x="259.1" y="281.9" style="fill:#1f77b4;stroke:#1f77b4"/><use xlink:href="#D" x="436" y="304.3" style="fill:#1f77b4;stroke:#1f77b4"/><use xlink:href="#D" x="678.7" y="323.5" style="fill:#1f77b4;stroke:#1f77b4"/></g><path d="M69.5 235.5 82 265.1l12.6 10.1 12.7 9 25.3 14.9 50.5 20.5 75.9 14.6L436 354l242.6 18.8" clip-path="url(#a)" style="fill:none;stroke-dasharray:5.55,2.4;stroke-dashoffset:0;stroke:#1f77b4;stroke-width:1.5"/><defs><path id="E" d="M0 3.5a3.5 3.5 0 1 0 0-7 3.5 3.5 0 0 0 0 7z" style="stroke:#1f77b4"/></defs><g clip-path="url(#a)"><use xlink:href="#E" x="69.5" y="235.5" style="fill-opacity:0;stroke:#1f77b4"/><use xlink:href="#E" x="82.1" y="265.1" style="fill-opacity:0;stroke:#1f77b4"/><use xlink:href="#E" x="94.7" y="275.2" style="fill-opacity:0;stroke:#1f77b4"/><use xlink:href="#E" x="107.4" y="284.2" style="fill-opacity:0;stroke:#1f77b4"/><use xlink:href="#E" x="132.7" y="299.1" style="fill-opacity:0;stroke:#1f77b4"/><use xlink:href="#E" x="183.2" y="319.6" style="fill-opacity:0;stroke:#1f77b4"/><use xlink:href="#E" x="259.1" y="334.2" style="fill-opacity:0;stroke:#1f77b4"/><use xlink:href="#E" x="436" y="354" style="fill-opacity:0;stroke:#1f77b4"/><use xlink:href="#E" x="678.7" y="372.8" style="fill-opacity:0;stroke:#1f77b4"/></g><path d="M69.5 43.4 82 90.5l12.6 40 12.7 11.7 25.3 20.5 50.5 21.2L259 198l177 16 242.6 15" clip-path="url(#a)" style="fill:none;stroke-dasharray:1.5,2.475;stroke-dashoffset:0;stroke:#1f77b4;stroke-width:1.5"/><g clip-path="url(#a)"><use xlink:href="#E" x="69.5" y="43.4" style="fill-opacity:0;stroke:#1f77b4"/><use xlink:href="#E" x="82.1" y="90.5" style="fill-opacity:0;stroke:#1f77b4"/><use xlink:href="#E" x="94.7" y="130.4" style="fill-opacity:0;stroke:#1f77b4"/><use xlink:href="#E" x="107.4" y="142.2" style="fill-opacity:0;stroke:#1f77b4"/><use xlink:href="#E" x="132.7" y="162.7" style="fill-opacity:0;stroke:#1f77b4"/><use xlink:href="#E" x="183.2" y="183.9" style="fill-opacity:0;stroke:#1f77b4"/><use xlink:href="#E" x="259.1" y="198" style="fill-opacity:0;stroke:#1f77b4"/><use xlink:href="#E" x="436" y="214" style="fill-opacity:0;stroke:#1f77b4"/><use xlink:href="#E" x="678.7" y="229.1" style="fill-opacity:0;stroke:#1f77b4"/></g><path d="M69.5 143.4 82 174.7 94.7 192l12.7 13.8 25.3 14.1 50.5 18.6 75.9 13.2 177 18.8L678.6 286" clip-path="url(#a)" style="fill:none;stroke:#ff7f0e;stroke-width:1.5;stroke-linecap:square"/><defs><path id="F" d="M-3.5 3.5h7v-7h-7z" style="stroke:#ff7f0e;stroke-linejoin:miter"/></defs><g clip-path="url(#a)"><use xlink:href="#F" x="69.5" y="143.4" style="fill:#ff7f0e;stroke:#ff7f0e;stroke-linejoin:miter"/><use xlink:href="#F" x="82.1" y="174.7" style="fill:#ff7f0e;stroke:#ff7f0e;stroke-linejoin:miter"/><use xlink:href="#F" x="94.7" y="192" style="fill:#ff7f0e;stroke:#ff7f0e;stroke-linejoin:miter"/><use xlink:href="#F" x="107.4" y="205.8" style="fill:#ff7f0e;stroke:#ff7f0e;stroke-linejoin:miter"/><use xlink:href="#F" x="132.7" y="219.9" style="fill:#ff7f0e;stroke:#ff7f0e;stroke-linejoin:miter"/><use xlink:href="#F" x="183.2" y="238.5" style="fill:#ff7f0e;stroke:#ff7f0e;stroke-linejoin:miter"/><use xlink:href="#F" x="259.1" y="251.7" style="fill:#ff7f0e;stroke:#ff7f0e;stroke-linejoin:miter"/><use xlink:href="#F" x="436" y="270.5" style="fill:#ff7f0e;stroke:#ff7f0e;stroke-linejoin:miter"/><use xlink:href="#F" x="678.7" y="286" style="fill:#ff7f0e;stroke:#ff7f0e;stroke-linejoin:miter"/></g><path d="M69.5 194.3 82 226l12.6 12.6 12.7 10.5 25.3 14 50.5 20.8 75.9 14.5L436 313l242.6 14.8" clip-path="url(#a)" style="fill:none;stroke-dasharray:5.55,2.4;stroke-dashoffset:0;stroke:#ff7f0e;stroke-width:1.5"/><defs><path id="G" d="M-3.5 3.5h7v-7h-7z" style="stroke:#ff7f0e;stroke-linejoin:miter"/></defs><g clip-path="url(#a)"><use xlink:href="#G" x="69.5" y="194.3" style="fill-opacity:0;stroke:#ff7f0e;stroke-linejoin:miter"/><use xlink:href="#G" x="82.1" y="226.1" style="fill-opacity:0;stroke:#ff7f0e;stroke-linejoin:miter"/><use xlink:href="#G" x="94.7" y="238.7" style="fill-opacity:0;stroke:#ff7f0e;stroke-linejoin:miter"/><use xlink:href="#G" x="107.4" y="249.2" style="fill-opacity:0;stroke:#ff7f0e;stroke-linejoin:miter"/><use xlink:href="#G" x="132.7" y="263.2" style="fill-opacity:0;stroke:#ff7f0e;stroke-linejoin:miter"/><use xlink:href="#G" x="183.2" y="284" style="fill-opacity:0;stroke:#ff7f0e;stroke-linejoin:miter"/><use xlink:href="#G" x="259.1" y="298.5" style="fill-opacity:0;stroke:#ff7f0e;stroke-linejoin:miter"/><use xlink:href="#G" x="436" y="313" style="fill-opacity:0;stroke:#ff7f0e;stroke-linejoin:miter"/><use xlink:href="#G" x="678.7" y="327.8" style="fill-opacity:0;stroke:#ff7f0e;stroke-linejoin:miter"/></g><path d="M69.5 68.9 82 106.7 94.7 135l12.7 22.5 25.3 17.2 50.5 15.8 75.9 9.9 177 12.3L678.6 223" clip-path="url(#a)" style="fill:none;stroke-dasharray:1.5,2.475;stroke-dashoffset:0;stroke:#ff7f0e;stroke-width:1.5"/><g clip-path="url(#a)"><use xlink:href="#G" x="69.5" y="68.9" style="fill-opacity:0;stroke:#ff7f0e;stroke-linejoin:miter"/><use xlink:href="#G" x="82.1" y="106.7" style="fill-opacity:0;stroke:#ff7f0e;stroke-linejoin:miter"/><use xlink:href="#G" x="94.7" y="135" style="fill-opacity:0;stroke:#ff7f0e;stroke-linejoin:miter"/><use xlink:href="#G" x="107.4" y="157.5" style="fill-opacity:0;stroke:#ff7f0e;stroke-linejoin:miter"/><use xlink:href="#G" x="132.7" y="174.7" style="fill-opacity:0;stroke:#ff7f0e;stroke-linejoin:miter"/><use xlink:href="#G" x="183.2" y="190.5" style="fill-opacity:0;stroke:#ff7f0e;stroke-linejoin:miter"/><use xlink:href="#G" x="259.1" y="200.4" style="fill-opacity:0;stroke:#ff7f0e;stroke-linejoin:miter"/><use xlink:href="#G" x="436" y="212.7" style="fill-opacity:0;stroke:#ff7f0e;stroke-linejoin:miter"/><use xlink:href="#G" x="678.7" y="223" style="fill-opacity:0;stroke:#ff7f0e;stroke-linejoin:miter"/></g><path d="m69.5 209.7 12.6 19 12.6 15 12.7 10.6 25.3 12 50.5 17.3 75.9 12 177 17 242.6 13.1" clip-path="url(#a)" style="fill:none;stroke:#2ca02c;stroke-width:1.5;stroke-linecap:square"/><defs><path id="H" d="m0-3.5-3.5 7h7z" style="stroke:#2ca02c;stroke-linejoin:miter"/></defs><g clip-path="url(#a)"><use xlink:href="#H" x="69.5" y="209.7" style="fill:#2ca02c;stroke:#2ca02c;stroke-linejoin:miter"/><use xlink:href="#H" x="82.1" y="228.6" style="fill:#2ca02c;stroke:#2ca02c;stroke-linejoin:miter"/><use xlink:href="#H" x="94.7" y="243.6" style="fill:#2ca02c;stroke:#2ca02c;stroke-linejoin:miter"/><use xlink:href="#H" x="107.4" y="254.3" style="fill:#2ca02c;stroke:#2ca02c;stroke-linejoin:miter"/><use xlink:href="#H" x="132.7" y="266.3" style="fill:#2ca02c;stroke:#2ca02c;stroke-linejoin:miter"/><use xlink:href="#H" x="183.2" y="283.6" style="fill:#2ca02c;stroke:#2ca02c;stroke-linejoin:miter"/><use xlink:href="#H" x="259.1" y="295.7" style="fill:#2ca02c;stroke:#2ca02c;stroke-linejoin:miter"/><use xlink:href="#H" x="436" y="312.7" style="fill:#2ca02c;stroke:#2ca02c;stroke-linejoin:miter"/><use xlink:href="#H" x="678.7" y="325.7" style="fill:#2ca02c;stroke:#2ca02c;stroke-linejoin:miter"/></g><path d="m69.5 240.6 12.6 24L94.7 276l12.7 6.3 25.3 13 50.5 16.8 75.9 14.8 177 15 242.6 16.9" clip-path="url(#a)" style="fill:none;stroke-dasharray:5.55,2.4;stroke-dashoffset:0;stroke:#2ca02c;stroke-width:1.5"/><defs><path id="I" d="m0-3.5-3.5 7h7z" style="stroke:#2ca02c;stroke-linejoin:miter"/></defs><g clip-path="url(#a)"><use xlink:href="#I" x="69.5" y="240.6" style="fill-opacity:0;stroke:#2ca02c;stroke-linejoin:miter"/><use xlink:href="#I" x="82.1" y="264.7" style="fill-opacity:0;stroke:#2ca02c;stroke-linejoin:miter"/><use xlink:href="#I" x="94.7" y="276" style="fill-opacity:0;stroke:#2ca02c;stroke-linejoin:miter"/><use xlink:href="#I" x="107.4" y="282.3" style="fill-opacity:0;stroke:#2ca02c;stroke-linejoin:miter"/><use xlink:href="#I" x="132.7" y="295.3" style="fill-opacity:0;stroke:#2ca02c;stroke-linejoin:miter"/><use xlink:href="#I" x="183.2" y="312.1" style="fill-opacity:0;stroke:#2ca02c;stroke-linejoin:miter"/><use xlink:href="#I" x="259.1" y="326.9" style="fill-opacity:0;stroke:#2ca02c;stroke-linejoin:miter"/><use xlink:href="#I" x="436" y="341.8" style="fill-opacity:0;stroke:#2ca02c;stroke-linejoin:miter"/><use xlink:href="#I" x="678.7" y="358.8" style="fill-opacity:0;stroke:#2ca02c;stroke-linejoin:miter"/></g><path d="M69.5 168.4 82 181.7l12.6 21.7 12.7 10 25.3 9.2 50.5 13.8 75.9 10.2 177 13.5 242.6 10" clip-path="url(#a)" style="fill:none;stroke-dasharray:1.5,2.475;stroke-dashoffset:0;stroke:#2ca02c;stroke-width:1.5"/><g clip-path="url(#a)"><use xlink:href="#I" x="69.5" y="168.4" style="fill-opacity:0;stroke:#2ca02c;stroke-linejoin:miter"/><use xlink:href="#I" x="82.1" y="181.7" style="fill-opacity:0;stroke:#2ca02c;stroke-linejoin:miter"/><use xlink:href="#I" x="94.7" y="203.4" style="fill-opacity:0;stroke:#2ca02c;stroke-linejoin:miter"/><use xlink:href="#I" x="107.4" y="213.3" style="fill-opacity:0;stroke:#2ca02c;stroke-linejoin:miter"/><use xlink:href="#I" x="132.7" y="222.6" style="fill-opacity:0;stroke:#2ca02c;stroke-linejoin:miter"/><use xlink:href="#I" x="183.2" y="236.4" style="fill-opacity:0;stroke:#2ca02c;stroke-linejoin:miter"/><use xlink:href="#I" x="259.1" y="246.6" style="fill-opacity:0;stroke:#2ca02c;stroke-linejoin:miter"/><use xlink:href="#I" x="436" y="260.1" style="fill-opacity:0;stroke:#2ca02c;stroke-linejoin:miter"/><use xlink:href="#I" x="678.7" y="270" style="fill-opacity:0;stroke:#2ca02c;stroke-linejoin:miter"/></g><path d="M69.5 167.3 82 191l12.6 12.8 12.7 13.3 25.3 13.1 50.5 17.3 75.9 13.3 177 22.6 242.6 18.4" clip-path="url(#a)" style="fill:none;stroke:#d62728;stroke-width:1.5;stroke-linecap:square"/><defs><path id="J" d="m0 5 5-5-5-5-5 5z" style="stroke:#d62728;stroke-linejoin:miter"/></defs><g clip-path="url(#a)"><use xlink:href="#J" x="69.5" y="167.3" style="fill:#d62728;stroke:#d62728;stroke-linejoin:miter"/><use xlink:href="#J" x="82.1" y="190.9" style="fill:#d62728;stroke:#d62728;stroke-linejoin:miter"/><use xlink:href="#J" x="94.7" y="203.7" style="fill:#d62728;stroke:#d62728;stroke-linejoin:miter"/><use xlink:href="#J" x="107.4" y="217" style="fill:#d62728;stroke:#d62728;stroke-linejoin:miter"/><use xlink:href="#J" x="132.7" y="230.1" style="fill:#d62728;stroke:#d62728;stroke-linejoin:miter"/><use xlink:href="#J" x="183.2" y="247.4" style="fill:#d62728;stroke:#d62728;stroke-linejoin:miter"/><use xlink:href="#J" x="259.1" y="260.7" style="fill:#d62728;stroke:#d62728;stroke-linejoin:miter"/><use xlink:href="#J" x="436" y="283.3" style="fill:#d62728;stroke:#d62728;stroke-linejoin:miter"/><use xlink:href="#J" x="678.7" y="301.7" style="fill:#d62728;stroke:#d62728;stroke-linejoin:miter"/></g><path d="M69.5 228.6 82 248.8l12.6 8.1 12.7 12.5 25.3 17.3 50.5 20 75.9 11.5 177 15.5 242.6 19" clip-path="url(#a)" style="fill:none;stroke-dasharray:5.55,2.4;stroke-dashoffset:0;stroke:#d62728;stroke-width:1.5"/><defs><path id="K" d="m0 5 5-5-5-5-5 5z" style="stroke:#d62728;stroke-linejoin:miter"/></defs><g clip-path="url(#a)"><use xlink:href="#K" x="69.5" y="228.6" style="fill-opacity:0;stroke:#d62728;stroke-linejoin:miter"/><use xlink:href="#K" x="82.1" y="248.8" style="fill-opacity:0;stroke:#d62728;stroke-linejoin:miter"/><use xlink:href="#K" x="94.7" y="256.9" style="fill-opacity:0;stroke:#d62728;stroke-linejoin:miter"/><use xlink:href="#K" x="107.4" y="269.4" style="fill-opacity:0;stroke:#d62728;stroke-linejoin:miter"/><use xlink:href="#K" x="132.7" y="286.7" style="fill-opacity:0;stroke:#d62728;stroke-linejoin:miter"/><use xlink:href="#K" x="183.2" y="306.7" style="fill-opacity:0;stroke:#d62728;stroke-linejoin:miter"/><use xlink:href="#K" x="259.1" y="318.2" style="fill-opacity:0;stroke:#d62728;stroke-linejoin:miter"/><use xlink:href="#K" x="436" y="333.7" style="fill-opacity:0;stroke:#d62728;stroke-linejoin:miter"/><use xlink:href="#K" x="678.7" y="352.8" style="fill-opacity:0;stroke:#d62728;stroke-linejoin:miter"/></g><path d="M69.5 85.6 82 123.7l12.6 28.1 12.7 17.9 25.3 9.2 50.5 10.4 75.9 7.4 177 19.2 242.6 7.1" clip-path="url(#a)" style="fill:none;stroke-dasharray:1.5,2.475;stroke-dashoffset:0;stroke:#d62728;stroke-width:1.5"/><g clip-path="url(#a)"><use xlink:href="#K" x="69.5" y="85.6" style="fill-opacity:0;stroke:#d62728;stroke-linejoin:miter"/><use xlink:href="#K" x="82.1" y="123.7" style="fill-opacity:0;stroke:#d62728;stroke-linejoin:miter"/><use xlink:href="#K" x="94.7" y="151.8" style="fill-opacity:0;stroke:#d62728;stroke-linejoin:miter"/><use xlink:href="#K" x="107.4" y="169.7" style="fill-opacity:0;stroke:#d62728;stroke-linejoin:miter"/><use xlink:href="#K" x="132.7" y="178.9" style="fill-opacity:0;stroke:#d62728;stroke-linejoin:miter"/><use xlink:href="#K" x="183.2" y="189.3" style="fill-opacity:0;stroke:#d62728;stroke-linejoin:miter"/><use xlink:href="#K" x="259.1" y="196.7" style="fill-opacity:0;stroke:#d62728;stroke-linejoin:miter"/><use xlink:href="#K" x="436" y="215.9" style="fill-opacity:0;stroke:#d62728;stroke-linejoin:miter"/><use xlink:href="#K" x="678.7" y="223" style="fill-opacity:0;stroke:#d62728;stroke-linejoin:miter"/></g><path d="M39 389.3V27m670.2 362.3V27M39 389.3h670.2M39 26.9h670.2" style="fill:none;stroke:#000;stroke-width:.8;stroke-linejoin:miter;stroke-linecap:square"/><g transform="matrix(.12 0 0 -.12 293.3 20.9)"><defs><path id="L" d="M191 3500h609L1894 563l1094 2937h609L2284 0h-781z" transform="scale(.01563)"/></defs><use xlink:href="#t"/><use xlink:href="#o" transform="translate(68.6)"/><use xlink:href="#n" transform="translate(96.4)"/><use xlink:href="#j" transform="translate(135.6)"/><use xlink:href="#u" transform="translate(219.5)"/><use xlink:href="#i" transform="translate(283)"/><use xlink:href="#v" transform="translate(344.5)"/><use xlink:href="#w" transform="translate(417.4)"/><use xlink:href="#o" transform="translate(475.4)"/><use xlink:href="#x" transform="translate(503.2)"/><use xlink:href="#i" transform="translate(559.3)"/><use xlink:href="#l" transform="translate(620.8)"/><use xlink:href="#L" transform="translate(680.4)"/><use xlink:href="#j" transform="translate(739.5)"/><use xlink:href="#h" transform="translate(823.4)"/><use xlink:href="#i" transform="translate(888.4)"/><use xlink:href="#j" transform="translate(950)"/><use xlink:href="#k" transform="translate(1002)"/><use xlink:href="#l" transform="translate(1063.2)"/><use xlink:href="#m" transform="translate(1091)"/><use xlink:href="#n" transform="translate(1154.4)"/><use xlink:href="#o" transform="translate(1193.6)"/><use xlink:href="#k" transform="translate(1221.4)"/><use xlink:href="#p" transform="translate(1282.6)"/></g><path d="M457.2 105h246.4q1.6 0 1.6-1.5v-71q0-1.6-1.6-1.6H457.2q-1.6 0-1.6 1.6v71q0 1.6 1.6 1.6z" style="fill:#fff;opacity:.8;stroke:#ccc;stroke-linejoin:miter"/><path d="M458.8 37.4h16" style="fill:none;stroke:#1f77b4;stroke-width:1.5;stroke-linecap:square"/><use xlink:href="#D" x="466.8" y="37.4" style="fill:#1f77b4;stroke:#1f77b4"/><g transform="matrix(.08 0 0 -.08 481.2 40.2)"><defs><path id="M" d="M2194 1759q-697 0-966-159t-269-544q0-306 202-486 202-179 548-179 479 0 768 339t289 901v128zm1147 238V0h-575v531q-197-318-491-470T1556-91q-537 0-855 302-317 302-317 808 0 590 395 890 396 300 1180 300h807v57q0 397-261 614t-733 217q-300 0-585-72-284-72-546-216v532q315 122 612 182 297 61 578 61 760 0 1135-394 375-393 375-1193" transform="scale(.01563)"/><path id="N" d="M2375 4863v-479h-550q-309 0-430-125-120-125-120-450v-309h947v-447h-947V0H697v3053H147v447h550v244q0 584 272 851 272 268 862 268z" transform="scale(.01563)"/><path id="O" d="M3263-1063v-446H-63v446z" transform="scale(.01563)"/><path id="P" d="M2113 2584q-425 0-674-291-248-290-248-796 0-503 248-796 249-292 674-292t673 292q248 293 248 796 0 506-248 796-248 291-673 291m1253 1979v-575q-238 112-480 171-242 60-480 60-625 0-955-422-329-422-376-1275 184 272 462 417 279 145 613 145 703 0 1111-427 408-426 408-1160 0-719-425-1154Q2819-91 2113-91q-810 0-1238 620-428 621-428 1799 0 1106 525 1764t1409 658q238 0 480-47t505-140" transform="scale(.01563)"/><path id="Q" d="M3328 2828q216 388 516 572t706 184q547 0 844-383 297-382 297-1088V0h-578v2094q0 503-179 746-178 244-543 244-447 0-707-297-259-296-259-809V0h-578v2094q0 506-178 748t-550 242q-441 0-701-298-259-298-259-808V0H581v3500h578v-544q197 322 472 475t653 153q382 0 649-194 267-193 395-562" transform="scale(.01563)"/></defs><use xlink:href="#M"/><use xlink:href="#L" transform="translate(61.3)"/><use xlink:href="#o" transform="translate(120.5)"/><use xlink:href="#N" transform="translate(148.2)"/><use xlink:href="#O" transform="translate(183.4)"/><use xlink:href="#P" transform="translate(233.4)"/><use xlink:href="#d" transform="translate(297)"/><use xlink:href="#y" transform="translate(392.5)"/><use xlink:href="#Q" transform="translate(431.5)"/><use xlink:href="#i" transform="translate(529)"/><use xlink:href="#M" transform="translate(590.4)"/><use xlink:href="#p" transform="translate(651.7)"/><use xlink:href="#C" transform="translate(715)"/></g><path d="M458.8 49.3h16" style="fill:none;stroke-dasharray:5.55,2.4;stroke-dashoffset:0;stroke:#1f77b4;stroke-width:1.5"/><use xlink:href="#E" x="466.8" y="49.3" style="fill-opacity:0;stroke:#1f77b4"/><g transform="matrix(.08 0 0 -.08 481.2 52.1)"><defs><path id="R" d="M4653 2053q-272 0-427-231-154-231-154-644 0-406 154-639 155-233 427-233 266 0 420 233 155 233 155 639 0 410-155 642-154 233-420 233m0 397q494 0 784-344 291-343 291-928 0-584-292-927-292-342-783-342-500 0-791 342-290 343-290 927 0 588 292 930t789 342M1428 4353q-269 0-424-233-154-232-154-639 0-412 153-644 153-231 425-231t426 231q155 232 155 644 0 403-156 637-156 235-425 235m2822 397h500L1831-91h-500zm-2822 0q494 0 787-342 294-342 294-927 0-590-292-931t-789-341-786 342q-289 343-289 930 0 582 290 925 291 344 785 344" transform="scale(.01563)"/></defs><use xlink:href="#M"/><use xlink:href="#L" transform="translate(61.3)"/><use xlink:href="#o" transform="translate(120.5)"/><use xlink:href="#N" transform="translate(148.2)"/><use xlink:href="#O" transform="translate(183.4)"/><use xlink:href="#P" transform="translate(233.4)"/><use xlink:href="#d" transform="translate(297)"/><use xlink:href="#y" transform="translate(392.5)"/><use xlink:href="#d" transform="translate(431.5)"/><use xlink:href="#R" transform="translate(495.1)"/><use xlink:href="#j" transform="translate(622)"/><use xlink:href="#Q" transform="translate(674)"/><use xlink:href="#M" transform="translate(771.4)"/><use xlink:href="#l" transform="translate(832.7)"/><use xlink:href="#l" transform="translate(860.5)"/><use xlink:href="#i" transform="translate(888.3)"/><use xlink:href="#j" transform="translate(949.8)"/><use xlink:href="#n" transform="translate(1001.9)"/><use xlink:href="#C" transform="translate(1041.1)"/></g><path d="M458.8 61.3h16" style="fill:none;stroke-dasharray:1.5,2.475;stroke-dashoffset:0;stroke:#1f77b4;stroke-width:1.5"/><use xlink:href="#E" x="466.8" y="61.3" style="fill-opacity:0;stroke:#1f77b4"/><g transform="matrix(.08 0 0 -.08 481.2 64)"><defs><path id="S" d="M703 97v575q238-113 481-172 244-59 479-59 625 0 954 420 330 420 377 1277-181-269-460-413-278-144-615-144-700 0-1108 423-408 424-408 1159 0 718 425 1152 425 435 1131 435 810 0 1236-621 427-620 427-1801 0-1103-524-1761Q2575-91 1691-91q-238 0-482 47Q966 3 703 97m1256 1978q425 0 673 290 249 291 249 798 0 503-249 795-248 292-673 292t-673-292-248-795q0-507 248-798 248-290 673-290" transform="scale(.01563)"/><path id="T" d="M2906 1791q0 625-258 968-257 344-723 344-462 0-720-344-258-343-258-968 0-622 258-966t720-344q466 0 723 344 258 344 258 966m575-1357q0-893-397-1329-396-436-1215-436-303 0-572 45t-522 139v559q253-137 500-202 247-66 503-66 566 0 847 295t281 892v285q-178-310-456-463T1784 0Q1141 0 747 490 353 981 353 1791q0 812 394 1302 394 491 1037 491 388 0 666-153t456-462v531h575z" transform="scale(.01563)"/></defs><use xlink:href="#M"/><use xlink:href="#L" transform="translate(61.3)"/><use xlink:href="#o" transform="translate(120.5)"/><use xlink:href="#N" transform="translate(148.2)"/><use xlink:href="#O" transform="translate(183.4)"/><use xlink:href="#P" transform="translate(233.4)"/><use xlink:href="#d" transform="translate(297)"/><use xlink:href="#y" transform="translate(392.5)"/><use xlink:href="#S" transform="translate(431.5)"/><use xlink:href="#d" transform="translate(495.1)"/><use xlink:href="#R" transform="translate(558.7)"/><use xlink:href="#l" transform="translate(685.5)"/><use xlink:href="#M" transform="translate(713.3)"/><use xlink:href="#v" transform="translate(774.6)"/><use xlink:href="#T" transform="translate(814)"/><use xlink:href="#i" transform="translate(877.4)"/><use xlink:href="#j" transform="translate(939)"/><use xlink:href="#n" transform="translate(991)"/><use xlink:href="#C" transform="translate(1030.3)"/></g><path d="M458.8 73.3h16" style="fill:none;stroke:#ff7f0e;stroke-width:1.5;stroke-linecap:square"/><use xlink:href="#F" x="466.8" y="73.3" style="fill:#ff7f0e;stroke:#ff7f0e;stroke-linejoin:miter"/><g transform="matrix(.08 0 0 -.08 481.2 76)"><defs><path id="U" d="M603 3500h575V-63q0-668-255-968-254-300-820-300h-219v487H38q328 0 446 152Q603-541 603-63zm0 1363h575v-729H603z" transform="scale(.01563)"/><path id="V" d="M2034 2216q-450 0-708-241-257-241-257-662 0-422 257-663 258-241 708-241t709 242q260 243 260 662 0 421-258 662-257 241-711 241m-631 268q-406 100-633 378-226 279-226 679 0 559 398 884 399 325 1092 325 697 0 1094-325t397-884q0-400-227-679-226-278-629-378 456-106 710-416 255-309 255-755 0-679-414-1042Q2806-91 2034-91q-771 0-1186 362-414 363-414 1042 0 446 256 755 257 310 713 416m-231 997q0-362 226-565 227-203 636-203 407 0 636 203 230 203 230 565 0 363-230 566-229 203-636 203-409 0-636-203-226-203-226-566" transform="scale(.01563)"/></defs><use xlink:href="#U"/><use xlink:href="#u" transform="translate(27.8)"/><use xlink:href="#i" transform="translate(91.3)"/><use xlink:href="#T" transform="translate(152.8)"/><use xlink:href="#O" transform="translate(216.3)"/><use xlink:href="#V" transform="translate(266.3)"/><use xlink:href="#d" transform="translate(329.9)"/><use xlink:href="#y" transform="translate(425.3)"/><use xlink:href="#Q" transform="translate(464.3)"/><use xlink:href="#i" transform="translate(561.7)"/><use xlink:href="#M" transform="translate(623.2)"/><use xlink:href="#p" transform="translate(684.5)"/><use xlink:href="#C" transform="translate(747.9)"/></g><path d="M458.8 85.2h16" style="fill:none;stroke-dasharray:5.55,2.4;stroke-dashoffset:0;stroke:#ff7f0e;stroke-width:1.5"/><use xlink:href="#G" x="466.8" y="85.2" style="fill-opacity:0;stroke:#ff7f0e;stroke-linejoin:miter"/><g transform="matrix(.08 0 0 -.08 481.2 88)"><use xlink:href="#U"/><use xlink:href="#u" transform="translate(27.8)"/><use xlink:href="#i" transform="translate(91.3)"/><use xlink:href="#T" transform="translate(152.8)"/><use xlink:href="#O" transform="translate(216.3)"/><use xlink:href="#V" transform="translate(266.3)"/><use xlink:href="#d" transform="translate(329.9)"/><use xlink:href="#y" transform="translate(425.3)"/><use xlink:href="#d" transform="translate(464.3)"/><use xlink:href="#R" transform="translate(528)"/><use xlink:href="#j" transform="translate(654.7)"/><use xlink:href="#Q" transform="translate(706.8)"/><use xlink:href="#M" transform="translate(804.2)"/><use xlink:href="#l" transform="translate(865.5)"/><use xlink:href="#l" transform="translate(893.3)"/><use xlink:href="#i" transform="translate(921)"/><use xlink:href="#j" transform="translate(982.6)"/><use xlink:href="#n" transform="translate(1034.7)"/><use xlink:href="#C" transform="translate(1074)"/></g><path d="M458.8 97.2h16" style="fill:none;stroke-dasharray:1.5,2.475;stroke-dashoffset:0;stroke:#ff7f0e;stroke-width:1.5"/><use xlink:href="#G" x="466.8" y="97.2" style="fill-opacity:0;stroke:#ff7f0e;stroke-linejoin:miter"/><g transform="matrix(.08 0 0 -.08 481.2 100)"><use xlink:href="#U"/><use xlink:href="#u" transform="translate(27.8)"/><use xlink:href="#i" transform="translate(91.3)"/><use xlink:href="#T" transform="translate(152.8)"/><use xlink:href="#O" transform="translate(216.3)"/><use xlink:href="#V" transform="translate(266.3)"/><use xlink:href="#d" transform="translate(329.9)"/><use xlink:href="#y" transform="translate(425.3)"/><use xlink:href="#S" transform="translate(464.3)"/><use xlink:href="#d" transform="translate(528)"/><use xlink:href="#R" transform="translate(591.6)"/><use xlink:href="#l" transform="translate(718.4)"/><use xlink:href="#M" transform="translate(746.1)"/><use xlink:href="#v" transform="translate(807.4)"/><use xlink:href="#T" transform="translate(846.8)"/><use xlink:href="#i" transform="translate(910.3)"/><use xlink:href="#j" transform="translate(971.8)"/><use xlink:href="#n" transform="translate(1023.9)"/><use xlink:href="#C" transform="translate(1063)"/></g><path d="M586.2 37.4h16" style="fill:none;stroke:#2ca02c;stroke-width:1.5;stroke-linecap:square"/><use xlink:href="#H" x="594.2" y="37.4" style="fill:#2ca02c;stroke:#2ca02c;stroke-linejoin:miter"/><g transform="matrix(.08 0 0 -.08 608.6 40.2)"><use xlink:href="#U"/><use xlink:href="#x" transform="translate(27.8)"/><use xlink:href="#l" transform="translate(87)"/><use xlink:href="#O" transform="translate(114.7)"/><use xlink:href="#V" transform="translate(164.7)"/><use xlink:href="#d" transform="translate(228.4)"/><use xlink:href="#y" transform="translate(323.8)"/><use xlink:href="#Q" transform="translate(362.8)"/><use xlink:href="#i" transform="translate(460.2)"/><use xlink:href="#M" transform="translate(521.7)"/><use xlink:href="#p" transform="translate(583)"/><use xlink:href="#C" transform="translate(646.4)"/></g><path d="M586.2 49.3h16" style="fill:none;stroke-dasharray:5.55,2.4;stroke-dashoffset:0;stroke:#2ca02c;stroke-width:1.5"/><use xlink:href="#I" x="594.2" y="49.3" style="fill-opacity:0;stroke:#2ca02c;stroke-linejoin:miter"/><g transform="matrix(.08 0 0 -.08 608.6 52.1)"><use xlink:href="#U"/><use xlink:href="#x" transform="translate(27.8)"/><use xlink:href="#l" transform="translate(87)"/><use xlink:href="#O" transform="translate(114.7)"/><use xlink:href="#V" transform="translate(164.7)"/><use xlink:href="#d" transform="translate(228.4)"/><use xlink:href="#y" transform="translate(323.8)"/><use xlink:href="#d" transform="translate(362.8)"/><use xlink:href="#R" transform="translate(426.4)"/><use xlink:href="#j" transform="translate(553.2)"/><use xlink:href="#Q" transform="translate(605.3)"/><use xlink:href="#M" transform="translate(702.7)"/><use xlink:href="#l" transform="translate(764)"/><use xlink:href="#l" transform="translate(791.8)"/><use xlink:href="#i" transform="translate(819.6)"/><use xlink:href="#j" transform="translate(881.1)"/><use xlink:href="#n" transform="translate(933.2)"/><use xlink:href="#C" transform="translate(972.4)"/></g><path d="M586.2 61.3h16" style="fill:none;stroke-dasharray:1.5,2.475;stroke-dashoffset:0;stroke:#2ca02c;stroke-width:1.5"/><use xlink:href="#I" x="594.2" y="61.3" style="fill-opacity:0;stroke:#2ca02c;stroke-linejoin:miter"/><g transform="matrix(.08 0 0 -.08 608.6 64)"><use xlink:href="#U"/><use xlink:href="#x" transform="translate(27.8)"/><use xlink:href="#l" transform="translate(87)"/><use xlink:href="#O" transform="translate(114.7)"/><use xlink:href="#V" transform="translate(164.7)"/><use xlink:href="#d" transform="translate(228.4)"/><use xlink:href="#y" transform="translate(323.8)"/><use xlink:href="#S" transform="translate(362.8)"/><use xlink:href="#d" transform="translate(426.4)"/><use xlink:href="#R" transform="translate(490)"/><use xlink:href="#l" transform="translate(616.8)"/><use xlink:href="#M" transform="translate(644.6)"/><use xlink:href="#v" transform="translate(706)"/><use xlink:href="#T" transform="translate(745.3)"/><use xlink:href="#i" transform="translate(808.7)"/><use xlink:href="#j" transform="translate(870.3)"/><use xlink:href="#n" transform="translate(922.4)"/><use xlink:href="#C" transform="translate(961.6)"/></g><path d="M586.2 73.3h16" style="fill:none;stroke:#d62728;stroke-width:1.5;stroke-linecap:square"/><use xlink:href="#J" x="594.2" y="73.3" style="fill:#d62728;stroke:#d62728;stroke-linejoin:miter"/><g transform="matrix(.08 0 0 -.08 608.6 76)"><use xlink:href="#A"/><use xlink:href="#i" transform="translate(81.8)"/><use xlink:href="#B" transform="translate(143.3)"/><use xlink:href="#u" transform="translate(206.8)"/><use xlink:href="#O" transform="translate(270.3)"/><use xlink:href="#V" transform="translate(320.3)"/><use xlink:href="#f" transform="translate(383.9)"/><use xlink:href="#y" transform="translate(479.3)"/><use xlink:href="#Q" transform="translate(518.3)"/><use xlink:href="#i" transform="translate(615.7)"/><use xlink:href="#M" transform="translate(677.2)"/><use xlink:href="#p" transform="translate(738.5)"/><use xlink:href="#C" transform="translate(801.9)"/></g><path d="M586.2 85.2h16" style="fill:none;stroke-dasharray:5.55,2.4;stroke-dashoffset:0;stroke:#d62728;stroke-width:1.5"/><use xlink:href="#K" x="594.2" y="85.2" style="fill-opacity:0;stroke:#d62728;stroke-linejoin:miter"/><g transform="matrix(.08 0 0 -.08 608.6 88)"><use xlink:href="#A"/><use xlink:href="#i" transform="translate(81.8)"/><use xlink:href="#B" transform="translate(143.3)"/><use xlink:href="#u" transform="translate(206.8)"/><use xlink:href="#O" transform="translate(270.3)"/><use xlink:href="#V" transform="translate(320.3)"/><use xlink:href="#f" transform="translate(383.9)"/><use xlink:href="#y" transform="translate(479.3)"/><use xlink:href="#d" transform="translate(518.3)"/><use xlink:href="#R" transform="translate(582)"/><use xlink:href="#j" transform="translate(708.7)"/><use xlink:href="#Q" transform="translate(760.8)"/><use xlink:href="#M" transform="translate(858.3)"/><use xlink:href="#l" transform="translate(919.5)"/><use xlink:href="#l" transform="translate(947.3)"/><use xlink:href="#i" transform="translate(975.1)"/><use xlink:href="#j" transform="translate(1036.6)"/><use xlink:href="#n" transform="translate(1088.7)"/><use xlink:href="#C" transform="translate(1128)"/></g><path d="M586.2 97.2h16" style="fill:none;stroke-dasharray:1.5,2.475;stroke-dashoffset:0;stroke:#d62728;stroke-width:1.5"/><use xlink:href="#K" x="594.2" y="97.2" style="fill-opacity:0;stroke:#d62728;stroke-linejoin:miter"/><g transform="matrix(.08 0 0 -.08 608.6 100)"><use xlink:href="#A"/><use xlink:href="#i" transform="translate(81.8)"/><use xlink:href="#B" transform="translate(143.3)"/><use xlink:href="#u" transform="translate(206.8)"/><use xlink:href="#O" transform="translate(270.3)"/><use xlink:href="#V" transform="translate(320.3)"/><use xlink:href="#f" transform="translate(383.9)"/><use xlink:href="#y" transform="translate(479.3)"/><use xlink:href="#S" transform="translate(518.3)"/><use xlink:href="#d" transform="translate(582)"/><use xlink:href="#R" transform="translate(645.6)"/><use xlink:href="#l" transform="translate(772.4)"/><use xlink:href="#M" transform="translate(800.1)"/><use xlink:href="#v" transform="translate(861.4)"/><use xlink:href="#T" transform="translate(900.8)"/><use xlink:href="#i" transform="translate(964.3)"/><use xlink:href="#j" transform="translate(1025.8)"/><use xlink:href="#n" transform="translate(1077.9)"/><use xlink:href="#C" transform="translate(1117.1)"/></g><defs><clipPath id="a"><path d="M39 26.9h670.2v362.4H39z"/></clipPath></defs></svg>