<?xml version="1.0" encoding="utf-8" standalone="no"?>
<!DOCTYPE svg PUBLIC "-//W3C//DTD SVG 1.1//EN"
  "http://www.w3.org/Graphics/SVG/1.1/DTD/svg11.dtd">
<svg xmlns:xlink="http://www.w3.org/1999/xlink" width="720pt" height="432pt" viewBox="0 0 720 432" xmlns="http://www.w3.org/2000/svg" version="1.1">
 <metadata>
  <rdf:RDF xmlns:dc="http://purl.org/dc/elements/1.1/" xmlns:cc="http://creativecommons.org/ns#" xmlns:rdf="http://www.w3.org/1999/02/22-rdf-syntax-ns#">
   <cc:Work>
    <dc:type rdf:resource="http://purl.org/dc/dcmitype/StillImage"/>
    <dc:date>2026-02-20T20:42:15.754356</dc:date>
    <dc:format>image/svg+xml</dc:format>
    <dc:creator>
     <cc:Agent>
      <dc:title>Matplotlib v3.10.8, https://matplotlib.org/</dc:title>
     </cc:Agent>
    </dc:creator>
   </cc:Work>
  </rdf:RDF>
 </metadata>
 <defs>
  <style type="text/css">*{stroke-linejoin: round; stroke-linecap: butt}</style>
 </defs>
 <g id="figure_1">
  <g id="patch_1">
   <path d="M 0 432 
L 720 432 
L 720 0 
L 0 0 
z
" style="fill: #ffffff"/>
  </g>
  <g id="axes_1">
   <g id="patch_2">
    <path d="M 48.44 389.32 
L 709.2 389.32 
L 709.2 26.88 
L 48.44 26.88 
z
" style="fill: #ffffff"/>
   </g>
   <g id="matplotlib.axis_1">
    <g id="xtick_1">
     <g id="line2d_1">
      <path d="M 118.977563 389.32 
L 118.977563 26.88 
" clip-path="url(#pb0b2bfb343)" style="fill: none; stroke: #b0b0b0; stroke-opacity: 0.3; stroke-width: 0.8; stroke-linecap: square"/>
     </g>
     <g id="line2d_2">
      <defs>
       <path id="m8b614613b6" d="M 0 0 
L 0 3.5 
" style="stroke: #000000; stroke-width: 0.8"/>
      </defs>
      <g>
       <use xlink:href="#m8b614613b6" x="118.977563" y="389.32" style="stroke: #000000; stroke-width: 0.8"/>
      </g>
     </g>
     <g id="text_1">
      <!-- 250 -->
      <g transform="translate(109.433813 403.918437) scale(0.1 -0.1)">
       <defs>
        <path id="DejaVuSans-32" d="M 1228 531 
L 3431 531 
L 3431 0 
L 469 0 
L 469 531 
Q 828 903 1448 1529 
Q 2069 2156 2228 2338 
Q 2531 2678 2651 2914 
Q 2772 3150 2772 3378 
Q 2772 3750 2511 3984 
Q 2250 4219 1831 4219 
Q 1534 4219 1204 4116 
Q 875 4013 500 3803 
L 500 4441 
Q 881 4594 1212 4672 
Q 1544 4750 1819 4750 
Q 2544 4750 2975 4387 
Q 3406 4025 3406 3419 
Q 3406 3131 3298 2873 
Q 3191 2616 2906 2266 
Q 2828 2175 2409 1742 
Q 1991 1309 1228 531 
z
" transform="scale(0.015625)"/>
        <path id="DejaVuSans-35" d="M 691 4666 
L 3169 4666 
L 3169 4134 
L 1269 4134 
L 1269 2991 
Q 1406 3038 1543 3061 
Q 1681 3084 1819 3084 
Q 2600 3084 3056 2656 
Q 3513 2228 3513 1497 
Q 3513 744 3044 326 
Q 2575 -91 1722 -91 
Q 1428 -91 1123 -41 
Q 819 9 494 109 
L 494 744 
Q 775 591 1075 516 
Q 1375 441 1709 441 
Q 2250 441 2565 725 
Q 2881 1009 2881 1497 
Q 2881 1984 2565 2268 
Q 2250 2553 1709 2553 
Q 1456 2553 1204 2497 
Q 953 2441 691 2322 
L 691 4666 
z
" transform="scale(0.015625)"/>
        <path id="DejaVuSans-30" d="M 2034 4250 
Q 1547 4250 1301 3770 
Q 1056 3291 1056 2328 
Q 1056 1369 1301 889 
Q 1547 409 2034 409 
Q 2525 409 2770 889 
Q 3016 1369 3016 2328 
Q 3016 3291 2770 3770 
Q 2525 4250 2034 4250 
z
M 2034 4750 
Q 2819 4750 3233 4129 
Q 3647 3509 3647 2328 
Q 3647 1150 3233 529 
Q 2819 -91 2034 -91 
Q 1250 -91 836 529 
Q 422 1150 422 2328 
Q 422 3509 836 4129 
Q 1250 4750 2034 4750 
z
" transform="scale(0.015625)"/>
       </defs>
       <use xlink:href="#DejaVuSans-32"/>
       <use xlink:href="#DejaVuSans-35" transform="translate(63.623047 0)"/>
       <use xlink:href="#DejaVuSans-30" transform="translate(127.246094 0)"/>
      </g>
     </g>
    </g>
    <g id="xtick_2">
     <g id="line2d_3">
      <path d="M 196.867982 389.32 
L 196.867982 26.88 
" clip-path="url(#pb0b2bfb343)" style="fill: none; stroke: #b0b0b0; stroke-opacity: 0.3; stroke-width: 0.8; stroke-linecap: square"/>
     </g>
     <g id="line2d_4">
      <g>
       <use xlink:href="#m8b614613b6" x="196.867982" y="389.32" style="stroke: #000000; stroke-width: 0.8"/>
      </g>
     </g>
     <g id="text_2">
      <!-- 500 -->
      <g transform="translate(187.324232 403.918437) scale(0.1 -0.1)">
       <use xlink:href="#DejaVuSans-35"/>
       <use xlink:href="#DejaVuSans-30" transform="translate(63.623047 0)"/>
       <use xlink:href="#DejaVuSans-30" transform="translate(127.246094 0)"/>
      </g>
     </g>
    </g>
    <g id="xtick_3">
     <g id="line2d_5">
      <path d="M 274.758401 389.32 
L 274.758401 26.88 
" clip-path="url(#pb0b2bfb343)" style="fill: none; stroke: #b0b0b0; stroke-opacity: 0.3; stroke-width: 0.8; stroke-linecap: square"/>
     </g>
     <g id="line2d_6">
      <g>
       <use xlink:href="#m8b614613b6" x="274.758401" y="389.32" style="stroke: #000000; stroke-width: 0.8"/>
      </g>
     </g>
     <g id="text_3">
      <!-- 750 -->
      <g transform="translate(265.214651 403.918437) scale(0.1 -0.1)">
       <defs>
        <path id="DejaVuSans-37" d="M 525 4666 
L 3525 4666 
L 3525 4397 
L 1831 0 
L 1172 0 
L 2766 4134 
L 525 4134 
L 525 4666 
z
" transform="scale(0.015625)"/>
       </defs>
       <use xlink:href="#DejaVuSans-37"/>
       <use xlink:href="#DejaVuSans-35" transform="translate(63.623047 0)"/>
       <use xlink:href="#DejaVuSans-30" transform="translate(127.246094 0)"/>
      </g>
     </g>
    </g>
    <g id="xtick_4">
     <g id="line2d_7">
      <path d="M 352.648819 389.32 
L 352.648819 26.88 
" clip-path="url(#pb0b2bfb343)" style="fill: none; stroke: #b0b0b0; stroke-opacity: 0.3; stroke-width: 0.8; stroke-linecap: square"/>
     </g>
     <g id="line2d_8">
      <g>
       <use xlink:href="#m8b614613b6" x="352.648819" y="389.32" style="stroke: #000000; stroke-width: 0.8"/>
      </g>
     </g>
     <g id="text_4">
      <!-- 1000 -->
      <g transform="translate(339.923819 403.918437) scale(0.1 -0.1)">
       <defs>
        <path id="DejaVuSans-31" d="M 794 531 
L 1825 531 
L 1825 4091 
L 703 3866 
L 703 4441 
L 1819 4666 
L 2450 4666 
L 2450 531 
L 3481 531 
L 3481 0 
L 794 0 
L 794 531 
z
" transform="scale(0.015625)"/>
       </defs>
       <use xlink:href="#DejaVuSans-31"/>
       <use xlink:href="#DejaVuSans-30" transform="translate(63.623047 0)"/>
       <use xlink:href="#DejaVuSans-30" transform="translate(127.246094 0)"/>
       <use xlink:href="#DejaVuSans-30" transform="translate(190.869141 0)"/>
      </g>
     </g>
    </g>
    <g id="xtick_5">
     <g id="line2d_9">
      <path d="M 430.539238 389.32 
L 430.539238 26.88 
" clip-path="url(#pb0b2bfb343)" style="fill: none; stroke: #b0b0b0; stroke-opacity: 0.3; stroke-width: 0.8; stroke-linecap: square"/>
     </g>
     <g id="line2d_10">
      <g>
       <use xlink:href="#m8b614613b6" x="430.539238" y="389.32" style="stroke: #000000; stroke-width: 0.8"/>
      </g>
     </g>
     <g id="text_5">
      <!-- 1250 -->
      <g transform="translate(417.814238 403.918437) scale(0.1 -0.1)">
       <use xlink:href="#DejaVuSans-31"/>
       <use xlink:href="#DejaVuSans-32" transform="translate(63.623047 0)"/>
       <use xlink:href="#DejaVuSans-35" transform="translate(127.246094 0)"/>
       <use xlink:href="#DejaVuSans-30" transform="translate(190.869141 0)"/>
      </g>
     </g>
    </g>
    <g id="xtick_6">
     <g id="line2d_11">
      <path d="M 508.429657 389.32 
L 508.429657 26.88 
" clip-path="url(#pb0b2bfb343)" style="fill: none; stroke: #b0b0b0; stroke-opacity: 0.3; stroke-width: 0.8; stroke-linecap: square"/>
     </g>
     <g id="line2d_12">
      <g>
       <use xlink:href="#m8b614613b6" x="508.429657" y="389.32" style="stroke: #000000; stroke-width: 0.8"/>
      </g>
     </g>
     <g id="text_6">
      <!-- 1500 -->
      <g transform="translate(495.704657 403.918437) scale(0.1 -0.1)">
       <use xlink:href="#DejaVuSans-31"/>
       <use xlink:href="#DejaVuSans-35" transform="translate(63.623047 0)"/>
       <use xlink:href="#DejaVuSans-30" transform="translate(127.246094 0)"/>
       <use xlink:href="#DejaVuSans-30" transform="translate(190.869141 0)"/>
      </g>
     </g>
    </g>
    <g id="xtick_7">
     <g id="line2d_13">
      <path d="M 586.320075 389.32 
L 586.320075 26.88 
" clip-path="url(#pb0b2bfb343)" style="fill: none; stroke: #b0b0b0; stroke-opacity: 0.3; stroke-width: 0.8; stroke-linecap: square"/>
     </g>
     <g id="line2d_14">
      <g>
       <use xlink:href="#m8b614613b6" x="586.320075" y="389.32" style="stroke: #000000; stroke-width: 0.8"/>
      </g>
     </g>
     <g id="text_7">
      <!-- 1750 -->
      <g transform="translate(573.595075 403.918437) scale(0.1 -0.1)">
       <use xlink:href="#DejaVuSans-31"/>
       <use xlink:href="#DejaVuSans-37" transform="translate(63.623047 0)"/>
       <use xlink:href="#DejaVuSans-35" transform="translate(127.246094 0)"/>
       <use xlink:href="#DejaVuSans-30" transform="translate(190.869141 0)"/>
      </g>
     </g>
    </g>
    <g id="xtick_8">
     <g id="line2d_15">
      <path d="M 664.210494 389.32 
L 664.210494 26.88 
" clip-path="url(#pb0b2bfb343)" style="fill: none; stroke: #b0b0b0; stroke-opacity: 0.3; stroke-width: 0.8; stroke-linecap: square"/>
     </g>
     <g id="line2d_16">
      <g>
       <use xlink:href="#m8b614613b6" x="664.210494" y="389.32" style="stroke: #000000; stroke-width: 0.8"/>
      </g>
     </g>
     <g id="text_8">
      <!-- 2000 -->
      <g transform="translate(651.485494 403.918437) scale(0.1 -0.1)">
       <use xlink:href="#DejaVuSans-32"/>
       <use xlink:href="#DejaVuSans-30" transform="translate(63.623047 0)"/>
       <use xlink:href="#DejaVuSans-30" transform="translate(127.246094 0)"/>
       <use xlink:href="#DejaVuSans-30" transform="translate(190.869141 0)"/>
      </g>
     </g>
    </g>
    <g id="text_9">
     <!-- Resolution -->
     <g transform="translate(350.0825 418.356406) scale(0.11 -0.11)">
      <defs>
       <path id="DejaVuSans-52" d="M 2841 2188 
Q 3044 2119 3236 1894 
Q 3428 1669 3622 1275 
L 4263 0 
L 3584 0 
L 2988 1197 
Q 2756 1666 2539 1819 
Q 2322 1972 1947 1972 
L 1259 1972 
L 1259 0 
L 628 0 
L 628 4666 
L 2053 4666 
Q 2853 4666 3247 4331 
Q 3641 3997 3641 3322 
Q 3641 2881 3436 2590 
Q 3231 2300 2841 2188 
z
M 1259 4147 
L 1259 2491 
L 2053 2491 
Q 2509 2491 2742 2702 
Q 2975 2913 2975 3322 
Q 2975 3731 2742 3939 
Q 2509 4147 2053 4147 
L 1259 4147 
z
" transform="scale(0.015625)"/>
       <path id="DejaVuSans-65" d="M 3597 1894 
L 3597 1613 
L 953 1613 
Q 991 1019 1311 708 
Q 1631 397 2203 397 
Q 2534 397 2845 478 
Q 3156 559 3463 722 
L 3463 178 
Q 3153 47 2828 -22 
Q 2503 -91 2169 -91 
Q 1331 -91 842 396 
Q 353 884 353 1716 
Q 353 2575 817 3079 
Q 1281 3584 2069 3584 
Q 2775 3584 3186 3129 
Q 3597 2675 3597 1894 
z
M 3022 2063 
Q 3016 2534 2758 2815 
Q 2500 3097 2075 3097 
Q 1594 3097 1305 2825 
Q 1016 2553 972 2059 
L 3022 2063 
z
" transform="scale(0.015625)"/>
       <path id="DejaVuSans-73" d="M 2834 3397 
L 2834 2853 
Q 2591 2978 2328 3040 
Q 2066 3103 1784 3103 
Q 1356 3103 1142 2972 
Q 928 2841 928 2578 
Q 928 2378 1081 2264 
Q 1234 2150 1697 2047 
L 1894 2003 
Q 2506 1872 2764 1633 
Q 3022 1394 3022 966 
Q 3022 478 2636 193 
Q 2250 -91 1575 -91 
Q 1294 -91 989 -36 
Q 684 19 347 128 
L 347 722 
Q 666 556 975 473 
Q 1284 391 1588 391 
Q 1994 391 2212 530 
Q 2431 669 2431 922 
Q 2431 1156 2273 1281 
Q 2116 1406 1581 1522 
L 1381 1569 
Q 847 1681 609 1914 
Q 372 2147 372 2553 
Q 372 3047 722 3315 
Q 1072 3584 1716 3584 
Q 2034 3584 2315 3537 
Q 2597 3491 2834 3397 
z
" transform="scale(0.015625)"/>
       <path id="DejaVuSans-6f" d="M 1959 3097 
Q 1497 3097 1228 2736 
Q 959 2375 959 1747 
Q 959 1119 1226 758 
Q 1494 397 1959 397 
Q 2419 397 2687 759 
Q 2956 1122 2956 1747 
Q 2956 2369 2687 2733 
Q 2419 3097 1959 3097 
z
M 1959 3584 
Q 2709 3584 3137 3096 
Q 3566 2609 3566 1747 
Q 3566 888 3137 398 
Q 2709 -91 1959 -91 
Q 1206 -91 779 398 
Q 353 888 353 1747 
Q 353 2609 779 3096 
Q 1206 3584 1959 3584 
z
" transform="scale(0.015625)"/>
       <path id="DejaVuSans-6c" d="M 603 4863 
L 1178 4863 
L 1178 0 
L 603 0 
L 603 4863 
z
" transform="scale(0.015625)"/>
       <path id="DejaVuSans-75" d="M 544 1381 
L 544 3500 
L 1119 3500 
L 1119 1403 
Q 1119 906 1312 657 
Q 1506 409 1894 409 
Q 2359 409 2629 706 
Q 2900 1003 2900 1516 
L 2900 3500 
L 3475 3500 
L 3475 0 
L 2900 0 
L 2900 538 
Q 2691 219 2414 64 
Q 2138 -91 1772 -91 
Q 1169 -91 856 284 
Q 544 659 544 1381 
z
M 1991 3584 
L 1991 3584 
z
" transform="scale(0.015625)"/>
       <path id="DejaVuSans-74" d="M 1172 4494 
L 1172 3500 
L 2356 3500 
L 2356 3053 
L 1172 3053 
L 1172 1153 
Q 1172 725 1289 603 
Q 1406 481 1766 481 
L 2356 481 
L 2356 0 
L 1766 0 
Q 1100 0 847 248 
Q 594 497 594 1153 
L 594 3053 
L 172 3053 
L 172 3500 
L 594 3500 
L 594 4494 
L 1172 4494 
z
" transform="scale(0.015625)"/>
       <path id="DejaVuSans-69" d="M 603 3500 
L 1178 3500 
L 1178 0 
L 603 0 
L 603 3500 
z
M 603 4863 
L 1178 4863 
L 1178 4134 
L 603 4134 
L 603 4863 
z
" transform="scale(0.015625)"/>
       <path id="DejaVuSans-6e" d="M 3513 2113 
L 3513 0 
L 2938 0 
L 2938 2094 
Q 2938 2591 2744 2837 
Q 2550 3084 2163 3084 
Q 1697 3084 1428 2787 
Q 1159 2491 1159 1978 
L 1159 0 
L 581 0 
L 581 3500 
L 1159 3500 
L 1159 2956 
Q 1366 3272 1645 3428 
Q 1925 3584 2291 3584 
Q 2894 3584 3203 3211 
Q 3513 2838 3513 2113 
z
" transform="scale(0.015625)"/>
      </defs>
      <use xlink:href="#DejaVuSans-52"/>
      <use xlink:href="#DejaVuSans-65" transform="translate(64.982422 0)"/>
      <use xlink:href="#DejaVuSans-73" transform="translate(126.505859 0)"/>
      <use xlink:href="#DejaVuSans-6f" transform="translate(178.605469 0)"/>
      <use xlink:href="#DejaVuSans-6c" transform="translate(239.787109 0)"/>
      <use xlink:href="#DejaVuSans-75" transform="translate(267.570312 0)"/>
      <use xlink:href="#DejaVuSans-74" transform="translate(330.949219 0)"/>
      <use xlink:href="#DejaVuSans-69" transform="translate(370.158203 0)"/>
      <use xlink:href="#DejaVuSans-6f" transform="translate(397.941406 0)"/>
      <use xlink:href="#DejaVuSans-6e" transform="translate(459.123047 0)"/>
     </g>
    </g>
   </g>
   <g id="matplotlib.axis_2">
    <g id="ytick_1">
     <g id="line2d_17">
      <path d="M 48.44 348.081287 
L 709.2 348.081287 
" clip-path="url(#pb0b2bfb343)" style="fill: none; stroke: #b0b0b0; stroke-opacity: 0.3; stroke-width: 0.8; stroke-linecap: square"/>
     </g>
     <g id="line2d_18">
      <defs>
       <path id="mac037268b4" d="M 0 0 
L -3.5 0 
" style="stroke: #000000; stroke-width: 0.8"/>
      </defs>
      <g>
       <use xlink:href="#mac037268b4" x="48.44" y="348.081287" style="stroke: #000000; stroke-width: 0.8"/>
      </g>
     </g>
     <g id="text_10">
      <!-- 0.2 -->
      <g transform="translate(25.536875 351.880506) scale(0.1 -0.1)">
       <defs>
        <path id="DejaVuSans-2e" d="M 684 794 
L 1344 794 
L 1344 0 
L 684 0 
L 684 794 
z
" transform="scale(0.015625)"/>
       </defs>
       <use xlink:href="#DejaVuSans-30"/>
       <use xlink:href="#DejaVuSans-2e" transform="translate(63.623047 0)"/>
       <use xlink:href="#DejaVuSans-32" transform="translate(95.410156 0)"/>
      </g>
     </g>
    </g>
    <g id="ytick_2">
     <g id="line2d_19">
      <path d="M 48.44 281.542872 
L 709.2 281.542872 
" clip-path="url(#pb0b2bfb343)" style="fill: none; stroke: #b0b0b0; stroke-opacity: 0.3; stroke-width: 0.8; stroke-linecap: square"/>
     </g>
     <g id="line2d_20">
      <g>
       <use xlink:href="#mac037268b4" x="48.44" y="281.542872" style="stroke: #000000; stroke-width: 0.8"/>
      </g>
     </g>
     <g id="text_11">
      <!-- 0.3 -->
      <g transform="translate(25.536875 285.342091) scale(0.1 -0.1)">
       <defs>
        <path id="DejaVuSans-33" d="M 2597 2516 
Q 3050 2419 3304 2112 
Q 3559 1806 3559 1356 
Q 3559 666 3084 287 
Q 2609 -91 1734 -91 
Q 1441 -91 1130 -33 
Q 819 25 488 141 
L 488 750 
Q 750 597 1062 519 
Q 1375 441 1716 441 
Q 2309 441 2620 675 
Q 2931 909 2931 1356 
Q 2931 1769 2642 2001 
Q 2353 2234 1838 2234 
L 1294 2234 
L 1294 2753 
L 1863 2753 
Q 2328 2753 2575 2939 
Q 2822 3125 2822 3475 
Q 2822 3834 2567 4026 
Q 2313 4219 1838 4219 
Q 1578 4219 1281 4162 
Q 984 4106 628 3988 
L 628 4550 
Q 988 4650 1302 4700 
Q 1616 4750 1894 4750 
Q 2613 4750 3031 4423 
Q 3450 4097 3450 3541 
Q 3450 3153 3228 2886 
Q 3006 2619 2597 2516 
z
" transform="scale(0.015625)"/>
       </defs>
       <use xlink:href="#DejaVuSans-30"/>
       <use xlink:href="#DejaVuSans-2e" transform="translate(63.623047 0)"/>
       <use xlink:href="#DejaVuSans-33" transform="translate(95.410156 0)"/>
      </g>
     </g>
    </g>
    <g id="ytick_3">
     <g id="line2d_21">
      <path d="M 48.44 215.004457 
L 709.2 215.004457 
" clip-path="url(#pb0b2bfb343)" style="fill: none; stroke: #b0b0b0; stroke-opacity: 0.3; stroke-width: 0.8; stroke-linecap: square"/>
     </g>
     <g id="line2d_22">
      <g>
       <use xlink:href="#mac037268b4" x="48.44" y="215.004457" style="stroke: #000000; stroke-width: 0.8"/>
      </g>
     </g>
     <g id="text_12">
      <!-- 0.4 -->
      <g transform="translate(25.536875 218.803676) scale(0.1 -0.1)">
       <defs>
        <path id="DejaVuSans-34" d="M 2419 4116 
L 825 1625 
L 2419 1625 
L 2419 4116 
z
M 2253 4666 
L 3047 4666 
L 3047 1625 
L 3713 1625 
L 3713 1100 
L 3047 1100 
L 3047 0 
L 2419 0 
L 2419 1100 
L 313 1100 
L 313 1709 
L 2253 4666 
z
" transform="scale(0.015625)"/>
       </defs>
       <use xlink:href="#DejaVuSans-30"/>
       <use xlink:href="#DejaVuSans-2e" transform="translate(63.623047 0)"/>
       <use xlink:href="#DejaVuSans-34" transform="translate(95.410156 0)"/>
      </g>
     </g>
    </g>
    <g id="ytick_4">
     <g id="line2d_23">
      <path d="M 48.44 148.466042 
L 709.2 148.466042 
" clip-path="url(#pb0b2bfb343)" style="fill: none; stroke: #b0b0b0; stroke-opacity: 0.3; stroke-width: 0.8; stroke-linecap: square"/>
     </g>
     <g id="line2d_24">
      <g>
       <use xlink:href="#mac037268b4" x="48.44" y="148.466042" style="stroke: #000000; stroke-width: 0.8"/>
      </g>
     </g>
     <g id="text_13">
      <!-- 0.5 -->
      <g transform="translate(25.536875 152.265261) scale(0.1 -0.1)">
       <use xlink:href="#DejaVuSans-30"/>
       <use xlink:href="#DejaVuSans-2e" transform="translate(63.623047 0)"/>
       <use xlink:href="#DejaVuSans-35" transform="translate(95.410156 0)"/>
      </g>
     </g>
    </g>
    <g id="ytick_5">
     <g id="line2d_25">
      <path d="M 48.44 81.927628 
L 709.2 81.927628 
" clip-path="url(#pb0b2bfb343)" style="fill: none; stroke: #b0b0b0; stroke-opacity: 0.3; stroke-width: 0.8; stroke-linecap: square"/>
     </g>
     <g id="line2d_26">
      <g>
       <use xlink:href="#mac037268b4" x="48.44" y="81.927628" style="stroke: #000000; stroke-width: 0.8"/>
      </g>
     </g>
     <g id="text_14">
      <!-- 0.6 -->
      <g transform="translate(25.536875 85.726846) scale(0.1 -0.1)">
       <defs>
        <path id="DejaVuSans-36" d="M 2113 2584 
Q 1688 2584 1439 2293 
Q 1191 2003 1191 1497 
Q 1191 994 1439 701 
Q 1688 409 2113 409 
Q 2538 409 2786 701 
Q 3034 994 3034 1497 
Q 3034 2003 2786 2293 
Q 2538 2584 2113 2584 
z
M 3366 4563 
L 3366 3988 
Q 3128 4100 2886 4159 
Q 2644 4219 2406 4219 
Q 1781 4219 1451 3797 
Q 1122 3375 1075 2522 
Q 1259 2794 1537 2939 
Q 1816 3084 2150 3084 
Q 2853 3084 3261 2657 
Q 3669 2231 3669 1497 
Q 3669 778 3244 343 
Q 2819 -91 2113 -91 
Q 1303 -91 875 529 
Q 447 1150 447 2328 
Q 447 3434 972 4092 
Q 1497 4750 2381 4750 
Q 2619 4750 2861 4703 
Q 3103 4656 3366 4563 
z
" transform="scale(0.015625)"/>
       </defs>
       <use xlink:href="#DejaVuSans-30"/>
       <use xlink:href="#DejaVuSans-2e" transform="translate(63.623047 0)"/>
       <use xlink:href="#DejaVuSans-36" transform="translate(95.410156 0)"/>
      </g>
     </g>
    </g>
    <g id="text_15">
     <!-- Bytes Per Ssim Per Pixel (lower is better) -->
     <g transform="translate(19.249219 319.807578) rotate(-90) scale(0.11 -0.11)">
      <defs>
       <path id="DejaVuSans-42" d="M 1259 2228 
L 1259 519 
L 2272 519 
Q 2781 519 3026 730 
Q 3272 941 3272 1375 
Q 3272 1813 3026 2020 
Q 2781 2228 2272 2228 
L 1259 2228 
z
M 1259 4147 
L 1259 2741 
L 2194 2741 
Q 2656 2741 2882 2914 
Q 3109 3088 3109 3444 
Q 3109 3797 2882 3972 
Q 2656 4147 2194 4147 
L 1259 4147 
z
M 628 4666 
L 2241 4666 
Q 2963 4666 3353 4366 
Q 3744 4066 3744 3513 
Q 3744 3084 3544 2831 
Q 3344 2578 2956 2516 
Q 3422 2416 3680 2098 
Q 3938 1781 3938 1306 
Q 3938 681 3513 340 
Q 3088 0 2303 0 
L 628 0 
L 628 4666 
z
" transform="scale(0.015625)"/>
       <path id="DejaVuSans-79" d="M 2059 -325 
Q 1816 -950 1584 -1140 
Q 1353 -1331 966 -1331 
L 506 -1331 
L 506 -850 
L 844 -850 
Q 1081 -850 1212 -737 
Q 1344 -625 1503 -206 
L 1606 56 
L 191 3500 
L 800 3500 
L 1894 763 
L 2988 3500 
L 3597 3500 
L 2059 -325 
z
" transform="scale(0.015625)"/>
       <path id="DejaVuSans-20" transform="scale(0.015625)"/>
       <path id="DejaVuSans-50" d="M 1259 4147 
L 1259 2394 
L 2053 2394 
Q 2494 2394 2734 2622 
Q 2975 2850 2975 3272 
Q 2975 3691 2734 3919 
Q 2494 4147 2053 4147 
L 1259 4147 
z
M 628 4666 
L 2053 4666 
Q 2838 4666 3239 4311 
Q 3641 3956 3641 3272 
Q 3641 2581 3239 2228 
Q 2838 1875 2053 1875 
L 1259 1875 
L 1259 0 
L 628 0 
L 628 4666 
z
" transform="scale(0.015625)"/>
       <path id="DejaVuSans-72" d="M 2631 2963 
Q 2534 3019 2420 3045 
Q 2306 3072 2169 3072 
Q 1681 3072 1420 2755 
Q 1159 2438 1159 1844 
L 1159 0 
L 581 0 
L 581 3500 
L 1159 3500 
L 1159 2956 
Q 1341 3275 1631 3429 
Q 1922 3584 2338 3584 
Q 2397 3584 2469 3576 
Q 2541 3569 2628 3553 
L 2631 2963 
z
" transform="scale(0.015625)"/>
       <path id="DejaVuSans-53" d="M 3425 4513 
L 3425 3897 
Q 3066 4069 2747 4153 
Q 2428 4238 2131 4238 
Q 1616 4238 1336 4038 
Q 1056 3838 1056 3469 
Q 1056 3159 1242 3001 
Q 1428 2844 1947 2747 
L 2328 2669 
Q 3034 2534 3370 2195 
Q 3706 1856 3706 1288 
Q 3706 609 3251 259 
Q 2797 -91 1919 -91 
Q 1588 -91 1214 -16 
Q 841 59 441 206 
L 441 856 
Q 825 641 1194 531 
Q 1563 422 1919 422 
Q 2459 422 2753 634 
Q 3047 847 3047 1241 
Q 3047 1584 2836 1778 
Q 2625 1972 2144 2069 
L 1759 2144 
Q 1053 2284 737 2584 
Q 422 2884 422 3419 
Q 422 4038 858 4394 
Q 1294 4750 2059 4750 
Q 2388 4750 2728 4690 
Q 3069 4631 3425 4513 
z
" transform="scale(0.015625)"/>
       <path id="DejaVuSans-6d" d="M 3328 2828 
Q 3544 3216 3844 3400 
Q 4144 3584 4550 3584 
Q 5097 3584 5394 3201 
Q 5691 2819 5691 2113 
L 5691 0 
L 5113 0 
L 5113 2094 
Q 5113 2597 4934 2840 
Q 4756 3084 4391 3084 
Q 3944 3084 3684 2787 
Q 3425 2491 3425 1978 
L 3425 0 
L 2847 0 
L 2847 2094 
Q 2847 2600 2669 2842 
Q 2491 3084 2119 3084 
Q 1678 3084 1418 2786 
Q 1159 2488 1159 1978 
L 1159 0 
L 581 0 
L 581 3500 
L 1159 3500 
L 1159 2956 
Q 1356 3278 1631 3431 
Q 1906 3584 2284 3584 
Q 2666 3584 2933 3390 
Q 3200 3197 3328 2828 
z
" transform="scale(0.015625)"/>
       <path id="DejaVuSans-78" d="M 3513 3500 
L 2247 1797 
L 3578 0 
L 2900 0 
L 1881 1375 
L 863 0 
L 184 0 
L 1544 1831 
L 300 3500 
L 978 3500 
L 1906 2253 
L 2834 3500 
L 3513 3500 
z
" transform="scale(0.015625)"/>
       <path id="DejaVuSans-28" d="M 1984 4856 
Q 1566 4138 1362 3434 
Q 1159 2731 1159 2009 
Q 1159 1288 1364 580 
Q 1569 -128 1984 -844 
L 1484 -844 
Q 1016 -109 783 600 
Q 550 1309 550 2009 
Q 550 2706 781 3412 
Q 1013 4119 1484 4856 
L 1984 4856 
z
" transform="scale(0.015625)"/>
       <path id="DejaVuSans-77" d="M 269 3500 
L 844 3500 
L 1563 769 
L 2278 3500 
L 2956 3500 
L 3675 769 
L 4391 3500 
L 4966 3500 
L 4050 0 
L 3372 0 
L 2619 2869 
L 1863 0 
L 1184 0 
L 269 3500 
z
" transform="scale(0.015625)"/>
       <path id="DejaVuSans-62" d="M 3116 1747 
Q 3116 2381 2855 2742 
Q 2594 3103 2138 3103 
Q 1681 3103 1420 2742 
Q 1159 2381 1159 1747 
Q 1159 1113 1420 752 
Q 1681 391 2138 391 
Q 2594 391 2855 752 
Q 3116 1113 3116 1747 
z
M 1159 2969 
Q 1341 3281 1617 3432 
Q 1894 3584 2278 3584 
Q 2916 3584 3314 3078 
Q 3713 2572 3713 1747 
Q 3713 922 3314 415 
Q 2916 -91 2278 -91 
Q 1894 -91 1617 61 
Q 1341 213 1159 525 
L 1159 0 
L 581 0 
L 581 4863 
L 1159 4863 
L 1159 2969 
z
" transform="scale(0.015625)"/>
       <path id="DejaVuSans-29" d="M 513 4856 
L 1013 4856 
Q 1481 4119 1714 3412 
Q 1947 2706 1947 2009 
Q 1947 1309 1714 600 
Q 1481 -109 1013 -844 
L 513 -844 
Q 928 -128 1133 580 
Q 1338 1288 1338 2009 
Q 1338 2731 1133 3434 
Q 928 4138 513 4856 
z
" transform="scale(0.015625)"/>
      </defs>
      <use xlink:href="#DejaVuSans-42"/>
      <use xlink:href="#DejaVuSans-79" transform="translate(68.603516 0)"/>
      <use xlink:href="#DejaVuSans-74" transform="translate(127.783203 0)"/>
      <use xlink:href="#DejaVuSans-65" transform="translate(166.992188 0)"/>
      <use xlink:href="#DejaVuSans-73" transform="translate(228.515625 0)"/>
      <use xlink:href="#DejaVuSans-20" transform="translate(280.615234 0)"/>
      <use xlink:href="#DejaVuSans-50" transform="translate(312.402344 0)"/>
      <use xlink:href="#DejaVuSans-65" transform="translate(369.080078 0)"/>
      <use xlink:href="#DejaVuSans-72" transform="translate(430.603516 0)"/>
      <use xlink:href="#DejaVuSans-20" transform="translate(471.716797 0)"/>
      <use xlink:href="#DejaVuSans-53" transform="translate(503.503906 0)"/>
      <use xlink:href="#DejaVuSans-73" transform="translate(566.980469 0)"/>
      <use xlink:href="#DejaVuSans-69" transform="translate(619.080078 0)"/>
      <use xlink:href="#DejaVuSans-6d" transform="translate(646.863281 0)"/>
      <use xlink:href="#DejaVuSans-20" transform="translate(744.275391 0)"/>
      <use xlink:href="#DejaVuSans-50" transform="translate(776.0625 0)"/>
      <use xlink:href="#DejaVuSans-65" transform="translate(832.740234 0)"/>
      <use xlink:href="#DejaVuSans-72" transform="translate(894.263672 0)"/>
      <use xlink:href="#DejaVuSans-20" transform="translate(935.376953 0)"/>
      <use xlink:href="#DejaVuSans-50" transform="translate(967.164062 0)"/>
      <use xlink:href="#DejaVuSans-69" transform="translate(1025.216797 0)"/>
      <use xlink:href="#DejaVuSans-78" transform="translate(1053 0)"/>
      <use xlink:href="#DejaVuSans-65" transform="translate(1109.054688 0)"/>
      <use xlink:href="#DejaVuSans-6c" transform="translate(1170.578125 0)"/>
      <use xlink:href="#DejaVuSans-20" transform="translate(1198.361328 0)"/>
      <use xlink:href="#DejaVuSans-28" transform="translate(1230.148438 0)"/>
      <use xlink:href="#DejaVuSans-6c" transform="translate(1269.162109 0)"/>
      <use xlink:href="#DejaVuSans-6f" transform="translate(1296.945312 0)"/>
      <use xlink:href="#DejaVuSans-77" transform="translate(1358.126953 0)"/>
      <use xlink:href="#DejaVuSans-65" transform="translate(1439.914062 0)"/>
      <use xlink:href="#DejaVuSans-72" transform="translate(1501.4375 0)"/>
      <use xlink:href="#DejaVuSans-20" transform="translate(1542.550781 0)"/>
      <use xlink:href="#DejaVuSans-69" transform="translate(1574.337891 0)"/>
      <use xlink:href="#DejaVuSans-73" transform="translate(1602.121094 0)"/>
      <use xlink:href="#DejaVuSans-20" transform="translate(1654.220703 0)"/>
      <use xlink:href="#DejaVuSans-62" transform="translate(1686.007812 0)"/>
      <use xlink:href="#DejaVuSans-65" transform="translate(1749.484375 0)"/>
      <use xlink:href="#DejaVuSans-74" transform="translate(1811.007812 0)"/>
      <use xlink:href="#DejaVuSans-74" transform="translate(1850.216797 0)"/>
      <use xlink:href="#DejaVuSans-65" transform="translate(1889.425781 0)"/>
      <use xlink:href="#DejaVuSans-72" transform="translate(1950.949219 0)"/>
      <use xlink:href="#DejaVuSans-29" transform="translate(1992.0625 0)"/>
     </g>
    </g>
   </g>
   <g id="line2d_27">
    <path d="M 78.474545 177.015929 
L 90.937012 214.627637 
L 103.399479 239.580174 
L 115.861946 255.616004 
L 140.78688 277.682281 
L 190.636748 304.063321 
L 265.41155 322.040834 
L 439.886088 348.792631 
L 679.165455 371.51219 
" clip-path="url(#pb0b2bfb343)" style="fill: none; stroke: #1f77b4; stroke-width: 1.5; stroke-linecap: square"/>
    <defs>
     <path id="m13f8fd7d5d" d="M 0 3.5 
C 0.928211 3.5 1.81853 3.131218 2.474874 2.474874 
C 3.131218 1.81853 3.5 0.928211 3.5 0 
C 3.5 -0.928211 3.131218 -1.81853 2.474874 -2.474874 
C 1.81853 -3.131218 0.928211 -3.5 0 -3.5 
C -0.928211 -3.5 -1.81853 -3.131218 -2.474874 -2.474874 
C -3.131218 -1.81853 -3.5 -0.928211 -3.5 0 
C -3.5 0.928211 -3.131218 1.81853 -2.474874 2.474874 
C -1.81853 3.131218 -0.928211 3.5 0 3.5 
z
" style="stroke: #1f77b4"/>
    </defs>
    <g clip-path="url(#pb0b2bfb343)">
     <use xlink:href="#m13f8fd7d5d" x="78.474545" y="177.015929" style="fill: #1f77b4; stroke: #1f77b4"/>
     <use xlink:href="#m13f8fd7d5d" x="90.937012" y="214.627637" style="fill: #1f77b4; stroke: #1f77b4"/>
     <use xlink:href="#m13f8fd7d5d" x="103.399479" y="239.580174" style="fill: #1f77b4; stroke: #1f77b4"/>
     <use xlink:href="#m13f8fd7d5d" x="115.861946" y="255.616004" style="fill: #1f77b4; stroke: #1f77b4"/>
     <use xlink:href="#m13f8fd7d5d" x="140.78688" y="277.682281" style="fill: #1f77b4; stroke: #1f77b4"/>
     <use xlink:href="#m13f8fd7d5d" x="190.636748" y="304.063321" style="fill: #1f77b4; stroke: #1f77b4"/>
     <use xlink:href="#m13f8fd7d5d" x="265.41155" y="322.040834" style="fill: #1f77b4; stroke: #1f77b4"/>
     <use xlink:href="#m13f8fd7d5d" x="439.886088" y="348.792631" style="fill: #1f77b4; stroke: #1f77b4"/>
     <use xlink:href="#m13f8fd7d5d" x="679.165455" y="371.51219" style="fill: #1f77b4; stroke: #1f77b4"/>
    </g>
   </g>
   <g id="line2d_28">
    <path d="M 78.474545 43.354545 
L 90.937012 100.613025 
L 103.399479 148.045512 
L 115.861946 160.535442 
L 140.78688 181.65496 
L 190.636748 202.257595 
L 265.41155 213.596381 
L 439.886088 225.704164 
L 679.165455 241.196201 
" clip-path="url(#pb0b2bfb343)" style="fill: none; stroke-dasharray: 5.55,2.4; stroke-dashoffset: 0; stroke: #1f77b4; stroke-width: 1.5"/>
    <defs>
     <path id="m01bdc6abac" d="M 0 3.5 
C 0.928211 3.5 1.81853 3.131218 2.474874 2.474874 
C 3.131218 1.81853 3.5 0.928211 3.5 0 
C 3.5 -0.928211 3.131218 -1.81853 2.474874 -2.474874 
C 1.81853 -3.131218 0.928211 -3.5 0 -3.5 
C -0.928211 -3.5 -1.81853 -3.131218 -2.474874 -2.474874 
C -3.131218 -1.81853 -3.5 -0.928211 -3.5 0 
C -3.5 0.928211 -3.131218 1.81853 -2.474874 2.474874 
C -1.81853 3.131218 -0.928211 3.5 0 3.5 
z
" style="stroke: #1f77b4"/>
    </defs>
    <g clip-path="url(#pb0b2bfb343)">
     <use xlink:href="#m01bdc6abac" x="78.474545" y="43.354545" style="fill-opacity: 0; stroke: #1f77b4"/>
     <use xlink:href="#m01bdc6abac" x="90.937012" y="100.613025" style="fill-opacity: 0; stroke: #1f77b4"/>
     <use xlink:href="#m01bdc6abac" x="103.399479" y="148.045512" style="fill-opacity: 0; stroke: #1f77b4"/>
     <use xlink:href="#m01bdc6abac" x="115.861946" y="160.535442" style="fill-opacity: 0; stroke: #1f77b4"/>
     <use xlink:href="#m01bdc6abac" x="140.78688" y="181.65496" style="fill-opacity: 0; stroke: #1f77b4"/>
     <use xlink:href="#m01bdc6abac" x="190.636748" y="202.257595" style="fill-opacity: 0; stroke: #1f77b4"/>
     <use xlink:href="#m01bdc6abac" x="265.41155" y="213.596381" style="fill-opacity: 0; stroke: #1f77b4"/>
     <use xlink:href="#m01bdc6abac" x="439.886088" y="225.704164" style="fill-opacity: 0; stroke: #1f77b4"/>
     <use xlink:href="#m01bdc6abac" x="679.165455" y="241.196201" style="fill-opacity: 0; stroke: #1f77b4"/>
    </g>
   </g>
   <g id="line2d_29">
    <path d="M 78.474545 142.008682 
L 90.937012 182.013238 
L 103.399479 204.6982 
L 115.861946 222.478924 
L 140.78688 240.854955 
L 190.636748 264.77999 
L 265.41155 281.762604 
L 439.886088 305.949521 
L 679.165455 325.57625 
" clip-path="url(#pb0b2bfb343)" style="fill: none; stroke: #ff7f0e; stroke-width: 1.5; stroke-linecap: square"/>
    <defs>
     <path id="m9832a3e36a" d="M -3.5 3.5 
L 3.5 3.5 
L 3.5 -3.5 
L -3.5 -3.5 
z
" style="stroke: #ff7f0e; stroke-linejoin: miter"/>
    </defs>
    <g clip-path="url(#pb0b2bfb343)">
     <use xlink:href="#m9832a3e36a" x="78.474545" y="142.008682" style="fill: #ff7f0e; stroke: #ff7f0e; stroke-linejoin: miter"/>
     <use xlink:href="#m9832a3e36a" x="90.937012" y="182.013238" style="fill: #ff7f0e; stroke: #ff7f0e; stroke-linejoin: miter"/>
     <use xlink:href="#m9832a3e36a" x="103.399479" y="204.6982" style="fill: #ff7f0e; stroke: #ff7f0e; stroke-linejoin: miter"/>
     <use xlink:href="#m9832a3e36a" x="115.861946" y="222.478924" style="fill: #ff7f0e; stroke: #ff7f0e; stroke-linejoin: miter"/>
     <use xlink:href="#m9832a3e36a" x="140.78688" y="240.854955" style="fill: #ff7f0e; stroke: #ff7f0e; stroke-linejoin: miter"/>
     <use xlink:href="#m9832a3e36a" x="190.636748" y="264.77999" style="fill: #ff7f0e; stroke: #ff7f0e; stroke-linejoin: miter"/>
     <use xlink:href="#m9832a3e36a" x="265.41155" y="281.762604" style="fill: #ff7f0e; stroke: #ff7f0e; stroke-linejoin: miter"/>
     <use xlink:href="#m9832a3e36a" x="439.886088" y="305.949521" style="fill: #ff7f0e; stroke: #ff7f0e; stroke-linejoin: miter"/>
     <use xlink:href="#m9832a3e36a" x="679.165455" y="325.57625" style="fill: #ff7f0e; stroke: #ff7f0e; stroke-linejoin: miter"/>
    </g>
   </g>
   <g id="line2d_30">
    <path d="M 78.474545 45.974651 
L 90.937012 94.137721 
L 103.399479 130.124955 
L 115.861946 159.457766 
L 140.78688 179.119565 
L 190.636748 196.783582 
L 265.41155 205.831401 
L 439.886088 217.588935 
L 679.165455 229.147409 
" clip-path="url(#pb0b2bfb343)" style="fill: none; stroke-dasharray: 5.55,2.4; stroke-dashoffset: 0; stroke: #ff7f0e; stroke-width: 1.5"/>
    <defs>
     <path id="me56682ea96" d="M -3.5 3.5 
L 3.5 3.5 
L 3.5 -3.5 
L -3.5 -3.5 
z
" style="stroke: #ff7f0e; stroke-linejoin: miter"/>
    </defs>
    <g clip-path="url(#pb0b2bfb343)">
     <use xlink:href="#me56682ea96" x="78.474545" y="45.974651" style="fill-opacity: 0; stroke: #ff7f0e; stroke-linejoin: miter"/>
     <use xlink:href="#me56682ea96" x="90.937012" y="94.137721" style="fill-opacity: 0; stroke: #ff7f0e; stroke-linejoin: miter"/>
     <use xlink:href="#me56682ea96" x="103.399479" y="130.124955" style="fill-opacity: 0; stroke: #ff7f0e; stroke-linejoin: miter"/>
     <use xlink:href="#me56682ea96" x="115.861946" y="159.457766" style="fill-opacity: 0; stroke: #ff7f0e; stroke-linejoin: miter"/>
     <use xlink:href="#me56682ea96" x="140.78688" y="179.119565" style="fill-opacity: 0; stroke: #ff7f0e; stroke-linejoin: miter"/>
     <use xlink:href="#me56682ea96" x="190.636748" y="196.783582" style="fill-opacity: 0; stroke: #ff7f0e; stroke-linejoin: miter"/>
     <use xlink:href="#me56682ea96" x="265.41155" y="205.831401" style="fill-opacity: 0; stroke: #ff7f0e; stroke-linejoin: miter"/>
     <use xlink:href="#me56682ea96" x="439.886088" y="217.588935" style="fill-opacity: 0; stroke: #ff7f0e; stroke-linejoin: miter"/>
     <use xlink:href="#me56682ea96" x="679.165455" y="229.147409" style="fill-opacity: 0; stroke: #ff7f0e; stroke-linejoin: miter"/>
    </g>
   </g>
   <g id="line2d_31">
    <path d="M 78.474545 223.412355 
L 90.937012 248.079721 
L 103.399479 267.859183 
L 115.861946 281.429618 
L 140.78688 297.188847 
L 190.636748 319.504055 
L 265.41155 334.92711 
L 439.886088 356.691795 
L 679.165455 372.845455 
" clip-path="url(#pb0b2bfb343)" style="fill: none; stroke: #2ca02c; stroke-width: 1.5; stroke-linecap: square"/>
    <defs>
     <path id="mefb387bf21" d="M 0 -3.5 
L -3.5 3.5 
L 3.5 3.5 
z
" style="stroke: #2ca02c; stroke-linejoin: miter"/>
    </defs>
    <g clip-path="url(#pb0b2bfb343)">
     <use xlink:href="#mefb387bf21" x="78.474545" y="223.412355" style="fill: #2ca02c; stroke: #2ca02c; stroke-linejoin: miter"/>
     <use xlink:href="#mefb387bf21" x="90.937012" y="248.079721" style="fill: #2ca02c; stroke: #2ca02c; stroke-linejoin: miter"/>
     <use xlink:href="#mefb387bf21" x="103.399479" y="267.859183" style="fill: #2ca02c; stroke: #2ca02c; stroke-linejoin: miter"/>
     <use xlink:href="#mefb387bf21" x="115.861946" y="281.429618" style="fill: #2ca02c; stroke: #2ca02c; stroke-linejoin: miter"/>
     <use xlink:href="#mefb387bf21" x="140.78688" y="297.188847" style="fill: #2ca02c; stroke: #2ca02c; stroke-linejoin: miter"/>
     <use xlink:href="#mefb387bf21" x="190.636748" y="319.504055" style="fill: #2ca02c; stroke: #2ca02c; stroke-linejoin: miter"/>
     <use xlink:href="#mefb387bf21" x="265.41155" y="334.92711" style="fill: #2ca02c; stroke: #2ca02c; stroke-linejoin: miter"/>
     <use xlink:href="#mefb387bf21" x="439.886088" y="356.691795" style="fill: #2ca02c; stroke: #2ca02c; stroke-linejoin: miter"/>
     <use xlink:href="#mefb387bf21" x="679.165455" y="372.845455" style="fill: #2ca02c; stroke: #2ca02c; stroke-linejoin: miter"/>
    </g>
   </g>
   <g id="line2d_32">
    <path d="M 78.474545 169.958707 
L 90.937012 186.056002 
L 103.399479 212.93737 
L 115.861946 228.959233 
L 140.78688 241.529636 
L 190.636748 257.502315 
L 265.41155 267.376556 
L 439.886088 280.028605 
L 679.165455 289.66971 
" clip-path="url(#pb0b2bfb343)" style="fill: none; stroke-dasharray: 5.55,2.4; stroke-dashoffset: 0; stroke: #2ca02c; stroke-width: 1.5"/>
    <defs>
     <path id="mbf776f379a" d="M 0 -3.5 
L -3.5 3.5 
L 3.5 3.5 
z
" style="stroke: #2ca02c; stroke-linejoin: miter"/>
    </defs>
    <g clip-path="url(#pb0b2bfb343)">
     <use xlink:href="#mbf776f379a" x="78.474545" y="169.958707" style="fill-opacity: 0; stroke: #2ca02c; stroke-linejoin: miter"/>
     <use xlink:href="#mbf776f379a" x="90.937012" y="186.056002" style="fill-opacity: 0; stroke: #2ca02c; stroke-linejoin: miter"/>
     <use xlink:href="#mbf776f379a" x="103.399479" y="212.93737" style="fill-opacity: 0; stroke: #2ca02c; stroke-linejoin: miter"/>
     <use xlink:href="#mbf776f379a" x="115.861946" y="228.959233" style="fill-opacity: 0; stroke: #2ca02c; stroke-linejoin: miter"/>
     <use xlink:href="#mbf776f379a" x="140.78688" y="241.529636" style="fill-opacity: 0; stroke: #2ca02c; stroke-linejoin: miter"/>
     <use xlink:href="#mbf776f379a" x="190.636748" y="257.502315" style="fill-opacity: 0; stroke: #2ca02c; stroke-linejoin: miter"/>
     <use xlink:href="#mbf776f379a" x="265.41155" y="267.376556" style="fill-opacity: 0; stroke: #2ca02c; stroke-linejoin: miter"/>
     <use xlink:href="#mbf776f379a" x="439.886088" y="280.028605" style="fill-opacity: 0; stroke: #2ca02c; stroke-linejoin: miter"/>
     <use xlink:href="#mbf776f379a" x="679.165455" y="289.66971" style="fill-opacity: 0; stroke: #2ca02c; stroke-linejoin: miter"/>
    </g>
   </g>
   <g id="line2d_33">
    <path d="M 78.474545 176.435197 
L 90.937012 207.579191 
L 103.399479 224.426367 
L 115.861946 241.398238 
L 140.78688 258.191369 
L 190.636748 280.202463 
L 265.41155 296.634021 
L 439.886088 323.605021 
L 679.165455 345.449982 
" clip-path="url(#pb0b2bfb343)" style="fill: none; stroke: #d62728; stroke-width: 1.5; stroke-linecap: square"/>
    <defs>
     <path id="mcf5f3ed2a7" d="M -0 4.949747 
L 4.949747 0 
L 0 -4.949747 
L -4.949747 -0 
z
" style="stroke: #d62728; stroke-linejoin: miter"/>
    </defs>
    <g clip-path="url(#pb0b2bfb343)">
     <use xlink:href="#mcf5f3ed2a7" x="78.474545" y="176.435197" style="fill: #d62728; stroke: #d62728; stroke-linejoin: miter"/>
     <use xlink:href="#mcf5f3ed2a7" x="90.937012" y="207.579191" style="fill: #d62728; stroke: #d62728; stroke-linejoin: miter"/>
     <use xlink:href="#mcf5f3ed2a7" x="103.399479" y="224.426367" style="fill: #d62728; stroke: #d62728; stroke-linejoin: miter"/>
     <use xlink:href="#mcf5f3ed2a7" x="115.861946" y="241.398238" style="fill: #d62728; stroke: #d62728; stroke-linejoin: miter"/>
     <use xlink:href="#mcf5f3ed2a7" x="140.78688" y="258.191369" style="fill: #d62728; stroke: #d62728; stroke-linejoin: miter"/>
     <use xlink:href="#mcf5f3ed2a7" x="190.636748" y="280.202463" style="fill: #d62728; stroke: #d62728; stroke-linejoin: miter"/>
     <use xlink:href="#mcf5f3ed2a7" x="265.41155" y="296.634021" style="fill: #d62728; stroke: #d62728; stroke-linejoin: miter"/>
     <use xlink:href="#mcf5f3ed2a7" x="439.886088" y="323.605021" style="fill: #d62728; stroke: #d62728; stroke-linejoin: miter"/>
     <use xlink:href="#mcf5f3ed2a7" x="679.165455" y="345.449982" style="fill: #d62728; stroke: #d62728; stroke-linejoin: miter"/>
    </g>
   </g>
   <g id="line2d_34">
    <path d="M 78.474545 72.709325 
L 90.937012 121.909664 
L 103.399479 158.976956 
L 115.861946 180.67821 
L 140.78688 193.598202 
L 190.636748 204.900428 
L 265.41155 209.413839 
L 439.886088 225.78635 
L 679.165455 233.405023 
" clip-path="url(#pb0b2bfb343)" style="fill: none; stroke-dasharray: 5.55,2.4; stroke-dashoffset: 0; stroke: #d62728; stroke-width: 1.5"/>
    <defs>
     <path id="m348f94053e" d="M -0 4.949747 
L 4.949747 0 
L 0 -4.949747 
L -4.949747 -0 
z
" style="stroke: #d62728; stroke-linejoin: miter"/>
    </defs>
    <g clip-path="url(#pb0b2bfb343)">
     <use xlink:href="#m348f94053e" x="78.474545" y="72.709325" style="fill-opacity: 0; stroke: #d62728; stroke-linejoin: miter"/>
     <use xlink:href="#m348f94053e" x="90.937012" y="121.909664" style="fill-opacity: 0; stroke: #d62728; stroke-linejoin: miter"/>
     <use xlink:href="#m348f94053e" x="103.399479" y="158.976956" style="fill-opacity: 0; stroke: #d62728; stroke-linejoin: miter"/>
     <use xlink:href="#m348f94053e" x="115.861946" y="180.67821" style="fill-opacity: 0; stroke: #d62728; stroke-linejoin: miter"/>
     <use xlink:href="#m348f94053e" x="140.78688" y="193.598202" style="fill-opacity: 0; stroke: #d62728; stroke-linejoin: miter"/>
     <use xlink:href="#m348f94053e" x="190.636748" y="204.900428" style="fill-opacity: 0; stroke: #d62728; stroke-linejoin: miter"/>
     <use xlink:href="#m348f94053e" x="265.41155" y="209.413839" style="fill-opacity: 0; stroke: #d62728; stroke-linejoin: miter"/>
     <use xlink:href="#m348f94053e" x="439.886088" y="225.78635" style="fill-opacity: 0; stroke: #d62728; stroke-linejoin: miter"/>
     <use xlink:href="#m348f94053e" x="679.165455" y="233.405023" style="fill-opacity: 0; stroke: #d62728; stroke-linejoin: miter"/>
    </g>
   </g>
   <g id="patch_3">
    <path d="M 48.44 389.32 
L 48.44 26.88 
" style="fill: none; stroke: #000000; stroke-width: 0.8; stroke-linejoin: miter; stroke-linecap: square"/>
   </g>
   <g id="patch_4">
    <path d="M 709.2 389.32 
L 709.2 26.88 
" style="fill: none; stroke: #000000; stroke-width: 0.8; stroke-linejoin: miter; stroke-linecap: square"/>
   </g>
   <g id="patch_5">
    <path d="M 48.44 389.32 
L 709.2 389.32 
" style="fill: none; stroke: #000000; stroke-width: 0.8; stroke-linejoin: miter; stroke-linecap: square"/>
   </g>
   <g id="patch_6">
    <path d="M 48.44 26.88 
L 709.2 26.88 
" style="fill: none; stroke: #000000; stroke-width: 0.8; stroke-linejoin: miter; stroke-linecap: square"/>
   </g>
   <g id="text_16">
    <!-- Bytes Per Ssim Per Pixel vs Resolution -->
    <g transform="translate(265.07875 20.88) scale(0.12 -0.12)">
     <defs>
      <path id="DejaVuSans-76" d="M 191 3500 
L 800 3500 
L 1894 563 
L 2988 3500 
L 3597 3500 
L 2284 0 
L 1503 0 
L 191 3500 
z
" transform="scale(0.015625)"/>
     </defs>
     <use xlink:href="#DejaVuSans-42"/>
     <use xlink:href="#DejaVuSans-79" transform="translate(68.603516 0)"/>
     <use xlink:href="#DejaVuSans-74" transform="translate(127.783203 0)"/>
     <use xlink:href="#DejaVuSans-65" transform="translate(166.992188 0)"/>
     <use xlink:href="#DejaVuSans-73" transform="translate(228.515625 0)"/>
     <use xlink:href="#DejaVuSans-20" transform="translate(280.615234 0)"/>
     <use xlink:href="#DejaVuSans-50" transform="translate(312.402344 0)"/>
     <use xlink:href="#DejaVuSans-65" transform="translate(369.080078 0)"/>
     <use xlink:href="#DejaVuSans-72" transform="translate(430.603516 0)"/>
     <use xlink:href="#DejaVuSans-20" transform="translate(471.716797 0)"/>
     <use xlink:href="#DejaVuSans-53" transform="translate(503.503906 0)"/>
     <use xlink:href="#DejaVuSans-73" transform="translate(566.980469 0)"/>
     <use xlink:href="#DejaVuSans-69" transform="translate(619.080078 0)"/>
     <use xlink:href="#DejaVuSans-6d" transform="translate(646.863281 0)"/>
     <use xlink:href="#DejaVuSans-20" transform="translate(744.275391 0)"/>
     <use xlink:href="#DejaVuSans-50" transform="translate(776.0625 0)"/>
     <use xlink:href="#DejaVuSans-65" transform="translate(832.740234 0)"/>
     <use xlink:href="#DejaVuSans-72" transform="translate(894.263672 0)"/>
     <use xlink:href="#DejaVuSans-20" transform="translate(935.376953 0)"/>
     <use xlink:href="#DejaVuSans-50" transform="translate(967.164062 0)"/>
     <use xlink:href="#DejaVuSans-69" transform="translate(1025.216797 0)"/>
     <use xlink:href="#DejaVuSans-78" transform="translate(1053 0)"/>
     <use xlink:href="#DejaVuSans-65" transform="translate(1109.054688 0)"/>
     <use xlink:href="#DejaVuSans-6c" transform="translate(1170.578125 0)"/>
     <use xlink:href="#DejaVuSans-20" transform="translate(1198.361328 0)"/>
     <use xlink:href="#DejaVuSans-76" transform="translate(1230.148438 0)"/>
     <use xlink:href="#DejaVuSans-73" transform="translate(1289.328125 0)"/>
     <use xlink:href="#DejaVuSans-20" transform="translate(1341.427734 0)"/>
     <use xlink:href="#DejaVuSans-52" transform="translate(1373.214844 0)"/>
     <use xlink:href="#DejaVuSans-65" transform="translate(1438.197266 0)"/>
     <use xlink:href="#DejaVuSans-73" transform="translate(1499.720703 0)"/>
     <use xlink:href="#DejaVuSans-6f" transform="translate(1551.820312 0)"/>
     <use xlink:href="#DejaVuSans-6c" transform="translate(1613.001953 0)"/>
     <use xlink:href="#DejaVuSans-75" transform="translate(1640.785156 0)"/>
     <use xlink:href="#DejaVuSans-74" transform="translate(1704.164062 0)"/>
     <use xlink:href="#DejaVuSans-69" transform="translate(1743.373047 0)"/>
     <use xlink:href="#DejaVuSans-6f" transform="translate(1771.15625 0)"/>
     <use xlink:href="#DejaVuSans-6e" transform="translate(1832.337891 0)"/>
    </g>
   </g>
   <g id="legend_1">
    <g id="patch_7">
     <path d="M 480.2175 81.14 
L 703.6 81.14 
Q 705.2 81.14 705.2 79.54 
L 705.2 32.48 
Q 705.2 30.88 703.6 30.88 
L 480.2175 30.88 
Q 478.6175 30.88 478.6175 32.48 
L 478.6175 79.54 
Q 478.6175 81.14 480.2175 81.14 
z
" style="fill: #ffffff; opacity: 0.8; stroke: #cccccc; stroke-linejoin: miter"/>
    </g>
    <g id="line2d_35">
     <path d="M 481.8175 37.35875 
L 489.8175 37.35875 
L 497.8175 37.35875 
" style="fill: none; stroke: #1f77b4; stroke-width: 1.5; stroke-linecap: square"/>
     <g>
      <use xlink:href="#m13f8fd7d5d" x="489.8175" y="37.35875" style="fill: #1f77b4; stroke: #1f77b4"/>
     </g>
    </g>
    <g id="text_17">
     <!-- avif_65 (mean) -->
     <g transform="translate(504.2175 40.15875) scale(0.08 -0.08)">
      <defs>
       <path id="DejaVuSans-61" d="M 2194 1759 
Q 1497 1759 1228 1600 
Q 959 1441 959 1056 
Q 959 750 1161 570 
Q 1363 391 1709 391 
Q 2188 391 2477 730 
Q 2766 1069 2766 1631 
L 2766 1759 
L 2194 1759 
z
M 3341 1997 
L 3341 0 
L 2766 0 
L 2766 531 
Q 2569 213 2275 61 
Q 1981 -91 1556 -91 
Q 1019 -91 701 211 
Q 384 513 384 1019 
Q 384 1609 779 1909 
Q 1175 2209 1959 2209 
L 2766 2209 
L 2766 2266 
Q 2766 2663 2505 2880 
Q 2244 3097 1772 3097 
Q 1472 3097 1187 3025 
Q 903 2953 641 2809 
L 641 3341 
Q 956 3463 1253 3523 
Q 1550 3584 1831 3584 
Q 2591 3584 2966 3190 
Q 3341 2797 3341 1997 
z
" transform="scale(0.015625)"/>
       <path id="DejaVuSans-66" d="M 2375 4863 
L 2375 4384 
L 1825 4384 
Q 1516 4384 1395 4259 
Q 1275 4134 1275 3809 
L 1275 3500 
L 2222 3500 
L 2222 3053 
L 1275 3053 
L 1275 0 
L 697 0 
L 697 3053 
L 147 3053 
L 147 3500 
L 697 3500 
L 697 3744 
Q 697 4328 969 4595 
Q 1241 4863 1831 4863 
L 2375 4863 
z
" transform="scale(0.015625)"/>
       <path id="DejaVuSans-5f" d="M 3263 -1063 
L 3263 -1509 
L -63 -1509 
L -63 -1063 
L 3263 -1063 
z
" transform="scale(0.015625)"/>
      </defs>
      <use xlink:href="#DejaVuSans-61"/>
      <use xlink:href="#DejaVuSans-76" transform="translate(61.279297 0)"/>
      <use xlink:href="#DejaVuSans-69" transform="translate(120.458984 0)"/>
      <use xlink:href="#DejaVuSans-66" transform="translate(148.242188 0)"/>
      <use xlink:href="#DejaVuSans-5f" transform="translate(183.447266 0)"/>
      <use xlink:href="#DejaVuSans-36" transform="translate(233.447266 0)"/>
      <use xlink:href="#DejaVuSans-35" transform="translate(297.070312 0)"/>
      <use xlink:href="#DejaVuSans-20" transform="translate(360.693359 0)"/>
      <use xlink:href="#DejaVuSans-28" transform="translate(392.480469 0)"/>
      <use xlink:href="#DejaVuSans-6d" transform="translate(431.494141 0)"/>
      <use xlink:href="#DejaVuSans-65" transform="translate(528.90625 0)"/>
      <use xlink:href="#DejaVuSans-61" transform="translate(590.429688 0)"/>
      <use xlink:href="#DejaVuSans-6e" transform="translate(651.708984 0)"/>
      <use xlink:href="#DejaVuSans-29" transform="translate(715.087891 0)"/>
     </g>
    </g>
    <g id="line2d_36">
     <path d="M 481.8175 49.32375 
L 489.8175 49.32375 
L 497.8175 49.32375 
" style="fill: none; stroke-dasharray: 5.55,2.4; stroke-dashoffset: 0; stroke: #1f77b4; stroke-width: 1.5"/>
     <g>
      <use xlink:href="#m01bdc6abac" x="489.8175" y="49.32375" style="fill-opacity: 0; stroke: #1f77b4"/>
     </g>
    </g>
    <g id="text_18">
     <!-- avif_65 (5% worst) -->
     <g transform="translate(504.2175 52.12375) scale(0.08 -0.08)">
      <defs>
       <path id="DejaVuSans-25" d="M 4653 2053 
Q 4381 2053 4226 1822 
Q 4072 1591 4072 1178 
Q 4072 772 4226 539 
Q 4381 306 4653 306 
Q 4919 306 5073 539 
Q 5228 772 5228 1178 
Q 5228 1588 5073 1820 
Q 4919 2053 4653 2053 
z
M 4653 2450 
Q 5147 2450 5437 2106 
Q 5728 1763 5728 1178 
Q 5728 594 5436 251 
Q 5144 -91 4653 -91 
Q 4153 -91 3862 251 
Q 3572 594 3572 1178 
Q 3572 1766 3864 2108 
Q 4156 2450 4653 2450 
z
M 1428 4353 
Q 1159 4353 1004 4120 
Q 850 3888 850 3481 
Q 850 3069 1003 2837 
Q 1156 2606 1428 2606 
Q 1700 2606 1854 2837 
Q 2009 3069 2009 3481 
Q 2009 3884 1853 4118 
Q 1697 4353 1428 4353 
z
M 4250 4750 
L 4750 4750 
L 1831 -91 
L 1331 -91 
L 4250 4750 
z
M 1428 4750 
Q 1922 4750 2215 4408 
Q 2509 4066 2509 3481 
Q 2509 2891 2217 2550 
Q 1925 2209 1428 2209 
Q 931 2209 642 2551 
Q 353 2894 353 3481 
Q 353 4063 643 4406 
Q 934 4750 1428 4750 
z
" transform="scale(0.015625)"/>
      </defs>
      <use xlink:href="#DejaVuSans-61"/>
      <use xlink:href="#DejaVuSans-76" transform="translate(61.279297 0)"/>
      <use xlink:href="#DejaVuSans-69" transform="translate(120.458984 0)"/>
      <use xlink:href="#DejaVuSans-66" transform="translate(148.242188 0)"/>
      <use xlink:href="#DejaVuSans-5f" transform="translate(183.447266 0)"/>
      <use xlink:href="#DejaVuSans-36" transform="translate(233.447266 0)"/>
      <use xlink:href="#DejaVuSans-35" transform="translate(297.070312 0)"/>
      <use xlink:href="#DejaVuSans-20" transform="translate(360.693359 0)"/>
      <use xlink:href="#DejaVuSans-28" transform="translate(392.480469 0)"/>
      <use xlink:href="#DejaVuSans-35" transform="translate(431.494141 0)"/>
      <use xlink:href="#DejaVuSans-25" transform="translate(495.117188 0)"/>
      <use xlink:href="#DejaVuSans-20" transform="translate(590.136719 0)"/>
      <use xlink:href="#DejaVuSans-77" transform="translate(621.923828 0)"/>
      <use xlink:href="#DejaVuSans-6f" transform="translate(703.710938 0)"/>
      <use xlink:href="#DejaVuSans-72" transform="translate(764.892578 0)"/>
      <use xlink:href="#DejaVuSans-73" transform="translate(806.005859 0)"/>
      <use xlink:href="#DejaVuSans-74" transform="translate(858.105469 0)"/>
      <use xlink:href="#DejaVuSans-29" transform="translate(897.314453 0)"/>
     </g>
    </g>
    <g id="line2d_37">
     <path d="M 481.8175 61.28875 
L 489.8175 61.28875 
L 497.8175 61.28875 
" style="fill: none; stroke: #ff7f0e; stroke-width: 1.5; stroke-linecap: square"/>
     <g>
      <use xlink:href="#m9832a3e36a" x="489.8175" y="61.28875" style="fill: #ff7f0e; stroke: #ff7f0e; stroke-linejoin: miter"/>
     </g>
    </g>
    <g id="text_19">
     <!-- jpeg_85 (mean) -->
     <g transform="translate(504.2175 64.08875) scale(0.08 -0.08)">
      <defs>
       <path id="DejaVuSans-6a" d="M 603 3500 
L 1178 3500 
L 1178 -63 
Q 1178 -731 923 -1031 
Q 669 -1331 103 -1331 
L -116 -1331 
L -116 -844 
L 38 -844 
Q 366 -844 484 -692 
Q 603 -541 603 -63 
L 603 3500 
z
M 603 4863 
L 1178 4863 
L 1178 4134 
L 603 4134 
L 603 4863 
z
" transform="scale(0.015625)"/>
       <path id="DejaVuSans-70" d="M 1159 525 
L 1159 -1331 
L 581 -1331 
L 581 3500 
L 1159 3500 
L 1159 2969 
Q 1341 3281 1617 3432 
Q 1894 3584 2278 3584 
Q 2916 3584 3314 3078 
Q 3713 2572 3713 1747 
Q 3713 922 3314 415 
Q 2916 -91 2278 -91 
Q 1894 -91 1617 61 
Q 1341 213 1159 525 
z
M 3116 1747 
Q 3116 2381 2855 2742 
Q 2594 3103 2138 3103 
Q 1681 3103 1420 2742 
Q 1159 2381 1159 1747 
Q 1159 1113 1420 752 
Q 1681 391 2138 391 
Q 2594 391 2855 752 
Q 3116 1113 3116 1747 
z
" transform="scale(0.015625)"/>
       <path id="DejaVuSans-67" d="M 2906 1791 
Q 2906 2416 2648 2759 
Q 2391 3103 1925 3103 
Q 1463 3103 1205 2759 
Q 947 2416 947 1791 
Q 947 1169 1205 825 
Q 1463 481 1925 481 
Q 2391 481 2648 825 
Q 2906 1169 2906 1791 
z
M 3481 434 
Q 3481 -459 3084 -895 
Q 2688 -1331 1869 -1331 
Q 1566 -1331 1297 -1286 
Q 1028 -1241 775 -1147 
L 775 -588 
Q 1028 -725 1275 -790 
Q 1522 -856 1778 -856 
Q 2344 -856 2625 -561 
Q 2906 -266 2906 331 
L 2906 616 
Q 2728 306 2450 153 
Q 2172 0 1784 0 
Q 1141 0 747 490 
Q 353 981 353 1791 
Q 353 2603 747 3093 
Q 1141 3584 1784 3584 
Q 2172 3584 2450 3431 
Q 2728 3278 2906 2969 
L 2906 3500 
L 3481 3500 
L 3481 434 
z
" transform="scale(0.015625)"/>
       <path id="DejaVuSans-38" d="M 2034 2216 
Q 1584 2216 1326 1975 
Q 1069 1734 1069 1313 
Q 1069 891 1326 650 
Q 1584 409 2034 409 
Q 2484 409 2743 651 
Q 3003 894 3003 1313 
Q 3003 1734 2745 1975 
Q 2488 2216 2034 2216 
z
M 1403 2484 
Q 997 2584 770 2862 
Q 544 3141 544 3541 
Q 544 4100 942 4425 
Q 1341 4750 2034 4750 
Q 2731 4750 3128 4425 
Q 3525 4100 3525 3541 
Q 3525 3141 3298 2862 
Q 3072 2584 2669 2484 
Q 3125 2378 3379 2068 
Q 3634 1759 3634 1313 
Q 3634 634 3220 271 
Q 2806 -91 2034 -91 
Q 1263 -91 848 271 
Q 434 634 434 1313 
Q 434 1759 690 2068 
Q 947 2378 1403 2484 
z
M 1172 3481 
Q 1172 3119 1398 2916 
Q 1625 2713 2034 2713 
Q 2441 2713 2670 2916 
Q 2900 3119 2900 3481 
Q 2900 3844 2670 4047 
Q 2441 4250 2034 4250 
Q 1625 4250 1398 4047 
Q 1172 3844 1172 3481 
z
" transform="scale(0.015625)"/>
      </defs>
      <use xlink:href="#DejaVuSans-6a"/>
      <use xlink:href="#DejaVuSans-70" transform="translate(27.783203 0)"/>
      <use xlink:href="#DejaVuSans-65" transform="translate(91.259766 0)"/>
      <use xlink:href="#DejaVuSans-67" transform="translate(152.783203 0)"/>
      <use xlink:href="#DejaVuSans-5f" transform="translate(216.259766 0)"/>
      <use xlink:href="#DejaVuSans-38" transform="translate(266.259766 0)"/>
      <use xlink:href="#DejaVuSans-35" transform="translate(329.882812 0)"/>
      <use xlink:href="#DejaVuSans-20" transform="translate(393.505859 0)"/>
      <use xlink:href="#DejaVuSans-28" transform="translate(425.292969 0)"/>
      <use xlink:href="#DejaVuSans-6d" transform="translate(464.306641 0)"/>
      <use xlink:href="#DejaVuSans-65" transform="translate(561.71875 0)"/>
      <use xlink:href="#DejaVuSans-61" transform="translate(623.242188 0)"/>
      <use xlink:href="#DejaVuSans-6e" transform="translate(684.521484 0)"/>
      <use xlink:href="#DejaVuSans-29" transform="translate(747.900391 0)"/>
     </g>
    </g>
    <g id="line2d_38">
     <path d="M 481.8175 73.25375 
L 489.8175 73.25375 
L 497.8175 73.25375 
" style="fill: none; stroke-dasharray: 5.55,2.4; stroke-dashoffset: 0; stroke: #ff7f0e; stroke-width: 1.5"/>
     <g>
      <use xlink:href="#me56682ea96" x="489.8175" y="73.25375" style="fill-opacity: 0; stroke: #ff7f0e; stroke-linejoin: miter"/>
     </g>
    </g>
    <g id="text_20">
     <!-- jpeg_85 (5% worst) -->
     <g transform="translate(504.2175 76.05375) scale(0.08 -0.08)">
      <use xlink:href="#DejaVuSans-6a"/>
      <use xlink:href="#DejaVuSans-70" transform="translate(27.783203 0)"/>
      <use xlink:href="#DejaVuSans-65" transform="translate(91.259766 0)"/>
      <use xlink:href="#DejaVuSans-67" transform="translate(152.783203 0)"/>
      <use xlink:href="#DejaVuSans-5f" transform="translate(216.259766 0)"/>
      <use xlink:href="#DejaVuSans-38" transform="translate(266.259766 0)"/>
      <use xlink:href="#DejaVuSans-35" transform="translate(329.882812 0)"/>
      <use xlink:href="#DejaVuSans-20" transform="translate(393.505859 0)"/>
      <use xlink:href="#DejaVuSans-28" transform="translate(425.292969 0)"/>
      <use xlink:href="#DejaVuSans-35" transform="translate(464.306641 0)"/>
      <use xlink:href="#DejaVuSans-25" transform="translate(527.929688 0)"/>
      <use xlink:href="#DejaVuSans-20" transform="translate(622.949219 0)"/>
      <use xlink:href="#DejaVuSans-77" transform="translate(654.736328 0)"/>
      <use xlink:href="#DejaVuSans-6f" transform="translate(736.523438 0)"/>
      <use xlink:href="#DejaVuSans-72" transform="translate(797.705078 0)"/>
      <use xlink:href="#DejaVuSans-73" transform="translate(838.818359 0)"/>
      <use xlink:href="#DejaVuSans-74" transform="translate(890.917969 0)"/>
      <use xlink:href="#DejaVuSans-29" transform="translate(930.126953 0)"/>
     </g>
    </g>
    <g id="line2d_39">
     <path d="M 597.74875 37.35875 
L 605.74875 37.35875 
L 613.74875 37.35875 
" style="fill: none; stroke: #2ca02c; stroke-width: 1.5; stroke-linecap: square"/>
     <g>
      <use xlink:href="#mefb387bf21" x="605.74875" y="37.35875" style="fill: #2ca02c; stroke: #2ca02c; stroke-linejoin: miter"/>
     </g>
    </g>
    <g id="text_21">
     <!-- jxl_85 (mean) -->
     <g transform="translate(620.14875 40.15875) scale(0.08 -0.08)">
      <use xlink:href="#DejaVuSans-6a"/>
      <use xlink:href="#DejaVuSans-78" transform="translate(27.783203 0)"/>
      <use xlink:href="#DejaVuSans-6c" transform="translate(86.962891 0)"/>
      <use xlink:href="#DejaVuSans-5f" transform="translate(114.746094 0)"/>
      <use xlink:href="#DejaVuSans-38" transform="translate(164.746094 0)"/>
      <use xlink:href="#DejaVuSans-35" transform="translate(228.369141 0)"/>
      <use xlink:href="#DejaVuSans-20" transform="translate(291.992188 0)"/>
      <use xlink:href="#DejaVuSans-28" transform="translate(323.779297 0)"/>
      <use xlink:href="#DejaVuSans-6d" transform="translate(362.792969 0)"/>
      <use xlink:href="#DejaVuSans-65" transform="translate(460.205078 0)"/>
      <use xlink:href="#DejaVuSans-61" transform="translate(521.728516 0)"/>
      <use xlink:href="#DejaVuSans-6e" transform="translate(583.007812 0)"/>
      <use xlink:href="#DejaVuSans-29" transform="translate(646.386719 0)"/>
     </g>
    </g>
    <g id="line2d_40">
     <path d="M 597.74875 49.32375 
L 605.74875 49.32375 
L 613.74875 49.32375 
" style="fill: none; stroke-dasharray: 5.55,2.4; stroke-dashoffset: 0; stroke: #2ca02c; stroke-width: 1.5"/>
     <g>
      <use xlink:href="#mbf776f379a" x="605.74875" y="49.32375" style="fill-opacity: 0; stroke: #2ca02c; stroke-linejoin: miter"/>
     </g>
    </g>
    <g id="text_22">
     <!-- jxl_85 (5% worst) -->
     <g transform="translate(620.14875 52.12375) scale(0.08 -0.08)">
      <use xlink:href="#DejaVuSans-6a"/>
      <use xlink:href="#DejaVuSans-78" transform="translate(27.783203 0)"/>
      <use xlink:href="#DejaVuSans-6c" transform="translate(86.962891 0)"/>
      <use xlink:href="#DejaVuSans-5f" transform="translate(114.746094 0)"/>
      <use xlink:href="#DejaVuSans-38" transform="translate(164.746094 0)"/>
      <use xlink:href="#DejaVuSans-35" transform="translate(228.369141 0)"/>
      <use xlink:href="#DejaVuSans-20" transform="translate(291.992188 0)"/>
      <use xlink:href="#DejaVuSans-28" transform="translate(323.779297 0)"/>
      <use xlink:href="#DejaVuSans-35" transform="translate(362.792969 0)"/>
      <use xlink:href="#DejaVuSans-25" transform="translate(426.416016 0)"/>
      <use xlink:href="#DejaVuSans-20" transform="translate(521.435547 0)"/>
      <use xlink:href="#DejaVuSans-77" transform="translate(553.222656 0)"/>
      <use xlink:href="#DejaVuSans-6f" transform="translate(635.009766 0)"/>
      <use xlink:href="#DejaVuSans-72" transform="translate(696.191406 0)"/>
      <use xlink:href="#DejaVuSans-73" transform="translate(737.304688 0)"/>
      <use xlink:href="#DejaVuSans-74" transform="translate(789.404297 0)"/>
      <use xlink:href="#DejaVuSans-29" transform="translate(828.613281 0)"/>
     </g>
    </g>
    <g id="line2d_41">
     <path d="M 597.74875 61.28875 
L 605.74875 61.28875 
L 613.74875 61.28875 
" style="fill: none; stroke: #d62728; stroke-width: 1.5; stroke-linecap: square"/>
     <g>
      <use xlink:href="#mcf5f3ed2a7" x="605.74875" y="61.28875" style="fill: #d62728; stroke: #d62728; stroke-linejoin: miter"/>
     </g>
    </g>
    <g id="text_23">
     <!-- webp_87 (mean) -->
     <g transform="translate(620.14875 64.08875) scale(0.08 -0.08)">
      <use xlink:href="#DejaVuSans-77"/>
      <use xlink:href="#DejaVuSans-65" transform="translate(81.787109 0)"/>
      <use xlink:href="#DejaVuSans-62" transform="translate(143.310547 0)"/>
      <use xlink:href="#DejaVuSans-70" transform="translate(206.787109 0)"/>
      <use xlink:href="#DejaVuSans-5f" transform="translate(270.263672 0)"/>
      <use xlink:href="#DejaVuSans-38" transform="translate(320.263672 0)"/>
      <use xlink:href="#DejaVuSans-37" transform="translate(383.886719 0)"/>
      <use xlink:href="#DejaVuSans-20" transform="translate(447.509766 0)"/>
      <use xlink:href="#DejaVuSans-28" transform="translate(479.296875 0)"/>
      <use xlink:href="#DejaVuSans-6d" transform="translate(518.310547 0)"/>
      <use xlink:href="#DejaVuSans-65" transform="translate(615.722656 0)"/>
      <use xlink:href="#DejaVuSans-61" transform="translate(677.246094 0)"/>
      <use xlink:href="#DejaVuSans-6e" transform="translate(738.525391 0)"/>
      <use xlink:href="#DejaVuSans-29" transform="translate(801.904297 0)"/>
     </g>
    </g>
    <g id="line2d_42">
     <path d="M 597.74875 73.25375 
L 605.74875 73.25375 
L 613.74875 73.25375 
" style="fill: none; stroke-dasharray: 5.55,2.4; stroke-dashoffset: 0; stroke: #d62728; stroke-width: 1.5"/>
     <g>
      <use xlink:href="#m348f94053e" x="605.74875" y="73.25375" style="fill-opacity: 0; stroke: #d62728; stroke-linejoin: miter"/>
     </g>
    </g>
    <g id="text_24">
     <!-- webp_87 (5% worst) -->
     <g transform="translate(620.14875 76.05375) scale(0.08 -0.08)">
      <use xlink:href="#DejaVuSans-77"/>
      <use xlink:href="#DejaVuSans-65" transform="translate(81.787109 0)"/>
      <use xlink:href="#DejaVuSans-62" transform="translate(143.310547 0)"/>
      <use xlink:href="#DejaVuSans-70" transform="translate(206.787109 0)"/>
      <use xlink:href="#DejaVuSans-5f" transform="translate(270.263672 0)"/>
      <use xlink:href="#DejaVuSans-38" transform="translate(320.263672 0)"/>
      <use xlink:href="#DejaVuSans-37" transform="translate(383.886719 0)"/>
      <use xlink:href="#DejaVuSans-20" transform="translate(447.509766 0)"/>
      <use xlink:href="#DejaVuSans-28" transform="translate(479.296875 0)"/>
      <use xlink:href="#DejaVuSans-35" transform="translate(518.310547 0)"/>
      <use xlink:href="#DejaVuSans-25" transform="translate(581.933594 0)"/>
      <use xlink:href="#DejaVuSans-20" transform="translate(676.953125 0)"/>
      <use xlink:href="#DejaVuSans-77" transform="translate(708.740234 0)"/>
      <use xlink:href="#DejaVuSans-6f" transform="translate(790.527344 0)"/>
      <use xlink:href="#DejaVuSans-72" transform="translate(851.708984 0)"/>
      <use xlink:href="#DejaVuSans-73" transform="translate(892.822266 0)"/>
      <use xlink:href="#DejaVuSans-74" transform="translate(944.921875 0)"/>
      <use xlink:href="#DejaVuSans-29" transform="translate(984.130859 0)"/>
     </g>
    </g>
   </g>
  </g>
 </g>
 <defs>
  <clipPath id="pb0b2bfb343">
   <rect x="48.44" y="26.88" width="660.76" height="362.44"/>
  </clipPath>
 </defs>
</svg>
