<?xml version="1.0" encoding="utf-8" standalone="no"?>
<!DOCTYPE svg PUBLIC "-//W3C//DTD SVG 1.1//EN"
  "http://www.w3.org/Graphics/SVG/1.1/DTD/svg11.dtd">
<svg xmlns:xlink="http://www.w3.org/1999/xlink" width="720pt" height="432pt" viewBox="0 0 720 432" xmlns="http://www.w3.org/2000/svg" version="1.1">
 <metadata>
  <rdf:RDF xmlns:dc="http://purl.org/dc/elements/1.1/" xmlns:cc="http://creativecommons.org/ns#" xmlns:rdf="http://www.w3.org/1999/02/22-rdf-syntax-ns#">
   <cc:Work>
    <dc:type rdf:resource="http://purl.org/dc/dcmitype/StillImage"/>
    <dc:date>2026-02-27T16:50:37.349380</dc:date>
    <dc:format>image/svg+xml</dc:format>
    <dc:creator>
     <cc:Agent>
      <dc:title>Matplotlib v3.10.8, https://matplotlib.org/</dc:title>
     </cc:Agent>
    </dc:creator>
   </cc:Work>
  </rdf:RDF>
 </metadata>
 <defs>
  <style type="text/css">*{stroke-linejoin: round; stroke-linecap: butt}</style>
 </defs>
 <g id="figure_1">
  <g id="patch_1">
   <path d="M 0 432 
L 720 432 
L 720 0 
L 0 0 
z
" style="fill: #ffffff"/>
  </g>
  <g id="axes_1">
   <g id="patch_2">
    <path d="M 54.74 389.32 
L 709.2 389.32 
L 709.2 26.88 
L 54.74 26.88 
z
" style="fill: #ffffff"/>
   </g>
   <g id="matplotlib.axis_1">
    <g id="xtick_1">
     <g id="line2d_1">
      <path d="M 124.605025 389.32 
L 124.605025 26.88 
" clip-path="url(#p7fbda9c770)" style="fill: none; stroke: #b0b0b0; stroke-opacity: 0.3; stroke-width: 0.8; stroke-linecap: square"/>
     </g>
     <g id="line2d_2">
      <defs>
       <path id="m56b0be3838" d="M 0 0 
L 0 3.5 
" style="stroke: #000000; stroke-width: 0.8"/>
      </defs>
      <g>
       <use xlink:href="#m56b0be3838" x="124.605025" y="389.32" style="stroke: #000000; stroke-width: 0.8"/>
      </g>
     </g>
     <g id="text_1">
      <!-- 250 -->
      <g transform="translate(115.061275 403.918437) scale(0.1 -0.1)">
       <defs>
        <path id="DejaVuSans-32" d="M 1228 531 
L 3431 531 
L 3431 0 
L 469 0 
L 469 531 
Q 828 903 1448 1529 
Q 2069 2156 2228 2338 
Q 2531 2678 2651 2914 
Q 2772 3150 2772 3378 
Q 2772 3750 2511 3984 
Q 2250 4219 1831 4219 
Q 1534 4219 1204 4116 
Q 875 4013 500 3803 
L 500 4441 
Q 881 4594 1212 4672 
Q 1544 4750 1819 4750 
Q 2544 4750 2975 4387 
Q 3406 4025 3406 3419 
Q 3406 3131 3298 2873 
Q 3191 2616 2906 2266 
Q 2828 2175 2409 1742 
Q 1991 1309 1228 531 
z
" transform="scale(0.015625)"/>
        <path id="DejaVuSans-35" d="M 691 4666 
L 3169 4666 
L 3169 4134 
L 1269 4134 
L 1269 2991 
Q 1406 3038 1543 3061 
Q 1681 3084 1819 3084 
Q 2600 3084 3056 2656 
Q 3513 2228 3513 1497 
Q 3513 744 3044 326 
Q 2575 -91 1722 -91 
Q 1428 -91 1123 -41 
Q 819 9 494 109 
L 494 744 
Q 775 591 1075 516 
Q 1375 441 1709 441 
Q 2250 441 2565 725 
Q 2881 1009 2881 1497 
Q 2881 1984 2565 2268 
Q 2250 2553 1709 2553 
Q 1456 2553 1204 2497 
Q 953 2441 691 2322 
L 691 4666 
z
" transform="scale(0.015625)"/>
        <path id="DejaVuSans-30" d="M 2034 4250 
Q 1547 4250 1301 3770 
Q 1056 3291 1056 2328 
Q 1056 1369 1301 889 
Q 1547 409 2034 409 
Q 2525 409 2770 889 
Q 3016 1369 3016 2328 
Q 3016 3291 2770 3770 
Q 2525 4250 2034 4250 
z
M 2034 4750 
Q 2819 4750 3233 4129 
Q 3647 3509 3647 2328 
Q 3647 1150 3233 529 
Q 2819 -91 2034 -91 
Q 1250 -91 836 529 
Q 422 1150 422 2328 
Q 422 3509 836 4129 
Q 1250 4750 2034 4750 
z
" transform="scale(0.015625)"/>
       </defs>
       <use xlink:href="#DejaVuSans-32"/>
       <use xlink:href="#DejaVuSans-35" transform="translate(63.623047 0)"/>
       <use xlink:href="#DejaVuSans-30" transform="translate(127.246094 0)"/>
      </g>
     </g>
    </g>
    <g id="xtick_2">
     <g id="line2d_3">
      <path d="M 201.752799 389.32 
L 201.752799 26.88 
" clip-path="url(#p7fbda9c770)" style="fill: none; stroke: #b0b0b0; stroke-opacity: 0.3; stroke-width: 0.8; stroke-linecap: square"/>
     </g>
     <g id="line2d_4">
      <g>
       <use xlink:href="#m56b0be3838" x="201.752799" y="389.32" style="stroke: #000000; stroke-width: 0.8"/>
      </g>
     </g>
     <g id="text_2">
      <!-- 500 -->
      <g transform="translate(192.209049 403.918437) scale(0.1 -0.1)">
       <use xlink:href="#DejaVuSans-35"/>
       <use xlink:href="#DejaVuSans-30" transform="translate(63.623047 0)"/>
       <use xlink:href="#DejaVuSans-30" transform="translate(127.246094 0)"/>
      </g>
     </g>
    </g>
    <g id="xtick_3">
     <g id="line2d_5">
      <path d="M 278.900573 389.32 
L 278.900573 26.88 
" clip-path="url(#p7fbda9c770)" style="fill: none; stroke: #b0b0b0; stroke-opacity: 0.3; stroke-width: 0.8; stroke-linecap: square"/>
     </g>
     <g id="line2d_6">
      <g>
       <use xlink:href="#m56b0be3838" x="278.900573" y="389.32" style="stroke: #000000; stroke-width: 0.8"/>
      </g>
     </g>
     <g id="text_3">
      <!-- 750 -->
      <g transform="translate(269.356823 403.918437) scale(0.1 -0.1)">
       <defs>
        <path id="DejaVuSans-37" d="M 525 4666 
L 3525 4666 
L 3525 4397 
L 1831 0 
L 1172 0 
L 2766 4134 
L 525 4134 
L 525 4666 
z
" transform="scale(0.015625)"/>
       </defs>
       <use xlink:href="#DejaVuSans-37"/>
       <use xlink:href="#DejaVuSans-35" transform="translate(63.623047 0)"/>
       <use xlink:href="#DejaVuSans-30" transform="translate(127.246094 0)"/>
      </g>
     </g>
    </g>
    <g id="xtick_4">
     <g id="line2d_7">
      <path d="M 356.048348 389.32 
L 356.048348 26.88 
" clip-path="url(#p7fbda9c770)" style="fill: none; stroke: #b0b0b0; stroke-opacity: 0.3; stroke-width: 0.8; stroke-linecap: square"/>
     </g>
     <g id="line2d_8">
      <g>
       <use xlink:href="#m56b0be3838" x="356.048348" y="389.32" style="stroke: #000000; stroke-width: 0.8"/>
      </g>
     </g>
     <g id="text_4">
      <!-- 1000 -->
      <g transform="translate(343.323348 403.918437) scale(0.1 -0.1)">
       <defs>
        <path id="DejaVuSans-31" d="M 794 531 
L 1825 531 
L 1825 4091 
L 703 3866 
L 703 4441 
L 1819 4666 
L 2450 4666 
L 2450 531 
L 3481 531 
L 3481 0 
L 794 0 
L 794 531 
z
" transform="scale(0.015625)"/>
       </defs>
       <use xlink:href="#DejaVuSans-31"/>
       <use xlink:href="#DejaVuSans-30" transform="translate(63.623047 0)"/>
       <use xlink:href="#DejaVuSans-30" transform="translate(127.246094 0)"/>
       <use xlink:href="#DejaVuSans-30" transform="translate(190.869141 0)"/>
      </g>
     </g>
    </g>
    <g id="xtick_5">
     <g id="line2d_9">
      <path d="M 433.196122 389.32 
L 433.196122 26.88 
" clip-path="url(#p7fbda9c770)" style="fill: none; stroke: #b0b0b0; stroke-opacity: 0.3; stroke-width: 0.8; stroke-linecap: square"/>
     </g>
     <g id="line2d_10">
      <g>
       <use xlink:href="#m56b0be3838" x="433.196122" y="389.32" style="stroke: #000000; stroke-width: 0.8"/>
      </g>
     </g>
     <g id="text_5">
      <!-- 1250 -->
      <g transform="translate(420.471122 403.918437) scale(0.1 -0.1)">
       <use xlink:href="#DejaVuSans-31"/>
       <use xlink:href="#DejaVuSans-32" transform="translate(63.623047 0)"/>
       <use xlink:href="#DejaVuSans-35" transform="translate(127.246094 0)"/>
       <use xlink:href="#DejaVuSans-30" transform="translate(190.869141 0)"/>
      </g>
     </g>
    </g>
    <g id="xtick_6">
     <g id="line2d_11">
      <path d="M 510.343897 389.32 
L 510.343897 26.88 
" clip-path="url(#p7fbda9c770)" style="fill: none; stroke: #b0b0b0; stroke-opacity: 0.3; stroke-width: 0.8; stroke-linecap: square"/>
     </g>
     <g id="line2d_12">
      <g>
       <use xlink:href="#m56b0be3838" x="510.343897" y="389.32" style="stroke: #000000; stroke-width: 0.8"/>
      </g>
     </g>
     <g id="text_6">
      <!-- 1500 -->
      <g transform="translate(497.618897 403.918437) scale(0.1 -0.1)">
       <use xlink:href="#DejaVuSans-31"/>
       <use xlink:href="#DejaVuSans-35" transform="translate(63.623047 0)"/>
       <use xlink:href="#DejaVuSans-30" transform="translate(127.246094 0)"/>
       <use xlink:href="#DejaVuSans-30" transform="translate(190.869141 0)"/>
      </g>
     </g>
    </g>
    <g id="xtick_7">
     <g id="line2d_13">
      <path d="M 587.491671 389.32 
L 587.491671 26.88 
" clip-path="url(#p7fbda9c770)" style="fill: none; stroke: #b0b0b0; stroke-opacity: 0.3; stroke-width: 0.8; stroke-linecap: square"/>
     </g>
     <g id="line2d_14">
      <g>
       <use xlink:href="#m56b0be3838" x="587.491671" y="389.32" style="stroke: #000000; stroke-width: 0.8"/>
      </g>
     </g>
     <g id="text_7">
      <!-- 1750 -->
      <g transform="translate(574.766671 403.918437) scale(0.1 -0.1)">
       <use xlink:href="#DejaVuSans-31"/>
       <use xlink:href="#DejaVuSans-37" transform="translate(63.623047 0)"/>
       <use xlink:href="#DejaVuSans-35" transform="translate(127.246094 0)"/>
       <use xlink:href="#DejaVuSans-30" transform="translate(190.869141 0)"/>
      </g>
     </g>
    </g>
    <g id="xtick_8">
     <g id="line2d_15">
      <path d="M 664.639445 389.32 
L 664.639445 26.88 
" clip-path="url(#p7fbda9c770)" style="fill: none; stroke: #b0b0b0; stroke-opacity: 0.3; stroke-width: 0.8; stroke-linecap: square"/>
     </g>
     <g id="line2d_16">
      <g>
       <use xlink:href="#m56b0be3838" x="664.639445" y="389.32" style="stroke: #000000; stroke-width: 0.8"/>
      </g>
     </g>
     <g id="text_8">
      <!-- 2000 -->
      <g transform="translate(651.914445 403.918437) scale(0.1 -0.1)">
       <use xlink:href="#DejaVuSans-32"/>
       <use xlink:href="#DejaVuSans-30" transform="translate(63.623047 0)"/>
       <use xlink:href="#DejaVuSans-30" transform="translate(127.246094 0)"/>
       <use xlink:href="#DejaVuSans-30" transform="translate(190.869141 0)"/>
      </g>
     </g>
    </g>
    <g id="text_9">
     <!-- Resolution -->
     <g transform="translate(353.2325 418.356406) scale(0.11 -0.11)">
      <defs>
       <path id="DejaVuSans-52" d="M 2841 2188 
Q 3044 2119 3236 1894 
Q 3428 1669 3622 1275 
L 4263 0 
L 3584 0 
L 2988 1197 
Q 2756 1666 2539 1819 
Q 2322 1972 1947 1972 
L 1259 1972 
L 1259 0 
L 628 0 
L 628 4666 
L 2053 4666 
Q 2853 4666 3247 4331 
Q 3641 3997 3641 3322 
Q 3641 2881 3436 2590 
Q 3231 2300 2841 2188 
z
M 1259 4147 
L 1259 2491 
L 2053 2491 
Q 2509 2491 2742 2702 
Q 2975 2913 2975 3322 
Q 2975 3731 2742 3939 
Q 2509 4147 2053 4147 
L 1259 4147 
z
" transform="scale(0.015625)"/>
       <path id="DejaVuSans-65" d="M 3597 1894 
L 3597 1613 
L 953 1613 
Q 991 1019 1311 708 
Q 1631 397 2203 397 
Q 2534 397 2845 478 
Q 3156 559 3463 722 
L 3463 178 
Q 3153 47 2828 -22 
Q 2503 -91 2169 -91 
Q 1331 -91 842 396 
Q 353 884 353 1716 
Q 353 2575 817 3079 
Q 1281 3584 2069 3584 
Q 2775 3584 3186 3129 
Q 3597 2675 3597 1894 
z
M 3022 2063 
Q 3016 2534 2758 2815 
Q 2500 3097 2075 3097 
Q 1594 3097 1305 2825 
Q 1016 2553 972 2059 
L 3022 2063 
z
" transform="scale(0.015625)"/>
       <path id="DejaVuSans-73" d="M 2834 3397 
L 2834 2853 
Q 2591 2978 2328 3040 
Q 2066 3103 1784 3103 
Q 1356 3103 1142 2972 
Q 928 2841 928 2578 
Q 928 2378 1081 2264 
Q 1234 2150 1697 2047 
L 1894 2003 
Q 2506 1872 2764 1633 
Q 3022 1394 3022 966 
Q 3022 478 2636 193 
Q 2250 -91 1575 -91 
Q 1294 -91 989 -36 
Q 684 19 347 128 
L 347 722 
Q 666 556 975 473 
Q 1284 391 1588 391 
Q 1994 391 2212 530 
Q 2431 669 2431 922 
Q 2431 1156 2273 1281 
Q 2116 1406 1581 1522 
L 1381 1569 
Q 847 1681 609 1914 
Q 372 2147 372 2553 
Q 372 3047 722 3315 
Q 1072 3584 1716 3584 
Q 2034 3584 2315 3537 
Q 2597 3491 2834 3397 
z
" transform="scale(0.015625)"/>
       <path id="DejaVuSans-6f" d="M 1959 3097 
Q 1497 3097 1228 2736 
Q 959 2375 959 1747 
Q 959 1119 1226 758 
Q 1494 397 1959 397 
Q 2419 397 2687 759 
Q 2956 1122 2956 1747 
Q 2956 2369 2687 2733 
Q 2419 3097 1959 3097 
z
M 1959 3584 
Q 2709 3584 3137 3096 
Q 3566 2609 3566 1747 
Q 3566 888 3137 398 
Q 2709 -91 1959 -91 
Q 1206 -91 779 398 
Q 353 888 353 1747 
Q 353 2609 779 3096 
Q 1206 3584 1959 3584 
z
" transform="scale(0.015625)"/>
       <path id="DejaVuSans-6c" d="M 603 4863 
L 1178 4863 
L 1178 0 
L 603 0 
L 603 4863 
z
" transform="scale(0.015625)"/>
       <path id="DejaVuSans-75" d="M 544 1381 
L 544 3500 
L 1119 3500 
L 1119 1403 
Q 1119 906 1312 657 
Q 1506 409 1894 409 
Q 2359 409 2629 706 
Q 2900 1003 2900 1516 
L 2900 3500 
L 3475 3500 
L 3475 0 
L 2900 0 
L 2900 538 
Q 2691 219 2414 64 
Q 2138 -91 1772 -91 
Q 1169 -91 856 284 
Q 544 659 544 1381 
z
M 1991 3584 
L 1991 3584 
z
" transform="scale(0.015625)"/>
       <path id="DejaVuSans-74" d="M 1172 4494 
L 1172 3500 
L 2356 3500 
L 2356 3053 
L 1172 3053 
L 1172 1153 
Q 1172 725 1289 603 
Q 1406 481 1766 481 
L 2356 481 
L 2356 0 
L 1766 0 
Q 1100 0 847 248 
Q 594 497 594 1153 
L 594 3053 
L 172 3053 
L 172 3500 
L 594 3500 
L 594 4494 
L 1172 4494 
z
" transform="scale(0.015625)"/>
       <path id="DejaVuSans-69" d="M 603 3500 
L 1178 3500 
L 1178 0 
L 603 0 
L 603 3500 
z
M 603 4863 
L 1178 4863 
L 1178 4134 
L 603 4134 
L 603 4863 
z
" transform="scale(0.015625)"/>
       <path id="DejaVuSans-6e" d="M 3513 2113 
L 3513 0 
L 2938 0 
L 2938 2094 
Q 2938 2591 2744 2837 
Q 2550 3084 2163 3084 
Q 1697 3084 1428 2787 
Q 1159 2491 1159 1978 
L 1159 0 
L 581 0 
L 581 3500 
L 1159 3500 
L 1159 2956 
Q 1366 3272 1645 3428 
Q 1925 3584 2291 3584 
Q 2894 3584 3203 3211 
Q 3513 2838 3513 2113 
z
" transform="scale(0.015625)"/>
      </defs>
      <use xlink:href="#DejaVuSans-52"/>
      <use xlink:href="#DejaVuSans-65" transform="translate(64.982422 0)"/>
      <use xlink:href="#DejaVuSans-73" transform="translate(126.505859 0)"/>
      <use xlink:href="#DejaVuSans-6f" transform="translate(178.605469 0)"/>
      <use xlink:href="#DejaVuSans-6c" transform="translate(239.787109 0)"/>
      <use xlink:href="#DejaVuSans-75" transform="translate(267.570312 0)"/>
      <use xlink:href="#DejaVuSans-74" transform="translate(330.949219 0)"/>
      <use xlink:href="#DejaVuSans-69" transform="translate(370.158203 0)"/>
      <use xlink:href="#DejaVuSans-6f" transform="translate(397.941406 0)"/>
      <use xlink:href="#DejaVuSans-6e" transform="translate(459.123047 0)"/>
     </g>
    </g>
   </g>
   <g id="matplotlib.axis_2">
    <g id="ytick_1">
     <g id="line2d_17">
      <path d="M 54.74 377.283659 
L 709.2 377.283659 
" clip-path="url(#p7fbda9c770)" style="fill: none; stroke: #b0b0b0; stroke-opacity: 0.3; stroke-width: 0.8; stroke-linecap: square"/>
     </g>
     <g id="line2d_18">
      <defs>
       <path id="mfbeac025ce" d="M 0 0 
L -3.5 0 
" style="stroke: #000000; stroke-width: 0.8"/>
      </defs>
      <g>
       <use xlink:href="#mfbeac025ce" x="54.74" y="377.283659" style="stroke: #000000; stroke-width: 0.8"/>
      </g>
     </g>
     <g id="text_10">
      <!-- 0.25 -->
      <g transform="translate(25.474375 381.082877) scale(0.1 -0.1)">
       <defs>
        <path id="DejaVuSans-2e" d="M 684 794 
L 1344 794 
L 1344 0 
L 684 0 
L 684 794 
z
" transform="scale(0.015625)"/>
       </defs>
       <use xlink:href="#DejaVuSans-30"/>
       <use xlink:href="#DejaVuSans-2e" transform="translate(63.623047 0)"/>
       <use xlink:href="#DejaVuSans-32" transform="translate(95.410156 0)"/>
       <use xlink:href="#DejaVuSans-35" transform="translate(159.033203 0)"/>
      </g>
     </g>
    </g>
    <g id="ytick_2">
     <g id="line2d_19">
      <path d="M 54.74 328.691233 
L 709.2 328.691233 
" clip-path="url(#p7fbda9c770)" style="fill: none; stroke: #b0b0b0; stroke-opacity: 0.3; stroke-width: 0.8; stroke-linecap: square"/>
     </g>
     <g id="line2d_20">
      <g>
       <use xlink:href="#mfbeac025ce" x="54.74" y="328.691233" style="stroke: #000000; stroke-width: 0.8"/>
      </g>
     </g>
     <g id="text_11">
      <!-- 0.50 -->
      <g transform="translate(25.474375 332.490451) scale(0.1 -0.1)">
       <use xlink:href="#DejaVuSans-30"/>
       <use xlink:href="#DejaVuSans-2e" transform="translate(63.623047 0)"/>
       <use xlink:href="#DejaVuSans-35" transform="translate(95.410156 0)"/>
       <use xlink:href="#DejaVuSans-30" transform="translate(159.033203 0)"/>
      </g>
     </g>
    </g>
    <g id="ytick_3">
     <g id="line2d_21">
      <path d="M 54.74 280.098807 
L 709.2 280.098807 
" clip-path="url(#p7fbda9c770)" style="fill: none; stroke: #b0b0b0; stroke-opacity: 0.3; stroke-width: 0.8; stroke-linecap: square"/>
     </g>
     <g id="line2d_22">
      <g>
       <use xlink:href="#mfbeac025ce" x="54.74" y="280.098807" style="stroke: #000000; stroke-width: 0.8"/>
      </g>
     </g>
     <g id="text_12">
      <!-- 0.75 -->
      <g transform="translate(25.474375 283.898025) scale(0.1 -0.1)">
       <use xlink:href="#DejaVuSans-30"/>
       <use xlink:href="#DejaVuSans-2e" transform="translate(63.623047 0)"/>
       <use xlink:href="#DejaVuSans-37" transform="translate(95.410156 0)"/>
       <use xlink:href="#DejaVuSans-35" transform="translate(159.033203 0)"/>
      </g>
     </g>
    </g>
    <g id="ytick_4">
     <g id="line2d_23">
      <path d="M 54.74 231.506381 
L 709.2 231.506381 
" clip-path="url(#p7fbda9c770)" style="fill: none; stroke: #b0b0b0; stroke-opacity: 0.3; stroke-width: 0.8; stroke-linecap: square"/>
     </g>
     <g id="line2d_24">
      <g>
       <use xlink:href="#mfbeac025ce" x="54.74" y="231.506381" style="stroke: #000000; stroke-width: 0.8"/>
      </g>
     </g>
     <g id="text_13">
      <!-- 1.00 -->
      <g transform="translate(25.474375 235.305599) scale(0.1 -0.1)">
       <use xlink:href="#DejaVuSans-31"/>
       <use xlink:href="#DejaVuSans-2e" transform="translate(63.623047 0)"/>
       <use xlink:href="#DejaVuSans-30" transform="translate(95.410156 0)"/>
       <use xlink:href="#DejaVuSans-30" transform="translate(159.033203 0)"/>
      </g>
     </g>
    </g>
    <g id="ytick_5">
     <g id="line2d_25">
      <path d="M 54.74 182.913955 
L 709.2 182.913955 
" clip-path="url(#p7fbda9c770)" style="fill: none; stroke: #b0b0b0; stroke-opacity: 0.3; stroke-width: 0.8; stroke-linecap: square"/>
     </g>
     <g id="line2d_26">
      <g>
       <use xlink:href="#mfbeac025ce" x="54.74" y="182.913955" style="stroke: #000000; stroke-width: 0.8"/>
      </g>
     </g>
     <g id="text_14">
      <!-- 1.25 -->
      <g transform="translate(25.474375 186.713173) scale(0.1 -0.1)">
       <use xlink:href="#DejaVuSans-31"/>
       <use xlink:href="#DejaVuSans-2e" transform="translate(63.623047 0)"/>
       <use xlink:href="#DejaVuSans-32" transform="translate(95.410156 0)"/>
       <use xlink:href="#DejaVuSans-35" transform="translate(159.033203 0)"/>
      </g>
     </g>
    </g>
    <g id="ytick_6">
     <g id="line2d_27">
      <path d="M 54.74 134.321529 
L 709.2 134.321529 
" clip-path="url(#p7fbda9c770)" style="fill: none; stroke: #b0b0b0; stroke-opacity: 0.3; stroke-width: 0.8; stroke-linecap: square"/>
     </g>
     <g id="line2d_28">
      <g>
       <use xlink:href="#mfbeac025ce" x="54.74" y="134.321529" style="stroke: #000000; stroke-width: 0.8"/>
      </g>
     </g>
     <g id="text_15">
      <!-- 1.50 -->
      <g transform="translate(25.474375 138.120747) scale(0.1 -0.1)">
       <use xlink:href="#DejaVuSans-31"/>
       <use xlink:href="#DejaVuSans-2e" transform="translate(63.623047 0)"/>
       <use xlink:href="#DejaVuSans-35" transform="translate(95.410156 0)"/>
       <use xlink:href="#DejaVuSans-30" transform="translate(159.033203 0)"/>
      </g>
     </g>
    </g>
    <g id="ytick_7">
     <g id="line2d_29">
      <path d="M 54.74 85.729103 
L 709.2 85.729103 
" clip-path="url(#p7fbda9c770)" style="fill: none; stroke: #b0b0b0; stroke-opacity: 0.3; stroke-width: 0.8; stroke-linecap: square"/>
     </g>
     <g id="line2d_30">
      <g>
       <use xlink:href="#mfbeac025ce" x="54.74" y="85.729103" style="stroke: #000000; stroke-width: 0.8"/>
      </g>
     </g>
     <g id="text_16">
      <!-- 1.75 -->
      <g transform="translate(25.474375 89.528321) scale(0.1 -0.1)">
       <use xlink:href="#DejaVuSans-31"/>
       <use xlink:href="#DejaVuSans-2e" transform="translate(63.623047 0)"/>
       <use xlink:href="#DejaVuSans-37" transform="translate(95.410156 0)"/>
       <use xlink:href="#DejaVuSans-35" transform="translate(159.033203 0)"/>
      </g>
     </g>
    </g>
    <g id="ytick_8">
     <g id="line2d_31">
      <path d="M 54.74 37.136677 
L 709.2 37.136677 
" clip-path="url(#p7fbda9c770)" style="fill: none; stroke: #b0b0b0; stroke-opacity: 0.3; stroke-width: 0.8; stroke-linecap: square"/>
     </g>
     <g id="line2d_32">
      <g>
       <use xlink:href="#mfbeac025ce" x="54.74" y="37.136677" style="stroke: #000000; stroke-width: 0.8"/>
      </g>
     </g>
     <g id="text_17">
      <!-- 2.00 -->
      <g transform="translate(25.474375 40.935895) scale(0.1 -0.1)">
       <use xlink:href="#DejaVuSans-32"/>
       <use xlink:href="#DejaVuSans-2e" transform="translate(63.623047 0)"/>
       <use xlink:href="#DejaVuSans-30" transform="translate(95.410156 0)"/>
       <use xlink:href="#DejaVuSans-30" transform="translate(159.033203 0)"/>
      </g>
     </g>
    </g>
    <g id="text_18">
     <!-- Bytes Per Butteraugli Per Pixel (lower is better) -->
     <g transform="translate(19.186719 337.185859) rotate(-90) scale(0.11 -0.11)">
      <defs>
       <path id="DejaVuSans-42" d="M 1259 2228 
L 1259 519 
L 2272 519 
Q 2781 519 3026 730 
Q 3272 941 3272 1375 
Q 3272 1813 3026 2020 
Q 2781 2228 2272 2228 
L 1259 2228 
z
M 1259 4147 
L 1259 2741 
L 2194 2741 
Q 2656 2741 2882 2914 
Q 3109 3088 3109 3444 
Q 3109 3797 2882 3972 
Q 2656 4147 2194 4147 
L 1259 4147 
z
M 628 4666 
L 2241 4666 
Q 2963 4666 3353 4366 
Q 3744 4066 3744 3513 
Q 3744 3084 3544 2831 
Q 3344 2578 2956 2516 
Q 3422 2416 3680 2098 
Q 3938 1781 3938 1306 
Q 3938 681 3513 340 
Q 3088 0 2303 0 
L 628 0 
L 628 4666 
z
" transform="scale(0.015625)"/>
       <path id="DejaVuSans-79" d="M 2059 -325 
Q 1816 -950 1584 -1140 
Q 1353 -1331 966 -1331 
L 506 -1331 
L 506 -850 
L 844 -850 
Q 1081 -850 1212 -737 
Q 1344 -625 1503 -206 
L 1606 56 
L 191 3500 
L 800 3500 
L 1894 763 
L 2988 3500 
L 3597 3500 
L 2059 -325 
z
" transform="scale(0.015625)"/>
       <path id="DejaVuSans-20" transform="scale(0.015625)"/>
       <path id="DejaVuSans-50" d="M 1259 4147 
L 1259 2394 
L 2053 2394 
Q 2494 2394 2734 2622 
Q 2975 2850 2975 3272 
Q 2975 3691 2734 3919 
Q 2494 4147 2053 4147 
L 1259 4147 
z
M 628 4666 
L 2053 4666 
Q 2838 4666 3239 4311 
Q 3641 3956 3641 3272 
Q 3641 2581 3239 2228 
Q 2838 1875 2053 1875 
L 1259 1875 
L 1259 0 
L 628 0 
L 628 4666 
z
" transform="scale(0.015625)"/>
       <path id="DejaVuSans-72" d="M 2631 2963 
Q 2534 3019 2420 3045 
Q 2306 3072 2169 3072 
Q 1681 3072 1420 2755 
Q 1159 2438 1159 1844 
L 1159 0 
L 581 0 
L 581 3500 
L 1159 3500 
L 1159 2956 
Q 1341 3275 1631 3429 
Q 1922 3584 2338 3584 
Q 2397 3584 2469 3576 
Q 2541 3569 2628 3553 
L 2631 2963 
z
" transform="scale(0.015625)"/>
       <path id="DejaVuSans-61" d="M 2194 1759 
Q 1497 1759 1228 1600 
Q 959 1441 959 1056 
Q 959 750 1161 570 
Q 1363 391 1709 391 
Q 2188 391 2477 730 
Q 2766 1069 2766 1631 
L 2766 1759 
L 2194 1759 
z
M 3341 1997 
L 3341 0 
L 2766 0 
L 2766 531 
Q 2569 213 2275 61 
Q 1981 -91 1556 -91 
Q 1019 -91 701 211 
Q 384 513 384 1019 
Q 384 1609 779 1909 
Q 1175 2209 1959 2209 
L 2766 2209 
L 2766 2266 
Q 2766 2663 2505 2880 
Q 2244 3097 1772 3097 
Q 1472 3097 1187 3025 
Q 903 2953 641 2809 
L 641 3341 
Q 956 3463 1253 3523 
Q 1550 3584 1831 3584 
Q 2591 3584 2966 3190 
Q 3341 2797 3341 1997 
z
" transform="scale(0.015625)"/>
       <path id="DejaVuSans-67" d="M 2906 1791 
Q 2906 2416 2648 2759 
Q 2391 3103 1925 3103 
Q 1463 3103 1205 2759 
Q 947 2416 947 1791 
Q 947 1169 1205 825 
Q 1463 481 1925 481 
Q 2391 481 2648 825 
Q 2906 1169 2906 1791 
z
M 3481 434 
Q 3481 -459 3084 -895 
Q 2688 -1331 1869 -1331 
Q 1566 -1331 1297 -1286 
Q 1028 -1241 775 -1147 
L 775 -588 
Q 1028 -725 1275 -790 
Q 1522 -856 1778 -856 
Q 2344 -856 2625 -561 
Q 2906 -266 2906 331 
L 2906 616 
Q 2728 306 2450 153 
Q 2172 0 1784 0 
Q 1141 0 747 490 
Q 353 981 353 1791 
Q 353 2603 747 3093 
Q 1141 3584 1784 3584 
Q 2172 3584 2450 3431 
Q 2728 3278 2906 2969 
L 2906 3500 
L 3481 3500 
L 3481 434 
z
" transform="scale(0.015625)"/>
       <path id="DejaVuSans-78" d="M 3513 3500 
L 2247 1797 
L 3578 0 
L 2900 0 
L 1881 1375 
L 863 0 
L 184 0 
L 1544 1831 
L 300 3500 
L 978 3500 
L 1906 2253 
L 2834 3500 
L 3513 3500 
z
" transform="scale(0.015625)"/>
       <path id="DejaVuSans-28" d="M 1984 4856 
Q 1566 4138 1362 3434 
Q 1159 2731 1159 2009 
Q 1159 1288 1364 580 
Q 1569 -128 1984 -844 
L 1484 -844 
Q 1016 -109 783 600 
Q 550 1309 550 2009 
Q 550 2706 781 3412 
Q 1013 4119 1484 4856 
L 1984 4856 
z
" transform="scale(0.015625)"/>
       <path id="DejaVuSans-77" d="M 269 3500 
L 844 3500 
L 1563 769 
L 2278 3500 
L 2956 3500 
L 3675 769 
L 4391 3500 
L 4966 3500 
L 4050 0 
L 3372 0 
L 2619 2869 
L 1863 0 
L 1184 0 
L 269 3500 
z
" transform="scale(0.015625)"/>
       <path id="DejaVuSans-62" d="M 3116 1747 
Q 3116 2381 2855 2742 
Q 2594 3103 2138 3103 
Q 1681 3103 1420 2742 
Q 1159 2381 1159 1747 
Q 1159 1113 1420 752 
Q 1681 391 2138 391 
Q 2594 391 2855 752 
Q 3116 1113 3116 1747 
z
M 1159 2969 
Q 1341 3281 1617 3432 
Q 1894 3584 2278 3584 
Q 2916 3584 3314 3078 
Q 3713 2572 3713 1747 
Q 3713 922 3314 415 
Q 2916 -91 2278 -91 
Q 1894 -91 1617 61 
Q 1341 213 1159 525 
L 1159 0 
L 581 0 
L 581 4863 
L 1159 4863 
L 1159 2969 
z
" transform="scale(0.015625)"/>
       <path id="DejaVuSans-29" d="M 513 4856 
L 1013 4856 
Q 1481 4119 1714 3412 
Q 1947 2706 1947 2009 
Q 1947 1309 1714 600 
Q 1481 -109 1013 -844 
L 513 -844 
Q 928 -128 1133 580 
Q 1338 1288 1338 2009 
Q 1338 2731 1133 3434 
Q 928 4138 513 4856 
z
" transform="scale(0.015625)"/>
      </defs>
      <use xlink:href="#DejaVuSans-42"/>
      <use xlink:href="#DejaVuSans-79" transform="translate(68.603516 0)"/>
      <use xlink:href="#DejaVuSans-74" transform="translate(127.783203 0)"/>
      <use xlink:href="#DejaVuSans-65" transform="translate(166.992188 0)"/>
      <use xlink:href="#DejaVuSans-73" transform="translate(228.515625 0)"/>
      <use xlink:href="#DejaVuSans-20" transform="translate(280.615234 0)"/>
      <use xlink:href="#DejaVuSans-50" transform="translate(312.402344 0)"/>
      <use xlink:href="#DejaVuSans-65" transform="translate(369.080078 0)"/>
      <use xlink:href="#DejaVuSans-72" transform="translate(430.603516 0)"/>
      <use xlink:href="#DejaVuSans-20" transform="translate(471.716797 0)"/>
      <use xlink:href="#DejaVuSans-42" transform="translate(503.503906 0)"/>
      <use xlink:href="#DejaVuSans-75" transform="translate(572.107422 0)"/>
      <use xlink:href="#DejaVuSans-74" transform="translate(635.486328 0)"/>
      <use xlink:href="#DejaVuSans-74" transform="translate(674.695312 0)"/>
      <use xlink:href="#DejaVuSans-65" transform="translate(713.904297 0)"/>
      <use xlink:href="#DejaVuSans-72" transform="translate(775.427734 0)"/>
      <use xlink:href="#DejaVuSans-61" transform="translate(816.541016 0)"/>
      <use xlink:href="#DejaVuSans-75" transform="translate(877.820312 0)"/>
      <use xlink:href="#DejaVuSans-67" transform="translate(941.199219 0)"/>
      <use xlink:href="#DejaVuSans-6c" transform="translate(1004.675781 0)"/>
      <use xlink:href="#DejaVuSans-69" transform="translate(1032.458984 0)"/>
      <use xlink:href="#DejaVuSans-20" transform="translate(1060.242188 0)"/>
      <use xlink:href="#DejaVuSans-50" transform="translate(1092.029297 0)"/>
      <use xlink:href="#DejaVuSans-65" transform="translate(1148.707031 0)"/>
      <use xlink:href="#DejaVuSans-72" transform="translate(1210.230469 0)"/>
      <use xlink:href="#DejaVuSans-20" transform="translate(1251.34375 0)"/>
      <use xlink:href="#DejaVuSans-50" transform="translate(1283.130859 0)"/>
      <use xlink:href="#DejaVuSans-69" transform="translate(1341.183594 0)"/>
      <use xlink:href="#DejaVuSans-78" transform="translate(1368.966797 0)"/>
      <use xlink:href="#DejaVuSans-65" transform="translate(1425.021484 0)"/>
      <use xlink:href="#DejaVuSans-6c" transform="translate(1486.544922 0)"/>
      <use xlink:href="#DejaVuSans-20" transform="translate(1514.328125 0)"/>
      <use xlink:href="#DejaVuSans-28" transform="translate(1546.115234 0)"/>
      <use xlink:href="#DejaVuSans-6c" transform="translate(1585.128906 0)"/>
      <use xlink:href="#DejaVuSans-6f" transform="translate(1612.912109 0)"/>
      <use xlink:href="#DejaVuSans-77" transform="translate(1674.09375 0)"/>
      <use xlink:href="#DejaVuSans-65" transform="translate(1755.880859 0)"/>
      <use xlink:href="#DejaVuSans-72" transform="translate(1817.404297 0)"/>
      <use xlink:href="#DejaVuSans-20" transform="translate(1858.517578 0)"/>
      <use xlink:href="#DejaVuSans-69" transform="translate(1890.304688 0)"/>
      <use xlink:href="#DejaVuSans-73" transform="translate(1918.087891 0)"/>
      <use xlink:href="#DejaVuSans-20" transform="translate(1970.1875 0)"/>
      <use xlink:href="#DejaVuSans-62" transform="translate(2001.974609 0)"/>
      <use xlink:href="#DejaVuSans-65" transform="translate(2065.451172 0)"/>
      <use xlink:href="#DejaVuSans-74" transform="translate(2126.974609 0)"/>
      <use xlink:href="#DejaVuSans-74" transform="translate(2166.183594 0)"/>
      <use xlink:href="#DejaVuSans-65" transform="translate(2205.392578 0)"/>
      <use xlink:href="#DejaVuSans-72" transform="translate(2266.916016 0)"/>
      <use xlink:href="#DejaVuSans-29" transform="translate(2308.029297 0)"/>
     </g>
    </g>
   </g>
   <g id="line2d_33">
    <path d="M 84.488182 309.850362 
L 96.831826 313.630354 
L 109.17547 318.700303 
L 121.519114 318.823809 
L 146.206401 325.743021 
L 195.580977 329.369978 
L 269.64284 332.937166 
L 442.453855 344.026603 
L 679.451818 354.272828 
" clip-path="url(#p7fbda9c770)" style="fill: none; stroke: #1f77b4; stroke-width: 1.5; stroke-linecap: square"/>
    <defs>
     <path id="m9542d7fbab" d="M 0 3.5 
C 0.928211 3.5 1.81853 3.131218 2.474874 2.474874 
C 3.131218 1.81853 3.5 0.928211 3.5 0 
C 3.5 -0.928211 3.131218 -1.81853 2.474874 -2.474874 
C 1.81853 -3.131218 0.928211 -3.5 0 -3.5 
C -0.928211 -3.5 -1.81853 -3.131218 -2.474874 -2.474874 
C -3.131218 -1.81853 -3.5 -0.928211 -3.5 0 
C -3.5 0.928211 -3.131218 1.81853 -2.474874 2.474874 
C -1.81853 3.131218 -0.928211 3.5 0 3.5 
z
" style="stroke: #1f77b4"/>
    </defs>
    <g clip-path="url(#p7fbda9c770)">
     <use xlink:href="#m9542d7fbab" x="84.488182" y="309.850362" style="fill: #1f77b4; stroke: #1f77b4"/>
     <use xlink:href="#m9542d7fbab" x="96.831826" y="313.630354" style="fill: #1f77b4; stroke: #1f77b4"/>
     <use xlink:href="#m9542d7fbab" x="109.17547" y="318.700303" style="fill: #1f77b4; stroke: #1f77b4"/>
     <use xlink:href="#m9542d7fbab" x="121.519114" y="318.823809" style="fill: #1f77b4; stroke: #1f77b4"/>
     <use xlink:href="#m9542d7fbab" x="146.206401" y="325.743021" style="fill: #1f77b4; stroke: #1f77b4"/>
     <use xlink:href="#m9542d7fbab" x="195.580977" y="329.369978" style="fill: #1f77b4; stroke: #1f77b4"/>
     <use xlink:href="#m9542d7fbab" x="269.64284" y="332.937166" style="fill: #1f77b4; stroke: #1f77b4"/>
     <use xlink:href="#m9542d7fbab" x="442.453855" y="344.026603" style="fill: #1f77b4; stroke: #1f77b4"/>
     <use xlink:href="#m9542d7fbab" x="679.451818" y="354.272828" style="fill: #1f77b4; stroke: #1f77b4"/>
    </g>
   </g>
   <g id="line2d_34">
    <path d="M 84.488182 283.395132 
L 96.831826 281.309804 
L 109.17547 290.758876 
L 121.519114 279.001273 
L 146.206401 290.12 
L 195.580977 277.367854 
L 269.64284 268.581491 
L 442.453855 274.935211 
L 679.451818 273.523469 
" clip-path="url(#p7fbda9c770)" style="fill: none; stroke-dasharray: 5.55,2.4; stroke-dashoffset: 0; stroke: #1f77b4; stroke-width: 1.5"/>
    <defs>
     <path id="m897cb79c86" d="M 0 3.5 
C 0.928211 3.5 1.81853 3.131218 2.474874 2.474874 
C 3.131218 1.81853 3.5 0.928211 3.5 0 
C 3.5 -0.928211 3.131218 -1.81853 2.474874 -2.474874 
C 1.81853 -3.131218 0.928211 -3.5 0 -3.5 
C -0.928211 -3.5 -1.81853 -3.131218 -2.474874 -2.474874 
C -3.131218 -1.81853 -3.5 -0.928211 -3.5 0 
C -3.5 0.928211 -3.131218 1.81853 -2.474874 2.474874 
C -1.81853 3.131218 -0.928211 3.5 0 3.5 
z
" style="stroke: #1f77b4"/>
    </defs>
    <g clip-path="url(#p7fbda9c770)">
     <use xlink:href="#m897cb79c86" x="84.488182" y="283.395132" style="fill-opacity: 0; stroke: #1f77b4"/>
     <use xlink:href="#m897cb79c86" x="96.831826" y="281.309804" style="fill-opacity: 0; stroke: #1f77b4"/>
     <use xlink:href="#m897cb79c86" x="109.17547" y="290.758876" style="fill-opacity: 0; stroke: #1f77b4"/>
     <use xlink:href="#m897cb79c86" x="121.519114" y="279.001273" style="fill-opacity: 0; stroke: #1f77b4"/>
     <use xlink:href="#m897cb79c86" x="146.206401" y="290.12" style="fill-opacity: 0; stroke: #1f77b4"/>
     <use xlink:href="#m897cb79c86" x="195.580977" y="277.367854" style="fill-opacity: 0; stroke: #1f77b4"/>
     <use xlink:href="#m897cb79c86" x="269.64284" y="268.581491" style="fill-opacity: 0; stroke: #1f77b4"/>
     <use xlink:href="#m897cb79c86" x="442.453855" y="274.935211" style="fill-opacity: 0; stroke: #1f77b4"/>
     <use xlink:href="#m897cb79c86" x="679.451818" y="273.523469" style="fill-opacity: 0; stroke: #1f77b4"/>
    </g>
   </g>
   <g id="line2d_35">
    <path d="M 84.488182 206.835835 
L 96.831826 213.19182 
L 109.17547 233.607247 
L 121.519114 234.145896 
L 146.206401 246.060159 
L 195.580977 251.614636 
L 269.64284 254.309603 
L 442.453855 273.381226 
L 679.451818 288.067344 
" clip-path="url(#p7fbda9c770)" style="fill: none; stroke: #ff7f0e; stroke-width: 1.5; stroke-linecap: square"/>
    <defs>
     <path id="m264a06705a" d="M -3.5 3.5 
L 3.5 3.5 
L 3.5 -3.5 
L -3.5 -3.5 
z
" style="stroke: #ff7f0e; stroke-linejoin: miter"/>
    </defs>
    <g clip-path="url(#p7fbda9c770)">
     <use xlink:href="#m264a06705a" x="84.488182" y="206.835835" style="fill: #ff7f0e; stroke: #ff7f0e; stroke-linejoin: miter"/>
     <use xlink:href="#m264a06705a" x="96.831826" y="213.19182" style="fill: #ff7f0e; stroke: #ff7f0e; stroke-linejoin: miter"/>
     <use xlink:href="#m264a06705a" x="109.17547" y="233.607247" style="fill: #ff7f0e; stroke: #ff7f0e; stroke-linejoin: miter"/>
     <use xlink:href="#m264a06705a" x="121.519114" y="234.145896" style="fill: #ff7f0e; stroke: #ff7f0e; stroke-linejoin: miter"/>
     <use xlink:href="#m264a06705a" x="146.206401" y="246.060159" style="fill: #ff7f0e; stroke: #ff7f0e; stroke-linejoin: miter"/>
     <use xlink:href="#m264a06705a" x="195.580977" y="251.614636" style="fill: #ff7f0e; stroke: #ff7f0e; stroke-linejoin: miter"/>
     <use xlink:href="#m264a06705a" x="269.64284" y="254.309603" style="fill: #ff7f0e; stroke: #ff7f0e; stroke-linejoin: miter"/>
     <use xlink:href="#m264a06705a" x="442.453855" y="273.381226" style="fill: #ff7f0e; stroke: #ff7f0e; stroke-linejoin: miter"/>
     <use xlink:href="#m264a06705a" x="679.451818" y="288.067344" style="fill: #ff7f0e; stroke: #ff7f0e; stroke-linejoin: miter"/>
    </g>
   </g>
   <g id="line2d_36">
    <path d="M 84.488182 111.502132 
L 96.831826 81.395603 
L 109.17547 94.424903 
L 121.519114 77.312959 
L 146.206401 83.127188 
L 195.580977 65.987243 
L 269.64284 43.354545 
L 442.453855 81.981027 
L 679.451818 102.373475 
" clip-path="url(#p7fbda9c770)" style="fill: none; stroke-dasharray: 5.55,2.4; stroke-dashoffset: 0; stroke: #ff7f0e; stroke-width: 1.5"/>
    <defs>
     <path id="m5338dc2184" d="M -3.5 3.5 
L 3.5 3.5 
L 3.5 -3.5 
L -3.5 -3.5 
z
" style="stroke: #ff7f0e; stroke-linejoin: miter"/>
    </defs>
    <g clip-path="url(#p7fbda9c770)">
     <use xlink:href="#m5338dc2184" x="84.488182" y="111.502132" style="fill-opacity: 0; stroke: #ff7f0e; stroke-linejoin: miter"/>
     <use xlink:href="#m5338dc2184" x="96.831826" y="81.395603" style="fill-opacity: 0; stroke: #ff7f0e; stroke-linejoin: miter"/>
     <use xlink:href="#m5338dc2184" x="109.17547" y="94.424903" style="fill-opacity: 0; stroke: #ff7f0e; stroke-linejoin: miter"/>
     <use xlink:href="#m5338dc2184" x="121.519114" y="77.312959" style="fill-opacity: 0; stroke: #ff7f0e; stroke-linejoin: miter"/>
     <use xlink:href="#m5338dc2184" x="146.206401" y="83.127188" style="fill-opacity: 0; stroke: #ff7f0e; stroke-linejoin: miter"/>
     <use xlink:href="#m5338dc2184" x="195.580977" y="65.987243" style="fill-opacity: 0; stroke: #ff7f0e; stroke-linejoin: miter"/>
     <use xlink:href="#m5338dc2184" x="269.64284" y="43.354545" style="fill-opacity: 0; stroke: #ff7f0e; stroke-linejoin: miter"/>
     <use xlink:href="#m5338dc2184" x="442.453855" y="81.981027" style="fill-opacity: 0; stroke: #ff7f0e; stroke-linejoin: miter"/>
     <use xlink:href="#m5338dc2184" x="679.451818" y="102.373475" style="fill-opacity: 0; stroke: #ff7f0e; stroke-linejoin: miter"/>
    </g>
   </g>
   <g id="line2d_37">
    <path d="M 84.488182 319.365733 
L 96.831826 326.734734 
L 109.17547 335.209505 
L 121.519114 339.848655 
L 146.206401 343.960664 
L 195.580977 351.498212 
L 269.64284 356.066125 
L 442.453855 366.174209 
L 679.451818 372.845455 
" clip-path="url(#p7fbda9c770)" style="fill: none; stroke: #2ca02c; stroke-width: 1.5; stroke-linecap: square"/>
    <defs>
     <path id="m7d665d5a64" d="M 0 -3.5 
L -3.5 3.5 
L 3.5 3.5 
z
" style="stroke: #2ca02c; stroke-linejoin: miter"/>
    </defs>
    <g clip-path="url(#p7fbda9c770)">
     <use xlink:href="#m7d665d5a64" x="84.488182" y="319.365733" style="fill: #2ca02c; stroke: #2ca02c; stroke-linejoin: miter"/>
     <use xlink:href="#m7d665d5a64" x="96.831826" y="326.734734" style="fill: #2ca02c; stroke: #2ca02c; stroke-linejoin: miter"/>
     <use xlink:href="#m7d665d5a64" x="109.17547" y="335.209505" style="fill: #2ca02c; stroke: #2ca02c; stroke-linejoin: miter"/>
     <use xlink:href="#m7d665d5a64" x="121.519114" y="339.848655" style="fill: #2ca02c; stroke: #2ca02c; stroke-linejoin: miter"/>
     <use xlink:href="#m7d665d5a64" x="146.206401" y="343.960664" style="fill: #2ca02c; stroke: #2ca02c; stroke-linejoin: miter"/>
     <use xlink:href="#m7d665d5a64" x="195.580977" y="351.498212" style="fill: #2ca02c; stroke: #2ca02c; stroke-linejoin: miter"/>
     <use xlink:href="#m7d665d5a64" x="269.64284" y="356.066125" style="fill: #2ca02c; stroke: #2ca02c; stroke-linejoin: miter"/>
     <use xlink:href="#m7d665d5a64" x="442.453855" y="366.174209" style="fill: #2ca02c; stroke: #2ca02c; stroke-linejoin: miter"/>
     <use xlink:href="#m7d665d5a64" x="679.451818" y="372.845455" style="fill: #2ca02c; stroke: #2ca02c; stroke-linejoin: miter"/>
    </g>
   </g>
   <g id="line2d_38">
    <path d="M 84.488182 297.728867 
L 96.831826 303.580742 
L 109.17547 318.06963 
L 121.519114 321.60928 
L 146.206401 323.39234 
L 195.580977 325.079212 
L 269.64284 327.540984 
L 442.453855 330.121575 
L 679.451818 330.208133 
" clip-path="url(#p7fbda9c770)" style="fill: none; stroke-dasharray: 5.55,2.4; stroke-dashoffset: 0; stroke: #2ca02c; stroke-width: 1.5"/>
    <defs>
     <path id="mf1fdf57d93" d="M 0 -3.5 
L -3.5 3.5 
L 3.5 3.5 
z
" style="stroke: #2ca02c; stroke-linejoin: miter"/>
    </defs>
    <g clip-path="url(#p7fbda9c770)">
     <use xlink:href="#mf1fdf57d93" x="84.488182" y="297.728867" style="fill-opacity: 0; stroke: #2ca02c; stroke-linejoin: miter"/>
     <use xlink:href="#mf1fdf57d93" x="96.831826" y="303.580742" style="fill-opacity: 0; stroke: #2ca02c; stroke-linejoin: miter"/>
     <use xlink:href="#mf1fdf57d93" x="109.17547" y="318.06963" style="fill-opacity: 0; stroke: #2ca02c; stroke-linejoin: miter"/>
     <use xlink:href="#mf1fdf57d93" x="121.519114" y="321.60928" style="fill-opacity: 0; stroke: #2ca02c; stroke-linejoin: miter"/>
     <use xlink:href="#mf1fdf57d93" x="146.206401" y="323.39234" style="fill-opacity: 0; stroke: #2ca02c; stroke-linejoin: miter"/>
     <use xlink:href="#mf1fdf57d93" x="195.580977" y="325.079212" style="fill-opacity: 0; stroke: #2ca02c; stroke-linejoin: miter"/>
     <use xlink:href="#mf1fdf57d93" x="269.64284" y="327.540984" style="fill-opacity: 0; stroke: #2ca02c; stroke-linejoin: miter"/>
     <use xlink:href="#mf1fdf57d93" x="442.453855" y="330.121575" style="fill-opacity: 0; stroke: #2ca02c; stroke-linejoin: miter"/>
     <use xlink:href="#mf1fdf57d93" x="679.451818" y="330.208133" style="fill-opacity: 0; stroke: #2ca02c; stroke-linejoin: miter"/>
    </g>
   </g>
   <g id="line2d_39">
    <path d="M 84.488182 253.804809 
L 96.831826 263.378981 
L 109.17547 273.133254 
L 121.519114 277.643894 
L 146.206401 280.447512 
L 195.580977 284.301488 
L 269.64284 280.130102 
L 442.453855 293.555611 
L 679.451818 311.05852 
" clip-path="url(#p7fbda9c770)" style="fill: none; stroke: #d62728; stroke-width: 1.5; stroke-linecap: square"/>
    <defs>
     <path id="m7e3f1a21a3" d="M -0 4.949747 
L 4.949747 0 
L 0 -4.949747 
L -4.949747 -0 
z
" style="stroke: #d62728; stroke-linejoin: miter"/>
    </defs>
    <g clip-path="url(#p7fbda9c770)">
     <use xlink:href="#m7e3f1a21a3" x="84.488182" y="253.804809" style="fill: #d62728; stroke: #d62728; stroke-linejoin: miter"/>
     <use xlink:href="#m7e3f1a21a3" x="96.831826" y="263.378981" style="fill: #d62728; stroke: #d62728; stroke-linejoin: miter"/>
     <use xlink:href="#m7e3f1a21a3" x="109.17547" y="273.133254" style="fill: #d62728; stroke: #d62728; stroke-linejoin: miter"/>
     <use xlink:href="#m7e3f1a21a3" x="121.519114" y="277.643894" style="fill: #d62728; stroke: #d62728; stroke-linejoin: miter"/>
     <use xlink:href="#m7e3f1a21a3" x="146.206401" y="280.447512" style="fill: #d62728; stroke: #d62728; stroke-linejoin: miter"/>
     <use xlink:href="#m7e3f1a21a3" x="195.580977" y="284.301488" style="fill: #d62728; stroke: #d62728; stroke-linejoin: miter"/>
     <use xlink:href="#m7e3f1a21a3" x="269.64284" y="280.130102" style="fill: #d62728; stroke: #d62728; stroke-linejoin: miter"/>
     <use xlink:href="#m7e3f1a21a3" x="442.453855" y="293.555611" style="fill: #d62728; stroke: #d62728; stroke-linejoin: miter"/>
     <use xlink:href="#m7e3f1a21a3" x="679.451818" y="311.05852" style="fill: #d62728; stroke: #d62728; stroke-linejoin: miter"/>
    </g>
   </g>
   <g id="line2d_40">
    <path d="M 84.488182 129.061276 
L 96.831826 151.831317 
L 109.17547 128.231652 
L 121.519114 112.466033 
L 146.206401 119.99307 
L 195.580977 87.795914 
L 269.64284 56.741426 
L 442.453855 78.469278 
L 679.451818 112.620373 
" clip-path="url(#p7fbda9c770)" style="fill: none; stroke-dasharray: 5.55,2.4; stroke-dashoffset: 0; stroke: #d62728; stroke-width: 1.5"/>
    <defs>
     <path id="m1ee3e99492" d="M -0 4.949747 
L 4.949747 0 
L 0 -4.949747 
L -4.949747 -0 
z
" style="stroke: #d62728; stroke-linejoin: miter"/>
    </defs>
    <g clip-path="url(#p7fbda9c770)">
     <use xlink:href="#m1ee3e99492" x="84.488182" y="129.061276" style="fill-opacity: 0; stroke: #d62728; stroke-linejoin: miter"/>
     <use xlink:href="#m1ee3e99492" x="96.831826" y="151.831317" style="fill-opacity: 0; stroke: #d62728; stroke-linejoin: miter"/>
     <use xlink:href="#m1ee3e99492" x="109.17547" y="128.231652" style="fill-opacity: 0; stroke: #d62728; stroke-linejoin: miter"/>
     <use xlink:href="#m1ee3e99492" x="121.519114" y="112.466033" style="fill-opacity: 0; stroke: #d62728; stroke-linejoin: miter"/>
     <use xlink:href="#m1ee3e99492" x="146.206401" y="119.99307" style="fill-opacity: 0; stroke: #d62728; stroke-linejoin: miter"/>
     <use xlink:href="#m1ee3e99492" x="195.580977" y="87.795914" style="fill-opacity: 0; stroke: #d62728; stroke-linejoin: miter"/>
     <use xlink:href="#m1ee3e99492" x="269.64284" y="56.741426" style="fill-opacity: 0; stroke: #d62728; stroke-linejoin: miter"/>
     <use xlink:href="#m1ee3e99492" x="442.453855" y="78.469278" style="fill-opacity: 0; stroke: #d62728; stroke-linejoin: miter"/>
     <use xlink:href="#m1ee3e99492" x="679.451818" y="112.620373" style="fill-opacity: 0; stroke: #d62728; stroke-linejoin: miter"/>
    </g>
   </g>
   <g id="patch_3">
    <path d="M 54.74 389.32 
L 54.74 26.88 
" style="fill: none; stroke: #000000; stroke-width: 0.8; stroke-linejoin: miter; stroke-linecap: square"/>
   </g>
   <g id="patch_4">
    <path d="M 709.2 389.32 
L 709.2 26.88 
" style="fill: none; stroke: #000000; stroke-width: 0.8; stroke-linejoin: miter; stroke-linecap: square"/>
   </g>
   <g id="patch_5">
    <path d="M 54.74 389.32 
L 709.2 389.32 
" style="fill: none; stroke: #000000; stroke-width: 0.8; stroke-linejoin: miter; stroke-linecap: square"/>
   </g>
   <g id="patch_6">
    <path d="M 54.74 26.88 
L 709.2 26.88 
" style="fill: none; stroke: #000000; stroke-width: 0.8; stroke-linejoin: miter; stroke-linecap: square"/>
   </g>
   <g id="text_19">
    <!-- Bytes Per Butteraugli Per Pixel vs Resolution -->
    <g transform="translate(249.270625 20.88) scale(0.12 -0.12)">
     <defs>
      <path id="DejaVuSans-76" d="M 191 3500 
L 800 3500 
L 1894 563 
L 2988 3500 
L 3597 3500 
L 2284 0 
L 1503 0 
L 191 3500 
z
" transform="scale(0.015625)"/>
     </defs>
     <use xlink:href="#DejaVuSans-42"/>
     <use xlink:href="#DejaVuSans-79" transform="translate(68.603516 0)"/>
     <use xlink:href="#DejaVuSans-74" transform="translate(127.783203 0)"/>
     <use xlink:href="#DejaVuSans-65" transform="translate(166.992188 0)"/>
     <use xlink:href="#DejaVuSans-73" transform="translate(228.515625 0)"/>
     <use xlink:href="#DejaVuSans-20" transform="translate(280.615234 0)"/>
     <use xlink:href="#DejaVuSans-50" transform="translate(312.402344 0)"/>
     <use xlink:href="#DejaVuSans-65" transform="translate(369.080078 0)"/>
     <use xlink:href="#DejaVuSans-72" transform="translate(430.603516 0)"/>
     <use xlink:href="#DejaVuSans-20" transform="translate(471.716797 0)"/>
     <use xlink:href="#DejaVuSans-42" transform="translate(503.503906 0)"/>
     <use xlink:href="#DejaVuSans-75" transform="translate(572.107422 0)"/>
     <use xlink:href="#DejaVuSans-74" transform="translate(635.486328 0)"/>
     <use xlink:href="#DejaVuSans-74" transform="translate(674.695312 0)"/>
     <use xlink:href="#DejaVuSans-65" transform="translate(713.904297 0)"/>
     <use xlink:href="#DejaVuSans-72" transform="translate(775.427734 0)"/>
     <use xlink:href="#DejaVuSans-61" transform="translate(816.541016 0)"/>
     <use xlink:href="#DejaVuSans-75" transform="translate(877.820312 0)"/>
     <use xlink:href="#DejaVuSans-67" transform="translate(941.199219 0)"/>
     <use xlink:href="#DejaVuSans-6c" transform="translate(1004.675781 0)"/>
     <use xlink:href="#DejaVuSans-69" transform="translate(1032.458984 0)"/>
     <use xlink:href="#DejaVuSans-20" transform="translate(1060.242188 0)"/>
     <use xlink:href="#DejaVuSans-50" transform="translate(1092.029297 0)"/>
     <use xlink:href="#DejaVuSans-65" transform="translate(1148.707031 0)"/>
     <use xlink:href="#DejaVuSans-72" transform="translate(1210.230469 0)"/>
     <use xlink:href="#DejaVuSans-20" transform="translate(1251.34375 0)"/>
     <use xlink:href="#DejaVuSans-50" transform="translate(1283.130859 0)"/>
     <use xlink:href="#DejaVuSans-69" transform="translate(1341.183594 0)"/>
     <use xlink:href="#DejaVuSans-78" transform="translate(1368.966797 0)"/>
     <use xlink:href="#DejaVuSans-65" transform="translate(1425.021484 0)"/>
     <use xlink:href="#DejaVuSans-6c" transform="translate(1486.544922 0)"/>
     <use xlink:href="#DejaVuSans-20" transform="translate(1514.328125 0)"/>
     <use xlink:href="#DejaVuSans-76" transform="translate(1546.115234 0)"/>
     <use xlink:href="#DejaVuSans-73" transform="translate(1605.294922 0)"/>
     <use xlink:href="#DejaVuSans-20" transform="translate(1657.394531 0)"/>
     <use xlink:href="#DejaVuSans-52" transform="translate(1689.181641 0)"/>
     <use xlink:href="#DejaVuSans-65" transform="translate(1754.164062 0)"/>
     <use xlink:href="#DejaVuSans-73" transform="translate(1815.6875 0)"/>
     <use xlink:href="#DejaVuSans-6f" transform="translate(1867.787109 0)"/>
     <use xlink:href="#DejaVuSans-6c" transform="translate(1928.96875 0)"/>
     <use xlink:href="#DejaVuSans-75" transform="translate(1956.751953 0)"/>
     <use xlink:href="#DejaVuSans-74" transform="translate(2020.130859 0)"/>
     <use xlink:href="#DejaVuSans-69" transform="translate(2059.339844 0)"/>
     <use xlink:href="#DejaVuSans-6f" transform="translate(2087.123047 0)"/>
     <use xlink:href="#DejaVuSans-6e" transform="translate(2148.304688 0)"/>
    </g>
   </g>
   <g id="legend_1">
    <g id="patch_7">
     <path d="M 480.2175 81.14 
L 703.6 81.14 
Q 705.2 81.14 705.2 79.54 
L 705.2 32.48 
Q 705.2 30.88 703.6 30.88 
L 480.2175 30.88 
Q 478.6175 30.88 478.6175 32.48 
L 478.6175 79.54 
Q 478.6175 81.14 480.2175 81.14 
z
" style="fill: #ffffff; opacity: 0.8; stroke: #cccccc; stroke-linejoin: miter"/>
    </g>
    <g id="line2d_41">
     <path d="M 481.8175 37.35875 
L 489.8175 37.35875 
L 497.8175 37.35875 
" style="fill: none; stroke: #1f77b4; stroke-width: 1.5; stroke-linecap: square"/>
     <g>
      <use xlink:href="#m9542d7fbab" x="489.8175" y="37.35875" style="fill: #1f77b4; stroke: #1f77b4"/>
     </g>
    </g>
    <g id="text_20">
     <!-- avif_65 (mean) -->
     <g transform="translate(504.2175 40.15875) scale(0.08 -0.08)">
      <defs>
       <path id="DejaVuSans-66" d="M 2375 4863 
L 2375 4384 
L 1825 4384 
Q 1516 4384 1395 4259 
Q 1275 4134 1275 3809 
L 1275 3500 
L 2222 3500 
L 2222 3053 
L 1275 3053 
L 1275 0 
L 697 0 
L 697 3053 
L 147 3053 
L 147 3500 
L 697 3500 
L 697 3744 
Q 697 4328 969 4595 
Q 1241 4863 1831 4863 
L 2375 4863 
z
" transform="scale(0.015625)"/>
       <path id="DejaVuSans-5f" d="M 3263 -1063 
L 3263 -1509 
L -63 -1509 
L -63 -1063 
L 3263 -1063 
z
" transform="scale(0.015625)"/>
       <path id="DejaVuSans-36" d="M 2113 2584 
Q 1688 2584 1439 2293 
Q 1191 2003 1191 1497 
Q 1191 994 1439 701 
Q 1688 409 2113 409 
Q 2538 409 2786 701 
Q 3034 994 3034 1497 
Q 3034 2003 2786 2293 
Q 2538 2584 2113 2584 
z
M 3366 4563 
L 3366 3988 
Q 3128 4100 2886 4159 
Q 2644 4219 2406 4219 
Q 1781 4219 1451 3797 
Q 1122 3375 1075 2522 
Q 1259 2794 1537 2939 
Q 1816 3084 2150 3084 
Q 2853 3084 3261 2657 
Q 3669 2231 3669 1497 
Q 3669 778 3244 343 
Q 2819 -91 2113 -91 
Q 1303 -91 875 529 
Q 447 1150 447 2328 
Q 447 3434 972 4092 
Q 1497 4750 2381 4750 
Q 2619 4750 2861 4703 
Q 3103 4656 3366 4563 
z
" transform="scale(0.015625)"/>
       <path id="DejaVuSans-6d" d="M 3328 2828 
Q 3544 3216 3844 3400 
Q 4144 3584 4550 3584 
Q 5097 3584 5394 3201 
Q 5691 2819 5691 2113 
L 5691 0 
L 5113 0 
L 5113 2094 
Q 5113 2597 4934 2840 
Q 4756 3084 4391 3084 
Q 3944 3084 3684 2787 
Q 3425 2491 3425 1978 
L 3425 0 
L 2847 0 
L 2847 2094 
Q 2847 2600 2669 2842 
Q 2491 3084 2119 3084 
Q 1678 3084 1418 2786 
Q 1159 2488 1159 1978 
L 1159 0 
L 581 0 
L 581 3500 
L 1159 3500 
L 1159 2956 
Q 1356 3278 1631 3431 
Q 1906 3584 2284 3584 
Q 2666 3584 2933 3390 
Q 3200 3197 3328 2828 
z
" transform="scale(0.015625)"/>
      </defs>
      <use xlink:href="#DejaVuSans-61"/>
      <use xlink:href="#DejaVuSans-76" transform="translate(61.279297 0)"/>
      <use xlink:href="#DejaVuSans-69" transform="translate(120.458984 0)"/>
      <use xlink:href="#DejaVuSans-66" transform="translate(148.242188 0)"/>
      <use xlink:href="#DejaVuSans-5f" transform="translate(183.447266 0)"/>
      <use xlink:href="#DejaVuSans-36" transform="translate(233.447266 0)"/>
      <use xlink:href="#DejaVuSans-35" transform="translate(297.070312 0)"/>
      <use xlink:href="#DejaVuSans-20" transform="translate(360.693359 0)"/>
      <use xlink:href="#DejaVuSans-28" transform="translate(392.480469 0)"/>
      <use xlink:href="#DejaVuSans-6d" transform="translate(431.494141 0)"/>
      <use xlink:href="#DejaVuSans-65" transform="translate(528.90625 0)"/>
      <use xlink:href="#DejaVuSans-61" transform="translate(590.429688 0)"/>
      <use xlink:href="#DejaVuSans-6e" transform="translate(651.708984 0)"/>
      <use xlink:href="#DejaVuSans-29" transform="translate(715.087891 0)"/>
     </g>
    </g>
    <g id="line2d_42">
     <path d="M 481.8175 49.32375 
L 489.8175 49.32375 
L 497.8175 49.32375 
" style="fill: none; stroke-dasharray: 5.55,2.4; stroke-dashoffset: 0; stroke: #1f77b4; stroke-width: 1.5"/>
     <g>
      <use xlink:href="#m897cb79c86" x="489.8175" y="49.32375" style="fill-opacity: 0; stroke: #1f77b4"/>
     </g>
    </g>
    <g id="text_21">
     <!-- avif_65 (5% worst) -->
     <g transform="translate(504.2175 52.12375) scale(0.08 -0.08)">
      <defs>
       <path id="DejaVuSans-25" d="M 4653 2053 
Q 4381 2053 4226 1822 
Q 4072 1591 4072 1178 
Q 4072 772 4226 539 
Q 4381 306 4653 306 
Q 4919 306 5073 539 
Q 5228 772 5228 1178 
Q 5228 1588 5073 1820 
Q 4919 2053 4653 2053 
z
M 4653 2450 
Q 5147 2450 5437 2106 
Q 5728 1763 5728 1178 
Q 5728 594 5436 251 
Q 5144 -91 4653 -91 
Q 4153 -91 3862 251 
Q 3572 594 3572 1178 
Q 3572 1766 3864 2108 
Q 4156 2450 4653 2450 
z
M 1428 4353 
Q 1159 4353 1004 4120 
Q 850 3888 850 3481 
Q 850 3069 1003 2837 
Q 1156 2606 1428 2606 
Q 1700 2606 1854 2837 
Q 2009 3069 2009 3481 
Q 2009 3884 1853 4118 
Q 1697 4353 1428 4353 
z
M 4250 4750 
L 4750 4750 
L 1831 -91 
L 1331 -91 
L 4250 4750 
z
M 1428 4750 
Q 1922 4750 2215 4408 
Q 2509 4066 2509 3481 
Q 2509 2891 2217 2550 
Q 1925 2209 1428 2209 
Q 931 2209 642 2551 
Q 353 2894 353 3481 
Q 353 4063 643 4406 
Q 934 4750 1428 4750 
z
" transform="scale(0.015625)"/>
      </defs>
      <use xlink:href="#DejaVuSans-61"/>
      <use xlink:href="#DejaVuSans-76" transform="translate(61.279297 0)"/>
      <use xlink:href="#DejaVuSans-69" transform="translate(120.458984 0)"/>
      <use xlink:href="#DejaVuSans-66" transform="translate(148.242188 0)"/>
      <use xlink:href="#DejaVuSans-5f" transform="translate(183.447266 0)"/>
      <use xlink:href="#DejaVuSans-36" transform="translate(233.447266 0)"/>
      <use xlink:href="#DejaVuSans-35" transform="translate(297.070312 0)"/>
      <use xlink:href="#DejaVuSans-20" transform="translate(360.693359 0)"/>
      <use xlink:href="#DejaVuSans-28" transform="translate(392.480469 0)"/>
      <use xlink:href="#DejaVuSans-35" transform="translate(431.494141 0)"/>
      <use xlink:href="#DejaVuSans-25" transform="translate(495.117188 0)"/>
      <use xlink:href="#DejaVuSans-20" transform="translate(590.136719 0)"/>
      <use xlink:href="#DejaVuSans-77" transform="translate(621.923828 0)"/>
      <use xlink:href="#DejaVuSans-6f" transform="translate(703.710938 0)"/>
      <use xlink:href="#DejaVuSans-72" transform="translate(764.892578 0)"/>
      <use xlink:href="#DejaVuSans-73" transform="translate(806.005859 0)"/>
      <use xlink:href="#DejaVuSans-74" transform="translate(858.105469 0)"/>
      <use xlink:href="#DejaVuSans-29" transform="translate(897.314453 0)"/>
     </g>
    </g>
    <g id="line2d_43">
     <path d="M 481.8175 61.28875 
L 489.8175 61.28875 
L 497.8175 61.28875 
" style="fill: none; stroke: #ff7f0e; stroke-width: 1.5; stroke-linecap: square"/>
     <g>
      <use xlink:href="#m264a06705a" x="489.8175" y="61.28875" style="fill: #ff7f0e; stroke: #ff7f0e; stroke-linejoin: miter"/>
     </g>
    </g>
    <g id="text_22">
     <!-- jpeg_85 (mean) -->
     <g transform="translate(504.2175 64.08875) scale(0.08 -0.08)">
      <defs>
       <path id="DejaVuSans-6a" d="M 603 3500 
L 1178 3500 
L 1178 -63 
Q 1178 -731 923 -1031 
Q 669 -1331 103 -1331 
L -116 -1331 
L -116 -844 
L 38 -844 
Q 366 -844 484 -692 
Q 603 -541 603 -63 
L 603 3500 
z
M 603 4863 
L 1178 4863 
L 1178 4134 
L 603 4134 
L 603 4863 
z
" transform="scale(0.015625)"/>
       <path id="DejaVuSans-70" d="M 1159 525 
L 1159 -1331 
L 581 -1331 
L 581 3500 
L 1159 3500 
L 1159 2969 
Q 1341 3281 1617 3432 
Q 1894 3584 2278 3584 
Q 2916 3584 3314 3078 
Q 3713 2572 3713 1747 
Q 3713 922 3314 415 
Q 2916 -91 2278 -91 
Q 1894 -91 1617 61 
Q 1341 213 1159 525 
z
M 3116 1747 
Q 3116 2381 2855 2742 
Q 2594 3103 2138 3103 
Q 1681 3103 1420 2742 
Q 1159 2381 1159 1747 
Q 1159 1113 1420 752 
Q 1681 391 2138 391 
Q 2594 391 2855 752 
Q 3116 1113 3116 1747 
z
" transform="scale(0.015625)"/>
       <path id="DejaVuSans-38" d="M 2034 2216 
Q 1584 2216 1326 1975 
Q 1069 1734 1069 1313 
Q 1069 891 1326 650 
Q 1584 409 2034 409 
Q 2484 409 2743 651 
Q 3003 894 3003 1313 
Q 3003 1734 2745 1975 
Q 2488 2216 2034 2216 
z
M 1403 2484 
Q 997 2584 770 2862 
Q 544 3141 544 3541 
Q 544 4100 942 4425 
Q 1341 4750 2034 4750 
Q 2731 4750 3128 4425 
Q 3525 4100 3525 3541 
Q 3525 3141 3298 2862 
Q 3072 2584 2669 2484 
Q 3125 2378 3379 2068 
Q 3634 1759 3634 1313 
Q 3634 634 3220 271 
Q 2806 -91 2034 -91 
Q 1263 -91 848 271 
Q 434 634 434 1313 
Q 434 1759 690 2068 
Q 947 2378 1403 2484 
z
M 1172 3481 
Q 1172 3119 1398 2916 
Q 1625 2713 2034 2713 
Q 2441 2713 2670 2916 
Q 2900 3119 2900 3481 
Q 2900 3844 2670 4047 
Q 2441 4250 2034 4250 
Q 1625 4250 1398 4047 
Q 1172 3844 1172 3481 
z
" transform="scale(0.015625)"/>
      </defs>
      <use xlink:href="#DejaVuSans-6a"/>
      <use xlink:href="#DejaVuSans-70" transform="translate(27.783203 0)"/>
      <use xlink:href="#DejaVuSans-65" transform="translate(91.259766 0)"/>
      <use xlink:href="#DejaVuSans-67" transform="translate(152.783203 0)"/>
      <use xlink:href="#DejaVuSans-5f" transform="translate(216.259766 0)"/>
      <use xlink:href="#DejaVuSans-38" transform="translate(266.259766 0)"/>
      <use xlink:href="#DejaVuSans-35" transform="translate(329.882812 0)"/>
      <use xlink:href="#DejaVuSans-20" transform="translate(393.505859 0)"/>
      <use xlink:href="#DejaVuSans-28" transform="translate(425.292969 0)"/>
      <use xlink:href="#DejaVuSans-6d" transform="translate(464.306641 0)"/>
      <use xlink:href="#DejaVuSans-65" transform="translate(561.71875 0)"/>
      <use xlink:href="#DejaVuSans-61" transform="translate(623.242188 0)"/>
      <use xlink:href="#DejaVuSans-6e" transform="translate(684.521484 0)"/>
      <use xlink:href="#DejaVuSans-29" transform="translate(747.900391 0)"/>
     </g>
    </g>
    <g id="line2d_44">
     <path d="M 481.8175 73.25375 
L 489.8175 73.25375 
L 497.8175 73.25375 
" style="fill: none; stroke-dasharray: 5.55,2.4; stroke-dashoffset: 0; stroke: #ff7f0e; stroke-width: 1.5"/>
     <g>
      <use xlink:href="#m5338dc2184" x="489.8175" y="73.25375" style="fill-opacity: 0; stroke: #ff7f0e; stroke-linejoin: miter"/>
     </g>
    </g>
    <g id="text_23">
     <!-- jpeg_85 (5% worst) -->
     <g transform="translate(504.2175 76.05375) scale(0.08 -0.08)">
      <use xlink:href="#DejaVuSans-6a"/>
      <use xlink:href="#DejaVuSans-70" transform="translate(27.783203 0)"/>
      <use xlink:href="#DejaVuSans-65" transform="translate(91.259766 0)"/>
      <use xlink:href="#DejaVuSans-67" transform="translate(152.783203 0)"/>
      <use xlink:href="#DejaVuSans-5f" transform="translate(216.259766 0)"/>
      <use xlink:href="#DejaVuSans-38" transform="translate(266.259766 0)"/>
      <use xlink:href="#DejaVuSans-35" transform="translate(329.882812 0)"/>
      <use xlink:href="#DejaVuSans-20" transform="translate(393.505859 0)"/>
      <use xlink:href="#DejaVuSans-28" transform="translate(425.292969 0)"/>
      <use xlink:href="#DejaVuSans-35" transform="translate(464.306641 0)"/>
      <use xlink:href="#DejaVuSans-25" transform="translate(527.929688 0)"/>
      <use xlink:href="#DejaVuSans-20" transform="translate(622.949219 0)"/>
      <use xlink:href="#DejaVuSans-77" transform="translate(654.736328 0)"/>
      <use xlink:href="#DejaVuSans-6f" transform="translate(736.523438 0)"/>
      <use xlink:href="#DejaVuSans-72" transform="translate(797.705078 0)"/>
      <use xlink:href="#DejaVuSans-73" transform="translate(838.818359 0)"/>
      <use xlink:href="#DejaVuSans-74" transform="translate(890.917969 0)"/>
      <use xlink:href="#DejaVuSans-29" transform="translate(930.126953 0)"/>
     </g>
    </g>
    <g id="line2d_45">
     <path d="M 597.74875 37.35875 
L 605.74875 37.35875 
L 613.74875 37.35875 
" style="fill: none; stroke: #2ca02c; stroke-width: 1.5; stroke-linecap: square"/>
     <g>
      <use xlink:href="#m7d665d5a64" x="605.74875" y="37.35875" style="fill: #2ca02c; stroke: #2ca02c; stroke-linejoin: miter"/>
     </g>
    </g>
    <g id="text_24">
     <!-- jxl_85 (mean) -->
     <g transform="translate(620.14875 40.15875) scale(0.08 -0.08)">
      <use xlink:href="#DejaVuSans-6a"/>
      <use xlink:href="#DejaVuSans-78" transform="translate(27.783203 0)"/>
      <use xlink:href="#DejaVuSans-6c" transform="translate(86.962891 0)"/>
      <use xlink:href="#DejaVuSans-5f" transform="translate(114.746094 0)"/>
      <use xlink:href="#DejaVuSans-38" transform="translate(164.746094 0)"/>
      <use xlink:href="#DejaVuSans-35" transform="translate(228.369141 0)"/>
      <use xlink:href="#DejaVuSans-20" transform="translate(291.992188 0)"/>
      <use xlink:href="#DejaVuSans-28" transform="translate(323.779297 0)"/>
      <use xlink:href="#DejaVuSans-6d" transform="translate(362.792969 0)"/>
      <use xlink:href="#DejaVuSans-65" transform="translate(460.205078 0)"/>
      <use xlink:href="#DejaVuSans-61" transform="translate(521.728516 0)"/>
      <use xlink:href="#DejaVuSans-6e" transform="translate(583.007812 0)"/>
      <use xlink:href="#DejaVuSans-29" transform="translate(646.386719 0)"/>
     </g>
    </g>
    <g id="line2d_46">
     <path d="M 597.74875 49.32375 
L 605.74875 49.32375 
L 613.74875 49.32375 
" style="fill: none; stroke-dasharray: 5.55,2.4; stroke-dashoffset: 0; stroke: #2ca02c; stroke-width: 1.5"/>
     <g>
      <use xlink:href="#mf1fdf57d93" x="605.74875" y="49.32375" style="fill-opacity: 0; stroke: #2ca02c; stroke-linejoin: miter"/>
     </g>
    </g>
    <g id="text_25">
     <!-- jxl_85 (5% worst) -->
     <g transform="translate(620.14875 52.12375) scale(0.08 -0.08)">
      <use xlink:href="#DejaVuSans-6a"/>
      <use xlink:href="#DejaVuSans-78" transform="translate(27.783203 0)"/>
      <use xlink:href="#DejaVuSans-6c" transform="translate(86.962891 0)"/>
      <use xlink:href="#DejaVuSans-5f" transform="translate(114.746094 0)"/>
      <use xlink:href="#DejaVuSans-38" transform="translate(164.746094 0)"/>
      <use xlink:href="#DejaVuSans-35" transform="translate(228.369141 0)"/>
      <use xlink:href="#DejaVuSans-20" transform="translate(291.992188 0)"/>
      <use xlink:href="#DejaVuSans-28" transform="translate(323.779297 0)"/>
      <use xlink:href="#DejaVuSans-35" transform="translate(362.792969 0)"/>
      <use xlink:href="#DejaVuSans-25" transform="translate(426.416016 0)"/>
      <use xlink:href="#DejaVuSans-20" transform="translate(521.435547 0)"/>
      <use xlink:href="#DejaVuSans-77" transform="translate(553.222656 0)"/>
      <use xlink:href="#DejaVuSans-6f" transform="translate(635.009766 0)"/>
      <use xlink:href="#DejaVuSans-72" transform="translate(696.191406 0)"/>
      <use xlink:href="#DejaVuSans-73" transform="translate(737.304688 0)"/>
      <use xlink:href="#DejaVuSans-74" transform="translate(789.404297 0)"/>
      <use xlink:href="#DejaVuSans-29" transform="translate(828.613281 0)"/>
     </g>
    </g>
    <g id="line2d_47">
     <path d="M 597.74875 61.28875 
L 605.74875 61.28875 
L 613.74875 61.28875 
" style="fill: none; stroke: #d62728; stroke-width: 1.5; stroke-linecap: square"/>
     <g>
      <use xlink:href="#m7e3f1a21a3" x="605.74875" y="61.28875" style="fill: #d62728; stroke: #d62728; stroke-linejoin: miter"/>
     </g>
    </g>
    <g id="text_26">
     <!-- webp_87 (mean) -->
     <g transform="translate(620.14875 64.08875) scale(0.08 -0.08)">
      <use xlink:href="#DejaVuSans-77"/>
      <use xlink:href="#DejaVuSans-65" transform="translate(81.787109 0)"/>
      <use xlink:href="#DejaVuSans-62" transform="translate(143.310547 0)"/>
      <use xlink:href="#DejaVuSans-70" transform="translate(206.787109 0)"/>
      <use xlink:href="#DejaVuSans-5f" transform="translate(270.263672 0)"/>
      <use xlink:href="#DejaVuSans-38" transform="translate(320.263672 0)"/>
      <use xlink:href="#DejaVuSans-37" transform="translate(383.886719 0)"/>
      <use xlink:href="#DejaVuSans-20" transform="translate(447.509766 0)"/>
      <use xlink:href="#DejaVuSans-28" transform="translate(479.296875 0)"/>
      <use xlink:href="#DejaVuSans-6d" transform="translate(518.310547 0)"/>
      <use xlink:href="#DejaVuSans-65" transform="translate(615.722656 0)"/>
      <use xlink:href="#DejaVuSans-61" transform="translate(677.246094 0)"/>
      <use xlink:href="#DejaVuSans-6e" transform="translate(738.525391 0)"/>
      <use xlink:href="#DejaVuSans-29" transform="translate(801.904297 0)"/>
     </g>
    </g>
    <g id="line2d_48">
     <path d="M 597.74875 73.25375 
L 605.74875 73.25375 
L 613.74875 73.25375 
" style="fill: none; stroke-dasharray: 5.55,2.4; stroke-dashoffset: 0; stroke: #d62728; stroke-width: 1.5"/>
     <g>
      <use xlink:href="#m1ee3e99492" x="605.74875" y="73.25375" style="fill-opacity: 0; stroke: #d62728; stroke-linejoin: miter"/>
     </g>
    </g>
    <g id="text_27">
     <!-- webp_87 (5% worst) -->
     <g transform="translate(620.14875 76.05375) scale(0.08 -0.08)">
      <use xlink:href="#DejaVuSans-77"/>
      <use xlink:href="#DejaVuSans-65" transform="translate(81.787109 0)"/>
      <use xlink:href="#DejaVuSans-62" transform="translate(143.310547 0)"/>
      <use xlink:href="#DejaVuSans-70" transform="translate(206.787109 0)"/>
      <use xlink:href="#DejaVuSans-5f" transform="translate(270.263672 0)"/>
      <use xlink:href="#DejaVuSans-38" transform="translate(320.263672 0)"/>
      <use xlink:href="#DejaVuSans-37" transform="translate(383.886719 0)"/>
      <use xlink:href="#DejaVuSans-20" transform="translate(447.509766 0)"/>
      <use xlink:href="#DejaVuSans-28" transform="translate(479.296875 0)"/>
      <use xlink:href="#DejaVuSans-35" transform="translate(518.310547 0)"/>
      <use xlink:href="#DejaVuSans-25" transform="translate(581.933594 0)"/>
      <use xlink:href="#DejaVuSans-20" transform="translate(676.953125 0)"/>
      <use xlink:href="#DejaVuSans-77" transform="translate(708.740234 0)"/>
      <use xlink:href="#DejaVuSans-6f" transform="translate(790.527344 0)"/>
      <use xlink:href="#DejaVuSans-72" transform="translate(851.708984 0)"/>
      <use xlink:href="#DejaVuSans-73" transform="translate(892.822266 0)"/>
      <use xlink:href="#DejaVuSans-74" transform="translate(944.921875 0)"/>
      <use xlink:href="#DejaVuSans-29" transform="translate(984.130859 0)"/>
     </g>
    </g>
   </g>
  </g>
 </g>
 <defs>
  <clipPath id="p7fbda9c770">
   <rect x="54.74" y="26.88" width="654.46" height="362.44"/>
  </clipPath>
 </defs>
</svg>
