<svg xmlns="http://www.w3.org/2000/svg" xmlns:xlink="http://www.w3.org/1999/xlink" width="960" height="576" viewBox="0 0 720 432"><path d="M0 432h720V0H0z" style="fill:#fff"/><path d="M56.7 389.3h652.5V27H56.7z" style="fill:#fff"/><path d="M126.3 389.3V27" clip-path="url(#a)" style="fill:none;stroke:#b0b0b0;stroke-opacity:.3;stroke-width:.8;stroke-linecap:square"/><defs><path id="b" d="M0 0v3.5" style="stroke:#000;stroke-width:.8"/></defs><use xlink:href="#b" x="126.3" y="389.3" style="stroke:#000;stroke-width:.8"/><g transform="matrix(.1 0 0 -.1 116.8 404)"><defs><path id="c" d="M1228 531h2203V0H469v531q359 372 979 998 621 627 780 809 303 340 423 576 121 236 121 464 0 372-261 606-261 235-680 235-297 0-627-103-329-103-704-313v638q381 153 712 231 332 78 607 78 725 0 1156-363 431-362 431-968 0-288-108-546-107-257-392-607-78-91-497-524-418-433-1181-1211" transform="scale(.01563)"/><path id="d" d="M691 4666h2478v-532H1269V2991q137 47 274 70 138 23 276 23 781 0 1237-428 457-428 457-1159 0-753-469-1171Q2575-91 1722-91q-294 0-599 50Q819 9 494 109v635q281-153 581-228t634-75q541 0 856 284 316 284 316 772 0 487-316 771-315 285-856 285-253 0-505-56-251-56-513-175z" transform="scale(.01563)"/><path id="e" d="M2034 4250q-487 0-733-480-245-479-245-1442 0-959 245-1439 246-480 733-480 491 0 736 480 246 480 246 1439 0 963-246 1442-245 480-736 480m0 500q785 0 1199-621 414-620 414-1801 0-1178-414-1799Q2819-91 2034-91q-784 0-1198 620-414 621-414 1799 0 1181 414 1801 414 621 1198 621" transform="scale(.01563)"/></defs><use xlink:href="#c"/><use xlink:href="#d" transform="translate(63.6)"/><use xlink:href="#e" transform="translate(127.2)"/></g><path d="M203.3 389.3V27" clip-path="url(#a)" style="fill:none;stroke:#b0b0b0;stroke-opacity:.3;stroke-width:.8;stroke-linecap:square"/><use xlink:href="#b" x="203.3" y="389.3" style="stroke:#000;stroke-width:.8"/><g transform="matrix(.1 0 0 -.1 193.7 404)"><use xlink:href="#d"/><use xlink:href="#e" transform="translate(63.6)"/><use xlink:href="#e" transform="translate(127.2)"/></g><path d="M280.2 389.3V27" clip-path="url(#a)" style="fill:none;stroke:#b0b0b0;stroke-opacity:.3;stroke-width:.8;stroke-linecap:square"/><use xlink:href="#b" x="280.2" y="389.3" style="stroke:#000;stroke-width:.8"/><g transform="matrix(.1 0 0 -.1 270.6 404)"><defs><path id="f" d="M525 4666h3000v-269L1831 0h-659l1594 4134H525z" transform="scale(.01563)"/></defs><use xlink:href="#f"/><use xlink:href="#d" transform="translate(63.6)"/><use xlink:href="#e" transform="translate(127.2)"/></g><path d="M357 389.3V27" clip-path="url(#a)" style="fill:none;stroke:#b0b0b0;stroke-opacity:.3;stroke-width:.8;stroke-linecap:square"/><use xlink:href="#b" x="357.1" y="389.3" style="stroke:#000;stroke-width:.8"/><g transform="matrix(.1 0 0 -.1 344.4 404)"><defs><path id="g" d="M794 531h1031v3560L703 3866v575l1116 225h631V531h1031V0H794z" transform="scale(.01563)"/></defs><use xlink:href="#g"/><use xlink:href="#e" transform="translate(63.6)"/><use xlink:href="#e" transform="translate(127.2)"/><use xlink:href="#e" transform="translate(190.9)"/></g><path d="M434 389.3V27" clip-path="url(#a)" style="fill:none;stroke:#b0b0b0;stroke-opacity:.3;stroke-width:.8;stroke-linecap:square"/><use xlink:href="#b" x="434" y="389.3" style="stroke:#000;stroke-width:.8"/><g transform="matrix(.1 0 0 -.1 421.3 404)"><use xlink:href="#g"/><use xlink:href="#c" transform="translate(63.6)"/><use xlink:href="#d" transform="translate(127.2)"/><use xlink:href="#e" transform="translate(190.9)"/></g><path d="M511 389.3V27" clip-path="url(#a)" style="fill:none;stroke:#b0b0b0;stroke-opacity:.3;stroke-width:.8;stroke-linecap:square"/><use xlink:href="#b" x="510.9" y="389.3" style="stroke:#000;stroke-width:.8"/><g transform="matrix(.1 0 0 -.1 498.2 404)"><use xlink:href="#g"/><use xlink:href="#d" transform="translate(63.6)"/><use xlink:href="#e" transform="translate(127.2)"/><use xlink:href="#e" transform="translate(190.9)"/></g><path d="M587.9 389.3V27" clip-path="url(#a)" style="fill:none;stroke:#b0b0b0;stroke-opacity:.3;stroke-width:.8;stroke-linecap:square"/><use xlink:href="#b" x="587.9" y="389.3" style="stroke:#000;stroke-width:.8"/><g transform="matrix(.1 0 0 -.1 575.1 404)"><use xlink:href="#g"/><use xlink:href="#f" transform="translate(63.6)"/><use xlink:href="#d" transform="translate(127.2)"/><use xlink:href="#e" transform="translate(190.9)"/></g><path d="M664.8 389.3V27" clip-path="url(#a)" style="fill:none;stroke:#b0b0b0;stroke-opacity:.3;stroke-width:.8;stroke-linecap:square"/><use xlink:href="#b" x="664.8" y="389.3" style="stroke:#000;stroke-width:.8"/><g transform="matrix(.1 0 0 -.1 652 404)"><use xlink:href="#c"/><use xlink:href="#e" transform="translate(63.6)"/><use xlink:href="#e" transform="translate(127.2)"/><use xlink:href="#e" transform="translate(190.9)"/></g><g transform="matrix(.11 0 0 -.11 354.2 418.4)"><defs><path id="h" d="M2841 2188q203-69 395-294t386-619L4263 0h-679l-596 1197q-232 469-449 622t-592 153h-688V0H628v4666h1425q800 0 1194-335 394-334 394-1009 0-441-205-732-205-290-595-402M1259 4147V2491h794q456 0 689 211t233 620-233 617-689 208z" transform="scale(.01563)"/><path id="i" d="M3597 1894v-281H953q38-594 358-905t892-311q331 0 642 81t618 244V178Q3153 47 2828-22t-659-69q-838 0-1327 487-489 488-489 1320 0 859 464 1363 464 505 1252 505 706 0 1117-455 411-454 411-1235m-575 169q-6 471-264 752-258 282-683 282-481 0-770-272t-333-766z" transform="scale(.01563)"/><path id="j" d="M2834 3397v-544q-243 125-506 187-262 63-544 63-428 0-642-131t-214-394q0-200 153-314t616-217l197-44q612-131 870-370t258-667q0-488-386-773Q2250-91 1575-91q-281 0-586 55T347 128v594q319-166 628-249 309-82 613-82 406 0 624 139 219 139 219 392 0 234-158 359-157 125-692 241l-200 47q-534 112-772 345-237 233-237 639 0 494 350 762 350 269 994 269 318 0 599-47 282-46 519-140" transform="scale(.01563)"/><path id="k" d="M1959 3097q-462 0-731-361t-269-989 267-989q268-361 733-361 460 0 728 362 269 363 269 988 0 622-269 986-268 364-728 364m0 487q750 0 1178-488 429-487 429-1349 0-859-429-1349Q2709-91 1959-91q-753 0-1180 489-426 490-426 1349 0 862 426 1349 427 488 1180 488" transform="scale(.01563)"/><path id="l" d="M603 4863h575V0H603z" transform="scale(.01563)"/><path id="m" d="M544 1381v2119h575V1403q0-497 193-746 194-248 582-248 465 0 735 297 271 297 271 810v1984h575V0h-575v538q-209-319-486-474-276-155-642-155-603 0-916 375-312 375-312 1097m1447 2203" transform="scale(.01563)"/><path id="n" d="M1172 4494v-994h1184v-447H1172V1153q0-428 117-550t477-122h590V0h-590q-666 0-919 248-253 249-253 905v1900H172v447h422v994z" transform="scale(.01563)"/><path id="o" d="M603 3500h575V0H603zm0 1363h575v-729H603z" transform="scale(.01563)"/><path id="p" d="M3513 2113V0h-575v2094q0 497-194 743-194 247-581 247-466 0-735-297-269-296-269-809V0H581v3500h578v-544q207 316 486 472 280 156 646 156 603 0 912-373 310-373 310-1098" transform="scale(.01563)"/></defs><use xlink:href="#h"/><use xlink:href="#i" transform="translate(65)"/><use xlink:href="#j" transform="translate(126.5)"/><use xlink:href="#k" transform="translate(178.6)"/><use xlink:href="#l" transform="translate(239.8)"/><use xlink:href="#m" transform="translate(267.6)"/><use xlink:href="#n" transform="translate(331)"/><use xlink:href="#o" transform="translate(370.2)"/><use xlink:href="#k" transform="translate(398)"/><use xlink:href="#p" transform="translate(459.1)"/></g><path d="M56.7 325.3h652.5" clip-path="url(#a)" style="fill:none;stroke:#b0b0b0;stroke-opacity:.3;stroke-width:.8;stroke-linecap:square"/><defs><path id="q" d="M0 0h-3.5" style="stroke:#000;stroke-width:.8"/></defs><use xlink:href="#q" x="56.7" y="325.3" style="stroke:#000;stroke-width:.8"/><g transform="matrix(.1 0 0 -.1 26.2 329.1)"><defs><path id="r" d="M678 2272h4006v-531H678z" transform="scale(.01563)"/></defs><use xlink:href="#g" transform="translate(0 .7)"/><use xlink:href="#e" transform="translate(63.6 .7)"/><use xlink:href="#r" transform="matrix(.7 0 0 .7 128.2 39)"/><use xlink:href="#f" transform="matrix(.7 0 0 .7 186.9 39)"/></g><path d="M56.7 201.4h652.5" clip-path="url(#a)" style="fill:none;stroke:#b0b0b0;stroke-opacity:.3;stroke-width:.8;stroke-linecap:square"/><use xlink:href="#q" x="56.7" y="201.4" style="stroke:#000;stroke-width:.8"/><g transform="matrix(.1 0 0 -.1 26.2 205.2)"><defs><path id="s" d="M2113 2584q-425 0-674-291-248-290-248-796 0-503 248-796 249-292 674-292t673 292q248 293 248 796 0 506-248 796-248 291-673 291m1253 1979v-575q-238 112-480 171-242 60-480 60-625 0-955-422-329-422-376-1275 184 272 462 417 279 145 613 145 703 0 1111-427 408-426 408-1160 0-719-425-1154Q2819-91 2113-91q-810 0-1238 620-428 621-428 1799 0 1106 525 1764t1409 658q238 0 480-47t505-140" transform="scale(.01563)"/></defs><use xlink:href="#g" transform="translate(0 .8)"/><use xlink:href="#e" transform="translate(63.6 .8)"/><use xlink:href="#r" transform="matrix(.7 0 0 .7 128.2 39)"/><use xlink:href="#s" transform="matrix(.7 0 0 .7 186.9 39)"/></g><path d="M56.7 77.4h652.5" clip-path="url(#a)" style="fill:none;stroke:#b0b0b0;stroke-opacity:.3;stroke-width:.8;stroke-linecap:square"/><use xlink:href="#q" x="56.7" y="77.4" style="stroke:#000;stroke-width:.8"/><g transform="matrix(.1 0 0 -.1 26.2 81.2)"><use xlink:href="#g" transform="translate(0 .7)"/><use xlink:href="#e" transform="translate(63.6 .7)"/><use xlink:href="#r" transform="matrix(.7 0 0 .7 128.2 39)"/><use xlink:href="#d" transform="matrix(.7 0 0 .7 186.9 39)"/></g><defs><path id="t" d="M0 0h-2" style="stroke:#000;stroke-width:.6"/></defs><use xlink:href="#t" x="56.7" y="374.7" style="stroke:#000;stroke-width:.6"/><use xlink:href="#t" x="56.7" y="362.7" style="stroke:#000;stroke-width:.6"/><use xlink:href="#t" x="56.7" y="352.8" style="stroke:#000;stroke-width:.6"/><use xlink:href="#t" x="56.7" y="344.5" style="stroke:#000;stroke-width:.6"/><use xlink:href="#t" x="56.7" y="337.4" style="stroke:#000;stroke-width:.6"/><use xlink:href="#t" x="56.7" y="331" style="stroke:#000;stroke-width:.6"/><use xlink:href="#t" x="56.7" y="288" style="stroke:#000;stroke-width:.6"/><use xlink:href="#t" x="56.7" y="266.2" style="stroke:#000;stroke-width:.6"/><use xlink:href="#t" x="56.7" y="250.7" style="stroke:#000;stroke-width:.6"/><use xlink:href="#t" x="56.7" y="238.7" style="stroke:#000;stroke-width:.6"/><use xlink:href="#t" x="56.7" y="228.9" style="stroke:#000;stroke-width:.6"/><use xlink:href="#t" x="56.7" y="220.6" style="stroke:#000;stroke-width:.6"/><use xlink:href="#t" x="56.7" y="213.4" style="stroke:#000;stroke-width:.6"/><use xlink:href="#t" x="56.7" y="207.1" style="stroke:#000;stroke-width:.6"/><use xlink:href="#t" x="56.7" y="164.1" style="stroke:#000;stroke-width:.6"/><use xlink:href="#t" x="56.7" y="142.2" style="stroke:#000;stroke-width:.6"/><use xlink:href="#t" x="56.7" y="126.7" style="stroke:#000;stroke-width:.6"/><use xlink:href="#t" x="56.7" y="114.7" style="stroke:#000;stroke-width:.6"/><use xlink:href="#t" x="56.7" y="104.9" style="stroke:#000;stroke-width:.6"/><use xlink:href="#t" x="56.7" y="96.6" style="stroke:#000;stroke-width:.6"/><use xlink:href="#t" x="56.7" y="89.4" style="stroke:#000;stroke-width:.6"/><use xlink:href="#t" x="56.7" y="83.1" style="stroke:#000;stroke-width:.6"/><use xlink:href="#t" x="56.7" y="40.1" style="stroke:#000;stroke-width:.6"/><g transform="matrix(0 -.11 -.11 0 19.9 376.1)"><defs><path id="u" d="M628 4666h2950v-532H1259V2753h2222v-531H1259V531h2375V0H628z" transform="scale(.01563)"/><path id="v" d="M3122 3366v-538q-244 135-489 202t-495 67q-560 0-870-355-309-354-309-995t309-996q310-354 870-354 250 0 495 67t489 202V134Q2881 22 2623-34q-257-57-548-57-791 0-1257 497-465 497-465 1341 0 856 470 1346 471 491 1290 491 265 0 518-55 253-54 491-163" transform="scale(.01563)"/><path id="w" d="M2906 2969v1894h575V0h-575v525q-181-312-458-464-276-152-664-152-634 0-1033 506-398 507-398 1332t398 1331q399 506 1033 506 388 0 664-152 277-151 458-463M947 1747q0-634 261-995t717-361 718 361q263 361 263 995t-263 995q-262 361-718 361t-717-361-261-995" transform="scale(.01563)"/><path id="x" d="M2906 1791q0 625-258 968-257 344-723 344-462 0-720-344-258-343-258-968 0-622 258-966t720-344q466 0 723 344 258 344 258 966m575-1357q0-893-397-1329-396-436-1215-436-303 0-572 45t-522 139v559q253-137 500-202 247-66 503-66 566 0 847 295t281 892v285q-178-310-456-463T1784 0Q1141 0 747 490 353 981 353 1791q0 812 394 1302 394 491 1037 491 388 0 666-153t456-462v531h575z" transform="scale(.01563)"/><path id="y" d="M-19 4666h3947v-532H2272V0h-634v4134H-19z" transform="scale(.01563)"/><path id="z" d="M3328 2828q216 388 516 572t706 184q547 0 844-383 297-382 297-1088V0h-578v2094q0 503-179 746-178 244-543 244-447 0-707-297-259-296-259-809V0h-578v2094q0 506-178 748t-550 242q-441 0-701-298-259-298-259-808V0H581v3500h578v-544q197 322 472 475t653 153q382 0 649-194 267-193 395-562" transform="scale(.01563)"/><path id="A" d="M1159 525v-1856H581v4831h578v-531q182 312 458 463 277 152 661 152 638 0 1036-506 399-506 399-1331T3314 415Q2916-91 2278-91q-384 0-661 152-276 152-458 464m1957 1222q0 634-261 995t-717 361q-457 0-718-361t-261-995 261-995 718-361q456 0 717 361t261 995" transform="scale(.01563)"/><path id="B" d="M2631 2963q-97 56-211 82-114 27-251 27-488 0-749-317t-261-911V0H581v3500h578v-544q182 319 472 473 291 155 707 155 59 0 131-8 72-7 159-23z" transform="scale(.01563)"/><path id="C" d="M1259 4147V2394h794q441 0 681 228 241 228 241 650 0 419-241 647-240 228-681 228zm-631 519h1425q785 0 1186-355 402-355 402-1039 0-691-402-1044-401-353-1186-353h-794V0H628z" transform="scale(.01563)"/><path id="D" d="M3513 3500 2247 1797 3578 0h-678L1881 1375 863 0H184l1360 1831L300 3500h678l928-1247 928 1247z" transform="scale(.01563)"/><path id="E" d="M1984 4856q-418-718-622-1422-203-703-203-1425 0-721 205-1429t620-1424h-500Q1016-109 783 600T550 2009q0 697 231 1403 232 707 703 1444z" transform="scale(.01563)"/><path id="F" d="M750 794h659V256L897-744H494L750 256z" transform="scale(.01563)"/><path id="G" d="M269 3500h575l719-2731 715 2731h678l719-2731 716 2731h575L4050 0h-678l-753 2869L1863 0h-679z" transform="scale(.01563)"/><path id="H" d="M3116 1747q0 634-261 995t-717 361q-457 0-718-361t-261-995 261-995 718-361q456 0 717 361t261 995M1159 2969q182 312 458 463 277 152 661 152 638 0 1036-506 399-506 399-1331T3314 415Q2916-91 2278-91q-384 0-661 152-276 152-458 464V0H581v4863h578z" transform="scale(.01563)"/><path id="I" d="M513 4856h500q468-737 701-1444 233-706 233-1403 0-700-233-1409T1013-844H513q415 716 620 1424t205 1429q0 722-205 1425-205 704-620 1422" transform="scale(.01563)"/><path id="J" d="M550 4863h1325v-447h-750V-397h750v-447H550z" transform="scale(.01563)"/><path id="K" d="M2194 1759q-697 0-966-159t-269-544q0-306 202-486 202-179 548-179 479 0 768 339t289 901v128zm1147 238V0h-575v531q-197-318-491-470T1556-91q-537 0-855 302-317 302-317 808 0 590 395 890 396 300 1180 300h807v57q0 397-261 614t-733 217q-300 0-585-72-284-72-546-216v532q315 122 612 182 297 61 578 61 760 0 1135-394 375-393 375-1193" transform="scale(.01563)"/><path id="L" d="M1947 4863V-844H622v447h747v4813H622v447z" transform="scale(.01563)"/></defs><use xlink:href="#u"/><use xlink:href="#p" transform="translate(63.2)"/><use xlink:href="#v" transform="translate(126.6)"/><use xlink:href="#k" transform="translate(181.5)"/><use xlink:href="#w" transform="translate(242.7)"/><use xlink:href="#o" transform="translate(306.2)"/><use xlink:href="#p" transform="translate(334)"/><use xlink:href="#x" transform="translate(397.4)"/><use xlink:href="#y" transform="translate(492.6)"/><use xlink:href="#o" transform="translate(550.6)"/><use xlink:href="#z" transform="translate(578.4)"/><use xlink:href="#i" transform="translate(675.8)"/><use xlink:href="#A" transform="translate(769)"/><use xlink:href="#i" transform="translate(832.6)"/><use xlink:href="#B" transform="translate(894)"/><use xlink:href="#C" transform="translate(967)"/><use xlink:href="#o" transform="translate(1025)"/><use xlink:href="#D" transform="translate(1052.8)"/><use xlink:href="#i" transform="translate(1108.9)"/><use xlink:href="#l" transform="translate(1170.4)"/><use xlink:href="#E" transform="translate(1230)"/><use xlink:href="#j" transform="translate(1269)"/><use xlink:href="#i" transform="translate(1321)"/><use xlink:href="#v" transform="translate(1382.6)"/><use xlink:href="#k" transform="translate(1437.6)"/><use xlink:href="#p" transform="translate(1498.8)"/><use xlink:href="#w" transform="translate(1562.2)"/><use xlink:href="#j" transform="translate(1625.6)"/><use xlink:href="#F" transform="translate(1677.7)"/><use xlink:href="#l" transform="translate(1741.3)"/><use xlink:href="#k" transform="translate(1769)"/><use xlink:href="#G" transform="translate(1830.3)"/><use xlink:href="#i" transform="translate(1912)"/><use xlink:href="#B" transform="translate(1973.6)"/><use xlink:href="#o" transform="translate(2046.5)"/><use xlink:href="#j" transform="translate(2074.3)"/><use xlink:href="#H" transform="translate(2158.2)"/><use xlink:href="#i" transform="translate(2221.6)"/><use xlink:href="#n" transform="translate(2283.2)"/><use xlink:href="#n" transform="translate(2322.4)"/><use xlink:href="#i" transform="translate(2361.6)"/><use xlink:href="#B" transform="translate(2423)"/><use xlink:href="#I" transform="translate(2464.2)"/><use xlink:href="#J" transform="translate(2535)"/><use xlink:href="#l" transform="translate(2574)"/><use xlink:href="#k" transform="translate(2601.8)"/><use xlink:href="#x" transform="translate(2663)"/><use xlink:href="#j" transform="translate(2758.2)"/><use xlink:href="#v" transform="translate(2810.3)"/><use xlink:href="#K" transform="translate(2865.3)"/><use xlink:href="#l" transform="translate(2926.6)"/><use xlink:href="#i" transform="translate(2954.4)"/><use xlink:href="#L" transform="translate(3016)"/></g><path d="m86.3 58.7 12.3 3 12.3 9.6 12.4-2.1 24.6 5 49.2 3.6 73.8 4 172.3 5.6 236.3 6.1" clip-path="url(#a)" style="fill:none;stroke:#1f77b4;stroke-width:1.5;stroke-linecap:square"/><defs><path id="M" d="M0 3.5a3.5 3.5 0 1 0 0-7 3.5 3.5 0 0 0 0 7z" style="stroke:#1f77b4"/></defs><g clip-path="url(#a)"><use xlink:href="#M" x="86.3" y="58.7" style="fill:#1f77b4;stroke:#1f77b4"/><use xlink:href="#M" x="98.6" y="61.7" style="fill:#1f77b4;stroke:#1f77b4"/><use xlink:href="#M" x="110.9" y="71.3" style="fill:#1f77b4;stroke:#1f77b4"/><use xlink:href="#M" x="123.3" y="69.2" style="fill:#1f77b4;stroke:#1f77b4"/><use xlink:href="#M" x="147.9" y="74.1" style="fill:#1f77b4;stroke:#1f77b4"/><use xlink:href="#M" x="197.1" y="77.8" style="fill:#1f77b4;stroke:#1f77b4"/><use xlink:href="#M" x="270.9" y="81.9" style="fill:#1f77b4;stroke:#1f77b4"/><use xlink:href="#M" x="443.2" y="87.4" style="fill:#1f77b4;stroke:#1f77b4"/><use xlink:href="#M" x="679.5" y="93.5" style="fill:#1f77b4;stroke:#1f77b4"/></g><path d="m86.3 80.2 12.3 2.4L111 97l12.4-3.9 24.6 8.2 49.2 2.6 73.8 8.8 172.3 11.9 236.3 3.2" clip-path="url(#a)" style="fill:none;stroke-dasharray:5.55,2.4;stroke-dashoffset:0;stroke:#1f77b4;stroke-width:1.5"/><defs><path id="N" d="M0 3.5a3.5 3.5 0 1 0 0-7 3.5 3.5 0 0 0 0 7z" style="stroke:#1f77b4"/></defs><g clip-path="url(#a)"><use xlink:href="#N" x="86.3" y="80.2" style="fill-opacity:0;stroke:#1f77b4"/><use xlink:href="#N" x="98.6" y="82.6" style="fill-opacity:0;stroke:#1f77b4"/><use xlink:href="#N" x="110.9" y="97" style="fill-opacity:0;stroke:#1f77b4"/><use xlink:href="#N" x="123.3" y="93.1" style="fill-opacity:0;stroke:#1f77b4"/><use xlink:href="#N" x="147.9" y="101.3" style="fill-opacity:0;stroke:#1f77b4"/><use xlink:href="#N" x="197.1" y="103.9" style="fill-opacity:0;stroke:#1f77b4"/><use xlink:href="#N" x="270.9" y="112.7" style="fill-opacity:0;stroke:#1f77b4"/><use xlink:href="#N" x="443.2" y="124.6" style="fill-opacity:0;stroke:#1f77b4"/><use xlink:href="#N" x="679.5" y="127.8" style="fill-opacity:0;stroke:#1f77b4"/></g><path d="m86.3 43.4 12.3 3.5 12.3 8.7 12.4-1.5 24.6 4.1 49.2.4 73.8 5.2 172.3.6 236.3 6.3" clip-path="url(#a)" style="fill:none;stroke-dasharray:1.5,2.475;stroke-dashoffset:0;stroke:#1f77b4;stroke-width:1.5"/><g clip-path="url(#a)"><use xlink:href="#N" x="86.3" y="43.4" style="fill-opacity:0;stroke:#1f77b4"/><use xlink:href="#N" x="98.6" y="46.9" style="fill-opacity:0;stroke:#1f77b4"/><use xlink:href="#N" x="110.9" y="55.6" style="fill-opacity:0;stroke:#1f77b4"/><use xlink:href="#N" x="123.3" y="54.1" style="fill-opacity:0;stroke:#1f77b4"/><use xlink:href="#N" x="147.9" y="58.2" style="fill-opacity:0;stroke:#1f77b4"/><use xlink:href="#N" x="197.1" y="58.6" style="fill-opacity:0;stroke:#1f77b4"/><use xlink:href="#N" x="270.9" y="63.8" style="fill-opacity:0;stroke:#1f77b4"/><use xlink:href="#N" x="443.2" y="64.4" style="fill-opacity:0;stroke:#1f77b4"/><use xlink:href="#N" x="679.5" y="70.7" style="fill-opacity:0;stroke:#1f77b4"/></g><path d="M86.3 271.6 98.6 296l12.3 14.4 12.4 10.5 24.6 12.5 49.2 13 73.8 7.3 172.3 5 236.3 3" clip-path="url(#a)" style="fill:none;stroke:#ff7f0e;stroke-width:1.5;stroke-linecap:square"/><defs><path id="O" d="M-3.5 3.5h7v-7h-7z" style="stroke:#ff7f0e;stroke-linejoin:miter"/></defs><g clip-path="url(#a)"><use xlink:href="#O" x="86.3" y="271.6" style="fill:#ff7f0e;stroke:#ff7f0e;stroke-linejoin:miter"/><use xlink:href="#O" x="98.6" y="296.1" style="fill:#ff7f0e;stroke:#ff7f0e;stroke-linejoin:miter"/><use xlink:href="#O" x="110.9" y="310.5" style="fill:#ff7f0e;stroke:#ff7f0e;stroke-linejoin:miter"/><use xlink:href="#O" x="123.3" y="321" style="fill:#ff7f0e;stroke:#ff7f0e;stroke-linejoin:miter"/><use xlink:href="#O" x="147.9" y="333.5" style="fill:#ff7f0e;stroke:#ff7f0e;stroke-linejoin:miter"/><use xlink:href="#O" x="197.1" y="346.6" style="fill:#ff7f0e;stroke:#ff7f0e;stroke-linejoin:miter"/><use xlink:href="#O" x="270.9" y="353.8" style="fill:#ff7f0e;stroke:#ff7f0e;stroke-linejoin:miter"/><use xlink:href="#O" x="443.2" y="358.9" style="fill:#ff7f0e;stroke:#ff7f0e;stroke-linejoin:miter"/><use xlink:href="#O" x="679.5" y="361.8" style="fill:#ff7f0e;stroke:#ff7f0e;stroke-linejoin:miter"/></g><path d="m86.3 280.9 12.3 22.5 12.3 14.8 12.4 11.2 24.6 11.7 49.2 15 73.8 5.7 172.3 8.9 236.3 2.1" clip-path="url(#a)" style="fill:none;stroke-dasharray:5.55,2.4;stroke-dashoffset:0;stroke:#ff7f0e;stroke-width:1.5"/><defs><path id="P" d="M-3.5 3.5h7v-7h-7z" style="stroke:#ff7f0e;stroke-linejoin:miter"/></defs><g clip-path="url(#a)"><use xlink:href="#P" x="86.3" y="280.9" style="fill-opacity:0;stroke:#ff7f0e;stroke-linejoin:miter"/><use xlink:href="#P" x="98.6" y="303.4" style="fill-opacity:0;stroke:#ff7f0e;stroke-linejoin:miter"/><use xlink:href="#P" x="110.9" y="318.2" style="fill-opacity:0;stroke:#ff7f0e;stroke-linejoin:miter"/><use xlink:href="#P" x="123.3" y="329.4" style="fill-opacity:0;stroke:#ff7f0e;stroke-linejoin:miter"/><use xlink:href="#P" x="147.9" y="341.1" style="fill-opacity:0;stroke:#ff7f0e;stroke-linejoin:miter"/><use xlink:href="#P" x="197.1" y="356.2" style="fill-opacity:0;stroke:#ff7f0e;stroke-linejoin:miter"/><use xlink:href="#P" x="270.9" y="361.8" style="fill-opacity:0;stroke:#ff7f0e;stroke-linejoin:miter"/><use xlink:href="#P" x="443.2" y="370.7" style="fill-opacity:0;stroke:#ff7f0e;stroke-linejoin:miter"/><use xlink:href="#P" x="679.5" y="372.8" style="fill-opacity:0;stroke:#ff7f0e;stroke-linejoin:miter"/></g><path d="m86.3 263 12.3 26 12.3 14.5 12.4 10.5 24.6 13 49.2 13.7 73.8 7.5 172.3 3.1 236.3 4.9" clip-path="url(#a)" style="fill:none;stroke-dasharray:1.5,2.475;stroke-dashoffset:0;stroke:#ff7f0e;stroke-width:1.5"/><g clip-path="url(#a)"><use xlink:href="#P" x="86.3" y="263.1" style="fill-opacity:0;stroke:#ff7f0e;stroke-linejoin:miter"/><use xlink:href="#P" x="98.6" y="289" style="fill-opacity:0;stroke:#ff7f0e;stroke-linejoin:miter"/><use xlink:href="#P" x="110.9" y="303.5" style="fill-opacity:0;stroke:#ff7f0e;stroke-linejoin:miter"/><use xlink:href="#P" x="123.3" y="314" style="fill-opacity:0;stroke:#ff7f0e;stroke-linejoin:miter"/><use xlink:href="#P" x="147.9" y="327" style="fill-opacity:0;stroke:#ff7f0e;stroke-linejoin:miter"/><use xlink:href="#P" x="197.1" y="340.7" style="fill-opacity:0;stroke:#ff7f0e;stroke-linejoin:miter"/><use xlink:href="#P" x="270.9" y="348.2" style="fill-opacity:0;stroke:#ff7f0e;stroke-linejoin:miter"/><use xlink:href="#P" x="443.2" y="351.3" style="fill-opacity:0;stroke:#ff7f0e;stroke-linejoin:miter"/><use xlink:href="#P" x="679.5" y="356.2" style="fill-opacity:0;stroke:#ff7f0e;stroke-linejoin:miter"/></g><path d="m86.3 109.3 12.3 9.2 12.3 1.1 12.4 4.1 24.6 3.6 49.2 3.8 73.8 3.3 172.3 7 236.3 3.4" clip-path="url(#a)" style="fill:none;stroke:#2ca02c;stroke-width:1.5;stroke-linecap:square"/><defs><path id="Q" d="m0-3.5-3.5 7h7z" style="stroke:#2ca02c;stroke-linejoin:miter"/></defs><g clip-path="url(#a)"><use xlink:href="#Q" x="86.3" y="109.3" style="fill:#2ca02c;stroke:#2ca02c;stroke-linejoin:miter"/><use xlink:href="#Q" x="98.6" y="118.5" style="fill:#2ca02c;stroke:#2ca02c;stroke-linejoin:miter"/><use xlink:href="#Q" x="110.9" y="119.6" style="fill:#2ca02c;stroke:#2ca02c;stroke-linejoin:miter"/><use xlink:href="#Q" x="123.3" y="123.7" style="fill:#2ca02c;stroke:#2ca02c;stroke-linejoin:miter"/><use xlink:href="#Q" x="147.9" y="127.3" style="fill:#2ca02c;stroke:#2ca02c;stroke-linejoin:miter"/><use xlink:href="#Q" x="197.1" y="131.1" style="fill:#2ca02c;stroke:#2ca02c;stroke-linejoin:miter"/><use xlink:href="#Q" x="270.9" y="134.4" style="fill:#2ca02c;stroke:#2ca02c;stroke-linejoin:miter"/><use xlink:href="#Q" x="443.2" y="141.5" style="fill:#2ca02c;stroke:#2ca02c;stroke-linejoin:miter"/><use xlink:href="#Q" x="679.5" y="144.8" style="fill:#2ca02c;stroke:#2ca02c;stroke-linejoin:miter"/></g><path d="m86.3 115 12.3 8.6 12.3 3.9 12.4.6 24.6 5.2 49.2 3 73.8 2.3 172.3 6.7 236.3 2.5" clip-path="url(#a)" style="fill:none;stroke-dasharray:5.55,2.4;stroke-dashoffset:0;stroke:#2ca02c;stroke-width:1.5"/><defs><path id="R" d="m0-3.5-3.5 7h7z" style="stroke:#2ca02c;stroke-linejoin:miter"/></defs><g clip-path="url(#a)"><use xlink:href="#R" x="86.3" y="115" style="fill-opacity:0;stroke:#2ca02c;stroke-linejoin:miter"/><use xlink:href="#R" x="98.6" y="123.6" style="fill-opacity:0;stroke:#2ca02c;stroke-linejoin:miter"/><use xlink:href="#R" x="110.9" y="127.5" style="fill-opacity:0;stroke:#2ca02c;stroke-linejoin:miter"/><use xlink:href="#R" x="123.3" y="128.1" style="fill-opacity:0;stroke:#2ca02c;stroke-linejoin:miter"/><use xlink:href="#R" x="147.9" y="133.3" style="fill-opacity:0;stroke:#2ca02c;stroke-linejoin:miter"/><use xlink:href="#R" x="197.1" y="136.3" style="fill-opacity:0;stroke:#2ca02c;stroke-linejoin:miter"/><use xlink:href="#R" x="270.9" y="138.6" style="fill-opacity:0;stroke:#2ca02c;stroke-linejoin:miter"/><use xlink:href="#R" x="443.2" y="145.3" style="fill-opacity:0;stroke:#2ca02c;stroke-linejoin:miter"/><use xlink:href="#R" x="679.5" y="147.8" style="fill-opacity:0;stroke:#2ca02c;stroke-linejoin:miter"/></g><path d="m86.3 104.7 12.3 8.7 12.3 1.3 12.4 4.6 24.6 3 49.2 4.4 73.8 4 172.3 7.1 236.3 3.8" clip-path="url(#a)" style="fill:none;stroke-dasharray:1.5,2.475;stroke-dashoffset:0;stroke:#2ca02c;stroke-width:1.5"/><g clip-path="url(#a)"><use xlink:href="#R" x="86.3" y="104.7" style="fill-opacity:0;stroke:#2ca02c;stroke-linejoin:miter"/><use xlink:href="#R" x="98.6" y="113.4" style="fill-opacity:0;stroke:#2ca02c;stroke-linejoin:miter"/><use xlink:href="#R" x="110.9" y="114.7" style="fill-opacity:0;stroke:#2ca02c;stroke-linejoin:miter"/><use xlink:href="#R" x="123.3" y="119.3" style="fill-opacity:0;stroke:#2ca02c;stroke-linejoin:miter"/><use xlink:href="#R" x="147.9" y="122.3" style="fill-opacity:0;stroke:#2ca02c;stroke-linejoin:miter"/><use xlink:href="#R" x="197.1" y="126.7" style="fill-opacity:0;stroke:#2ca02c;stroke-linejoin:miter"/><use xlink:href="#R" x="270.9" y="130.7" style="fill-opacity:0;stroke:#2ca02c;stroke-linejoin:miter"/><use xlink:href="#R" x="443.2" y="137.8" style="fill-opacity:0;stroke:#2ca02c;stroke-linejoin:miter"/><use xlink:href="#R" x="679.5" y="141.6" style="fill-opacity:0;stroke:#2ca02c;stroke-linejoin:miter"/></g><path d="m86.3 194 12.3 13 12.3 6 12.4 7.3 24.6 5.1L197 233l73.8 4 172.3 4.7 236.3 3.7" clip-path="url(#a)" style="fill:none;stroke:#d62728;stroke-width:1.5;stroke-linecap:square"/><defs><path id="S" d="m0 5 5-5-5-5-5 5z" style="stroke:#d62728;stroke-linejoin:miter"/></defs><g clip-path="url(#a)"><use xlink:href="#S" x="86.3" y="194" style="fill:#d62728;stroke:#d62728;stroke-linejoin:miter"/><use xlink:href="#S" x="98.6" y="207" style="fill:#d62728;stroke:#d62728;stroke-linejoin:miter"/><use xlink:href="#S" x="110.9" y="213" style="fill:#d62728;stroke:#d62728;stroke-linejoin:miter"/><use xlink:href="#S" x="123.3" y="220.3" style="fill:#d62728;stroke:#d62728;stroke-linejoin:miter"/><use xlink:href="#S" x="147.9" y="225.4" style="fill:#d62728;stroke:#d62728;stroke-linejoin:miter"/><use xlink:href="#S" x="197.1" y="233" style="fill:#d62728;stroke:#d62728;stroke-linejoin:miter"/><use xlink:href="#S" x="270.9" y="236.9" style="fill:#d62728;stroke:#d62728;stroke-linejoin:miter"/><use xlink:href="#S" x="443.2" y="241.7" style="fill:#d62728;stroke:#d62728;stroke-linejoin:miter"/><use xlink:href="#S" x="679.5" y="245.4" style="fill:#d62728;stroke:#d62728;stroke-linejoin:miter"/></g><path d="m86.3 206 12.3 14.5 12.3 12.3 12.4 8.4 24.6 6 49.2 10 73.8 9.3 172.3 1.6 236.3 9.5" clip-path="url(#a)" style="fill:none;stroke-dasharray:5.55,2.4;stroke-dashoffset:0;stroke:#d62728;stroke-width:1.5"/><defs><path id="T" d="m0 5 5-5-5-5-5 5z" style="stroke:#d62728;stroke-linejoin:miter"/></defs><g clip-path="url(#a)"><use xlink:href="#T" x="86.3" y="205.9" style="fill-opacity:0;stroke:#d62728;stroke-linejoin:miter"/><use xlink:href="#T" x="98.6" y="220.5" style="fill-opacity:0;stroke:#d62728;stroke-linejoin:miter"/><use xlink:href="#T" x="110.9" y="232.8" style="fill-opacity:0;stroke:#d62728;stroke-linejoin:miter"/><use xlink:href="#T" x="123.3" y="241.2" style="fill-opacity:0;stroke:#d62728;stroke-linejoin:miter"/><use xlink:href="#T" x="147.9" y="247.2" style="fill-opacity:0;stroke:#d62728;stroke-linejoin:miter"/><use xlink:href="#T" x="197.1" y="257.2" style="fill-opacity:0;stroke:#d62728;stroke-linejoin:miter"/><use xlink:href="#T" x="270.9" y="266.5" style="fill-opacity:0;stroke:#d62728;stroke-linejoin:miter"/><use xlink:href="#T" x="443.2" y="268.1" style="fill-opacity:0;stroke:#d62728;stroke-linejoin:miter"/><use xlink:href="#T" x="679.5" y="277.6" style="fill-opacity:0;stroke:#d62728;stroke-linejoin:miter"/></g><path d="M86.3 184.7 98.6 198l12.3 5.7 12.4 5.7 24.6 2.7 49.2 7.6 73.8 1.8 172.3 1.1 236.3 3.3" clip-path="url(#a)" style="fill:none;stroke-dasharray:1.5,2.475;stroke-dashoffset:0;stroke:#d62728;stroke-width:1.5"/><g clip-path="url(#a)"><use xlink:href="#T" x="86.3" y="184.7" style="fill-opacity:0;stroke:#d62728;stroke-linejoin:miter"/><use xlink:href="#T" x="98.6" y="197.9" style="fill-opacity:0;stroke:#d62728;stroke-linejoin:miter"/><use xlink:href="#T" x="110.9" y="203.6" style="fill-opacity:0;stroke:#d62728;stroke-linejoin:miter"/><use xlink:href="#T" x="123.3" y="209.3" style="fill-opacity:0;stroke:#d62728;stroke-linejoin:miter"/><use xlink:href="#T" x="147.9" y="212" style="fill-opacity:0;stroke:#d62728;stroke-linejoin:miter"/><use xlink:href="#T" x="197.1" y="219.6" style="fill-opacity:0;stroke:#d62728;stroke-linejoin:miter"/><use xlink:href="#T" x="270.9" y="221.4" style="fill-opacity:0;stroke:#d62728;stroke-linejoin:miter"/><use xlink:href="#T" x="443.2" y="222.5" style="fill-opacity:0;stroke:#d62728;stroke-linejoin:miter"/><use xlink:href="#T" x="679.5" y="225.8" style="fill-opacity:0;stroke:#d62728;stroke-linejoin:miter"/></g><path d="M56.7 389.3V27m652.5 362.3V27M56.7 389.3h652.5M56.7 26.9h652.5" style="fill:none;stroke:#000;stroke-width:.8;stroke-linejoin:miter;stroke-linecap:square"/><g transform="matrix(.12 0 0 -.12 269.2 20.9)"><defs><path id="U" d="M191 3500h609L1894 563l1094 2937h609L2284 0h-781z" transform="scale(.01563)"/></defs><use xlink:href="#u"/><use xlink:href="#p" transform="translate(63.2)"/><use xlink:href="#v" transform="translate(126.6)"/><use xlink:href="#k" transform="translate(181.5)"/><use xlink:href="#w" transform="translate(242.7)"/><use xlink:href="#o" transform="translate(306.2)"/><use xlink:href="#p" transform="translate(334)"/><use xlink:href="#x" transform="translate(397.4)"/><use xlink:href="#y" transform="translate(492.6)"/><use xlink:href="#o" transform="translate(550.6)"/><use xlink:href="#z" transform="translate(578.4)"/><use xlink:href="#i" transform="translate(675.8)"/><use xlink:href="#A" transform="translate(769)"/><use xlink:href="#i" transform="translate(832.6)"/><use xlink:href="#B" transform="translate(894)"/><use xlink:href="#C" transform="translate(967)"/><use xlink:href="#o" transform="translate(1025)"/><use xlink:href="#D" transform="translate(1052.8)"/><use xlink:href="#i" transform="translate(1108.9)"/><use xlink:href="#l" transform="translate(1170.4)"/><use xlink:href="#U" transform="translate(1230)"/><use xlink:href="#j" transform="translate(1289.2)"/><use xlink:href="#h" transform="translate(1373)"/><use xlink:href="#i" transform="translate(1438)"/><use xlink:href="#j" transform="translate(1499.5)"/><use xlink:href="#k" transform="translate(1551.6)"/><use xlink:href="#l" transform="translate(1612.8)"/><use xlink:href="#m" transform="translate(1640.6)"/><use xlink:href="#n" transform="translate(1704)"/><use xlink:href="#o" transform="translate(1743.2)"/><use xlink:href="#k" transform="translate(1771)"/><use xlink:href="#p" transform="translate(1832.2)"/></g><path d="M454 245.2h249.6q1.6 0 1.6-1.6v-71q0-1.6-1.6-1.6H454q-1.6 0-1.6 1.6v71q0 1.6 1.6 1.6z" style="fill:#fff;opacity:.8;stroke:#ccc;stroke-linejoin:miter"/><path d="M455.6 177.5h16" style="fill:none;stroke:#1f77b4;stroke-width:1.5;stroke-linecap:square"/><use xlink:href="#M" x="463.6" y="177.5" style="fill:#1f77b4;stroke:#1f77b4"/><g transform="matrix(.08 0 0 -.08 478 180.3)"><defs><path id="V" d="M2375 4863v-479h-550q-309 0-430-125-120-125-120-450v-309h947v-447h-947V0H697v3053H147v447h550v244q0 584 272 851 272 268 862 268z" transform="scale(.01563)"/><path id="W" d="M3263-1063v-446H-63v446z" transform="scale(.01563)"/></defs><use xlink:href="#K"/><use xlink:href="#U" transform="translate(61.3)"/><use xlink:href="#o" transform="translate(120.5)"/><use xlink:href="#V" transform="translate(148.2)"/><use xlink:href="#W" transform="translate(183.4)"/><use xlink:href="#s" transform="translate(233.4)"/><use xlink:href="#d" transform="translate(297)"/><use xlink:href="#E" transform="translate(392.5)"/><use xlink:href="#z" transform="translate(431.5)"/><use xlink:href="#i" transform="translate(529)"/><use xlink:href="#K" transform="translate(590.4)"/><use xlink:href="#p" transform="translate(651.7)"/><use xlink:href="#I" transform="translate(715)"/></g><path d="M455.6 189.4h16" style="fill:none;stroke-dasharray:5.55,2.4;stroke-dashoffset:0;stroke:#1f77b4;stroke-width:1.5"/><use xlink:href="#N" x="463.6" y="189.4" style="fill-opacity:0;stroke:#1f77b4"/><g transform="matrix(.08 0 0 -.08 478 192.2)"><defs><path id="X" d="M4653 2053q-272 0-427-231-154-231-154-644 0-406 154-639 155-233 427-233 266 0 420 233 155 233 155 639 0 410-155 642-154 233-420 233m0 397q494 0 784-344 291-343 291-928 0-584-292-927-292-342-783-342-500 0-791 342-290 343-290 927 0 588 292 930t789 342M1428 4353q-269 0-424-233-154-232-154-639 0-412 153-644 153-231 425-231t426 231q155 232 155 644 0 403-156 637-156 235-425 235m2822 397h500L1831-91h-500zm-2822 0q494 0 787-342 294-342 294-927 0-590-292-931t-789-341-786 342q-289 343-289 930 0 582 290 925 291 344 785 344" transform="scale(.01563)"/></defs><use xlink:href="#K"/><use xlink:href="#U" transform="translate(61.3)"/><use xlink:href="#o" transform="translate(120.5)"/><use xlink:href="#V" transform="translate(148.2)"/><use xlink:href="#W" transform="translate(183.4)"/><use xlink:href="#s" transform="translate(233.4)"/><use xlink:href="#d" transform="translate(297)"/><use xlink:href="#E" transform="translate(392.5)"/><use xlink:href="#d" transform="translate(431.5)"/><use xlink:href="#X" transform="translate(495.1)"/><use xlink:href="#V" transform="translate(622)"/><use xlink:href="#K" transform="translate(657.1)"/><use xlink:href="#j" transform="translate(718.4)"/><use xlink:href="#n" transform="translate(770.5)"/><use xlink:href="#i" transform="translate(809.7)"/><use xlink:href="#j" transform="translate(871.2)"/><use xlink:href="#n" transform="translate(923.3)"/><use xlink:href="#I" transform="translate(962.5)"/></g><path d="M455.6 201.4h16" style="fill:none;stroke-dasharray:1.5,2.475;stroke-dashoffset:0;stroke:#1f77b4;stroke-width:1.5"/><use xlink:href="#N" x="463.6" y="201.4" style="fill-opacity:0;stroke:#1f77b4"/><g transform="matrix(.08 0 0 -.08 478 204.2)"><defs><path id="Y" d="M703 97v575q238-113 481-172 244-59 479-59 625 0 954 420 330 420 377 1277-181-269-460-413-278-144-615-144-700 0-1108 423-408 424-408 1159 0 718 425 1152 425 435 1131 435 810 0 1236-621 427-620 427-1801 0-1103-524-1761Q2575-91 1691-91q-238 0-482 47Q966 3 703 97m1256 1978q425 0 673 290 249 291 249 798 0 503-249 795-248 292-673 292t-673-292-248-795q0-507 248-798 248-290 673-290" transform="scale(.01563)"/></defs><use xlink:href="#K"/><use xlink:href="#U" transform="translate(61.3)"/><use xlink:href="#o" transform="translate(120.5)"/><use xlink:href="#V" transform="translate(148.2)"/><use xlink:href="#W" transform="translate(183.4)"/><use xlink:href="#s" transform="translate(233.4)"/><use xlink:href="#d" transform="translate(297)"/><use xlink:href="#E" transform="translate(392.5)"/><use xlink:href="#Y" transform="translate(431.5)"/><use xlink:href="#d" transform="translate(495.1)"/><use xlink:href="#X" transform="translate(558.7)"/><use xlink:href="#j" transform="translate(685.5)"/><use xlink:href="#l" transform="translate(737.6)"/><use xlink:href="#k" transform="translate(765.4)"/><use xlink:href="#G" transform="translate(826.6)"/><use xlink:href="#i" transform="translate(908.4)"/><use xlink:href="#j" transform="translate(970)"/><use xlink:href="#n" transform="translate(1022)"/><use xlink:href="#I" transform="translate(1061.2)"/></g><path d="M455.6 213.4h16" style="fill:none;stroke:#ff7f0e;stroke-width:1.5;stroke-linecap:square"/><use xlink:href="#O" x="463.6" y="213.4" style="fill:#ff7f0e;stroke:#ff7f0e;stroke-linejoin:miter"/><g transform="matrix(.08 0 0 -.08 478 216.2)"><defs><path id="Z" d="M603 3500h575V-63q0-668-255-968-254-300-820-300h-219v487H38q328 0 446 152Q603-541 603-63zm0 1363h575v-729H603z" transform="scale(.01563)"/><path id="aa" d="M2034 2216q-450 0-708-241-257-241-257-662 0-422 257-663 258-241 708-241t709 242q260 243 260 662 0 421-258 662-257 241-711 241m-631 268q-406 100-633 378-226 279-226 679 0 559 398 884 399 325 1092 325 697 0 1094-325t397-884q0-400-227-679-226-278-629-378 456-106 710-416 255-309 255-755 0-679-414-1042Q2806-91 2034-91q-771 0-1186 362-414 363-414 1042 0 446 256 755 257 310 713 416m-231 997q0-362 226-565 227-203 636-203 407 0 636 203 230 203 230 565 0 363-230 566-229 203-636 203-409 0-636-203-226-203-226-566" transform="scale(.01563)"/></defs><use xlink:href="#Z"/><use xlink:href="#A" transform="translate(27.8)"/><use xlink:href="#i" transform="translate(91.3)"/><use xlink:href="#x" transform="translate(152.8)"/><use xlink:href="#W" transform="translate(216.3)"/><use xlink:href="#aa" transform="translate(266.3)"/><use xlink:href="#d" transform="translate(329.9)"/><use xlink:href="#E" transform="translate(425.3)"/><use xlink:href="#z" transform="translate(464.3)"/><use xlink:href="#i" transform="translate(561.7)"/><use xlink:href="#K" transform="translate(623.2)"/><use xlink:href="#p" transform="translate(684.5)"/><use xlink:href="#I" transform="translate(747.9)"/></g><path d="M455.6 225.3h16" style="fill:none;stroke-dasharray:5.55,2.4;stroke-dashoffset:0;stroke:#ff7f0e;stroke-width:1.5"/><use xlink:href="#P" x="463.6" y="225.3" style="fill-opacity:0;stroke:#ff7f0e;stroke-linejoin:miter"/><g transform="matrix(.08 0 0 -.08 478 228.1)"><use xlink:href="#Z"/><use xlink:href="#A" transform="translate(27.8)"/><use xlink:href="#i" transform="translate(91.3)"/><use xlink:href="#x" transform="translate(152.8)"/><use xlink:href="#W" transform="translate(216.3)"/><use xlink:href="#aa" transform="translate(266.3)"/><use xlink:href="#d" transform="translate(329.9)"/><use xlink:href="#E" transform="translate(425.3)"/><use xlink:href="#d" transform="translate(464.3)"/><use xlink:href="#X" transform="translate(528)"/><use xlink:href="#V" transform="translate(654.7)"/><use xlink:href="#K" transform="translate(690)"/><use xlink:href="#j" transform="translate(751.2)"/><use xlink:href="#n" transform="translate(803.3)"/><use xlink:href="#i" transform="translate(842.5)"/><use xlink:href="#j" transform="translate(904)"/><use xlink:href="#n" transform="translate(956.2)"/><use xlink:href="#I" transform="translate(995.4)"/></g><path d="M455.6 237.3h16" style="fill:none;stroke-dasharray:1.5,2.475;stroke-dashoffset:0;stroke:#ff7f0e;stroke-width:1.5"/><use xlink:href="#P" x="463.6" y="237.3" style="fill-opacity:0;stroke:#ff7f0e;stroke-linejoin:miter"/><g transform="matrix(.08 0 0 -.08 478 240.1)"><use xlink:href="#Z"/><use xlink:href="#A" transform="translate(27.8)"/><use xlink:href="#i" transform="translate(91.3)"/><use xlink:href="#x" transform="translate(152.8)"/><use xlink:href="#W" transform="translate(216.3)"/><use xlink:href="#aa" transform="translate(266.3)"/><use xlink:href="#d" transform="translate(329.9)"/><use xlink:href="#E" transform="translate(425.3)"/><use xlink:href="#Y" transform="translate(464.3)"/><use xlink:href="#d" transform="translate(528)"/><use xlink:href="#X" transform="translate(591.6)"/><use xlink:href="#j" transform="translate(718.4)"/><use xlink:href="#l" transform="translate(770.5)"/><use xlink:href="#k" transform="translate(798.2)"/><use xlink:href="#G" transform="translate(859.4)"/><use xlink:href="#i" transform="translate(941.2)"/><use xlink:href="#j" transform="translate(1002.7)"/><use xlink:href="#n" transform="translate(1054.8)"/><use xlink:href="#I" transform="translate(1094)"/></g><path d="M584.6 177.5h16" style="fill:none;stroke:#2ca02c;stroke-width:1.5;stroke-linecap:square"/><use xlink:href="#Q" x="592.6" y="177.5" style="fill:#2ca02c;stroke:#2ca02c;stroke-linejoin:miter"/><g transform="matrix(.08 0 0 -.08 607 180.3)"><use xlink:href="#Z"/><use xlink:href="#D" transform="translate(27.8)"/><use xlink:href="#l" transform="translate(87)"/><use xlink:href="#W" transform="translate(114.7)"/><use xlink:href="#aa" transform="translate(164.7)"/><use xlink:href="#d" transform="translate(228.4)"/><use xlink:href="#E" transform="translate(323.8)"/><use xlink:href="#z" transform="translate(362.8)"/><use xlink:href="#i" transform="translate(460.2)"/><use xlink:href="#K" transform="translate(521.7)"/><use xlink:href="#p" transform="translate(583)"/><use xlink:href="#I" transform="translate(646.4)"/></g><path d="M584.6 189.4h16" style="fill:none;stroke-dasharray:5.55,2.4;stroke-dashoffset:0;stroke:#2ca02c;stroke-width:1.5"/><use xlink:href="#R" x="592.6" y="189.4" style="fill-opacity:0;stroke:#2ca02c;stroke-linejoin:miter"/><g transform="matrix(.08 0 0 -.08 607 192.2)"><use xlink:href="#Z"/><use xlink:href="#D" transform="translate(27.8)"/><use xlink:href="#l" transform="translate(87)"/><use xlink:href="#W" transform="translate(114.7)"/><use xlink:href="#aa" transform="translate(164.7)"/><use xlink:href="#d" transform="translate(228.4)"/><use xlink:href="#E" transform="translate(323.8)"/><use xlink:href="#d" transform="translate(362.8)"/><use xlink:href="#X" transform="translate(426.4)"/><use xlink:href="#V" transform="translate(553.2)"/><use xlink:href="#K" transform="translate(588.4)"/><use xlink:href="#j" transform="translate(649.7)"/><use xlink:href="#n" transform="translate(701.8)"/><use xlink:href="#i" transform="translate(741)"/><use xlink:href="#j" transform="translate(802.5)"/><use xlink:href="#n" transform="translate(854.6)"/><use xlink:href="#I" transform="translate(893.8)"/></g><path d="M584.6 201.4h16" style="fill:none;stroke-dasharray:1.5,2.475;stroke-dashoffset:0;stroke:#2ca02c;stroke-width:1.5"/><use xlink:href="#R" x="592.6" y="201.4" style="fill-opacity:0;stroke:#2ca02c;stroke-linejoin:miter"/><g transform="matrix(.08 0 0 -.08 607 204.2)"><use xlink:href="#Z"/><use xlink:href="#D" transform="translate(27.8)"/><use xlink:href="#l" transform="translate(87)"/><use xlink:href="#W" transform="translate(114.7)"/><use xlink:href="#aa" transform="translate(164.7)"/><use xlink:href="#d" transform="translate(228.4)"/><use xlink:href="#E" transform="translate(323.8)"/><use xlink:href="#Y" transform="translate(362.8)"/><use xlink:href="#d" transform="translate(426.4)"/><use xlink:href="#X" transform="translate(490)"/><use xlink:href="#j" transform="translate(616.8)"/><use xlink:href="#l" transform="translate(669)"/><use xlink:href="#k" transform="translate(696.7)"/><use xlink:href="#G" transform="translate(758)"/><use xlink:href="#i" transform="translate(839.7)"/><use xlink:href="#j" transform="translate(901.2)"/><use xlink:href="#n" transform="translate(953.3)"/><use xlink:href="#I" transform="translate(992.5)"/></g><path d="M584.6 213.4h16" style="fill:none;stroke:#d62728;stroke-width:1.5;stroke-linecap:square"/><use xlink:href="#S" x="592.6" y="213.4" style="fill:#d62728;stroke:#d62728;stroke-linejoin:miter"/><g transform="matrix(.08 0 0 -.08 607 216.2)"><use xlink:href="#G"/><use xlink:href="#i" transform="translate(81.8)"/><use xlink:href="#H" transform="translate(143.3)"/><use xlink:href="#A" transform="translate(206.8)"/><use xlink:href="#W" transform="translate(270.3)"/><use xlink:href="#aa" transform="translate(320.3)"/><use xlink:href="#f" transform="translate(383.9)"/><use xlink:href="#E" transform="translate(479.3)"/><use xlink:href="#z" transform="translate(518.3)"/><use xlink:href="#i" transform="translate(615.7)"/><use xlink:href="#K" transform="translate(677.2)"/><use xlink:href="#p" transform="translate(738.5)"/><use xlink:href="#I" transform="translate(801.9)"/></g><path d="M584.6 225.3h16" style="fill:none;stroke-dasharray:5.55,2.4;stroke-dashoffset:0;stroke:#d62728;stroke-width:1.5"/><use xlink:href="#T" x="592.6" y="225.3" style="fill-opacity:0;stroke:#d62728;stroke-linejoin:miter"/><g transform="matrix(.08 0 0 -.08 607 228.1)"><use xlink:href="#G"/><use xlink:href="#i" transform="translate(81.8)"/><use xlink:href="#H" transform="translate(143.3)"/><use xlink:href="#A" transform="translate(206.8)"/><use xlink:href="#W" transform="translate(270.3)"/><use xlink:href="#aa" transform="translate(320.3)"/><use xlink:href="#f" transform="translate(383.9)"/><use xlink:href="#E" transform="translate(479.3)"/><use xlink:href="#d" transform="translate(518.3)"/><use xlink:href="#X" transform="translate(582)"/><use xlink:href="#V" transform="translate(708.7)"/><use xlink:href="#K" transform="translate(744)"/><use xlink:href="#j" transform="translate(805.2)"/><use xlink:href="#n" transform="translate(857.3)"/><use xlink:href="#i" transform="translate(896.5)"/><use xlink:href="#j" transform="translate(958)"/><use xlink:href="#n" transform="translate(1010.2)"/><use xlink:href="#I" transform="translate(1049.4)"/></g><path d="M584.6 237.3h16" style="fill:none;stroke-dasharray:1.5,2.475;stroke-dashoffset:0;stroke:#d62728;stroke-width:1.5"/><use xlink:href="#T" x="592.6" y="237.3" style="fill-opacity:0;stroke:#d62728;stroke-linejoin:miter"/><g transform="matrix(.08 0 0 -.08 607 240.1)"><use xlink:href="#G"/><use xlink:href="#i" transform="translate(81.8)"/><use xlink:href="#H" transform="translate(143.3)"/><use xlink:href="#A" transform="translate(206.8)"/><use xlink:href="#W" transform="translate(270.3)"/><use xlink:href="#aa" transform="translate(320.3)"/><use xlink:href="#f" transform="translate(383.9)"/><use xlink:href="#E" transform="translate(479.3)"/><use xlink:href="#Y" transform="translate(518.3)"/><use xlink:href="#d" transform="translate(582)"/><use xlink:href="#X" transform="translate(645.6)"/><use xlink:href="#j" transform="translate(772.4)"/><use xlink:href="#l" transform="translate(824.5)"/><use xlink:href="#k" transform="translate(852.2)"/><use xlink:href="#G" transform="translate(913.4)"/><use xlink:href="#i" transform="translate(995.2)"/><use xlink:href="#j" transform="translate(1056.7)"/><use xlink:href="#n" transform="translate(1108.8)"/><use xlink:href="#I" transform="translate(1148)"/></g><defs><clipPath id="a"><path d="M56.7 26.9h652.5v362.4H56.7z"/></clipPath></defs></svg>