<svg xmlns="http://www.w3.org/2000/svg" xmlns:xlink="http://www.w3.org/1999/xlink" width="960" height="576" viewBox="0 0 720 432"><path d="M0 432h720V0H0z" style="fill:#fff"/><path d="M61.1 389.3h648.1V27h-648z" style="fill:#fff"/><path d="M130.3 389.3V27" clip-path="url(#a)" style="fill:none;stroke:#b0b0b0;stroke-opacity:.3;stroke-width:.8;stroke-linecap:square"/><defs><path id="b" d="M0 0v3.5" style="stroke:#000;stroke-width:.8"/></defs><use xlink:href="#b" x="130.3" y="389.3" style="stroke:#000;stroke-width:.8"/><g transform="matrix(.1 0 0 -.1 120.8 404)"><defs><path id="c" d="M1228 531h2203V0H469v531q359 372 979 998 621 627 780 809 303 340 423 576 121 236 121 464 0 372-261 606-261 235-680 235-297 0-627-103-329-103-704-313v638q381 153 712 231 332 78 607 78 725 0 1156-363 431-362 431-968 0-288-108-546-107-257-392-607-78-91-497-524-418-433-1181-1211" transform="scale(.01563)"/><path id="d" d="M691 4666h2478v-532H1269V2991q137 47 274 70 138 23 276 23 781 0 1237-428 457-428 457-1159 0-753-469-1171Q2575-91 1722-91q-294 0-599 50Q819 9 494 109v635q281-153 581-228t634-75q541 0 856 284 316 284 316 772 0 487-316 771-315 285-856 285-253 0-505-56-251-56-513-175z" transform="scale(.01563)"/><path id="e" d="M2034 4250q-487 0-733-480-245-479-245-1442 0-959 245-1439 246-480 733-480 491 0 736 480 246 480 246 1439 0 963-246 1442-245 480-736 480m0 500q785 0 1199-621 414-620 414-1801 0-1178-414-1799Q2819-91 2034-91q-784 0-1198 620-414 621-414 1799 0 1181 414 1801 414 621 1198 621" transform="scale(.01563)"/></defs><use xlink:href="#c"/><use xlink:href="#d" transform="translate(63.6)"/><use xlink:href="#e" transform="translate(127.2)"/></g><path d="M206.7 389.3V27" clip-path="url(#a)" style="fill:none;stroke:#b0b0b0;stroke-opacity:.3;stroke-width:.8;stroke-linecap:square"/><use xlink:href="#b" x="206.7" y="389.3" style="stroke:#000;stroke-width:.8"/><g transform="matrix(.1 0 0 -.1 197.2 404)"><use xlink:href="#d"/><use xlink:href="#e" transform="translate(63.6)"/><use xlink:href="#e" transform="translate(127.2)"/></g><path d="M283.1 389.3V27" clip-path="url(#a)" style="fill:none;stroke:#b0b0b0;stroke-opacity:.3;stroke-width:.8;stroke-linecap:square"/><use xlink:href="#b" x="283.1" y="389.3" style="stroke:#000;stroke-width:.8"/><g transform="matrix(.1 0 0 -.1 273.6 404)"><defs><path id="f" d="M525 4666h3000v-269L1831 0h-659l1594 4134H525z" transform="scale(.01563)"/></defs><use xlink:href="#f"/><use xlink:href="#d" transform="translate(63.6)"/><use xlink:href="#e" transform="translate(127.2)"/></g><path d="M359.5 389.3V27" clip-path="url(#a)" style="fill:none;stroke:#b0b0b0;stroke-opacity:.3;stroke-width:.8;stroke-linecap:square"/><use xlink:href="#b" x="359.5" y="389.3" style="stroke:#000;stroke-width:.8"/><g transform="matrix(.1 0 0 -.1 346.8 404)"><defs><path id="g" d="M794 531h1031v3560L703 3866v575l1116 225h631V531h1031V0H794z" transform="scale(.01563)"/></defs><use xlink:href="#g"/><use xlink:href="#e" transform="translate(63.6)"/><use xlink:href="#e" transform="translate(127.2)"/><use xlink:href="#e" transform="translate(190.9)"/></g><path d="M435.9 389.3V27" clip-path="url(#a)" style="fill:none;stroke:#b0b0b0;stroke-opacity:.3;stroke-width:.8;stroke-linecap:square"/><use xlink:href="#b" x="435.9" y="389.3" style="stroke:#000;stroke-width:.8"/><g transform="matrix(.1 0 0 -.1 423.2 404)"><use xlink:href="#g"/><use xlink:href="#c" transform="translate(63.6)"/><use xlink:href="#d" transform="translate(127.2)"/><use xlink:href="#e" transform="translate(190.9)"/></g><path d="M512.3 389.3V27" clip-path="url(#a)" style="fill:none;stroke:#b0b0b0;stroke-opacity:.3;stroke-width:.8;stroke-linecap:square"/><use xlink:href="#b" x="512.3" y="389.3" style="stroke:#000;stroke-width:.8"/><g transform="matrix(.1 0 0 -.1 499.6 404)"><use xlink:href="#g"/><use xlink:href="#d" transform="translate(63.6)"/><use xlink:href="#e" transform="translate(127.2)"/><use xlink:href="#e" transform="translate(190.9)"/></g><path d="M588.7 389.3V27" clip-path="url(#a)" style="fill:none;stroke:#b0b0b0;stroke-opacity:.3;stroke-width:.8;stroke-linecap:square"/><use xlink:href="#b" x="588.7" y="389.3" style="stroke:#000;stroke-width:.8"/><g transform="matrix(.1 0 0 -.1 576 404)"><use xlink:href="#g"/><use xlink:href="#f" transform="translate(63.6)"/><use xlink:href="#d" transform="translate(127.2)"/><use xlink:href="#e" transform="translate(190.9)"/></g><path d="M665 389.3V27" clip-path="url(#a)" style="fill:none;stroke:#b0b0b0;stroke-opacity:.3;stroke-width:.8;stroke-linecap:square"/><use xlink:href="#b" x="665.1" y="389.3" style="stroke:#000;stroke-width:.8"/><g transform="matrix(.1 0 0 -.1 652.3 404)"><use xlink:href="#c"/><use xlink:href="#e" transform="translate(63.6)"/><use xlink:href="#e" transform="translate(127.2)"/><use xlink:href="#e" transform="translate(190.9)"/></g><g transform="matrix(.11 0 0 -.11 356.4 418.4)"><defs><path id="h" d="M2841 2188q203-69 395-294t386-619L4263 0h-679l-596 1197q-232 469-449 622t-592 153h-688V0H628v4666h1425q800 0 1194-335 394-334 394-1009 0-441-205-732-205-290-595-402M1259 4147V2491h794q456 0 689 211t233 620-233 617-689 208z" transform="scale(.01563)"/><path id="i" d="M3597 1894v-281H953q38-594 358-905t892-311q331 0 642 81t618 244V178Q3153 47 2828-22t-659-69q-838 0-1327 487-489 488-489 1320 0 859 464 1363 464 505 1252 505 706 0 1117-455 411-454 411-1235m-575 169q-6 471-264 752-258 282-683 282-481 0-770-272t-333-766z" transform="scale(.01563)"/><path id="j" d="M2834 3397v-544q-243 125-506 187-262 63-544 63-428 0-642-131t-214-394q0-200 153-314t616-217l197-44q612-131 870-370t258-667q0-488-386-773Q2250-91 1575-91q-281 0-586 55T347 128v594q319-166 628-249 309-82 613-82 406 0 624 139 219 139 219 392 0 234-158 359-157 125-692 241l-200 47q-534 112-772 345-237 233-237 639 0 494 350 762 350 269 994 269 318 0 599-47 282-46 519-140" transform="scale(.01563)"/><path id="k" d="M1959 3097q-462 0-731-361t-269-989 267-989q268-361 733-361 460 0 728 362 269 363 269 988 0 622-269 986-268 364-728 364m0 487q750 0 1178-488 429-487 429-1349 0-859-429-1349Q2709-91 1959-91q-753 0-1180 489-426 490-426 1349 0 862 426 1349 427 488 1180 488" transform="scale(.01563)"/><path id="l" d="M603 4863h575V0H603z" transform="scale(.01563)"/><path id="m" d="M544 1381v2119h575V1403q0-497 193-746 194-248 582-248 465 0 735 297 271 297 271 810v1984h575V0h-575v538q-209-319-486-474-276-155-642-155-603 0-916 375-312 375-312 1097m1447 2203" transform="scale(.01563)"/><path id="n" d="M1172 4494v-994h1184v-447H1172V1153q0-428 117-550t477-122h590V0h-590q-666 0-919 248-253 249-253 905v1900H172v447h422v994z" transform="scale(.01563)"/><path id="o" d="M603 3500h575V0H603zm0 1363h575v-729H603z" transform="scale(.01563)"/><path id="p" d="M3513 2113V0h-575v2094q0 497-194 743-194 247-581 247-466 0-735-297-269-296-269-809V0H581v3500h578v-544q207 316 486 472 280 156 646 156 603 0 912-373 310-373 310-1098" transform="scale(.01563)"/></defs><use xlink:href="#h"/><use xlink:href="#i" transform="translate(65)"/><use xlink:href="#j" transform="translate(126.5)"/><use xlink:href="#k" transform="translate(178.6)"/><use xlink:href="#l" transform="translate(239.8)"/><use xlink:href="#m" transform="translate(267.6)"/><use xlink:href="#n" transform="translate(331)"/><use xlink:href="#o" transform="translate(370.2)"/><use xlink:href="#k" transform="translate(398)"/><use xlink:href="#p" transform="translate(459.1)"/></g><path d="M61.1 369h648.1" clip-path="url(#a)" style="fill:none;stroke:#b0b0b0;stroke-opacity:.3;stroke-width:.8;stroke-linecap:square"/><defs><path id="q" d="M0 0h-3.5" style="stroke:#000;stroke-width:.8"/></defs><use xlink:href="#q" x="61.1" y="369" style="stroke:#000;stroke-width:.8"/><g transform="matrix(.1 0 0 -.1 25.5 372.8)"><defs><path id="r" d="M684 794h660V0H684z" transform="scale(.01563)"/></defs><use xlink:href="#e"/><use xlink:href="#r" transform="translate(63.6)"/><use xlink:href="#e" transform="translate(95.4)"/><use xlink:href="#e" transform="translate(159)"/><use xlink:href="#c" transform="translate(222.7)"/></g><path d="M61.1 322.6h648.1" clip-path="url(#a)" style="fill:none;stroke:#b0b0b0;stroke-opacity:.3;stroke-width:.8;stroke-linecap:square"/><use xlink:href="#q" x="61.1" y="322.6" style="stroke:#000;stroke-width:.8"/><g transform="matrix(.1 0 0 -.1 25.5 326.4)"><defs><path id="s" d="M2419 4116 825 1625h1594zm-166 550h794V1625h666v-525h-666V0h-628v1100H313v609z" transform="scale(.01563)"/></defs><use xlink:href="#e"/><use xlink:href="#r" transform="translate(63.6)"/><use xlink:href="#e" transform="translate(95.4)"/><use xlink:href="#e" transform="translate(159)"/><use xlink:href="#s" transform="translate(222.7)"/></g><path d="M61.1 276.2h648.1" clip-path="url(#a)" style="fill:none;stroke:#b0b0b0;stroke-opacity:.3;stroke-width:.8;stroke-linecap:square"/><use xlink:href="#q" x="61.1" y="276.2" style="stroke:#000;stroke-width:.8"/><g transform="matrix(.1 0 0 -.1 25.5 280)"><defs><path id="t" d="M2113 2584q-425 0-674-291-248-290-248-796 0-503 248-796 249-292 674-292t673 292q248 293 248 796 0 506-248 796-248 291-673 291m1253 1979v-575q-238 112-480 171-242 60-480 60-625 0-955-422-329-422-376-1275 184 272 462 417 279 145 613 145 703 0 1111-427 408-426 408-1160 0-719-425-1154Q2819-91 2113-91q-810 0-1238 620-428 621-428 1799 0 1106 525 1764t1409 658q238 0 480-47t505-140" transform="scale(.01563)"/></defs><use xlink:href="#e"/><use xlink:href="#r" transform="translate(63.6)"/><use xlink:href="#e" transform="translate(95.4)"/><use xlink:href="#e" transform="translate(159)"/><use xlink:href="#t" transform="translate(222.7)"/></g><path d="M61.1 229.8h648.1" clip-path="url(#a)" style="fill:none;stroke:#b0b0b0;stroke-opacity:.3;stroke-width:.8;stroke-linecap:square"/><use xlink:href="#q" x="61.1" y="229.8" style="stroke:#000;stroke-width:.8"/><g transform="matrix(.1 0 0 -.1 25.5 233.6)"><defs><path id="u" d="M2034 2216q-450 0-708-241-257-241-257-662 0-422 257-663 258-241 708-241t709 242q260 243 260 662 0 421-258 662-257 241-711 241m-631 268q-406 100-633 378-226 279-226 679 0 559 398 884 399 325 1092 325 697 0 1094-325t397-884q0-400-227-679-226-278-629-378 456-106 710-416 255-309 255-755 0-679-414-1042Q2806-91 2034-91q-771 0-1186 362-414 363-414 1042 0 446 256 755 257 310 713 416m-231 997q0-362 226-565 227-203 636-203 407 0 636 203 230 203 230 565 0 363-230 566-229 203-636 203-409 0-636-203-226-203-226-566" transform="scale(.01563)"/></defs><use xlink:href="#e"/><use xlink:href="#r" transform="translate(63.6)"/><use xlink:href="#e" transform="translate(95.4)"/><use xlink:href="#e" transform="translate(159)"/><use xlink:href="#u" transform="translate(222.7)"/></g><path d="M61.1 183.4h648.1" clip-path="url(#a)" style="fill:none;stroke:#b0b0b0;stroke-opacity:.3;stroke-width:.8;stroke-linecap:square"/><use xlink:href="#q" x="61.1" y="183.4" style="stroke:#000;stroke-width:.8"/><g transform="matrix(.1 0 0 -.1 25.5 187.2)"><use xlink:href="#e"/><use xlink:href="#r" transform="translate(63.6)"/><use xlink:href="#e" transform="translate(95.4)"/><use xlink:href="#g" transform="translate(159)"/><use xlink:href="#e" transform="translate(222.7)"/></g><path d="M61.1 137h648.1" clip-path="url(#a)" style="fill:none;stroke:#b0b0b0;stroke-opacity:.3;stroke-width:.8;stroke-linecap:square"/><use xlink:href="#q" x="61.1" y="137" style="stroke:#000;stroke-width:.8"/><g transform="matrix(.1 0 0 -.1 25.5 140.8)"><use xlink:href="#e"/><use xlink:href="#r" transform="translate(63.6)"/><use xlink:href="#e" transform="translate(95.4)"/><use xlink:href="#g" transform="translate(159)"/><use xlink:href="#c" transform="translate(222.7)"/></g><path d="M61.1 90.6h648.1" clip-path="url(#a)" style="fill:none;stroke:#b0b0b0;stroke-opacity:.3;stroke-width:.8;stroke-linecap:square"/><use xlink:href="#q" x="61.1" y="90.6" style="stroke:#000;stroke-width:.8"/><g transform="matrix(.1 0 0 -.1 25.5 94.4)"><use xlink:href="#e"/><use xlink:href="#r" transform="translate(63.6)"/><use xlink:href="#e" transform="translate(95.4)"/><use xlink:href="#g" transform="translate(159)"/><use xlink:href="#s" transform="translate(222.7)"/></g><path d="M61.1 44.2h648.1" clip-path="url(#a)" style="fill:none;stroke:#b0b0b0;stroke-opacity:.3;stroke-width:.8;stroke-linecap:square"/><use xlink:href="#q" x="61.1" y="44.2" style="stroke:#000;stroke-width:.8"/><g transform="matrix(.1 0 0 -.1 25.5 48)"><use xlink:href="#e"/><use xlink:href="#r" transform="translate(63.6)"/><use xlink:href="#e" transform="translate(95.4)"/><use xlink:href="#g" transform="translate(159)"/><use xlink:href="#t" transform="translate(222.7)"/></g><g transform="matrix(0 -.11 -.11 0 19.2 340.3)"><defs><path id="v" d="M1259 2228V519h1013q509 0 754 211 246 211 246 645 0 438-246 645-245 208-754 208zm0 1919V2741h935q462 0 688 173 227 174 227 530 0 353-227 528-226 175-688 175zm-631 519h1613q722 0 1112-300 391-300 391-853 0-429-200-682t-588-315q466-100 724-418 258-317 258-792 0-625-425-966Q3088 0 2303 0H628z" transform="scale(.01563)"/><path id="w" d="M2059-325q-243-625-475-815-231-191-618-191H506v481h338q237 0 368 113 132 112 291 531l103 262L191 3500h609L1894 763l1094 2737h609z" transform="scale(.01563)"/><path id="x" d="M1259 4147V2394h794q441 0 681 228 241 228 241 650 0 419-241 647-240 228-681 228zm-631 519h1425q785 0 1186-355 402-355 402-1039 0-691-402-1044-401-353-1186-353h-794V0H628z" transform="scale(.01563)"/><path id="y" d="M2631 2963q-97 56-211 82-114 27-251 27-488 0-749-317t-261-911V0H581v3500h578v-544q182 319 472 473 291 155 707 155 59 0 131-8 72-7 159-23z" transform="scale(.01563)"/><path id="z" d="M3425 4513v-616q-359 172-678 256-319 85-616 85-515 0-795-200t-280-569q0-310 186-468 186-157 705-254l381-78q706-135 1042-474t336-907q0-679-455-1029Q2797-91 1919-91q-331 0-705 75-373 75-773 222v650q384-215 753-325 369-109 725-109 540 0 834 212 294 213 294 607 0 343-211 537t-692 291l-385 75q-706 140-1022 440-315 300-315 835 0 619 436 975t1201 356q329 0 669-60 341-59 697-177" transform="scale(.01563)"/><path id="A" d="M3328 2828q216 388 516 572t706 184q547 0 844-383 297-382 297-1088V0h-578v2094q0 503-179 746-178 244-543 244-447 0-707-297-259-296-259-809V0h-578v2094q0 506-178 748t-550 242q-441 0-701-298-259-298-259-808V0H581v3500h578v-544q197 322 472 475t653 153q382 0 649-194 267-193 395-562" transform="scale(.01563)"/><path id="B" d="M2194 1759q-697 0-966-159t-269-544q0-306 202-486 202-179 548-179 479 0 768 339t289 901v128zm1147 238V0h-575v531q-197-318-491-470T1556-91q-537 0-855 302-317 302-317 808 0 590 395 890 396 300 1180 300h807v57q0 397-261 614t-733 217q-300 0-585-72-284-72-546-216v532q315 122 612 182 297 61 578 61 760 0 1135-394 375-393 375-1193" transform="scale(.01563)"/><path id="C" d="M3122 3366v-538q-244 135-489 202t-495 67q-560 0-870-355-309-354-309-995t309-996q310-354 870-354 250 0 495 67t489 202V134Q2881 22 2623-34q-257-57-548-57-791 0-1257 497-465 497-465 1341 0 856 470 1346 471 491 1290 491 265 0 518-55 253-54 491-163" transform="scale(.01563)"/><path id="D" d="M3513 3500 2247 1797 3578 0h-678L1881 1375 863 0H184l1360 1831L300 3500h678l928-1247 928 1247z" transform="scale(.01563)"/><path id="E" d="M1984 4856q-418-718-622-1422-203-703-203-1425 0-721 205-1429t620-1424h-500Q1016-109 783 600T550 2009q0 697 231 1403 232 707 703 1444z" transform="scale(.01563)"/><path id="F" d="M269 3500h575l719-2731 715 2731h678l719-2731 716 2731h575L4050 0h-678l-753 2869L1863 0h-679z" transform="scale(.01563)"/><path id="G" d="M3116 1747q0 634-261 995t-717 361q-457 0-718-361t-261-995 261-995 718-361q456 0 717 361t261 995M1159 2969q182 312 458 463 277 152 661 152 638 0 1036-506 399-506 399-1331T3314 415Q2916-91 2278-91q-384 0-661 152-276 152-458 464V0H581v4863h578z" transform="scale(.01563)"/><path id="H" d="M513 4856h500q468-737 701-1444 233-706 233-1403 0-700-233-1409T1013-844H513q415 716 620 1424t205 1429q0 722-205 1425-205 704-620 1422" transform="scale(.01563)"/></defs><use xlink:href="#v"/><use xlink:href="#w" transform="translate(68.6)"/><use xlink:href="#n" transform="translate(127.8)"/><use xlink:href="#i" transform="translate(167)"/><use xlink:href="#j" transform="translate(228.5)"/><use xlink:href="#x" transform="translate(312.4)"/><use xlink:href="#i" transform="translate(369)"/><use xlink:href="#y" transform="translate(430.6)"/><use xlink:href="#z" transform="translate(503.5)"/><use xlink:href="#j" transform="translate(567)"/><use xlink:href="#o" transform="translate(619)"/><use xlink:href="#A" transform="translate(646.9)"/><use xlink:href="#m" transform="translate(744.3)"/><use xlink:href="#l" transform="translate(807.7)"/><use xlink:href="#B" transform="translate(835.4)"/><use xlink:href="#C" transform="translate(896.7)"/><use xlink:href="#y" transform="translate(951.7)"/><use xlink:href="#B" transform="translate(992.8)"/><use xlink:href="#c" transform="translate(1054)"/><use xlink:href="#x" transform="translate(1149.5)"/><use xlink:href="#i" transform="translate(1206.2)"/><use xlink:href="#y" transform="translate(1267.7)"/><use xlink:href="#x" transform="translate(1340.6)"/><use xlink:href="#o" transform="translate(1398.7)"/><use xlink:href="#D" transform="translate(1426.4)"/><use xlink:href="#i" transform="translate(1482.5)"/><use xlink:href="#l" transform="translate(1544)"/><use xlink:href="#E" transform="translate(1603.6)"/><use xlink:href="#l" transform="translate(1642.6)"/><use xlink:href="#k" transform="translate(1670.4)"/><use xlink:href="#F" transform="translate(1731.6)"/><use xlink:href="#i" transform="translate(1813.4)"/><use xlink:href="#y" transform="translate(1874.9)"/><use xlink:href="#o" transform="translate(1947.8)"/><use xlink:href="#j" transform="translate(1975.6)"/><use xlink:href="#G" transform="translate(2059.4)"/><use xlink:href="#i" transform="translate(2123)"/><use xlink:href="#n" transform="translate(2184.4)"/><use xlink:href="#n" transform="translate(2223.7)"/><use xlink:href="#i" transform="translate(2262.9)"/><use xlink:href="#y" transform="translate(2324.4)"/><use xlink:href="#H" transform="translate(2365.5)"/></g><path d="m90.6 291.3 12.2 15.4L115 324l12.3 6.3 24.4 7 48.9 9.5 73.3 6.7 171.2 10.6 234.6 8.6" clip-path="url(#a)" style="fill:none;stroke:#1f77b4;stroke-width:1.5;stroke-linecap:square"/><defs><path id="I" d="M0 3.5a3.5 3.5 0 1 0 0-7 3.5 3.5 0 0 0 0 7z" style="stroke:#1f77b4"/></defs><g clip-path="url(#a)"><use xlink:href="#I" x="90.6" y="291.3" style="fill:#1f77b4;stroke:#1f77b4"/><use xlink:href="#I" x="102.8" y="306.7" style="fill:#1f77b4;stroke:#1f77b4"/><use xlink:href="#I" x="115" y="324.1" style="fill:#1f77b4;stroke:#1f77b4"/><use xlink:href="#I" x="127.3" y="330.4" style="fill:#1f77b4;stroke:#1f77b4"/><use xlink:href="#I" x="151.7" y="337.3" style="fill:#1f77b4;stroke:#1f77b4"/><use xlink:href="#I" x="200.6" y="346.9" style="fill:#1f77b4;stroke:#1f77b4"/><use xlink:href="#I" x="273.9" y="353.6" style="fill:#1f77b4;stroke:#1f77b4"/><use xlink:href="#I" x="445.1" y="364.2" style="fill:#1f77b4;stroke:#1f77b4"/><use xlink:href="#I" x="679.7" y="372.8" style="fill:#1f77b4;stroke:#1f77b4"/></g><path d="m90.6 226.4 12.2 19.9 12.2 23.2 12.3 6 24.4 7.4 48.9 12.6 73.3-3.1 171.2 11.8 234.6 22" clip-path="url(#a)" style="fill:none;stroke-dasharray:5.55,2.4;stroke-dashoffset:0;stroke:#1f77b4;stroke-width:1.5"/><defs><path id="J" d="M0 3.5a3.5 3.5 0 1 0 0-7 3.5 3.5 0 0 0 0 7z" style="stroke:#1f77b4"/></defs><g clip-path="url(#a)"><use xlink:href="#J" x="90.6" y="226.4" style="fill-opacity:0;stroke:#1f77b4"/><use xlink:href="#J" x="102.8" y="246.3" style="fill-opacity:0;stroke:#1f77b4"/><use xlink:href="#J" x="115" y="269.5" style="fill-opacity:0;stroke:#1f77b4"/><use xlink:href="#J" x="127.3" y="275.6" style="fill-opacity:0;stroke:#1f77b4"/><use xlink:href="#J" x="151.7" y="282.9" style="fill-opacity:0;stroke:#1f77b4"/><use xlink:href="#J" x="200.6" y="295.5" style="fill-opacity:0;stroke:#1f77b4"/><use xlink:href="#J" x="273.9" y="292.4" style="fill-opacity:0;stroke:#1f77b4"/><use xlink:href="#J" x="445.1" y="304.2" style="fill-opacity:0;stroke:#1f77b4"/><use xlink:href="#J" x="679.7" y="326.2" style="fill-opacity:0;stroke:#1f77b4"/></g><path d="m90.6 201.4 12.2 39.6 12.2 62.3 12.3 8 24.4 6.4 48.9 9.2 73.3 6.6 171.2 10.1 234.6 8.1" clip-path="url(#a)" style="fill:none;stroke:#ff7f0e;stroke-width:1.5;stroke-linecap:square"/><defs><path id="K" d="M-3.5 3.5h7v-7h-7z" style="stroke:#ff7f0e;stroke-linejoin:miter"/></defs><g clip-path="url(#a)"><use xlink:href="#K" x="90.6" y="201.4" style="fill:#ff7f0e;stroke:#ff7f0e;stroke-linejoin:miter"/><use xlink:href="#K" x="102.8" y="241" style="fill:#ff7f0e;stroke:#ff7f0e;stroke-linejoin:miter"/><use xlink:href="#K" x="115" y="303.3" style="fill:#ff7f0e;stroke:#ff7f0e;stroke-linejoin:miter"/><use xlink:href="#K" x="127.3" y="311.4" style="fill:#ff7f0e;stroke:#ff7f0e;stroke-linejoin:miter"/><use xlink:href="#K" x="151.7" y="317.7" style="fill:#ff7f0e;stroke:#ff7f0e;stroke-linejoin:miter"/><use xlink:href="#K" x="200.6" y="326.9" style="fill:#ff7f0e;stroke:#ff7f0e;stroke-linejoin:miter"/><use xlink:href="#K" x="273.9" y="333.5" style="fill:#ff7f0e;stroke:#ff7f0e;stroke-linejoin:miter"/><use xlink:href="#K" x="445.1" y="343.6" style="fill:#ff7f0e;stroke:#ff7f0e;stroke-linejoin:miter"/><use xlink:href="#K" x="679.7" y="351.7" style="fill:#ff7f0e;stroke:#ff7f0e;stroke-linejoin:miter"/></g><path d="m90.6 43.4 12.2 19 12.2 203 12.3 5.5 24.4 7.7 48.9 5.3 73.3 3.9 171.2 2.2 234.6 17.4" clip-path="url(#a)" style="fill:none;stroke-dasharray:5.55,2.4;stroke-dashoffset:0;stroke:#ff7f0e;stroke-width:1.5"/><defs><path id="L" d="M-3.5 3.5h7v-7h-7z" style="stroke:#ff7f0e;stroke-linejoin:miter"/></defs><g clip-path="url(#a)"><use xlink:href="#L" x="90.6" y="43.4" style="fill-opacity:0;stroke:#ff7f0e;stroke-linejoin:miter"/><use xlink:href="#L" x="102.8" y="62.3" style="fill-opacity:0;stroke:#ff7f0e;stroke-linejoin:miter"/><use xlink:href="#L" x="115" y="265.4" style="fill-opacity:0;stroke:#ff7f0e;stroke-linejoin:miter"/><use xlink:href="#L" x="127.3" y="270.9" style="fill-opacity:0;stroke:#ff7f0e;stroke-linejoin:miter"/><use xlink:href="#L" x="151.7" y="278.6" style="fill-opacity:0;stroke:#ff7f0e;stroke-linejoin:miter"/><use xlink:href="#L" x="200.6" y="283.9" style="fill-opacity:0;stroke:#ff7f0e;stroke-linejoin:miter"/><use xlink:href="#L" x="273.9" y="287.8" style="fill-opacity:0;stroke:#ff7f0e;stroke-linejoin:miter"/><use xlink:href="#L" x="445.1" y="290" style="fill-opacity:0;stroke:#ff7f0e;stroke-linejoin:miter"/><use xlink:href="#L" x="679.7" y="307.4" style="fill-opacity:0;stroke:#ff7f0e;stroke-linejoin:miter"/></g><path d="m90.6 252.2 12.2 28.2 12.2 50.2 12.3 5.9 24.4 5.8 48.9 8.3 73.3 5.7 171.2 8.5 234.6 6.6" clip-path="url(#a)" style="fill:none;stroke:#2ca02c;stroke-width:1.5;stroke-linecap:square"/><defs><path id="M" d="m0-3.5-3.5 7h7z" style="stroke:#2ca02c;stroke-linejoin:miter"/></defs><g clip-path="url(#a)"><use xlink:href="#M" x="90.6" y="252.2" style="fill:#2ca02c;stroke:#2ca02c;stroke-linejoin:miter"/><use xlink:href="#M" x="102.8" y="280.4" style="fill:#2ca02c;stroke:#2ca02c;stroke-linejoin:miter"/><use xlink:href="#M" x="115" y="330.6" style="fill:#2ca02c;stroke:#2ca02c;stroke-linejoin:miter"/><use xlink:href="#M" x="127.3" y="336.5" style="fill:#2ca02c;stroke:#2ca02c;stroke-linejoin:miter"/><use xlink:href="#M" x="151.7" y="342.3" style="fill:#2ca02c;stroke:#2ca02c;stroke-linejoin:miter"/><use xlink:href="#M" x="200.6" y="350.6" style="fill:#2ca02c;stroke:#2ca02c;stroke-linejoin:miter"/><use xlink:href="#M" x="273.9" y="356.3" style="fill:#2ca02c;stroke:#2ca02c;stroke-linejoin:miter"/><use xlink:href="#M" x="445.1" y="364.8" style="fill:#2ca02c;stroke:#2ca02c;stroke-linejoin:miter"/><use xlink:href="#M" x="679.7" y="371.4" style="fill:#2ca02c;stroke:#2ca02c;stroke-linejoin:miter"/></g><path d="m90.6 133.8 12.2 44.5 12.2 120 12.3 10.6 24.4 5.4 48.9 5 73.3 3 171.2 4.2L679.7 340" clip-path="url(#a)" style="fill:none;stroke-dasharray:5.55,2.4;stroke-dashoffset:0;stroke:#2ca02c;stroke-width:1.5"/><defs><path id="N" d="m0-3.5-3.5 7h7z" style="stroke:#2ca02c;stroke-linejoin:miter"/></defs><g clip-path="url(#a)"><use xlink:href="#N" x="90.6" y="133.8" style="fill-opacity:0;stroke:#2ca02c;stroke-linejoin:miter"/><use xlink:href="#N" x="102.8" y="178.3" style="fill-opacity:0;stroke:#2ca02c;stroke-linejoin:miter"/><use xlink:href="#N" x="115" y="298.4" style="fill-opacity:0;stroke:#2ca02c;stroke-linejoin:miter"/><use xlink:href="#N" x="127.3" y="308.9" style="fill-opacity:0;stroke:#2ca02c;stroke-linejoin:miter"/><use xlink:href="#N" x="151.7" y="314.3" style="fill-opacity:0;stroke:#2ca02c;stroke-linejoin:miter"/><use xlink:href="#N" x="200.6" y="319.3" style="fill-opacity:0;stroke:#2ca02c;stroke-linejoin:miter"/><use xlink:href="#N" x="273.9" y="322.3" style="fill-opacity:0;stroke:#2ca02c;stroke-linejoin:miter"/><use xlink:href="#N" x="445.1" y="326.5" style="fill-opacity:0;stroke:#2ca02c;stroke-linejoin:miter"/><use xlink:href="#N" x="679.7" y="340" style="fill-opacity:0;stroke:#2ca02c;stroke-linejoin:miter"/></g><path d="m90.6 242.9 12.2 31 12.2 41 12.3 6.7 24.4 5.7 48.9 8.7 73.3 6.5L445.1 353l234.6 7.8" clip-path="url(#a)" style="fill:none;stroke:#d62728;stroke-width:1.5;stroke-linecap:square"/><defs><path id="O" d="m0 5 5-5-5-5-5 5z" style="stroke:#d62728;stroke-linejoin:miter"/></defs><g clip-path="url(#a)"><use xlink:href="#O" x="90.6" y="242.9" style="fill:#d62728;stroke:#d62728;stroke-linejoin:miter"/><use xlink:href="#O" x="102.8" y="274" style="fill:#d62728;stroke:#d62728;stroke-linejoin:miter"/><use xlink:href="#O" x="115" y="314.9" style="fill:#d62728;stroke:#d62728;stroke-linejoin:miter"/><use xlink:href="#O" x="127.3" y="321.6" style="fill:#d62728;stroke:#d62728;stroke-linejoin:miter"/><use xlink:href="#O" x="151.7" y="327.3" style="fill:#d62728;stroke:#d62728;stroke-linejoin:miter"/><use xlink:href="#O" x="200.6" y="336" style="fill:#d62728;stroke:#d62728;stroke-linejoin:miter"/><use xlink:href="#O" x="273.9" y="342.5" style="fill:#d62728;stroke:#d62728;stroke-linejoin:miter"/><use xlink:href="#O" x="445.1" y="353" style="fill:#d62728;stroke:#d62728;stroke-linejoin:miter"/><use xlink:href="#O" x="679.7" y="360.8" style="fill:#d62728;stroke:#d62728;stroke-linejoin:miter"/></g><path d="m90.6 110.7 12.2 20.3L115 269.3l12.3 9.6 24.4 3.6 48.9 7.9 73.3 2.5 171.2 7.2 234.6 12" clip-path="url(#a)" style="fill:none;stroke-dasharray:5.55,2.4;stroke-dashoffset:0;stroke:#d62728;stroke-width:1.5"/><defs><path id="P" d="m0 5 5-5-5-5-5 5z" style="stroke:#d62728;stroke-linejoin:miter"/></defs><g clip-path="url(#a)"><use xlink:href="#P" x="90.6" y="110.7" style="fill-opacity:0;stroke:#d62728;stroke-linejoin:miter"/><use xlink:href="#P" x="102.8" y="131" style="fill-opacity:0;stroke:#d62728;stroke-linejoin:miter"/><use xlink:href="#P" x="115" y="269.3" style="fill-opacity:0;stroke:#d62728;stroke-linejoin:miter"/><use xlink:href="#P" x="127.3" y="278.9" style="fill-opacity:0;stroke:#d62728;stroke-linejoin:miter"/><use xlink:href="#P" x="151.7" y="282.5" style="fill-opacity:0;stroke:#d62728;stroke-linejoin:miter"/><use xlink:href="#P" x="200.6" y="290.4" style="fill-opacity:0;stroke:#d62728;stroke-linejoin:miter"/><use xlink:href="#P" x="273.9" y="292.9" style="fill-opacity:0;stroke:#d62728;stroke-linejoin:miter"/><use xlink:href="#P" x="445.1" y="300.1" style="fill-opacity:0;stroke:#d62728;stroke-linejoin:miter"/><use xlink:href="#P" x="679.7" y="312.1" style="fill-opacity:0;stroke:#d62728;stroke-linejoin:miter"/></g><path d="M61.1 389.3V27m648.1 362.3V27M61.1 389.3h648.1M61.1 26.9h648.1" style="fill:none;stroke:#000;stroke-width:.8;stroke-linejoin:miter;stroke-linecap:square"/><g transform="matrix(.12 0 0 -.12 249 20.9)"><defs><path id="Q" d="M191 3500h609L1894 563l1094 2937h609L2284 0h-781z" transform="scale(.01563)"/></defs><use xlink:href="#v"/><use xlink:href="#w" transform="translate(68.6)"/><use xlink:href="#n" transform="translate(127.8)"/><use xlink:href="#i" transform="translate(167)"/><use xlink:href="#j" transform="translate(228.5)"/><use xlink:href="#x" transform="translate(312.4)"/><use xlink:href="#i" transform="translate(369)"/><use xlink:href="#y" transform="translate(430.6)"/><use xlink:href="#z" transform="translate(503.5)"/><use xlink:href="#j" transform="translate(567)"/><use xlink:href="#o" transform="translate(619)"/><use xlink:href="#A" transform="translate(646.9)"/><use xlink:href="#m" transform="translate(744.3)"/><use xlink:href="#l" transform="translate(807.7)"/><use xlink:href="#B" transform="translate(835.4)"/><use xlink:href="#C" transform="translate(896.7)"/><use xlink:href="#y" transform="translate(951.7)"/><use xlink:href="#B" transform="translate(992.8)"/><use xlink:href="#c" transform="translate(1054)"/><use xlink:href="#x" transform="translate(1149.5)"/><use xlink:href="#i" transform="translate(1206.2)"/><use xlink:href="#y" transform="translate(1267.7)"/><use xlink:href="#x" transform="translate(1340.6)"/><use xlink:href="#o" transform="translate(1398.7)"/><use xlink:href="#D" transform="translate(1426.4)"/><use xlink:href="#i" transform="translate(1482.5)"/><use xlink:href="#l" transform="translate(1544)"/><use xlink:href="#Q" transform="translate(1603.6)"/><use xlink:href="#j" transform="translate(1662.8)"/><use xlink:href="#h" transform="translate(1746.7)"/><use xlink:href="#i" transform="translate(1811.6)"/><use xlink:href="#j" transform="translate(1873.2)"/><use xlink:href="#k" transform="translate(1925.3)"/><use xlink:href="#l" transform="translate(1986.4)"/><use xlink:href="#m" transform="translate(2014.2)"/><use xlink:href="#n" transform="translate(2077.6)"/><use xlink:href="#o" transform="translate(2116.8)"/><use xlink:href="#k" transform="translate(2144.6)"/><use xlink:href="#p" transform="translate(2205.8)"/></g><path d="M480.2 81.1h223.4q1.6 0 1.6-1.6v-47q0-1.6-1.6-1.6H480.2q-1.6 0-1.6 1.6v47q0 1.6 1.6 1.6z" style="fill:#fff;opacity:.8;stroke:#ccc;stroke-linejoin:miter"/><path d="M481.8 37.4h16" style="fill:none;stroke:#1f77b4;stroke-width:1.5;stroke-linecap:square"/><use xlink:href="#I" x="489.8" y="37.4" style="fill:#1f77b4;stroke:#1f77b4"/><g transform="matrix(.08 0 0 -.08 504.2 40.2)"><defs><path id="R" d="M2375 4863v-479h-550q-309 0-430-125-120-125-120-450v-309h947v-447h-947V0H697v3053H147v447h550v244q0 584 272 851 272 268 862 268z" transform="scale(.01563)"/><path id="S" d="M3263-1063v-446H-63v446z" transform="scale(.01563)"/></defs><use xlink:href="#B"/><use xlink:href="#Q" transform="translate(61.3)"/><use xlink:href="#o" transform="translate(120.5)"/><use xlink:href="#R" transform="translate(148.2)"/><use xlink:href="#S" transform="translate(183.4)"/><use xlink:href="#t" transform="translate(233.4)"/><use xlink:href="#d" transform="translate(297)"/><use xlink:href="#E" transform="translate(392.5)"/><use xlink:href="#A" transform="translate(431.5)"/><use xlink:href="#i" transform="translate(529)"/><use xlink:href="#B" transform="translate(590.4)"/><use xlink:href="#p" transform="translate(651.7)"/><use xlink:href="#H" transform="translate(715)"/></g><path d="M481.8 49.3h16" style="fill:none;stroke-dasharray:5.55,2.4;stroke-dashoffset:0;stroke:#1f77b4;stroke-width:1.5"/><use xlink:href="#J" x="489.8" y="49.3" style="fill-opacity:0;stroke:#1f77b4"/><g transform="matrix(.08 0 0 -.08 504.2 52.1)"><defs><path id="T" d="M4653 2053q-272 0-427-231-154-231-154-644 0-406 154-639 155-233 427-233 266 0 420 233 155 233 155 639 0 410-155 642-154 233-420 233m0 397q494 0 784-344 291-343 291-928 0-584-292-927-292-342-783-342-500 0-791 342-290 343-290 927 0 588 292 930t789 342M1428 4353q-269 0-424-233-154-232-154-639 0-412 153-644 153-231 425-231t426 231q155 232 155 644 0 403-156 637-156 235-425 235m2822 397h500L1831-91h-500zm-2822 0q494 0 787-342 294-342 294-927 0-590-292-931t-789-341-786 342q-289 343-289 930 0 582 290 925 291 344 785 344" transform="scale(.01563)"/></defs><use xlink:href="#B"/><use xlink:href="#Q" transform="translate(61.3)"/><use xlink:href="#o" transform="translate(120.5)"/><use xlink:href="#R" transform="translate(148.2)"/><use xlink:href="#S" transform="translate(183.4)"/><use xlink:href="#t" transform="translate(233.4)"/><use xlink:href="#d" transform="translate(297)"/><use xlink:href="#E" transform="translate(392.5)"/><use xlink:href="#d" transform="translate(431.5)"/><use xlink:href="#T" transform="translate(495.1)"/><use xlink:href="#F" transform="translate(622)"/><use xlink:href="#k" transform="translate(703.7)"/><use xlink:href="#y" transform="translate(764.9)"/><use xlink:href="#j" transform="translate(806)"/><use xlink:href="#n" transform="translate(858.1)"/><use xlink:href="#H" transform="translate(897.3)"/></g><path d="M481.8 61.3h16" style="fill:none;stroke:#ff7f0e;stroke-width:1.5;stroke-linecap:square"/><use xlink:href="#K" x="489.8" y="61.3" style="fill:#ff7f0e;stroke:#ff7f0e;stroke-linejoin:miter"/><g transform="matrix(.08 0 0 -.08 504.2 64)"><defs><path id="U" d="M603 3500h575V-63q0-668-255-968-254-300-820-300h-219v487H38q328 0 446 152Q603-541 603-63zm0 1363h575v-729H603z" transform="scale(.01563)"/><path id="V" d="M1159 525v-1856H581v4831h578v-531q182 312 458 463 277 152 661 152 638 0 1036-506 399-506 399-1331T3314 415Q2916-91 2278-91q-384 0-661 152-276 152-458 464m1957 1222q0 634-261 995t-717 361q-457 0-718-361t-261-995 261-995 718-361q456 0 717 361t261 995" transform="scale(.01563)"/><path id="W" d="M2906 1791q0 625-258 968-257 344-723 344-462 0-720-344-258-343-258-968 0-622 258-966t720-344q466 0 723 344 258 344 258 966m575-1357q0-893-397-1329-396-436-1215-436-303 0-572 45t-522 139v559q253-137 500-202 247-66 503-66 566 0 847 295t281 892v285q-178-310-456-463T1784 0Q1141 0 747 490 353 981 353 1791q0 812 394 1302 394 491 1037 491 388 0 666-153t456-462v531h575z" transform="scale(.01563)"/></defs><use xlink:href="#U"/><use xlink:href="#V" transform="translate(27.8)"/><use xlink:href="#i" transform="translate(91.3)"/><use xlink:href="#W" transform="translate(152.8)"/><use xlink:href="#S" transform="translate(216.3)"/><use xlink:href="#u" transform="translate(266.3)"/><use xlink:href="#d" transform="translate(329.9)"/><use xlink:href="#E" transform="translate(425.3)"/><use xlink:href="#A" transform="translate(464.3)"/><use xlink:href="#i" transform="translate(561.7)"/><use xlink:href="#B" transform="translate(623.2)"/><use xlink:href="#p" transform="translate(684.5)"/><use xlink:href="#H" transform="translate(747.9)"/></g><path d="M481.8 73.3h16" style="fill:none;stroke-dasharray:5.55,2.4;stroke-dashoffset:0;stroke:#ff7f0e;stroke-width:1.5"/><use xlink:href="#L" x="489.8" y="73.3" style="fill-opacity:0;stroke:#ff7f0e;stroke-linejoin:miter"/><g transform="matrix(.08 0 0 -.08 504.2 76)"><use xlink:href="#U"/><use xlink:href="#V" transform="translate(27.8)"/><use xlink:href="#i" transform="translate(91.3)"/><use xlink:href="#W" transform="translate(152.8)"/><use xlink:href="#S" transform="translate(216.3)"/><use xlink:href="#u" transform="translate(266.3)"/><use xlink:href="#d" transform="translate(329.9)"/><use xlink:href="#E" transform="translate(425.3)"/><use xlink:href="#d" transform="translate(464.3)"/><use xlink:href="#T" transform="translate(528)"/><use xlink:href="#F" transform="translate(654.7)"/><use xlink:href="#k" transform="translate(736.5)"/><use xlink:href="#y" transform="translate(797.7)"/><use xlink:href="#j" transform="translate(838.8)"/><use xlink:href="#n" transform="translate(891)"/><use xlink:href="#H" transform="translate(930.1)"/></g><path d="M597.7 37.4h16" style="fill:none;stroke:#2ca02c;stroke-width:1.5;stroke-linecap:square"/><use xlink:href="#M" x="605.7" y="37.4" style="fill:#2ca02c;stroke:#2ca02c;stroke-linejoin:miter"/><g transform="matrix(.08 0 0 -.08 620.1 40.2)"><use xlink:href="#U"/><use xlink:href="#D" transform="translate(27.8)"/><use xlink:href="#l" transform="translate(87)"/><use xlink:href="#S" transform="translate(114.7)"/><use xlink:href="#u" transform="translate(164.7)"/><use xlink:href="#d" transform="translate(228.4)"/><use xlink:href="#E" transform="translate(323.8)"/><use xlink:href="#A" transform="translate(362.8)"/><use xlink:href="#i" transform="translate(460.2)"/><use xlink:href="#B" transform="translate(521.7)"/><use xlink:href="#p" transform="translate(583)"/><use xlink:href="#H" transform="translate(646.4)"/></g><path d="M597.7 49.3h16" style="fill:none;stroke-dasharray:5.55,2.4;stroke-dashoffset:0;stroke:#2ca02c;stroke-width:1.5"/><use xlink:href="#N" x="605.7" y="49.3" style="fill-opacity:0;stroke:#2ca02c;stroke-linejoin:miter"/><g transform="matrix(.08 0 0 -.08 620.1 52.1)"><use xlink:href="#U"/><use xlink:href="#D" transform="translate(27.8)"/><use xlink:href="#l" transform="translate(87)"/><use xlink:href="#S" transform="translate(114.7)"/><use xlink:href="#u" transform="translate(164.7)"/><use xlink:href="#d" transform="translate(228.4)"/><use xlink:href="#E" transform="translate(323.8)"/><use xlink:href="#d" transform="translate(362.8)"/><use xlink:href="#T" transform="translate(426.4)"/><use xlink:href="#F" transform="translate(553.2)"/><use xlink:href="#k" transform="translate(635)"/><use xlink:href="#y" transform="translate(696.2)"/><use xlink:href="#j" transform="translate(737.3)"/><use xlink:href="#n" transform="translate(789.4)"/><use xlink:href="#H" transform="translate(828.6)"/></g><path d="M597.7 61.3h16" style="fill:none;stroke:#d62728;stroke-width:1.5;stroke-linecap:square"/><use xlink:href="#O" x="605.7" y="61.3" style="fill:#d62728;stroke:#d62728;stroke-linejoin:miter"/><g transform="matrix(.08 0 0 -.08 620.1 64)"><use xlink:href="#F"/><use xlink:href="#i" transform="translate(81.8)"/><use xlink:href="#G" transform="translate(143.3)"/><use xlink:href="#V" transform="translate(206.8)"/><use xlink:href="#S" transform="translate(270.3)"/><use xlink:href="#u" transform="translate(320.3)"/><use xlink:href="#f" transform="translate(383.9)"/><use xlink:href="#E" transform="translate(479.3)"/><use xlink:href="#A" transform="translate(518.3)"/><use xlink:href="#i" transform="translate(615.7)"/><use xlink:href="#B" transform="translate(677.2)"/><use xlink:href="#p" transform="translate(738.5)"/><use xlink:href="#H" transform="translate(801.9)"/></g><path d="M597.7 73.3h16" style="fill:none;stroke-dasharray:5.55,2.4;stroke-dashoffset:0;stroke:#d62728;stroke-width:1.5"/><use xlink:href="#P" x="605.7" y="73.3" style="fill-opacity:0;stroke:#d62728;stroke-linejoin:miter"/><g transform="matrix(.08 0 0 -.08 620.1 76)"><use xlink:href="#F"/><use xlink:href="#i" transform="translate(81.8)"/><use xlink:href="#G" transform="translate(143.3)"/><use xlink:href="#V" transform="translate(206.8)"/><use xlink:href="#S" transform="translate(270.3)"/><use xlink:href="#u" transform="translate(320.3)"/><use xlink:href="#f" transform="translate(383.9)"/><use xlink:href="#E" transform="translate(479.3)"/><use xlink:href="#d" transform="translate(518.3)"/><use xlink:href="#T" transform="translate(582)"/><use xlink:href="#F" transform="translate(708.7)"/><use xlink:href="#k" transform="translate(790.5)"/><use xlink:href="#y" transform="translate(851.7)"/><use xlink:href="#j" transform="translate(892.8)"/><use xlink:href="#n" transform="translate(945)"/><use xlink:href="#H" transform="translate(984.1)"/></g><defs><clipPath id="a"><path d="M61.1 26.9h648.1v362.4H61.1z"/></clipPath></defs></svg>