<svg xmlns="http://www.w3.org/2000/svg" xmlns:xlink="http://www.w3.org/1999/xlink" width="960" height="576" viewBox="0 0 720 432"><path d="M0 432h720V0H0z" style="fill:#fff"/><path d="M45.3 389.3h663.9V27h-664z" style="fill:#fff"/><path d="M178.7 389.3V27" clip-path="url(#a)" style="fill:none;stroke:#b0b0b0;stroke-opacity:.3;stroke-width:.8;stroke-linecap:square"/><defs><path id="b" d="M0 0v3.5" style="stroke:#000;stroke-width:.8"/></defs><use xlink:href="#b" x="178.7" y="389.3" style="stroke:#000;stroke-width:.8"/><g transform="matrix(.1 0 0 -.1 170.8 404)"><defs><path id="c" d="M794 531h1031v3560L703 3866v575l1116 225h631V531h1031V0H794z" transform="scale(.01563)"/><path id="d" d="M684 794h660V0H684z" transform="scale(.01563)"/><path id="e" d="M2034 4250q-487 0-733-480-245-479-245-1442 0-959 245-1439 246-480 733-480 491 0 736 480 246 480 246 1439 0 963-246 1442-245 480-736 480m0 500q785 0 1199-621 414-620 414-1801 0-1178-414-1799Q2819-91 2034-91q-784 0-1198 620-414 621-414 1799 0 1181 414 1801 414 621 1198 621" transform="scale(.01563)"/></defs><use xlink:href="#c"/><use xlink:href="#d" transform="translate(63.6)"/><use xlink:href="#e" transform="translate(95.4)"/></g><path d="M312.4 389.3V27" clip-path="url(#a)" style="fill:none;stroke:#b0b0b0;stroke-opacity:.3;stroke-width:.8;stroke-linecap:square"/><use xlink:href="#b" x="312.4" y="389.3" style="stroke:#000;stroke-width:.8"/><g transform="matrix(.1 0 0 -.1 304.4 404)"><defs><path id="f" d="M691 4666h2478v-532H1269V2991q137 47 274 70 138 23 276 23 781 0 1237-428 457-428 457-1159 0-753-469-1171Q2575-91 1722-91q-294 0-599 50Q819 9 494 109v635q281-153 581-228t634-75q541 0 856 284 316 284 316 772 0 487-316 771-315 285-856 285-253 0-505-56-251-56-513-175z" transform="scale(.01563)"/></defs><use xlink:href="#c"/><use xlink:href="#d" transform="translate(63.6)"/><use xlink:href="#f" transform="translate(95.4)"/></g><path d="M446 389.3V27" clip-path="url(#a)" style="fill:none;stroke:#b0b0b0;stroke-opacity:.3;stroke-width:.8;stroke-linecap:square"/><use xlink:href="#b" x="446" y="389.3" style="stroke:#000;stroke-width:.8"/><g transform="matrix(.1 0 0 -.1 438 404)"><defs><path id="g" d="M1228 531h2203V0H469v531q359 372 979 998 621 627 780 809 303 340 423 576 121 236 121 464 0 372-261 606-261 235-680 235-297 0-627-103-329-103-704-313v638q381 153 712 231 332 78 607 78 725 0 1156-363 431-362 431-968 0-288-108-546-107-257-392-607-78-91-497-524-418-433-1181-1211" transform="scale(.01563)"/></defs><use xlink:href="#g"/><use xlink:href="#d" transform="translate(63.6)"/><use xlink:href="#e" transform="translate(95.4)"/></g><path d="M579.6 389.3V27" clip-path="url(#a)" style="fill:none;stroke:#b0b0b0;stroke-opacity:.3;stroke-width:.8;stroke-linecap:square"/><use xlink:href="#b" x="579.6" y="389.3" style="stroke:#000;stroke-width:.8"/><g transform="matrix(.1 0 0 -.1 571.6 404)"><use xlink:href="#g"/><use xlink:href="#d" transform="translate(63.6)"/><use xlink:href="#f" transform="translate(95.4)"/></g><g transform="matrix(.11 0 0 -.11 281.9 418.4)"><defs><path id="h" d="M1259 2228V519h1013q509 0 754 211 246 211 246 645 0 438-246 645-245 208-754 208zm0 1919V2741h935q462 0 688 173 227 174 227 530 0 353-227 528-226 175-688 175zm-631 519h1613q722 0 1112-300 391-300 391-853 0-429-200-682t-588-315q466-100 724-418 258-317 258-792 0-625-425-966Q3088 0 2303 0H628z" transform="scale(.01563)"/><path id="i" d="M603 3500h575V0H603zm0 1363h575v-729H603z" transform="scale(.01563)"/><path id="j" d="M1172 4494v-994h1184v-447H1172V1153q0-428 117-550t477-122h590V0h-590q-666 0-919 248-253 249-253 905v1900H172v447h422v994z" transform="scale(.01563)"/><path id="k" d="M2834 3397v-544q-243 125-506 187-262 63-544 63-428 0-642-131t-214-394q0-200 153-314t616-217l197-44q612-131 870-370t258-667q0-488-386-773Q2250-91 1575-91q-281 0-586 55T347 128v594q319-166 628-249 309-82 613-82 406 0 624 139 219 139 219 392 0 234-158 359-157 125-692 241l-200 47q-534 112-772 345-237 233-237 639 0 494 350 762 350 269 994 269 318 0 599-47 282-46 519-140" transform="scale(.01563)"/><path id="l" d="M1159 525v-1856H581v4831h578v-531q182 312 458 463 277 152 661 152 638 0 1036-506 399-506 399-1331T3314 415Q2916-91 2278-91q-384 0-661 152-276 152-458 464m1957 1222q0 634-261 995t-717 361q-457 0-718-361t-261-995 261-995 718-361q456 0 717 361t261 995" transform="scale(.01563)"/><path id="m" d="M3597 1894v-281H953q38-594 358-905t892-311q331 0 642 81t618 244V178Q3153 47 2828-22t-659-69q-838 0-1327 487-489 488-489 1320 0 859 464 1363 464 505 1252 505 706 0 1117-455 411-454 411-1235m-575 169q-6 471-264 752-258 282-683 282-481 0-770-272t-333-766z" transform="scale(.01563)"/><path id="n" d="M2631 2963q-97 56-211 82-114 27-251 27-488 0-749-317t-261-911V0H581v3500h578v-544q182 319 472 473 291 155 707 155 59 0 131-8 72-7 159-23z" transform="scale(.01563)"/><path id="o" d="M1259 4147V2394h794q441 0 681 228 241 228 241 650 0 419-241 647-240 228-681 228zm-631 519h1425q785 0 1186-355 402-355 402-1039 0-691-402-1044-401-353-1186-353h-794V0H628z" transform="scale(.01563)"/><path id="p" d="M3513 3500 2247 1797 3578 0h-678L1881 1375 863 0H184l1360 1831L300 3500h678l928-1247 928 1247z" transform="scale(.01563)"/><path id="q" d="M603 4863h575V0H603z" transform="scale(.01563)"/><path id="r" d="M1984 4856q-418-718-622-1422-203-703-203-1425 0-721 205-1429t620-1424h-500Q1016-109 783 600T550 2009q0 697 231 1403 232 707 703 1444z" transform="scale(.01563)"/><path id="s" d="M750 794h659V256L897-744H494L750 256z" transform="scale(.01563)"/><path id="t" d="M1959 3097q-462 0-731-361t-269-989 267-989q268-361 733-361 460 0 728 362 269 363 269 988 0 622-269 986-268 364-728 364m0 487q750 0 1178-488 429-487 429-1349 0-859-429-1349Q2709-91 1959-91q-753 0-1180 489-426 490-426 1349 0 862 426 1349 427 488 1180 488" transform="scale(.01563)"/><path id="u" d="M269 3500h575l719-2731 715 2731h678l719-2731 716 2731h575L4050 0h-678l-753 2869L1863 0h-679z" transform="scale(.01563)"/><path id="v" d="M3116 1747q0 634-261 995t-717 361q-457 0-718-361t-261-995 261-995 718-361q456 0 717 361t261 995M1159 2969q182 312 458 463 277 152 661 152 638 0 1036-506 399-506 399-1331T3314 415Q2916-91 2278-91q-384 0-661 152-276 152-458 464V0H581v4863h578z" transform="scale(.01563)"/><path id="w" d="M513 4856h500q468-737 701-1444 233-706 233-1403 0-700-233-1409T1013-844H513q415 716 620 1424t205 1429q0 722-205 1425-205 704-620 1422" transform="scale(.01563)"/></defs><use xlink:href="#h"/><use xlink:href="#i" transform="translate(68.6)"/><use xlink:href="#j" transform="translate(96.4)"/><use xlink:href="#k" transform="translate(135.6)"/><use xlink:href="#l" transform="translate(219.5)"/><use xlink:href="#m" transform="translate(283)"/><use xlink:href="#n" transform="translate(344.5)"/><use xlink:href="#o" transform="translate(417.4)"/><use xlink:href="#i" transform="translate(475.4)"/><use xlink:href="#p" transform="translate(503.2)"/><use xlink:href="#m" transform="translate(559.3)"/><use xlink:href="#q" transform="translate(620.8)"/><use xlink:href="#r" transform="translate(680.4)"/><use xlink:href="#h" transform="translate(719.4)"/><use xlink:href="#o" transform="translate(788)"/><use xlink:href="#o" transform="translate(848.3)"/><use xlink:href="#s" transform="translate(908.6)"/><use xlink:href="#q" transform="translate(972.2)"/><use xlink:href="#t" transform="translate(1000)"/><use xlink:href="#u" transform="translate(1061.1)"/><use xlink:href="#m" transform="translate(1143)"/><use xlink:href="#n" transform="translate(1204.4)"/><use xlink:href="#i" transform="translate(1277.3)"/><use xlink:href="#k" transform="translate(1305.1)"/><use xlink:href="#v" transform="translate(1389)"/><use xlink:href="#m" transform="translate(1452.5)"/><use xlink:href="#j" transform="translate(1514)"/><use xlink:href="#j" transform="translate(1553.2)"/><use xlink:href="#m" transform="translate(1592.4)"/><use xlink:href="#n" transform="translate(1654)"/><use xlink:href="#w" transform="translate(1695)"/></g><path d="M45.3 332.6h663.9" clip-path="url(#a)" style="fill:none;stroke:#b0b0b0;stroke-opacity:.3;stroke-width:.8;stroke-linecap:square"/><defs><path id="x" d="M0 0h-3.5" style="stroke:#000;stroke-width:.8"/></defs><use xlink:href="#x" x="45.3" y="332.6" style="stroke:#000;stroke-width:.8"/><g transform="matrix(.1 0 0 -.1 25.6 336.4)"><defs><path id="y" d="M2419 4116 825 1625h1594zm-166 550h794V1625h666v-525h-666V0h-628v1100H313v609z" transform="scale(.01563)"/></defs><use xlink:href="#y"/><use xlink:href="#e" transform="translate(63.6)"/></g><path d="M45.3 265.5h663.9" clip-path="url(#a)" style="fill:none;stroke:#b0b0b0;stroke-opacity:.3;stroke-width:.8;stroke-linecap:square"/><use xlink:href="#x" x="45.3" y="265.5" style="stroke:#000;stroke-width:.8"/><g transform="matrix(.1 0 0 -.1 25.6 269.3)"><use xlink:href="#f"/><use xlink:href="#e" transform="translate(63.6)"/></g><path d="M45.3 198.4h663.9" clip-path="url(#a)" style="fill:none;stroke:#b0b0b0;stroke-opacity:.3;stroke-width:.8;stroke-linecap:square"/><use xlink:href="#x" x="45.3" y="198.4" style="stroke:#000;stroke-width:.8"/><g transform="matrix(.1 0 0 -.1 25.6 202.2)"><defs><path id="z" d="M2113 2584q-425 0-674-291-248-290-248-796 0-503 248-796 249-292 674-292t673 292q248 293 248 796 0 506-248 796-248 291-673 291m1253 1979v-575q-238 112-480 171-242 60-480 60-625 0-955-422-329-422-376-1275 184 272 462 417 279 145 613 145 703 0 1111-427 408-426 408-1160 0-719-425-1154Q2819-91 2113-91q-810 0-1238 620-428 621-428 1799 0 1106 525 1764t1409 658q238 0 480-47t505-140" transform="scale(.01563)"/></defs><use xlink:href="#z"/><use xlink:href="#e" transform="translate(63.6)"/></g><path d="M45.3 131.3h663.9" clip-path="url(#a)" style="fill:none;stroke:#b0b0b0;stroke-opacity:.3;stroke-width:.8;stroke-linecap:square"/><use xlink:href="#x" x="45.3" y="131.3" style="stroke:#000;stroke-width:.8"/><g transform="matrix(.1 0 0 -.1 25.6 135)"><defs><path id="A" d="M525 4666h3000v-269L1831 0h-659l1594 4134H525z" transform="scale(.01563)"/></defs><use xlink:href="#A"/><use xlink:href="#e" transform="translate(63.6)"/></g><path d="M45.3 64.1h663.9" clip-path="url(#a)" style="fill:none;stroke:#b0b0b0;stroke-opacity:.3;stroke-width:.8;stroke-linecap:square"/><use xlink:href="#x" x="45.3" y="64.1" style="stroke:#000;stroke-width:.8"/><g transform="matrix(.1 0 0 -.1 25.6 68)"><defs><path id="B" d="M2034 2216q-450 0-708-241-257-241-257-662 0-422 257-663 258-241 708-241t709 242q260 243 260 662 0 421-258 662-257 241-711 241m-631 268q-406 100-633 378-226 279-226 679 0 559 398 884 399 325 1092 325 697 0 1094-325t397-884q0-400-227-679-226-278-629-378 456-106 710-416 255-309 255-755 0-679-414-1042Q2806-91 2034-91q-771 0-1186 362-414 363-414 1042 0 446 256 755 257 310 713 416m-231 997q0-362 226-565 227-203 636-203 407 0 636 203 230 203 230 565 0 363-230 566-229 203-636 203-409 0-636-203-226-203-226-566" transform="scale(.01563)"/></defs><use xlink:href="#B"/><use xlink:href="#e" transform="translate(63.6)"/></g><g transform="matrix(0 -.11 -.11 0 19.3 295.4)"><defs><path id="C" d="M3425 4513v-616q-359 172-678 256-319 85-616 85-515 0-795-200t-280-569q0-310 186-468 186-157 705-254l381-78q706-135 1042-474t336-907q0-679-455-1029Q2797-91 1919-91q-331 0-705 75-373 75-773 222v650q384-215 753-325 369-109 725-109 540 0 834 212 294 213 294 607 0 343-211 537t-692 291l-385 75q-706 140-1022 440-315 300-315 835 0 619 436 975t1201 356q329 0 669-60 341-59 697-177" transform="scale(.01563)"/><path id="D" d="M628 4666h631V0H628z" transform="scale(.01563)"/><path id="E" d="M628 4666h941l1190-3175 1197 3175h941V0h-616v4097L3078 897h-634L1241 4097V0H628z" transform="scale(.01563)"/><path id="F" d="M556 4666h635V1831q0-750 271-1080 272-329 882-329 606 0 878 329 272 330 272 1080v2835h634V1753q0-912-452-1378Q3225-91 2344-91q-885 0-1337 466-451 466-451 1378z" transform="scale(.01563)"/><path id="G" d="M628 4666h631V531h2272V0H628z" transform="scale(.01563)"/><path id="H" d="m2188 4044-857-2322h1716zm-357 622h716L4325 0h-656l-425 1197H1141L716 0H50z" transform="scale(.01563)"/><path id="I" d="M4122 4306v-665q-319 297-680 443-361 147-767 147-800 0-1225-489t-425-1414q0-922 425-1411t1225-489q406 0 767 147t680 444V359q-331-225-702-338-370-112-782-112-1060 0-1670 648-609 649-609 1771 0 1125 609 1773 610 649 1670 649 418 0 788-111 371-111 696-333" transform="scale(.01563)"/><path id="J" d="M2841 2188q203-69 395-294t386-619L4263 0h-679l-596 1197q-232 469-449 622t-592 153h-688V0H628v4666h1425q800 0 1194-335 394-334 394-1009 0-441-205-732-205-290-595-402M1259 4147V2491h794q456 0 689 211t233 620-233 617-689 208z" transform="scale(.01563)"/><path id="K" d="M3513 2113V0h-575v2094q0 497-194 743-194 247-581 247-466 0-735-297-269-296-269-809V0H581v4863h578V2956q207 316 486 472 280 156 646 156 603 0 912-373 310-373 310-1098" transform="scale(.01563)"/><path id="L" d="M2906 1791q0 625-258 968-257 344-723 344-462 0-720-344-258-343-258-968 0-622 258-966t720-344q466 0 723 344 258 344 258 966m575-1357q0-893-397-1329-396-436-1215-436-303 0-572 45t-522 139v559q253-137 500-202 247-66 503-66 566 0 847 295t281 892v285q-178-310-456-463T1784 0Q1141 0 747 490 353 981 353 1791q0 812 394 1302 394 491 1037 491 388 0 666-153t456-462v531h575z" transform="scale(.01563)"/></defs><use xlink:href="#C"/><use xlink:href="#C" transform="translate(63.5)"/><use xlink:href="#D" transform="translate(127)"/><use xlink:href="#E" transform="translate(156.4)"/><use xlink:href="#F" transform="translate(242.7)"/><use xlink:href="#G" transform="translate(316)"/><use xlink:href="#H" transform="translate(373.9)"/><use xlink:href="#I" transform="translate(440.5)"/><use xlink:href="#J" transform="translate(510.4)"/><use xlink:href="#H" transform="translate(575.8)"/><use xlink:href="#g" transform="translate(644.3)"/><use xlink:href="#r" transform="translate(739.7)"/><use xlink:href="#K" transform="translate(778.7)"/><use xlink:href="#i" transform="translate(842)"/><use xlink:href="#L" transform="translate(869.8)"/><use xlink:href="#K" transform="translate(933.3)"/><use xlink:href="#m" transform="translate(996.7)"/><use xlink:href="#n" transform="translate(1058.2)"/><use xlink:href="#i" transform="translate(1131.1)"/><use xlink:href="#k" transform="translate(1158.9)"/><use xlink:href="#v" transform="translate(1242.8)"/><use xlink:href="#m" transform="translate(1306.3)"/><use xlink:href="#j" transform="translate(1367.8)"/><use xlink:href="#j" transform="translate(1407)"/><use xlink:href="#m" transform="translate(1446.2)"/><use xlink:href="#n" transform="translate(1507.7)"/><use xlink:href="#w" transform="translate(1548.8)"/></g><path d="m132.3 261.5-28.4-.8-9.6.8-7.4 1-11.4.4" clip-path="url(#a)" style="fill:none;stroke:#1f77b4;stroke-width:1.5;stroke-linecap:square"/><defs><path id="M" d="M0 3.5a3.5 3.5 0 1 0 0-7 3.5 3.5 0 0 0 0 7z" style="stroke:#1f77b4"/></defs><g clip-path="url(#a)"><use xlink:href="#M" x="132.3" y="261.5" style="fill:#1f77b4;stroke:#1f77b4"/><use xlink:href="#M" x="103.9" y="260.7" style="fill:#1f77b4;stroke:#1f77b4"/><use xlink:href="#M" x="94.3" y="261.5" style="fill:#1f77b4;stroke:#1f77b4"/><use xlink:href="#M" x="86.9" y="262.6" style="fill:#1f77b4;stroke:#1f77b4"/><use xlink:href="#M" x="75.5" y="262.9" style="fill:#1f77b4;stroke:#1f77b4"/></g><path d="M132.3 372.8 104 359.1l-9.6-3.8-7.4.8H75.5" clip-path="url(#a)" style="fill:none;stroke-dasharray:5.55,2.4;stroke-dashoffset:0;stroke:#1f77b4;stroke-width:1.5"/><defs><path id="N" d="M0 3.5a3.5 3.5 0 1 0 0-7 3.5 3.5 0 0 0 0 7z" style="stroke:#1f77b4"/></defs><g clip-path="url(#a)"><use xlink:href="#N" x="132.3" y="372.8" style="fill-opacity:0;stroke:#1f77b4"/><use xlink:href="#N" x="103.9" y="359.1" style="fill-opacity:0;stroke:#1f77b4"/><use xlink:href="#N" x="94.3" y="355.3" style="fill-opacity:0;stroke:#1f77b4"/><use xlink:href="#N" x="86.9" y="356.1" style="fill-opacity:0;stroke:#1f77b4"/><use xlink:href="#N" x="75.5" y="356.1" style="fill-opacity:0;stroke:#1f77b4"/></g><path d="m174.2 213-33.2-.4-11.5.5-9.2 1-13.9.5" clip-path="url(#a)" style="fill:none;stroke:#ff7f0e;stroke-width:1.5;stroke-linecap:square"/><defs><path id="O" d="M-3.5 3.5h7v-7h-7z" style="stroke:#ff7f0e;stroke-linejoin:miter"/></defs><g clip-path="url(#a)"><use xlink:href="#O" x="174.2" y="213" style="fill:#ff7f0e;stroke:#ff7f0e;stroke-linejoin:miter"/><use xlink:href="#O" x="141" y="212.6" style="fill:#ff7f0e;stroke:#ff7f0e;stroke-linejoin:miter"/><use xlink:href="#O" x="129.5" y="213.1" style="fill:#ff7f0e;stroke:#ff7f0e;stroke-linejoin:miter"/><use xlink:href="#O" x="120.3" y="214.1" style="fill:#ff7f0e;stroke:#ff7f0e;stroke-linejoin:miter"/><use xlink:href="#O" x="106.4" y="214.6" style="fill:#ff7f0e;stroke:#ff7f0e;stroke-linejoin:miter"/></g><path d="m174.2 308.5-33.2 8.2-11.5-6.7-9.2.4-13.9-.2" clip-path="url(#a)" style="fill:none;stroke-dasharray:5.55,2.4;stroke-dashoffset:0;stroke:#ff7f0e;stroke-width:1.5"/><defs><path id="P" d="M-3.5 3.5h7v-7h-7z" style="stroke:#ff7f0e;stroke-linejoin:miter"/></defs><g clip-path="url(#a)"><use xlink:href="#P" x="174.2" y="308.5" style="fill-opacity:0;stroke:#ff7f0e;stroke-linejoin:miter"/><use xlink:href="#P" x="141" y="316.7" style="fill-opacity:0;stroke:#ff7f0e;stroke-linejoin:miter"/><use xlink:href="#P" x="129.5" y="310" style="fill-opacity:0;stroke:#ff7f0e;stroke-linejoin:miter"/><use xlink:href="#P" x="120.3" y="310.4" style="fill-opacity:0;stroke:#ff7f0e;stroke-linejoin:miter"/><use xlink:href="#P" x="106.4" y="310.2" style="fill-opacity:0;stroke:#ff7f0e;stroke-linejoin:miter"/></g><path d="m214 180.9-37.5-.7-13.3-.3-10.6 1.4h-16.1" clip-path="url(#a)" style="fill:none;stroke:#2ca02c;stroke-width:1.5;stroke-linecap:square"/><defs><path id="Q" d="m0-3.5-3.5 7h7z" style="stroke:#2ca02c;stroke-linejoin:miter"/></defs><g clip-path="url(#a)"><use xlink:href="#Q" x="214.1" y="180.9" style="fill:#2ca02c;stroke:#2ca02c;stroke-linejoin:miter"/><use xlink:href="#Q" x="176.5" y="180.2" style="fill:#2ca02c;stroke:#2ca02c;stroke-linejoin:miter"/><use xlink:href="#Q" x="163.2" y="179.9" style="fill:#2ca02c;stroke:#2ca02c;stroke-linejoin:miter"/><use xlink:href="#Q" x="152.6" y="181.3" style="fill:#2ca02c;stroke:#2ca02c;stroke-linejoin:miter"/><use xlink:href="#Q" x="136.5" y="181.3" style="fill:#2ca02c;stroke:#2ca02c;stroke-linejoin:miter"/></g><path d="m214 277.8-37.5 5-13.3-12.5-10.6 4.8-16.1-.2" clip-path="url(#a)" style="fill:none;stroke-dasharray:5.55,2.4;stroke-dashoffset:0;stroke:#2ca02c;stroke-width:1.5"/><defs><path id="R" d="m0-3.5-3.5 7h7z" style="stroke:#2ca02c;stroke-linejoin:miter"/></defs><g clip-path="url(#a)"><use xlink:href="#R" x="214.1" y="277.8" style="fill-opacity:0;stroke:#2ca02c;stroke-linejoin:miter"/><use xlink:href="#R" x="176.5" y="282.8" style="fill-opacity:0;stroke:#2ca02c;stroke-linejoin:miter"/><use xlink:href="#R" x="163.2" y="270.3" style="fill-opacity:0;stroke:#2ca02c;stroke-linejoin:miter"/><use xlink:href="#R" x="152.6" y="275.1" style="fill-opacity:0;stroke:#2ca02c;stroke-linejoin:miter"/><use xlink:href="#R" x="136.5" y="274.9" style="fill-opacity:0;stroke:#2ca02c;stroke-linejoin:miter"/></g><path d="m257.6 156-42.3.6-15.2-.6-12.2 1-18.6.6" clip-path="url(#a)" style="fill:none;stroke:#d62728;stroke-width:1.5;stroke-linecap:square"/><defs><path id="S" d="m0 5 5-5-5-5-5 5z" style="stroke:#d62728;stroke-linejoin:miter"/></defs><g clip-path="url(#a)"><use xlink:href="#S" x="257.6" y="156" style="fill:#d62728;stroke:#d62728;stroke-linejoin:miter"/><use xlink:href="#S" x="215.3" y="156.6" style="fill:#d62728;stroke:#d62728;stroke-linejoin:miter"/><use xlink:href="#S" x="200.1" y="156" style="fill:#d62728;stroke:#d62728;stroke-linejoin:miter"/><use xlink:href="#S" x="187.9" y="157" style="fill:#d62728;stroke:#d62728;stroke-linejoin:miter"/><use xlink:href="#S" x="169.3" y="157.6" style="fill:#d62728;stroke:#d62728;stroke-linejoin:miter"/></g><path d="m257.6 248.5-42.3 3.8-15.2-15.3-12.2 12.2h-18.6" clip-path="url(#a)" style="fill:none;stroke-dasharray:5.55,2.4;stroke-dashoffset:0;stroke:#d62728;stroke-width:1.5"/><defs><path id="T" d="m0 5 5-5-5-5-5 5z" style="stroke:#d62728;stroke-linejoin:miter"/></defs><g clip-path="url(#a)"><use xlink:href="#T" x="257.6" y="248.5" style="fill-opacity:0;stroke:#d62728;stroke-linejoin:miter"/><use xlink:href="#T" x="215.3" y="252.3" style="fill-opacity:0;stroke:#d62728;stroke-linejoin:miter"/><use xlink:href="#T" x="200.1" y="237" style="fill-opacity:0;stroke:#d62728;stroke-linejoin:miter"/><use xlink:href="#T" x="187.9" y="249.2" style="fill-opacity:0;stroke:#d62728;stroke-linejoin:miter"/><use xlink:href="#T" x="169.3" y="249.1" style="fill-opacity:0;stroke:#d62728;stroke-linejoin:miter"/></g><path d="m324 125.6-49 .2-18-.8-14.7.8-22 .8" clip-path="url(#a)" style="fill:none;stroke:#9467bd;stroke-width:1.5;stroke-linecap:square"/><defs><path id="U" d="m0 3.5 3.5-7h-7z" style="stroke:#9467bd;stroke-linejoin:miter"/></defs><g clip-path="url(#a)"><use xlink:href="#U" x="324" y="125.6" style="fill:#9467bd;stroke:#9467bd;stroke-linejoin:miter"/><use xlink:href="#U" x="275.1" y="125.8" style="fill:#9467bd;stroke:#9467bd;stroke-linejoin:miter"/><use xlink:href="#U" x="257" y="125" style="fill:#9467bd;stroke:#9467bd;stroke-linejoin:miter"/><use xlink:href="#U" x="242.3" y="125.8" style="fill:#9467bd;stroke:#9467bd;stroke-linejoin:miter"/><use xlink:href="#U" x="220.4" y="126.6" style="fill:#9467bd;stroke:#9467bd;stroke-linejoin:miter"/></g><path d="m324 214.1-49 4.2-18-18.3-14.7 15.3-22-2" clip-path="url(#a)" style="fill:none;stroke-dasharray:5.55,2.4;stroke-dashoffset:0;stroke:#9467bd;stroke-width:1.5"/><defs><path id="V" d="m0 3.5 3.5-7h-7z" style="stroke:#9467bd;stroke-linejoin:miter"/></defs><g clip-path="url(#a)"><use xlink:href="#V" x="324" y="214.1" style="fill-opacity:0;stroke:#9467bd;stroke-linejoin:miter"/><use xlink:href="#V" x="275.1" y="218.3" style="fill-opacity:0;stroke:#9467bd;stroke-linejoin:miter"/><use xlink:href="#V" x="257" y="200" style="fill-opacity:0;stroke:#9467bd;stroke-linejoin:miter"/><use xlink:href="#V" x="242.3" y="215.3" style="fill-opacity:0;stroke:#9467bd;stroke-linejoin:miter"/><use xlink:href="#V" x="220.4" y="213.3" style="fill-opacity:0;stroke:#9467bd;stroke-linejoin:miter"/></g><path d="m431.7 89.9-59.5.5-22.8-.6-18.4.6-27.3 1" clip-path="url(#a)" style="fill:none;stroke:#8c564b;stroke-width:1.5;stroke-linecap:square"/><defs><path id="W" d="m-3.5 0 7 3.5v-7z" style="stroke:#8c564b;stroke-linejoin:miter"/></defs><g clip-path="url(#a)"><use xlink:href="#W" x="431.7" y="89.9" style="fill:#8c564b;stroke:#8c564b;stroke-linejoin:miter"/><use xlink:href="#W" x="372.2" y="90.4" style="fill:#8c564b;stroke:#8c564b;stroke-linejoin:miter"/><use xlink:href="#W" x="349.4" y="89.8" style="fill:#8c564b;stroke:#8c564b;stroke-linejoin:miter"/><use xlink:href="#W" x="331" y="90.4" style="fill:#8c564b;stroke:#8c564b;stroke-linejoin:miter"/><use xlink:href="#W" x="303.7" y="91.4" style="fill:#8c564b;stroke:#8c564b;stroke-linejoin:miter"/></g><path d="m431.7 162-59.5 3.6-22.8-7.2-18.4 5.4-27.3 2.7" clip-path="url(#a)" style="fill:none;stroke-dasharray:5.55,2.4;stroke-dashoffset:0;stroke:#8c564b;stroke-width:1.5"/><defs><path id="X" d="m-3.5 0 7 3.5v-7z" style="stroke:#8c564b;stroke-linejoin:miter"/></defs><g clip-path="url(#a)"><use xlink:href="#X" x="431.7" y="162" style="fill-opacity:0;stroke:#8c564b;stroke-linejoin:miter"/><use xlink:href="#X" x="372.2" y="165.6" style="fill-opacity:0;stroke:#8c564b;stroke-linejoin:miter"/><use xlink:href="#X" x="349.4" y="158.4" style="fill-opacity:0;stroke:#8c564b;stroke-linejoin:miter"/><use xlink:href="#X" x="331" y="163.8" style="fill-opacity:0;stroke:#8c564b;stroke-linejoin:miter"/><use xlink:href="#X" x="303.7" y="166.5" style="fill-opacity:0;stroke:#8c564b;stroke-linejoin:miter"/></g><path d="m679 43.7-81.8.3-32.7-.6-25.8.9-38 .2" clip-path="url(#a)" style="fill:none;stroke:#e377c2;stroke-width:1.5;stroke-linecap:square"/><defs><path id="Y" d="m3.5 0-7-3.5v7z" style="stroke:#e377c2;stroke-linejoin:miter"/></defs><g clip-path="url(#a)"><use xlink:href="#Y" x="679" y="43.7" style="fill:#e377c2;stroke:#e377c2;stroke-linejoin:miter"/><use xlink:href="#Y" x="597.2" y="44" style="fill:#e377c2;stroke:#e377c2;stroke-linejoin:miter"/><use xlink:href="#Y" x="564.5" y="43.4" style="fill:#e377c2;stroke:#e377c2;stroke-linejoin:miter"/><use xlink:href="#Y" x="538.7" y="44.3" style="fill:#e377c2;stroke:#e377c2;stroke-linejoin:miter"/><use xlink:href="#Y" x="500.7" y="44.5" style="fill:#e377c2;stroke:#e377c2;stroke-linejoin:miter"/></g><path d="m679 92.4-81.8.3-32.7-6-25.8 4-38 1" clip-path="url(#a)" style="fill:none;stroke-dasharray:5.55,2.4;stroke-dashoffset:0;stroke:#e377c2;stroke-width:1.5"/><defs><path id="Z" d="m3.5 0-7-3.5v7z" style="stroke:#e377c2;stroke-linejoin:miter"/></defs><g clip-path="url(#a)"><use xlink:href="#Z" x="679" y="92.4" style="fill-opacity:0;stroke:#e377c2;stroke-linejoin:miter"/><use xlink:href="#Z" x="597.2" y="92.7" style="fill-opacity:0;stroke:#e377c2;stroke-linejoin:miter"/><use xlink:href="#Z" x="564.5" y="86.7" style="fill-opacity:0;stroke:#e377c2;stroke-linejoin:miter"/><use xlink:href="#Z" x="538.7" y="90.6" style="fill-opacity:0;stroke:#e377c2;stroke-linejoin:miter"/><use xlink:href="#Z" x="500.7" y="91.7" style="fill-opacity:0;stroke:#e377c2;stroke-linejoin:miter"/></g><path d="M45.3 389.3V27m663.9 362.3V27M45.3 389.3h663.9M45.3 26.9h663.9" style="fill:none;stroke:#000;stroke-width:.8;stroke-linejoin:miter;stroke-linecap:square"/><g transform="matrix(.12 0 0 -.12 285.4 20.9)"><defs><path id="aa" d="M191 3500h609L1894 563l1094 2937h609L2284 0h-781z" transform="scale(.01563)"/></defs><use xlink:href="#C"/><use xlink:href="#C" transform="translate(63.5)"/><use xlink:href="#D" transform="translate(127)"/><use xlink:href="#E" transform="translate(156.4)"/><use xlink:href="#F" transform="translate(242.7)"/><use xlink:href="#G" transform="translate(316)"/><use xlink:href="#H" transform="translate(373.9)"/><use xlink:href="#I" transform="translate(440.5)"/><use xlink:href="#J" transform="translate(510.4)"/><use xlink:href="#H" transform="translate(575.8)"/><use xlink:href="#g" transform="translate(644.3)"/><use xlink:href="#aa" transform="translate(739.7)"/><use xlink:href="#k" transform="translate(798.8)"/><use xlink:href="#h" transform="translate(882.7)"/><use xlink:href="#i" transform="translate(951.3)"/><use xlink:href="#j" transform="translate(979.1)"/><use xlink:href="#k" transform="translate(1018.3)"/><use xlink:href="#l" transform="translate(1102.2)"/><use xlink:href="#m" transform="translate(1165.7)"/><use xlink:href="#n" transform="translate(1227.2)"/><use xlink:href="#o" transform="translate(1300.1)"/><use xlink:href="#i" transform="translate(1358.2)"/><use xlink:href="#p" transform="translate(1386)"/><use xlink:href="#m" transform="translate(1442)"/><use xlink:href="#q" transform="translate(1503.5)"/></g><path d="M50.9 115.5h176.4q1.6 0 1.6-1.6V32.5q0-1.6-1.6-1.6H51q-1.6 0-1.6 1.6v81.4q0 1.6 1.6 1.6z" style="fill:#fff;opacity:.8;stroke:#ccc;stroke-linejoin:miter"/><path d="M52.5 37.4h16" style="fill:none;stroke:#1f77b4;stroke-width:1.5;stroke-linecap:square"/><use xlink:href="#M" x="60.5" y="37.4" style="fill:#1f77b4;stroke:#1f77b4"/><g transform="matrix(.08 0 0 -.08 74.9 40.2)"><defs><path id="ab" d="M2597 2516q453-97 707-404 255-306 255-756 0-690-475-1069Q2609-91 1734-91q-293 0-604 58T488 141v609q262-153 574-231 313-78 654-78 593 0 904 234t311 681q0 413-289 645-289 233-804 233h-544v519h569q465 0 712 186t247 536q0 359-255 551-254 193-729 193-260 0-557-57-297-56-653-174v562q360 100 674 150t592 50q719 0 1137-327 419-326 419-882 0-388-222-655t-631-370" transform="scale(.01563)"/><path id="ac" d="M3328 2828q216 388 516 572t706 184q547 0 844-383 297-382 297-1088V0h-578v2094q0 503-179 746-178 244-543 244-447 0-707-297-259-296-259-809V0h-578v2094q0 506-178 748t-550 242q-441 0-701-298-259-298-259-808V0H581v3500h578v-544q197 322 472 475t653 153q382 0 649-194 267-193 395-562" transform="scale(.01563)"/><path id="ad" d="M2194 1759q-697 0-966-159t-269-544q0-306 202-486 202-179 548-179 479 0 768 339t289 901v128zm1147 238V0h-575v531q-197-318-491-470T1556-91q-537 0-855 302-317 302-317 808 0 590 395 890 396 300 1180 300h807v57q0 397-261 614t-733 217q-300 0-585-72-284-72-546-216v532q315 122 612 182 297 61 578 61 760 0 1135-394 375-393 375-1193" transform="scale(.01563)"/><path id="ae" d="M3513 2113V0h-575v2094q0 497-194 743-194 247-581 247-466 0-735-297-269-296-269-809V0H581v3500h578v-544q207 316 486 472 280 156 646 156 603 0 912-373 310-373 310-1098" transform="scale(.01563)"/></defs><use xlink:href="#ab"/><use xlink:href="#e" transform="translate(63.6)"/><use xlink:href="#r" transform="translate(159)"/><use xlink:href="#ac" transform="translate(198)"/><use xlink:href="#m" transform="translate(295.5)"/><use xlink:href="#ad" transform="translate(357)"/><use xlink:href="#ae" transform="translate(418.3)"/><use xlink:href="#w" transform="translate(481.6)"/></g><path d="M52.5 49.1h16" style="fill:none;stroke-dasharray:5.55,2.4;stroke-dashoffset:0;stroke:#1f77b4;stroke-width:1.5"/><use xlink:href="#N" x="60.5" y="49.1" style="fill-opacity:0;stroke:#1f77b4"/><g transform="matrix(.08 0 0 -.08 74.9 51.9)"><defs><path id="af" d="M4653 2053q-272 0-427-231-154-231-154-644 0-406 154-639 155-233 427-233 266 0 420 233 155 233 155 639 0 410-155 642-154 233-420 233m0 397q494 0 784-344 291-343 291-928 0-584-292-927-292-342-783-342-500 0-791 342-290 343-290 927 0 588 292 930t789 342M1428 4353q-269 0-424-233-154-232-154-639 0-412 153-644 153-231 425-231t426 231q155 232 155 644 0 403-156 637-156 235-425 235m2822 397h500L1831-91h-500zm-2822 0q494 0 787-342 294-342 294-927 0-590-292-931t-789-341-786 342q-289 343-289 930 0 582 290 925 291 344 785 344" transform="scale(.01563)"/></defs><use xlink:href="#ab"/><use xlink:href="#e" transform="translate(63.6)"/><use xlink:href="#r" transform="translate(159)"/><use xlink:href="#f" transform="translate(198)"/><use xlink:href="#af" transform="translate(261.7)"/><use xlink:href="#u" transform="translate(388.5)"/><use xlink:href="#t" transform="translate(470.3)"/><use xlink:href="#n" transform="translate(531.4)"/><use xlink:href="#k" transform="translate(572.6)"/><use xlink:href="#j" transform="translate(624.7)"/><use xlink:href="#w" transform="translate(663.9)"/></g><path d="M52.5 60.8h16" style="fill:none;stroke:#ff7f0e;stroke-width:1.5;stroke-linecap:square"/><use xlink:href="#O" x="60.5" y="60.8" style="fill:#ff7f0e;stroke:#ff7f0e;stroke-linejoin:miter"/><g transform="matrix(.08 0 0 -.08 74.9 63.6)"><use xlink:href="#y"/><use xlink:href="#e" transform="translate(63.6)"/><use xlink:href="#r" transform="translate(159)"/><use xlink:href="#ac" transform="translate(198)"/><use xlink:href="#m" transform="translate(295.5)"/><use xlink:href="#ad" transform="translate(357)"/><use xlink:href="#ae" transform="translate(418.3)"/><use xlink:href="#w" transform="translate(481.6)"/></g><path d="M52.5 72.6h16" style="fill:none;stroke-dasharray:5.55,2.4;stroke-dashoffset:0;stroke:#ff7f0e;stroke-width:1.5"/><use xlink:href="#P" x="60.5" y="72.6" style="fill-opacity:0;stroke:#ff7f0e;stroke-linejoin:miter"/><g transform="matrix(.08 0 0 -.08 74.9 75.4)"><use xlink:href="#y"/><use xlink:href="#e" transform="translate(63.6)"/><use xlink:href="#r" transform="translate(159)"/><use xlink:href="#f" transform="translate(198)"/><use xlink:href="#af" transform="translate(261.7)"/><use xlink:href="#u" transform="translate(388.5)"/><use xlink:href="#t" transform="translate(470.3)"/><use xlink:href="#n" transform="translate(531.4)"/><use xlink:href="#k" transform="translate(572.6)"/><use xlink:href="#j" transform="translate(624.7)"/><use xlink:href="#w" transform="translate(663.9)"/></g><path d="M52.5 84.3h16" style="fill:none;stroke:#2ca02c;stroke-width:1.5;stroke-linecap:square"/><use xlink:href="#Q" x="60.5" y="84.3" style="fill:#2ca02c;stroke:#2ca02c;stroke-linejoin:miter"/><g transform="matrix(.08 0 0 -.08 74.9 87.1)"><use xlink:href="#f"/><use xlink:href="#e" transform="translate(63.6)"/><use xlink:href="#r" transform="translate(159)"/><use xlink:href="#ac" transform="translate(198)"/><use xlink:href="#m" transform="translate(295.5)"/><use xlink:href="#ad" transform="translate(357)"/><use xlink:href="#ae" transform="translate(418.3)"/><use xlink:href="#w" transform="translate(481.6)"/></g><path d="M52.5 96h16" style="fill:none;stroke-dasharray:5.55,2.4;stroke-dashoffset:0;stroke:#2ca02c;stroke-width:1.5"/><use xlink:href="#R" x="60.5" y="96.1" style="fill-opacity:0;stroke:#2ca02c;stroke-linejoin:miter"/><g transform="matrix(.08 0 0 -.08 74.9 98.9)"><use xlink:href="#f"/><use xlink:href="#e" transform="translate(63.6)"/><use xlink:href="#r" transform="translate(159)"/><use xlink:href="#f" transform="translate(198)"/><use xlink:href="#af" transform="translate(261.7)"/><use xlink:href="#u" transform="translate(388.5)"/><use xlink:href="#t" transform="translate(470.3)"/><use xlink:href="#n" transform="translate(531.4)"/><use xlink:href="#k" transform="translate(572.6)"/><use xlink:href="#j" transform="translate(624.7)"/><use xlink:href="#w" transform="translate(663.9)"/></g><path d="M52.5 107.8h16" style="fill:none;stroke:#d62728;stroke-width:1.5;stroke-linecap:square"/><use xlink:href="#S" x="60.5" y="107.8" style="fill:#d62728;stroke:#d62728;stroke-linejoin:miter"/><g transform="matrix(.08 0 0 -.08 74.9 110.6)"><use xlink:href="#z"/><use xlink:href="#e" transform="translate(63.6)"/><use xlink:href="#r" transform="translate(159)"/><use xlink:href="#ac" transform="translate(198)"/><use xlink:href="#m" transform="translate(295.5)"/><use xlink:href="#ad" transform="translate(357)"/><use xlink:href="#ae" transform="translate(418.3)"/><use xlink:href="#w" transform="translate(481.6)"/></g><path d="M147.1 37.4h16" style="fill:none;stroke-dasharray:5.55,2.4;stroke-dashoffset:0;stroke:#d62728;stroke-width:1.5"/><use xlink:href="#T" x="155.1" y="37.4" style="fill-opacity:0;stroke:#d62728;stroke-linejoin:miter"/><g transform="matrix(.08 0 0 -.08 169.5 40.2)"><use xlink:href="#z"/><use xlink:href="#e" transform="translate(63.6)"/><use xlink:href="#r" transform="translate(159)"/><use xlink:href="#f" transform="translate(198)"/><use xlink:href="#af" transform="translate(261.7)"/><use xlink:href="#u" transform="translate(388.5)"/><use xlink:href="#t" transform="translate(470.3)"/><use xlink:href="#n" transform="translate(531.4)"/><use xlink:href="#k" transform="translate(572.6)"/><use xlink:href="#j" transform="translate(624.7)"/><use xlink:href="#w" transform="translate(663.9)"/></g><path d="M147.1 49.1h16" style="fill:none;stroke:#9467bd;stroke-width:1.5;stroke-linecap:square"/><use xlink:href="#U" x="155.1" y="49.1" style="fill:#9467bd;stroke:#9467bd;stroke-linejoin:miter"/><g transform="matrix(.08 0 0 -.08 169.5 51.9)"><use xlink:href="#A"/><use xlink:href="#e" transform="translate(63.6)"/><use xlink:href="#r" transform="translate(159)"/><use xlink:href="#ac" transform="translate(198)"/><use xlink:href="#m" transform="translate(295.5)"/><use xlink:href="#ad" transform="translate(357)"/><use xlink:href="#ae" transform="translate(418.3)"/><use xlink:href="#w" transform="translate(481.6)"/></g><path d="M147.1 60.8h16" style="fill:none;stroke-dasharray:5.55,2.4;stroke-dashoffset:0;stroke:#9467bd;stroke-width:1.5"/><use xlink:href="#V" x="155.1" y="60.8" style="fill-opacity:0;stroke:#9467bd;stroke-linejoin:miter"/><g transform="matrix(.08 0 0 -.08 169.5 63.6)"><use xlink:href="#A"/><use xlink:href="#e" transform="translate(63.6)"/><use xlink:href="#r" transform="translate(159)"/><use xlink:href="#f" transform="translate(198)"/><use xlink:href="#af" transform="translate(261.7)"/><use xlink:href="#u" transform="translate(388.5)"/><use xlink:href="#t" transform="translate(470.3)"/><use xlink:href="#n" transform="translate(531.4)"/><use xlink:href="#k" transform="translate(572.6)"/><use xlink:href="#j" transform="translate(624.7)"/><use xlink:href="#w" transform="translate(663.9)"/></g><path d="M147.1 72.6h16" style="fill:none;stroke:#8c564b;stroke-width:1.5;stroke-linecap:square"/><use xlink:href="#W" x="155.1" y="72.6" style="fill:#8c564b;stroke:#8c564b;stroke-linejoin:miter"/><g transform="matrix(.08 0 0 -.08 169.5 75.4)"><use xlink:href="#B"/><use xlink:href="#e" transform="translate(63.6)"/><use xlink:href="#r" transform="translate(159)"/><use xlink:href="#ac" transform="translate(198)"/><use xlink:href="#m" transform="translate(295.5)"/><use xlink:href="#ad" transform="translate(357)"/><use xlink:href="#ae" transform="translate(418.3)"/><use xlink:href="#w" transform="translate(481.6)"/></g><path d="M147.1 84.3h16" style="fill:none;stroke-dasharray:5.55,2.4;stroke-dashoffset:0;stroke:#8c564b;stroke-width:1.5"/><use xlink:href="#X" x="155.1" y="84.3" style="fill-opacity:0;stroke:#8c564b;stroke-linejoin:miter"/><g transform="matrix(.08 0 0 -.08 169.5 87.1)"><use xlink:href="#B"/><use xlink:href="#e" transform="translate(63.6)"/><use xlink:href="#r" transform="translate(159)"/><use xlink:href="#f" transform="translate(198)"/><use xlink:href="#af" transform="translate(261.7)"/><use xlink:href="#u" transform="translate(388.5)"/><use xlink:href="#t" transform="translate(470.3)"/><use xlink:href="#n" transform="translate(531.4)"/><use xlink:href="#k" transform="translate(572.6)"/><use xlink:href="#j" transform="translate(624.7)"/><use xlink:href="#w" transform="translate(663.9)"/></g><path d="M147.1 96h16" style="fill:none;stroke:#e377c2;stroke-width:1.5;stroke-linecap:square"/><use xlink:href="#Y" x="155.1" y="96.1" style="fill:#e377c2;stroke:#e377c2;stroke-linejoin:miter"/><g transform="matrix(.08 0 0 -.08 169.5 98.9)"><defs><path id="ag" d="M703 97v575q238-113 481-172 244-59 479-59 625 0 954 420 330 420 377 1277-181-269-460-413-278-144-615-144-700 0-1108 423-408 424-408 1159 0 718 425 1152 425 435 1131 435 810 0 1236-621 427-620 427-1801 0-1103-524-1761Q2575-91 1691-91q-238 0-482 47Q966 3 703 97m1256 1978q425 0 673 290 249 291 249 798 0 503-249 795-248 292-673 292t-673-292-248-795q0-507 248-798 248-290 673-290" transform="scale(.01563)"/></defs><use xlink:href="#ag"/><use xlink:href="#e" transform="translate(63.6)"/><use xlink:href="#r" transform="translate(159)"/><use xlink:href="#ac" transform="translate(198)"/><use xlink:href="#m" transform="translate(295.5)"/><use xlink:href="#ad" transform="translate(357)"/><use xlink:href="#ae" transform="translate(418.3)"/><use xlink:href="#w" transform="translate(481.6)"/></g><path d="M147.1 107.8h16" style="fill:none;stroke-dasharray:5.55,2.4;stroke-dashoffset:0;stroke:#e377c2;stroke-width:1.5"/><use xlink:href="#Z" x="155.1" y="107.8" style="fill-opacity:0;stroke:#e377c2;stroke-linejoin:miter"/><g transform="matrix(.08 0 0 -.08 169.5 110.6)"><use xlink:href="#ag"/><use xlink:href="#e" transform="translate(63.6)"/><use xlink:href="#r" transform="translate(159)"/><use xlink:href="#f" transform="translate(198)"/><use xlink:href="#af" transform="translate(261.7)"/><use xlink:href="#u" transform="translate(388.5)"/><use xlink:href="#t" transform="translate(470.3)"/><use xlink:href="#n" transform="translate(531.4)"/><use xlink:href="#k" transform="translate(572.6)"/><use xlink:href="#j" transform="translate(624.7)"/><use xlink:href="#w" transform="translate(663.9)"/></g><defs><clipPath id="a"><path d="M45.3 26.9h663.9v362.4H45.3z"/></clipPath></defs></svg>