<svg xmlns="http://www.w3.org/2000/svg" xmlns:xlink="http://www.w3.org/1999/xlink" width="960" height="576" viewBox="0 0 720 432"><path d="M0 432h720V0H0z" style="fill:#fff"/><path d="M39 389.3h670.2V27H39z" style="fill:#fff"/><path d="M106.4 389.3V27" clip-path="url(#a)" style="fill:none;stroke:#b0b0b0;stroke-opacity:.3;stroke-width:.8;stroke-linecap:square"/><defs><path id="b" d="M0 0v3.5" style="stroke:#000;stroke-width:.8"/></defs><use xlink:href="#b" x="106.4" y="389.3" style="stroke:#000;stroke-width:.8"/><g transform="matrix(.1 0 0 -.1 96.9 404)"><defs><path id="c" d="M691 4666h2478v-532H1269V2991q137 47 274 70 138 23 276 23 781 0 1237-428 457-428 457-1159 0-753-469-1171Q2575-91 1722-91q-294 0-599 50Q819 9 494 109v635q281-153 581-228t634-75q541 0 856 284 316 284 316 772 0 487-316 771-315 285-856 285-253 0-505-56-251-56-513-175z" transform="scale(.01563)"/><path id="d" d="M2034 4250q-487 0-733-480-245-479-245-1442 0-959 245-1439 246-480 733-480 491 0 736 480 246 480 246 1439 0 963-246 1442-245 480-736 480m0 500q785 0 1199-621 414-620 414-1801 0-1178-414-1799Q2819-91 2034-91q-784 0-1198 620-414 621-414 1799 0 1181 414 1801 414 621 1198 621" transform="scale(.01563)"/></defs><use xlink:href="#c"/><use xlink:href="#d" transform="translate(63.6)"/><use xlink:href="#d" transform="translate(127.2)"/></g><path d="M198.9 389.3V27" clip-path="url(#a)" style="fill:none;stroke:#b0b0b0;stroke-opacity:.3;stroke-width:.8;stroke-linecap:square"/><use xlink:href="#b" x="198.9" y="389.3" style="stroke:#000;stroke-width:.8"/><g transform="matrix(.1 0 0 -.1 189.3 404)"><defs><path id="e" d="M525 4666h3000v-269L1831 0h-659l1594 4134H525z" transform="scale(.01563)"/></defs><use xlink:href="#e"/><use xlink:href="#c" transform="translate(63.6)"/><use xlink:href="#d" transform="translate(127.2)"/></g><path d="M291.3 389.3V27" clip-path="url(#a)" style="fill:none;stroke:#b0b0b0;stroke-opacity:.3;stroke-width:.8;stroke-linecap:square"/><use xlink:href="#b" x="291.3" y="389.3" style="stroke:#000;stroke-width:.8"/><g transform="matrix(.1 0 0 -.1 278.6 404)"><defs><path id="f" d="M794 531h1031v3560L703 3866v575l1116 225h631V531h1031V0H794z" transform="scale(.01563)"/></defs><use xlink:href="#f"/><use xlink:href="#d" transform="translate(63.6)"/><use xlink:href="#d" transform="translate(127.2)"/><use xlink:href="#d" transform="translate(190.9)"/></g><path d="M383.7 389.3V27" clip-path="url(#a)" style="fill:none;stroke:#b0b0b0;stroke-opacity:.3;stroke-width:.8;stroke-linecap:square"/><use xlink:href="#b" x="383.7" y="389.3" style="stroke:#000;stroke-width:.8"/><g transform="matrix(.1 0 0 -.1 371 404)"><defs><path id="g" d="M1228 531h2203V0H469v531q359 372 979 998 621 627 780 809 303 340 423 576 121 236 121 464 0 372-261 606-261 235-680 235-297 0-627-103-329-103-704-313v638q381 153 712 231 332 78 607 78 725 0 1156-363 431-362 431-968 0-288-108-546-107-257-392-607-78-91-497-524-418-433-1181-1211" transform="scale(.01563)"/></defs><use xlink:href="#f"/><use xlink:href="#g" transform="translate(63.6)"/><use xlink:href="#c" transform="translate(127.2)"/><use xlink:href="#d" transform="translate(190.9)"/></g><path d="M476.1 389.3V27" clip-path="url(#a)" style="fill:none;stroke:#b0b0b0;stroke-opacity:.3;stroke-width:.8;stroke-linecap:square"/><use xlink:href="#b" x="476.1" y="389.3" style="stroke:#000;stroke-width:.8"/><g transform="matrix(.1 0 0 -.1 463.4 404)"><use xlink:href="#f"/><use xlink:href="#c" transform="translate(63.6)"/><use xlink:href="#d" transform="translate(127.2)"/><use xlink:href="#d" transform="translate(190.9)"/></g><path d="M568.6 389.3V27" clip-path="url(#a)" style="fill:none;stroke:#b0b0b0;stroke-opacity:.3;stroke-width:.8;stroke-linecap:square"/><use xlink:href="#b" x="568.6" y="389.3" style="stroke:#000;stroke-width:.8"/><g transform="matrix(.1 0 0 -.1 555.8 404)"><use xlink:href="#f"/><use xlink:href="#e" transform="translate(63.6)"/><use xlink:href="#c" transform="translate(127.2)"/><use xlink:href="#d" transform="translate(190.9)"/></g><path d="M661 389.3V27" clip-path="url(#a)" style="fill:none;stroke:#b0b0b0;stroke-opacity:.3;stroke-width:.8;stroke-linecap:square"/><use xlink:href="#b" x="661" y="389.3" style="stroke:#000;stroke-width:.8"/><g transform="matrix(.1 0 0 -.1 648.3 404)"><use xlink:href="#g"/><use xlink:href="#d" transform="translate(63.6)"/><use xlink:href="#d" transform="translate(127.2)"/><use xlink:href="#d" transform="translate(190.9)"/></g><g transform="matrix(.11 0 0 -.11 361.3 418.4)"><defs><path id="h" d="M4122 4306v-665q-319 297-680 443-361 147-767 147-800 0-1225-489t-425-1414q0-922 425-1411t1225-489q406 0 767 147t680 444V359q-331-225-702-338-370-112-782-112-1060 0-1670 648-609 649-609 1771 0 1125 609 1773 610 649 1670 649 418 0 788-111 371-111 696-333" transform="scale(.01563)"/><path id="i" d="M2631 2963q-97 56-211 82-114 27-251 27-488 0-749-317t-261-911V0H581v3500h578v-544q182 319 472 473 291 155 707 155 59 0 131-8 72-7 159-23z" transform="scale(.01563)"/><path id="j" d="M1959 3097q-462 0-731-361t-269-989 267-989q268-361 733-361 460 0 728 362 269 363 269 988 0 622-269 986-268 364-728 364m0 487q750 0 1178-488 429-487 429-1349 0-859-429-1349Q2709-91 1959-91q-753 0-1180 489-426 490-426 1349 0 862 426 1349 427 488 1180 488" transform="scale(.01563)"/><path id="k" d="M1159 525v-1856H581v4831h578v-531q182 312 458 463 277 152 661 152 638 0 1036-506 399-506 399-1331T3314 415Q2916-91 2278-91q-384 0-661 152-276 152-458 464m1957 1222q0 634-261 995t-717 361q-457 0-718-361t-261-995 261-995 718-361q456 0 717 361t261 995" transform="scale(.01563)"/></defs><use xlink:href="#h"/><use xlink:href="#i" transform="translate(69.8)"/><use xlink:href="#j" transform="translate(108.7)"/><use xlink:href="#k" transform="translate(169.9)"/></g><path d="M39 317.8h670.2" clip-path="url(#a)" style="fill:none;stroke:#b0b0b0;stroke-opacity:.3;stroke-width:.8;stroke-linecap:square"/><defs><path id="l" d="M0 0h-3.5" style="stroke:#000;stroke-width:.8"/></defs><use xlink:href="#l" x="39" y="317.8" style="stroke:#000;stroke-width:.8"/><use xlink:href="#f" transform="matrix(.1 0 0 -.1 25.6 321.6)"/><path d="M39 240.7h670.2" clip-path="url(#a)" style="fill:none;stroke:#b0b0b0;stroke-opacity:.3;stroke-width:.8;stroke-linecap:square"/><use xlink:href="#l" x="39" y="240.7" style="stroke:#000;stroke-width:.8"/><use xlink:href="#g" transform="matrix(.1 0 0 -.1 25.6 244.5)"/><path d="M39 163.6h670.2" clip-path="url(#a)" style="fill:none;stroke:#b0b0b0;stroke-opacity:.3;stroke-width:.8;stroke-linecap:square"/><use xlink:href="#l" x="39" y="163.6" style="stroke:#000;stroke-width:.8"/><g transform="matrix(.1 0 0 -.1 25.6 167.4)"><defs><path id="m" d="M2597 2516q453-97 707-404 255-306 255-756 0-690-475-1069Q2609-91 1734-91q-293 0-604 58T488 141v609q262-153 574-231 313-78 654-78 593 0 904 234t311 681q0 413-289 645-289 233-804 233h-544v519h569q465 0 712 186t247 536q0 359-255 551-254 193-729 193-260 0-557-57-297-56-653-174v562q360 100 674 150t592 50q719 0 1137-327 419-326 419-882 0-388-222-655t-631-370" transform="scale(.01563)"/></defs><use xlink:href="#m"/></g><path d="M39 86.5h670.2" clip-path="url(#a)" style="fill:none;stroke:#b0b0b0;stroke-opacity:.3;stroke-width:.8;stroke-linecap:square"/><use xlink:href="#l" x="39" y="86.5" style="stroke:#000;stroke-width:.8"/><g transform="matrix(.1 0 0 -.1 25.6 90.3)"><defs><path id="n" d="M2419 4116 825 1625h1594zm-166 550h794V1625h666v-525h-666V0h-628v1100H313v609z" transform="scale(.01563)"/></defs><use xlink:href="#n"/></g><g transform="matrix(0 -.11 -.11 0 19.3 303.5)"><defs><path id="o" d="M1259 2228V519h1013q509 0 754 211 246 211 246 645 0 438-246 645-245 208-754 208zm0 1919V2741h935q462 0 688 173 227 174 227 530 0 353-227 528-226 175-688 175zm-631 519h1613q722 0 1112-300 391-300 391-853 0-429-200-682t-588-315q466-100 724-418 258-317 258-792 0-625-425-966Q3088 0 2303 0H628z" transform="scale(.01563)"/><path id="p" d="M603 3500h575V0H603zm0 1363h575v-729H603z" transform="scale(.01563)"/><path id="q" d="M1172 4494v-994h1184v-447H1172V1153q0-428 117-550t477-122h590V0h-590q-666 0-919 248-253 249-253 905v1900H172v447h422v994z" transform="scale(.01563)"/><path id="r" d="M2834 3397v-544q-243 125-506 187-262 63-544 63-428 0-642-131t-214-394q0-200 153-314t616-217l197-44q612-131 870-370t258-667q0-488-386-773Q2250-91 1575-91q-281 0-586 55T347 128v594q319-166 628-249 309-82 613-82 406 0 624 139 219 139 219 392 0 234-158 359-157 125-692 241l-200 47q-534 112-772 345-237 233-237 639 0 494 350 762 350 269 994 269 318 0 599-47 282-46 519-140" transform="scale(.01563)"/><path id="s" d="M3597 1894v-281H953q38-594 358-905t892-311q331 0 642 81t618 244V178Q3153 47 2828-22t-659-69q-838 0-1327 487-489 488-489 1320 0 859 464 1363 464 505 1252 505 706 0 1117-455 411-454 411-1235m-575 169q-6 471-264 752-258 282-683 282-481 0-770-272t-333-766z" transform="scale(.01563)"/><path id="t" d="M1259 4147V2394h794q441 0 681 228 241 228 241 650 0 419-241 647-240 228-681 228zm-631 519h1425q785 0 1186-355 402-355 402-1039 0-691-402-1044-401-353-1186-353h-794V0H628z" transform="scale(.01563)"/><path id="u" d="M3513 3500 2247 1797 3578 0h-678L1881 1375 863 0H184l1360 1831L300 3500h678l928-1247 928 1247z" transform="scale(.01563)"/><path id="v" d="M603 4863h575V0H603z" transform="scale(.01563)"/><path id="w" d="M1984 4856q-418-718-622-1422-203-703-203-1425 0-721 205-1429t620-1424h-500Q1016-109 783 600T550 2009q0 697 231 1403 232 707 703 1444z" transform="scale(.01563)"/><path id="x" d="M750 794h659V256L897-744H494L750 256z" transform="scale(.01563)"/><path id="y" d="M269 3500h575l719-2731 715 2731h678l719-2731 716 2731h575L4050 0h-678l-753 2869L1863 0h-679z" transform="scale(.01563)"/><path id="z" d="M3116 1747q0 634-261 995t-717 361q-457 0-718-361t-261-995 261-995 718-361q456 0 717 361t261 995M1159 2969q182 312 458 463 277 152 661 152 638 0 1036-506 399-506 399-1331T3314 415Q2916-91 2278-91q-384 0-661 152-276 152-458 464V0H581v4863h578z" transform="scale(.01563)"/><path id="A" d="M513 4856h500q468-737 701-1444 233-706 233-1403 0-700-233-1409T1013-844H513q415 716 620 1424t205 1429q0 722-205 1425-205 704-620 1422" transform="scale(.01563)"/></defs><use xlink:href="#o"/><use xlink:href="#p" transform="translate(68.6)"/><use xlink:href="#q" transform="translate(96.4)"/><use xlink:href="#r" transform="translate(135.6)"/><use xlink:href="#k" transform="translate(219.5)"/><use xlink:href="#s" transform="translate(283)"/><use xlink:href="#i" transform="translate(344.5)"/><use xlink:href="#t" transform="translate(417.4)"/><use xlink:href="#p" transform="translate(475.4)"/><use xlink:href="#u" transform="translate(503.2)"/><use xlink:href="#s" transform="translate(559.3)"/><use xlink:href="#v" transform="translate(620.8)"/><use xlink:href="#w" transform="translate(680.4)"/><use xlink:href="#o" transform="translate(719.4)"/><use xlink:href="#t" transform="translate(788)"/><use xlink:href="#t" transform="translate(848.3)"/><use xlink:href="#x" transform="translate(908.6)"/><use xlink:href="#v" transform="translate(972.2)"/><use xlink:href="#j" transform="translate(1000)"/><use xlink:href="#y" transform="translate(1061.1)"/><use xlink:href="#s" transform="translate(1143)"/><use xlink:href="#i" transform="translate(1204.4)"/><use xlink:href="#p" transform="translate(1277.3)"/><use xlink:href="#r" transform="translate(1305.1)"/><use xlink:href="#z" transform="translate(1389)"/><use xlink:href="#s" transform="translate(1452.5)"/><use xlink:href="#q" transform="translate(1514)"/><use xlink:href="#q" transform="translate(1553.2)"/><use xlink:href="#s" transform="translate(1592.4)"/><use xlink:href="#i" transform="translate(1654)"/><use xlink:href="#A" transform="translate(1695)"/></g><path d="m69.5 331.2 147.8 8.2 148 2.8 147.8 2.1 165.6 3.3" clip-path="url(#a)" style="fill:none;stroke:#1f77b4;stroke-width:1.5;stroke-linecap:square"/><defs><path id="B" d="M0 3.5a3.5 3.5 0 1 0 0-7 3.5 3.5 0 0 0 0 7z" style="stroke:#1f77b4"/></defs><g clip-path="url(#a)"><use xlink:href="#B" x="69.5" y="331.2" style="fill:#1f77b4;stroke:#1f77b4"/><use xlink:href="#B" x="217.3" y="339.4" style="fill:#1f77b4;stroke:#1f77b4"/><use xlink:href="#B" x="365.2" y="342.2" style="fill:#1f77b4;stroke:#1f77b4"/><use xlink:href="#B" x="513.1" y="344.3" style="fill:#1f77b4;stroke:#1f77b4"/><use xlink:href="#B" x="678.7" y="347.6" style="fill:#1f77b4;stroke:#1f77b4"/></g><path d="m69.5 372.8 147.8-4.8 148 1 147.8 1.6 165.6 2.1" clip-path="url(#a)" style="fill:none;stroke-dasharray:5.55,2.4;stroke-dashoffset:0;stroke:#1f77b4;stroke-width:1.5"/><defs><path id="C" d="M0 3.5a3.5 3.5 0 1 0 0-7 3.5 3.5 0 0 0 0 7z" style="stroke:#1f77b4"/></defs><g clip-path="url(#a)"><use xlink:href="#C" x="69.5" y="372.8" style="fill-opacity:0;stroke:#1f77b4"/><use xlink:href="#C" x="217.3" y="368" style="fill-opacity:0;stroke:#1f77b4"/><use xlink:href="#C" x="365.2" y="368.9" style="fill-opacity:0;stroke:#1f77b4"/><use xlink:href="#C" x="513.1" y="370.6" style="fill-opacity:0;stroke:#1f77b4"/><use xlink:href="#C" x="678.7" y="372.7" style="fill-opacity:0;stroke:#1f77b4"/></g><path d="m69.5 292.2 147.8 9.5 148 4.3 147.8 4 165.6 5.3" clip-path="url(#a)" style="fill:none;stroke-dasharray:1.5,2.475;stroke-dashoffset:0;stroke:#1f77b4;stroke-width:1.5"/><g clip-path="url(#a)"><use xlink:href="#C" x="69.5" y="292.2" style="fill-opacity:0;stroke:#1f77b4"/><use xlink:href="#C" x="217.3" y="301.7" style="fill-opacity:0;stroke:#1f77b4"/><use xlink:href="#C" x="365.2" y="306" style="fill-opacity:0;stroke:#1f77b4"/><use xlink:href="#C" x="513.1" y="310.1" style="fill-opacity:0;stroke:#1f77b4"/><use xlink:href="#C" x="678.7" y="315.3" style="fill-opacity:0;stroke:#1f77b4"/></g><path d="m69.5 319.1 147.8 9.6 148 3.3 147.8 2.7 165.6 4" clip-path="url(#a)" style="fill:none;stroke:#ff7f0e;stroke-width:1.5;stroke-linecap:square"/><defs><path id="D" d="M-3.5 3.5h7v-7h-7z" style="stroke:#ff7f0e;stroke-linejoin:miter"/></defs><g clip-path="url(#a)"><use xlink:href="#D" x="69.5" y="319.1" style="fill:#ff7f0e;stroke:#ff7f0e;stroke-linejoin:miter"/><use xlink:href="#D" x="217.3" y="328.7" style="fill:#ff7f0e;stroke:#ff7f0e;stroke-linejoin:miter"/><use xlink:href="#D" x="365.2" y="332" style="fill:#ff7f0e;stroke:#ff7f0e;stroke-linejoin:miter"/><use xlink:href="#D" x="513.1" y="334.7" style="fill:#ff7f0e;stroke:#ff7f0e;stroke-linejoin:miter"/><use xlink:href="#D" x="678.7" y="338.7" style="fill:#ff7f0e;stroke:#ff7f0e;stroke-linejoin:miter"/></g><path d="m69.5 371.2 147.8-8 148 .7 147.8 1.7 165.6 2.7" clip-path="url(#a)" style="fill:none;stroke-dasharray:5.55,2.4;stroke-dashoffset:0;stroke:#ff7f0e;stroke-width:1.5"/><defs><path id="E" d="M-3.5 3.5h7v-7h-7z" style="stroke:#ff7f0e;stroke-linejoin:miter"/></defs><g clip-path="url(#a)"><use xlink:href="#E" x="69.5" y="371.2" style="fill-opacity:0;stroke:#ff7f0e;stroke-linejoin:miter"/><use xlink:href="#E" x="217.3" y="363.3" style="fill-opacity:0;stroke:#ff7f0e;stroke-linejoin:miter"/><use xlink:href="#E" x="365.2" y="363.9" style="fill-opacity:0;stroke:#ff7f0e;stroke-linejoin:miter"/><use xlink:href="#E" x="513.1" y="365.6" style="fill-opacity:0;stroke:#ff7f0e;stroke-linejoin:miter"/><use xlink:href="#E" x="678.7" y="368.3" style="fill-opacity:0;stroke:#ff7f0e;stroke-linejoin:miter"/></g><path d="m69.5 272 147.8 12 148 4.4 147.8 8.3 165.6 6.1" clip-path="url(#a)" style="fill:none;stroke-dasharray:1.5,2.475;stroke-dashoffset:0;stroke:#ff7f0e;stroke-width:1.5"/><g clip-path="url(#a)"><use xlink:href="#E" x="69.5" y="272" style="fill-opacity:0;stroke:#ff7f0e;stroke-linejoin:miter"/><use xlink:href="#E" x="217.3" y="284" style="fill-opacity:0;stroke:#ff7f0e;stroke-linejoin:miter"/><use xlink:href="#E" x="365.2" y="288.4" style="fill-opacity:0;stroke:#ff7f0e;stroke-linejoin:miter"/><use xlink:href="#E" x="513.1" y="296.7" style="fill-opacity:0;stroke:#ff7f0e;stroke-linejoin:miter"/><use xlink:href="#E" x="678.7" y="302.8" style="fill-opacity:0;stroke:#ff7f0e;stroke-linejoin:miter"/></g><path d="m69.5 307.6 147.8 10.9 148 3.8 147.8 3 165.6 4.7" clip-path="url(#a)" style="fill:none;stroke:#2ca02c;stroke-width:1.5;stroke-linecap:square"/><defs><path id="F" d="m0-3.5-3.5 7h7z" style="stroke:#2ca02c;stroke-linejoin:miter"/></defs><g clip-path="url(#a)"><use xlink:href="#F" x="69.5" y="307.6" style="fill:#2ca02c;stroke:#2ca02c;stroke-linejoin:miter"/><use xlink:href="#F" x="217.3" y="318.5" style="fill:#2ca02c;stroke:#2ca02c;stroke-linejoin:miter"/><use xlink:href="#F" x="365.2" y="322.3" style="fill:#2ca02c;stroke:#2ca02c;stroke-linejoin:miter"/><use xlink:href="#F" x="513.1" y="325.4" style="fill:#2ca02c;stroke:#2ca02c;stroke-linejoin:miter"/><use xlink:href="#F" x="678.7" y="330" style="fill:#2ca02c;stroke:#2ca02c;stroke-linejoin:miter"/></g><path d="m69.5 369.6 147.8-10.8 148-.7 147.8 1.8 165.6 3.3" clip-path="url(#a)" style="fill:none;stroke-dasharray:5.55,2.4;stroke-dashoffset:0;stroke:#2ca02c;stroke-width:1.5"/><defs><path id="G" d="m0-3.5-3.5 7h7z" style="stroke:#2ca02c;stroke-linejoin:miter"/></defs><g clip-path="url(#a)"><use xlink:href="#G" x="69.5" y="369.6" style="fill-opacity:0;stroke:#2ca02c;stroke-linejoin:miter"/><use xlink:href="#G" x="217.3" y="358.8" style="fill-opacity:0;stroke:#2ca02c;stroke-linejoin:miter"/><use xlink:href="#G" x="365.2" y="358.1" style="fill-opacity:0;stroke:#2ca02c;stroke-linejoin:miter"/><use xlink:href="#G" x="513.1" y="359.9" style="fill-opacity:0;stroke:#2ca02c;stroke-linejoin:miter"/><use xlink:href="#G" x="678.7" y="363.2" style="fill-opacity:0;stroke:#2ca02c;stroke-linejoin:miter"/></g><path d="m69.5 254.7 147.8 12.7 148 4.8L513 284.4l165.6 6.7" clip-path="url(#a)" style="fill:none;stroke-dasharray:1.5,2.475;stroke-dashoffset:0;stroke:#2ca02c;stroke-width:1.5"/><g clip-path="url(#a)"><use xlink:href="#G" x="69.5" y="254.7" style="fill-opacity:0;stroke:#2ca02c;stroke-linejoin:miter"/><use xlink:href="#G" x="217.3" y="267.4" style="fill-opacity:0;stroke:#2ca02c;stroke-linejoin:miter"/><use xlink:href="#G" x="365.2" y="272.2" style="fill-opacity:0;stroke:#2ca02c;stroke-linejoin:miter"/><use xlink:href="#G" x="513.1" y="284.4" style="fill-opacity:0;stroke:#2ca02c;stroke-linejoin:miter"/><use xlink:href="#G" x="678.7" y="291.1" style="fill-opacity:0;stroke:#2ca02c;stroke-linejoin:miter"/></g><path d="m69.5 295 147.8 12.3 148 4.4 147.8 3.5 165.6 5.3" clip-path="url(#a)" style="fill:none;stroke:#d62728;stroke-width:1.5;stroke-linecap:square"/><defs><path id="H" d="m0 5 5-5-5-5-5 5z" style="stroke:#d62728;stroke-linejoin:miter"/></defs><g clip-path="url(#a)"><use xlink:href="#H" x="69.5" y="295.1" style="fill:#d62728;stroke:#d62728;stroke-linejoin:miter"/><use xlink:href="#H" x="217.3" y="307.3" style="fill:#d62728;stroke:#d62728;stroke-linejoin:miter"/><use xlink:href="#H" x="365.2" y="311.7" style="fill:#d62728;stroke:#d62728;stroke-linejoin:miter"/><use xlink:href="#H" x="513.1" y="315.2" style="fill:#d62728;stroke:#d62728;stroke-linejoin:miter"/><use xlink:href="#H" x="678.7" y="320.5" style="fill:#d62728;stroke:#d62728;stroke-linejoin:miter"/></g><path d="m69.5 368.1 147.8-14.4 148-2.9 147.8 2.3 165.6 3.7" clip-path="url(#a)" style="fill:none;stroke-dasharray:5.55,2.4;stroke-dashoffset:0;stroke:#d62728;stroke-width:1.5"/><defs><path id="I" d="m0 5 5-5-5-5-5 5z" style="stroke:#d62728;stroke-linejoin:miter"/></defs><g clip-path="url(#a)"><use xlink:href="#I" x="69.5" y="368.1" style="fill-opacity:0;stroke:#d62728;stroke-linejoin:miter"/><use xlink:href="#I" x="217.3" y="353.7" style="fill-opacity:0;stroke:#d62728;stroke-linejoin:miter"/><use xlink:href="#I" x="365.2" y="350.8" style="fill-opacity:0;stroke:#d62728;stroke-linejoin:miter"/><use xlink:href="#I" x="513.1" y="353.1" style="fill-opacity:0;stroke:#d62728;stroke-linejoin:miter"/><use xlink:href="#I" x="678.7" y="356.8" style="fill-opacity:0;stroke:#d62728;stroke-linejoin:miter"/></g><path d="m69.5 235.5 147.8 14.1 148 5.5L513 271l165.6 4.9" clip-path="url(#a)" style="fill:none;stroke-dasharray:1.5,2.475;stroke-dashoffset:0;stroke:#d62728;stroke-width:1.5"/><g clip-path="url(#a)"><use xlink:href="#I" x="69.5" y="235.5" style="fill-opacity:0;stroke:#d62728;stroke-linejoin:miter"/><use xlink:href="#I" x="217.3" y="249.6" style="fill-opacity:0;stroke:#d62728;stroke-linejoin:miter"/><use xlink:href="#I" x="365.2" y="255.1" style="fill-opacity:0;stroke:#d62728;stroke-linejoin:miter"/><use xlink:href="#I" x="513.1" y="271.1" style="fill-opacity:0;stroke:#d62728;stroke-linejoin:miter"/><use xlink:href="#I" x="678.7" y="276" style="fill-opacity:0;stroke:#d62728;stroke-linejoin:miter"/></g><path d="m69.5 276 147.8 14 148 5.2 147.8 4.3 165.6 6.3" clip-path="url(#a)" style="fill:none;stroke:#9467bd;stroke-width:1.5;stroke-linecap:square"/><defs><path id="J" d="m0 3.5 3.5-7h-7z" style="stroke:#9467bd;stroke-linejoin:miter"/></defs><g clip-path="url(#a)"><use xlink:href="#J" x="69.5" y="275.9" style="fill:#9467bd;stroke:#9467bd;stroke-linejoin:miter"/><use xlink:href="#J" x="217.3" y="290" style="fill:#9467bd;stroke:#9467bd;stroke-linejoin:miter"/><use xlink:href="#J" x="365.2" y="295.2" style="fill:#9467bd;stroke:#9467bd;stroke-linejoin:miter"/><use xlink:href="#J" x="513.1" y="299.5" style="fill:#9467bd;stroke:#9467bd;stroke-linejoin:miter"/><use xlink:href="#J" x="678.7" y="305.8" style="fill:#9467bd;stroke:#9467bd;stroke-linejoin:miter"/></g><path d="m69.5 362.1 147.8-16.7 148-3.4 147.8 1 165.6 4" clip-path="url(#a)" style="fill:none;stroke-dasharray:5.55,2.4;stroke-dashoffset:0;stroke:#9467bd;stroke-width:1.5"/><defs><path id="K" d="m0 3.5 3.5-7h-7z" style="stroke:#9467bd;stroke-linejoin:miter"/></defs><g clip-path="url(#a)"><use xlink:href="#K" x="69.5" y="362.1" style="fill-opacity:0;stroke:#9467bd;stroke-linejoin:miter"/><use xlink:href="#K" x="217.3" y="345.4" style="fill-opacity:0;stroke:#9467bd;stroke-linejoin:miter"/><use xlink:href="#K" x="365.2" y="342" style="fill-opacity:0;stroke:#9467bd;stroke-linejoin:miter"/><use xlink:href="#K" x="513.1" y="343" style="fill-opacity:0;stroke:#9467bd;stroke-linejoin:miter"/><use xlink:href="#K" x="678.7" y="347" style="fill-opacity:0;stroke:#9467bd;stroke-linejoin:miter"/></g><path d="m69.5 204.5 147.8 18.7 148 6.1L513 248.1l165.6 5" clip-path="url(#a)" style="fill:none;stroke-dasharray:1.5,2.475;stroke-dashoffset:0;stroke:#9467bd;stroke-width:1.5"/><g clip-path="url(#a)"><use xlink:href="#K" x="69.5" y="204.5" style="fill-opacity:0;stroke:#9467bd;stroke-linejoin:miter"/><use xlink:href="#K" x="217.3" y="223.2" style="fill-opacity:0;stroke:#9467bd;stroke-linejoin:miter"/><use xlink:href="#K" x="365.2" y="229.3" style="fill-opacity:0;stroke:#9467bd;stroke-linejoin:miter"/><use xlink:href="#K" x="513.1" y="248.1" style="fill-opacity:0;stroke:#9467bd;stroke-linejoin:miter"/><use xlink:href="#K" x="678.7" y="253.1" style="fill-opacity:0;stroke:#9467bd;stroke-linejoin:miter"/></g><path d="M69.5 244.8 217.3 262l148 6.6 147.8 5.3 165.6 7.8" clip-path="url(#a)" style="fill:none;stroke:#8c564b;stroke-width:1.5;stroke-linecap:square"/><defs><path id="L" d="m-3.5 0 7 3.5v-7z" style="stroke:#8c564b;stroke-linejoin:miter"/></defs><g clip-path="url(#a)"><use xlink:href="#L" x="69.5" y="244.8" style="fill:#8c564b;stroke:#8c564b;stroke-linejoin:miter"/><use xlink:href="#L" x="217.3" y="262" style="fill:#8c564b;stroke:#8c564b;stroke-linejoin:miter"/><use xlink:href="#L" x="365.2" y="268.6" style="fill:#8c564b;stroke:#8c564b;stroke-linejoin:miter"/><use xlink:href="#L" x="513.1" y="273.9" style="fill:#8c564b;stroke:#8c564b;stroke-linejoin:miter"/><use xlink:href="#L" x="678.7" y="281.7" style="fill:#8c564b;stroke:#8c564b;stroke-linejoin:miter"/></g><path d="m69.5 348.2 147.8-15.8 148-10.7 147.8 1.6 165.6 7.6" clip-path="url(#a)" style="fill:none;stroke-dasharray:5.55,2.4;stroke-dashoffset:0;stroke:#8c564b;stroke-width:1.5"/><defs><path id="M" d="m-3.5 0 7 3.5v-7z" style="stroke:#8c564b;stroke-linejoin:miter"/></defs><g clip-path="url(#a)"><use xlink:href="#M" x="69.5" y="348.2" style="fill-opacity:0;stroke:#8c564b;stroke-linejoin:miter"/><use xlink:href="#M" x="217.3" y="332.4" style="fill-opacity:0;stroke:#8c564b;stroke-linejoin:miter"/><use xlink:href="#M" x="365.2" y="321.7" style="fill-opacity:0;stroke:#8c564b;stroke-linejoin:miter"/><use xlink:href="#M" x="513.1" y="323.3" style="fill-opacity:0;stroke:#8c564b;stroke-linejoin:miter"/><use xlink:href="#M" x="678.7" y="330.9" style="fill-opacity:0;stroke:#8c564b;stroke-linejoin:miter"/></g><path d="m69.5 153 147.8 29 148 6.7L513 206.4l165.6 10.2" clip-path="url(#a)" style="fill:none;stroke-dasharray:1.5,2.475;stroke-dashoffset:0;stroke:#8c564b;stroke-width:1.5"/><g clip-path="url(#a)"><use xlink:href="#M" x="69.5" y="153" style="fill-opacity:0;stroke:#8c564b;stroke-linejoin:miter"/><use xlink:href="#M" x="217.3" y="182.1" style="fill-opacity:0;stroke:#8c564b;stroke-linejoin:miter"/><use xlink:href="#M" x="365.2" y="188.8" style="fill-opacity:0;stroke:#8c564b;stroke-linejoin:miter"/><use xlink:href="#M" x="513.1" y="206.4" style="fill-opacity:0;stroke:#8c564b;stroke-linejoin:miter"/><use xlink:href="#M" x="678.7" y="216.6" style="fill-opacity:0;stroke:#8c564b;stroke-linejoin:miter"/></g><path d="M69.5 173.5 217.3 197l148 9.4L513 214l165.6 11" clip-path="url(#a)" style="fill:none;stroke:#e377c2;stroke-width:1.5;stroke-linecap:square"/><defs><path id="N" d="m3.5 0-7-3.5v7z" style="stroke:#e377c2;stroke-linejoin:miter"/></defs><g clip-path="url(#a)"><use xlink:href="#N" x="69.5" y="173.5" style="fill:#e377c2;stroke:#e377c2;stroke-linejoin:miter"/><use xlink:href="#N" x="217.3" y="197.1" style="fill:#e377c2;stroke:#e377c2;stroke-linejoin:miter"/><use xlink:href="#N" x="365.2" y="206.5" style="fill:#e377c2;stroke:#e377c2;stroke-linejoin:miter"/><use xlink:href="#N" x="513.1" y="214" style="fill:#e377c2;stroke:#e377c2;stroke-linejoin:miter"/><use xlink:href="#N" x="678.7" y="224.9" style="fill:#e377c2;stroke:#e377c2;stroke-linejoin:miter"/></g><path d="m69.5 316 147.8-16 148-22.7 147.8.7 165.6 21.3" clip-path="url(#a)" style="fill:none;stroke-dasharray:5.55,2.4;stroke-dashoffset:0;stroke:#e377c2;stroke-width:1.5"/><defs><path id="O" d="m3.5 0-7-3.5v7z" style="stroke:#e377c2;stroke-linejoin:miter"/></defs><g clip-path="url(#a)"><use xlink:href="#O" x="69.5" y="315.9" style="fill-opacity:0;stroke:#e377c2;stroke-linejoin:miter"/><use xlink:href="#O" x="217.3" y="299.9" style="fill-opacity:0;stroke:#e377c2;stroke-linejoin:miter"/><use xlink:href="#O" x="365.2" y="277.3" style="fill-opacity:0;stroke:#e377c2;stroke-linejoin:miter"/><use xlink:href="#O" x="513.1" y="278" style="fill-opacity:0;stroke:#e377c2;stroke-linejoin:miter"/><use xlink:href="#O" x="678.7" y="299.3" style="fill-opacity:0;stroke:#e377c2;stroke-linejoin:miter"/></g><path d="m69.5 43.4 147.8 46.9 148 9 147.8 11 165.6 24.5" clip-path="url(#a)" style="fill:none;stroke-dasharray:1.5,2.475;stroke-dashoffset:0;stroke:#e377c2;stroke-width:1.5"/><g clip-path="url(#a)"><use xlink:href="#O" x="69.5" y="43.4" style="fill-opacity:0;stroke:#e377c2;stroke-linejoin:miter"/><use xlink:href="#O" x="217.3" y="90.3" style="fill-opacity:0;stroke:#e377c2;stroke-linejoin:miter"/><use xlink:href="#O" x="365.2" y="99.4" style="fill-opacity:0;stroke:#e377c2;stroke-linejoin:miter"/><use xlink:href="#O" x="513.1" y="110.2" style="fill-opacity:0;stroke:#e377c2;stroke-linejoin:miter"/><use xlink:href="#O" x="678.7" y="134.8" style="fill-opacity:0;stroke:#e377c2;stroke-linejoin:miter"/></g><path d="M39 389.3V27m670.2 362.3V27M39 389.3h670.2M39 26.9h670.2" style="fill:none;stroke:#000;stroke-width:.8;stroke-linejoin:miter;stroke-linecap:square"/><g transform="matrix(.12 0 0 -.12 310.7 20.9)"><defs><path id="P" d="M191 3500h609L1894 563l1094 2937h609L2284 0h-781z" transform="scale(.01563)"/></defs><use xlink:href="#o"/><use xlink:href="#p" transform="translate(68.6)"/><use xlink:href="#q" transform="translate(96.4)"/><use xlink:href="#r" transform="translate(135.6)"/><use xlink:href="#k" transform="translate(219.5)"/><use xlink:href="#s" transform="translate(283)"/><use xlink:href="#i" transform="translate(344.5)"/><use xlink:href="#t" transform="translate(417.4)"/><use xlink:href="#p" transform="translate(475.4)"/><use xlink:href="#u" transform="translate(503.2)"/><use xlink:href="#s" transform="translate(559.3)"/><use xlink:href="#v" transform="translate(620.8)"/><use xlink:href="#P" transform="translate(680.4)"/><use xlink:href="#r" transform="translate(739.5)"/><use xlink:href="#h" transform="translate(823.4)"/><use xlink:href="#i" transform="translate(893.3)"/><use xlink:href="#j" transform="translate(932.1)"/><use xlink:href="#k" transform="translate(993.3)"/></g><path d="M274.4 162.4h199.4q1.6 0 1.6-1.6V32.5q0-1.6-1.6-1.6H274.4q-1.6 0-1.6 1.6v128.3q0 1.6 1.6 1.6z" style="fill:#fff;opacity:.8;stroke:#ccc;stroke-linejoin:miter"/><path d="M276 37.4h16" style="fill:none;stroke:#1f77b4;stroke-width:1.5;stroke-linecap:square"/><use xlink:href="#B" x="284" y="37.4" style="fill:#1f77b4;stroke:#1f77b4"/><g transform="matrix(.08 0 0 -.08 298.4 40.2)"><defs><path id="Q" d="M3328 2828q216 388 516 572t706 184q547 0 844-383 297-382 297-1088V0h-578v2094q0 503-179 746-178 244-543 244-447 0-707-297-259-296-259-809V0h-578v2094q0 506-178 748t-550 242q-441 0-701-298-259-298-259-808V0H581v3500h578v-544q197 322 472 475t653 153q382 0 649-194 267-193 395-562" transform="scale(.01563)"/><path id="R" d="M2194 1759q-697 0-966-159t-269-544q0-306 202-486 202-179 548-179 479 0 768 339t289 901v128zm1147 238V0h-575v531q-197-318-491-470T1556-91q-537 0-855 302-317 302-317 808 0 590 395 890 396 300 1180 300h807v57q0 397-261 614t-733 217q-300 0-585-72-284-72-546-216v532q315 122 612 182 297 61 578 61 760 0 1135-394 375-393 375-1193" transform="scale(.01563)"/><path id="S" d="M3513 2113V0h-575v2094q0 497-194 743-194 247-581 247-466 0-735-297-269-296-269-809V0H581v3500h578v-544q207 316 486 472 280 156 646 156 603 0 912-373 310-373 310-1098" transform="scale(.01563)"/></defs><use xlink:href="#m"/><use xlink:href="#d" transform="translate(63.6)"/><use xlink:href="#w" transform="translate(159)"/><use xlink:href="#Q" transform="translate(198)"/><use xlink:href="#s" transform="translate(295.5)"/><use xlink:href="#R" transform="translate(357)"/><use xlink:href="#S" transform="translate(418.3)"/><use xlink:href="#A" transform="translate(481.6)"/></g><path d="M276 49.1h16" style="fill:none;stroke-dasharray:5.55,2.4;stroke-dashoffset:0;stroke:#1f77b4;stroke-width:1.5"/><use xlink:href="#C" x="284" y="49.1" style="fill-opacity:0;stroke:#1f77b4"/><g transform="matrix(.08 0 0 -.08 298.4 51.9)"><defs><path id="T" d="M4653 2053q-272 0-427-231-154-231-154-644 0-406 154-639 155-233 427-233 266 0 420 233 155 233 155 639 0 410-155 642-154 233-420 233m0 397q494 0 784-344 291-343 291-928 0-584-292-927-292-342-783-342-500 0-791 342-290 343-290 927 0 588 292 930t789 342M1428 4353q-269 0-424-233-154-232-154-639 0-412 153-644 153-231 425-231t426 231q155 232 155 644 0 403-156 637-156 235-425 235m2822 397h500L1831-91h-500zm-2822 0q494 0 787-342 294-342 294-927 0-590-292-931t-789-341-786 342q-289 343-289 930 0 582 290 925 291 344 785 344" transform="scale(.01563)"/></defs><use xlink:href="#m"/><use xlink:href="#d" transform="translate(63.6)"/><use xlink:href="#w" transform="translate(159)"/><use xlink:href="#c" transform="translate(198)"/><use xlink:href="#T" transform="translate(261.7)"/><use xlink:href="#r" transform="translate(388.5)"/><use xlink:href="#Q" transform="translate(440.6)"/><use xlink:href="#R" transform="translate(538)"/><use xlink:href="#v" transform="translate(599.3)"/><use xlink:href="#v" transform="translate(627)"/><use xlink:href="#s" transform="translate(654.8)"/><use xlink:href="#r" transform="translate(716.4)"/><use xlink:href="#q" transform="translate(768.5)"/><use xlink:href="#A" transform="translate(807.7)"/></g><path d="M276 60.8h16" style="fill:none;stroke-dasharray:1.5,2.475;stroke-dashoffset:0;stroke:#1f77b4;stroke-width:1.5"/><use xlink:href="#C" x="284" y="60.8" style="fill-opacity:0;stroke:#1f77b4"/><g transform="matrix(.08 0 0 -.08 298.4 63.6)"><defs><path id="U" d="M703 97v575q238-113 481-172 244-59 479-59 625 0 954 420 330 420 377 1277-181-269-460-413-278-144-615-144-700 0-1108 423-408 424-408 1159 0 718 425 1152 425 435 1131 435 810 0 1236-621 427-620 427-1801 0-1103-524-1761Q2575-91 1691-91q-238 0-482 47Q966 3 703 97m1256 1978q425 0 673 290 249 291 249 798 0 503-249 795-248 292-673 292t-673-292-248-795q0-507 248-798 248-290 673-290" transform="scale(.01563)"/><path id="V" d="M2906 1791q0 625-258 968-257 344-723 344-462 0-720-344-258-343-258-968 0-622 258-966t720-344q466 0 723 344 258 344 258 966m575-1357q0-893-397-1329-396-436-1215-436-303 0-572 45t-522 139v559q253-137 500-202 247-66 503-66 566 0 847 295t281 892v285q-178-310-456-463T1784 0Q1141 0 747 490 353 981 353 1791q0 812 394 1302 394 491 1037 491 388 0 666-153t456-462v531h575z" transform="scale(.01563)"/></defs><use xlink:href="#m"/><use xlink:href="#d" transform="translate(63.6)"/><use xlink:href="#w" transform="translate(159)"/><use xlink:href="#U" transform="translate(198)"/><use xlink:href="#c" transform="translate(261.7)"/><use xlink:href="#T" transform="translate(325.3)"/><use xlink:href="#v" transform="translate(452.1)"/><use xlink:href="#R" transform="translate(479.9)"/><use xlink:href="#i" transform="translate(541.2)"/><use xlink:href="#V" transform="translate(580.5)"/><use xlink:href="#s" transform="translate(644)"/><use xlink:href="#r" transform="translate(705.5)"/><use xlink:href="#q" transform="translate(757.6)"/><use xlink:href="#A" transform="translate(796.8)"/></g><path d="M276 72.6h16" style="fill:none;stroke:#ff7f0e;stroke-width:1.5;stroke-linecap:square"/><use xlink:href="#D" x="284" y="72.6" style="fill:#ff7f0e;stroke:#ff7f0e;stroke-linejoin:miter"/><g transform="matrix(.08 0 0 -.08 298.4 75.4)"><use xlink:href="#n"/><use xlink:href="#d" transform="translate(63.6)"/><use xlink:href="#w" transform="translate(159)"/><use xlink:href="#Q" transform="translate(198)"/><use xlink:href="#s" transform="translate(295.5)"/><use xlink:href="#R" transform="translate(357)"/><use xlink:href="#S" transform="translate(418.3)"/><use xlink:href="#A" transform="translate(481.6)"/></g><path d="M276 84.3h16" style="fill:none;stroke-dasharray:5.55,2.4;stroke-dashoffset:0;stroke:#ff7f0e;stroke-width:1.5"/><use xlink:href="#E" x="284" y="84.3" style="fill-opacity:0;stroke:#ff7f0e;stroke-linejoin:miter"/><g transform="matrix(.08 0 0 -.08 298.4 87.1)"><use xlink:href="#n"/><use xlink:href="#d" transform="translate(63.6)"/><use xlink:href="#w" transform="translate(159)"/><use xlink:href="#c" transform="translate(198)"/><use xlink:href="#T" transform="translate(261.7)"/><use xlink:href="#r" transform="translate(388.5)"/><use xlink:href="#Q" transform="translate(440.6)"/><use xlink:href="#R" transform="translate(538)"/><use xlink:href="#v" transform="translate(599.3)"/><use xlink:href="#v" transform="translate(627)"/><use xlink:href="#s" transform="translate(654.8)"/><use xlink:href="#r" transform="translate(716.4)"/><use xlink:href="#q" transform="translate(768.5)"/><use xlink:href="#A" transform="translate(807.7)"/></g><path d="M276 96h16" style="fill:none;stroke-dasharray:1.5,2.475;stroke-dashoffset:0;stroke:#ff7f0e;stroke-width:1.5"/><use xlink:href="#E" x="284" y="96.1" style="fill-opacity:0;stroke:#ff7f0e;stroke-linejoin:miter"/><g transform="matrix(.08 0 0 -.08 298.4 98.9)"><use xlink:href="#n"/><use xlink:href="#d" transform="translate(63.6)"/><use xlink:href="#w" transform="translate(159)"/><use xlink:href="#U" transform="translate(198)"/><use xlink:href="#c" transform="translate(261.7)"/><use xlink:href="#T" transform="translate(325.3)"/><use xlink:href="#v" transform="translate(452.1)"/><use xlink:href="#R" transform="translate(479.9)"/><use xlink:href="#i" transform="translate(541.2)"/><use xlink:href="#V" transform="translate(580.5)"/><use xlink:href="#s" transform="translate(644)"/><use xlink:href="#r" transform="translate(705.5)"/><use xlink:href="#q" transform="translate(757.6)"/><use xlink:href="#A" transform="translate(796.8)"/></g><path d="M276 107.8h16" style="fill:none;stroke:#2ca02c;stroke-width:1.5;stroke-linecap:square"/><use xlink:href="#F" x="284" y="107.8" style="fill:#2ca02c;stroke:#2ca02c;stroke-linejoin:miter"/><g transform="matrix(.08 0 0 -.08 298.4 110.6)"><use xlink:href="#c"/><use xlink:href="#d" transform="translate(63.6)"/><use xlink:href="#w" transform="translate(159)"/><use xlink:href="#Q" transform="translate(198)"/><use xlink:href="#s" transform="translate(295.5)"/><use xlink:href="#R" transform="translate(357)"/><use xlink:href="#S" transform="translate(418.3)"/><use xlink:href="#A" transform="translate(481.6)"/></g><path d="M276 119.6h16" style="fill:none;stroke-dasharray:5.55,2.4;stroke-dashoffset:0;stroke:#2ca02c;stroke-width:1.5"/><use xlink:href="#G" x="284" y="119.6" style="fill-opacity:0;stroke:#2ca02c;stroke-linejoin:miter"/><g transform="matrix(.08 0 0 -.08 298.4 122.4)"><use xlink:href="#c"/><use xlink:href="#d" transform="translate(63.6)"/><use xlink:href="#w" transform="translate(159)"/><use xlink:href="#c" transform="translate(198)"/><use xlink:href="#T" transform="translate(261.7)"/><use xlink:href="#r" transform="translate(388.5)"/><use xlink:href="#Q" transform="translate(440.6)"/><use xlink:href="#R" transform="translate(538)"/><use xlink:href="#v" transform="translate(599.3)"/><use xlink:href="#v" transform="translate(627)"/><use xlink:href="#s" transform="translate(654.8)"/><use xlink:href="#r" transform="translate(716.4)"/><use xlink:href="#q" transform="translate(768.5)"/><use xlink:href="#A" transform="translate(807.7)"/></g><path d="M276 131.3h16" style="fill:none;stroke-dasharray:1.5,2.475;stroke-dashoffset:0;stroke:#2ca02c;stroke-width:1.5"/><use xlink:href="#G" x="284" y="131.3" style="fill-opacity:0;stroke:#2ca02c;stroke-linejoin:miter"/><g transform="matrix(.08 0 0 -.08 298.4 134.1)"><use xlink:href="#c"/><use xlink:href="#d" transform="translate(63.6)"/><use xlink:href="#w" transform="translate(159)"/><use xlink:href="#U" transform="translate(198)"/><use xlink:href="#c" transform="translate(261.7)"/><use xlink:href="#T" transform="translate(325.3)"/><use xlink:href="#v" transform="translate(452.1)"/><use xlink:href="#R" transform="translate(479.9)"/><use xlink:href="#i" transform="translate(541.2)"/><use xlink:href="#V" transform="translate(580.5)"/><use xlink:href="#s" transform="translate(644)"/><use xlink:href="#r" transform="translate(705.5)"/><use xlink:href="#q" transform="translate(757.6)"/><use xlink:href="#A" transform="translate(796.8)"/></g><path d="M276 143h16" style="fill:none;stroke:#d62728;stroke-width:1.5;stroke-linecap:square"/><use xlink:href="#H" x="284" y="143" style="fill:#d62728;stroke:#d62728;stroke-linejoin:miter"/><g transform="matrix(.08 0 0 -.08 298.4 145.8)"><defs><path id="W" d="M2113 2584q-425 0-674-291-248-290-248-796 0-503 248-796 249-292 674-292t673 292q248 293 248 796 0 506-248 796-248 291-673 291m1253 1979v-575q-238 112-480 171-242 60-480 60-625 0-955-422-329-422-376-1275 184 272 462 417 279 145 613 145 703 0 1111-427 408-426 408-1160 0-719-425-1154Q2819-91 2113-91q-810 0-1238 620-428 621-428 1799 0 1106 525 1764t1409 658q238 0 480-47t505-140" transform="scale(.01563)"/></defs><use xlink:href="#W"/><use xlink:href="#d" transform="translate(63.6)"/><use xlink:href="#w" transform="translate(159)"/><use xlink:href="#Q" transform="translate(198)"/><use xlink:href="#s" transform="translate(295.5)"/><use xlink:href="#R" transform="translate(357)"/><use xlink:href="#S" transform="translate(418.3)"/><use xlink:href="#A" transform="translate(481.6)"/></g><path d="M276 154.8h16" style="fill:none;stroke-dasharray:5.55,2.4;stroke-dashoffset:0;stroke:#d62728;stroke-width:1.5"/><use xlink:href="#I" x="284" y="154.8" style="fill-opacity:0;stroke:#d62728;stroke-linejoin:miter"/><g transform="matrix(.08 0 0 -.08 298.4 157.6)"><use xlink:href="#W"/><use xlink:href="#d" transform="translate(63.6)"/><use xlink:href="#w" transform="translate(159)"/><use xlink:href="#c" transform="translate(198)"/><use xlink:href="#T" transform="translate(261.7)"/><use xlink:href="#r" transform="translate(388.5)"/><use xlink:href="#Q" transform="translate(440.6)"/><use xlink:href="#R" transform="translate(538)"/><use xlink:href="#v" transform="translate(599.3)"/><use xlink:href="#v" transform="translate(627)"/><use xlink:href="#s" transform="translate(654.8)"/><use xlink:href="#r" transform="translate(716.4)"/><use xlink:href="#q" transform="translate(768.5)"/><use xlink:href="#A" transform="translate(807.7)"/></g><path d="M382.1 37.4h16" style="fill:none;stroke-dasharray:1.5,2.475;stroke-dashoffset:0;stroke:#d62728;stroke-width:1.5"/><use xlink:href="#I" x="390.1" y="37.4" style="fill-opacity:0;stroke:#d62728;stroke-linejoin:miter"/><g transform="matrix(.08 0 0 -.08 404.5 40.2)"><use xlink:href="#W"/><use xlink:href="#d" transform="translate(63.6)"/><use xlink:href="#w" transform="translate(159)"/><use xlink:href="#U" transform="translate(198)"/><use xlink:href="#c" transform="translate(261.7)"/><use xlink:href="#T" transform="translate(325.3)"/><use xlink:href="#v" transform="translate(452.1)"/><use xlink:href="#R" transform="translate(479.9)"/><use xlink:href="#i" transform="translate(541.2)"/><use xlink:href="#V" transform="translate(580.5)"/><use xlink:href="#s" transform="translate(644)"/><use xlink:href="#r" transform="translate(705.5)"/><use xlink:href="#q" transform="translate(757.6)"/><use xlink:href="#A" transform="translate(796.8)"/></g><path d="M382.1 49.1h16" style="fill:none;stroke:#9467bd;stroke-width:1.5;stroke-linecap:square"/><use xlink:href="#J" x="390.1" y="49.1" style="fill:#9467bd;stroke:#9467bd;stroke-linejoin:miter"/><g transform="matrix(.08 0 0 -.08 404.5 51.9)"><use xlink:href="#e"/><use xlink:href="#d" transform="translate(63.6)"/><use xlink:href="#w" transform="translate(159)"/><use xlink:href="#Q" transform="translate(198)"/><use xlink:href="#s" transform="translate(295.5)"/><use xlink:href="#R" transform="translate(357)"/><use xlink:href="#S" transform="translate(418.3)"/><use xlink:href="#A" transform="translate(481.6)"/></g><path d="M382.1 60.8h16" style="fill:none;stroke-dasharray:5.55,2.4;stroke-dashoffset:0;stroke:#9467bd;stroke-width:1.5"/><use xlink:href="#K" x="390.1" y="60.8" style="fill-opacity:0;stroke:#9467bd;stroke-linejoin:miter"/><g transform="matrix(.08 0 0 -.08 404.5 63.6)"><use xlink:href="#e"/><use xlink:href="#d" transform="translate(63.6)"/><use xlink:href="#w" transform="translate(159)"/><use xlink:href="#c" transform="translate(198)"/><use xlink:href="#T" transform="translate(261.7)"/><use xlink:href="#r" transform="translate(388.5)"/><use xlink:href="#Q" transform="translate(440.6)"/><use xlink:href="#R" transform="translate(538)"/><use xlink:href="#v" transform="translate(599.3)"/><use xlink:href="#v" transform="translate(627)"/><use xlink:href="#s" transform="translate(654.8)"/><use xlink:href="#r" transform="translate(716.4)"/><use xlink:href="#q" transform="translate(768.5)"/><use xlink:href="#A" transform="translate(807.7)"/></g><path d="M382.1 72.6h16" style="fill:none;stroke-dasharray:1.5,2.475;stroke-dashoffset:0;stroke:#9467bd;stroke-width:1.5"/><use xlink:href="#K" x="390.1" y="72.6" style="fill-opacity:0;stroke:#9467bd;stroke-linejoin:miter"/><g transform="matrix(.08 0 0 -.08 404.5 75.4)"><use xlink:href="#e"/><use xlink:href="#d" transform="translate(63.6)"/><use xlink:href="#w" transform="translate(159)"/><use xlink:href="#U" transform="translate(198)"/><use xlink:href="#c" transform="translate(261.7)"/><use xlink:href="#T" transform="translate(325.3)"/><use xlink:href="#v" transform="translate(452.1)"/><use xlink:href="#R" transform="translate(479.9)"/><use xlink:href="#i" transform="translate(541.2)"/><use xlink:href="#V" transform="translate(580.5)"/><use xlink:href="#s" transform="translate(644)"/><use xlink:href="#r" transform="translate(705.5)"/><use xlink:href="#q" transform="translate(757.6)"/><use xlink:href="#A" transform="translate(796.8)"/></g><path d="M382.1 84.3h16" style="fill:none;stroke:#8c564b;stroke-width:1.5;stroke-linecap:square"/><use xlink:href="#L" x="390.1" y="84.3" style="fill:#8c564b;stroke:#8c564b;stroke-linejoin:miter"/><g transform="matrix(.08 0 0 -.08 404.5 87.1)"><defs><path id="X" d="M2034 2216q-450 0-708-241-257-241-257-662 0-422 257-663 258-241 708-241t709 242q260 243 260 662 0 421-258 662-257 241-711 241m-631 268q-406 100-633 378-226 279-226 679 0 559 398 884 399 325 1092 325 697 0 1094-325t397-884q0-400-227-679-226-278-629-378 456-106 710-416 255-309 255-755 0-679-414-1042Q2806-91 2034-91q-771 0-1186 362-414 363-414 1042 0 446 256 755 257 310 713 416m-231 997q0-362 226-565 227-203 636-203 407 0 636 203 230 203 230 565 0 363-230 566-229 203-636 203-409 0-636-203-226-203-226-566" transform="scale(.01563)"/></defs><use xlink:href="#X"/><use xlink:href="#d" transform="translate(63.6)"/><use xlink:href="#w" transform="translate(159)"/><use xlink:href="#Q" transform="translate(198)"/><use xlink:href="#s" transform="translate(295.5)"/><use xlink:href="#R" transform="translate(357)"/><use xlink:href="#S" transform="translate(418.3)"/><use xlink:href="#A" transform="translate(481.6)"/></g><path d="M382.1 96h16" style="fill:none;stroke-dasharray:5.55,2.4;stroke-dashoffset:0;stroke:#8c564b;stroke-width:1.5"/><use xlink:href="#M" x="390.1" y="96.1" style="fill-opacity:0;stroke:#8c564b;stroke-linejoin:miter"/><g transform="matrix(.08 0 0 -.08 404.5 98.9)"><use xlink:href="#X"/><use xlink:href="#d" transform="translate(63.6)"/><use xlink:href="#w" transform="translate(159)"/><use xlink:href="#c" transform="translate(198)"/><use xlink:href="#T" transform="translate(261.7)"/><use xlink:href="#r" transform="translate(388.5)"/><use xlink:href="#Q" transform="translate(440.6)"/><use xlink:href="#R" transform="translate(538)"/><use xlink:href="#v" transform="translate(599.3)"/><use xlink:href="#v" transform="translate(627)"/><use xlink:href="#s" transform="translate(654.8)"/><use xlink:href="#r" transform="translate(716.4)"/><use xlink:href="#q" transform="translate(768.5)"/><use xlink:href="#A" transform="translate(807.7)"/></g><path d="M382.1 107.8h16" style="fill:none;stroke-dasharray:1.5,2.475;stroke-dashoffset:0;stroke:#8c564b;stroke-width:1.5"/><use xlink:href="#M" x="390.1" y="107.8" style="fill-opacity:0;stroke:#8c564b;stroke-linejoin:miter"/><g transform="matrix(.08 0 0 -.08 404.5 110.6)"><use xlink:href="#X"/><use xlink:href="#d" transform="translate(63.6)"/><use xlink:href="#w" transform="translate(159)"/><use xlink:href="#U" transform="translate(198)"/><use xlink:href="#c" transform="translate(261.7)"/><use xlink:href="#T" transform="translate(325.3)"/><use xlink:href="#v" transform="translate(452.1)"/><use xlink:href="#R" transform="translate(479.9)"/><use xlink:href="#i" transform="translate(541.2)"/><use xlink:href="#V" transform="translate(580.5)"/><use xlink:href="#s" transform="translate(644)"/><use xlink:href="#r" transform="translate(705.5)"/><use xlink:href="#q" transform="translate(757.6)"/><use xlink:href="#A" transform="translate(796.8)"/></g><path d="M382.1 119.6h16" style="fill:none;stroke:#e377c2;stroke-width:1.5;stroke-linecap:square"/><use xlink:href="#N" x="390.1" y="119.6" style="fill:#e377c2;stroke:#e377c2;stroke-linejoin:miter"/><g transform="matrix(.08 0 0 -.08 404.5 122.4)"><use xlink:href="#U"/><use xlink:href="#d" transform="translate(63.6)"/><use xlink:href="#w" transform="translate(159)"/><use xlink:href="#Q" transform="translate(198)"/><use xlink:href="#s" transform="translate(295.5)"/><use xlink:href="#R" transform="translate(357)"/><use xlink:href="#S" transform="translate(418.3)"/><use xlink:href="#A" transform="translate(481.6)"/></g><path d="M382.1 131.3h16" style="fill:none;stroke-dasharray:5.55,2.4;stroke-dashoffset:0;stroke:#e377c2;stroke-width:1.5"/><use xlink:href="#O" x="390.1" y="131.3" style="fill-opacity:0;stroke:#e377c2;stroke-linejoin:miter"/><g transform="matrix(.08 0 0 -.08 404.5 134.1)"><use xlink:href="#U"/><use xlink:href="#d" transform="translate(63.6)"/><use xlink:href="#w" transform="translate(159)"/><use xlink:href="#c" transform="translate(198)"/><use xlink:href="#T" transform="translate(261.7)"/><use xlink:href="#r" transform="translate(388.5)"/><use xlink:href="#Q" transform="translate(440.6)"/><use xlink:href="#R" transform="translate(538)"/><use xlink:href="#v" transform="translate(599.3)"/><use xlink:href="#v" transform="translate(627)"/><use xlink:href="#s" transform="translate(654.8)"/><use xlink:href="#r" transform="translate(716.4)"/><use xlink:href="#q" transform="translate(768.5)"/><use xlink:href="#A" transform="translate(807.7)"/></g><path d="M382.1 143h16" style="fill:none;stroke-dasharray:1.5,2.475;stroke-dashoffset:0;stroke:#e377c2;stroke-width:1.5"/><use xlink:href="#O" x="390.1" y="143" style="fill-opacity:0;stroke:#e377c2;stroke-linejoin:miter"/><g transform="matrix(.08 0 0 -.08 404.5 145.8)"><use xlink:href="#U"/><use xlink:href="#d" transform="translate(63.6)"/><use xlink:href="#w" transform="translate(159)"/><use xlink:href="#U" transform="translate(198)"/><use xlink:href="#c" transform="translate(261.7)"/><use xlink:href="#T" transform="translate(325.3)"/><use xlink:href="#v" transform="translate(452.1)"/><use xlink:href="#R" transform="translate(479.9)"/><use xlink:href="#i" transform="translate(541.2)"/><use xlink:href="#V" transform="translate(580.5)"/><use xlink:href="#s" transform="translate(644)"/><use xlink:href="#r" transform="translate(705.5)"/><use xlink:href="#q" transform="translate(757.6)"/><use xlink:href="#A" transform="translate(796.8)"/></g><defs><clipPath id="a"><path d="M39 26.9h670.2v362.4H39z"/></clipPath></defs></svg>