<svg xmlns="http://www.w3.org/2000/svg" xmlns:xlink="http://www.w3.org/1999/xlink" width="960" height="576" viewBox="0 0 720 432"><path d="M0 432h720V0H0z" style="fill:#fff"/><path d="M39 389.3h670.2V27H39z" style="fill:#fff"/><path d="M99.3 389.3V27" clip-path="url(#a)" style="fill:none;stroke:#b0b0b0;stroke-opacity:.3;stroke-width:.8;stroke-linecap:square"/><defs><path id="b" d="M0 0v3.5" style="stroke:#000;stroke-width:.8"/></defs><use xlink:href="#b" x="99.3" y="389.3" style="stroke:#000;stroke-width:.8"/><g transform="matrix(.1 0 0 -.1 88.1 404)"><defs><path id="c" d="M2034 4250q-487 0-733-480-245-479-245-1442 0-959 245-1439 246-480 733-480 491 0 736 480 246 480 246 1439 0 963-246 1442-245 480-736 480m0 500q785 0 1199-621 414-620 414-1801 0-1178-414-1799Q2819-91 2034-91q-784 0-1198 620-414 621-414 1799 0 1181 414 1801 414 621 1198 621" transform="scale(.01563)"/><path id="d" d="M684 794h660V0H684z" transform="scale(.01563)"/><path id="e" d="M2034 2216q-450 0-708-241-257-241-257-662 0-422 257-663 258-241 708-241t709 242q260 243 260 662 0 421-258 662-257 241-711 241m-631 268q-406 100-633 378-226 279-226 679 0 559 398 884 399 325 1092 325 697 0 1094-325t397-884q0-400-227-679-226-278-629-378 456-106 710-416 255-309 255-755 0-679-414-1042Q2806-91 2034-91q-771 0-1186 362-414 363-414 1042 0 446 256 755 257 310 713 416m-231 997q0-362 226-565 227-203 636-203 407 0 636 203 230 203 230 565 0 363-230 566-229 203-636 203-409 0-636-203-226-203-226-566" transform="scale(.01563)"/></defs><use xlink:href="#c"/><use xlink:href="#d" transform="translate(63.6)"/><use xlink:href="#c" transform="translate(95.4)"/><use xlink:href="#e" transform="translate(159)"/></g><path d="M181.3 389.3V27" clip-path="url(#a)" style="fill:none;stroke:#b0b0b0;stroke-opacity:.3;stroke-width:.8;stroke-linecap:square"/><use xlink:href="#b" x="181.3" y="389.3" style="stroke:#000;stroke-width:.8"/><g transform="matrix(.1 0 0 -.1 170.2 404)"><defs><path id="f" d="M794 531h1031v3560L703 3866v575l1116 225h631V531h1031V0H794z" transform="scale(.01563)"/></defs><use xlink:href="#c"/><use xlink:href="#d" transform="translate(63.6)"/><use xlink:href="#f" transform="translate(95.4)"/><use xlink:href="#c" transform="translate(159)"/></g><path d="M263.3 389.3V27" clip-path="url(#a)" style="fill:none;stroke:#b0b0b0;stroke-opacity:.3;stroke-width:.8;stroke-linecap:square"/><use xlink:href="#b" x="263.3" y="389.3" style="stroke:#000;stroke-width:.8"/><g transform="matrix(.1 0 0 -.1 252.2 404)"><defs><path id="g" d="M1228 531h2203V0H469v531q359 372 979 998 621 627 780 809 303 340 423 576 121 236 121 464 0 372-261 606-261 235-680 235-297 0-627-103-329-103-704-313v638q381 153 712 231 332 78 607 78 725 0 1156-363 431-362 431-968 0-288-108-546-107-257-392-607-78-91-497-524-418-433-1181-1211" transform="scale(.01563)"/></defs><use xlink:href="#c"/><use xlink:href="#d" transform="translate(63.6)"/><use xlink:href="#f" transform="translate(95.4)"/><use xlink:href="#g" transform="translate(159)"/></g><path d="M345.3 389.3V27" clip-path="url(#a)" style="fill:none;stroke:#b0b0b0;stroke-opacity:.3;stroke-width:.8;stroke-linecap:square"/><use xlink:href="#b" x="345.3" y="389.3" style="stroke:#000;stroke-width:.8"/><g transform="matrix(.1 0 0 -.1 334.2 404)"><defs><path id="h" d="M2419 4116 825 1625h1594zm-166 550h794V1625h666v-525h-666V0h-628v1100H313v609z" transform="scale(.01563)"/></defs><use xlink:href="#c"/><use xlink:href="#d" transform="translate(63.6)"/><use xlink:href="#f" transform="translate(95.4)"/><use xlink:href="#h" transform="translate(159)"/></g><path d="M427.4 389.3V27" clip-path="url(#a)" style="fill:none;stroke:#b0b0b0;stroke-opacity:.3;stroke-width:.8;stroke-linecap:square"/><use xlink:href="#b" x="427.4" y="389.3" style="stroke:#000;stroke-width:.8"/><g transform="matrix(.1 0 0 -.1 416.2 404)"><defs><path id="i" d="M2113 2584q-425 0-674-291-248-290-248-796 0-503 248-796 249-292 674-292t673 292q248 293 248 796 0 506-248 796-248 291-673 291m1253 1979v-575q-238 112-480 171-242 60-480 60-625 0-955-422-329-422-376-1275 184 272 462 417 279 145 613 145 703 0 1111-427 408-426 408-1160 0-719-425-1154Q2819-91 2113-91q-810 0-1238 620-428 621-428 1799 0 1106 525 1764t1409 658q238 0 480-47t505-140" transform="scale(.01563)"/></defs><use xlink:href="#c"/><use xlink:href="#d" transform="translate(63.6)"/><use xlink:href="#f" transform="translate(95.4)"/><use xlink:href="#i" transform="translate(159)"/></g><path d="M509.4 389.3V27" clip-path="url(#a)" style="fill:none;stroke:#b0b0b0;stroke-opacity:.3;stroke-width:.8;stroke-linecap:square"/><use xlink:href="#b" x="509.4" y="389.3" style="stroke:#000;stroke-width:.8"/><g transform="matrix(.1 0 0 -.1 498.3 404)"><use xlink:href="#c"/><use xlink:href="#d" transform="translate(63.6)"/><use xlink:href="#f" transform="translate(95.4)"/><use xlink:href="#e" transform="translate(159)"/></g><path d="M591.4 389.3V27" clip-path="url(#a)" style="fill:none;stroke:#b0b0b0;stroke-opacity:.3;stroke-width:.8;stroke-linecap:square"/><use xlink:href="#b" x="591.4" y="389.3" style="stroke:#000;stroke-width:.8"/><g transform="matrix(.1 0 0 -.1 580.3 404)"><use xlink:href="#c"/><use xlink:href="#d" transform="translate(63.6)"/><use xlink:href="#g" transform="translate(95.4)"/><use xlink:href="#c" transform="translate(159)"/></g><path d="M673.4 389.3V27" clip-path="url(#a)" style="fill:none;stroke:#b0b0b0;stroke-opacity:.3;stroke-width:.8;stroke-linecap:square"/><use xlink:href="#b" x="673.4" y="389.3" style="stroke:#000;stroke-width:.8"/><g transform="matrix(.1 0 0 -.1 662.3 404)"><use xlink:href="#c"/><use xlink:href="#d" transform="translate(63.6)"/><use xlink:href="#g" transform="translate(95.4)"/><use xlink:href="#g" transform="translate(159)"/></g><g transform="matrix(.11 0 0 -.11 287.5 418.4)"><defs><path id="j" d="M1259 2228V519h1013q509 0 754 211 246 211 246 645 0 438-246 645-245 208-754 208zm0 1919V2741h935q462 0 688 173 227 174 227 530 0 353-227 528-226 175-688 175zm-631 519h1613q722 0 1112-300 391-300 391-853 0-429-200-682t-588-315q466-100 724-418 258-317 258-792 0-625-425-966Q3088 0 2303 0H628z" transform="scale(.01563)"/><path id="k" d="M2059-325q-243-625-475-815-231-191-618-191H506v481h338q237 0 368 113 132 112 291 531l103 262L191 3500h609L1894 763l1094 2737h609z" transform="scale(.01563)"/><path id="l" d="M1172 4494v-994h1184v-447H1172V1153q0-428 117-550t477-122h590V0h-590q-666 0-919 248-253 249-253 905v1900H172v447h422v994z" transform="scale(.01563)"/><path id="m" d="M3597 1894v-281H953q38-594 358-905t892-311q331 0 642 81t618 244V178Q3153 47 2828-22t-659-69q-838 0-1327 487-489 488-489 1320 0 859 464 1363 464 505 1252 505 706 0 1117-455 411-454 411-1235m-575 169q-6 471-264 752-258 282-683 282-481 0-770-272t-333-766z" transform="scale(.01563)"/><path id="n" d="M2834 3397v-544q-243 125-506 187-262 63-544 63-428 0-642-131t-214-394q0-200 153-314t616-217l197-44q612-131 870-370t258-667q0-488-386-773Q2250-91 1575-91q-281 0-586 55T347 128v594q319-166 628-249 309-82 613-82 406 0 624 139 219 139 219 392 0 234-158 359-157 125-692 241l-200 47q-534 112-772 345-237 233-237 639 0 494 350 762 350 269 994 269 318 0 599-47 282-46 519-140" transform="scale(.01563)"/><path id="o" d="M1159 525v-1856H581v4831h578v-531q182 312 458 463 277 152 661 152 638 0 1036-506 399-506 399-1331T3314 415Q2916-91 2278-91q-384 0-661 152-276 152-458 464m1957 1222q0 634-261 995t-717 361q-457 0-718-361t-261-995 261-995 718-361q456 0 717 361t261 995" transform="scale(.01563)"/><path id="p" d="M2631 2963q-97 56-211 82-114 27-251 27-488 0-749-317t-261-911V0H581v3500h578v-544q182 319 472 473 291 155 707 155 59 0 131-8 72-7 159-23z" transform="scale(.01563)"/><path id="q" d="M1259 4147V2394h794q441 0 681 228 241 228 241 650 0 419-241 647-240 228-681 228zm-631 519h1425q785 0 1186-355 402-355 402-1039 0-691-402-1044-401-353-1186-353h-794V0H628z" transform="scale(.01563)"/><path id="r" d="M603 3500h575V0H603zm0 1363h575v-729H603z" transform="scale(.01563)"/><path id="s" d="M3513 3500 2247 1797 3578 0h-678L1881 1375 863 0H184l1360 1831L300 3500h678l928-1247 928 1247z" transform="scale(.01563)"/><path id="t" d="M603 4863h575V0H603z" transform="scale(.01563)"/><path id="u" d="M1984 4856q-418-718-622-1422-203-703-203-1425 0-721 205-1429t620-1424h-500Q1016-109 783 600T550 2009q0 697 231 1403 232 707 703 1444z" transform="scale(.01563)"/><path id="v" d="M1959 3097q-462 0-731-361t-269-989 267-989q268-361 733-361 460 0 728 362 269 363 269 988 0 622-269 986-268 364-728 364m0 487q750 0 1178-488 429-487 429-1349 0-859-429-1349Q2709-91 1959-91q-753 0-1180 489-426 490-426 1349 0 862 426 1349 427 488 1180 488" transform="scale(.01563)"/><path id="w" d="M269 3500h575l719-2731 715 2731h678l719-2731 716 2731h575L4050 0h-678l-753 2869L1863 0h-679z" transform="scale(.01563)"/><path id="x" d="M3116 1747q0 634-261 995t-717 361q-457 0-718-361t-261-995 261-995 718-361q456 0 717 361t261 995M1159 2969q182 312 458 463 277 152 661 152 638 0 1036-506 399-506 399-1331T3314 415Q2916-91 2278-91q-384 0-661 152-276 152-458 464V0H581v4863h578z" transform="scale(.01563)"/><path id="y" d="M513 4856h500q468-737 701-1444 233-706 233-1403 0-700-233-1409T1013-844H513q415 716 620 1424t205 1429q0 722-205 1425-205 704-620 1422" transform="scale(.01563)"/></defs><use xlink:href="#j"/><use xlink:href="#k" transform="translate(68.6)"/><use xlink:href="#l" transform="translate(127.8)"/><use xlink:href="#m" transform="translate(167)"/><use xlink:href="#n" transform="translate(228.5)"/><use xlink:href="#o" transform="translate(312.4)"/><use xlink:href="#m" transform="translate(375.9)"/><use xlink:href="#p" transform="translate(437.4)"/><use xlink:href="#q" transform="translate(510.3)"/><use xlink:href="#r" transform="translate(568.4)"/><use xlink:href="#s" transform="translate(596.1)"/><use xlink:href="#m" transform="translate(652.2)"/><use xlink:href="#t" transform="translate(713.7)"/><use xlink:href="#u" transform="translate(773.3)"/><use xlink:href="#t" transform="translate(812.3)"/><use xlink:href="#v" transform="translate(840)"/><use xlink:href="#w" transform="translate(901.3)"/><use xlink:href="#m" transform="translate(983)"/><use xlink:href="#p" transform="translate(1044.6)"/><use xlink:href="#r" transform="translate(1117.5)"/><use xlink:href="#n" transform="translate(1145.3)"/><use xlink:href="#x" transform="translate(1229.1)"/><use xlink:href="#m" transform="translate(1292.6)"/><use xlink:href="#l" transform="translate(1354.1)"/><use xlink:href="#l" transform="translate(1393.4)"/><use xlink:href="#m" transform="translate(1432.6)"/><use xlink:href="#p" transform="translate(1494)"/><use xlink:href="#y" transform="translate(1535.2)"/></g><path d="M39 349h670.2" clip-path="url(#a)" style="fill:none;stroke:#b0b0b0;stroke-opacity:.3;stroke-width:.8;stroke-linecap:square"/><defs><path id="z" d="M0 0h-3.5" style="stroke:#000;stroke-width:.8"/></defs><use xlink:href="#z" x="39" y="349.1" style="stroke:#000;stroke-width:.8"/><use xlink:href="#g" transform="matrix(.1 0 0 -.1 25.6 352.9)"/><path d="M39 282.4h670.2" clip-path="url(#a)" style="fill:none;stroke:#b0b0b0;stroke-opacity:.3;stroke-width:.8;stroke-linecap:square"/><use xlink:href="#z" x="39" y="282.4" style="stroke:#000;stroke-width:.8"/><g transform="matrix(.1 0 0 -.1 25.6 286.2)"><defs><path id="A" d="M2597 2516q453-97 707-404 255-306 255-756 0-690-475-1069Q2609-91 1734-91q-293 0-604 58T488 141v609q262-153 574-231 313-78 654-78 593 0 904 234t311 681q0 413-289 645-289 233-804 233h-544v519h569q465 0 712 186t247 536q0 359-255 551-254 193-729 193-260 0-557-57-297-56-653-174v562q360 100 674 150t592 50q719 0 1137-327 419-326 419-882 0-388-222-655t-631-370" transform="scale(.01563)"/></defs><use xlink:href="#A"/></g><path d="M39 215.7h670.2" clip-path="url(#a)" style="fill:none;stroke:#b0b0b0;stroke-opacity:.3;stroke-width:.8;stroke-linecap:square"/><use xlink:href="#z" x="39" y="215.7" style="stroke:#000;stroke-width:.8"/><use xlink:href="#h" transform="matrix(.1 0 0 -.1 25.6 219.5)"/><path d="M39 149h670.2" clip-path="url(#a)" style="fill:none;stroke:#b0b0b0;stroke-opacity:.3;stroke-width:.8;stroke-linecap:square"/><use xlink:href="#z" x="39" y="149" style="stroke:#000;stroke-width:.8"/><g transform="matrix(.1 0 0 -.1 25.6 152.8)"><defs><path id="B" d="M691 4666h2478v-532H1269V2991q137 47 274 70 138 23 276 23 781 0 1237-428 457-428 457-1159 0-753-469-1171Q2575-91 1722-91q-294 0-599 50Q819 9 494 109v635q281-153 581-228t634-75q541 0 856 284 316 284 316 772 0 487-316 771-315 285-856 285-253 0-505-56-251-56-513-175z" transform="scale(.01563)"/></defs><use xlink:href="#B"/></g><path d="M39 82.3h670.2" clip-path="url(#a)" style="fill:none;stroke:#b0b0b0;stroke-opacity:.3;stroke-width:.8;stroke-linecap:square"/><use xlink:href="#z" x="39" y="82.3" style="stroke:#000;stroke-width:.8"/><use xlink:href="#i" transform="matrix(.1 0 0 -.1 25.6 86)"/><g transform="matrix(0 -.11 -.11 0 19.3 292.1)"><defs><path id="C" d="M556 4666h635V1831q0-750 271-1080 272-329 882-329 606 0 878 329 272 330 272 1080v2835h634V1753q0-912-452-1378Q3225-91 2344-91q-885 0-1337 466-451 466-451 1378z" transform="scale(.01563)"/><path id="D" d="M-19 4666h3947v-532H2272V0h-634v4134H-19z" transform="scale(.01563)"/><path id="E" d="M628 4666h2950v-532H1259V2753h2222v-531H1259V531h2375V0H628z" transform="scale(.01563)"/><path id="F" d="M2841 2188q203-69 395-294t386-619L4263 0h-679l-596 1197q-232 469-449 622t-592 153h-688V0H628v4666h1425q800 0 1194-335 394-334 394-1009 0-441-205-732-205-290-595-402M1259 4147V2491h794q456 0 689 211t233 620-233 617-689 208z" transform="scale(.01563)"/><path id="G" d="m2188 4044-857-2322h1716zm-357 622h716L4325 0h-656l-425 1197H1141L716 0H50z" transform="scale(.01563)"/><path id="H" d="M3809 666v1253H2778v519h1656V434q-365-259-806-392-440-133-940-133-1094 0-1712 639-617 640-617 1780 0 1144 617 1783 618 639 1712 639 456 0 867-113 411-112 758-331v-672q-350 297-744 447t-828 150q-857 0-1287-478-429-478-429-1425 0-944 429-1422 430-478 1287-478 334 0 596 58 263 58 472 180" transform="scale(.01563)"/><path id="I" d="M628 4666h631V531h2272V0H628z" transform="scale(.01563)"/><path id="J" d="M628 4666h631V0H628z" transform="scale(.01563)"/></defs><use xlink:href="#j"/><use xlink:href="#C" transform="translate(68.6)"/><use xlink:href="#D" transform="translate(141.8)"/><use xlink:href="#D" transform="translate(201.1)"/><use xlink:href="#E" transform="translate(262.2)"/><use xlink:href="#F" transform="translate(325.4)"/><use xlink:href="#G" transform="translate(390.9)"/><use xlink:href="#C" transform="translate(459.3)"/><use xlink:href="#H" transform="translate(532.5)"/><use xlink:href="#I" transform="translate(610)"/><use xlink:href="#J" transform="translate(665.7)"/><use xlink:href="#u" transform="translate(727)"/><use xlink:href="#t" transform="translate(766)"/><use xlink:href="#v" transform="translate(793.8)"/><use xlink:href="#w" transform="translate(855)"/><use xlink:href="#m" transform="translate(936.7)"/><use xlink:href="#p" transform="translate(998.3)"/><use xlink:href="#r" transform="translate(1071.2)"/><use xlink:href="#n" transform="translate(1099)"/><use xlink:href="#x" transform="translate(1182.8)"/><use xlink:href="#m" transform="translate(1246.3)"/><use xlink:href="#l" transform="translate(1307.8)"/><use xlink:href="#l" transform="translate(1347)"/><use xlink:href="#m" transform="translate(1386.2)"/><use xlink:href="#p" transform="translate(1447.8)"/><use xlink:href="#y" transform="translate(1488.9)"/></g><path d="m81.5 235.9-4-2-.1-5.2-1-1.2 1.5 2V225l2.4-12.6-10.8-61.9 3.1-13 32.6 10h0" clip-path="url(#a)" style="fill:none;stroke:#1f77b4;stroke-width:1.5;stroke-linecap:square"/><defs><path id="K" d="M0 3.5a3.5 3.5 0 1 0 0-7 3.5 3.5 0 0 0 0 7z" style="stroke:#1f77b4"/></defs><g clip-path="url(#a)"><use xlink:href="#K" x="81.5" y="235.9" style="fill:#1f77b4;stroke:#1f77b4"/><use xlink:href="#K" x="77.5" y="233.8" style="fill:#1f77b4;stroke:#1f77b4"/><use xlink:href="#K" x="77.4" y="228.7" style="fill:#1f77b4;stroke:#1f77b4"/><use xlink:href="#K" x="76.5" y="227.5" style="fill:#1f77b4;stroke:#1f77b4"/><use xlink:href="#K" x="77.9" y="229.5" style="fill:#1f77b4;stroke:#1f77b4"/><use xlink:href="#K" x="78" y="225.1" style="fill:#1f77b4;stroke:#1f77b4"/><use xlink:href="#K" x="80.3" y="212.5" style="fill:#1f77b4;stroke:#1f77b4"/><use xlink:href="#K" x="69.5" y="150.6" style="fill:#1f77b4;stroke:#1f77b4"/><use xlink:href="#K" x="72.6" y="137.6" style="fill:#1f77b4;stroke:#1f77b4"/><use xlink:href="#K" x="105.2" y="147.6" style="fill:#1f77b4;stroke:#1f77b4"/><use xlink:href="#K" x="105.2" y="147.6" style="fill:#1f77b4;stroke:#1f77b4"/></g><path d="m81.5 191.9-4 9-.1-7.2-1-27 1.5 14.8v3.3l2.4-53.3L69.5 46l3.1-2.5 32.6 9.6" clip-path="url(#a)" style="fill:none;stroke-dasharray:5.55,2.4;stroke-dashoffset:0;stroke:#1f77b4;stroke-width:1.5"/><defs><path id="L" d="M0 3.5a3.5 3.5 0 1 0 0-7 3.5 3.5 0 0 0 0 7z" style="stroke:#1f77b4"/></defs><g clip-path="url(#a)"><use xlink:href="#L" x="81.5" y="191.9" style="fill-opacity:0;stroke:#1f77b4"/><use xlink:href="#L" x="77.5" y="200.9" style="fill-opacity:0;stroke:#1f77b4"/><use xlink:href="#L" x="77.4" y="193.7" style="fill-opacity:0;stroke:#1f77b4"/><use xlink:href="#L" x="76.5" y="166.7" style="fill-opacity:0;stroke:#1f77b4"/><use xlink:href="#L" x="77.9" y="181.5" style="fill-opacity:0;stroke:#1f77b4"/><use xlink:href="#L" x="78" y="184.8" style="fill-opacity:0;stroke:#1f77b4"/><use xlink:href="#L" x="80.3" y="131.5" style="fill-opacity:0;stroke:#1f77b4"/><use xlink:href="#L" x="69.5" y="45.9" style="fill-opacity:0;stroke:#1f77b4"/><use xlink:href="#L" x="72.6" y="43.4" style="fill-opacity:0;stroke:#1f77b4"/><use xlink:href="#L" x="105.2" y="53" style="fill-opacity:0;stroke:#1f77b4"/><use xlink:href="#L" x="105.2" y="53" style="fill-opacity:0;stroke:#1f77b4"/></g><path d="m248.4 305.5-5.8-2.7.2-.6-.9 3 2-1.1-.8-4.7 3.5-12-14.5-34.5 6.6-9 49.6 1.2h0" clip-path="url(#a)" style="fill:none;stroke:#ff7f0e;stroke-width:1.5;stroke-linecap:square"/><defs><path id="M" d="M-3.5 3.5h7v-7h-7z" style="stroke:#ff7f0e;stroke-linejoin:miter"/></defs><g clip-path="url(#a)"><use xlink:href="#M" x="248.4" y="305.5" style="fill:#ff7f0e;stroke:#ff7f0e;stroke-linejoin:miter"/><use xlink:href="#M" x="242.6" y="302.8" style="fill:#ff7f0e;stroke:#ff7f0e;stroke-linejoin:miter"/><use xlink:href="#M" x="242.8" y="302.2" style="fill:#ff7f0e;stroke:#ff7f0e;stroke-linejoin:miter"/><use xlink:href="#M" x="241.9" y="305.1" style="fill:#ff7f0e;stroke:#ff7f0e;stroke-linejoin:miter"/><use xlink:href="#M" x="243.9" y="304.1" style="fill:#ff7f0e;stroke:#ff7f0e;stroke-linejoin:miter"/><use xlink:href="#M" x="243.1" y="299.4" style="fill:#ff7f0e;stroke:#ff7f0e;stroke-linejoin:miter"/><use xlink:href="#M" x="246.6" y="287.3" style="fill:#ff7f0e;stroke:#ff7f0e;stroke-linejoin:miter"/><use xlink:href="#M" x="232.1" y="252.9" style="fill:#ff7f0e;stroke:#ff7f0e;stroke-linejoin:miter"/><use xlink:href="#M" x="238.7" y="244" style="fill:#ff7f0e;stroke:#ff7f0e;stroke-linejoin:miter"/><use xlink:href="#M" x="288.3" y="245.1" style="fill:#ff7f0e;stroke:#ff7f0e;stroke-linejoin:miter"/><use xlink:href="#M" x="288.3" y="245.1" style="fill:#ff7f0e;stroke:#ff7f0e;stroke-linejoin:miter"/></g><path d="m248.4 275.9-5.8-1.2.2-12.4-.9 15.8 2-3.7-.8-8.1 3.5-16.2-14.5-72.2 6.6-25.7 49.6-3.9" clip-path="url(#a)" style="fill:none;stroke-dasharray:5.55,2.4;stroke-dashoffset:0;stroke:#ff7f0e;stroke-width:1.5"/><defs><path id="N" d="M-3.5 3.5h7v-7h-7z" style="stroke:#ff7f0e;stroke-linejoin:miter"/></defs><g clip-path="url(#a)"><use xlink:href="#N" x="248.4" y="275.9" style="fill-opacity:0;stroke:#ff7f0e;stroke-linejoin:miter"/><use xlink:href="#N" x="242.6" y="274.7" style="fill-opacity:0;stroke:#ff7f0e;stroke-linejoin:miter"/><use xlink:href="#N" x="242.8" y="262.3" style="fill-opacity:0;stroke:#ff7f0e;stroke-linejoin:miter"/><use xlink:href="#N" x="241.9" y="278.1" style="fill-opacity:0;stroke:#ff7f0e;stroke-linejoin:miter"/><use xlink:href="#N" x="243.9" y="274.4" style="fill-opacity:0;stroke:#ff7f0e;stroke-linejoin:miter"/><use xlink:href="#N" x="243.1" y="266.3" style="fill-opacity:0;stroke:#ff7f0e;stroke-linejoin:miter"/><use xlink:href="#N" x="246.6" y="250.1" style="fill-opacity:0;stroke:#ff7f0e;stroke-linejoin:miter"/><use xlink:href="#N" x="232.1" y="177.9" style="fill-opacity:0;stroke:#ff7f0e;stroke-linejoin:miter"/><use xlink:href="#N" x="238.7" y="152.2" style="fill-opacity:0;stroke:#ff7f0e;stroke-linejoin:miter"/><use xlink:href="#N" x="288.3" y="148.3" style="fill-opacity:0;stroke:#ff7f0e;stroke-linejoin:miter"/><use xlink:href="#N" x="288.3" y="148.3" style="fill-opacity:0;stroke:#ff7f0e;stroke-linejoin:miter"/></g><path d="m401.8 343-7.4-4.6.4-.8-.4-1.5 1 2.4-2-2.3 7.6-10.9-22.1-17.6 9.6-11.8 58.8.5h0" clip-path="url(#a)" style="fill:none;stroke:#2ca02c;stroke-width:1.5;stroke-linecap:square"/><defs><path id="O" d="m0-3.5-3.5 7h7z" style="stroke:#2ca02c;stroke-linejoin:miter"/></defs><g clip-path="url(#a)"><use xlink:href="#O" x="401.8" y="343" style="fill:#2ca02c;stroke:#2ca02c;stroke-linejoin:miter"/><use xlink:href="#O" x="394.4" y="338.4" style="fill:#2ca02c;stroke:#2ca02c;stroke-linejoin:miter"/><use xlink:href="#O" x="394.8" y="337.6" style="fill:#2ca02c;stroke:#2ca02c;stroke-linejoin:miter"/><use xlink:href="#O" x="394.4" y="336.1" style="fill:#2ca02c;stroke:#2ca02c;stroke-linejoin:miter"/><use xlink:href="#O" x="395.4" y="338.5" style="fill:#2ca02c;stroke:#2ca02c;stroke-linejoin:miter"/><use xlink:href="#O" x="393.4" y="336.2" style="fill:#2ca02c;stroke:#2ca02c;stroke-linejoin:miter"/><use xlink:href="#O" x="401" y="325.3" style="fill:#2ca02c;stroke:#2ca02c;stroke-linejoin:miter"/><use xlink:href="#O" x="378.9" y="307.7" style="fill:#2ca02c;stroke:#2ca02c;stroke-linejoin:miter"/><use xlink:href="#O" x="388.5" y="295.9" style="fill:#2ca02c;stroke:#2ca02c;stroke-linejoin:miter"/><use xlink:href="#O" x="447.3" y="296.4" style="fill:#2ca02c;stroke:#2ca02c;stroke-linejoin:miter"/><use xlink:href="#O" x="447.3" y="296.4" style="fill:#2ca02c;stroke:#2ca02c;stroke-linejoin:miter"/></g><path d="m401.8 318.6-7.4-16.3.4 13.5-.4-2.2 1 3.4-2-9.6 7.6-5.1-22.1-36.2 9.6-20.9 58.8 3.9" clip-path="url(#a)" style="fill:none;stroke-dasharray:5.55,2.4;stroke-dashoffset:0;stroke:#2ca02c;stroke-width:1.5"/><defs><path id="P" d="m0-3.5-3.5 7h7z" style="stroke:#2ca02c;stroke-linejoin:miter"/></defs><g clip-path="url(#a)"><use xlink:href="#P" x="401.8" y="318.6" style="fill-opacity:0;stroke:#2ca02c;stroke-linejoin:miter"/><use xlink:href="#P" x="394.4" y="302.3" style="fill-opacity:0;stroke:#2ca02c;stroke-linejoin:miter"/><use xlink:href="#P" x="394.8" y="315.8" style="fill-opacity:0;stroke:#2ca02c;stroke-linejoin:miter"/><use xlink:href="#P" x="394.4" y="313.6" style="fill-opacity:0;stroke:#2ca02c;stroke-linejoin:miter"/><use xlink:href="#P" x="395.4" y="317" style="fill-opacity:0;stroke:#2ca02c;stroke-linejoin:miter"/><use xlink:href="#P" x="393.4" y="307.4" style="fill-opacity:0;stroke:#2ca02c;stroke-linejoin:miter"/><use xlink:href="#P" x="401" y="302.3" style="fill-opacity:0;stroke:#2ca02c;stroke-linejoin:miter"/><use xlink:href="#P" x="378.9" y="266.1" style="fill-opacity:0;stroke:#2ca02c;stroke-linejoin:miter"/><use xlink:href="#P" x="388.5" y="245.2" style="fill-opacity:0;stroke:#2ca02c;stroke-linejoin:miter"/><use xlink:href="#P" x="447.3" y="249.1" style="fill-opacity:0;stroke:#2ca02c;stroke-linejoin:miter"/><use xlink:href="#P" x="447.3" y="249.1" style="fill-opacity:0;stroke:#2ca02c;stroke-linejoin:miter"/></g><path d="m622.2 372.8-10.2-2.3.4-.6-.4-2.6-.2.2-1.5-1.5 6.9-7.2-28.8-13.4 14-3 76.3-.3h0" clip-path="url(#a)" style="fill:none;stroke:#d62728;stroke-width:1.5;stroke-linecap:square"/><defs><path id="Q" d="m0 5 5-5-5-5-5 5z" style="stroke:#d62728;stroke-linejoin:miter"/></defs><g clip-path="url(#a)"><use xlink:href="#Q" x="622.2" y="372.8" style="fill:#d62728;stroke:#d62728;stroke-linejoin:miter"/><use xlink:href="#Q" x="612" y="370.5" style="fill:#d62728;stroke:#d62728;stroke-linejoin:miter"/><use xlink:href="#Q" x="612.4" y="369.9" style="fill:#d62728;stroke:#d62728;stroke-linejoin:miter"/><use xlink:href="#Q" x="612" y="367.3" style="fill:#d62728;stroke:#d62728;stroke-linejoin:miter"/><use xlink:href="#Q" x="611.8" y="367.5" style="fill:#d62728;stroke:#d62728;stroke-linejoin:miter"/><use xlink:href="#Q" x="610.3" y="366" style="fill:#d62728;stroke:#d62728;stroke-linejoin:miter"/><use xlink:href="#Q" x="617.2" y="358.8" style="fill:#d62728;stroke:#d62728;stroke-linejoin:miter"/><use xlink:href="#Q" x="588.4" y="345.4" style="fill:#d62728;stroke:#d62728;stroke-linejoin:miter"/><use xlink:href="#Q" x="602.4" y="342.5" style="fill:#d62728;stroke:#d62728;stroke-linejoin:miter"/><use xlink:href="#Q" x="678.7" y="342.1" style="fill:#d62728;stroke:#d62728;stroke-linejoin:miter"/><use xlink:href="#Q" x="678.7" y="342.1" style="fill:#d62728;stroke:#d62728;stroke-linejoin:miter"/></g><path d="m622.2 352.4-10.2-3 .4.4-.4-2.2-.2-3.2-1.5-9.3 6.9 2.4-28.8-28.5h14l76.3-12.7" clip-path="url(#a)" style="fill:none;stroke-dasharray:5.55,2.4;stroke-dashoffset:0;stroke:#d62728;stroke-width:1.5"/><defs><path id="R" d="m0 5 5-5-5-5-5 5z" style="stroke:#d62728;stroke-linejoin:miter"/></defs><g clip-path="url(#a)"><use xlink:href="#R" x="622.2" y="352.4" style="fill-opacity:0;stroke:#d62728;stroke-linejoin:miter"/><use xlink:href="#R" x="612" y="349.5" style="fill-opacity:0;stroke:#d62728;stroke-linejoin:miter"/><use xlink:href="#R" x="612.4" y="349.8" style="fill-opacity:0;stroke:#d62728;stroke-linejoin:miter"/><use xlink:href="#R" x="612" y="347.6" style="fill-opacity:0;stroke:#d62728;stroke-linejoin:miter"/><use xlink:href="#R" x="611.8" y="344.4" style="fill-opacity:0;stroke:#d62728;stroke-linejoin:miter"/><use xlink:href="#R" x="610.3" y="335.1" style="fill-opacity:0;stroke:#d62728;stroke-linejoin:miter"/><use xlink:href="#R" x="617.2" y="337.5" style="fill-opacity:0;stroke:#d62728;stroke-linejoin:miter"/><use xlink:href="#R" x="588.4" y="309" style="fill-opacity:0;stroke:#d62728;stroke-linejoin:miter"/><use xlink:href="#R" x="602.4" y="309" style="fill-opacity:0;stroke:#d62728;stroke-linejoin:miter"/><use xlink:href="#R" x="678.7" y="296.3" style="fill-opacity:0;stroke:#d62728;stroke-linejoin:miter"/><use xlink:href="#R" x="678.7" y="296.3" style="fill-opacity:0;stroke:#d62728;stroke-linejoin:miter"/></g><path d="M39 389.3V27m670.2 362.3V27M39 389.3h670.2M39 26.9h670.2" style="fill:none;stroke:#000;stroke-width:.8;stroke-linejoin:miter;stroke-linecap:square"/><g transform="matrix(.12 0 0 -.12 277.4 20.9)"><defs><path id="S" d="M191 3500h609L1894 563l1094 2937h609L2284 0h-781z" transform="scale(.01563)"/></defs><use xlink:href="#j"/><use xlink:href="#C" transform="translate(68.6)"/><use xlink:href="#D" transform="translate(141.8)"/><use xlink:href="#D" transform="translate(201.1)"/><use xlink:href="#E" transform="translate(262.2)"/><use xlink:href="#F" transform="translate(325.4)"/><use xlink:href="#G" transform="translate(390.9)"/><use xlink:href="#C" transform="translate(459.3)"/><use xlink:href="#H" transform="translate(532.5)"/><use xlink:href="#I" transform="translate(610)"/><use xlink:href="#J" transform="translate(665.7)"/><use xlink:href="#S" transform="translate(727)"/><use xlink:href="#n" transform="translate(786.1)"/><use xlink:href="#j" transform="translate(870)"/><use xlink:href="#k" transform="translate(938.6)"/><use xlink:href="#l" transform="translate(997.8)"/><use xlink:href="#m" transform="translate(1037)"/><use xlink:href="#n" transform="translate(1098.5)"/><use xlink:href="#o" transform="translate(1182.4)"/><use xlink:href="#m" transform="translate(1246)"/><use xlink:href="#p" transform="translate(1307.4)"/><use xlink:href="#q" transform="translate(1380.3)"/><use xlink:href="#r" transform="translate(1438.4)"/><use xlink:href="#s" transform="translate(1466.2)"/><use xlink:href="#m" transform="translate(1522.2)"/><use xlink:href="#t" transform="translate(1583.7)"/></g><path d="M527.1 80.3h176.5q1.6 0 1.6-1.6V32.5q0-1.6-1.6-1.6H527.1q-1.6 0-1.6 1.6v46.2q0 1.5 1.6 1.5z" style="fill:#fff;opacity:.8;stroke:#ccc;stroke-linejoin:miter"/><path d="M528.7 37.4h16" style="fill:none;stroke:#1f77b4;stroke-width:1.5;stroke-linecap:square"/><use xlink:href="#K" x="536.7" y="37.4" style="fill:#1f77b4;stroke:#1f77b4"/><g transform="matrix(.08 0 0 -.08 551.1 40.2)"><defs><path id="T" d="M3328 2828q216 388 516 572t706 184q547 0 844-383 297-382 297-1088V0h-578v2094q0 503-179 746-178 244-543 244-447 0-707-297-259-296-259-809V0h-578v2094q0 506-178 748t-550 242q-441 0-701-298-259-298-259-808V0H581v3500h578v-544q197 322 472 475t653 153q382 0 649-194 267-193 395-562" transform="scale(.01563)"/><path id="U" d="M2194 1759q-697 0-966-159t-269-544q0-306 202-486 202-179 548-179 479 0 768 339t289 901v128zm1147 238V0h-575v531q-197-318-491-470T1556-91q-537 0-855 302-317 302-317 808 0 590 395 890 396 300 1180 300h807v57q0 397-261 614t-733 217q-300 0-585-72-284-72-546-216v532q315 122 612 182 297 61 578 61 760 0 1135-394 375-393 375-1193" transform="scale(.01563)"/><path id="V" d="M3513 2113V0h-575v2094q0 497-194 743-194 247-581 247-466 0-735-297-269-296-269-809V0H581v3500h578v-544q207 316 486 472 280 156 646 156 603 0 912-373 310-373 310-1098" transform="scale(.01563)"/></defs><use xlink:href="#B"/><use xlink:href="#c" transform="translate(63.6)"/><use xlink:href="#u" transform="translate(159)"/><use xlink:href="#T" transform="translate(198)"/><use xlink:href="#m" transform="translate(295.5)"/><use xlink:href="#U" transform="translate(357)"/><use xlink:href="#V" transform="translate(418.3)"/><use xlink:href="#y" transform="translate(481.6)"/></g><path d="M528.7 49.1h16" style="fill:none;stroke-dasharray:5.55,2.4;stroke-dashoffset:0;stroke:#1f77b4;stroke-width:1.5"/><use xlink:href="#L" x="536.7" y="49.1" style="fill-opacity:0;stroke:#1f77b4"/><g transform="matrix(.08 0 0 -.08 551.1 51.9)"><defs><path id="W" d="M4653 2053q-272 0-427-231-154-231-154-644 0-406 154-639 155-233 427-233 266 0 420 233 155 233 155 639 0 410-155 642-154 233-420 233m0 397q494 0 784-344 291-343 291-928 0-584-292-927-292-342-783-342-500 0-791 342-290 343-290 927 0 588 292 930t789 342M1428 4353q-269 0-424-233-154-232-154-639 0-412 153-644 153-231 425-231t426 231q155 232 155 644 0 403-156 637-156 235-425 235m2822 397h500L1831-91h-500zm-2822 0q494 0 787-342 294-342 294-927 0-590-292-931t-789-341-786 342q-289 343-289 930 0 582 290 925 291 344 785 344" transform="scale(.01563)"/></defs><use xlink:href="#B"/><use xlink:href="#c" transform="translate(63.6)"/><use xlink:href="#u" transform="translate(159)"/><use xlink:href="#B" transform="translate(198)"/><use xlink:href="#W" transform="translate(261.7)"/><use xlink:href="#w" transform="translate(388.5)"/><use xlink:href="#v" transform="translate(470.3)"/><use xlink:href="#p" transform="translate(531.4)"/><use xlink:href="#n" transform="translate(572.6)"/><use xlink:href="#l" transform="translate(624.7)"/><use xlink:href="#y" transform="translate(663.9)"/></g><path d="M528.7 60.8h16" style="fill:none;stroke:#ff7f0e;stroke-width:1.5;stroke-linecap:square"/><use xlink:href="#M" x="536.7" y="60.8" style="fill:#ff7f0e;stroke:#ff7f0e;stroke-linejoin:miter"/><g transform="matrix(.08 0 0 -.08 551.1 63.6)"><use xlink:href="#i"/><use xlink:href="#c" transform="translate(63.6)"/><use xlink:href="#u" transform="translate(159)"/><use xlink:href="#T" transform="translate(198)"/><use xlink:href="#m" transform="translate(295.5)"/><use xlink:href="#U" transform="translate(357)"/><use xlink:href="#V" transform="translate(418.3)"/><use xlink:href="#y" transform="translate(481.6)"/></g><path d="M528.7 72.6h16" style="fill:none;stroke-dasharray:5.55,2.4;stroke-dashoffset:0;stroke:#ff7f0e;stroke-width:1.5"/><use xlink:href="#N" x="536.7" y="72.6" style="fill-opacity:0;stroke:#ff7f0e;stroke-linejoin:miter"/><g transform="matrix(.08 0 0 -.08 551.1 75.4)"><use xlink:href="#i"/><use xlink:href="#c" transform="translate(63.6)"/><use xlink:href="#u" transform="translate(159)"/><use xlink:href="#B" transform="translate(198)"/><use xlink:href="#W" transform="translate(261.7)"/><use xlink:href="#w" transform="translate(388.5)"/><use xlink:href="#v" transform="translate(470.3)"/><use xlink:href="#p" transform="translate(531.4)"/><use xlink:href="#n" transform="translate(572.6)"/><use xlink:href="#l" transform="translate(624.7)"/><use xlink:href="#y" transform="translate(663.9)"/></g><path d="M623.4 37.4h16" style="fill:none;stroke:#2ca02c;stroke-width:1.5;stroke-linecap:square"/><use xlink:href="#O" x="631.4" y="37.4" style="fill:#2ca02c;stroke:#2ca02c;stroke-linejoin:miter"/><g transform="matrix(.08 0 0 -.08 645.8 40.2)"><defs><path id="X" d="M525 4666h3000v-269L1831 0h-659l1594 4134H525z" transform="scale(.01563)"/></defs><use xlink:href="#X"/><use xlink:href="#c" transform="translate(63.6)"/><use xlink:href="#u" transform="translate(159)"/><use xlink:href="#T" transform="translate(198)"/><use xlink:href="#m" transform="translate(295.5)"/><use xlink:href="#U" transform="translate(357)"/><use xlink:href="#V" transform="translate(418.3)"/><use xlink:href="#y" transform="translate(481.6)"/></g><path d="M623.4 49.1h16" style="fill:none;stroke-dasharray:5.55,2.4;stroke-dashoffset:0;stroke:#2ca02c;stroke-width:1.5"/><use xlink:href="#P" x="631.4" y="49.1" style="fill-opacity:0;stroke:#2ca02c;stroke-linejoin:miter"/><g transform="matrix(.08 0 0 -.08 645.8 51.9)"><use xlink:href="#X"/><use xlink:href="#c" transform="translate(63.6)"/><use xlink:href="#u" transform="translate(159)"/><use xlink:href="#B" transform="translate(198)"/><use xlink:href="#W" transform="translate(261.7)"/><use xlink:href="#w" transform="translate(388.5)"/><use xlink:href="#v" transform="translate(470.3)"/><use xlink:href="#p" transform="translate(531.4)"/><use xlink:href="#n" transform="translate(572.6)"/><use xlink:href="#l" transform="translate(624.7)"/><use xlink:href="#y" transform="translate(663.9)"/></g><path d="M623.4 60.8h16" style="fill:none;stroke:#d62728;stroke-width:1.5;stroke-linecap:square"/><use xlink:href="#Q" x="631.4" y="60.8" style="fill:#d62728;stroke:#d62728;stroke-linejoin:miter"/><g transform="matrix(.08 0 0 -.08 645.8 63.6)"><use xlink:href="#e"/><use xlink:href="#c" transform="translate(63.6)"/><use xlink:href="#u" transform="translate(159)"/><use xlink:href="#T" transform="translate(198)"/><use xlink:href="#m" transform="translate(295.5)"/><use xlink:href="#U" transform="translate(357)"/><use xlink:href="#V" transform="translate(418.3)"/><use xlink:href="#y" transform="translate(481.6)"/></g><path d="M623.4 72.6h16" style="fill:none;stroke-dasharray:5.55,2.4;stroke-dashoffset:0;stroke:#d62728;stroke-width:1.5"/><use xlink:href="#R" x="631.4" y="72.6" style="fill-opacity:0;stroke:#d62728;stroke-linejoin:miter"/><g transform="matrix(.08 0 0 -.08 645.8 75.4)"><use xlink:href="#e"/><use xlink:href="#c" transform="translate(63.6)"/><use xlink:href="#u" transform="translate(159)"/><use xlink:href="#B" transform="translate(198)"/><use xlink:href="#W" transform="translate(261.7)"/><use xlink:href="#w" transform="translate(388.5)"/><use xlink:href="#v" transform="translate(470.3)"/><use xlink:href="#p" transform="translate(531.4)"/><use xlink:href="#n" transform="translate(572.6)"/><use xlink:href="#l" transform="translate(624.7)"/><use xlink:href="#y" transform="translate(663.9)"/></g><defs><clipPath id="a"><path d="M39 26.9h670.2v362.4H39z"/></clipPath></defs></svg>