<svg xmlns="http://www.w3.org/2000/svg" xmlns:xlink="http://www.w3.org/1999/xlink" width="960" height="576" viewBox="0 0 720 432"><path d="M0 432h720V0H0z" style="fill:#fff"/><path d="M61 389.3h648.2V27H61z" style="fill:#fff"/><path d="M90.5 389.3V27" clip-path="url(#a)" style="fill:none;stroke:#b0b0b0;stroke-opacity:.3;stroke-width:.8;stroke-linecap:square"/><defs><path id="b" d="M0 0v3.5" style="stroke:#000;stroke-width:.8"/></defs><use xlink:href="#b" x="90.5" y="389.3" style="stroke:#000;stroke-width:.8"/><g transform="matrix(.1 0 0 -.1 87.3 404)"><defs><path id="c" d="M2034 4250q-487 0-733-480-245-479-245-1442 0-959 245-1439 246-480 733-480 491 0 736 480 246 480 246 1439 0 963-246 1442-245 480-736 480m0 500q785 0 1199-621 414-620 414-1801 0-1178-414-1799Q2819-91 2034-91q-784 0-1198 620-414 621-414 1799 0 1181 414 1801 414 621 1198 621" transform="scale(.01563)"/></defs><use xlink:href="#c"/></g><path d="M208.3 389.3V27" clip-path="url(#a)" style="fill:none;stroke:#b0b0b0;stroke-opacity:.3;stroke-width:.8;stroke-linecap:square"/><use xlink:href="#b" x="208.3" y="389.3" style="stroke:#000;stroke-width:.8"/><g transform="matrix(.1 0 0 -.1 205.2 404)"><defs><path id="d" d="M1228 531h2203V0H469v531q359 372 979 998 621 627 780 809 303 340 423 576 121 236 121 464 0 372-261 606-261 235-680 235-297 0-627-103-329-103-704-313v638q381 153 712 231 332 78 607 78 725 0 1156-363 431-362 431-968 0-288-108-546-107-257-392-607-78-91-497-524-418-433-1181-1211" transform="scale(.01563)"/></defs><use xlink:href="#d"/></g><path d="M326.2 389.3V27" clip-path="url(#a)" style="fill:none;stroke:#b0b0b0;stroke-opacity:.3;stroke-width:.8;stroke-linecap:square"/><use xlink:href="#b" x="326.2" y="389.3" style="stroke:#000;stroke-width:.8"/><g transform="matrix(.1 0 0 -.1 323 404)"><defs><path id="e" d="M2419 4116 825 1625h1594zm-166 550h794V1625h666v-525h-666V0h-628v1100H313v609z" transform="scale(.01563)"/></defs><use xlink:href="#e"/></g><path d="M444 389.3V27" clip-path="url(#a)" style="fill:none;stroke:#b0b0b0;stroke-opacity:.3;stroke-width:.8;stroke-linecap:square"/><use xlink:href="#b" x="444" y="389.3" style="stroke:#000;stroke-width:.8"/><g transform="matrix(.1 0 0 -.1 440.9 404)"><defs><path id="f" d="M2113 2584q-425 0-674-291-248-290-248-796 0-503 248-796 249-292 674-292t673 292q248 293 248 796 0 506-248 796-248 291-673 291m1253 1979v-575q-238 112-480 171-242 60-480 60-625 0-955-422-329-422-376-1275 184 272 462 417 279 145 613 145 703 0 1111-427 408-426 408-1160 0-719-425-1154Q2819-91 2113-91q-810 0-1238 620-428 621-428 1799 0 1106 525 1764t1409 658q238 0 480-47t505-140" transform="scale(.01563)"/></defs><use xlink:href="#f"/></g><path d="M561.9 389.3V27" clip-path="url(#a)" style="fill:none;stroke:#b0b0b0;stroke-opacity:.3;stroke-width:.8;stroke-linecap:square"/><use xlink:href="#b" x="561.9" y="389.3" style="stroke:#000;stroke-width:.8"/><g transform="matrix(.1 0 0 -.1 558.7 404)"><defs><path id="g" d="M2034 2216q-450 0-708-241-257-241-257-662 0-422 257-663 258-241 708-241t709 242q260 243 260 662 0 421-258 662-257 241-711 241m-631 268q-406 100-633 378-226 279-226 679 0 559 398 884 399 325 1092 325 697 0 1094-325t397-884q0-400-227-679-226-278-629-378 456-106 710-416 255-309 255-755 0-679-414-1042Q2806-91 2034-91q-771 0-1186 362-414 363-414 1042 0 446 256 755 257 310 713 416m-231 997q0-362 226-565 227-203 636-203 407 0 636 203 230 203 230 565 0 363-230 566-229 203-636 203-409 0-636-203-226-203-226-566" transform="scale(.01563)"/></defs><use xlink:href="#g"/></g><path d="M679.7 389.3V27" clip-path="url(#a)" style="fill:none;stroke:#b0b0b0;stroke-opacity:.3;stroke-width:.8;stroke-linecap:square"/><use xlink:href="#b" x="679.7" y="389.3" style="stroke:#000;stroke-width:.8"/><g transform="matrix(.1 0 0 -.1 673.4 404)"><defs><path id="h" d="M794 531h1031v3560L703 3866v575l1116 225h631V531h1031V0H794z" transform="scale(.01563)"/></defs><use xlink:href="#h"/><use xlink:href="#c" transform="translate(63.6)"/></g><g transform="matrix(.11 0 0 -.11 367.9 418.4)"><defs><path id="i" d="M3425 4513v-616q-359 172-678 256-319 85-616 85-515 0-795-200t-280-569q0-310 186-468 186-157 705-254l381-78q706-135 1042-474t336-907q0-679-455-1029Q2797-91 1919-91q-331 0-705 75-373 75-773 222v650q384-215 753-325 369-109 725-109 540 0 834 212 294 213 294 607 0 343-211 537t-692 291l-385 75q-706 140-1022 440-315 300-315 835 0 619 436 975t1201 356q329 0 669-60 341-59 697-177" transform="scale(.01563)"/><path id="j" d="M1159 525v-1856H581v4831h578v-531q182 312 458 463 277 152 661 152 638 0 1036-506 399-506 399-1331T3314 415Q2916-91 2278-91q-384 0-661 152-276 152-458 464m1957 1222q0 634-261 995t-717 361q-457 0-718-361t-261-995 261-995 718-361q456 0 717 361t261 995" transform="scale(.01563)"/><path id="k" d="M3597 1894v-281H953q38-594 358-905t892-311q331 0 642 81t618 244V178Q3153 47 2828-22t-659-69q-838 0-1327 487-489 488-489 1320 0 859 464 1363 464 505 1252 505 706 0 1117-455 411-454 411-1235m-575 169q-6 471-264 752-258 282-683 282-481 0-770-272t-333-766z" transform="scale(.01563)"/><path id="l" d="M2906 2969v1894h575V0h-575v525q-181-312-458-464-276-152-664-152-634 0-1033 506-398 507-398 1332t398 1331q399 506 1033 506 388 0 664-152 277-151 458-463M947 1747q0-634 261-995t717-361 718 361q263 361 263 995t-263 995q-262 361-718 361t-717-361-261-995" transform="scale(.01563)"/></defs><use xlink:href="#i"/><use xlink:href="#j" transform="translate(63.5)"/><use xlink:href="#k" transform="translate(127)"/><use xlink:href="#k" transform="translate(188.5)"/><use xlink:href="#l" transform="translate(250)"/></g><path d="M61 374.3h648.2" clip-path="url(#a)" style="fill:none;stroke:#b0b0b0;stroke-opacity:.3;stroke-width:.8;stroke-linecap:square"/><defs><path id="m" d="M0 0h-3.5" style="stroke:#000;stroke-width:.8"/></defs><use xlink:href="#m" x="61" y="374.3" style="stroke:#000;stroke-width:.8"/><g transform="matrix(.1 0 0 -.1 25.4 378.1)"><defs><path id="n" d="M684 794h660V0H684z" transform="scale(.01563)"/></defs><use xlink:href="#c"/><use xlink:href="#n" transform="translate(63.6)"/><use xlink:href="#c" transform="translate(95.4)"/><use xlink:href="#c" transform="translate(159)"/><use xlink:href="#h" transform="translate(222.7)"/></g><path d="M61 323h648.2" clip-path="url(#a)" style="fill:none;stroke:#b0b0b0;stroke-opacity:.3;stroke-width:.8;stroke-linecap:square"/><use xlink:href="#m" x="61" y="323.1" style="stroke:#000;stroke-width:.8"/><g transform="matrix(.1 0 0 -.1 25.4 326.9)"><use xlink:href="#c"/><use xlink:href="#n" transform="translate(63.6)"/><use xlink:href="#c" transform="translate(95.4)"/><use xlink:href="#c" transform="translate(159)"/><use xlink:href="#d" transform="translate(222.7)"/></g><path d="M61 271.8h648.2" clip-path="url(#a)" style="fill:none;stroke:#b0b0b0;stroke-opacity:.3;stroke-width:.8;stroke-linecap:square"/><use xlink:href="#m" x="61" y="271.8" style="stroke:#000;stroke-width:.8"/><g transform="matrix(.1 0 0 -.1 25.4 275.6)"><defs><path id="o" d="M2597 2516q453-97 707-404 255-306 255-756 0-690-475-1069Q2609-91 1734-91q-293 0-604 58T488 141v609q262-153 574-231 313-78 654-78 593 0 904 234t311 681q0 413-289 645-289 233-804 233h-544v519h569q465 0 712 186t247 536q0 359-255 551-254 193-729 193-260 0-557-57-297-56-653-174v562q360 100 674 150t592 50q719 0 1137-327 419-326 419-882 0-388-222-655t-631-370" transform="scale(.01563)"/></defs><use xlink:href="#c"/><use xlink:href="#n" transform="translate(63.6)"/><use xlink:href="#c" transform="translate(95.4)"/><use xlink:href="#c" transform="translate(159)"/><use xlink:href="#o" transform="translate(222.7)"/></g><path d="M61 220.6h648.2" clip-path="url(#a)" style="fill:none;stroke:#b0b0b0;stroke-opacity:.3;stroke-width:.8;stroke-linecap:square"/><use xlink:href="#m" x="61" y="220.6" style="stroke:#000;stroke-width:.8"/><g transform="matrix(.1 0 0 -.1 25.4 224.4)"><use xlink:href="#c"/><use xlink:href="#n" transform="translate(63.6)"/><use xlink:href="#c" transform="translate(95.4)"/><use xlink:href="#c" transform="translate(159)"/><use xlink:href="#e" transform="translate(222.7)"/></g><path d="M61 169.4h648.2" clip-path="url(#a)" style="fill:none;stroke:#b0b0b0;stroke-opacity:.3;stroke-width:.8;stroke-linecap:square"/><use xlink:href="#m" x="61" y="169.4" style="stroke:#000;stroke-width:.8"/><g transform="matrix(.1 0 0 -.1 25.4 173.2)"><defs><path id="p" d="M691 4666h2478v-532H1269V2991q137 47 274 70 138 23 276 23 781 0 1237-428 457-428 457-1159 0-753-469-1171Q2575-91 1722-91q-294 0-599 50Q819 9 494 109v635q281-153 581-228t634-75q541 0 856 284 316 284 316 772 0 487-316 771-315 285-856 285-253 0-505-56-251-56-513-175z" transform="scale(.01563)"/></defs><use xlink:href="#c"/><use xlink:href="#n" transform="translate(63.6)"/><use xlink:href="#c" transform="translate(95.4)"/><use xlink:href="#c" transform="translate(159)"/><use xlink:href="#p" transform="translate(222.7)"/></g><path d="M61 118.1h648.2" clip-path="url(#a)" style="fill:none;stroke:#b0b0b0;stroke-opacity:.3;stroke-width:.8;stroke-linecap:square"/><use xlink:href="#m" x="61" y="118.1" style="stroke:#000;stroke-width:.8"/><g transform="matrix(.1 0 0 -.1 25.4 122)"><use xlink:href="#c"/><use xlink:href="#n" transform="translate(63.6)"/><use xlink:href="#c" transform="translate(95.4)"/><use xlink:href="#c" transform="translate(159)"/><use xlink:href="#f" transform="translate(222.7)"/></g><path d="M61 67h648.2" clip-path="url(#a)" style="fill:none;stroke:#b0b0b0;stroke-opacity:.3;stroke-width:.8;stroke-linecap:square"/><use xlink:href="#m" x="61" y="66.9" style="stroke:#000;stroke-width:.8"/><g transform="matrix(.1 0 0 -.1 25.4 70.7)"><defs><path id="q" d="M525 4666h3000v-269L1831 0h-659l1594 4134H525z" transform="scale(.01563)"/></defs><use xlink:href="#c"/><use xlink:href="#n" transform="translate(63.6)"/><use xlink:href="#c" transform="translate(95.4)"/><use xlink:href="#c" transform="translate(159)"/><use xlink:href="#q" transform="translate(222.7)"/></g><g transform="matrix(0 -.11 -.11 0 19.1 318.4)"><defs><path id="r" d="M1259 2228V519h1013q509 0 754 211 246 211 246 645 0 438-246 645-245 208-754 208zm0 1919V2741h935q462 0 688 173 227 174 227 530 0 353-227 528-226 175-688 175zm-631 519h1613q722 0 1112-300 391-300 391-853 0-429-200-682t-588-315q466-100 724-418 258-317 258-792 0-625-425-966Q3088 0 2303 0H628z" transform="scale(.01563)"/><path id="s" d="M2059-325q-243-625-475-815-231-191-618-191H506v481h338q237 0 368 113 132 112 291 531l103 262L191 3500h609L1894 763l1094 2737h609z" transform="scale(.01563)"/><path id="t" d="M1172 4494v-994h1184v-447H1172V1153q0-428 117-550t477-122h590V0h-590q-666 0-919 248-253 249-253 905v1900H172v447h422v994z" transform="scale(.01563)"/><path id="u" d="M2834 3397v-544q-243 125-506 187-262 63-544 63-428 0-642-131t-214-394q0-200 153-314t616-217l197-44q612-131 870-370t258-667q0-488-386-773Q2250-91 1575-91q-281 0-586 55T347 128v594q319-166 628-249 309-82 613-82 406 0 624 139 219 139 219 392 0 234-158 359-157 125-692 241l-200 47q-534 112-772 345-237 233-237 639 0 494 350 762 350 269 994 269 318 0 599-47 282-46 519-140" transform="scale(.01563)"/><path id="v" d="M1259 4147V2394h794q441 0 681 228 241 228 241 650 0 419-241 647-240 228-681 228zm-631 519h1425q785 0 1186-355 402-355 402-1039 0-691-402-1044-401-353-1186-353h-794V0H628z" transform="scale(.01563)"/><path id="w" d="M2631 2963q-97 56-211 82-114 27-251 27-488 0-749-317t-261-911V0H581v3500h578v-544q182 319 472 473 291 155 707 155 59 0 131-8 72-7 159-23z" transform="scale(.01563)"/><path id="x" d="M3513 2113V0h-575v2094q0 497-194 743-194 247-581 247-466 0-735-297-269-296-269-809V0H581v3500h578v-544q207 316 486 472 280 156 646 156 603 0 912-373 310-373 310-1098" transform="scale(.01563)"/><path id="y" d="M603 3500h575V0H603zm0 1363h575v-729H603z" transform="scale(.01563)"/><path id="z" d="M3513 3500 2247 1797 3578 0h-678L1881 1375 863 0H184l1360 1831L300 3500h678l928-1247 928 1247z" transform="scale(.01563)"/><path id="A" d="M603 4863h575V0H603z" transform="scale(.01563)"/><path id="B" d="M1984 4856q-418-718-622-1422-203-703-203-1425 0-721 205-1429t620-1424h-500Q1016-109 783 600T550 2009q0 697 231 1403 232 707 703 1444z" transform="scale(.01563)"/><path id="C" d="M1959 3097q-462 0-731-361t-269-989 267-989q268-361 733-361 460 0 728 362 269 363 269 988 0 622-269 986-268 364-728 364m0 487q750 0 1178-488 429-487 429-1349 0-859-429-1349Q2709-91 1959-91q-753 0-1180 489-426 490-426 1349 0 862 426 1349 427 488 1180 488" transform="scale(.01563)"/><path id="D" d="M269 3500h575l719-2731 715 2731h678l719-2731 716 2731h575L4050 0h-678l-753 2869L1863 0h-679z" transform="scale(.01563)"/><path id="E" d="M3116 1747q0 634-261 995t-717 361q-457 0-718-361t-261-995 261-995 718-361q456 0 717 361t261 995M1159 2969q182 312 458 463 277 152 661 152 638 0 1036-506 399-506 399-1331T3314 415Q2916-91 2278-91q-384 0-661 152-276 152-458 464V0H581v4863h578z" transform="scale(.01563)"/><path id="F" d="M513 4856h500q468-737 701-1444 233-706 233-1403 0-700-233-1409T1013-844H513q415 716 620 1424t205 1429q0 722-205 1425-205 704-620 1422" transform="scale(.01563)"/></defs><use xlink:href="#r"/><use xlink:href="#s" transform="translate(68.6)"/><use xlink:href="#t" transform="translate(127.8)"/><use xlink:href="#k" transform="translate(167)"/><use xlink:href="#u" transform="translate(228.5)"/><use xlink:href="#v" transform="translate(312.4)"/><use xlink:href="#k" transform="translate(369)"/><use xlink:href="#w" transform="translate(430.6)"/><use xlink:href="#v" transform="translate(503.5)"/><use xlink:href="#u" transform="translate(562)"/><use xlink:href="#x" transform="translate(614.2)"/><use xlink:href="#w" transform="translate(677.5)"/><use xlink:href="#v" transform="translate(750.4)"/><use xlink:href="#k" transform="translate(807.1)"/><use xlink:href="#w" transform="translate(868.6)"/><use xlink:href="#v" transform="translate(941.5)"/><use xlink:href="#y" transform="translate(999.6)"/><use xlink:href="#z" transform="translate(1027.4)"/><use xlink:href="#k" transform="translate(1083.4)"/><use xlink:href="#A" transform="translate(1145)"/><use xlink:href="#B" transform="translate(1204.5)"/><use xlink:href="#A" transform="translate(1243.5)"/><use xlink:href="#C" transform="translate(1271.3)"/><use xlink:href="#D" transform="translate(1332.5)"/><use xlink:href="#k" transform="translate(1414.3)"/><use xlink:href="#w" transform="translate(1475.8)"/><use xlink:href="#y" transform="translate(1548.7)"/><use xlink:href="#u" transform="translate(1576.5)"/><use xlink:href="#E" transform="translate(1660.4)"/><use xlink:href="#k" transform="translate(1723.9)"/><use xlink:href="#t" transform="translate(1785.4)"/><use xlink:href="#t" transform="translate(1824.6)"/><use xlink:href="#k" transform="translate(1863.8)"/><use xlink:href="#w" transform="translate(1925.3)"/><use xlink:href="#F" transform="translate(1966.4)"/></g><path d="m90.5 372 59 .4 58.8.2 59 .2 58.9-.3 59 .1 58.8-.7 59-2 58.9.1 59-4.7h58.8" clip-path="url(#a)" style="fill:none;stroke:#1f77b4;stroke-width:1.5;stroke-linecap:square"/><defs><path id="G" d="M0 3.5a3.5 3.5 0 1 0 0-7 3.5 3.5 0 0 0 0 7z" style="stroke:#1f77b4"/></defs><g clip-path="url(#a)"><use xlink:href="#G" x="90.5" y="371.9" style="fill:#1f77b4;stroke:#1f77b4"/><use xlink:href="#G" x="149.4" y="372.4" style="fill:#1f77b4;stroke:#1f77b4"/><use xlink:href="#G" x="208.3" y="372.6" style="fill:#1f77b4;stroke:#1f77b4"/><use xlink:href="#G" x="267.3" y="372.8" style="fill:#1f77b4;stroke:#1f77b4"/><use xlink:href="#G" x="326.2" y="372.5" style="fill:#1f77b4;stroke:#1f77b4"/><use xlink:href="#G" x="385.1" y="372.6" style="fill:#1f77b4;stroke:#1f77b4"/><use xlink:href="#G" x="444" y="371.9" style="fill:#1f77b4;stroke:#1f77b4"/><use xlink:href="#G" x="503" y="370" style="fill:#1f77b4;stroke:#1f77b4"/><use xlink:href="#G" x="561.9" y="370" style="fill:#1f77b4;stroke:#1f77b4"/><use xlink:href="#G" x="620.8" y="365.3" style="fill:#1f77b4;stroke:#1f77b4"/><use xlink:href="#G" x="679.7" y="365.3" style="fill:#1f77b4;stroke:#1f77b4"/></g><path d="m90.5 340.2 59 .8 58.8.2 59 .3 58.9-.7 59 .2 58.8-1 59 1.1h58.9l59-7.8h58.8" clip-path="url(#a)" style="fill:none;stroke-dasharray:5.55,2.4;stroke-dashoffset:0;stroke:#1f77b4;stroke-width:1.5"/><defs><path id="H" d="M0 3.5a3.5 3.5 0 1 0 0-7 3.5 3.5 0 0 0 0 7z" style="stroke:#1f77b4"/></defs><g clip-path="url(#a)"><use xlink:href="#H" x="90.5" y="340.2" style="fill-opacity:0;stroke:#1f77b4"/><use xlink:href="#H" x="149.4" y="341" style="fill-opacity:0;stroke:#1f77b4"/><use xlink:href="#H" x="208.3" y="341.2" style="fill-opacity:0;stroke:#1f77b4"/><use xlink:href="#H" x="267.3" y="341.5" style="fill-opacity:0;stroke:#1f77b4"/><use xlink:href="#H" x="326.2" y="340.8" style="fill-opacity:0;stroke:#1f77b4"/><use xlink:href="#H" x="385.1" y="341" style="fill-opacity:0;stroke:#1f77b4"/><use xlink:href="#H" x="444" y="340" style="fill-opacity:0;stroke:#1f77b4"/><use xlink:href="#H" x="503" y="341.1" style="fill-opacity:0;stroke:#1f77b4"/><use xlink:href="#H" x="561.9" y="341" style="fill-opacity:0;stroke:#1f77b4"/><use xlink:href="#H" x="620.8" y="333.3" style="fill-opacity:0;stroke:#1f77b4"/><use xlink:href="#H" x="679.7" y="333.3" style="fill-opacity:0;stroke:#1f77b4"/></g><path d="m90.5 333.5 59 1.2h58.8l59 .3 58.9-.4 59-.1 58.8-1.1 59-2.1 58.9-1.1 59-8h58.8" clip-path="url(#a)" style="fill:none;stroke:#ff7f0e;stroke-width:1.5;stroke-linecap:square"/><defs><path id="I" d="M-3.5 3.5h7v-7h-7z" style="stroke:#ff7f0e;stroke-linejoin:miter"/></defs><g clip-path="url(#a)"><use xlink:href="#I" x="90.5" y="333.5" style="fill:#ff7f0e;stroke:#ff7f0e;stroke-linejoin:miter"/><use xlink:href="#I" x="149.4" y="334.7" style="fill:#ff7f0e;stroke:#ff7f0e;stroke-linejoin:miter"/><use xlink:href="#I" x="208.3" y="334.8" style="fill:#ff7f0e;stroke:#ff7f0e;stroke-linejoin:miter"/><use xlink:href="#I" x="267.3" y="335" style="fill:#ff7f0e;stroke:#ff7f0e;stroke-linejoin:miter"/><use xlink:href="#I" x="326.2" y="334.6" style="fill:#ff7f0e;stroke:#ff7f0e;stroke-linejoin:miter"/><use xlink:href="#I" x="385.1" y="334.5" style="fill:#ff7f0e;stroke:#ff7f0e;stroke-linejoin:miter"/><use xlink:href="#I" x="444" y="333.4" style="fill:#ff7f0e;stroke:#ff7f0e;stroke-linejoin:miter"/><use xlink:href="#I" x="503" y="331.3" style="fill:#ff7f0e;stroke:#ff7f0e;stroke-linejoin:miter"/><use xlink:href="#I" x="561.9" y="330.2" style="fill:#ff7f0e;stroke:#ff7f0e;stroke-linejoin:miter"/><use xlink:href="#I" x="620.8" y="322.3" style="fill:#ff7f0e;stroke:#ff7f0e;stroke-linejoin:miter"/><use xlink:href="#I" x="679.7" y="322.3" style="fill:#ff7f0e;stroke:#ff7f0e;stroke-linejoin:miter"/></g><path d="m90.5 277.8 59 2.2 58.8.2 59 .2 58.9-.8 59-.4 58.8-1.6 59 3.4 58.9-1.3 59-13h58.8" clip-path="url(#a)" style="fill:none;stroke-dasharray:5.55,2.4;stroke-dashoffset:0;stroke:#ff7f0e;stroke-width:1.5"/><defs><path id="J" d="M-3.5 3.5h7v-7h-7z" style="stroke:#ff7f0e;stroke-linejoin:miter"/></defs><g clip-path="url(#a)"><use xlink:href="#J" x="90.5" y="277.8" style="fill-opacity:0;stroke:#ff7f0e;stroke-linejoin:miter"/><use xlink:href="#J" x="149.4" y="280" style="fill-opacity:0;stroke:#ff7f0e;stroke-linejoin:miter"/><use xlink:href="#J" x="208.3" y="280.2" style="fill-opacity:0;stroke:#ff7f0e;stroke-linejoin:miter"/><use xlink:href="#J" x="267.3" y="280.4" style="fill-opacity:0;stroke:#ff7f0e;stroke-linejoin:miter"/><use xlink:href="#J" x="326.2" y="279.6" style="fill-opacity:0;stroke:#ff7f0e;stroke-linejoin:miter"/><use xlink:href="#J" x="385.1" y="279.2" style="fill-opacity:0;stroke:#ff7f0e;stroke-linejoin:miter"/><use xlink:href="#J" x="444" y="277.6" style="fill-opacity:0;stroke:#ff7f0e;stroke-linejoin:miter"/><use xlink:href="#J" x="503" y="281" style="fill-opacity:0;stroke:#ff7f0e;stroke-linejoin:miter"/><use xlink:href="#J" x="561.9" y="279.7" style="fill-opacity:0;stroke:#ff7f0e;stroke-linejoin:miter"/><use xlink:href="#J" x="620.8" y="266.8" style="fill-opacity:0;stroke:#ff7f0e;stroke-linejoin:miter"/><use xlink:href="#J" x="679.7" y="266.8" style="fill-opacity:0;stroke:#ff7f0e;stroke-linejoin:miter"/></g><path d="m90.5 267.3 59 2 58.8.1h59l58.9-.4 59 .2 58.8-1.4 59-1.5 58.9-3.4 59-12h58.8" clip-path="url(#a)" style="fill:none;stroke:#2ca02c;stroke-width:1.5;stroke-linecap:square"/><defs><path id="K" d="m0-3.5-3.5 7h7z" style="stroke:#2ca02c;stroke-linejoin:miter"/></defs><g clip-path="url(#a)"><use xlink:href="#K" x="90.5" y="267.3" style="fill:#2ca02c;stroke:#2ca02c;stroke-linejoin:miter"/><use xlink:href="#K" x="149.4" y="269.4" style="fill:#2ca02c;stroke:#2ca02c;stroke-linejoin:miter"/><use xlink:href="#K" x="208.3" y="269.4" style="fill:#2ca02c;stroke:#2ca02c;stroke-linejoin:miter"/><use xlink:href="#K" x="267.3" y="269.5" style="fill:#2ca02c;stroke:#2ca02c;stroke-linejoin:miter"/><use xlink:href="#K" x="326.2" y="269" style="fill:#2ca02c;stroke:#2ca02c;stroke-linejoin:miter"/><use xlink:href="#K" x="385.1" y="269.2" style="fill:#2ca02c;stroke:#2ca02c;stroke-linejoin:miter"/><use xlink:href="#K" x="444" y="267.8" style="fill:#2ca02c;stroke:#2ca02c;stroke-linejoin:miter"/><use xlink:href="#K" x="503" y="266.3" style="fill:#2ca02c;stroke:#2ca02c;stroke-linejoin:miter"/><use xlink:href="#K" x="561.9" y="262.9" style="fill:#2ca02c;stroke:#2ca02c;stroke-linejoin:miter"/><use xlink:href="#K" x="620.8" y="251" style="fill:#2ca02c;stroke:#2ca02c;stroke-linejoin:miter"/><use xlink:href="#K" x="679.7" y="251" style="fill:#2ca02c;stroke:#2ca02c;stroke-linejoin:miter"/></g><path d="m90.5 169.3 59 3.8 58.8.2 59-.2 58.9-.4 59-.3 58.8-1.6 59 7.4 58.9-2.5 59-17.5h58.8" clip-path="url(#a)" style="fill:none;stroke-dasharray:5.55,2.4;stroke-dashoffset:0;stroke:#2ca02c;stroke-width:1.5"/><defs><path id="L" d="m0-3.5-3.5 7h7z" style="stroke:#2ca02c;stroke-linejoin:miter"/></defs><g clip-path="url(#a)"><use xlink:href="#L" x="90.5" y="169.3" style="fill-opacity:0;stroke:#2ca02c;stroke-linejoin:miter"/><use xlink:href="#L" x="149.4" y="173.1" style="fill-opacity:0;stroke:#2ca02c;stroke-linejoin:miter"/><use xlink:href="#L" x="208.3" y="173.3" style="fill-opacity:0;stroke:#2ca02c;stroke-linejoin:miter"/><use xlink:href="#L" x="267.3" y="173.1" style="fill-opacity:0;stroke:#2ca02c;stroke-linejoin:miter"/><use xlink:href="#L" x="326.2" y="172.7" style="fill-opacity:0;stroke:#2ca02c;stroke-linejoin:miter"/><use xlink:href="#L" x="385.1" y="172.4" style="fill-opacity:0;stroke:#2ca02c;stroke-linejoin:miter"/><use xlink:href="#L" x="444" y="170.8" style="fill-opacity:0;stroke:#2ca02c;stroke-linejoin:miter"/><use xlink:href="#L" x="503" y="178.2" style="fill-opacity:0;stroke:#2ca02c;stroke-linejoin:miter"/><use xlink:href="#L" x="561.9" y="175.7" style="fill-opacity:0;stroke:#2ca02c;stroke-linejoin:miter"/><use xlink:href="#L" x="620.8" y="158.2" style="fill-opacity:0;stroke:#2ca02c;stroke-linejoin:miter"/><use xlink:href="#L" x="679.7" y="158.2" style="fill-opacity:0;stroke:#2ca02c;stroke-linejoin:miter"/></g><path d="m90.5 190 59 3.2h117.8l58.9-.3 59-.1 58.8-2.5 59 1.7 58.9-5.8 59-15.1h58.8" clip-path="url(#a)" style="fill:none;stroke:#d62728;stroke-width:1.5;stroke-linecap:square"/><defs><path id="M" d="m0 5 5-5-5-5-5 5z" style="stroke:#d62728;stroke-linejoin:miter"/></defs><g clip-path="url(#a)"><use xlink:href="#M" x="90.5" y="190.1" style="fill:#d62728;stroke:#d62728;stroke-linejoin:miter"/><use xlink:href="#M" x="149.4" y="193.2" style="fill:#d62728;stroke:#d62728;stroke-linejoin:miter"/><use xlink:href="#M" x="208.3" y="193.3" style="fill:#d62728;stroke:#d62728;stroke-linejoin:miter"/><use xlink:href="#M" x="267.3" y="193.1" style="fill:#d62728;stroke:#d62728;stroke-linejoin:miter"/><use xlink:href="#M" x="326.2" y="192.9" style="fill:#d62728;stroke:#d62728;stroke-linejoin:miter"/><use xlink:href="#M" x="385.1" y="192.8" style="fill:#d62728;stroke:#d62728;stroke-linejoin:miter"/><use xlink:href="#M" x="444" y="190.3" style="fill:#d62728;stroke:#d62728;stroke-linejoin:miter"/><use xlink:href="#M" x="503" y="192" style="fill:#d62728;stroke:#d62728;stroke-linejoin:miter"/><use xlink:href="#M" x="561.9" y="186.2" style="fill:#d62728;stroke:#d62728;stroke-linejoin:miter"/><use xlink:href="#M" x="620.8" y="171.1" style="fill:#d62728;stroke:#d62728;stroke-linejoin:miter"/><use xlink:href="#M" x="679.7" y="171.1" style="fill:#d62728;stroke:#d62728;stroke-linejoin:miter"/></g><path d="m90.5 56.3 59 4h58.8l59-.7h58.9l59-1.4 58.8-2.7 59 10.9 58.9-3 59-20h58.8" clip-path="url(#a)" style="fill:none;stroke-dasharray:5.55,2.4;stroke-dashoffset:0;stroke:#d62728;stroke-width:1.5"/><defs><path id="N" d="m0 5 5-5-5-5-5 5z" style="stroke:#d62728;stroke-linejoin:miter"/></defs><g clip-path="url(#a)"><use xlink:href="#N" x="90.5" y="56.3" style="fill-opacity:0;stroke:#d62728;stroke-linejoin:miter"/><use xlink:href="#N" x="149.4" y="60.3" style="fill-opacity:0;stroke:#d62728;stroke-linejoin:miter"/><use xlink:href="#N" x="208.3" y="60.3" style="fill-opacity:0;stroke:#d62728;stroke-linejoin:miter"/><use xlink:href="#N" x="267.3" y="59.6" style="fill-opacity:0;stroke:#d62728;stroke-linejoin:miter"/><use xlink:href="#N" x="326.2" y="59.7" style="fill-opacity:0;stroke:#d62728;stroke-linejoin:miter"/><use xlink:href="#N" x="385.1" y="58.2" style="fill-opacity:0;stroke:#d62728;stroke-linejoin:miter"/><use xlink:href="#N" x="444" y="55.5" style="fill-opacity:0;stroke:#d62728;stroke-linejoin:miter"/><use xlink:href="#N" x="503" y="66.4" style="fill-opacity:0;stroke:#d62728;stroke-linejoin:miter"/><use xlink:href="#N" x="561.9" y="63.3" style="fill-opacity:0;stroke:#d62728;stroke-linejoin:miter"/><use xlink:href="#N" x="620.8" y="43.4" style="fill-opacity:0;stroke:#d62728;stroke-linejoin:miter"/><use xlink:href="#N" x="679.7" y="43.4" style="fill-opacity:0;stroke:#d62728;stroke-linejoin:miter"/></g><path d="M61 389.3V27m648.2 362.3V27M61 389.3h648.2M61 26.9h648.2" style="fill:none;stroke:#000;stroke-width:.8;stroke-linejoin:miter;stroke-linecap:square"/><g transform="matrix(.12 0 0 -.12 285.5 20.9)"><defs><path id="O" d="M191 3500h609L1894 563l1094 2937h609L2284 0h-781z" transform="scale(.01563)"/></defs><use xlink:href="#r"/><use xlink:href="#s" transform="translate(68.6)"/><use xlink:href="#t" transform="translate(127.8)"/><use xlink:href="#k" transform="translate(167)"/><use xlink:href="#u" transform="translate(228.5)"/><use xlink:href="#v" transform="translate(312.4)"/><use xlink:href="#k" transform="translate(369)"/><use xlink:href="#w" transform="translate(430.6)"/><use xlink:href="#v" transform="translate(503.5)"/><use xlink:href="#u" transform="translate(562)"/><use xlink:href="#x" transform="translate(614.2)"/><use xlink:href="#w" transform="translate(677.5)"/><use xlink:href="#v" transform="translate(750.4)"/><use xlink:href="#k" transform="translate(807.1)"/><use xlink:href="#w" transform="translate(868.6)"/><use xlink:href="#v" transform="translate(941.5)"/><use xlink:href="#y" transform="translate(999.6)"/><use xlink:href="#z" transform="translate(1027.4)"/><use xlink:href="#k" transform="translate(1083.4)"/><use xlink:href="#A" transform="translate(1145)"/><use xlink:href="#O" transform="translate(1204.5)"/><use xlink:href="#u" transform="translate(1263.7)"/><use xlink:href="#i" transform="translate(1347.6)"/><use xlink:href="#j" transform="translate(1411)"/><use xlink:href="#k" transform="translate(1474.5)"/><use xlink:href="#k" transform="translate(1536)"/><use xlink:href="#l" transform="translate(1597.6)"/></g><path d="M527.1 232.8h176.5q1.6 0 1.6-1.6V185q0-1.6-1.6-1.6H527.1q-1.6 0-1.6 1.6v46.2q0 1.6 1.6 1.6z" style="fill:#fff;opacity:.8;stroke:#ccc;stroke-linejoin:miter"/><path d="M528.7 189.9h16" style="fill:none;stroke:#1f77b4;stroke-width:1.5;stroke-linecap:square"/><use xlink:href="#G" x="536.7" y="189.9" style="fill:#1f77b4;stroke:#1f77b4"/><g transform="matrix(.08 0 0 -.08 551.1 192.7)"><defs><path id="P" d="M3328 2828q216 388 516 572t706 184q547 0 844-383 297-382 297-1088V0h-578v2094q0 503-179 746-178 244-543 244-447 0-707-297-259-296-259-809V0h-578v2094q0 506-178 748t-550 242q-441 0-701-298-259-298-259-808V0H581v3500h578v-544q197 322 472 475t653 153q382 0 649-194 267-193 395-562" transform="scale(.01563)"/><path id="Q" d="M2194 1759q-697 0-966-159t-269-544q0-306 202-486 202-179 548-179 479 0 768 339t289 901v128zm1147 238V0h-575v531q-197-318-491-470T1556-91q-537 0-855 302-317 302-317 808 0 590 395 890 396 300 1180 300h807v57q0 397-261 614t-733 217q-300 0-585-72-284-72-546-216v532q315 122 612 182 297 61 578 61 760 0 1135-394 375-393 375-1193" transform="scale(.01563)"/></defs><use xlink:href="#o"/><use xlink:href="#p" transform="translate(63.6)"/><use xlink:href="#B" transform="translate(159)"/><use xlink:href="#P" transform="translate(198)"/><use xlink:href="#k" transform="translate(295.5)"/><use xlink:href="#Q" transform="translate(357)"/><use xlink:href="#x" transform="translate(418.3)"/><use xlink:href="#F" transform="translate(481.6)"/></g><path d="M528.7 201.6h16" style="fill:none;stroke-dasharray:5.55,2.4;stroke-dashoffset:0;stroke:#1f77b4;stroke-width:1.5"/><use xlink:href="#H" x="536.7" y="201.6" style="fill-opacity:0;stroke:#1f77b4"/><g transform="matrix(.08 0 0 -.08 551.1 204.4)"><defs><path id="R" d="M4653 2053q-272 0-427-231-154-231-154-644 0-406 154-639 155-233 427-233 266 0 420 233 155 233 155 639 0 410-155 642-154 233-420 233m0 397q494 0 784-344 291-343 291-928 0-584-292-927-292-342-783-342-500 0-791 342-290 343-290 927 0 588 292 930t789 342M1428 4353q-269 0-424-233-154-232-154-639 0-412 153-644 153-231 425-231t426 231q155 232 155 644 0 403-156 637-156 235-425 235m2822 397h500L1831-91h-500zm-2822 0q494 0 787-342 294-342 294-927 0-590-292-931t-789-341-786 342q-289 343-289 930 0 582 290 925 291 344 785 344" transform="scale(.01563)"/></defs><use xlink:href="#o"/><use xlink:href="#p" transform="translate(63.6)"/><use xlink:href="#B" transform="translate(159)"/><use xlink:href="#p" transform="translate(198)"/><use xlink:href="#R" transform="translate(261.7)"/><use xlink:href="#D" transform="translate(388.5)"/><use xlink:href="#C" transform="translate(470.3)"/><use xlink:href="#w" transform="translate(531.4)"/><use xlink:href="#u" transform="translate(572.6)"/><use xlink:href="#t" transform="translate(624.7)"/><use xlink:href="#F" transform="translate(663.9)"/></g><path d="M528.7 213.4h16" style="fill:none;stroke:#ff7f0e;stroke-width:1.5;stroke-linecap:square"/><use xlink:href="#I" x="536.7" y="213.4" style="fill:#ff7f0e;stroke:#ff7f0e;stroke-linejoin:miter"/><g transform="matrix(.08 0 0 -.08 551.1 216.2)"><use xlink:href="#p"/><use xlink:href="#c" transform="translate(63.6)"/><use xlink:href="#B" transform="translate(159)"/><use xlink:href="#P" transform="translate(198)"/><use xlink:href="#k" transform="translate(295.5)"/><use xlink:href="#Q" transform="translate(357)"/><use xlink:href="#x" transform="translate(418.3)"/><use xlink:href="#F" transform="translate(481.6)"/></g><path d="M528.7 225.1h16" style="fill:none;stroke-dasharray:5.55,2.4;stroke-dashoffset:0;stroke:#ff7f0e;stroke-width:1.5"/><use xlink:href="#J" x="536.7" y="225.1" style="fill-opacity:0;stroke:#ff7f0e;stroke-linejoin:miter"/><g transform="matrix(.08 0 0 -.08 551.1 228)"><use xlink:href="#p"/><use xlink:href="#c" transform="translate(63.6)"/><use xlink:href="#B" transform="translate(159)"/><use xlink:href="#p" transform="translate(198)"/><use xlink:href="#R" transform="translate(261.7)"/><use xlink:href="#D" transform="translate(388.5)"/><use xlink:href="#C" transform="translate(470.3)"/><use xlink:href="#w" transform="translate(531.4)"/><use xlink:href="#u" transform="translate(572.6)"/><use xlink:href="#t" transform="translate(624.7)"/><use xlink:href="#F" transform="translate(663.9)"/></g><path d="M623.4 189.9h16" style="fill:none;stroke:#2ca02c;stroke-width:1.5;stroke-linecap:square"/><use xlink:href="#K" x="631.4" y="189.9" style="fill:#2ca02c;stroke:#2ca02c;stroke-linejoin:miter"/><g transform="matrix(.08 0 0 -.08 645.8 192.7)"><use xlink:href="#f"/><use xlink:href="#p" transform="translate(63.6)"/><use xlink:href="#B" transform="translate(159)"/><use xlink:href="#P" transform="translate(198)"/><use xlink:href="#k" transform="translate(295.5)"/><use xlink:href="#Q" transform="translate(357)"/><use xlink:href="#x" transform="translate(418.3)"/><use xlink:href="#F" transform="translate(481.6)"/></g><path d="M623.4 201.6h16" style="fill:none;stroke-dasharray:5.55,2.4;stroke-dashoffset:0;stroke:#2ca02c;stroke-width:1.5"/><use xlink:href="#L" x="631.4" y="201.6" style="fill-opacity:0;stroke:#2ca02c;stroke-linejoin:miter"/><g transform="matrix(.08 0 0 -.08 645.8 204.4)"><use xlink:href="#f"/><use xlink:href="#p" transform="translate(63.6)"/><use xlink:href="#B" transform="translate(159)"/><use xlink:href="#p" transform="translate(198)"/><use xlink:href="#R" transform="translate(261.7)"/><use xlink:href="#D" transform="translate(388.5)"/><use xlink:href="#C" transform="translate(470.3)"/><use xlink:href="#w" transform="translate(531.4)"/><use xlink:href="#u" transform="translate(572.6)"/><use xlink:href="#t" transform="translate(624.7)"/><use xlink:href="#F" transform="translate(663.9)"/></g><path d="M623.4 213.4h16" style="fill:none;stroke:#d62728;stroke-width:1.5;stroke-linecap:square"/><use xlink:href="#M" x="631.4" y="213.4" style="fill:#d62728;stroke:#d62728;stroke-linejoin:miter"/><g transform="matrix(.08 0 0 -.08 645.8 216.2)"><use xlink:href="#g"/><use xlink:href="#c" transform="translate(63.6)"/><use xlink:href="#B" transform="translate(159)"/><use xlink:href="#P" transform="translate(198)"/><use xlink:href="#k" transform="translate(295.5)"/><use xlink:href="#Q" transform="translate(357)"/><use xlink:href="#x" transform="translate(418.3)"/><use xlink:href="#F" transform="translate(481.6)"/></g><path d="M623.4 225.1h16" style="fill:none;stroke-dasharray:5.55,2.4;stroke-dashoffset:0;stroke:#d62728;stroke-width:1.5"/><use xlink:href="#N" x="631.4" y="225.1" style="fill-opacity:0;stroke:#d62728;stroke-linejoin:miter"/><g transform="matrix(.08 0 0 -.08 645.8 228)"><use xlink:href="#g"/><use xlink:href="#c" transform="translate(63.6)"/><use xlink:href="#B" transform="translate(159)"/><use xlink:href="#p" transform="translate(198)"/><use xlink:href="#R" transform="translate(261.7)"/><use xlink:href="#D" transform="translate(388.5)"/><use xlink:href="#C" transform="translate(470.3)"/><use xlink:href="#w" transform="translate(531.4)"/><use xlink:href="#u" transform="translate(572.6)"/><use xlink:href="#t" transform="translate(624.7)"/><use xlink:href="#F" transform="translate(663.9)"/></g><defs><clipPath id="a"><path d="M61 26.9h648.2v362.4H61z"/></clipPath></defs></svg>