<svg xmlns="http://www.w3.org/2000/svg" xmlns:xlink="http://www.w3.org/1999/xlink" width="960" height="576" viewBox="0 0 720 432"><path d="M0 432h720V0H0z" style="fill:#fff"/><path d="M48.4 389.3h660.8V27H48.4z" style="fill:#fff"/><path d="M78.5 389.3V27" clip-path="url(#a)" style="fill:none;stroke:#b0b0b0;stroke-opacity:.3;stroke-width:.8;stroke-linecap:square"/><defs><path id="b" d="M0 0v3.5" style="stroke:#000;stroke-width:.8"/></defs><use xlink:href="#b" x="78.5" y="389.3" style="stroke:#000;stroke-width:.8"/><g transform="matrix(.1 0 0 -.1 75.3 404)"><defs><path id="c" d="M2034 4250q-487 0-733-480-245-479-245-1442 0-959 245-1439 246-480 733-480 491 0 736 480 246 480 246 1439 0 963-246 1442-245 480-736 480m0 500q785 0 1199-621 414-620 414-1801 0-1178-414-1799Q2819-91 2034-91q-784 0-1198 620-414 621-414 1799 0 1181 414 1801 414 621 1198 621" transform="scale(.01563)"/></defs><use xlink:href="#c"/></g><path d="M198.6 389.3V27" clip-path="url(#a)" style="fill:none;stroke:#b0b0b0;stroke-opacity:.3;stroke-width:.8;stroke-linecap:square"/><use xlink:href="#b" x="198.6" y="389.3" style="stroke:#000;stroke-width:.8"/><g transform="matrix(.1 0 0 -.1 195.4 404)"><defs><path id="d" d="M1228 531h2203V0H469v531q359 372 979 998 621 627 780 809 303 340 423 576 121 236 121 464 0 372-261 606-261 235-680 235-297 0-627-103-329-103-704-313v638q381 153 712 231 332 78 607 78 725 0 1156-363 431-362 431-968 0-288-108-546-107-257-392-607-78-91-497-524-418-433-1181-1211" transform="scale(.01563)"/></defs><use xlink:href="#d"/></g><path d="M318.8 389.3V27" clip-path="url(#a)" style="fill:none;stroke:#b0b0b0;stroke-opacity:.3;stroke-width:.8;stroke-linecap:square"/><use xlink:href="#b" x="318.8" y="389.3" style="stroke:#000;stroke-width:.8"/><g transform="matrix(.1 0 0 -.1 315.6 404)"><defs><path id="e" d="M2419 4116 825 1625h1594zm-166 550h794V1625h666v-525h-666V0h-628v1100H313v609z" transform="scale(.01563)"/></defs><use xlink:href="#e"/></g><path d="M438.9 389.3V27" clip-path="url(#a)" style="fill:none;stroke:#b0b0b0;stroke-opacity:.3;stroke-width:.8;stroke-linecap:square"/><use xlink:href="#b" x="438.9" y="389.3" style="stroke:#000;stroke-width:.8"/><g transform="matrix(.1 0 0 -.1 435.7 404)"><defs><path id="f" d="M2113 2584q-425 0-674-291-248-290-248-796 0-503 248-796 249-292 674-292t673 292q248 293 248 796 0 506-248 796-248 291-673 291m1253 1979v-575q-238 112-480 171-242 60-480 60-625 0-955-422-329-422-376-1275 184 272 462 417 279 145 613 145 703 0 1111-427 408-426 408-1160 0-719-425-1154Q2819-91 2113-91q-810 0-1238 620-428 621-428 1799 0 1106 525 1764t1409 658q238 0 480-47t505-140" transform="scale(.01563)"/></defs><use xlink:href="#f"/></g><path d="M559 389.3V27" clip-path="url(#a)" style="fill:none;stroke:#b0b0b0;stroke-opacity:.3;stroke-width:.8;stroke-linecap:square"/><use xlink:href="#b" x="559" y="389.3" style="stroke:#000;stroke-width:.8"/><g transform="matrix(.1 0 0 -.1 555.8 404)"><defs><path id="g" d="M2034 2216q-450 0-708-241-257-241-257-662 0-422 257-663 258-241 708-241t709 242q260 243 260 662 0 421-258 662-257 241-711 241m-631 268q-406 100-633 378-226 279-226 679 0 559 398 884 399 325 1092 325 697 0 1094-325t397-884q0-400-227-679-226-278-629-378 456-106 710-416 255-309 255-755 0-679-414-1042Q2806-91 2034-91q-771 0-1186 362-414 363-414 1042 0 446 256 755 257 310 713 416m-231 997q0-362 226-565 227-203 636-203 407 0 636 203 230 203 230 565 0 363-230 566-229 203-636 203-409 0-636-203-226-203-226-566" transform="scale(.01563)"/></defs><use xlink:href="#g"/></g><path d="M679.2 389.3V27" clip-path="url(#a)" style="fill:none;stroke:#b0b0b0;stroke-opacity:.3;stroke-width:.8;stroke-linecap:square"/><use xlink:href="#b" x="679.2" y="389.3" style="stroke:#000;stroke-width:.8"/><g transform="matrix(.1 0 0 -.1 672.8 404)"><defs><path id="h" d="M794 531h1031v3560L703 3866v575l1116 225h631V531h1031V0H794z" transform="scale(.01563)"/></defs><use xlink:href="#h"/><use xlink:href="#c" transform="translate(63.6)"/></g><g transform="matrix(.11 0 0 -.11 361.6 418.4)"><defs><path id="i" d="M3425 4513v-616q-359 172-678 256-319 85-616 85-515 0-795-200t-280-569q0-310 186-468 186-157 705-254l381-78q706-135 1042-474t336-907q0-679-455-1029Q2797-91 1919-91q-331 0-705 75-373 75-773 222v650q384-215 753-325 369-109 725-109 540 0 834 212 294 213 294 607 0 343-211 537t-692 291l-385 75q-706 140-1022 440-315 300-315 835 0 619 436 975t1201 356q329 0 669-60 341-59 697-177" transform="scale(.01563)"/><path id="j" d="M1159 525v-1856H581v4831h578v-531q182 312 458 463 277 152 661 152 638 0 1036-506 399-506 399-1331T3314 415Q2916-91 2278-91q-384 0-661 152-276 152-458 464m1957 1222q0 634-261 995t-717 361q-457 0-718-361t-261-995 261-995 718-361q456 0 717 361t261 995" transform="scale(.01563)"/><path id="k" d="M3597 1894v-281H953q38-594 358-905t892-311q331 0 642 81t618 244V178Q3153 47 2828-22t-659-69q-838 0-1327 487-489 488-489 1320 0 859 464 1363 464 505 1252 505 706 0 1117-455 411-454 411-1235m-575 169q-6 471-264 752-258 282-683 282-481 0-770-272t-333-766z" transform="scale(.01563)"/><path id="l" d="M2906 2969v1894h575V0h-575v525q-181-312-458-464-276-152-664-152-634 0-1033 506-398 507-398 1332t398 1331q399 506 1033 506 388 0 664-152 277-151 458-463M947 1747q0-634 261-995t717-361 718 361q263 361 263 995t-263 995q-262 361-718 361t-717-361-261-995" transform="scale(.01563)"/></defs><use xlink:href="#i"/><use xlink:href="#j" transform="translate(63.5)"/><use xlink:href="#k" transform="translate(127)"/><use xlink:href="#k" transform="translate(188.5)"/><use xlink:href="#l" transform="translate(250)"/></g><path d="M48.4 385.7h660.8" clip-path="url(#a)" style="fill:none;stroke:#b0b0b0;stroke-opacity:.3;stroke-width:.8;stroke-linecap:square"/><defs><path id="m" d="M0 0h-3.5" style="stroke:#000;stroke-width:.8"/></defs><use xlink:href="#m" x="48.4" y="385.7" style="stroke:#000;stroke-width:.8"/><g transform="matrix(.1 0 0 -.1 25.5 389.5)"><defs><path id="n" d="M684 794h660V0H684z" transform="scale(.01563)"/><path id="o" d="M691 4666h2478v-532H1269V2991q137 47 274 70 138 23 276 23 781 0 1237-428 457-428 457-1159 0-753-469-1171Q2575-91 1722-91q-294 0-599 50Q819 9 494 109v635q281-153 581-228t634-75q541 0 856 284 316 284 316 772 0 487-316 771-315 285-856 285-253 0-505-56-251-56-513-175z" transform="scale(.01563)"/></defs><use xlink:href="#h"/><use xlink:href="#n" transform="translate(63.6)"/><use xlink:href="#o" transform="translate(95.4)"/></g><path d="M48.4 325.4h660.8" clip-path="url(#a)" style="fill:none;stroke:#b0b0b0;stroke-opacity:.3;stroke-width:.8;stroke-linecap:square"/><use xlink:href="#m" x="48.4" y="325.4" style="stroke:#000;stroke-width:.8"/><g transform="matrix(.1 0 0 -.1 25.5 329.2)"><use xlink:href="#d"/><use xlink:href="#n" transform="translate(63.6)"/><use xlink:href="#c" transform="translate(95.4)"/></g><path d="M48.4 265h660.8" clip-path="url(#a)" style="fill:none;stroke:#b0b0b0;stroke-opacity:.3;stroke-width:.8;stroke-linecap:square"/><use xlink:href="#m" x="48.4" y="265.1" style="stroke:#000;stroke-width:.8"/><g transform="matrix(.1 0 0 -.1 25.5 268.9)"><use xlink:href="#d"/><use xlink:href="#n" transform="translate(63.6)"/><use xlink:href="#o" transform="translate(95.4)"/></g><path d="M48.4 204.8h660.8" clip-path="url(#a)" style="fill:none;stroke:#b0b0b0;stroke-opacity:.3;stroke-width:.8;stroke-linecap:square"/><use xlink:href="#m" x="48.4" y="204.8" style="stroke:#000;stroke-width:.8"/><g transform="matrix(.1 0 0 -.1 25.5 208.6)"><defs><path id="p" d="M2597 2516q453-97 707-404 255-306 255-756 0-690-475-1069Q2609-91 1734-91q-293 0-604 58T488 141v609q262-153 574-231 313-78 654-78 593 0 904 234t311 681q0 413-289 645-289 233-804 233h-544v519h569q465 0 712 186t247 536q0 359-255 551-254 193-729 193-260 0-557-57-297-56-653-174v562q360 100 674 150t592 50q719 0 1137-327 419-326 419-882 0-388-222-655t-631-370" transform="scale(.01563)"/></defs><use xlink:href="#p"/><use xlink:href="#n" transform="translate(63.6)"/><use xlink:href="#c" transform="translate(95.4)"/></g><path d="M48.4 144.5h660.8" clip-path="url(#a)" style="fill:none;stroke:#b0b0b0;stroke-opacity:.3;stroke-width:.8;stroke-linecap:square"/><use xlink:href="#m" x="48.4" y="144.5" style="stroke:#000;stroke-width:.8"/><g transform="matrix(.1 0 0 -.1 25.5 148.3)"><use xlink:href="#p"/><use xlink:href="#n" transform="translate(63.6)"/><use xlink:href="#o" transform="translate(95.4)"/></g><path d="M48.4 84.2h660.8" clip-path="url(#a)" style="fill:none;stroke:#b0b0b0;stroke-opacity:.3;stroke-width:.8;stroke-linecap:square"/><use xlink:href="#m" x="48.4" y="84.2" style="stroke:#000;stroke-width:.8"/><g transform="matrix(.1 0 0 -.1 25.5 88)"><use xlink:href="#e"/><use xlink:href="#n" transform="translate(63.6)"/><use xlink:href="#c" transform="translate(95.4)"/></g><g transform="matrix(0 -.11 -.11 0 19.2 332)"><defs><path id="q" d="M1259 2228V519h1013q509 0 754 211 246 211 246 645 0 438-246 645-245 208-754 208zm0 1919V2741h935q462 0 688 173 227 174 227 530 0 353-227 528-226 175-688 175zm-631 519h1613q722 0 1112-300 391-300 391-853 0-429-200-682t-588-315q466-100 724-418 258-317 258-792 0-625-425-966Q3088 0 2303 0H628z" transform="scale(.01563)"/><path id="r" d="M603 3500h575V0H603zm0 1363h575v-729H603z" transform="scale(.01563)"/><path id="s" d="M1172 4494v-994h1184v-447H1172V1153q0-428 117-550t477-122h590V0h-590q-666 0-919 248-253 249-253 905v1900H172v447h422v994z" transform="scale(.01563)"/><path id="t" d="M2834 3397v-544q-243 125-506 187-262 63-544 63-428 0-642-131t-214-394q0-200 153-314t616-217l197-44q612-131 870-370t258-667q0-488-386-773Q2250-91 1575-91q-281 0-586 55T347 128v594q319-166 628-249 309-82 613-82 406 0 624 139 219 139 219 392 0 234-158 359-157 125-692 241l-200 47q-534 112-772 345-237 233-237 639 0 494 350 762 350 269 994 269 318 0 599-47 282-46 519-140" transform="scale(.01563)"/><path id="u" d="M1259 4147V2394h794q441 0 681 228 241 228 241 650 0 419-241 647-240 228-681 228zm-631 519h1425q785 0 1186-355 402-355 402-1039 0-691-402-1044-401-353-1186-353h-794V0H628z" transform="scale(.01563)"/><path id="v" d="M2631 2963q-97 56-211 82-114 27-251 27-488 0-749-317t-261-911V0H581v3500h578v-544q182 319 472 473 291 155 707 155 59 0 131-8 72-7 159-23z" transform="scale(.01563)"/><path id="w" d="M544 1381v2119h575V1403q0-497 193-746 194-248 582-248 465 0 735 297 271 297 271 810v1984h575V0h-575v538q-209-319-486-474-276-155-642-155-603 0-916 375-312 375-312 1097m1447 2203" transform="scale(.01563)"/><path id="x" d="M2194 1759q-697 0-966-159t-269-544q0-306 202-486 202-179 548-179 479 0 768 339t289 901v128zm1147 238V0h-575v531q-197-318-491-470T1556-91q-537 0-855 302-317 302-317 808 0 590 395 890 396 300 1180 300h807v57q0 397-261 614t-733 217q-300 0-585-72-284-72-546-216v532q315 122 612 182 297 61 578 61 760 0 1135-394 375-393 375-1193" transform="scale(.01563)"/><path id="y" d="M2906 1791q0 625-258 968-257 344-723 344-462 0-720-344-258-343-258-968 0-622 258-966t720-344q466 0 723 344 258 344 258 966m575-1357q0-893-397-1329-396-436-1215-436-303 0-572 45t-522 139v559q253-137 500-202 247-66 503-66 566 0 847 295t281 892v285q-178-310-456-463T1784 0Q1141 0 747 490 353 981 353 1791q0 812 394 1302 394 491 1037 491 388 0 666-153t456-462v531h575z" transform="scale(.01563)"/><path id="z" d="M603 4863h575V0H603z" transform="scale(.01563)"/><path id="A" d="M3513 3500 2247 1797 3578 0h-678L1881 1375 863 0H184l1360 1831L300 3500h678l928-1247 928 1247z" transform="scale(.01563)"/><path id="B" d="M1984 4856q-418-718-622-1422-203-703-203-1425 0-721 205-1429t620-1424h-500Q1016-109 783 600T550 2009q0 697 231 1403 232 707 703 1444z" transform="scale(.01563)"/><path id="C" d="M1959 3097q-462 0-731-361t-269-989 267-989q268-361 733-361 460 0 728 362 269 363 269 988 0 622-269 986-268 364-728 364m0 487q750 0 1178-488 429-487 429-1349 0-859-429-1349Q2709-91 1959-91q-753 0-1180 489-426 490-426 1349 0 862 426 1349 427 488 1180 488" transform="scale(.01563)"/><path id="D" d="M269 3500h575l719-2731 715 2731h678l719-2731 716 2731h575L4050 0h-678l-753 2869L1863 0h-679z" transform="scale(.01563)"/><path id="E" d="M3116 1747q0 634-261 995t-717 361q-457 0-718-361t-261-995 261-995 718-361q456 0 717 361t261 995M1159 2969q182 312 458 463 277 152 661 152 638 0 1036-506 399-506 399-1331T3314 415Q2916-91 2278-91q-384 0-661 152-276 152-458 464V0H581v4863h578z" transform="scale(.01563)"/><path id="F" d="M513 4856h500q468-737 701-1444 233-706 233-1403 0-700-233-1409T1013-844H513q415 716 620 1424t205 1429q0 722-205 1425-205 704-620 1422" transform="scale(.01563)"/></defs><use xlink:href="#q"/><use xlink:href="#r" transform="translate(68.6)"/><use xlink:href="#s" transform="translate(96.4)"/><use xlink:href="#t" transform="translate(135.6)"/><use xlink:href="#u" transform="translate(219.5)"/><use xlink:href="#k" transform="translate(276.2)"/><use xlink:href="#v" transform="translate(337.7)"/><use xlink:href="#q" transform="translate(410.6)"/><use xlink:href="#w" transform="translate(479.2)"/><use xlink:href="#s" transform="translate(542.6)"/><use xlink:href="#s" transform="translate(581.8)"/><use xlink:href="#k" transform="translate(621)"/><use xlink:href="#v" transform="translate(682.5)"/><use xlink:href="#x" transform="translate(723.6)"/><use xlink:href="#w" transform="translate(784.9)"/><use xlink:href="#y" transform="translate(848.3)"/><use xlink:href="#z" transform="translate(911.8)"/><use xlink:href="#r" transform="translate(939.5)"/><use xlink:href="#u" transform="translate(999.1)"/><use xlink:href="#k" transform="translate(1055.8)"/><use xlink:href="#v" transform="translate(1117.3)"/><use xlink:href="#u" transform="translate(1190.2)"/><use xlink:href="#r" transform="translate(1248.3)"/><use xlink:href="#A" transform="translate(1276)"/><use xlink:href="#k" transform="translate(1332.1)"/><use xlink:href="#z" transform="translate(1393.6)"/><use xlink:href="#B" transform="translate(1453.2)"/><use xlink:href="#z" transform="translate(1492.2)"/><use xlink:href="#C" transform="translate(1520)"/><use xlink:href="#D" transform="translate(1581.2)"/><use xlink:href="#k" transform="translate(1663)"/><use xlink:href="#v" transform="translate(1724.5)"/><use xlink:href="#r" transform="translate(1797.4)"/><use xlink:href="#t" transform="translate(1825.2)"/><use xlink:href="#E" transform="translate(1909)"/><use xlink:href="#k" transform="translate(1972.5)"/><use xlink:href="#s" transform="translate(2034)"/><use xlink:href="#s" transform="translate(2073.3)"/><use xlink:href="#k" transform="translate(2112.5)"/><use xlink:href="#v" transform="translate(2174)"/><use xlink:href="#F" transform="translate(2215.1)"/></g><path d="m78.5 360 60-4.3 60.1-.4 60-2.1 60.2 19.6 60-9 60-3 60.2-41 60-8.7 60.1-12.7h60" clip-path="url(#a)" style="fill:none;stroke:#1f77b4;stroke-width:1.5;stroke-linecap:square"/><defs><path id="G" d="M0 3.5a3.5 3.5 0 1 0 0-7 3.5 3.5 0 0 0 0 7z" style="stroke:#1f77b4"/></defs><g clip-path="url(#a)"><use xlink:href="#G" x="78.5" y="359.9" style="fill:#1f77b4;stroke:#1f77b4"/><use xlink:href="#G" x="138.5" y="355.7" style="fill:#1f77b4;stroke:#1f77b4"/><use xlink:href="#G" x="198.6" y="355.3" style="fill:#1f77b4;stroke:#1f77b4"/><use xlink:href="#G" x="258.7" y="353.2" style="fill:#1f77b4;stroke:#1f77b4"/><use xlink:href="#G" x="318.8" y="372.8" style="fill:#1f77b4;stroke:#1f77b4"/><use xlink:href="#G" x="378.8" y="363.7" style="fill:#1f77b4;stroke:#1f77b4"/><use xlink:href="#G" x="438.9" y="360.7" style="fill:#1f77b4;stroke:#1f77b4"/><use xlink:href="#G" x="499" y="319.8" style="fill:#1f77b4;stroke:#1f77b4"/><use xlink:href="#G" x="559" y="311.1" style="fill:#1f77b4;stroke:#1f77b4"/><use xlink:href="#G" x="619.1" y="298.4" style="fill:#1f77b4;stroke:#1f77b4"/><use xlink:href="#G" x="679.2" y="298.4" style="fill:#1f77b4;stroke:#1f77b4"/></g><path d="m78.5 276.7 60-.5 60.1-13.9 60-.1 60.2 27.8 60-13.4 60-10 60.2-65.7 60-3.7 60.1-26.5h60" clip-path="url(#a)" style="fill:none;stroke-dasharray:5.55,2.4;stroke-dashoffset:0;stroke:#1f77b4;stroke-width:1.5"/><defs><path id="H" d="M0 3.5a3.5 3.5 0 1 0 0-7 3.5 3.5 0 0 0 0 7z" style="stroke:#1f77b4"/></defs><g clip-path="url(#a)"><use xlink:href="#H" x="78.5" y="276.7" style="fill-opacity:0;stroke:#1f77b4"/><use xlink:href="#H" x="138.5" y="276.2" style="fill-opacity:0;stroke:#1f77b4"/><use xlink:href="#H" x="198.6" y="262.3" style="fill-opacity:0;stroke:#1f77b4"/><use xlink:href="#H" x="258.7" y="262.2" style="fill-opacity:0;stroke:#1f77b4"/><use xlink:href="#H" x="318.8" y="290" style="fill-opacity:0;stroke:#1f77b4"/><use xlink:href="#H" x="378.8" y="276.6" style="fill-opacity:0;stroke:#1f77b4"/><use xlink:href="#H" x="438.9" y="266.5" style="fill-opacity:0;stroke:#1f77b4"/><use xlink:href="#H" x="499" y="200.9" style="fill-opacity:0;stroke:#1f77b4"/><use xlink:href="#H" x="559" y="197.2" style="fill-opacity:0;stroke:#1f77b4"/><use xlink:href="#H" x="619.1" y="170.7" style="fill-opacity:0;stroke:#1f77b4"/><use xlink:href="#H" x="679.2" y="170.7" style="fill-opacity:0;stroke:#1f77b4"/></g><path d="m78.5 345.9 60-9 60.1 1.8 60 1.8 60.2-3.4 60 2 60-25 60.2-40.9 60 13.4 60.1-15.6h60" clip-path="url(#a)" style="fill:none;stroke:#ff7f0e;stroke-width:1.5;stroke-linecap:square"/><defs><path id="I" d="M-3.5 3.5h7v-7h-7z" style="stroke:#ff7f0e;stroke-linejoin:miter"/></defs><g clip-path="url(#a)"><use xlink:href="#I" x="78.5" y="345.9" style="fill:#ff7f0e;stroke:#ff7f0e;stroke-linejoin:miter"/><use xlink:href="#I" x="138.5" y="336.8" style="fill:#ff7f0e;stroke:#ff7f0e;stroke-linejoin:miter"/><use xlink:href="#I" x="198.6" y="338.7" style="fill:#ff7f0e;stroke:#ff7f0e;stroke-linejoin:miter"/><use xlink:href="#I" x="258.7" y="340.5" style="fill:#ff7f0e;stroke:#ff7f0e;stroke-linejoin:miter"/><use xlink:href="#I" x="318.8" y="337.1" style="fill:#ff7f0e;stroke:#ff7f0e;stroke-linejoin:miter"/><use xlink:href="#I" x="378.8" y="339.1" style="fill:#ff7f0e;stroke:#ff7f0e;stroke-linejoin:miter"/><use xlink:href="#I" x="438.9" y="314" style="fill:#ff7f0e;stroke:#ff7f0e;stroke-linejoin:miter"/><use xlink:href="#I" x="499" y="273.2" style="fill:#ff7f0e;stroke:#ff7f0e;stroke-linejoin:miter"/><use xlink:href="#I" x="559" y="286.6" style="fill:#ff7f0e;stroke:#ff7f0e;stroke-linejoin:miter"/><use xlink:href="#I" x="619.1" y="271" style="fill:#ff7f0e;stroke:#ff7f0e;stroke-linejoin:miter"/><use xlink:href="#I" x="679.2" y="271" style="fill:#ff7f0e;stroke:#ff7f0e;stroke-linejoin:miter"/></g><path d="m78.5 260 60-28.4 60.1-1.5 60 5.5 60.2 8.5 60 1 60-60 60.2-44 60 6.5 60.1-26.5h60" clip-path="url(#a)" style="fill:none;stroke-dasharray:5.55,2.4;stroke-dashoffset:0;stroke:#ff7f0e;stroke-width:1.5"/><defs><path id="J" d="M-3.5 3.5h7v-7h-7z" style="stroke:#ff7f0e;stroke-linejoin:miter"/></defs><g clip-path="url(#a)"><use xlink:href="#J" x="78.5" y="260" style="fill-opacity:0;stroke:#ff7f0e;stroke-linejoin:miter"/><use xlink:href="#J" x="138.5" y="231.6" style="fill-opacity:0;stroke:#ff7f0e;stroke-linejoin:miter"/><use xlink:href="#J" x="198.6" y="230.1" style="fill-opacity:0;stroke:#ff7f0e;stroke-linejoin:miter"/><use xlink:href="#J" x="258.7" y="235.6" style="fill-opacity:0;stroke:#ff7f0e;stroke-linejoin:miter"/><use xlink:href="#J" x="318.8" y="244.1" style="fill-opacity:0;stroke:#ff7f0e;stroke-linejoin:miter"/><use xlink:href="#J" x="378.8" y="245.1" style="fill-opacity:0;stroke:#ff7f0e;stroke-linejoin:miter"/><use xlink:href="#J" x="438.9" y="185.1" style="fill-opacity:0;stroke:#ff7f0e;stroke-linejoin:miter"/><use xlink:href="#J" x="499" y="141.1" style="fill-opacity:0;stroke:#ff7f0e;stroke-linejoin:miter"/><use xlink:href="#J" x="559" y="147.6" style="fill-opacity:0;stroke:#ff7f0e;stroke-linejoin:miter"/><use xlink:href="#J" x="619.1" y="121.1" style="fill-opacity:0;stroke:#ff7f0e;stroke-linejoin:miter"/><use xlink:href="#J" x="679.2" y="121.1" style="fill-opacity:0;stroke:#ff7f0e;stroke-linejoin:miter"/></g><path d="m78.5 312.6 60-18 60.1-3.8 60 13.1 60.2-4 60-7.4 60 .2L499 250l60 17.2 60.1-37.6h60" clip-path="url(#a)" style="fill:none;stroke:#2ca02c;stroke-width:1.5;stroke-linecap:square"/><defs><path id="K" d="m0-3.5-3.5 7h7z" style="stroke:#2ca02c;stroke-linejoin:miter"/></defs><g clip-path="url(#a)"><use xlink:href="#K" x="78.5" y="312.6" style="fill:#2ca02c;stroke:#2ca02c;stroke-linejoin:miter"/><use xlink:href="#K" x="138.5" y="294.6" style="fill:#2ca02c;stroke:#2ca02c;stroke-linejoin:miter"/><use xlink:href="#K" x="198.6" y="290.8" style="fill:#2ca02c;stroke:#2ca02c;stroke-linejoin:miter"/><use xlink:href="#K" x="258.7" y="303.9" style="fill:#2ca02c;stroke:#2ca02c;stroke-linejoin:miter"/><use xlink:href="#K" x="318.8" y="299.9" style="fill:#2ca02c;stroke:#2ca02c;stroke-linejoin:miter"/><use xlink:href="#K" x="378.8" y="292.5" style="fill:#2ca02c;stroke:#2ca02c;stroke-linejoin:miter"/><use xlink:href="#K" x="438.9" y="292.7" style="fill:#2ca02c;stroke:#2ca02c;stroke-linejoin:miter"/><use xlink:href="#K" x="499" y="249.9" style="fill:#2ca02c;stroke:#2ca02c;stroke-linejoin:miter"/><use xlink:href="#K" x="559" y="267.1" style="fill:#2ca02c;stroke:#2ca02c;stroke-linejoin:miter"/><use xlink:href="#K" x="619.1" y="229.5" style="fill:#2ca02c;stroke:#2ca02c;stroke-linejoin:miter"/><use xlink:href="#K" x="679.2" y="229.5" style="fill:#2ca02c;stroke:#2ca02c;stroke-linejoin:miter"/></g><path d="m78.5 188.8 60-46.4 60.1-13 60 40.6 60.2 8 60-1.3 60-29.2 60.2-41.8 60 31 60.1-42h60" clip-path="url(#a)" style="fill:none;stroke-dasharray:5.55,2.4;stroke-dashoffset:0;stroke:#2ca02c;stroke-width:1.5"/><defs><path id="L" d="m0-3.5-3.5 7h7z" style="stroke:#2ca02c;stroke-linejoin:miter"/></defs><g clip-path="url(#a)"><use xlink:href="#L" x="78.5" y="188.8" style="fill-opacity:0;stroke:#2ca02c;stroke-linejoin:miter"/><use xlink:href="#L" x="138.5" y="142.4" style="fill-opacity:0;stroke:#2ca02c;stroke-linejoin:miter"/><use xlink:href="#L" x="198.6" y="129.3" style="fill-opacity:0;stroke:#2ca02c;stroke-linejoin:miter"/><use xlink:href="#L" x="258.7" y="170" style="fill-opacity:0;stroke:#2ca02c;stroke-linejoin:miter"/><use xlink:href="#L" x="318.8" y="177.9" style="fill-opacity:0;stroke:#2ca02c;stroke-linejoin:miter"/><use xlink:href="#L" x="378.8" y="176.7" style="fill-opacity:0;stroke:#2ca02c;stroke-linejoin:miter"/><use xlink:href="#L" x="438.9" y="147.5" style="fill-opacity:0;stroke:#2ca02c;stroke-linejoin:miter"/><use xlink:href="#L" x="499" y="105.7" style="fill-opacity:0;stroke:#2ca02c;stroke-linejoin:miter"/><use xlink:href="#L" x="559" y="136.7" style="fill-opacity:0;stroke:#2ca02c;stroke-linejoin:miter"/><use xlink:href="#L" x="619.1" y="94.7" style="fill-opacity:0;stroke:#2ca02c;stroke-linejoin:miter"/><use xlink:href="#L" x="679.2" y="94.7" style="fill-opacity:0;stroke:#2ca02c;stroke-linejoin:miter"/></g><path d="m78.5 272.2 60-24.3 60.1 27.8 60-2.8 60.2-6.2 60-5.8 60-11.6 60.2-9.8 60-8.5 60.1-8.8h60" clip-path="url(#a)" style="fill:none;stroke:#d62728;stroke-width:1.5;stroke-linecap:square"/><defs><path id="M" d="m0 5 5-5-5-5-5 5z" style="stroke:#d62728;stroke-linejoin:miter"/></defs><g clip-path="url(#a)"><use xlink:href="#M" x="78.5" y="272.2" style="fill:#d62728;stroke:#d62728;stroke-linejoin:miter"/><use xlink:href="#M" x="138.5" y="247.9" style="fill:#d62728;stroke:#d62728;stroke-linejoin:miter"/><use xlink:href="#M" x="198.6" y="275.7" style="fill:#d62728;stroke:#d62728;stroke-linejoin:miter"/><use xlink:href="#M" x="258.7" y="272.9" style="fill:#d62728;stroke:#d62728;stroke-linejoin:miter"/><use xlink:href="#M" x="318.8" y="266.7" style="fill:#d62728;stroke:#d62728;stroke-linejoin:miter"/><use xlink:href="#M" x="378.8" y="260.9" style="fill:#d62728;stroke:#d62728;stroke-linejoin:miter"/><use xlink:href="#M" x="438.9" y="249.3" style="fill:#d62728;stroke:#d62728;stroke-linejoin:miter"/><use xlink:href="#M" x="499" y="239.5" style="fill:#d62728;stroke:#d62728;stroke-linejoin:miter"/><use xlink:href="#M" x="559" y="231" style="fill:#d62728;stroke:#d62728;stroke-linejoin:miter"/><use xlink:href="#M" x="619.1" y="222.2" style="fill:#d62728;stroke:#d62728;stroke-linejoin:miter"/><use xlink:href="#M" x="679.2" y="222.2" style="fill:#d62728;stroke:#d62728;stroke-linejoin:miter"/></g><path d="m78.5 126 60-54 60.1 59 60-9.7 60.2-.5 60-7.4 60-30L499 58.2l60 21 60.1-35.8h60" clip-path="url(#a)" style="fill:none;stroke-dasharray:5.55,2.4;stroke-dashoffset:0;stroke:#d62728;stroke-width:1.5"/><defs><path id="N" d="m0 5 5-5-5-5-5 5z" style="stroke:#d62728;stroke-linejoin:miter"/></defs><g clip-path="url(#a)"><use xlink:href="#N" x="78.5" y="125.9" style="fill-opacity:0;stroke:#d62728;stroke-linejoin:miter"/><use xlink:href="#N" x="138.5" y="72" style="fill-opacity:0;stroke:#d62728;stroke-linejoin:miter"/><use xlink:href="#N" x="198.6" y="131" style="fill-opacity:0;stroke:#d62728;stroke-linejoin:miter"/><use xlink:href="#N" x="258.7" y="121.3" style="fill-opacity:0;stroke:#d62728;stroke-linejoin:miter"/><use xlink:href="#N" x="318.8" y="120.8" style="fill-opacity:0;stroke:#d62728;stroke-linejoin:miter"/><use xlink:href="#N" x="378.8" y="113.4" style="fill-opacity:0;stroke:#d62728;stroke-linejoin:miter"/><use xlink:href="#N" x="438.9" y="83.4" style="fill-opacity:0;stroke:#d62728;stroke-linejoin:miter"/><use xlink:href="#N" x="499" y="58.2" style="fill-opacity:0;stroke:#d62728;stroke-linejoin:miter"/><use xlink:href="#N" x="559" y="79.1" style="fill-opacity:0;stroke:#d62728;stroke-linejoin:miter"/><use xlink:href="#N" x="619.1" y="43.4" style="fill-opacity:0;stroke:#d62728;stroke-linejoin:miter"/><use xlink:href="#N" x="679.2" y="43.4" style="fill-opacity:0;stroke:#d62728;stroke-linejoin:miter"/></g><path d="M48.4 389.3V27m660.8 362.3V27M48.4 389.3h660.8M48.4 26.9h660.8" style="fill:none;stroke:#000;stroke-width:.8;stroke-linejoin:miter;stroke-linecap:square"/><g transform="matrix(.12 0 0 -.12 264.2 20.9)"><defs><path id="O" d="M191 3500h609L1894 563l1094 2937h609L2284 0h-781z" transform="scale(.01563)"/></defs><use xlink:href="#q"/><use xlink:href="#r" transform="translate(68.6)"/><use xlink:href="#s" transform="translate(96.4)"/><use xlink:href="#t" transform="translate(135.6)"/><use xlink:href="#u" transform="translate(219.5)"/><use xlink:href="#k" transform="translate(276.2)"/><use xlink:href="#v" transform="translate(337.7)"/><use xlink:href="#q" transform="translate(410.6)"/><use xlink:href="#w" transform="translate(479.2)"/><use xlink:href="#s" transform="translate(542.6)"/><use xlink:href="#s" transform="translate(581.8)"/><use xlink:href="#k" transform="translate(621)"/><use xlink:href="#v" transform="translate(682.5)"/><use xlink:href="#x" transform="translate(723.6)"/><use xlink:href="#w" transform="translate(784.9)"/><use xlink:href="#y" transform="translate(848.3)"/><use xlink:href="#z" transform="translate(911.8)"/><use xlink:href="#r" transform="translate(939.5)"/><use xlink:href="#u" transform="translate(999.1)"/><use xlink:href="#k" transform="translate(1055.8)"/><use xlink:href="#v" transform="translate(1117.3)"/><use xlink:href="#u" transform="translate(1190.2)"/><use xlink:href="#r" transform="translate(1248.3)"/><use xlink:href="#A" transform="translate(1276)"/><use xlink:href="#k" transform="translate(1332.1)"/><use xlink:href="#z" transform="translate(1393.6)"/><use xlink:href="#O" transform="translate(1453.2)"/><use xlink:href="#t" transform="translate(1512.4)"/><use xlink:href="#i" transform="translate(1596.3)"/><use xlink:href="#j" transform="translate(1659.7)"/><use xlink:href="#k" transform="translate(1723.2)"/><use xlink:href="#k" transform="translate(1784.7)"/><use xlink:href="#l" transform="translate(1846.3)"/></g><path d="M527.1 385.3h176.5q1.6 0 1.6-1.6v-46.1q0-1.7-1.6-1.7H527.1q-1.6 0-1.6 1.7v46.1q0 1.6 1.6 1.6z" style="fill:#fff;opacity:.8;stroke:#ccc;stroke-linejoin:miter"/><path d="M528.7 342.4h16" style="fill:none;stroke:#1f77b4;stroke-width:1.5;stroke-linecap:square"/><use xlink:href="#G" x="536.7" y="342.4" style="fill:#1f77b4;stroke:#1f77b4"/><g transform="matrix(.08 0 0 -.08 551.1 345.2)"><defs><path id="P" d="M3328 2828q216 388 516 572t706 184q547 0 844-383 297-382 297-1088V0h-578v2094q0 503-179 746-178 244-543 244-447 0-707-297-259-296-259-809V0h-578v2094q0 506-178 748t-550 242q-441 0-701-298-259-298-259-808V0H581v3500h578v-544q197 322 472 475t653 153q382 0 649-194 267-193 395-562" transform="scale(.01563)"/><path id="Q" d="M3513 2113V0h-575v2094q0 497-194 743-194 247-581 247-466 0-735-297-269-296-269-809V0H581v3500h578v-544q207 316 486 472 280 156 646 156 603 0 912-373 310-373 310-1098" transform="scale(.01563)"/></defs><use xlink:href="#p"/><use xlink:href="#o" transform="translate(63.6)"/><use xlink:href="#B" transform="translate(159)"/><use xlink:href="#P" transform="translate(198)"/><use xlink:href="#k" transform="translate(295.5)"/><use xlink:href="#x" transform="translate(357)"/><use xlink:href="#Q" transform="translate(418.3)"/><use xlink:href="#F" transform="translate(481.6)"/></g><path d="M528.7 354.2h16" style="fill:none;stroke-dasharray:5.55,2.4;stroke-dashoffset:0;stroke:#1f77b4;stroke-width:1.5"/><use xlink:href="#H" x="536.7" y="354.2" style="fill-opacity:0;stroke:#1f77b4"/><g transform="matrix(.08 0 0 -.08 551.1 357)"><defs><path id="R" d="M4653 2053q-272 0-427-231-154-231-154-644 0-406 154-639 155-233 427-233 266 0 420 233 155 233 155 639 0 410-155 642-154 233-420 233m0 397q494 0 784-344 291-343 291-928 0-584-292-927-292-342-783-342-500 0-791 342-290 343-290 927 0 588 292 930t789 342M1428 4353q-269 0-424-233-154-232-154-639 0-412 153-644 153-231 425-231t426 231q155 232 155 644 0 403-156 637-156 235-425 235m2822 397h500L1831-91h-500zm-2822 0q494 0 787-342 294-342 294-927 0-590-292-931t-789-341-786 342q-289 343-289 930 0 582 290 925 291 344 785 344" transform="scale(.01563)"/></defs><use xlink:href="#p"/><use xlink:href="#o" transform="translate(63.6)"/><use xlink:href="#B" transform="translate(159)"/><use xlink:href="#o" transform="translate(198)"/><use xlink:href="#R" transform="translate(261.7)"/><use xlink:href="#D" transform="translate(388.5)"/><use xlink:href="#C" transform="translate(470.3)"/><use xlink:href="#v" transform="translate(531.4)"/><use xlink:href="#t" transform="translate(572.6)"/><use xlink:href="#s" transform="translate(624.7)"/><use xlink:href="#F" transform="translate(663.9)"/></g><path d="M528.7 366h16" style="fill:none;stroke:#ff7f0e;stroke-width:1.5;stroke-linecap:square"/><use xlink:href="#I" x="536.7" y="365.9" style="fill:#ff7f0e;stroke:#ff7f0e;stroke-linejoin:miter"/><g transform="matrix(.08 0 0 -.08 551.1 368.7)"><use xlink:href="#o"/><use xlink:href="#c" transform="translate(63.6)"/><use xlink:href="#B" transform="translate(159)"/><use xlink:href="#P" transform="translate(198)"/><use xlink:href="#k" transform="translate(295.5)"/><use xlink:href="#x" transform="translate(357)"/><use xlink:href="#Q" transform="translate(418.3)"/><use xlink:href="#F" transform="translate(481.6)"/></g><path d="M528.7 377.7h16" style="fill:none;stroke-dasharray:5.55,2.4;stroke-dashoffset:0;stroke:#ff7f0e;stroke-width:1.5"/><use xlink:href="#J" x="536.7" y="377.7" style="fill-opacity:0;stroke:#ff7f0e;stroke-linejoin:miter"/><g transform="matrix(.08 0 0 -.08 551.1 380.5)"><use xlink:href="#o"/><use xlink:href="#c" transform="translate(63.6)"/><use xlink:href="#B" transform="translate(159)"/><use xlink:href="#o" transform="translate(198)"/><use xlink:href="#R" transform="translate(261.7)"/><use xlink:href="#D" transform="translate(388.5)"/><use xlink:href="#C" transform="translate(470.3)"/><use xlink:href="#v" transform="translate(531.4)"/><use xlink:href="#t" transform="translate(572.6)"/><use xlink:href="#s" transform="translate(624.7)"/><use xlink:href="#F" transform="translate(663.9)"/></g><path d="M623.4 342.4h16" style="fill:none;stroke:#2ca02c;stroke-width:1.5;stroke-linecap:square"/><use xlink:href="#K" x="631.4" y="342.4" style="fill:#2ca02c;stroke:#2ca02c;stroke-linejoin:miter"/><g transform="matrix(.08 0 0 -.08 645.8 345.2)"><use xlink:href="#f"/><use xlink:href="#o" transform="translate(63.6)"/><use xlink:href="#B" transform="translate(159)"/><use xlink:href="#P" transform="translate(198)"/><use xlink:href="#k" transform="translate(295.5)"/><use xlink:href="#x" transform="translate(357)"/><use xlink:href="#Q" transform="translate(418.3)"/><use xlink:href="#F" transform="translate(481.6)"/></g><path d="M623.4 354.2h16" style="fill:none;stroke-dasharray:5.55,2.4;stroke-dashoffset:0;stroke:#2ca02c;stroke-width:1.5"/><use xlink:href="#L" x="631.4" y="354.2" style="fill-opacity:0;stroke:#2ca02c;stroke-linejoin:miter"/><g transform="matrix(.08 0 0 -.08 645.8 357)"><use xlink:href="#f"/><use xlink:href="#o" transform="translate(63.6)"/><use xlink:href="#B" transform="translate(159)"/><use xlink:href="#o" transform="translate(198)"/><use xlink:href="#R" transform="translate(261.7)"/><use xlink:href="#D" transform="translate(388.5)"/><use xlink:href="#C" transform="translate(470.3)"/><use xlink:href="#v" transform="translate(531.4)"/><use xlink:href="#t" transform="translate(572.6)"/><use xlink:href="#s" transform="translate(624.7)"/><use xlink:href="#F" transform="translate(663.9)"/></g><path d="M623.4 366h16" style="fill:none;stroke:#d62728;stroke-width:1.5;stroke-linecap:square"/><use xlink:href="#M" x="631.4" y="365.9" style="fill:#d62728;stroke:#d62728;stroke-linejoin:miter"/><g transform="matrix(.08 0 0 -.08 645.8 368.7)"><use xlink:href="#g"/><use xlink:href="#c" transform="translate(63.6)"/><use xlink:href="#B" transform="translate(159)"/><use xlink:href="#P" transform="translate(198)"/><use xlink:href="#k" transform="translate(295.5)"/><use xlink:href="#x" transform="translate(357)"/><use xlink:href="#Q" transform="translate(418.3)"/><use xlink:href="#F" transform="translate(481.6)"/></g><path d="M623.4 377.7h16" style="fill:none;stroke-dasharray:5.55,2.4;stroke-dashoffset:0;stroke:#d62728;stroke-width:1.5"/><use xlink:href="#N" x="631.4" y="377.7" style="fill-opacity:0;stroke:#d62728;stroke-linejoin:miter"/><g transform="matrix(.08 0 0 -.08 645.8 380.5)"><use xlink:href="#g"/><use xlink:href="#c" transform="translate(63.6)"/><use xlink:href="#B" transform="translate(159)"/><use xlink:href="#o" transform="translate(198)"/><use xlink:href="#R" transform="translate(261.7)"/><use xlink:href="#D" transform="translate(388.5)"/><use xlink:href="#C" transform="translate(470.3)"/><use xlink:href="#v" transform="translate(531.4)"/><use xlink:href="#t" transform="translate(572.6)"/><use xlink:href="#s" transform="translate(624.7)"/><use xlink:href="#F" transform="translate(663.9)"/></g><defs><clipPath id="a"><path d="M48.4 26.9h660.8v362.4H48.4z"/></clipPath></defs></svg>