<svg xmlns="http://www.w3.org/2000/svg" xmlns:xlink="http://www.w3.org/1999/xlink" width="960" height="576" viewBox="0 0 720 432"><path d="M0 432h720V0H0z" style="fill:#fff"/><path d="M39 389.3h670.2V27H39z" style="fill:#fff"/><path d="M69.5 389.3V27" clip-path="url(#a)" style="fill:none;stroke:#b0b0b0;stroke-opacity:.3;stroke-width:.8;stroke-linecap:square"/><defs><path id="b" d="M0 0v3.5" style="stroke:#000;stroke-width:.8"/></defs><use xlink:href="#b" x="69.5" y="389.3" style="stroke:#000;stroke-width:.8"/><g transform="matrix(.1 0 0 -.1 66.3 404)"><defs><path id="c" d="M2034 4250q-487 0-733-480-245-479-245-1442 0-959 245-1439 246-480 733-480 491 0 736 480 246 480 246 1439 0 963-246 1442-245 480-736 480m0 500q785 0 1199-621 414-620 414-1801 0-1178-414-1799Q2819-91 2034-91q-784 0-1198 620-414 621-414 1799 0 1181 414 1801 414 621 1198 621" transform="scale(.01563)"/></defs><use xlink:href="#c"/></g><path d="M191.3 389.3V27" clip-path="url(#a)" style="fill:none;stroke:#b0b0b0;stroke-opacity:.3;stroke-width:.8;stroke-linecap:square"/><use xlink:href="#b" x="191.3" y="389.3" style="stroke:#000;stroke-width:.8"/><g transform="matrix(.1 0 0 -.1 188.1 404)"><defs><path id="d" d="M1228 531h2203V0H469v531q359 372 979 998 621 627 780 809 303 340 423 576 121 236 121 464 0 372-261 606-261 235-680 235-297 0-627-103-329-103-704-313v638q381 153 712 231 332 78 607 78 725 0 1156-363 431-362 431-968 0-288-108-546-107-257-392-607-78-91-497-524-418-433-1181-1211" transform="scale(.01563)"/></defs><use xlink:href="#d"/></g><path d="M313.2 389.3V27" clip-path="url(#a)" style="fill:none;stroke:#b0b0b0;stroke-opacity:.3;stroke-width:.8;stroke-linecap:square"/><use xlink:href="#b" x="313.2" y="389.3" style="stroke:#000;stroke-width:.8"/><g transform="matrix(.1 0 0 -.1 310 404)"><defs><path id="e" d="M2419 4116 825 1625h1594zm-166 550h794V1625h666v-525h-666V0h-628v1100H313v609z" transform="scale(.01563)"/></defs><use xlink:href="#e"/></g><path d="M435 389.3V27" clip-path="url(#a)" style="fill:none;stroke:#b0b0b0;stroke-opacity:.3;stroke-width:.8;stroke-linecap:square"/><use xlink:href="#b" x="435" y="389.3" style="stroke:#000;stroke-width:.8"/><g transform="matrix(.1 0 0 -.1 431.8 404)"><defs><path id="f" d="M2113 2584q-425 0-674-291-248-290-248-796 0-503 248-796 249-292 674-292t673 292q248 293 248 796 0 506-248 796-248 291-673 291m1253 1979v-575q-238 112-480 171-242 60-480 60-625 0-955-422-329-422-376-1275 184 272 462 417 279 145 613 145 703 0 1111-427 408-426 408-1160 0-719-425-1154Q2819-91 2113-91q-810 0-1238 620-428 621-428 1799 0 1106 525 1764t1409 658q238 0 480-47t505-140" transform="scale(.01563)"/></defs><use xlink:href="#f"/></g><path d="M556.9 389.3V27" clip-path="url(#a)" style="fill:none;stroke:#b0b0b0;stroke-opacity:.3;stroke-width:.8;stroke-linecap:square"/><use xlink:href="#b" x="556.9" y="389.3" style="stroke:#000;stroke-width:.8"/><g transform="matrix(.1 0 0 -.1 553.7 404)"><defs><path id="g" d="M2034 2216q-450 0-708-241-257-241-257-662 0-422 257-663 258-241 708-241t709 242q260 243 260 662 0 421-258 662-257 241-711 241m-631 268q-406 100-633 378-226 279-226 679 0 559 398 884 399 325 1092 325 697 0 1094-325t397-884q0-400-227-679-226-278-629-378 456-106 710-416 255-309 255-755 0-679-414-1042Q2806-91 2034-91q-771 0-1186 362-414 363-414 1042 0 446 256 755 257 310 713 416m-231 997q0-362 226-565 227-203 636-203 407 0 636 203 230 203 230 565 0 363-230 566-229 203-636 203-409 0-636-203-226-203-226-566" transform="scale(.01563)"/></defs><use xlink:href="#g"/></g><path d="M678.7 389.3V27" clip-path="url(#a)" style="fill:none;stroke:#b0b0b0;stroke-opacity:.3;stroke-width:.8;stroke-linecap:square"/><use xlink:href="#b" x="678.7" y="389.3" style="stroke:#000;stroke-width:.8"/><g transform="matrix(.1 0 0 -.1 672.4 404)"><defs><path id="h" d="M794 531h1031v3560L703 3866v575l1116 225h631V531h1031V0H794z" transform="scale(.01563)"/></defs><use xlink:href="#h"/><use xlink:href="#c" transform="translate(63.6)"/></g><g transform="matrix(.11 0 0 -.11 356.9 418.4)"><defs><path id="i" d="M3425 4513v-616q-359 172-678 256-319 85-616 85-515 0-795-200t-280-569q0-310 186-468 186-157 705-254l381-78q706-135 1042-474t336-907q0-679-455-1029Q2797-91 1919-91q-331 0-705 75-373 75-773 222v650q384-215 753-325 369-109 725-109 540 0 834 212 294 213 294 607 0 343-211 537t-692 291l-385 75q-706 140-1022 440-315 300-315 835 0 619 436 975t1201 356q329 0 669-60 341-59 697-177" transform="scale(.01563)"/><path id="j" d="M1159 525v-1856H581v4831h578v-531q182 312 458 463 277 152 661 152 638 0 1036-506 399-506 399-1331T3314 415Q2916-91 2278-91q-384 0-661 152-276 152-458 464m1957 1222q0 634-261 995t-717 361q-457 0-718-361t-261-995 261-995 718-361q456 0 717 361t261 995" transform="scale(.01563)"/><path id="k" d="M3597 1894v-281H953q38-594 358-905t892-311q331 0 642 81t618 244V178Q3153 47 2828-22t-659-69q-838 0-1327 487-489 488-489 1320 0 859 464 1363 464 505 1252 505 706 0 1117-455 411-454 411-1235m-575 169q-6 471-264 752-258 282-683 282-481 0-770-272t-333-766z" transform="scale(.01563)"/><path id="l" d="M2906 2969v1894h575V0h-575v525q-181-312-458-464-276-152-664-152-634 0-1033 506-398 507-398 1332t398 1331q399 506 1033 506 388 0 664-152 277-151 458-463M947 1747q0-634 261-995t717-361 718 361q263 361 263 995t-263 995q-262 361-718 361t-717-361-261-995" transform="scale(.01563)"/></defs><use xlink:href="#i"/><use xlink:href="#j" transform="translate(63.5)"/><use xlink:href="#k" transform="translate(127)"/><use xlink:href="#k" transform="translate(188.5)"/><use xlink:href="#l" transform="translate(250)"/></g><path d="M39 358.2h670.2" clip-path="url(#a)" style="fill:none;stroke:#b0b0b0;stroke-opacity:.3;stroke-width:.8;stroke-linecap:square"/><defs><path id="m" d="M0 0h-3.5" style="stroke:#000;stroke-width:.8"/></defs><use xlink:href="#m" x="39" y="358.2" style="stroke:#000;stroke-width:.8"/><use xlink:href="#d" transform="matrix(.1 0 0 -.1 25.6 362)"/><path d="M39 313.4h670.2" clip-path="url(#a)" style="fill:none;stroke:#b0b0b0;stroke-opacity:.3;stroke-width:.8;stroke-linecap:square"/><use xlink:href="#m" x="39" y="313.4" style="stroke:#000;stroke-width:.8"/><g transform="matrix(.1 0 0 -.1 25.6 317.2)"><defs><path id="n" d="M2597 2516q453-97 707-404 255-306 255-756 0-690-475-1069Q2609-91 1734-91q-293 0-604 58T488 141v609q262-153 574-231 313-78 654-78 593 0 904 234t311 681q0 413-289 645-289 233-804 233h-544v519h569q465 0 712 186t247 536q0 359-255 551-254 193-729 193-260 0-557-57-297-56-653-174v562q360 100 674 150t592 50q719 0 1137-327 419-326 419-882 0-388-222-655t-631-370" transform="scale(.01563)"/></defs><use xlink:href="#n"/></g><path d="M39 268.7h670.2" clip-path="url(#a)" style="fill:none;stroke:#b0b0b0;stroke-opacity:.3;stroke-width:.8;stroke-linecap:square"/><use xlink:href="#m" x="39" y="268.7" style="stroke:#000;stroke-width:.8"/><use xlink:href="#e" transform="matrix(.1 0 0 -.1 25.6 272.5)"/><path d="M39 224h670.2" clip-path="url(#a)" style="fill:none;stroke:#b0b0b0;stroke-opacity:.3;stroke-width:.8;stroke-linecap:square"/><use xlink:href="#m" x="39" y="223.9" style="stroke:#000;stroke-width:.8"/><g transform="matrix(.1 0 0 -.1 25.6 227.7)"><defs><path id="o" d="M691 4666h2478v-532H1269V2991q137 47 274 70 138 23 276 23 781 0 1237-428 457-428 457-1159 0-753-469-1171Q2575-91 1722-91q-294 0-599 50Q819 9 494 109v635q281-153 581-228t634-75q541 0 856 284 316 284 316 772 0 487-316 771-315 285-856 285-253 0-505-56-251-56-513-175z" transform="scale(.01563)"/></defs><use xlink:href="#o"/></g><path d="M39 179.2h670.2" clip-path="url(#a)" style="fill:none;stroke:#b0b0b0;stroke-opacity:.3;stroke-width:.8;stroke-linecap:square"/><use xlink:href="#m" x="39" y="179.2" style="stroke:#000;stroke-width:.8"/><use xlink:href="#f" transform="matrix(.1 0 0 -.1 25.6 183)"/><path d="M39 134.4h670.2" clip-path="url(#a)" style="fill:none;stroke:#b0b0b0;stroke-opacity:.3;stroke-width:.8;stroke-linecap:square"/><use xlink:href="#m" x="39" y="134.4" style="stroke:#000;stroke-width:.8"/><g transform="matrix(.1 0 0 -.1 25.6 138.2)"><defs><path id="p" d="M525 4666h3000v-269L1831 0h-659l1594 4134H525z" transform="scale(.01563)"/></defs><use xlink:href="#p"/></g><path d="M39 89.6h670.2" clip-path="url(#a)" style="fill:none;stroke:#b0b0b0;stroke-opacity:.3;stroke-width:.8;stroke-linecap:square"/><use xlink:href="#m" x="39" y="89.6" style="stroke:#000;stroke-width:.8"/><use xlink:href="#g" transform="matrix(.1 0 0 -.1 25.6 93.4)"/><path d="M39 44.9h670.2" clip-path="url(#a)" style="fill:none;stroke:#b0b0b0;stroke-opacity:.3;stroke-width:.8;stroke-linecap:square"/><use xlink:href="#m" x="39" y="44.9" style="stroke:#000;stroke-width:.8"/><g transform="matrix(.1 0 0 -.1 25.6 48.7)"><defs><path id="q" d="M703 97v575q238-113 481-172 244-59 479-59 625 0 954 420 330 420 377 1277-181-269-460-413-278-144-615-144-700 0-1108 423-408 424-408 1159 0 718 425 1152 425 435 1131 435 810 0 1236-621 427-620 427-1801 0-1103-524-1761Q2575-91 1691-91q-238 0-482 47Q966 3 703 97m1256 1978q425 0 673 290 249 291 249 798 0 503-249 795-248 292-673 292t-673-292-248-795q0-507 248-798 248-290 673-290" transform="scale(.01563)"/></defs><use xlink:href="#q"/></g><g transform="matrix(0 -.11 -.11 0 19.3 292.1)"><defs><path id="r" d="M1259 2228V519h1013q509 0 754 211 246 211 246 645 0 438-246 645-245 208-754 208zm0 1919V2741h935q462 0 688 173 227 174 227 530 0 353-227 528-226 175-688 175zm-631 519h1613q722 0 1112-300 391-300 391-853 0-429-200-682t-588-315q466-100 724-418 258-317 258-792 0-625-425-966Q3088 0 2303 0H628z" transform="scale(.01563)"/><path id="s" d="M556 4666h635V1831q0-750 271-1080 272-329 882-329 606 0 878 329 272 330 272 1080v2835h634V1753q0-912-452-1378Q3225-91 2344-91q-885 0-1337 466-451 466-451 1378z" transform="scale(.01563)"/><path id="t" d="M-19 4666h3947v-532H2272V0h-634v4134H-19z" transform="scale(.01563)"/><path id="u" d="M628 4666h2950v-532H1259V2753h2222v-531H1259V531h2375V0H628z" transform="scale(.01563)"/><path id="v" d="M2841 2188q203-69 395-294t386-619L4263 0h-679l-596 1197q-232 469-449 622t-592 153h-688V0H628v4666h1425q800 0 1194-335 394-334 394-1009 0-441-205-732-205-290-595-402M1259 4147V2491h794q456 0 689 211t233 620-233 617-689 208z" transform="scale(.01563)"/><path id="w" d="m2188 4044-857-2322h1716zm-357 622h716L4325 0h-656l-425 1197H1141L716 0H50z" transform="scale(.01563)"/><path id="x" d="M3809 666v1253H2778v519h1656V434q-365-259-806-392-440-133-940-133-1094 0-1712 639-617 640-617 1780 0 1144 617 1783 618 639 1712 639 456 0 867-113 411-112 758-331v-672q-350 297-744 447t-828 150q-857 0-1287-478-429-478-429-1425 0-944 429-1422 430-478 1287-478 334 0 596 58 263 58 472 180" transform="scale(.01563)"/><path id="y" d="M628 4666h631V531h2272V0H628z" transform="scale(.01563)"/><path id="z" d="M628 4666h631V0H628z" transform="scale(.01563)"/><path id="A" d="M1984 4856q-418-718-622-1422-203-703-203-1425 0-721 205-1429t620-1424h-500Q1016-109 783 600T550 2009q0 697 231 1403 232 707 703 1444z" transform="scale(.01563)"/><path id="B" d="M603 4863h575V0H603z" transform="scale(.01563)"/><path id="C" d="M1959 3097q-462 0-731-361t-269-989 267-989q268-361 733-361 460 0 728 362 269 363 269 988 0 622-269 986-268 364-728 364m0 487q750 0 1178-488 429-487 429-1349 0-859-429-1349Q2709-91 1959-91q-753 0-1180 489-426 490-426 1349 0 862 426 1349 427 488 1180 488" transform="scale(.01563)"/><path id="D" d="M269 3500h575l719-2731 715 2731h678l719-2731 716 2731h575L4050 0h-678l-753 2869L1863 0h-679z" transform="scale(.01563)"/><path id="E" d="M2631 2963q-97 56-211 82-114 27-251 27-488 0-749-317t-261-911V0H581v3500h578v-544q182 319 472 473 291 155 707 155 59 0 131-8 72-7 159-23z" transform="scale(.01563)"/><path id="F" d="M603 3500h575V0H603zm0 1363h575v-729H603z" transform="scale(.01563)"/><path id="G" d="M2834 3397v-544q-243 125-506 187-262 63-544 63-428 0-642-131t-214-394q0-200 153-314t616-217l197-44q612-131 870-370t258-667q0-488-386-773Q2250-91 1575-91q-281 0-586 55T347 128v594q319-166 628-249 309-82 613-82 406 0 624 139 219 139 219 392 0 234-158 359-157 125-692 241l-200 47q-534 112-772 345-237 233-237 639 0 494 350 762 350 269 994 269 318 0 599-47 282-46 519-140" transform="scale(.01563)"/><path id="H" d="M3116 1747q0 634-261 995t-717 361q-457 0-718-361t-261-995 261-995 718-361q456 0 717 361t261 995M1159 2969q182 312 458 463 277 152 661 152 638 0 1036-506 399-506 399-1331T3314 415Q2916-91 2278-91q-384 0-661 152-276 152-458 464V0H581v4863h578z" transform="scale(.01563)"/><path id="I" d="M1172 4494v-994h1184v-447H1172V1153q0-428 117-550t477-122h590V0h-590q-666 0-919 248-253 249-253 905v1900H172v447h422v994z" transform="scale(.01563)"/><path id="J" d="M513 4856h500q468-737 701-1444 233-706 233-1403 0-700-233-1409T1013-844H513q415 716 620 1424t205 1429q0 722-205 1425-205 704-620 1422" transform="scale(.01563)"/></defs><use xlink:href="#r"/><use xlink:href="#s" transform="translate(68.6)"/><use xlink:href="#t" transform="translate(141.8)"/><use xlink:href="#t" transform="translate(201.1)"/><use xlink:href="#u" transform="translate(262.2)"/><use xlink:href="#v" transform="translate(325.4)"/><use xlink:href="#w" transform="translate(390.9)"/><use xlink:href="#s" transform="translate(459.3)"/><use xlink:href="#x" transform="translate(532.5)"/><use xlink:href="#y" transform="translate(610)"/><use xlink:href="#z" transform="translate(665.7)"/><use xlink:href="#A" transform="translate(727)"/><use xlink:href="#B" transform="translate(766)"/><use xlink:href="#C" transform="translate(793.8)"/><use xlink:href="#D" transform="translate(855)"/><use xlink:href="#k" transform="translate(936.7)"/><use xlink:href="#E" transform="translate(998.3)"/><use xlink:href="#F" transform="translate(1071.2)"/><use xlink:href="#G" transform="translate(1099)"/><use xlink:href="#H" transform="translate(1182.8)"/><use xlink:href="#k" transform="translate(1246.3)"/><use xlink:href="#I" transform="translate(1307.8)"/><use xlink:href="#I" transform="translate(1347)"/><use xlink:href="#k" transform="translate(1386.2)"/><use xlink:href="#E" transform="translate(1447.8)"/><use xlink:href="#J" transform="translate(1488.9)"/></g><path d="m69.5 157.7 60.9-18.5 61 10 60.8-6.6 61 30.5 60.9-12.6 61-1.4 60.9-56.4L556.9 90l61 13h60.8" clip-path="url(#a)" style="fill:none;stroke:#1f77b4;stroke-width:1.5;stroke-linecap:square"/><defs><path id="K" d="M0 3.5a3.5 3.5 0 1 0 0-7 3.5 3.5 0 0 0 0 7z" style="stroke:#1f77b4"/></defs><g clip-path="url(#a)"><use xlink:href="#K" x="69.5" y="157.7" style="fill:#1f77b4;stroke:#1f77b4"/><use xlink:href="#K" x="130.4" y="139.2" style="fill:#1f77b4;stroke:#1f77b4"/><use xlink:href="#K" x="191.3" y="149.3" style="fill:#1f77b4;stroke:#1f77b4"/><use xlink:href="#K" x="252.2" y="142.6" style="fill:#1f77b4;stroke:#1f77b4"/><use xlink:href="#K" x="313.2" y="173.1" style="fill:#1f77b4;stroke:#1f77b4"/><use xlink:href="#K" x="374.1" y="160.5" style="fill:#1f77b4;stroke:#1f77b4"/><use xlink:href="#K" x="435" y="159.1" style="fill:#1f77b4;stroke:#1f77b4"/><use xlink:href="#K" x="496" y="102.7" style="fill:#1f77b4;stroke:#1f77b4"/><use xlink:href="#K" x="556.9" y="90" style="fill:#1f77b4;stroke:#1f77b4"/><use xlink:href="#K" x="617.8" y="103" style="fill:#1f77b4;stroke:#1f77b4"/><use xlink:href="#K" x="678.7" y="103" style="fill:#1f77b4;stroke:#1f77b4"/></g><path d="m69.5 135.5 60.9-51.3 61 39 60.8-6.4 61 42.4 60.9-20 61 7.8L496 55l60.9-11.6 61 22.6h60.8" clip-path="url(#a)" style="fill:none;stroke-dasharray:5.55,2.4;stroke-dashoffset:0;stroke:#1f77b4;stroke-width:1.5"/><defs><path id="L" d="M0 3.5a3.5 3.5 0 1 0 0-7 3.5 3.5 0 0 0 0 7z" style="stroke:#1f77b4"/></defs><g clip-path="url(#a)"><use xlink:href="#L" x="69.5" y="135.5" style="fill-opacity:0;stroke:#1f77b4"/><use xlink:href="#L" x="130.4" y="84.2" style="fill-opacity:0;stroke:#1f77b4"/><use xlink:href="#L" x="191.3" y="123.2" style="fill-opacity:0;stroke:#1f77b4"/><use xlink:href="#L" x="252.2" y="116.8" style="fill-opacity:0;stroke:#1f77b4"/><use xlink:href="#L" x="313.2" y="159.2" style="fill-opacity:0;stroke:#1f77b4"/><use xlink:href="#L" x="374.1" y="139.3" style="fill-opacity:0;stroke:#1f77b4"/><use xlink:href="#L" x="435" y="147" style="fill-opacity:0;stroke:#1f77b4"/><use xlink:href="#L" x="496" y="54.9" style="fill-opacity:0;stroke:#1f77b4"/><use xlink:href="#L" x="556.9" y="43.4" style="fill-opacity:0;stroke:#1f77b4"/><use xlink:href="#L" x="617.8" y="66" style="fill-opacity:0;stroke:#1f77b4"/><use xlink:href="#L" x="678.7" y="66" style="fill-opacity:0;stroke:#1f77b4"/></g><path d="m69.5 280.2 60.9-6.3 61 1.6 60.8-1.6 61-2.9 60.9-.5 61-22.1 60.9-20.5 60.9 3.2 61 12.2h60.8" clip-path="url(#a)" style="fill:none;stroke:#ff7f0e;stroke-width:1.5;stroke-linecap:square"/><defs><path id="M" d="M-3.5 3.5h7v-7h-7z" style="stroke:#ff7f0e;stroke-linejoin:miter"/></defs><g clip-path="url(#a)"><use xlink:href="#M" x="69.5" y="280.2" style="fill:#ff7f0e;stroke:#ff7f0e;stroke-linejoin:miter"/><use xlink:href="#M" x="130.4" y="273.9" style="fill:#ff7f0e;stroke:#ff7f0e;stroke-linejoin:miter"/><use xlink:href="#M" x="191.3" y="275.5" style="fill:#ff7f0e;stroke:#ff7f0e;stroke-linejoin:miter"/><use xlink:href="#M" x="252.2" y="273.9" style="fill:#ff7f0e;stroke:#ff7f0e;stroke-linejoin:miter"/><use xlink:href="#M" x="313.2" y="271" style="fill:#ff7f0e;stroke:#ff7f0e;stroke-linejoin:miter"/><use xlink:href="#M" x="374.1" y="270.5" style="fill:#ff7f0e;stroke:#ff7f0e;stroke-linejoin:miter"/><use xlink:href="#M" x="435" y="248.4" style="fill:#ff7f0e;stroke:#ff7f0e;stroke-linejoin:miter"/><use xlink:href="#M" x="496" y="227.9" style="fill:#ff7f0e;stroke:#ff7f0e;stroke-linejoin:miter"/><use xlink:href="#M" x="556.9" y="231.1" style="fill:#ff7f0e;stroke:#ff7f0e;stroke-linejoin:miter"/><use xlink:href="#M" x="617.8" y="243.3" style="fill:#ff7f0e;stroke:#ff7f0e;stroke-linejoin:miter"/><use xlink:href="#M" x="678.7" y="243.3" style="fill:#ff7f0e;stroke:#ff7f0e;stroke-linejoin:miter"/></g><path d="m69.5 260.5 60.9-3 61 10.5 60.8-7.8 61-6.3 60.9-1 61-45 60.9-2.4 60.9-31.9 61 41.6h60.8" clip-path="url(#a)" style="fill:none;stroke-dasharray:5.55,2.4;stroke-dashoffset:0;stroke:#ff7f0e;stroke-width:1.5"/><defs><path id="N" d="M-3.5 3.5h7v-7h-7z" style="stroke:#ff7f0e;stroke-linejoin:miter"/></defs><g clip-path="url(#a)"><use xlink:href="#N" x="69.5" y="260.5" style="fill-opacity:0;stroke:#ff7f0e;stroke-linejoin:miter"/><use xlink:href="#N" x="130.4" y="257.6" style="fill-opacity:0;stroke:#ff7f0e;stroke-linejoin:miter"/><use xlink:href="#N" x="191.3" y="268" style="fill-opacity:0;stroke:#ff7f0e;stroke-linejoin:miter"/><use xlink:href="#N" x="252.2" y="260.2" style="fill-opacity:0;stroke:#ff7f0e;stroke-linejoin:miter"/><use xlink:href="#N" x="313.2" y="253.9" style="fill-opacity:0;stroke:#ff7f0e;stroke-linejoin:miter"/><use xlink:href="#N" x="374.1" y="252.9" style="fill-opacity:0;stroke:#ff7f0e;stroke-linejoin:miter"/><use xlink:href="#N" x="435" y="207.9" style="fill-opacity:0;stroke:#ff7f0e;stroke-linejoin:miter"/><use xlink:href="#N" x="496" y="205.5" style="fill-opacity:0;stroke:#ff7f0e;stroke-linejoin:miter"/><use xlink:href="#N" x="556.9" y="173.6" style="fill-opacity:0;stroke:#ff7f0e;stroke-linejoin:miter"/><use xlink:href="#N" x="617.8" y="215.2" style="fill-opacity:0;stroke:#ff7f0e;stroke-linejoin:miter"/><use xlink:href="#N" x="678.7" y="215.2" style="fill-opacity:0;stroke:#ff7f0e;stroke-linejoin:miter"/></g><path d="m69.5 345.5 60.9-7.4 61-.5 60.8 1.8 61-1.4 60.9-4.7 61 2.9 60.9-22.4 60.9 9.4 61-3.6h60.8" clip-path="url(#a)" style="fill:none;stroke:#2ca02c;stroke-width:1.5;stroke-linecap:square"/><defs><path id="O" d="m0-3.5-3.5 7h7z" style="stroke:#2ca02c;stroke-linejoin:miter"/></defs><g clip-path="url(#a)"><use xlink:href="#O" x="69.5" y="345.5" style="fill:#2ca02c;stroke:#2ca02c;stroke-linejoin:miter"/><use xlink:href="#O" x="130.4" y="338.1" style="fill:#2ca02c;stroke:#2ca02c;stroke-linejoin:miter"/><use xlink:href="#O" x="191.3" y="337.6" style="fill:#2ca02c;stroke:#2ca02c;stroke-linejoin:miter"/><use xlink:href="#O" x="252.2" y="339.4" style="fill:#2ca02c;stroke:#2ca02c;stroke-linejoin:miter"/><use xlink:href="#O" x="313.2" y="338" style="fill:#2ca02c;stroke:#2ca02c;stroke-linejoin:miter"/><use xlink:href="#O" x="374.1" y="333.3" style="fill:#2ca02c;stroke:#2ca02c;stroke-linejoin:miter"/><use xlink:href="#O" x="435" y="336.2" style="fill:#2ca02c;stroke:#2ca02c;stroke-linejoin:miter"/><use xlink:href="#O" x="496" y="313.8" style="fill:#2ca02c;stroke:#2ca02c;stroke-linejoin:miter"/><use xlink:href="#O" x="556.9" y="323.2" style="fill:#2ca02c;stroke:#2ca02c;stroke-linejoin:miter"/><use xlink:href="#O" x="617.8" y="319.6" style="fill:#2ca02c;stroke:#2ca02c;stroke-linejoin:miter"/><use xlink:href="#O" x="678.7" y="319.6" style="fill:#2ca02c;stroke:#2ca02c;stroke-linejoin:miter"/></g><path d="m69.5 338.4 60.9-7.8 61 .5 60.8-3 61 .9 60.9-11.2 61 11.5 60.9-42.8 60.9 8.6 61 8h60.8" clip-path="url(#a)" style="fill:none;stroke-dasharray:5.55,2.4;stroke-dashoffset:0;stroke:#2ca02c;stroke-width:1.5"/><defs><path id="P" d="m0-3.5-3.5 7h7z" style="stroke:#2ca02c;stroke-linejoin:miter"/></defs><g clip-path="url(#a)"><use xlink:href="#P" x="69.5" y="338.4" style="fill-opacity:0;stroke:#2ca02c;stroke-linejoin:miter"/><use xlink:href="#P" x="130.4" y="330.6" style="fill-opacity:0;stroke:#2ca02c;stroke-linejoin:miter"/><use xlink:href="#P" x="191.3" y="331.1" style="fill-opacity:0;stroke:#2ca02c;stroke-linejoin:miter"/><use xlink:href="#P" x="252.2" y="328.1" style="fill-opacity:0;stroke:#2ca02c;stroke-linejoin:miter"/><use xlink:href="#P" x="313.2" y="329" style="fill-opacity:0;stroke:#2ca02c;stroke-linejoin:miter"/><use xlink:href="#P" x="374.1" y="317.8" style="fill-opacity:0;stroke:#2ca02c;stroke-linejoin:miter"/><use xlink:href="#P" x="435" y="329.3" style="fill-opacity:0;stroke:#2ca02c;stroke-linejoin:miter"/><use xlink:href="#P" x="496" y="286.5" style="fill-opacity:0;stroke:#2ca02c;stroke-linejoin:miter"/><use xlink:href="#P" x="556.9" y="295.1" style="fill-opacity:0;stroke:#2ca02c;stroke-linejoin:miter"/><use xlink:href="#P" x="617.8" y="303.2" style="fill-opacity:0;stroke:#2ca02c;stroke-linejoin:miter"/><use xlink:href="#P" x="678.7" y="303.2" style="fill-opacity:0;stroke:#2ca02c;stroke-linejoin:miter"/></g><path d="m69.5 372.8 60.9-6.5 61 5.9 60.8-.5 61-2.2 60.9-1.4 61-1.7 60.9-3.3 60.9-.3 61 2.5h60.8" clip-path="url(#a)" style="fill:none;stroke:#d62728;stroke-width:1.5;stroke-linecap:square"/><defs><path id="Q" d="m0 5 5-5-5-5-5 5z" style="stroke:#d62728;stroke-linejoin:miter"/></defs><g clip-path="url(#a)"><use xlink:href="#Q" x="69.5" y="372.8" style="fill:#d62728;stroke:#d62728;stroke-linejoin:miter"/><use xlink:href="#Q" x="130.4" y="366.3" style="fill:#d62728;stroke:#d62728;stroke-linejoin:miter"/><use xlink:href="#Q" x="191.3" y="372.2" style="fill:#d62728;stroke:#d62728;stroke-linejoin:miter"/><use xlink:href="#Q" x="252.2" y="371.7" style="fill:#d62728;stroke:#d62728;stroke-linejoin:miter"/><use xlink:href="#Q" x="313.2" y="369.5" style="fill:#d62728;stroke:#d62728;stroke-linejoin:miter"/><use xlink:href="#Q" x="374.1" y="368.1" style="fill:#d62728;stroke:#d62728;stroke-linejoin:miter"/><use xlink:href="#Q" x="435" y="366.4" style="fill:#d62728;stroke:#d62728;stroke-linejoin:miter"/><use xlink:href="#Q" x="496" y="363.1" style="fill:#d62728;stroke:#d62728;stroke-linejoin:miter"/><use xlink:href="#Q" x="556.9" y="362.8" style="fill:#d62728;stroke:#d62728;stroke-linejoin:miter"/><use xlink:href="#Q" x="617.8" y="365.3" style="fill:#d62728;stroke:#d62728;stroke-linejoin:miter"/><use xlink:href="#Q" x="678.7" y="365.3" style="fill:#d62728;stroke:#d62728;stroke-linejoin:miter"/></g><path d="m69.5 363.1 60.9-5.4 61 3.4 60.8.5 61-4 60.9.3 61 .6 60.9-4 60.9 1.4 61-2h60.8" clip-path="url(#a)" style="fill:none;stroke-dasharray:5.55,2.4;stroke-dashoffset:0;stroke:#d62728;stroke-width:1.5"/><defs><path id="R" d="m0 5 5-5-5-5-5 5z" style="stroke:#d62728;stroke-linejoin:miter"/></defs><g clip-path="url(#a)"><use xlink:href="#R" x="69.5" y="363.1" style="fill-opacity:0;stroke:#d62728;stroke-linejoin:miter"/><use xlink:href="#R" x="130.4" y="357.7" style="fill-opacity:0;stroke:#d62728;stroke-linejoin:miter"/><use xlink:href="#R" x="191.3" y="361.1" style="fill-opacity:0;stroke:#d62728;stroke-linejoin:miter"/><use xlink:href="#R" x="252.2" y="361.6" style="fill-opacity:0;stroke:#d62728;stroke-linejoin:miter"/><use xlink:href="#R" x="313.2" y="357.6" style="fill-opacity:0;stroke:#d62728;stroke-linejoin:miter"/><use xlink:href="#R" x="374.1" y="357.9" style="fill-opacity:0;stroke:#d62728;stroke-linejoin:miter"/><use xlink:href="#R" x="435" y="358.5" style="fill-opacity:0;stroke:#d62728;stroke-linejoin:miter"/><use xlink:href="#R" x="496" y="354.4" style="fill-opacity:0;stroke:#d62728;stroke-linejoin:miter"/><use xlink:href="#R" x="556.9" y="355.9" style="fill-opacity:0;stroke:#d62728;stroke-linejoin:miter"/><use xlink:href="#R" x="617.8" y="353.9" style="fill-opacity:0;stroke:#d62728;stroke-linejoin:miter"/><use xlink:href="#R" x="678.7" y="353.9" style="fill-opacity:0;stroke:#d62728;stroke-linejoin:miter"/></g><path d="M39 389.3V27m670.2 362.3V27M39 389.3h670.2M39 26.9h670.2" style="fill:none;stroke:#000;stroke-width:.8;stroke-linejoin:miter;stroke-linecap:square"/><g transform="matrix(.12 0 0 -.12 303 20.9)"><defs><path id="S" d="M191 3500h609L1894 563l1094 2937h609L2284 0h-781z" transform="scale(.01563)"/></defs><use xlink:href="#r"/><use xlink:href="#s" transform="translate(68.6)"/><use xlink:href="#t" transform="translate(141.8)"/><use xlink:href="#t" transform="translate(201.1)"/><use xlink:href="#u" transform="translate(262.2)"/><use xlink:href="#v" transform="translate(325.4)"/><use xlink:href="#w" transform="translate(390.9)"/><use xlink:href="#s" transform="translate(459.3)"/><use xlink:href="#x" transform="translate(532.5)"/><use xlink:href="#y" transform="translate(610)"/><use xlink:href="#z" transform="translate(665.7)"/><use xlink:href="#S" transform="translate(727)"/><use xlink:href="#G" transform="translate(786.1)"/><use xlink:href="#i" transform="translate(870)"/><use xlink:href="#j" transform="translate(933.5)"/><use xlink:href="#k" transform="translate(997)"/><use xlink:href="#k" transform="translate(1058.5)"/><use xlink:href="#l" transform="translate(1120)"/></g><path d="M44.6 80.3H221q1.6 0 1.6-1.6V32.5q0-1.6-1.6-1.6H44.6q-1.6 0-1.6 1.6v46.2q0 1.5 1.6 1.5z" style="fill:#fff;opacity:.8;stroke:#ccc;stroke-linejoin:miter"/><path d="M46.2 37.4h16" style="fill:none;stroke:#1f77b4;stroke-width:1.5;stroke-linecap:square"/><use xlink:href="#K" x="54.2" y="37.4" style="fill:#1f77b4;stroke:#1f77b4"/><g transform="matrix(.08 0 0 -.08 68.6 40.2)"><defs><path id="T" d="M3328 2828q216 388 516 572t706 184q547 0 844-383 297-382 297-1088V0h-578v2094q0 503-179 746-178 244-543 244-447 0-707-297-259-296-259-809V0h-578v2094q0 506-178 748t-550 242q-441 0-701-298-259-298-259-808V0H581v3500h578v-544q197 322 472 475t653 153q382 0 649-194 267-193 395-562" transform="scale(.01563)"/><path id="U" d="M2194 1759q-697 0-966-159t-269-544q0-306 202-486 202-179 548-179 479 0 768 339t289 901v128zm1147 238V0h-575v531q-197-318-491-470T1556-91q-537 0-855 302-317 302-317 808 0 590 395 890 396 300 1180 300h807v57q0 397-261 614t-733 217q-300 0-585-72-284-72-546-216v532q315 122 612 182 297 61 578 61 760 0 1135-394 375-393 375-1193" transform="scale(.01563)"/><path id="V" d="M3513 2113V0h-575v2094q0 497-194 743-194 247-581 247-466 0-735-297-269-296-269-809V0H581v3500h578v-544q207 316 486 472 280 156 646 156 603 0 912-373 310-373 310-1098" transform="scale(.01563)"/></defs><use xlink:href="#n"/><use xlink:href="#o" transform="translate(63.6)"/><use xlink:href="#A" transform="translate(159)"/><use xlink:href="#T" transform="translate(198)"/><use xlink:href="#k" transform="translate(295.5)"/><use xlink:href="#U" transform="translate(357)"/><use xlink:href="#V" transform="translate(418.3)"/><use xlink:href="#J" transform="translate(481.6)"/></g><path d="M46.2 49.1h16" style="fill:none;stroke-dasharray:5.55,2.4;stroke-dashoffset:0;stroke:#1f77b4;stroke-width:1.5"/><use xlink:href="#L" x="54.2" y="49.1" style="fill-opacity:0;stroke:#1f77b4"/><g transform="matrix(.08 0 0 -.08 68.6 51.9)"><defs><path id="W" d="M4653 2053q-272 0-427-231-154-231-154-644 0-406 154-639 155-233 427-233 266 0 420 233 155 233 155 639 0 410-155 642-154 233-420 233m0 397q494 0 784-344 291-343 291-928 0-584-292-927-292-342-783-342-500 0-791 342-290 343-290 927 0 588 292 930t789 342M1428 4353q-269 0-424-233-154-232-154-639 0-412 153-644 153-231 425-231t426 231q155 232 155 644 0 403-156 637-156 235-425 235m2822 397h500L1831-91h-500zm-2822 0q494 0 787-342 294-342 294-927 0-590-292-931t-789-341-786 342q-289 343-289 930 0 582 290 925 291 344 785 344" transform="scale(.01563)"/></defs><use xlink:href="#n"/><use xlink:href="#o" transform="translate(63.6)"/><use xlink:href="#A" transform="translate(159)"/><use xlink:href="#o" transform="translate(198)"/><use xlink:href="#W" transform="translate(261.7)"/><use xlink:href="#D" transform="translate(388.5)"/><use xlink:href="#C" transform="translate(470.3)"/><use xlink:href="#E" transform="translate(531.4)"/><use xlink:href="#G" transform="translate(572.6)"/><use xlink:href="#I" transform="translate(624.7)"/><use xlink:href="#J" transform="translate(663.9)"/></g><path d="M46.2 60.8h16" style="fill:none;stroke:#ff7f0e;stroke-width:1.5;stroke-linecap:square"/><use xlink:href="#M" x="54.2" y="60.8" style="fill:#ff7f0e;stroke:#ff7f0e;stroke-linejoin:miter"/><g transform="matrix(.08 0 0 -.08 68.6 63.6)"><use xlink:href="#o"/><use xlink:href="#c" transform="translate(63.6)"/><use xlink:href="#A" transform="translate(159)"/><use xlink:href="#T" transform="translate(198)"/><use xlink:href="#k" transform="translate(295.5)"/><use xlink:href="#U" transform="translate(357)"/><use xlink:href="#V" transform="translate(418.3)"/><use xlink:href="#J" transform="translate(481.6)"/></g><path d="M46.2 72.6h16" style="fill:none;stroke-dasharray:5.55,2.4;stroke-dashoffset:0;stroke:#ff7f0e;stroke-width:1.5"/><use xlink:href="#N" x="54.2" y="72.6" style="fill-opacity:0;stroke:#ff7f0e;stroke-linejoin:miter"/><g transform="matrix(.08 0 0 -.08 68.6 75.4)"><use xlink:href="#o"/><use xlink:href="#c" transform="translate(63.6)"/><use xlink:href="#A" transform="translate(159)"/><use xlink:href="#o" transform="translate(198)"/><use xlink:href="#W" transform="translate(261.7)"/><use xlink:href="#D" transform="translate(388.5)"/><use xlink:href="#C" transform="translate(470.3)"/><use xlink:href="#E" transform="translate(531.4)"/><use xlink:href="#G" transform="translate(572.6)"/><use xlink:href="#I" transform="translate(624.7)"/><use xlink:href="#J" transform="translate(663.9)"/></g><path d="M140.8 37.4h16" style="fill:none;stroke:#2ca02c;stroke-width:1.5;stroke-linecap:square"/><use xlink:href="#O" x="148.8" y="37.4" style="fill:#2ca02c;stroke:#2ca02c;stroke-linejoin:miter"/><g transform="matrix(.08 0 0 -.08 163.2 40.2)"><use xlink:href="#f"/><use xlink:href="#o" transform="translate(63.6)"/><use xlink:href="#A" transform="translate(159)"/><use xlink:href="#T" transform="translate(198)"/><use xlink:href="#k" transform="translate(295.5)"/><use xlink:href="#U" transform="translate(357)"/><use xlink:href="#V" transform="translate(418.3)"/><use xlink:href="#J" transform="translate(481.6)"/></g><path d="M140.8 49.1h16" style="fill:none;stroke-dasharray:5.55,2.4;stroke-dashoffset:0;stroke:#2ca02c;stroke-width:1.5"/><use xlink:href="#P" x="148.8" y="49.1" style="fill-opacity:0;stroke:#2ca02c;stroke-linejoin:miter"/><g transform="matrix(.08 0 0 -.08 163.2 51.9)"><use xlink:href="#f"/><use xlink:href="#o" transform="translate(63.6)"/><use xlink:href="#A" transform="translate(159)"/><use xlink:href="#o" transform="translate(198)"/><use xlink:href="#W" transform="translate(261.7)"/><use xlink:href="#D" transform="translate(388.5)"/><use xlink:href="#C" transform="translate(470.3)"/><use xlink:href="#E" transform="translate(531.4)"/><use xlink:href="#G" transform="translate(572.6)"/><use xlink:href="#I" transform="translate(624.7)"/><use xlink:href="#J" transform="translate(663.9)"/></g><path d="M140.8 60.8h16" style="fill:none;stroke:#d62728;stroke-width:1.5;stroke-linecap:square"/><use xlink:href="#Q" x="148.8" y="60.8" style="fill:#d62728;stroke:#d62728;stroke-linejoin:miter"/><g transform="matrix(.08 0 0 -.08 163.2 63.6)"><use xlink:href="#g"/><use xlink:href="#c" transform="translate(63.6)"/><use xlink:href="#A" transform="translate(159)"/><use xlink:href="#T" transform="translate(198)"/><use xlink:href="#k" transform="translate(295.5)"/><use xlink:href="#U" transform="translate(357)"/><use xlink:href="#V" transform="translate(418.3)"/><use xlink:href="#J" transform="translate(481.6)"/></g><path d="M140.8 72.6h16" style="fill:none;stroke-dasharray:5.55,2.4;stroke-dashoffset:0;stroke:#d62728;stroke-width:1.5"/><use xlink:href="#R" x="148.8" y="72.6" style="fill-opacity:0;stroke:#d62728;stroke-linejoin:miter"/><g transform="matrix(.08 0 0 -.08 163.2 75.4)"><use xlink:href="#g"/><use xlink:href="#c" transform="translate(63.6)"/><use xlink:href="#A" transform="translate(159)"/><use xlink:href="#o" transform="translate(198)"/><use xlink:href="#W" transform="translate(261.7)"/><use xlink:href="#D" transform="translate(388.5)"/><use xlink:href="#C" transform="translate(470.3)"/><use xlink:href="#E" transform="translate(531.4)"/><use xlink:href="#G" transform="translate(572.6)"/><use xlink:href="#I" transform="translate(624.7)"/><use xlink:href="#J" transform="translate(663.9)"/></g><defs><clipPath id="a"><path d="M39 26.9h670.2v362.4H39z"/></clipPath></defs></svg>