<?xml version="1.0" encoding="utf-8" standalone="no"?>
<!DOCTYPE svg PUBLIC "-//W3C//DTD SVG 1.1//EN"
  "http://www.w3.org/Graphics/SVG/1.1/DTD/svg11.dtd">
<svg xmlns:xlink="http://www.w3.org/1999/xlink" width="720pt" height="432pt" viewBox="0 0 720 432" xmlns="http://www.w3.org/2000/svg" version="1.1">
 <metadata>
  <rdf:RDF xmlns:dc="http://purl.org/dc/elements/1.1/" xmlns:cc="http://creativecommons.org/ns#" xmlns:rdf="http://www.w3.org/1999/02/22-rdf-syntax-ns#">
   <cc:Work>
    <dc:type rdf:resource="http://purl.org/dc/dcmitype/StillImage"/>
    <dc:date>2026-02-27T18:04:44.290862</dc:date>
    <dc:format>image/svg+xml</dc:format>
    <dc:creator>
     <cc:Agent>
      <dc:title>Matplotlib v3.10.8, https://matplotlib.org/</dc:title>
     </cc:Agent>
    </dc:creator>
   </cc:Work>
  </rdf:RDF>
 </metadata>
 <defs>
  <style type="text/css">*{stroke-linejoin: round; stroke-linecap: butt}</style>
 </defs>
 <g id="figure_1">
  <g id="patch_1">
   <path d="M 0 432 
L 720 432 
L 720 0 
L 0 0 
z
" style="fill: #ffffff"/>
  </g>
  <g id="axes_1">
   <g id="patch_2">
    <path d="M 48.44 389.32 
L 709.2 389.32 
L 709.2 26.88 
L 48.44 26.88 
z
" style="fill: #ffffff"/>
   </g>
   <g id="matplotlib.axis_1">
    <g id="xtick_1">
     <g id="line2d_1">
      <path d="M 78.474545 389.32 
L 78.474545 26.88 
" clip-path="url(#p4f5112d095)" style="fill: none; stroke: #b0b0b0; stroke-opacity: 0.3; stroke-width: 0.8; stroke-linecap: square"/>
     </g>
     <g id="line2d_2">
      <defs>
       <path id="m41920f1166" d="M 0 0 
L 0 3.5 
" style="stroke: #000000; stroke-width: 0.8"/>
      </defs>
      <g>
       <use xlink:href="#m41920f1166" x="78.474545" y="389.32" style="stroke: #000000; stroke-width: 0.8"/>
      </g>
     </g>
     <g id="text_1">
      <!-- 0 -->
      <g transform="translate(75.293295 403.918437) scale(0.1 -0.1)">
       <defs>
        <path id="DejaVuSans-30" d="M 2034 4250 
Q 1547 4250 1301 3770 
Q 1056 3291 1056 2328 
Q 1056 1369 1301 889 
Q 1547 409 2034 409 
Q 2525 409 2770 889 
Q 3016 1369 3016 2328 
Q 3016 3291 2770 3770 
Q 2525 4250 2034 4250 
z
M 2034 4750 
Q 2819 4750 3233 4129 
Q 3647 3509 3647 2328 
Q 3647 1150 3233 529 
Q 2819 -91 2034 -91 
Q 1250 -91 836 529 
Q 422 1150 422 2328 
Q 422 3509 836 4129 
Q 1250 4750 2034 4750 
z
" transform="scale(0.015625)"/>
       </defs>
       <use xlink:href="#DejaVuSans-30"/>
      </g>
     </g>
    </g>
    <g id="xtick_2">
     <g id="line2d_3">
      <path d="M 198.612727 389.32 
L 198.612727 26.88 
" clip-path="url(#p4f5112d095)" style="fill: none; stroke: #b0b0b0; stroke-opacity: 0.3; stroke-width: 0.8; stroke-linecap: square"/>
     </g>
     <g id="line2d_4">
      <g>
       <use xlink:href="#m41920f1166" x="198.612727" y="389.32" style="stroke: #000000; stroke-width: 0.8"/>
      </g>
     </g>
     <g id="text_2">
      <!-- 2 -->
      <g transform="translate(195.431477 403.918437) scale(0.1 -0.1)">
       <defs>
        <path id="DejaVuSans-32" d="M 1228 531 
L 3431 531 
L 3431 0 
L 469 0 
L 469 531 
Q 828 903 1448 1529 
Q 2069 2156 2228 2338 
Q 2531 2678 2651 2914 
Q 2772 3150 2772 3378 
Q 2772 3750 2511 3984 
Q 2250 4219 1831 4219 
Q 1534 4219 1204 4116 
Q 875 4013 500 3803 
L 500 4441 
Q 881 4594 1212 4672 
Q 1544 4750 1819 4750 
Q 2544 4750 2975 4387 
Q 3406 4025 3406 3419 
Q 3406 3131 3298 2873 
Q 3191 2616 2906 2266 
Q 2828 2175 2409 1742 
Q 1991 1309 1228 531 
z
" transform="scale(0.015625)"/>
       </defs>
       <use xlink:href="#DejaVuSans-32"/>
      </g>
     </g>
    </g>
    <g id="xtick_3">
     <g id="line2d_5">
      <path d="M 318.750909 389.32 
L 318.750909 26.88 
" clip-path="url(#p4f5112d095)" style="fill: none; stroke: #b0b0b0; stroke-opacity: 0.3; stroke-width: 0.8; stroke-linecap: square"/>
     </g>
     <g id="line2d_6">
      <g>
       <use xlink:href="#m41920f1166" x="318.750909" y="389.32" style="stroke: #000000; stroke-width: 0.8"/>
      </g>
     </g>
     <g id="text_3">
      <!-- 4 -->
      <g transform="translate(315.569659 403.918437) scale(0.1 -0.1)">
       <defs>
        <path id="DejaVuSans-34" d="M 2419 4116 
L 825 1625 
L 2419 1625 
L 2419 4116 
z
M 2253 4666 
L 3047 4666 
L 3047 1625 
L 3713 1625 
L 3713 1100 
L 3047 1100 
L 3047 0 
L 2419 0 
L 2419 1100 
L 313 1100 
L 313 1709 
L 2253 4666 
z
" transform="scale(0.015625)"/>
       </defs>
       <use xlink:href="#DejaVuSans-34"/>
      </g>
     </g>
    </g>
    <g id="xtick_4">
     <g id="line2d_7">
      <path d="M 438.889091 389.32 
L 438.889091 26.88 
" clip-path="url(#p4f5112d095)" style="fill: none; stroke: #b0b0b0; stroke-opacity: 0.3; stroke-width: 0.8; stroke-linecap: square"/>
     </g>
     <g id="line2d_8">
      <g>
       <use xlink:href="#m41920f1166" x="438.889091" y="389.32" style="stroke: #000000; stroke-width: 0.8"/>
      </g>
     </g>
     <g id="text_4">
      <!-- 6 -->
      <g transform="translate(435.707841 403.918437) scale(0.1 -0.1)">
       <defs>
        <path id="DejaVuSans-36" d="M 2113 2584 
Q 1688 2584 1439 2293 
Q 1191 2003 1191 1497 
Q 1191 994 1439 701 
Q 1688 409 2113 409 
Q 2538 409 2786 701 
Q 3034 994 3034 1497 
Q 3034 2003 2786 2293 
Q 2538 2584 2113 2584 
z
M 3366 4563 
L 3366 3988 
Q 3128 4100 2886 4159 
Q 2644 4219 2406 4219 
Q 1781 4219 1451 3797 
Q 1122 3375 1075 2522 
Q 1259 2794 1537 2939 
Q 1816 3084 2150 3084 
Q 2853 3084 3261 2657 
Q 3669 2231 3669 1497 
Q 3669 778 3244 343 
Q 2819 -91 2113 -91 
Q 1303 -91 875 529 
Q 447 1150 447 2328 
Q 447 3434 972 4092 
Q 1497 4750 2381 4750 
Q 2619 4750 2861 4703 
Q 3103 4656 3366 4563 
z
" transform="scale(0.015625)"/>
       </defs>
       <use xlink:href="#DejaVuSans-36"/>
      </g>
     </g>
    </g>
    <g id="xtick_5">
     <g id="line2d_9">
      <path d="M 559.027273 389.32 
L 559.027273 26.88 
" clip-path="url(#p4f5112d095)" style="fill: none; stroke: #b0b0b0; stroke-opacity: 0.3; stroke-width: 0.8; stroke-linecap: square"/>
     </g>
     <g id="line2d_10">
      <g>
       <use xlink:href="#m41920f1166" x="559.027273" y="389.32" style="stroke: #000000; stroke-width: 0.8"/>
      </g>
     </g>
     <g id="text_5">
      <!-- 8 -->
      <g transform="translate(555.846023 403.918437) scale(0.1 -0.1)">
       <defs>
        <path id="DejaVuSans-38" d="M 2034 2216 
Q 1584 2216 1326 1975 
Q 1069 1734 1069 1313 
Q 1069 891 1326 650 
Q 1584 409 2034 409 
Q 2484 409 2743 651 
Q 3003 894 3003 1313 
Q 3003 1734 2745 1975 
Q 2488 2216 2034 2216 
z
M 1403 2484 
Q 997 2584 770 2862 
Q 544 3141 544 3541 
Q 544 4100 942 4425 
Q 1341 4750 2034 4750 
Q 2731 4750 3128 4425 
Q 3525 4100 3525 3541 
Q 3525 3141 3298 2862 
Q 3072 2584 2669 2484 
Q 3125 2378 3379 2068 
Q 3634 1759 3634 1313 
Q 3634 634 3220 271 
Q 2806 -91 2034 -91 
Q 1263 -91 848 271 
Q 434 634 434 1313 
Q 434 1759 690 2068 
Q 947 2378 1403 2484 
z
M 1172 3481 
Q 1172 3119 1398 2916 
Q 1625 2713 2034 2713 
Q 2441 2713 2670 2916 
Q 2900 3119 2900 3481 
Q 2900 3844 2670 4047 
Q 2441 4250 2034 4250 
Q 1625 4250 1398 4047 
Q 1172 3844 1172 3481 
z
" transform="scale(0.015625)"/>
       </defs>
       <use xlink:href="#DejaVuSans-38"/>
      </g>
     </g>
    </g>
    <g id="xtick_6">
     <g id="line2d_11">
      <path d="M 679.165455 389.32 
L 679.165455 26.88 
" clip-path="url(#p4f5112d095)" style="fill: none; stroke: #b0b0b0; stroke-opacity: 0.3; stroke-width: 0.8; stroke-linecap: square"/>
     </g>
     <g id="line2d_12">
      <g>
       <use xlink:href="#m41920f1166" x="679.165455" y="389.32" style="stroke: #000000; stroke-width: 0.8"/>
      </g>
     </g>
     <g id="text_6">
      <!-- 10 -->
      <g transform="translate(672.802955 403.918437) scale(0.1 -0.1)">
       <defs>
        <path id="DejaVuSans-31" d="M 794 531 
L 1825 531 
L 1825 4091 
L 703 3866 
L 703 4441 
L 1819 4666 
L 2450 4666 
L 2450 531 
L 3481 531 
L 3481 0 
L 794 0 
L 794 531 
z
" transform="scale(0.015625)"/>
       </defs>
       <use xlink:href="#DejaVuSans-31"/>
       <use xlink:href="#DejaVuSans-30" transform="translate(63.623047 0)"/>
      </g>
     </g>
    </g>
    <g id="text_7">
     <!-- Speed -->
     <g transform="translate(361.576641 418.356406) scale(0.11 -0.11)">
      <defs>
       <path id="DejaVuSans-53" d="M 3425 4513 
L 3425 3897 
Q 3066 4069 2747 4153 
Q 2428 4238 2131 4238 
Q 1616 4238 1336 4038 
Q 1056 3838 1056 3469 
Q 1056 3159 1242 3001 
Q 1428 2844 1947 2747 
L 2328 2669 
Q 3034 2534 3370 2195 
Q 3706 1856 3706 1288 
Q 3706 609 3251 259 
Q 2797 -91 1919 -91 
Q 1588 -91 1214 -16 
Q 841 59 441 206 
L 441 856 
Q 825 641 1194 531 
Q 1563 422 1919 422 
Q 2459 422 2753 634 
Q 3047 847 3047 1241 
Q 3047 1584 2836 1778 
Q 2625 1972 2144 2069 
L 1759 2144 
Q 1053 2284 737 2584 
Q 422 2884 422 3419 
Q 422 4038 858 4394 
Q 1294 4750 2059 4750 
Q 2388 4750 2728 4690 
Q 3069 4631 3425 4513 
z
" transform="scale(0.015625)"/>
       <path id="DejaVuSans-70" d="M 1159 525 
L 1159 -1331 
L 581 -1331 
L 581 3500 
L 1159 3500 
L 1159 2969 
Q 1341 3281 1617 3432 
Q 1894 3584 2278 3584 
Q 2916 3584 3314 3078 
Q 3713 2572 3713 1747 
Q 3713 922 3314 415 
Q 2916 -91 2278 -91 
Q 1894 -91 1617 61 
Q 1341 213 1159 525 
z
M 3116 1747 
Q 3116 2381 2855 2742 
Q 2594 3103 2138 3103 
Q 1681 3103 1420 2742 
Q 1159 2381 1159 1747 
Q 1159 1113 1420 752 
Q 1681 391 2138 391 
Q 2594 391 2855 752 
Q 3116 1113 3116 1747 
z
" transform="scale(0.015625)"/>
       <path id="DejaVuSans-65" d="M 3597 1894 
L 3597 1613 
L 953 1613 
Q 991 1019 1311 708 
Q 1631 397 2203 397 
Q 2534 397 2845 478 
Q 3156 559 3463 722 
L 3463 178 
Q 3153 47 2828 -22 
Q 2503 -91 2169 -91 
Q 1331 -91 842 396 
Q 353 884 353 1716 
Q 353 2575 817 3079 
Q 1281 3584 2069 3584 
Q 2775 3584 3186 3129 
Q 3597 2675 3597 1894 
z
M 3022 2063 
Q 3016 2534 2758 2815 
Q 2500 3097 2075 3097 
Q 1594 3097 1305 2825 
Q 1016 2553 972 2059 
L 3022 2063 
z
" transform="scale(0.015625)"/>
       <path id="DejaVuSans-64" d="M 2906 2969 
L 2906 4863 
L 3481 4863 
L 3481 0 
L 2906 0 
L 2906 525 
Q 2725 213 2448 61 
Q 2172 -91 1784 -91 
Q 1150 -91 751 415 
Q 353 922 353 1747 
Q 353 2572 751 3078 
Q 1150 3584 1784 3584 
Q 2172 3584 2448 3432 
Q 2725 3281 2906 2969 
z
M 947 1747 
Q 947 1113 1208 752 
Q 1469 391 1925 391 
Q 2381 391 2643 752 
Q 2906 1113 2906 1747 
Q 2906 2381 2643 2742 
Q 2381 3103 1925 3103 
Q 1469 3103 1208 2742 
Q 947 2381 947 1747 
z
" transform="scale(0.015625)"/>
      </defs>
      <use xlink:href="#DejaVuSans-53"/>
      <use xlink:href="#DejaVuSans-70" transform="translate(63.476562 0)"/>
      <use xlink:href="#DejaVuSans-65" transform="translate(126.953125 0)"/>
      <use xlink:href="#DejaVuSans-65" transform="translate(188.476562 0)"/>
      <use xlink:href="#DejaVuSans-64" transform="translate(250 0)"/>
     </g>
    </g>
   </g>
   <g id="matplotlib.axis_2">
    <g id="ytick_1">
     <g id="line2d_13">
      <path d="M 48.44 328.473002 
L 709.2 328.473002 
" clip-path="url(#p4f5112d095)" style="fill: none; stroke: #b0b0b0; stroke-opacity: 0.3; stroke-width: 0.8; stroke-linecap: square"/>
     </g>
     <g id="line2d_14">
      <defs>
       <path id="m691dbf6666" d="M 0 0 
L -3.5 0 
" style="stroke: #000000; stroke-width: 0.8"/>
      </defs>
      <g>
       <use xlink:href="#m691dbf6666" x="48.44" y="328.473002" style="stroke: #000000; stroke-width: 0.8"/>
      </g>
     </g>
     <g id="text_8">
      <!-- 0.1 -->
      <g transform="translate(25.536875 332.272221) scale(0.1 -0.1)">
       <defs>
        <path id="DejaVuSans-2e" d="M 684 794 
L 1344 794 
L 1344 0 
L 684 0 
L 684 794 
z
" transform="scale(0.015625)"/>
       </defs>
       <use xlink:href="#DejaVuSans-30"/>
       <use xlink:href="#DejaVuSans-2e" transform="translate(63.623047 0)"/>
       <use xlink:href="#DejaVuSans-31" transform="translate(95.410156 0)"/>
      </g>
     </g>
    </g>
    <g id="ytick_2">
     <g id="line2d_15">
      <path d="M 48.44 262.242412 
L 709.2 262.242412 
" clip-path="url(#p4f5112d095)" style="fill: none; stroke: #b0b0b0; stroke-opacity: 0.3; stroke-width: 0.8; stroke-linecap: square"/>
     </g>
     <g id="line2d_16">
      <g>
       <use xlink:href="#m691dbf6666" x="48.44" y="262.242412" style="stroke: #000000; stroke-width: 0.8"/>
      </g>
     </g>
     <g id="text_9">
      <!-- 0.2 -->
      <g transform="translate(25.536875 266.041631) scale(0.1 -0.1)">
       <use xlink:href="#DejaVuSans-30"/>
       <use xlink:href="#DejaVuSans-2e" transform="translate(63.623047 0)"/>
       <use xlink:href="#DejaVuSans-32" transform="translate(95.410156 0)"/>
      </g>
     </g>
    </g>
    <g id="ytick_3">
     <g id="line2d_17">
      <path d="M 48.44 196.011822 
L 709.2 196.011822 
" clip-path="url(#p4f5112d095)" style="fill: none; stroke: #b0b0b0; stroke-opacity: 0.3; stroke-width: 0.8; stroke-linecap: square"/>
     </g>
     <g id="line2d_18">
      <g>
       <use xlink:href="#m691dbf6666" x="48.44" y="196.011822" style="stroke: #000000; stroke-width: 0.8"/>
      </g>
     </g>
     <g id="text_10">
      <!-- 0.3 -->
      <g transform="translate(25.536875 199.811041) scale(0.1 -0.1)">
       <defs>
        <path id="DejaVuSans-33" d="M 2597 2516 
Q 3050 2419 3304 2112 
Q 3559 1806 3559 1356 
Q 3559 666 3084 287 
Q 2609 -91 1734 -91 
Q 1441 -91 1130 -33 
Q 819 25 488 141 
L 488 750 
Q 750 597 1062 519 
Q 1375 441 1716 441 
Q 2309 441 2620 675 
Q 2931 909 2931 1356 
Q 2931 1769 2642 2001 
Q 2353 2234 1838 2234 
L 1294 2234 
L 1294 2753 
L 1863 2753 
Q 2328 2753 2575 2939 
Q 2822 3125 2822 3475 
Q 2822 3834 2567 4026 
Q 2313 4219 1838 4219 
Q 1578 4219 1281 4162 
Q 984 4106 628 3988 
L 628 4550 
Q 988 4650 1302 4700 
Q 1616 4750 1894 4750 
Q 2613 4750 3031 4423 
Q 3450 4097 3450 3541 
Q 3450 3153 3228 2886 
Q 3006 2619 2597 2516 
z
" transform="scale(0.015625)"/>
       </defs>
       <use xlink:href="#DejaVuSans-30"/>
       <use xlink:href="#DejaVuSans-2e" transform="translate(63.623047 0)"/>
       <use xlink:href="#DejaVuSans-33" transform="translate(95.410156 0)"/>
      </g>
     </g>
    </g>
    <g id="ytick_4">
     <g id="line2d_19">
      <path d="M 48.44 129.781232 
L 709.2 129.781232 
" clip-path="url(#p4f5112d095)" style="fill: none; stroke: #b0b0b0; stroke-opacity: 0.3; stroke-width: 0.8; stroke-linecap: square"/>
     </g>
     <g id="line2d_20">
      <g>
       <use xlink:href="#m691dbf6666" x="48.44" y="129.781232" style="stroke: #000000; stroke-width: 0.8"/>
      </g>
     </g>
     <g id="text_11">
      <!-- 0.4 -->
      <g transform="translate(25.536875 133.58045) scale(0.1 -0.1)">
       <use xlink:href="#DejaVuSans-30"/>
       <use xlink:href="#DejaVuSans-2e" transform="translate(63.623047 0)"/>
       <use xlink:href="#DejaVuSans-34" transform="translate(95.410156 0)"/>
      </g>
     </g>
    </g>
    <g id="ytick_5">
     <g id="line2d_21">
      <path d="M 48.44 63.550641 
L 709.2 63.550641 
" clip-path="url(#p4f5112d095)" style="fill: none; stroke: #b0b0b0; stroke-opacity: 0.3; stroke-width: 0.8; stroke-linecap: square"/>
     </g>
     <g id="line2d_22">
      <g>
       <use xlink:href="#m691dbf6666" x="48.44" y="63.550641" style="stroke: #000000; stroke-width: 0.8"/>
      </g>
     </g>
     <g id="text_12">
      <!-- 0.5 -->
      <g transform="translate(25.536875 67.34986) scale(0.1 -0.1)">
       <defs>
        <path id="DejaVuSans-35" d="M 691 4666 
L 3169 4666 
L 3169 4134 
L 1269 4134 
L 1269 2991 
Q 1406 3038 1543 3061 
Q 1681 3084 1819 3084 
Q 2600 3084 3056 2656 
Q 3513 2228 3513 1497 
Q 3513 744 3044 326 
Q 2575 -91 1722 -91 
Q 1428 -91 1123 -41 
Q 819 9 494 109 
L 494 744 
Q 775 591 1075 516 
Q 1375 441 1709 441 
Q 2250 441 2565 725 
Q 2881 1009 2881 1497 
Q 2881 1984 2565 2268 
Q 2250 2553 1709 2553 
Q 1456 2553 1204 2497 
Q 953 2441 691 2322 
L 691 4666 
z
" transform="scale(0.015625)"/>
       </defs>
       <use xlink:href="#DejaVuSans-30"/>
       <use xlink:href="#DejaVuSans-2e" transform="translate(63.623047 0)"/>
       <use xlink:href="#DejaVuSans-35" transform="translate(95.410156 0)"/>
      </g>
     </g>
    </g>
    <g id="text_13">
     <!-- Bytes per Pixel (lower is better) -->
     <g transform="translate(19.249219 294.682031) rotate(-90) scale(0.11 -0.11)">
      <defs>
       <path id="DejaVuSans-42" d="M 1259 2228 
L 1259 519 
L 2272 519 
Q 2781 519 3026 730 
Q 3272 941 3272 1375 
Q 3272 1813 3026 2020 
Q 2781 2228 2272 2228 
L 1259 2228 
z
M 1259 4147 
L 1259 2741 
L 2194 2741 
Q 2656 2741 2882 2914 
Q 3109 3088 3109 3444 
Q 3109 3797 2882 3972 
Q 2656 4147 2194 4147 
L 1259 4147 
z
M 628 4666 
L 2241 4666 
Q 2963 4666 3353 4366 
Q 3744 4066 3744 3513 
Q 3744 3084 3544 2831 
Q 3344 2578 2956 2516 
Q 3422 2416 3680 2098 
Q 3938 1781 3938 1306 
Q 3938 681 3513 340 
Q 3088 0 2303 0 
L 628 0 
L 628 4666 
z
" transform="scale(0.015625)"/>
       <path id="DejaVuSans-79" d="M 2059 -325 
Q 1816 -950 1584 -1140 
Q 1353 -1331 966 -1331 
L 506 -1331 
L 506 -850 
L 844 -850 
Q 1081 -850 1212 -737 
Q 1344 -625 1503 -206 
L 1606 56 
L 191 3500 
L 800 3500 
L 1894 763 
L 2988 3500 
L 3597 3500 
L 2059 -325 
z
" transform="scale(0.015625)"/>
       <path id="DejaVuSans-74" d="M 1172 4494 
L 1172 3500 
L 2356 3500 
L 2356 3053 
L 1172 3053 
L 1172 1153 
Q 1172 725 1289 603 
Q 1406 481 1766 481 
L 2356 481 
L 2356 0 
L 1766 0 
Q 1100 0 847 248 
Q 594 497 594 1153 
L 594 3053 
L 172 3053 
L 172 3500 
L 594 3500 
L 594 4494 
L 1172 4494 
z
" transform="scale(0.015625)"/>
       <path id="DejaVuSans-73" d="M 2834 3397 
L 2834 2853 
Q 2591 2978 2328 3040 
Q 2066 3103 1784 3103 
Q 1356 3103 1142 2972 
Q 928 2841 928 2578 
Q 928 2378 1081 2264 
Q 1234 2150 1697 2047 
L 1894 2003 
Q 2506 1872 2764 1633 
Q 3022 1394 3022 966 
Q 3022 478 2636 193 
Q 2250 -91 1575 -91 
Q 1294 -91 989 -36 
Q 684 19 347 128 
L 347 722 
Q 666 556 975 473 
Q 1284 391 1588 391 
Q 1994 391 2212 530 
Q 2431 669 2431 922 
Q 2431 1156 2273 1281 
Q 2116 1406 1581 1522 
L 1381 1569 
Q 847 1681 609 1914 
Q 372 2147 372 2553 
Q 372 3047 722 3315 
Q 1072 3584 1716 3584 
Q 2034 3584 2315 3537 
Q 2597 3491 2834 3397 
z
" transform="scale(0.015625)"/>
       <path id="DejaVuSans-20" transform="scale(0.015625)"/>
       <path id="DejaVuSans-72" d="M 2631 2963 
Q 2534 3019 2420 3045 
Q 2306 3072 2169 3072 
Q 1681 3072 1420 2755 
Q 1159 2438 1159 1844 
L 1159 0 
L 581 0 
L 581 3500 
L 1159 3500 
L 1159 2956 
Q 1341 3275 1631 3429 
Q 1922 3584 2338 3584 
Q 2397 3584 2469 3576 
Q 2541 3569 2628 3553 
L 2631 2963 
z
" transform="scale(0.015625)"/>
       <path id="DejaVuSans-50" d="M 1259 4147 
L 1259 2394 
L 2053 2394 
Q 2494 2394 2734 2622 
Q 2975 2850 2975 3272 
Q 2975 3691 2734 3919 
Q 2494 4147 2053 4147 
L 1259 4147 
z
M 628 4666 
L 2053 4666 
Q 2838 4666 3239 4311 
Q 3641 3956 3641 3272 
Q 3641 2581 3239 2228 
Q 2838 1875 2053 1875 
L 1259 1875 
L 1259 0 
L 628 0 
L 628 4666 
z
" transform="scale(0.015625)"/>
       <path id="DejaVuSans-69" d="M 603 3500 
L 1178 3500 
L 1178 0 
L 603 0 
L 603 3500 
z
M 603 4863 
L 1178 4863 
L 1178 4134 
L 603 4134 
L 603 4863 
z
" transform="scale(0.015625)"/>
       <path id="DejaVuSans-78" d="M 3513 3500 
L 2247 1797 
L 3578 0 
L 2900 0 
L 1881 1375 
L 863 0 
L 184 0 
L 1544 1831 
L 300 3500 
L 978 3500 
L 1906 2253 
L 2834 3500 
L 3513 3500 
z
" transform="scale(0.015625)"/>
       <path id="DejaVuSans-6c" d="M 603 4863 
L 1178 4863 
L 1178 0 
L 603 0 
L 603 4863 
z
" transform="scale(0.015625)"/>
       <path id="DejaVuSans-28" d="M 1984 4856 
Q 1566 4138 1362 3434 
Q 1159 2731 1159 2009 
Q 1159 1288 1364 580 
Q 1569 -128 1984 -844 
L 1484 -844 
Q 1016 -109 783 600 
Q 550 1309 550 2009 
Q 550 2706 781 3412 
Q 1013 4119 1484 4856 
L 1984 4856 
z
" transform="scale(0.015625)"/>
       <path id="DejaVuSans-6f" d="M 1959 3097 
Q 1497 3097 1228 2736 
Q 959 2375 959 1747 
Q 959 1119 1226 758 
Q 1494 397 1959 397 
Q 2419 397 2687 759 
Q 2956 1122 2956 1747 
Q 2956 2369 2687 2733 
Q 2419 3097 1959 3097 
z
M 1959 3584 
Q 2709 3584 3137 3096 
Q 3566 2609 3566 1747 
Q 3566 888 3137 398 
Q 2709 -91 1959 -91 
Q 1206 -91 779 398 
Q 353 888 353 1747 
Q 353 2609 779 3096 
Q 1206 3584 1959 3584 
z
" transform="scale(0.015625)"/>
       <path id="DejaVuSans-77" d="M 269 3500 
L 844 3500 
L 1563 769 
L 2278 3500 
L 2956 3500 
L 3675 769 
L 4391 3500 
L 4966 3500 
L 4050 0 
L 3372 0 
L 2619 2869 
L 1863 0 
L 1184 0 
L 269 3500 
z
" transform="scale(0.015625)"/>
       <path id="DejaVuSans-62" d="M 3116 1747 
Q 3116 2381 2855 2742 
Q 2594 3103 2138 3103 
Q 1681 3103 1420 2742 
Q 1159 2381 1159 1747 
Q 1159 1113 1420 752 
Q 1681 391 2138 391 
Q 2594 391 2855 752 
Q 3116 1113 3116 1747 
z
M 1159 2969 
Q 1341 3281 1617 3432 
Q 1894 3584 2278 3584 
Q 2916 3584 3314 3078 
Q 3713 2572 3713 1747 
Q 3713 922 3314 415 
Q 2916 -91 2278 -91 
Q 1894 -91 1617 61 
Q 1341 213 1159 525 
L 1159 0 
L 581 0 
L 581 4863 
L 1159 4863 
L 1159 2969 
z
" transform="scale(0.015625)"/>
       <path id="DejaVuSans-29" d="M 513 4856 
L 1013 4856 
Q 1481 4119 1714 3412 
Q 1947 2706 1947 2009 
Q 1947 1309 1714 600 
Q 1481 -109 1013 -844 
L 513 -844 
Q 928 -128 1133 580 
Q 1338 1288 1338 2009 
Q 1338 2731 1133 3434 
Q 928 4138 513 4856 
z
" transform="scale(0.015625)"/>
      </defs>
      <use xlink:href="#DejaVuSans-42"/>
      <use xlink:href="#DejaVuSans-79" transform="translate(68.603516 0)"/>
      <use xlink:href="#DejaVuSans-74" transform="translate(127.783203 0)"/>
      <use xlink:href="#DejaVuSans-65" transform="translate(166.992188 0)"/>
      <use xlink:href="#DejaVuSans-73" transform="translate(228.515625 0)"/>
      <use xlink:href="#DejaVuSans-20" transform="translate(280.615234 0)"/>
      <use xlink:href="#DejaVuSans-70" transform="translate(312.402344 0)"/>
      <use xlink:href="#DejaVuSans-65" transform="translate(375.878906 0)"/>
      <use xlink:href="#DejaVuSans-72" transform="translate(437.402344 0)"/>
      <use xlink:href="#DejaVuSans-20" transform="translate(478.515625 0)"/>
      <use xlink:href="#DejaVuSans-50" transform="translate(510.302734 0)"/>
      <use xlink:href="#DejaVuSans-69" transform="translate(568.355469 0)"/>
      <use xlink:href="#DejaVuSans-78" transform="translate(596.138672 0)"/>
      <use xlink:href="#DejaVuSans-65" transform="translate(652.193359 0)"/>
      <use xlink:href="#DejaVuSans-6c" transform="translate(713.716797 0)"/>
      <use xlink:href="#DejaVuSans-20" transform="translate(741.5 0)"/>
      <use xlink:href="#DejaVuSans-28" transform="translate(773.287109 0)"/>
      <use xlink:href="#DejaVuSans-6c" transform="translate(812.300781 0)"/>
      <use xlink:href="#DejaVuSans-6f" transform="translate(840.083984 0)"/>
      <use xlink:href="#DejaVuSans-77" transform="translate(901.265625 0)"/>
      <use xlink:href="#DejaVuSans-65" transform="translate(983.052734 0)"/>
      <use xlink:href="#DejaVuSans-72" transform="translate(1044.576172 0)"/>
      <use xlink:href="#DejaVuSans-20" transform="translate(1085.689453 0)"/>
      <use xlink:href="#DejaVuSans-69" transform="translate(1117.476562 0)"/>
      <use xlink:href="#DejaVuSans-73" transform="translate(1145.259766 0)"/>
      <use xlink:href="#DejaVuSans-20" transform="translate(1197.359375 0)"/>
      <use xlink:href="#DejaVuSans-62" transform="translate(1229.146484 0)"/>
      <use xlink:href="#DejaVuSans-65" transform="translate(1292.623047 0)"/>
      <use xlink:href="#DejaVuSans-74" transform="translate(1354.146484 0)"/>
      <use xlink:href="#DejaVuSans-74" transform="translate(1393.355469 0)"/>
      <use xlink:href="#DejaVuSans-65" transform="translate(1432.564453 0)"/>
      <use xlink:href="#DejaVuSans-72" transform="translate(1494.087891 0)"/>
      <use xlink:href="#DejaVuSans-29" transform="translate(1535.201172 0)"/>
     </g>
    </g>
   </g>
   <g id="line2d_23">
    <path d="M 78.474545 334.969435 
L 138.543636 335.832166 
L 198.612727 335.871882 
L 258.681818 336.064962 
L 318.750909 336.007383 
L 378.82 336.108383 
L 438.889091 336.284972 
L 498.958182 337.011125 
L 559.027273 336.594945 
L 619.096364 333.536174 
L 679.165455 333.536174 
" clip-path="url(#p4f5112d095)" style="fill: none; stroke: #1f77b4; stroke-width: 1.5; stroke-linecap: square"/>
    <defs>
     <path id="mec485a6238" d="M 0 3.5 
C 0.928211 3.5 1.81853 3.131218 2.474874 2.474874 
C 3.131218 1.81853 3.5 0.928211 3.5 0 
C 3.5 -0.928211 3.131218 -1.81853 2.474874 -2.474874 
C 1.81853 -3.131218 0.928211 -3.5 0 -3.5 
C -0.928211 -3.5 -1.81853 -3.131218 -2.474874 -2.474874 
C -3.131218 -1.81853 -3.5 -0.928211 -3.5 0 
C -3.5 0.928211 -3.131218 1.81853 -2.474874 2.474874 
C -1.81853 3.131218 -0.928211 3.5 0 3.5 
z
" style="stroke: #1f77b4"/>
    </defs>
    <g clip-path="url(#p4f5112d095)">
     <use xlink:href="#mec485a6238" x="78.474545" y="334.969435" style="fill: #1f77b4; stroke: #1f77b4"/>
     <use xlink:href="#mec485a6238" x="138.543636" y="335.832166" style="fill: #1f77b4; stroke: #1f77b4"/>
     <use xlink:href="#mec485a6238" x="198.612727" y="335.871882" style="fill: #1f77b4; stroke: #1f77b4"/>
     <use xlink:href="#mec485a6238" x="258.681818" y="336.064962" style="fill: #1f77b4; stroke: #1f77b4"/>
     <use xlink:href="#mec485a6238" x="318.750909" y="336.007383" style="fill: #1f77b4; stroke: #1f77b4"/>
     <use xlink:href="#mec485a6238" x="378.82" y="336.108383" style="fill: #1f77b4; stroke: #1f77b4"/>
     <use xlink:href="#mec485a6238" x="438.889091" y="336.284972" style="fill: #1f77b4; stroke: #1f77b4"/>
     <use xlink:href="#mec485a6238" x="498.958182" y="337.011125" style="fill: #1f77b4; stroke: #1f77b4"/>
     <use xlink:href="#mec485a6238" x="559.027273" y="336.594945" style="fill: #1f77b4; stroke: #1f77b4"/>
     <use xlink:href="#mec485a6238" x="619.096364" y="333.536174" style="fill: #1f77b4; stroke: #1f77b4"/>
     <use xlink:href="#mec485a6238" x="679.165455" y="333.536174" style="fill: #1f77b4; stroke: #1f77b4"/>
    </g>
   </g>
   <g id="line2d_24">
    <path d="M 78.474545 372.369572 
L 138.543636 372.604757 
L 198.612727 372.668371 
L 258.681818 372.803799 
L 318.750909 372.685331 
L 378.82 372.845455 
L 438.889091 372.509185 
L 498.958182 370.619575 
L 559.027273 370.103684 
L 619.096364 366.471941 
L 679.165455 366.471941 
" clip-path="url(#p4f5112d095)" style="fill: none; stroke-dasharray: 5.55,2.4; stroke-dashoffset: 0; stroke: #1f77b4; stroke-width: 1.5"/>
    <defs>
     <path id="ma53f55beb5" d="M 0 3.5 
C 0.928211 3.5 1.81853 3.131218 2.474874 2.474874 
C 3.131218 1.81853 3.5 0.928211 3.5 0 
C 3.5 -0.928211 3.131218 -1.81853 2.474874 -2.474874 
C 1.81853 -3.131218 0.928211 -3.5 0 -3.5 
C -0.928211 -3.5 -1.81853 -3.131218 -2.474874 -2.474874 
C -3.131218 -1.81853 -3.5 -0.928211 -3.5 0 
C -3.5 0.928211 -3.131218 1.81853 -2.474874 2.474874 
C -1.81853 3.131218 -0.928211 3.5 0 3.5 
z
" style="stroke: #1f77b4"/>
    </defs>
    <g clip-path="url(#p4f5112d095)">
     <use xlink:href="#ma53f55beb5" x="78.474545" y="372.369572" style="fill-opacity: 0; stroke: #1f77b4"/>
     <use xlink:href="#ma53f55beb5" x="138.543636" y="372.604757" style="fill-opacity: 0; stroke: #1f77b4"/>
     <use xlink:href="#ma53f55beb5" x="198.612727" y="372.668371" style="fill-opacity: 0; stroke: #1f77b4"/>
     <use xlink:href="#ma53f55beb5" x="258.681818" y="372.803799" style="fill-opacity: 0; stroke: #1f77b4"/>
     <use xlink:href="#ma53f55beb5" x="318.750909" y="372.685331" style="fill-opacity: 0; stroke: #1f77b4"/>
     <use xlink:href="#ma53f55beb5" x="378.82" y="372.845455" style="fill-opacity: 0; stroke: #1f77b4"/>
     <use xlink:href="#ma53f55beb5" x="438.889091" y="372.509185" style="fill-opacity: 0; stroke: #1f77b4"/>
     <use xlink:href="#ma53f55beb5" x="498.958182" y="370.619575" style="fill-opacity: 0; stroke: #1f77b4"/>
     <use xlink:href="#ma53f55beb5" x="559.027273" y="370.103684" style="fill-opacity: 0; stroke: #1f77b4"/>
     <use xlink:href="#ma53f55beb5" x="619.096364" y="366.471941" style="fill-opacity: 0; stroke: #1f77b4"/>
     <use xlink:href="#ma53f55beb5" x="679.165455" y="366.471941" style="fill-opacity: 0; stroke: #1f77b4"/>
    </g>
   </g>
   <g id="line2d_25">
    <path d="M 78.474545 256.276994 
L 138.543636 258.612876 
L 198.612727 258.642834 
L 258.681818 258.885265 
L 318.750909 259.023712 
L 378.82 258.93884 
L 438.889091 261.092334 
L 498.958182 265.861691 
L 559.027273 264.122315 
L 619.096364 255.13224 
L 679.165455 255.13224 
" clip-path="url(#p4f5112d095)" style="fill: none; stroke-dasharray: 1.5,2.475; stroke-dashoffset: 0; stroke: #1f77b4; stroke-width: 1.5"/>
    <g clip-path="url(#p4f5112d095)">
     <use xlink:href="#ma53f55beb5" x="78.474545" y="256.276994" style="fill-opacity: 0; stroke: #1f77b4"/>
     <use xlink:href="#ma53f55beb5" x="138.543636" y="258.612876" style="fill-opacity: 0; stroke: #1f77b4"/>
     <use xlink:href="#ma53f55beb5" x="198.612727" y="258.642834" style="fill-opacity: 0; stroke: #1f77b4"/>
     <use xlink:href="#ma53f55beb5" x="258.681818" y="258.885265" style="fill-opacity: 0; stroke: #1f77b4"/>
     <use xlink:href="#ma53f55beb5" x="318.750909" y="259.023712" style="fill-opacity: 0; stroke: #1f77b4"/>
     <use xlink:href="#ma53f55beb5" x="378.82" y="258.93884" style="fill-opacity: 0; stroke: #1f77b4"/>
     <use xlink:href="#ma53f55beb5" x="438.889091" y="261.092334" style="fill-opacity: 0; stroke: #1f77b4"/>
     <use xlink:href="#ma53f55beb5" x="498.958182" y="265.861691" style="fill-opacity: 0; stroke: #1f77b4"/>
     <use xlink:href="#ma53f55beb5" x="559.027273" y="264.122315" style="fill-opacity: 0; stroke: #1f77b4"/>
     <use xlink:href="#ma53f55beb5" x="619.096364" y="255.13224" style="fill-opacity: 0; stroke: #1f77b4"/>
     <use xlink:href="#ma53f55beb5" x="679.165455" y="255.13224" style="fill-opacity: 0; stroke: #1f77b4"/>
    </g>
   </g>
   <g id="line2d_26">
    <path d="M 78.474545 302.697598 
L 138.543636 304.028965 
L 198.612727 303.994225 
L 258.681818 304.150679 
L 318.750909 304.160801 
L 378.82 304.357401 
L 438.889091 304.569974 
L 498.958182 305.629387 
L 559.027273 304.480072 
L 619.096364 299.003977 
L 679.165455 299.003977 
" clip-path="url(#p4f5112d095)" style="fill: none; stroke: #ff7f0e; stroke-width: 1.5; stroke-linecap: square"/>
    <defs>
     <path id="m99502fa29e" d="M -3.5 3.5 
L 3.5 3.5 
L 3.5 -3.5 
L -3.5 -3.5 
z
" style="stroke: #ff7f0e; stroke-linejoin: miter"/>
    </defs>
    <g clip-path="url(#p4f5112d095)">
     <use xlink:href="#m99502fa29e" x="78.474545" y="302.697598" style="fill: #ff7f0e; stroke: #ff7f0e; stroke-linejoin: miter"/>
     <use xlink:href="#m99502fa29e" x="138.543636" y="304.028965" style="fill: #ff7f0e; stroke: #ff7f0e; stroke-linejoin: miter"/>
     <use xlink:href="#m99502fa29e" x="198.612727" y="303.994225" style="fill: #ff7f0e; stroke: #ff7f0e; stroke-linejoin: miter"/>
     <use xlink:href="#m99502fa29e" x="258.681818" y="304.150679" style="fill: #ff7f0e; stroke: #ff7f0e; stroke-linejoin: miter"/>
     <use xlink:href="#m99502fa29e" x="318.750909" y="304.160801" style="fill: #ff7f0e; stroke: #ff7f0e; stroke-linejoin: miter"/>
     <use xlink:href="#m99502fa29e" x="378.82" y="304.357401" style="fill: #ff7f0e; stroke: #ff7f0e; stroke-linejoin: miter"/>
     <use xlink:href="#m99502fa29e" x="438.889091" y="304.569974" style="fill: #ff7f0e; stroke: #ff7f0e; stroke-linejoin: miter"/>
     <use xlink:href="#m99502fa29e" x="498.958182" y="305.629387" style="fill: #ff7f0e; stroke: #ff7f0e; stroke-linejoin: miter"/>
     <use xlink:href="#m99502fa29e" x="559.027273" y="304.480072" style="fill: #ff7f0e; stroke: #ff7f0e; stroke-linejoin: miter"/>
     <use xlink:href="#m99502fa29e" x="619.096364" y="299.003977" style="fill: #ff7f0e; stroke: #ff7f0e; stroke-linejoin: miter"/>
     <use xlink:href="#m99502fa29e" x="679.165455" y="299.003977" style="fill: #ff7f0e; stroke: #ff7f0e; stroke-linejoin: miter"/>
    </g>
   </g>
   <g id="line2d_27">
    <path d="M 78.474545 359.293752 
L 138.543636 359.894265 
L 198.612727 359.96028 
L 258.681818 360.059267 
L 318.750909 359.883519 
L 378.82 360.054308 
L 438.889091 359.829291 
L 498.958182 357.478401 
L 559.027273 355.923924 
L 619.096364 350.404135 
L 679.165455 350.404135 
" clip-path="url(#p4f5112d095)" style="fill: none; stroke-dasharray: 5.55,2.4; stroke-dashoffset: 0; stroke: #ff7f0e; stroke-width: 1.5"/>
    <defs>
     <path id="m6d435a04e4" d="M -3.5 3.5 
L 3.5 3.5 
L 3.5 -3.5 
L -3.5 -3.5 
z
" style="stroke: #ff7f0e; stroke-linejoin: miter"/>
    </defs>
    <g clip-path="url(#p4f5112d095)">
     <use xlink:href="#m6d435a04e4" x="78.474545" y="359.293752" style="fill-opacity: 0; stroke: #ff7f0e; stroke-linejoin: miter"/>
     <use xlink:href="#m6d435a04e4" x="138.543636" y="359.894265" style="fill-opacity: 0; stroke: #ff7f0e; stroke-linejoin: miter"/>
     <use xlink:href="#m6d435a04e4" x="198.612727" y="359.96028" style="fill-opacity: 0; stroke: #ff7f0e; stroke-linejoin: miter"/>
     <use xlink:href="#m6d435a04e4" x="258.681818" y="360.059267" style="fill-opacity: 0; stroke: #ff7f0e; stroke-linejoin: miter"/>
     <use xlink:href="#m6d435a04e4" x="318.750909" y="359.883519" style="fill-opacity: 0; stroke: #ff7f0e; stroke-linejoin: miter"/>
     <use xlink:href="#m6d435a04e4" x="378.82" y="360.054308" style="fill-opacity: 0; stroke: #ff7f0e; stroke-linejoin: miter"/>
     <use xlink:href="#m6d435a04e4" x="438.889091" y="359.829291" style="fill-opacity: 0; stroke: #ff7f0e; stroke-linejoin: miter"/>
     <use xlink:href="#m6d435a04e4" x="498.958182" y="357.478401" style="fill-opacity: 0; stroke: #ff7f0e; stroke-linejoin: miter"/>
     <use xlink:href="#m6d435a04e4" x="559.027273" y="355.923924" style="fill-opacity: 0; stroke: #ff7f0e; stroke-linejoin: miter"/>
     <use xlink:href="#m6d435a04e4" x="619.096364" y="350.404135" style="fill-opacity: 0; stroke: #ff7f0e; stroke-linejoin: miter"/>
     <use xlink:href="#m6d435a04e4" x="679.165455" y="350.404135" style="fill-opacity: 0; stroke: #ff7f0e; stroke-linejoin: miter"/>
    </g>
   </g>
   <g id="line2d_28">
    <path d="M 78.474545 189.735451 
L 138.543636 192.952557 
L 198.612727 192.986984 
L 258.681818 193.015933 
L 318.750909 193.45709 
L 378.82 193.673071 
L 438.889091 195.54348 
L 498.958182 202.245554 
L 559.027273 199.178827 
L 619.096364 183.81681 
L 679.165455 183.81681 
" clip-path="url(#p4f5112d095)" style="fill: none; stroke-dasharray: 1.5,2.475; stroke-dashoffset: 0; stroke: #ff7f0e; stroke-width: 1.5"/>
    <g clip-path="url(#p4f5112d095)">
     <use xlink:href="#m6d435a04e4" x="78.474545" y="189.735451" style="fill-opacity: 0; stroke: #ff7f0e; stroke-linejoin: miter"/>
     <use xlink:href="#m6d435a04e4" x="138.543636" y="192.952557" style="fill-opacity: 0; stroke: #ff7f0e; stroke-linejoin: miter"/>
     <use xlink:href="#m6d435a04e4" x="198.612727" y="192.986984" style="fill-opacity: 0; stroke: #ff7f0e; stroke-linejoin: miter"/>
     <use xlink:href="#m6d435a04e4" x="258.681818" y="193.015933" style="fill-opacity: 0; stroke: #ff7f0e; stroke-linejoin: miter"/>
     <use xlink:href="#m6d435a04e4" x="318.750909" y="193.45709" style="fill-opacity: 0; stroke: #ff7f0e; stroke-linejoin: miter"/>
     <use xlink:href="#m6d435a04e4" x="378.82" y="193.673071" style="fill-opacity: 0; stroke: #ff7f0e; stroke-linejoin: miter"/>
     <use xlink:href="#m6d435a04e4" x="438.889091" y="195.54348" style="fill-opacity: 0; stroke: #ff7f0e; stroke-linejoin: miter"/>
     <use xlink:href="#m6d435a04e4" x="498.958182" y="202.245554" style="fill-opacity: 0; stroke: #ff7f0e; stroke-linejoin: miter"/>
     <use xlink:href="#m6d435a04e4" x="559.027273" y="199.178827" style="fill-opacity: 0; stroke: #ff7f0e; stroke-linejoin: miter"/>
     <use xlink:href="#m6d435a04e4" x="619.096364" y="183.81681" style="fill-opacity: 0; stroke: #ff7f0e; stroke-linejoin: miter"/>
     <use xlink:href="#m6d435a04e4" x="679.165455" y="183.81681" style="fill-opacity: 0; stroke: #ff7f0e; stroke-linejoin: miter"/>
    </g>
   </g>
   <g id="line2d_29">
    <path d="M 78.474545 273.415871 
L 138.543636 275.055806 
L 198.612727 274.982308 
L 258.681818 275.088333 
L 318.750909 275.311408 
L 378.82 275.731314 
L 438.889091 275.606665 
L 498.958182 277.446402 
L 559.027273 275.664884 
L 619.096364 269.165855 
L 679.165455 269.165855 
" clip-path="url(#p4f5112d095)" style="fill: none; stroke: #2ca02c; stroke-width: 1.5; stroke-linecap: square"/>
    <defs>
     <path id="mfb3621402e" d="M 0 -3.5 
L -3.5 3.5 
L 3.5 3.5 
z
" style="stroke: #2ca02c; stroke-linejoin: miter"/>
    </defs>
    <g clip-path="url(#p4f5112d095)">
     <use xlink:href="#mfb3621402e" x="78.474545" y="273.415871" style="fill: #2ca02c; stroke: #2ca02c; stroke-linejoin: miter"/>
     <use xlink:href="#mfb3621402e" x="138.543636" y="275.055806" style="fill: #2ca02c; stroke: #2ca02c; stroke-linejoin: miter"/>
     <use xlink:href="#mfb3621402e" x="198.612727" y="274.982308" style="fill: #2ca02c; stroke: #2ca02c; stroke-linejoin: miter"/>
     <use xlink:href="#mfb3621402e" x="258.681818" y="275.088333" style="fill: #2ca02c; stroke: #2ca02c; stroke-linejoin: miter"/>
     <use xlink:href="#mfb3621402e" x="318.750909" y="275.311408" style="fill: #2ca02c; stroke: #2ca02c; stroke-linejoin: miter"/>
     <use xlink:href="#mfb3621402e" x="378.82" y="275.731314" style="fill: #2ca02c; stroke: #2ca02c; stroke-linejoin: miter"/>
     <use xlink:href="#mfb3621402e" x="438.889091" y="275.606665" style="fill: #2ca02c; stroke: #2ca02c; stroke-linejoin: miter"/>
     <use xlink:href="#mfb3621402e" x="498.958182" y="277.446402" style="fill: #2ca02c; stroke: #2ca02c; stroke-linejoin: miter"/>
     <use xlink:href="#mfb3621402e" x="559.027273" y="275.664884" style="fill: #2ca02c; stroke: #2ca02c; stroke-linejoin: miter"/>
     <use xlink:href="#mfb3621402e" x="619.096364" y="269.165855" style="fill: #2ca02c; stroke: #2ca02c; stroke-linejoin: miter"/>
     <use xlink:href="#mfb3621402e" x="679.165455" y="269.165855" style="fill: #2ca02c; stroke: #2ca02c; stroke-linejoin: miter"/>
    </g>
   </g>
   <g id="line2d_30">
    <path d="M 78.474545 345.560404 
L 138.543636 346.54317 
L 198.612727 346.656971 
L 258.681818 346.715853 
L 318.750909 346.458064 
L 378.82 346.866785 
L 438.889091 346.034942 
L 498.958182 344.527911 
L 559.027273 341.837866 
L 619.096364 335.597462 
L 679.165455 335.597462 
" clip-path="url(#p4f5112d095)" style="fill: none; stroke-dasharray: 5.55,2.4; stroke-dashoffset: 0; stroke: #2ca02c; stroke-width: 1.5"/>
    <defs>
     <path id="m06d0b1849f" d="M 0 -3.5 
L -3.5 3.5 
L 3.5 3.5 
z
" style="stroke: #2ca02c; stroke-linejoin: miter"/>
    </defs>
    <g clip-path="url(#p4f5112d095)">
     <use xlink:href="#m06d0b1849f" x="78.474545" y="345.560404" style="fill-opacity: 0; stroke: #2ca02c; stroke-linejoin: miter"/>
     <use xlink:href="#m06d0b1849f" x="138.543636" y="346.54317" style="fill-opacity: 0; stroke: #2ca02c; stroke-linejoin: miter"/>
     <use xlink:href="#m06d0b1849f" x="198.612727" y="346.656971" style="fill-opacity: 0; stroke: #2ca02c; stroke-linejoin: miter"/>
     <use xlink:href="#m06d0b1849f" x="258.681818" y="346.715853" style="fill-opacity: 0; stroke: #2ca02c; stroke-linejoin: miter"/>
     <use xlink:href="#m06d0b1849f" x="318.750909" y="346.458064" style="fill-opacity: 0; stroke: #2ca02c; stroke-linejoin: miter"/>
     <use xlink:href="#m06d0b1849f" x="378.82" y="346.866785" style="fill-opacity: 0; stroke: #2ca02c; stroke-linejoin: miter"/>
     <use xlink:href="#m06d0b1849f" x="438.889091" y="346.034942" style="fill-opacity: 0; stroke: #2ca02c; stroke-linejoin: miter"/>
     <use xlink:href="#m06d0b1849f" x="498.958182" y="344.527911" style="fill-opacity: 0; stroke: #2ca02c; stroke-linejoin: miter"/>
     <use xlink:href="#m06d0b1849f" x="559.027273" y="341.837866" style="fill-opacity: 0; stroke: #2ca02c; stroke-linejoin: miter"/>
     <use xlink:href="#m06d0b1849f" x="619.096364" y="335.597462" style="fill-opacity: 0; stroke: #2ca02c; stroke-linejoin: miter"/>
     <use xlink:href="#m06d0b1849f" x="679.165455" y="335.597462" style="fill-opacity: 0; stroke: #2ca02c; stroke-linejoin: miter"/>
    </g>
   </g>
   <g id="line2d_31">
    <path d="M 78.474545 132.662657 
L 138.543636 135.937463 
L 198.612727 136.258517 
L 258.681818 136.167881 
L 318.750909 136.824754 
L 378.82 137.19701 
L 438.889091 137.715933 
L 498.958182 146.567302 
L 559.027273 142.72963 
L 619.096364 124.439919 
L 679.165455 124.439919 
" clip-path="url(#p4f5112d095)" style="fill: none; stroke-dasharray: 1.5,2.475; stroke-dashoffset: 0; stroke: #2ca02c; stroke-width: 1.5"/>
    <g clip-path="url(#p4f5112d095)">
     <use xlink:href="#m06d0b1849f" x="78.474545" y="132.662657" style="fill-opacity: 0; stroke: #2ca02c; stroke-linejoin: miter"/>
     <use xlink:href="#m06d0b1849f" x="138.543636" y="135.937463" style="fill-opacity: 0; stroke: #2ca02c; stroke-linejoin: miter"/>
     <use xlink:href="#m06d0b1849f" x="198.612727" y="136.258517" style="fill-opacity: 0; stroke: #2ca02c; stroke-linejoin: miter"/>
     <use xlink:href="#m06d0b1849f" x="258.681818" y="136.167881" style="fill-opacity: 0; stroke: #2ca02c; stroke-linejoin: miter"/>
     <use xlink:href="#m06d0b1849f" x="318.750909" y="136.824754" style="fill-opacity: 0; stroke: #2ca02c; stroke-linejoin: miter"/>
     <use xlink:href="#m06d0b1849f" x="378.82" y="137.19701" style="fill-opacity: 0; stroke: #2ca02c; stroke-linejoin: miter"/>
     <use xlink:href="#m06d0b1849f" x="438.889091" y="137.715933" style="fill-opacity: 0; stroke: #2ca02c; stroke-linejoin: miter"/>
     <use xlink:href="#m06d0b1849f" x="498.958182" y="146.567302" style="fill-opacity: 0; stroke: #2ca02c; stroke-linejoin: miter"/>
     <use xlink:href="#m06d0b1849f" x="559.027273" y="142.72963" style="fill-opacity: 0; stroke: #2ca02c; stroke-linejoin: miter"/>
     <use xlink:href="#m06d0b1849f" x="619.096364" y="124.439919" style="fill-opacity: 0; stroke: #2ca02c; stroke-linejoin: miter"/>
     <use xlink:href="#m06d0b1849f" x="679.165455" y="124.439919" style="fill-opacity: 0; stroke: #2ca02c; stroke-linejoin: miter"/>
    </g>
   </g>
   <g id="line2d_32">
    <path d="M 78.474545 232.088883 
L 138.543636 234.088078 
L 198.612727 234.058835 
L 258.681818 234.130521 
L 318.750909 234.567925 
L 378.82 234.960517 
L 438.889091 235.152727 
L 498.958182 237.754103 
L 559.027273 235.026637 
L 619.096364 226.201153 
L 679.165455 226.201153 
" clip-path="url(#p4f5112d095)" style="fill: none; stroke: #d62728; stroke-width: 1.5; stroke-linecap: square"/>
    <defs>
     <path id="me1a1316f51" d="M -0 4.949747 
L 4.949747 0 
L 0 -4.949747 
L -4.949747 -0 
z
" style="stroke: #d62728; stroke-linejoin: miter"/>
    </defs>
    <g clip-path="url(#p4f5112d095)">
     <use xlink:href="#me1a1316f51" x="78.474545" y="232.088883" style="fill: #d62728; stroke: #d62728; stroke-linejoin: miter"/>
     <use xlink:href="#me1a1316f51" x="138.543636" y="234.088078" style="fill: #d62728; stroke: #d62728; stroke-linejoin: miter"/>
     <use xlink:href="#me1a1316f51" x="198.612727" y="234.058835" style="fill: #d62728; stroke: #d62728; stroke-linejoin: miter"/>
     <use xlink:href="#me1a1316f51" x="258.681818" y="234.130521" style="fill: #d62728; stroke: #d62728; stroke-linejoin: miter"/>
     <use xlink:href="#me1a1316f51" x="318.750909" y="234.567925" style="fill: #d62728; stroke: #d62728; stroke-linejoin: miter"/>
     <use xlink:href="#me1a1316f51" x="378.82" y="234.960517" style="fill: #d62728; stroke: #d62728; stroke-linejoin: miter"/>
     <use xlink:href="#me1a1316f51" x="438.889091" y="235.152727" style="fill: #d62728; stroke: #d62728; stroke-linejoin: miter"/>
     <use xlink:href="#me1a1316f51" x="498.958182" y="237.754103" style="fill: #d62728; stroke: #d62728; stroke-linejoin: miter"/>
     <use xlink:href="#me1a1316f51" x="559.027273" y="235.026637" style="fill: #d62728; stroke: #d62728; stroke-linejoin: miter"/>
     <use xlink:href="#me1a1316f51" x="619.096364" y="226.201153" style="fill: #d62728; stroke: #d62728; stroke-linejoin: miter"/>
     <use xlink:href="#me1a1316f51" x="679.165455" y="226.201153" style="fill: #d62728; stroke: #d62728; stroke-linejoin: miter"/>
    </g>
   </g>
   <g id="line2d_33">
    <path d="M 78.474545 322.454556 
L 138.543636 324.163314 
L 198.612727 324.234751 
L 258.681818 324.385735 
L 318.750909 324.058129 
L 378.82 324.656089 
L 438.889091 323.826455 
L 498.958182 324.028742 
L 559.027273 319.593986 
L 619.096364 313.902177 
L 679.165455 313.902177 
" clip-path="url(#p4f5112d095)" style="fill: none; stroke-dasharray: 5.55,2.4; stroke-dashoffset: 0; stroke: #d62728; stroke-width: 1.5"/>
    <defs>
     <path id="m66c1f4c5e3" d="M -0 4.949747 
L 4.949747 0 
L 0 -4.949747 
L -4.949747 -0 
z
" style="stroke: #d62728; stroke-linejoin: miter"/>
    </defs>
    <g clip-path="url(#p4f5112d095)">
     <use xlink:href="#m66c1f4c5e3" x="78.474545" y="322.454556" style="fill-opacity: 0; stroke: #d62728; stroke-linejoin: miter"/>
     <use xlink:href="#m66c1f4c5e3" x="138.543636" y="324.163314" style="fill-opacity: 0; stroke: #d62728; stroke-linejoin: miter"/>
     <use xlink:href="#m66c1f4c5e3" x="198.612727" y="324.234751" style="fill-opacity: 0; stroke: #d62728; stroke-linejoin: miter"/>
     <use xlink:href="#m66c1f4c5e3" x="258.681818" y="324.385735" style="fill-opacity: 0; stroke: #d62728; stroke-linejoin: miter"/>
     <use xlink:href="#m66c1f4c5e3" x="318.750909" y="324.058129" style="fill-opacity: 0; stroke: #d62728; stroke-linejoin: miter"/>
     <use xlink:href="#m66c1f4c5e3" x="378.82" y="324.656089" style="fill-opacity: 0; stroke: #d62728; stroke-linejoin: miter"/>
     <use xlink:href="#m66c1f4c5e3" x="438.889091" y="323.826455" style="fill-opacity: 0; stroke: #d62728; stroke-linejoin: miter"/>
     <use xlink:href="#m66c1f4c5e3" x="498.958182" y="324.028742" style="fill-opacity: 0; stroke: #d62728; stroke-linejoin: miter"/>
     <use xlink:href="#m66c1f4c5e3" x="559.027273" y="319.593986" style="fill-opacity: 0; stroke: #d62728; stroke-linejoin: miter"/>
     <use xlink:href="#m66c1f4c5e3" x="619.096364" y="313.902177" style="fill-opacity: 0; stroke: #d62728; stroke-linejoin: miter"/>
     <use xlink:href="#m66c1f4c5e3" x="679.165455" y="313.902177" style="fill-opacity: 0; stroke: #d62728; stroke-linejoin: miter"/>
    </g>
   </g>
   <g id="line2d_34">
    <path d="M 78.474545 56.853385 
L 138.543636 60.176752 
L 198.612727 60.343815 
L 258.681818 60.378324 
L 318.750909 61.285368 
L 378.82 61.404892 
L 438.889091 61.843445 
L 498.958182 71.280425 
L 559.027273 66.425673 
L 619.096364 43.354545 
L 679.165455 43.354545 
" clip-path="url(#p4f5112d095)" style="fill: none; stroke-dasharray: 1.5,2.475; stroke-dashoffset: 0; stroke: #d62728; stroke-width: 1.5"/>
    <g clip-path="url(#p4f5112d095)">
     <use xlink:href="#m66c1f4c5e3" x="78.474545" y="56.853385" style="fill-opacity: 0; stroke: #d62728; stroke-linejoin: miter"/>
     <use xlink:href="#m66c1f4c5e3" x="138.543636" y="60.176752" style="fill-opacity: 0; stroke: #d62728; stroke-linejoin: miter"/>
     <use xlink:href="#m66c1f4c5e3" x="198.612727" y="60.343815" style="fill-opacity: 0; stroke: #d62728; stroke-linejoin: miter"/>
     <use xlink:href="#m66c1f4c5e3" x="258.681818" y="60.378324" style="fill-opacity: 0; stroke: #d62728; stroke-linejoin: miter"/>
     <use xlink:href="#m66c1f4c5e3" x="318.750909" y="61.285368" style="fill-opacity: 0; stroke: #d62728; stroke-linejoin: miter"/>
     <use xlink:href="#m66c1f4c5e3" x="378.82" y="61.404892" style="fill-opacity: 0; stroke: #d62728; stroke-linejoin: miter"/>
     <use xlink:href="#m66c1f4c5e3" x="438.889091" y="61.843445" style="fill-opacity: 0; stroke: #d62728; stroke-linejoin: miter"/>
     <use xlink:href="#m66c1f4c5e3" x="498.958182" y="71.280425" style="fill-opacity: 0; stroke: #d62728; stroke-linejoin: miter"/>
     <use xlink:href="#m66c1f4c5e3" x="559.027273" y="66.425673" style="fill-opacity: 0; stroke: #d62728; stroke-linejoin: miter"/>
     <use xlink:href="#m66c1f4c5e3" x="619.096364" y="43.354545" style="fill-opacity: 0; stroke: #d62728; stroke-linejoin: miter"/>
     <use xlink:href="#m66c1f4c5e3" x="679.165455" y="43.354545" style="fill-opacity: 0; stroke: #d62728; stroke-linejoin: miter"/>
    </g>
   </g>
   <g id="patch_3">
    <path d="M 48.44 389.32 
L 48.44 26.88 
" style="fill: none; stroke: #000000; stroke-width: 0.8; stroke-linejoin: miter; stroke-linecap: square"/>
   </g>
   <g id="patch_4">
    <path d="M 709.2 389.32 
L 709.2 26.88 
" style="fill: none; stroke: #000000; stroke-width: 0.8; stroke-linejoin: miter; stroke-linecap: square"/>
   </g>
   <g id="patch_5">
    <path d="M 48.44 389.32 
L 709.2 389.32 
" style="fill: none; stroke: #000000; stroke-width: 0.8; stroke-linejoin: miter; stroke-linecap: square"/>
   </g>
   <g id="patch_6">
    <path d="M 48.44 26.88 
L 709.2 26.88 
" style="fill: none; stroke: #000000; stroke-width: 0.8; stroke-linejoin: miter; stroke-linecap: square"/>
   </g>
   <g id="text_14">
    <!-- Bytes per Pixel vs Speed -->
    <g transform="translate(305.0275 20.88) scale(0.12 -0.12)">
     <defs>
      <path id="DejaVuSans-76" d="M 191 3500 
L 800 3500 
L 1894 563 
L 2988 3500 
L 3597 3500 
L 2284 0 
L 1503 0 
L 191 3500 
z
" transform="scale(0.015625)"/>
     </defs>
     <use xlink:href="#DejaVuSans-42"/>
     <use xlink:href="#DejaVuSans-79" transform="translate(68.603516 0)"/>
     <use xlink:href="#DejaVuSans-74" transform="translate(127.783203 0)"/>
     <use xlink:href="#DejaVuSans-65" transform="translate(166.992188 0)"/>
     <use xlink:href="#DejaVuSans-73" transform="translate(228.515625 0)"/>
     <use xlink:href="#DejaVuSans-20" transform="translate(280.615234 0)"/>
     <use xlink:href="#DejaVuSans-70" transform="translate(312.402344 0)"/>
     <use xlink:href="#DejaVuSans-65" transform="translate(375.878906 0)"/>
     <use xlink:href="#DejaVuSans-72" transform="translate(437.402344 0)"/>
     <use xlink:href="#DejaVuSans-20" transform="translate(478.515625 0)"/>
     <use xlink:href="#DejaVuSans-50" transform="translate(510.302734 0)"/>
     <use xlink:href="#DejaVuSans-69" transform="translate(568.355469 0)"/>
     <use xlink:href="#DejaVuSans-78" transform="translate(596.138672 0)"/>
     <use xlink:href="#DejaVuSans-65" transform="translate(652.193359 0)"/>
     <use xlink:href="#DejaVuSans-6c" transform="translate(713.716797 0)"/>
     <use xlink:href="#DejaVuSans-20" transform="translate(741.5 0)"/>
     <use xlink:href="#DejaVuSans-76" transform="translate(773.287109 0)"/>
     <use xlink:href="#DejaVuSans-73" transform="translate(832.466797 0)"/>
     <use xlink:href="#DejaVuSans-20" transform="translate(884.566406 0)"/>
     <use xlink:href="#DejaVuSans-53" transform="translate(916.353516 0)"/>
     <use xlink:href="#DejaVuSans-70" transform="translate(979.830078 0)"/>
     <use xlink:href="#DejaVuSans-65" transform="translate(1043.306641 0)"/>
     <use xlink:href="#DejaVuSans-65" transform="translate(1104.830078 0)"/>
     <use xlink:href="#DejaVuSans-64" transform="translate(1166.353516 0)"/>
    </g>
   </g>
   <g id="legend_1">
    <g id="patch_7">
     <path d="M 504.135 103.735 
L 703.6 103.735 
Q 705.2 103.735 705.2 102.135 
L 705.2 32.48 
Q 705.2 30.88 703.6 30.88 
L 504.135 30.88 
Q 502.535 30.88 502.535 32.48 
L 502.535 102.135 
Q 502.535 103.735 504.135 103.735 
z
" style="fill: #ffffff; opacity: 0.8; stroke: #cccccc; stroke-linejoin: miter"/>
    </g>
    <g id="line2d_35">
     <path d="M 505.735 37.35875 
L 513.735 37.35875 
L 521.735 37.35875 
" style="fill: none; stroke: #1f77b4; stroke-width: 1.5; stroke-linecap: square"/>
     <g>
      <use xlink:href="#mec485a6238" x="513.735" y="37.35875" style="fill: #1f77b4; stroke: #1f77b4"/>
     </g>
    </g>
    <g id="text_15">
     <!-- 50 (mean) -->
     <g transform="translate(528.135 40.15875) scale(0.08 -0.08)">
      <defs>
       <path id="DejaVuSans-6d" d="M 3328 2828 
Q 3544 3216 3844 3400 
Q 4144 3584 4550 3584 
Q 5097 3584 5394 3201 
Q 5691 2819 5691 2113 
L 5691 0 
L 5113 0 
L 5113 2094 
Q 5113 2597 4934 2840 
Q 4756 3084 4391 3084 
Q 3944 3084 3684 2787 
Q 3425 2491 3425 1978 
L 3425 0 
L 2847 0 
L 2847 2094 
Q 2847 2600 2669 2842 
Q 2491 3084 2119 3084 
Q 1678 3084 1418 2786 
Q 1159 2488 1159 1978 
L 1159 0 
L 581 0 
L 581 3500 
L 1159 3500 
L 1159 2956 
Q 1356 3278 1631 3431 
Q 1906 3584 2284 3584 
Q 2666 3584 2933 3390 
Q 3200 3197 3328 2828 
z
" transform="scale(0.015625)"/>
       <path id="DejaVuSans-61" d="M 2194 1759 
Q 1497 1759 1228 1600 
Q 959 1441 959 1056 
Q 959 750 1161 570 
Q 1363 391 1709 391 
Q 2188 391 2477 730 
Q 2766 1069 2766 1631 
L 2766 1759 
L 2194 1759 
z
M 3341 1997 
L 3341 0 
L 2766 0 
L 2766 531 
Q 2569 213 2275 61 
Q 1981 -91 1556 -91 
Q 1019 -91 701 211 
Q 384 513 384 1019 
Q 384 1609 779 1909 
Q 1175 2209 1959 2209 
L 2766 2209 
L 2766 2266 
Q 2766 2663 2505 2880 
Q 2244 3097 1772 3097 
Q 1472 3097 1187 3025 
Q 903 2953 641 2809 
L 641 3341 
Q 956 3463 1253 3523 
Q 1550 3584 1831 3584 
Q 2591 3584 2966 3190 
Q 3341 2797 3341 1997 
z
" transform="scale(0.015625)"/>
       <path id="DejaVuSans-6e" d="M 3513 2113 
L 3513 0 
L 2938 0 
L 2938 2094 
Q 2938 2591 2744 2837 
Q 2550 3084 2163 3084 
Q 1697 3084 1428 2787 
Q 1159 2491 1159 1978 
L 1159 0 
L 581 0 
L 581 3500 
L 1159 3500 
L 1159 2956 
Q 1366 3272 1645 3428 
Q 1925 3584 2291 3584 
Q 2894 3584 3203 3211 
Q 3513 2838 3513 2113 
z
" transform="scale(0.015625)"/>
      </defs>
      <use xlink:href="#DejaVuSans-35"/>
      <use xlink:href="#DejaVuSans-30" transform="translate(63.623047 0)"/>
      <use xlink:href="#DejaVuSans-20" transform="translate(127.246094 0)"/>
      <use xlink:href="#DejaVuSans-28" transform="translate(159.033203 0)"/>
      <use xlink:href="#DejaVuSans-6d" transform="translate(198.046875 0)"/>
      <use xlink:href="#DejaVuSans-65" transform="translate(295.458984 0)"/>
      <use xlink:href="#DejaVuSans-61" transform="translate(356.982422 0)"/>
      <use xlink:href="#DejaVuSans-6e" transform="translate(418.261719 0)"/>
      <use xlink:href="#DejaVuSans-29" transform="translate(481.640625 0)"/>
     </g>
    </g>
    <g id="line2d_36">
     <path d="M 505.735 49.10125 
L 513.735 49.10125 
L 521.735 49.10125 
" style="fill: none; stroke-dasharray: 5.55,2.4; stroke-dashoffset: 0; stroke: #1f77b4; stroke-width: 1.5"/>
     <g>
      <use xlink:href="#ma53f55beb5" x="513.735" y="49.10125" style="fill-opacity: 0; stroke: #1f77b4"/>
     </g>
    </g>
    <g id="text_16">
     <!-- 50 (5% smallest) -->
     <g transform="translate(528.135 51.90125) scale(0.08 -0.08)">
      <defs>
       <path id="DejaVuSans-25" d="M 4653 2053 
Q 4381 2053 4226 1822 
Q 4072 1591 4072 1178 
Q 4072 772 4226 539 
Q 4381 306 4653 306 
Q 4919 306 5073 539 
Q 5228 772 5228 1178 
Q 5228 1588 5073 1820 
Q 4919 2053 4653 2053 
z
M 4653 2450 
Q 5147 2450 5437 2106 
Q 5728 1763 5728 1178 
Q 5728 594 5436 251 
Q 5144 -91 4653 -91 
Q 4153 -91 3862 251 
Q 3572 594 3572 1178 
Q 3572 1766 3864 2108 
Q 4156 2450 4653 2450 
z
M 1428 4353 
Q 1159 4353 1004 4120 
Q 850 3888 850 3481 
Q 850 3069 1003 2837 
Q 1156 2606 1428 2606 
Q 1700 2606 1854 2837 
Q 2009 3069 2009 3481 
Q 2009 3884 1853 4118 
Q 1697 4353 1428 4353 
z
M 4250 4750 
L 4750 4750 
L 1831 -91 
L 1331 -91 
L 4250 4750 
z
M 1428 4750 
Q 1922 4750 2215 4408 
Q 2509 4066 2509 3481 
Q 2509 2891 2217 2550 
Q 1925 2209 1428 2209 
Q 931 2209 642 2551 
Q 353 2894 353 3481 
Q 353 4063 643 4406 
Q 934 4750 1428 4750 
z
" transform="scale(0.015625)"/>
      </defs>
      <use xlink:href="#DejaVuSans-35"/>
      <use xlink:href="#DejaVuSans-30" transform="translate(63.623047 0)"/>
      <use xlink:href="#DejaVuSans-20" transform="translate(127.246094 0)"/>
      <use xlink:href="#DejaVuSans-28" transform="translate(159.033203 0)"/>
      <use xlink:href="#DejaVuSans-35" transform="translate(198.046875 0)"/>
      <use xlink:href="#DejaVuSans-25" transform="translate(261.669922 0)"/>
      <use xlink:href="#DejaVuSans-20" transform="translate(356.689453 0)"/>
      <use xlink:href="#DejaVuSans-73" transform="translate(388.476562 0)"/>
      <use xlink:href="#DejaVuSans-6d" transform="translate(440.576172 0)"/>
      <use xlink:href="#DejaVuSans-61" transform="translate(537.988281 0)"/>
      <use xlink:href="#DejaVuSans-6c" transform="translate(599.267578 0)"/>
      <use xlink:href="#DejaVuSans-6c" transform="translate(627.050781 0)"/>
      <use xlink:href="#DejaVuSans-65" transform="translate(654.833984 0)"/>
      <use xlink:href="#DejaVuSans-73" transform="translate(716.357422 0)"/>
      <use xlink:href="#DejaVuSans-74" transform="translate(768.457031 0)"/>
      <use xlink:href="#DejaVuSans-29" transform="translate(807.666016 0)"/>
     </g>
    </g>
    <g id="line2d_37">
     <path d="M 505.735 60.84375 
L 513.735 60.84375 
L 521.735 60.84375 
" style="fill: none; stroke-dasharray: 1.5,2.475; stroke-dashoffset: 0; stroke: #1f77b4; stroke-width: 1.5"/>
     <g>
      <use xlink:href="#ma53f55beb5" x="513.735" y="60.84375" style="fill-opacity: 0; stroke: #1f77b4"/>
     </g>
    </g>
    <g id="text_17">
     <!-- 50 (95% largest) -->
     <g transform="translate(528.135 63.64375) scale(0.08 -0.08)">
      <defs>
       <path id="DejaVuSans-39" d="M 703 97 
L 703 672 
Q 941 559 1184 500 
Q 1428 441 1663 441 
Q 2288 441 2617 861 
Q 2947 1281 2994 2138 
Q 2813 1869 2534 1725 
Q 2256 1581 1919 1581 
Q 1219 1581 811 2004 
Q 403 2428 403 3163 
Q 403 3881 828 4315 
Q 1253 4750 1959 4750 
Q 2769 4750 3195 4129 
Q 3622 3509 3622 2328 
Q 3622 1225 3098 567 
Q 2575 -91 1691 -91 
Q 1453 -91 1209 -44 
Q 966 3 703 97 
z
M 1959 2075 
Q 2384 2075 2632 2365 
Q 2881 2656 2881 3163 
Q 2881 3666 2632 3958 
Q 2384 4250 1959 4250 
Q 1534 4250 1286 3958 
Q 1038 3666 1038 3163 
Q 1038 2656 1286 2365 
Q 1534 2075 1959 2075 
z
" transform="scale(0.015625)"/>
       <path id="DejaVuSans-67" d="M 2906 1791 
Q 2906 2416 2648 2759 
Q 2391 3103 1925 3103 
Q 1463 3103 1205 2759 
Q 947 2416 947 1791 
Q 947 1169 1205 825 
Q 1463 481 1925 481 
Q 2391 481 2648 825 
Q 2906 1169 2906 1791 
z
M 3481 434 
Q 3481 -459 3084 -895 
Q 2688 -1331 1869 -1331 
Q 1566 -1331 1297 -1286 
Q 1028 -1241 775 -1147 
L 775 -588 
Q 1028 -725 1275 -790 
Q 1522 -856 1778 -856 
Q 2344 -856 2625 -561 
Q 2906 -266 2906 331 
L 2906 616 
Q 2728 306 2450 153 
Q 2172 0 1784 0 
Q 1141 0 747 490 
Q 353 981 353 1791 
Q 353 2603 747 3093 
Q 1141 3584 1784 3584 
Q 2172 3584 2450 3431 
Q 2728 3278 2906 2969 
L 2906 3500 
L 3481 3500 
L 3481 434 
z
" transform="scale(0.015625)"/>
      </defs>
      <use xlink:href="#DejaVuSans-35"/>
      <use xlink:href="#DejaVuSans-30" transform="translate(63.623047 0)"/>
      <use xlink:href="#DejaVuSans-20" transform="translate(127.246094 0)"/>
      <use xlink:href="#DejaVuSans-28" transform="translate(159.033203 0)"/>
      <use xlink:href="#DejaVuSans-39" transform="translate(198.046875 0)"/>
      <use xlink:href="#DejaVuSans-35" transform="translate(261.669922 0)"/>
      <use xlink:href="#DejaVuSans-25" transform="translate(325.292969 0)"/>
      <use xlink:href="#DejaVuSans-20" transform="translate(420.3125 0)"/>
      <use xlink:href="#DejaVuSans-6c" transform="translate(452.099609 0)"/>
      <use xlink:href="#DejaVuSans-61" transform="translate(479.882812 0)"/>
      <use xlink:href="#DejaVuSans-72" transform="translate(541.162109 0)"/>
      <use xlink:href="#DejaVuSans-67" transform="translate(580.525391 0)"/>
      <use xlink:href="#DejaVuSans-65" transform="translate(644.001953 0)"/>
      <use xlink:href="#DejaVuSans-73" transform="translate(705.525391 0)"/>
      <use xlink:href="#DejaVuSans-74" transform="translate(757.625 0)"/>
      <use xlink:href="#DejaVuSans-29" transform="translate(796.833984 0)"/>
     </g>
    </g>
    <g id="line2d_38">
     <path d="M 505.735 72.58625 
L 513.735 72.58625 
L 521.735 72.58625 
" style="fill: none; stroke: #ff7f0e; stroke-width: 1.5; stroke-linecap: square"/>
     <g>
      <use xlink:href="#m99502fa29e" x="513.735" y="72.58625" style="fill: #ff7f0e; stroke: #ff7f0e; stroke-linejoin: miter"/>
     </g>
    </g>
    <g id="text_18">
     <!-- 60 (mean) -->
     <g transform="translate(528.135 75.38625) scale(0.08 -0.08)">
      <use xlink:href="#DejaVuSans-36"/>
      <use xlink:href="#DejaVuSans-30" transform="translate(63.623047 0)"/>
      <use xlink:href="#DejaVuSans-20" transform="translate(127.246094 0)"/>
      <use xlink:href="#DejaVuSans-28" transform="translate(159.033203 0)"/>
      <use xlink:href="#DejaVuSans-6d" transform="translate(198.046875 0)"/>
      <use xlink:href="#DejaVuSans-65" transform="translate(295.458984 0)"/>
      <use xlink:href="#DejaVuSans-61" transform="translate(356.982422 0)"/>
      <use xlink:href="#DejaVuSans-6e" transform="translate(418.261719 0)"/>
      <use xlink:href="#DejaVuSans-29" transform="translate(481.640625 0)"/>
     </g>
    </g>
    <g id="line2d_39">
     <path d="M 505.735 84.32875 
L 513.735 84.32875 
L 521.735 84.32875 
" style="fill: none; stroke-dasharray: 5.55,2.4; stroke-dashoffset: 0; stroke: #ff7f0e; stroke-width: 1.5"/>
     <g>
      <use xlink:href="#m6d435a04e4" x="513.735" y="84.32875" style="fill-opacity: 0; stroke: #ff7f0e; stroke-linejoin: miter"/>
     </g>
    </g>
    <g id="text_19">
     <!-- 60 (5% smallest) -->
     <g transform="translate(528.135 87.12875) scale(0.08 -0.08)">
      <use xlink:href="#DejaVuSans-36"/>
      <use xlink:href="#DejaVuSans-30" transform="translate(63.623047 0)"/>
      <use xlink:href="#DejaVuSans-20" transform="translate(127.246094 0)"/>
      <use xlink:href="#DejaVuSans-28" transform="translate(159.033203 0)"/>
      <use xlink:href="#DejaVuSans-35" transform="translate(198.046875 0)"/>
      <use xlink:href="#DejaVuSans-25" transform="translate(261.669922 0)"/>
      <use xlink:href="#DejaVuSans-20" transform="translate(356.689453 0)"/>
      <use xlink:href="#DejaVuSans-73" transform="translate(388.476562 0)"/>
      <use xlink:href="#DejaVuSans-6d" transform="translate(440.576172 0)"/>
      <use xlink:href="#DejaVuSans-61" transform="translate(537.988281 0)"/>
      <use xlink:href="#DejaVuSans-6c" transform="translate(599.267578 0)"/>
      <use xlink:href="#DejaVuSans-6c" transform="translate(627.050781 0)"/>
      <use xlink:href="#DejaVuSans-65" transform="translate(654.833984 0)"/>
      <use xlink:href="#DejaVuSans-73" transform="translate(716.357422 0)"/>
      <use xlink:href="#DejaVuSans-74" transform="translate(768.457031 0)"/>
      <use xlink:href="#DejaVuSans-29" transform="translate(807.666016 0)"/>
     </g>
    </g>
    <g id="line2d_40">
     <path d="M 505.735 96.07125 
L 513.735 96.07125 
L 521.735 96.07125 
" style="fill: none; stroke-dasharray: 1.5,2.475; stroke-dashoffset: 0; stroke: #ff7f0e; stroke-width: 1.5"/>
     <g>
      <use xlink:href="#m6d435a04e4" x="513.735" y="96.07125" style="fill-opacity: 0; stroke: #ff7f0e; stroke-linejoin: miter"/>
     </g>
    </g>
    <g id="text_20">
     <!-- 60 (95% largest) -->
     <g transform="translate(528.135 98.87125) scale(0.08 -0.08)">
      <use xlink:href="#DejaVuSans-36"/>
      <use xlink:href="#DejaVuSans-30" transform="translate(63.623047 0)"/>
      <use xlink:href="#DejaVuSans-20" transform="translate(127.246094 0)"/>
      <use xlink:href="#DejaVuSans-28" transform="translate(159.033203 0)"/>
      <use xlink:href="#DejaVuSans-39" transform="translate(198.046875 0)"/>
      <use xlink:href="#DejaVuSans-35" transform="translate(261.669922 0)"/>
      <use xlink:href="#DejaVuSans-25" transform="translate(325.292969 0)"/>
      <use xlink:href="#DejaVuSans-20" transform="translate(420.3125 0)"/>
      <use xlink:href="#DejaVuSans-6c" transform="translate(452.099609 0)"/>
      <use xlink:href="#DejaVuSans-61" transform="translate(479.882812 0)"/>
      <use xlink:href="#DejaVuSans-72" transform="translate(541.162109 0)"/>
      <use xlink:href="#DejaVuSans-67" transform="translate(580.525391 0)"/>
      <use xlink:href="#DejaVuSans-65" transform="translate(644.001953 0)"/>
      <use xlink:href="#DejaVuSans-73" transform="translate(705.525391 0)"/>
      <use xlink:href="#DejaVuSans-74" transform="translate(757.625 0)"/>
      <use xlink:href="#DejaVuSans-29" transform="translate(796.833984 0)"/>
     </g>
    </g>
    <g id="line2d_41">
     <path d="M 611.8675 37.35875 
L 619.8675 37.35875 
L 627.8675 37.35875 
" style="fill: none; stroke: #2ca02c; stroke-width: 1.5; stroke-linecap: square"/>
     <g>
      <use xlink:href="#mfb3621402e" x="619.8675" y="37.35875" style="fill: #2ca02c; stroke: #2ca02c; stroke-linejoin: miter"/>
     </g>
    </g>
    <g id="text_21">
     <!-- 70 (mean) -->
     <g transform="translate(634.2675 40.15875) scale(0.08 -0.08)">
      <defs>
       <path id="DejaVuSans-37" d="M 525 4666 
L 3525 4666 
L 3525 4397 
L 1831 0 
L 1172 0 
L 2766 4134 
L 525 4134 
L 525 4666 
z
" transform="scale(0.015625)"/>
      </defs>
      <use xlink:href="#DejaVuSans-37"/>
      <use xlink:href="#DejaVuSans-30" transform="translate(63.623047 0)"/>
      <use xlink:href="#DejaVuSans-20" transform="translate(127.246094 0)"/>
      <use xlink:href="#DejaVuSans-28" transform="translate(159.033203 0)"/>
      <use xlink:href="#DejaVuSans-6d" transform="translate(198.046875 0)"/>
      <use xlink:href="#DejaVuSans-65" transform="translate(295.458984 0)"/>
      <use xlink:href="#DejaVuSans-61" transform="translate(356.982422 0)"/>
      <use xlink:href="#DejaVuSans-6e" transform="translate(418.261719 0)"/>
      <use xlink:href="#DejaVuSans-29" transform="translate(481.640625 0)"/>
     </g>
    </g>
    <g id="line2d_42">
     <path d="M 611.8675 49.10125 
L 619.8675 49.10125 
L 627.8675 49.10125 
" style="fill: none; stroke-dasharray: 5.55,2.4; stroke-dashoffset: 0; stroke: #2ca02c; stroke-width: 1.5"/>
     <g>
      <use xlink:href="#m06d0b1849f" x="619.8675" y="49.10125" style="fill-opacity: 0; stroke: #2ca02c; stroke-linejoin: miter"/>
     </g>
    </g>
    <g id="text_22">
     <!-- 70 (5% smallest) -->
     <g transform="translate(634.2675 51.90125) scale(0.08 -0.08)">
      <use xlink:href="#DejaVuSans-37"/>
      <use xlink:href="#DejaVuSans-30" transform="translate(63.623047 0)"/>
      <use xlink:href="#DejaVuSans-20" transform="translate(127.246094 0)"/>
      <use xlink:href="#DejaVuSans-28" transform="translate(159.033203 0)"/>
      <use xlink:href="#DejaVuSans-35" transform="translate(198.046875 0)"/>
      <use xlink:href="#DejaVuSans-25" transform="translate(261.669922 0)"/>
      <use xlink:href="#DejaVuSans-20" transform="translate(356.689453 0)"/>
      <use xlink:href="#DejaVuSans-73" transform="translate(388.476562 0)"/>
      <use xlink:href="#DejaVuSans-6d" transform="translate(440.576172 0)"/>
      <use xlink:href="#DejaVuSans-61" transform="translate(537.988281 0)"/>
      <use xlink:href="#DejaVuSans-6c" transform="translate(599.267578 0)"/>
      <use xlink:href="#DejaVuSans-6c" transform="translate(627.050781 0)"/>
      <use xlink:href="#DejaVuSans-65" transform="translate(654.833984 0)"/>
      <use xlink:href="#DejaVuSans-73" transform="translate(716.357422 0)"/>
      <use xlink:href="#DejaVuSans-74" transform="translate(768.457031 0)"/>
      <use xlink:href="#DejaVuSans-29" transform="translate(807.666016 0)"/>
     </g>
    </g>
    <g id="line2d_43">
     <path d="M 611.8675 60.84375 
L 619.8675 60.84375 
L 627.8675 60.84375 
" style="fill: none; stroke-dasharray: 1.5,2.475; stroke-dashoffset: 0; stroke: #2ca02c; stroke-width: 1.5"/>
     <g>
      <use xlink:href="#m06d0b1849f" x="619.8675" y="60.84375" style="fill-opacity: 0; stroke: #2ca02c; stroke-linejoin: miter"/>
     </g>
    </g>
    <g id="text_23">
     <!-- 70 (95% largest) -->
     <g transform="translate(634.2675 63.64375) scale(0.08 -0.08)">
      <use xlink:href="#DejaVuSans-37"/>
      <use xlink:href="#DejaVuSans-30" transform="translate(63.623047 0)"/>
      <use xlink:href="#DejaVuSans-20" transform="translate(127.246094 0)"/>
      <use xlink:href="#DejaVuSans-28" transform="translate(159.033203 0)"/>
      <use xlink:href="#DejaVuSans-39" transform="translate(198.046875 0)"/>
      <use xlink:href="#DejaVuSans-35" transform="translate(261.669922 0)"/>
      <use xlink:href="#DejaVuSans-25" transform="translate(325.292969 0)"/>
      <use xlink:href="#DejaVuSans-20" transform="translate(420.3125 0)"/>
      <use xlink:href="#DejaVuSans-6c" transform="translate(452.099609 0)"/>
      <use xlink:href="#DejaVuSans-61" transform="translate(479.882812 0)"/>
      <use xlink:href="#DejaVuSans-72" transform="translate(541.162109 0)"/>
      <use xlink:href="#DejaVuSans-67" transform="translate(580.525391 0)"/>
      <use xlink:href="#DejaVuSans-65" transform="translate(644.001953 0)"/>
      <use xlink:href="#DejaVuSans-73" transform="translate(705.525391 0)"/>
      <use xlink:href="#DejaVuSans-74" transform="translate(757.625 0)"/>
      <use xlink:href="#DejaVuSans-29" transform="translate(796.833984 0)"/>
     </g>
    </g>
    <g id="line2d_44">
     <path d="M 611.8675 72.58625 
L 619.8675 72.58625 
L 627.8675 72.58625 
" style="fill: none; stroke: #d62728; stroke-width: 1.5; stroke-linecap: square"/>
     <g>
      <use xlink:href="#me1a1316f51" x="619.8675" y="72.58625" style="fill: #d62728; stroke: #d62728; stroke-linejoin: miter"/>
     </g>
    </g>
    <g id="text_24">
     <!-- 80 (mean) -->
     <g transform="translate(634.2675 75.38625) scale(0.08 -0.08)">
      <use xlink:href="#DejaVuSans-38"/>
      <use xlink:href="#DejaVuSans-30" transform="translate(63.623047 0)"/>
      <use xlink:href="#DejaVuSans-20" transform="translate(127.246094 0)"/>
      <use xlink:href="#DejaVuSans-28" transform="translate(159.033203 0)"/>
      <use xlink:href="#DejaVuSans-6d" transform="translate(198.046875 0)"/>
      <use xlink:href="#DejaVuSans-65" transform="translate(295.458984 0)"/>
      <use xlink:href="#DejaVuSans-61" transform="translate(356.982422 0)"/>
      <use xlink:href="#DejaVuSans-6e" transform="translate(418.261719 0)"/>
      <use xlink:href="#DejaVuSans-29" transform="translate(481.640625 0)"/>
     </g>
    </g>
    <g id="line2d_45">
     <path d="M 611.8675 84.32875 
L 619.8675 84.32875 
L 627.8675 84.32875 
" style="fill: none; stroke-dasharray: 5.55,2.4; stroke-dashoffset: 0; stroke: #d62728; stroke-width: 1.5"/>
     <g>
      <use xlink:href="#m66c1f4c5e3" x="619.8675" y="84.32875" style="fill-opacity: 0; stroke: #d62728; stroke-linejoin: miter"/>
     </g>
    </g>
    <g id="text_25">
     <!-- 80 (5% smallest) -->
     <g transform="translate(634.2675 87.12875) scale(0.08 -0.08)">
      <use xlink:href="#DejaVuSans-38"/>
      <use xlink:href="#DejaVuSans-30" transform="translate(63.623047 0)"/>
      <use xlink:href="#DejaVuSans-20" transform="translate(127.246094 0)"/>
      <use xlink:href="#DejaVuSans-28" transform="translate(159.033203 0)"/>
      <use xlink:href="#DejaVuSans-35" transform="translate(198.046875 0)"/>
      <use xlink:href="#DejaVuSans-25" transform="translate(261.669922 0)"/>
      <use xlink:href="#DejaVuSans-20" transform="translate(356.689453 0)"/>
      <use xlink:href="#DejaVuSans-73" transform="translate(388.476562 0)"/>
      <use xlink:href="#DejaVuSans-6d" transform="translate(440.576172 0)"/>
      <use xlink:href="#DejaVuSans-61" transform="translate(537.988281 0)"/>
      <use xlink:href="#DejaVuSans-6c" transform="translate(599.267578 0)"/>
      <use xlink:href="#DejaVuSans-6c" transform="translate(627.050781 0)"/>
      <use xlink:href="#DejaVuSans-65" transform="translate(654.833984 0)"/>
      <use xlink:href="#DejaVuSans-73" transform="translate(716.357422 0)"/>
      <use xlink:href="#DejaVuSans-74" transform="translate(768.457031 0)"/>
      <use xlink:href="#DejaVuSans-29" transform="translate(807.666016 0)"/>
     </g>
    </g>
    <g id="line2d_46">
     <path d="M 611.8675 96.07125 
L 619.8675 96.07125 
L 627.8675 96.07125 
" style="fill: none; stroke-dasharray: 1.5,2.475; stroke-dashoffset: 0; stroke: #d62728; stroke-width: 1.5"/>
     <g>
      <use xlink:href="#m66c1f4c5e3" x="619.8675" y="96.07125" style="fill-opacity: 0; stroke: #d62728; stroke-linejoin: miter"/>
     </g>
    </g>
    <g id="text_26">
     <!-- 80 (95% largest) -->
     <g transform="translate(634.2675 98.87125) scale(0.08 -0.08)">
      <use xlink:href="#DejaVuSans-38"/>
      <use xlink:href="#DejaVuSans-30" transform="translate(63.623047 0)"/>
      <use xlink:href="#DejaVuSans-20" transform="translate(127.246094 0)"/>
      <use xlink:href="#DejaVuSans-28" transform="translate(159.033203 0)"/>
      <use xlink:href="#DejaVuSans-39" transform="translate(198.046875 0)"/>
      <use xlink:href="#DejaVuSans-35" transform="translate(261.669922 0)"/>
      <use xlink:href="#DejaVuSans-25" transform="translate(325.292969 0)"/>
      <use xlink:href="#DejaVuSans-20" transform="translate(420.3125 0)"/>
      <use xlink:href="#DejaVuSans-6c" transform="translate(452.099609 0)"/>
      <use xlink:href="#DejaVuSans-61" transform="translate(479.882812 0)"/>
      <use xlink:href="#DejaVuSans-72" transform="translate(541.162109 0)"/>
      <use xlink:href="#DejaVuSans-67" transform="translate(580.525391 0)"/>
      <use xlink:href="#DejaVuSans-65" transform="translate(644.001953 0)"/>
      <use xlink:href="#DejaVuSans-73" transform="translate(705.525391 0)"/>
      <use xlink:href="#DejaVuSans-74" transform="translate(757.625 0)"/>
      <use xlink:href="#DejaVuSans-29" transform="translate(796.833984 0)"/>
     </g>
    </g>
   </g>
  </g>
 </g>
 <defs>
  <clipPath id="p4f5112d095">
   <rect x="48.44" y="26.88" width="660.76" height="362.44"/>
  </clipPath>
 </defs>
</svg>
