<svg xmlns="http://www.w3.org/2000/svg" xmlns:xlink="http://www.w3.org/1999/xlink" width="960" height="576" viewBox="0 0 720 432"><path d="M0 432h720V0H0z" style="fill:#fff"/><path d="M45.3 389.3h663.9V27h-664z" style="fill:#fff"/><path d="M112 389.3V27" clip-path="url(#a)" style="fill:none;stroke:#b0b0b0;stroke-opacity:.3;stroke-width:.8;stroke-linecap:square"/><defs><path id="b" d="M0 0v3.5" style="stroke:#000;stroke-width:.8"/></defs><use xlink:href="#b" x="112.1" y="389.3" style="stroke:#000;stroke-width:.8"/><g transform="matrix(.1 0 0 -.1 102.5 404)"><defs><path id="c" d="M691 4666h2478v-532H1269V2991q137 47 274 70 138 23 276 23 781 0 1237-428 457-428 457-1159 0-753-469-1171Q2575-91 1722-91q-294 0-599 50Q819 9 494 109v635q281-153 581-228t634-75q541 0 856 284 316 284 316 772 0 487-316 771-315 285-856 285-253 0-505-56-251-56-513-175z" transform="scale(.01563)"/><path id="d" d="M2034 4250q-487 0-733-480-245-479-245-1442 0-959 245-1439 246-480 733-480 491 0 736 480 246 480 246 1439 0 963-246 1442-245 480-736 480m0 500q785 0 1199-621 414-620 414-1801 0-1178-414-1799Q2819-91 2034-91q-784 0-1198 620-414 621-414 1799 0 1181 414 1801 414 621 1198 621" transform="scale(.01563)"/></defs><use xlink:href="#c"/><use xlink:href="#d" transform="translate(63.6)"/><use xlink:href="#d" transform="translate(127.2)"/></g><path d="M203.6 389.3V27" clip-path="url(#a)" style="fill:none;stroke:#b0b0b0;stroke-opacity:.3;stroke-width:.8;stroke-linecap:square"/><use xlink:href="#b" x="203.6" y="389.3" style="stroke:#000;stroke-width:.8"/><g transform="matrix(.1 0 0 -.1 194.1 404)"><defs><path id="e" d="M525 4666h3000v-269L1831 0h-659l1594 4134H525z" transform="scale(.01563)"/></defs><use xlink:href="#e"/><use xlink:href="#c" transform="translate(63.6)"/><use xlink:href="#d" transform="translate(127.2)"/></g><path d="M295.2 389.3V27" clip-path="url(#a)" style="fill:none;stroke:#b0b0b0;stroke-opacity:.3;stroke-width:.8;stroke-linecap:square"/><use xlink:href="#b" x="295.2" y="389.3" style="stroke:#000;stroke-width:.8"/><g transform="matrix(.1 0 0 -.1 282.5 404)"><defs><path id="f" d="M794 531h1031v3560L703 3866v575l1116 225h631V531h1031V0H794z" transform="scale(.01563)"/></defs><use xlink:href="#f"/><use xlink:href="#d" transform="translate(63.6)"/><use xlink:href="#d" transform="translate(127.2)"/><use xlink:href="#d" transform="translate(190.9)"/></g><path d="M386.8 389.3V27" clip-path="url(#a)" style="fill:none;stroke:#b0b0b0;stroke-opacity:.3;stroke-width:.8;stroke-linecap:square"/><use xlink:href="#b" x="386.8" y="389.3" style="stroke:#000;stroke-width:.8"/><g transform="matrix(.1 0 0 -.1 374 404)"><defs><path id="g" d="M1228 531h2203V0H469v531q359 372 979 998 621 627 780 809 303 340 423 576 121 236 121 464 0 372-261 606-261 235-680 235-297 0-627-103-329-103-704-313v638q381 153 712 231 332 78 607 78 725 0 1156-363 431-362 431-968 0-288-108-546-107-257-392-607-78-91-497-524-418-433-1181-1211" transform="scale(.01563)"/></defs><use xlink:href="#f"/><use xlink:href="#g" transform="translate(63.6)"/><use xlink:href="#c" transform="translate(127.2)"/><use xlink:href="#d" transform="translate(190.9)"/></g><path d="M478.3 389.3V27" clip-path="url(#a)" style="fill:none;stroke:#b0b0b0;stroke-opacity:.3;stroke-width:.8;stroke-linecap:square"/><use xlink:href="#b" x="478.3" y="389.3" style="stroke:#000;stroke-width:.8"/><g transform="matrix(.1 0 0 -.1 465.6 404)"><use xlink:href="#f"/><use xlink:href="#c" transform="translate(63.6)"/><use xlink:href="#d" transform="translate(127.2)"/><use xlink:href="#d" transform="translate(190.9)"/></g><path d="M569.9 389.3V27" clip-path="url(#a)" style="fill:none;stroke:#b0b0b0;stroke-opacity:.3;stroke-width:.8;stroke-linecap:square"/><use xlink:href="#b" x="569.9" y="389.3" style="stroke:#000;stroke-width:.8"/><g transform="matrix(.1 0 0 -.1 557.2 404)"><use xlink:href="#f"/><use xlink:href="#e" transform="translate(63.6)"/><use xlink:href="#c" transform="translate(127.2)"/><use xlink:href="#d" transform="translate(190.9)"/></g><path d="M661.4 389.3V27" clip-path="url(#a)" style="fill:none;stroke:#b0b0b0;stroke-opacity:.3;stroke-width:.8;stroke-linecap:square"/><use xlink:href="#b" x="661.4" y="389.3" style="stroke:#000;stroke-width:.8"/><g transform="matrix(.1 0 0 -.1 648.7 404)"><use xlink:href="#g"/><use xlink:href="#d" transform="translate(63.6)"/><use xlink:href="#d" transform="translate(127.2)"/><use xlink:href="#d" transform="translate(190.9)"/></g><g transform="matrix(.11 0 0 -.11 364.4 418.4)"><defs><path id="h" d="M4122 4306v-665q-319 297-680 443-361 147-767 147-800 0-1225-489t-425-1414q0-922 425-1411t1225-489q406 0 767 147t680 444V359q-331-225-702-338-370-112-782-112-1060 0-1670 648-609 649-609 1771 0 1125 609 1773 610 649 1670 649 418 0 788-111 371-111 696-333" transform="scale(.01563)"/><path id="i" d="M2631 2963q-97 56-211 82-114 27-251 27-488 0-749-317t-261-911V0H581v3500h578v-544q182 319 472 473 291 155 707 155 59 0 131-8 72-7 159-23z" transform="scale(.01563)"/><path id="j" d="M1959 3097q-462 0-731-361t-269-989 267-989q268-361 733-361 460 0 728 362 269 363 269 988 0 622-269 986-268 364-728 364m0 487q750 0 1178-488 429-487 429-1349 0-859-429-1349Q2709-91 1959-91q-753 0-1180 489-426 490-426 1349 0 862 426 1349 427 488 1180 488" transform="scale(.01563)"/><path id="k" d="M1159 525v-1856H581v4831h578v-531q182 312 458 463 277 152 661 152 638 0 1036-506 399-506 399-1331T3314 415Q2916-91 2278-91q-384 0-661 152-276 152-458 464m1957 1222q0 634-261 995t-717 361q-457 0-718-361t-261-995 261-995 718-361q456 0 717 361t261 995" transform="scale(.01563)"/></defs><use xlink:href="#h"/><use xlink:href="#i" transform="translate(69.8)"/><use xlink:href="#j" transform="translate(108.7)"/><use xlink:href="#k" transform="translate(169.9)"/></g><path d="M45.3 369.5h663.9" clip-path="url(#a)" style="fill:none;stroke:#b0b0b0;stroke-opacity:.3;stroke-width:.8;stroke-linecap:square"/><defs><path id="l" d="M0 0h-3.5" style="stroke:#000;stroke-width:.8"/></defs><use xlink:href="#l" x="45.3" y="369.5" style="stroke:#000;stroke-width:.8"/><g transform="matrix(.1 0 0 -.1 25.6 373.3)"><defs><path id="m" d="M2597 2516q453-97 707-404 255-306 255-756 0-690-475-1069Q2609-91 1734-91q-293 0-604 58T488 141v609q262-153 574-231 313-78 654-78 593 0 904 234t311 681q0 413-289 645-289 233-804 233h-544v519h569q465 0 712 186t247 536q0 359-255 551-254 193-729 193-260 0-557-57-297-56-653-174v562q360 100 674 150t592 50q719 0 1137-327 419-326 419-882 0-388-222-655t-631-370" transform="scale(.01563)"/></defs><use xlink:href="#m"/><use xlink:href="#d" transform="translate(63.6)"/></g><path d="M45.3 312.5h663.9" clip-path="url(#a)" style="fill:none;stroke:#b0b0b0;stroke-opacity:.3;stroke-width:.8;stroke-linecap:square"/><use xlink:href="#l" x="45.3" y="312.5" style="stroke:#000;stroke-width:.8"/><g transform="matrix(.1 0 0 -.1 25.6 316.3)"><defs><path id="n" d="M2419 4116 825 1625h1594zm-166 550h794V1625h666v-525h-666V0h-628v1100H313v609z" transform="scale(.01563)"/></defs><use xlink:href="#n"/><use xlink:href="#d" transform="translate(63.6)"/></g><path d="M45.3 255.4h663.9" clip-path="url(#a)" style="fill:none;stroke:#b0b0b0;stroke-opacity:.3;stroke-width:.8;stroke-linecap:square"/><use xlink:href="#l" x="45.3" y="255.4" style="stroke:#000;stroke-width:.8"/><g transform="matrix(.1 0 0 -.1 25.6 259.2)"><use xlink:href="#c"/><use xlink:href="#d" transform="translate(63.6)"/></g><path d="M45.3 198.4h663.9" clip-path="url(#a)" style="fill:none;stroke:#b0b0b0;stroke-opacity:.3;stroke-width:.8;stroke-linecap:square"/><use xlink:href="#l" x="45.3" y="198.4" style="stroke:#000;stroke-width:.8"/><g transform="matrix(.1 0 0 -.1 25.6 202.2)"><defs><path id="o" d="M2113 2584q-425 0-674-291-248-290-248-796 0-503 248-796 249-292 674-292t673 292q248 293 248 796 0 506-248 796-248 291-673 291m1253 1979v-575q-238 112-480 171-242 60-480 60-625 0-955-422-329-422-376-1275 184 272 462 417 279 145 613 145 703 0 1111-427 408-426 408-1160 0-719-425-1154Q2819-91 2113-91q-810 0-1238 620-428 621-428 1799 0 1106 525 1764t1409 658q238 0 480-47t505-140" transform="scale(.01563)"/></defs><use xlink:href="#o"/><use xlink:href="#d" transform="translate(63.6)"/></g><path d="M45.3 141.3h663.9" clip-path="url(#a)" style="fill:none;stroke:#b0b0b0;stroke-opacity:.3;stroke-width:.8;stroke-linecap:square"/><use xlink:href="#l" x="45.3" y="141.3" style="stroke:#000;stroke-width:.8"/><g transform="matrix(.1 0 0 -.1 25.6 145.1)"><use xlink:href="#e"/><use xlink:href="#d" transform="translate(63.6)"/></g><path d="M45.3 84.3h663.9" clip-path="url(#a)" style="fill:none;stroke:#b0b0b0;stroke-opacity:.3;stroke-width:.8;stroke-linecap:square"/><use xlink:href="#l" x="45.3" y="84.3" style="stroke:#000;stroke-width:.8"/><g transform="matrix(.1 0 0 -.1 25.6 88)"><defs><path id="p" d="M2034 2216q-450 0-708-241-257-241-257-662 0-422 257-663 258-241 708-241t709 242q260 243 260 662 0 421-258 662-257 241-711 241m-631 268q-406 100-633 378-226 279-226 679 0 559 398 884 399 325 1092 325 697 0 1094-325t397-884q0-400-227-679-226-278-629-378 456-106 710-416 255-309 255-755 0-679-414-1042Q2806-91 2034-91q-771 0-1186 362-414 363-414 1042 0 446 256 755 257 310 713 416m-231 997q0-362 226-565 227-203 636-203 407 0 636 203 230 203 230 565 0 363-230 566-229 203-636 203-409 0-636-203-226-203-226-566" transform="scale(.01563)"/></defs><use xlink:href="#p"/><use xlink:href="#d" transform="translate(63.6)"/></g><path d="M45.3 27.2h663.9" clip-path="url(#a)" style="fill:none;stroke:#b0b0b0;stroke-opacity:.3;stroke-width:.8;stroke-linecap:square"/><use xlink:href="#l" x="45.3" y="27.2" style="stroke:#000;stroke-width:.8"/><g transform="matrix(.1 0 0 -.1 25.6 31)"><defs><path id="q" d="M703 97v575q238-113 481-172 244-59 479-59 625 0 954 420 330 420 377 1277-181-269-460-413-278-144-615-144-700 0-1108 423-408 424-408 1159 0 718 425 1152 425 435 1131 435 810 0 1236-621 427-620 427-1801 0-1103-524-1761Q2575-91 1691-91q-238 0-482 47Q966 3 703 97m1256 1978q425 0 673 290 249 291 249 798 0 503-249 795-248 292-673 292t-673-292-248-795q0-507 248-798 248-290 673-290" transform="scale(.01563)"/></defs><use xlink:href="#q"/><use xlink:href="#d" transform="translate(63.6)"/></g><g transform="matrix(0 -.11 -.11 0 19.3 295.4)"><defs><path id="r" d="M3425 4513v-616q-359 172-678 256-319 85-616 85-515 0-795-200t-280-569q0-310 186-468 186-157 705-254l381-78q706-135 1042-474t336-907q0-679-455-1029Q2797-91 1919-91q-331 0-705 75-373 75-773 222v650q384-215 753-325 369-109 725-109 540 0 834 212 294 213 294 607 0 343-211 537t-692 291l-385 75q-706 140-1022 440-315 300-315 835 0 619 436 975t1201 356q329 0 669-60 341-59 697-177" transform="scale(.01563)"/><path id="s" d="M628 4666h631V0H628z" transform="scale(.01563)"/><path id="t" d="M628 4666h941l1190-3175 1197 3175h941V0h-616v4097L3078 897h-634L1241 4097V0H628z" transform="scale(.01563)"/><path id="u" d="M556 4666h635V1831q0-750 271-1080 272-329 882-329 606 0 878 329 272 330 272 1080v2835h634V1753q0-912-452-1378Q3225-91 2344-91q-885 0-1337 466-451 466-451 1378z" transform="scale(.01563)"/><path id="v" d="M628 4666h631V531h2272V0H628z" transform="scale(.01563)"/><path id="w" d="m2188 4044-857-2322h1716zm-357 622h716L4325 0h-656l-425 1197H1141L716 0H50z" transform="scale(.01563)"/><path id="x" d="M2841 2188q203-69 395-294t386-619L4263 0h-679l-596 1197q-232 469-449 622t-592 153h-688V0H628v4666h1425q800 0 1194-335 394-334 394-1009 0-441-205-732-205-290-595-402M1259 4147V2491h794q456 0 689 211t233 620-233 617-689 208z" transform="scale(.01563)"/><path id="y" d="M1984 4856q-418-718-622-1422-203-703-203-1425 0-721 205-1429t620-1424h-500Q1016-109 783 600T550 2009q0 697 231 1403 232 707 703 1444z" transform="scale(.01563)"/><path id="z" d="M3513 2113V0h-575v2094q0 497-194 743-194 247-581 247-466 0-735-297-269-296-269-809V0H581v4863h578V2956q207 316 486 472 280 156 646 156 603 0 912-373 310-373 310-1098" transform="scale(.01563)"/><path id="A" d="M603 3500h575V0H603zm0 1363h575v-729H603z" transform="scale(.01563)"/><path id="B" d="M2906 1791q0 625-258 968-257 344-723 344-462 0-720-344-258-343-258-968 0-622 258-966t720-344q466 0 723 344 258 344 258 966m575-1357q0-893-397-1329-396-436-1215-436-303 0-572 45t-522 139v559q253-137 500-202 247-66 503-66 566 0 847 295t281 892v285q-178-310-456-463T1784 0Q1141 0 747 490 353 981 353 1791q0 812 394 1302 394 491 1037 491 388 0 666-153t456-462v531h575z" transform="scale(.01563)"/><path id="C" d="M3597 1894v-281H953q38-594 358-905t892-311q331 0 642 81t618 244V178Q3153 47 2828-22t-659-69q-838 0-1327 487-489 488-489 1320 0 859 464 1363 464 505 1252 505 706 0 1117-455 411-454 411-1235m-575 169q-6 471-264 752-258 282-683 282-481 0-770-272t-333-766z" transform="scale(.01563)"/><path id="D" d="M2834 3397v-544q-243 125-506 187-262 63-544 63-428 0-642-131t-214-394q0-200 153-314t616-217l197-44q612-131 870-370t258-667q0-488-386-773Q2250-91 1575-91q-281 0-586 55T347 128v594q319-166 628-249 309-82 613-82 406 0 624 139 219 139 219 392 0 234-158 359-157 125-692 241l-200 47q-534 112-772 345-237 233-237 639 0 494 350 762 350 269 994 269 318 0 599-47 282-46 519-140" transform="scale(.01563)"/><path id="E" d="M3116 1747q0 634-261 995t-717 361q-457 0-718-361t-261-995 261-995 718-361q456 0 717 361t261 995M1159 2969q182 312 458 463 277 152 661 152 638 0 1036-506 399-506 399-1331T3314 415Q2916-91 2278-91q-384 0-661 152-276 152-458 464V0H581v4863h578z" transform="scale(.01563)"/><path id="F" d="M1172 4494v-994h1184v-447H1172V1153q0-428 117-550t477-122h590V0h-590q-666 0-919 248-253 249-253 905v1900H172v447h422v994z" transform="scale(.01563)"/><path id="G" d="M513 4856h500q468-737 701-1444 233-706 233-1403 0-700-233-1409T1013-844H513q415 716 620 1424t205 1429q0 722-205 1425-205 704-620 1422" transform="scale(.01563)"/></defs><use xlink:href="#r"/><use xlink:href="#r" transform="translate(63.5)"/><use xlink:href="#s" transform="translate(127)"/><use xlink:href="#t" transform="translate(156.4)"/><use xlink:href="#u" transform="translate(242.7)"/><use xlink:href="#v" transform="translate(316)"/><use xlink:href="#w" transform="translate(373.9)"/><use xlink:href="#h" transform="translate(440.5)"/><use xlink:href="#x" transform="translate(510.4)"/><use xlink:href="#w" transform="translate(575.8)"/><use xlink:href="#g" transform="translate(644.3)"/><use xlink:href="#y" transform="translate(739.7)"/><use xlink:href="#z" transform="translate(778.7)"/><use xlink:href="#A" transform="translate(842)"/><use xlink:href="#B" transform="translate(869.8)"/><use xlink:href="#z" transform="translate(933.3)"/><use xlink:href="#C" transform="translate(996.7)"/><use xlink:href="#i" transform="translate(1058.2)"/><use xlink:href="#A" transform="translate(1131.1)"/><use xlink:href="#D" transform="translate(1158.9)"/><use xlink:href="#E" transform="translate(1242.8)"/><use xlink:href="#C" transform="translate(1306.3)"/><use xlink:href="#F" transform="translate(1367.8)"/><use xlink:href="#F" transform="translate(1407)"/><use xlink:href="#C" transform="translate(1446.2)"/><use xlink:href="#i" transform="translate(1507.7)"/><use xlink:href="#G" transform="translate(1548.8)"/></g><path d="m75.5 253.7 146.5-8 146.5 1.5 146.4-1.2 164.1 1.2" clip-path="url(#a)" style="fill:none;stroke:#1f77b4;stroke-width:1.5;stroke-linecap:square"/><defs><path id="H" d="M0 3.5a3.5 3.5 0 1 0 0-7 3.5 3.5 0 0 0 0 7z" style="stroke:#1f77b4"/></defs><g clip-path="url(#a)"><use xlink:href="#H" x="75.5" y="253.7" style="fill:#1f77b4;stroke:#1f77b4"/><use xlink:href="#H" x="222" y="245.8" style="fill:#1f77b4;stroke:#1f77b4"/><use xlink:href="#H" x="368.5" y="247.2" style="fill:#1f77b4;stroke:#1f77b4"/><use xlink:href="#H" x="514.9" y="246" style="fill:#1f77b4;stroke:#1f77b4"/><use xlink:href="#H" x="679" y="247.2" style="fill:#1f77b4;stroke:#1f77b4"/></g><path d="M75.5 372.8 222 346.6l146.5 8.7 146.4-5.5 164.1-5.5" clip-path="url(#a)" style="fill:none;stroke-dasharray:5.55,2.4;stroke-dashoffset:0;stroke:#1f77b4;stroke-width:1.5"/><defs><path id="I" d="M0 3.5a3.5 3.5 0 1 0 0-7 3.5 3.5 0 0 0 0 7z" style="stroke:#1f77b4"/></defs><g clip-path="url(#a)"><use xlink:href="#I" x="75.5" y="372.8" style="fill-opacity:0;stroke:#1f77b4"/><use xlink:href="#I" x="222" y="346.6" style="fill-opacity:0;stroke:#1f77b4"/><use xlink:href="#I" x="368.5" y="355.3" style="fill-opacity:0;stroke:#1f77b4"/><use xlink:href="#I" x="514.9" y="349.8" style="fill-opacity:0;stroke:#1f77b4"/><use xlink:href="#I" x="679" y="344.3" style="fill-opacity:0;stroke:#1f77b4"/></g><path d="m75.5 175 146.5-5.7 146.5 2.4 146.4-.8 164.1 1" clip-path="url(#a)" style="fill:none;stroke:#ff7f0e;stroke-width:1.5;stroke-linecap:square"/><defs><path id="J" d="M-3.5 3.5h7v-7h-7z" style="stroke:#ff7f0e;stroke-linejoin:miter"/></defs><g clip-path="url(#a)"><use xlink:href="#J" x="75.5" y="175.1" style="fill:#ff7f0e;stroke:#ff7f0e;stroke-linejoin:miter"/><use xlink:href="#J" x="222" y="169.3" style="fill:#ff7f0e;stroke:#ff7f0e;stroke-linejoin:miter"/><use xlink:href="#J" x="368.5" y="171.7" style="fill:#ff7f0e;stroke:#ff7f0e;stroke-linejoin:miter"/><use xlink:href="#J" x="514.9" y="170.9" style="fill:#ff7f0e;stroke:#ff7f0e;stroke-linejoin:miter"/><use xlink:href="#J" x="679" y="171.8" style="fill:#ff7f0e;stroke:#ff7f0e;stroke-linejoin:miter"/></g><path d="M75.5 260.2 222 231.5 368.5 242l146.4-1.6 164.1-.6" clip-path="url(#a)" style="fill:none;stroke-dasharray:5.55,2.4;stroke-dashoffset:0;stroke:#ff7f0e;stroke-width:1.5"/><defs><path id="K" d="M-3.5 3.5h7v-7h-7z" style="stroke:#ff7f0e;stroke-linejoin:miter"/></defs><g clip-path="url(#a)"><use xlink:href="#K" x="75.5" y="260.2" style="fill-opacity:0;stroke:#ff7f0e;stroke-linejoin:miter"/><use xlink:href="#K" x="222" y="231.5" style="fill-opacity:0;stroke:#ff7f0e;stroke-linejoin:miter"/><use xlink:href="#K" x="368.5" y="242.1" style="fill-opacity:0;stroke:#ff7f0e;stroke-linejoin:miter"/><use xlink:href="#K" x="514.9" y="240.5" style="fill-opacity:0;stroke:#ff7f0e;stroke-linejoin:miter"/><use xlink:href="#K" x="679" y="239.9" style="fill-opacity:0;stroke:#ff7f0e;stroke-linejoin:miter"/></g><path d="m75.5 104.9 146.5-2.3 146.5.5 146.4-.3 164.1 2.4" clip-path="url(#a)" style="fill:none;stroke:#2ca02c;stroke-width:1.5;stroke-linecap:square"/><defs><path id="L" d="m0-3.5-3.5 7h7z" style="stroke:#2ca02c;stroke-linejoin:miter"/></defs><g clip-path="url(#a)"><use xlink:href="#L" x="75.5" y="104.9" style="fill:#2ca02c;stroke:#2ca02c;stroke-linejoin:miter"/><use xlink:href="#L" x="222" y="102.6" style="fill:#2ca02c;stroke:#2ca02c;stroke-linejoin:miter"/><use xlink:href="#L" x="368.5" y="103.1" style="fill:#2ca02c;stroke:#2ca02c;stroke-linejoin:miter"/><use xlink:href="#L" x="514.9" y="102.8" style="fill:#2ca02c;stroke:#2ca02c;stroke-linejoin:miter"/><use xlink:href="#L" x="679" y="105.2" style="fill:#2ca02c;stroke:#2ca02c;stroke-linejoin:miter"/></g><path d="M75.5 147.5 222 138l146.5-.5 146.4.6 164.1 1.3" clip-path="url(#a)" style="fill:none;stroke-dasharray:5.55,2.4;stroke-dashoffset:0;stroke:#2ca02c;stroke-width:1.5"/><defs><path id="M" d="m0-3.5-3.5 7h7z" style="stroke:#2ca02c;stroke-linejoin:miter"/></defs><g clip-path="url(#a)"><use xlink:href="#M" x="75.5" y="147.5" style="fill-opacity:0;stroke:#2ca02c;stroke-linejoin:miter"/><use xlink:href="#M" x="222" y="137.9" style="fill-opacity:0;stroke:#2ca02c;stroke-linejoin:miter"/><use xlink:href="#M" x="368.5" y="137.4" style="fill-opacity:0;stroke:#2ca02c;stroke-linejoin:miter"/><use xlink:href="#M" x="514.9" y="138" style="fill-opacity:0;stroke:#2ca02c;stroke-linejoin:miter"/><use xlink:href="#M" x="679" y="139.3" style="fill-opacity:0;stroke:#2ca02c;stroke-linejoin:miter"/></g><path d="M75.5 71.8 222 70.2l146.5-.5 146.4 1L679 72" clip-path="url(#a)" style="fill:none;stroke:#d62728;stroke-width:1.5;stroke-linecap:square"/><defs><path id="N" d="m0 5 5-5-5-5-5 5z" style="stroke:#d62728;stroke-linejoin:miter"/></defs><g clip-path="url(#a)"><use xlink:href="#N" x="75.5" y="71.8" style="fill:#d62728;stroke:#d62728;stroke-linejoin:miter"/><use xlink:href="#N" x="222" y="70.2" style="fill:#d62728;stroke:#d62728;stroke-linejoin:miter"/><use xlink:href="#N" x="368.5" y="69.7" style="fill:#d62728;stroke:#d62728;stroke-linejoin:miter"/><use xlink:href="#N" x="514.9" y="70.7" style="fill:#d62728;stroke:#d62728;stroke-linejoin:miter"/><use xlink:href="#N" x="679" y="72" style="fill:#d62728;stroke:#d62728;stroke-linejoin:miter"/></g><path d="M75.5 100 222 94.4l146.5-1.8 146.4-.3 164.1 2" clip-path="url(#a)" style="fill:none;stroke-dasharray:5.55,2.4;stroke-dashoffset:0;stroke:#d62728;stroke-width:1.5"/><defs><path id="O" d="m0 5 5-5-5-5-5 5z" style="stroke:#d62728;stroke-linejoin:miter"/></defs><g clip-path="url(#a)"><use xlink:href="#O" x="75.5" y="100" style="fill-opacity:0;stroke:#d62728;stroke-linejoin:miter"/><use xlink:href="#O" x="222" y="94.4" style="fill-opacity:0;stroke:#d62728;stroke-linejoin:miter"/><use xlink:href="#O" x="368.5" y="92.6" style="fill-opacity:0;stroke:#d62728;stroke-linejoin:miter"/><use xlink:href="#O" x="514.9" y="92.3" style="fill-opacity:0;stroke:#d62728;stroke-linejoin:miter"/><use xlink:href="#O" x="679" y="94.2" style="fill-opacity:0;stroke:#d62728;stroke-linejoin:miter"/></g><path d="m75.5 43.9 146.5-.5h146.5l146.4.6H679" clip-path="url(#a)" style="fill:none;stroke:#9467bd;stroke-width:1.5;stroke-linecap:square"/><defs><path id="P" d="m0 3.5 3.5-7h-7z" style="stroke:#9467bd;stroke-linejoin:miter"/></defs><g clip-path="url(#a)"><use xlink:href="#P" x="75.5" y="43.9" style="fill:#9467bd;stroke:#9467bd;stroke-linejoin:miter"/><use xlink:href="#P" x="222" y="43.4" style="fill:#9467bd;stroke:#9467bd;stroke-linejoin:miter"/><use xlink:href="#P" x="368.5" y="43.4" style="fill:#9467bd;stroke:#9467bd;stroke-linejoin:miter"/><use xlink:href="#P" x="514.9" y="44" style="fill:#9467bd;stroke:#9467bd;stroke-linejoin:miter"/><use xlink:href="#P" x="679" y="44" style="fill:#9467bd;stroke:#9467bd;stroke-linejoin:miter"/></g><path d="M75.5 58.6 222 56.7h146.5l146.4-.5 164.1.3" clip-path="url(#a)" style="fill:none;stroke-dasharray:5.55,2.4;stroke-dashoffset:0;stroke:#9467bd;stroke-width:1.5"/><defs><path id="Q" d="m0 3.5 3.5-7h-7z" style="stroke:#9467bd;stroke-linejoin:miter"/></defs><g clip-path="url(#a)"><use xlink:href="#Q" x="75.5" y="58.6" style="fill-opacity:0;stroke:#9467bd;stroke-linejoin:miter"/><use xlink:href="#Q" x="222" y="56.7" style="fill-opacity:0;stroke:#9467bd;stroke-linejoin:miter"/><use xlink:href="#Q" x="368.5" y="56.7" style="fill-opacity:0;stroke:#9467bd;stroke-linejoin:miter"/><use xlink:href="#Q" x="514.9" y="56.2" style="fill-opacity:0;stroke:#9467bd;stroke-linejoin:miter"/><use xlink:href="#Q" x="679" y="56.5" style="fill-opacity:0;stroke:#9467bd;stroke-linejoin:miter"/></g><path d="M45.3 389.3V27m663.9 362.3V27M45.3 389.3h663.9M45.3 26.9h663.9" style="fill:none;stroke:#000;stroke-width:.8;stroke-linejoin:miter;stroke-linecap:square"/><g transform="matrix(.12 0 0 -.12 310.3 20.9)"><defs><path id="R" d="M191 3500h609L1894 563l1094 2937h609L2284 0h-781z" transform="scale(.01563)"/></defs><use xlink:href="#r"/><use xlink:href="#r" transform="translate(63.5)"/><use xlink:href="#s" transform="translate(127)"/><use xlink:href="#t" transform="translate(156.4)"/><use xlink:href="#u" transform="translate(242.7)"/><use xlink:href="#v" transform="translate(316)"/><use xlink:href="#w" transform="translate(373.9)"/><use xlink:href="#h" transform="translate(440.5)"/><use xlink:href="#x" transform="translate(510.4)"/><use xlink:href="#w" transform="translate(575.8)"/><use xlink:href="#g" transform="translate(644.3)"/><use xlink:href="#R" transform="translate(739.7)"/><use xlink:href="#D" transform="translate(798.8)"/><use xlink:href="#h" transform="translate(882.7)"/><use xlink:href="#i" transform="translate(952.6)"/><use xlink:href="#j" transform="translate(991.4)"/><use xlink:href="#k" transform="translate(1052.6)"/></g><path d="M527.1 238.7h176.5q1.6 0 1.6-1.6v-58q0-1.6-1.6-1.6H527.1q-1.6 0-1.6 1.6v58q0 1.6 1.6 1.6z" style="fill:#fff;opacity:.8;stroke:#ccc;stroke-linejoin:miter"/><path d="M528.7 184h16" style="fill:none;stroke:#1f77b4;stroke-width:1.5;stroke-linecap:square"/><use xlink:href="#H" x="536.7" y="184" style="fill:#1f77b4;stroke:#1f77b4"/><g transform="matrix(.08 0 0 -.08 551.1 186.8)"><defs><path id="S" d="M3328 2828q216 388 516 572t706 184q547 0 844-383 297-382 297-1088V0h-578v2094q0 503-179 746-178 244-543 244-447 0-707-297-259-296-259-809V0h-578v2094q0 506-178 748t-550 242q-441 0-701-298-259-298-259-808V0H581v3500h578v-544q197 322 472 475t653 153q382 0 649-194 267-193 395-562" transform="scale(.01563)"/><path id="T" d="M2194 1759q-697 0-966-159t-269-544q0-306 202-486 202-179 548-179 479 0 768 339t289 901v128zm1147 238V0h-575v531q-197-318-491-470T1556-91q-537 0-855 302-317 302-317 808 0 590 395 890 396 300 1180 300h807v57q0 397-261 614t-733 217q-300 0-585-72-284-72-546-216v532q315 122 612 182 297 61 578 61 760 0 1135-394 375-393 375-1193" transform="scale(.01563)"/><path id="U" d="M3513 2113V0h-575v2094q0 497-194 743-194 247-581 247-466 0-735-297-269-296-269-809V0H581v3500h578v-544q207 316 486 472 280 156 646 156 603 0 912-373 310-373 310-1098" transform="scale(.01563)"/></defs><use xlink:href="#n"/><use xlink:href="#d" transform="translate(63.6)"/><use xlink:href="#y" transform="translate(159)"/><use xlink:href="#S" transform="translate(198)"/><use xlink:href="#C" transform="translate(295.5)"/><use xlink:href="#T" transform="translate(357)"/><use xlink:href="#U" transform="translate(418.3)"/><use xlink:href="#G" transform="translate(481.6)"/></g><path d="M528.7 195.8h16" style="fill:none;stroke-dasharray:5.55,2.4;stroke-dashoffset:0;stroke:#1f77b4;stroke-width:1.5"/><use xlink:href="#I" x="536.7" y="195.8" style="fill-opacity:0;stroke:#1f77b4"/><g transform="matrix(.08 0 0 -.08 551.1 198.6)"><defs><path id="V" d="M4653 2053q-272 0-427-231-154-231-154-644 0-406 154-639 155-233 427-233 266 0 420 233 155 233 155 639 0 410-155 642-154 233-420 233m0 397q494 0 784-344 291-343 291-928 0-584-292-927-292-342-783-342-500 0-791 342-290 343-290 927 0 588 292 930t789 342M1428 4353q-269 0-424-233-154-232-154-639 0-412 153-644 153-231 425-231t426 231q155 232 155 644 0 403-156 637-156 235-425 235m2822 397h500L1831-91h-500zm-2822 0q494 0 787-342 294-342 294-927 0-590-292-931t-789-341-786 342q-289 343-289 930 0 582 290 925 291 344 785 344" transform="scale(.01563)"/><path id="W" d="M269 3500h575l719-2731 715 2731h678l719-2731 716 2731h575L4050 0h-678l-753 2869L1863 0h-679z" transform="scale(.01563)"/></defs><use xlink:href="#n"/><use xlink:href="#d" transform="translate(63.6)"/><use xlink:href="#y" transform="translate(159)"/><use xlink:href="#c" transform="translate(198)"/><use xlink:href="#V" transform="translate(261.7)"/><use xlink:href="#W" transform="translate(388.5)"/><use xlink:href="#j" transform="translate(470.3)"/><use xlink:href="#i" transform="translate(531.4)"/><use xlink:href="#D" transform="translate(572.6)"/><use xlink:href="#F" transform="translate(624.7)"/><use xlink:href="#G" transform="translate(663.9)"/></g><path d="M528.7 207.5h16" style="fill:none;stroke:#ff7f0e;stroke-width:1.5;stroke-linecap:square"/><use xlink:href="#J" x="536.7" y="207.5" style="fill:#ff7f0e;stroke:#ff7f0e;stroke-linejoin:miter"/><g transform="matrix(.08 0 0 -.08 551.1 210.3)"><use xlink:href="#c"/><use xlink:href="#d" transform="translate(63.6)"/><use xlink:href="#y" transform="translate(159)"/><use xlink:href="#S" transform="translate(198)"/><use xlink:href="#C" transform="translate(295.5)"/><use xlink:href="#T" transform="translate(357)"/><use xlink:href="#U" transform="translate(418.3)"/><use xlink:href="#G" transform="translate(481.6)"/></g><path d="M528.7 219.3h16" style="fill:none;stroke-dasharray:5.55,2.4;stroke-dashoffset:0;stroke:#ff7f0e;stroke-width:1.5"/><use xlink:href="#K" x="536.7" y="219.3" style="fill-opacity:0;stroke:#ff7f0e;stroke-linejoin:miter"/><g transform="matrix(.08 0 0 -.08 551.1 222)"><use xlink:href="#c"/><use xlink:href="#d" transform="translate(63.6)"/><use xlink:href="#y" transform="translate(159)"/><use xlink:href="#c" transform="translate(198)"/><use xlink:href="#V" transform="translate(261.7)"/><use xlink:href="#W" transform="translate(388.5)"/><use xlink:href="#j" transform="translate(470.3)"/><use xlink:href="#i" transform="translate(531.4)"/><use xlink:href="#D" transform="translate(572.6)"/><use xlink:href="#F" transform="translate(624.7)"/><use xlink:href="#G" transform="translate(663.9)"/></g><path d="M528.7 231h16" style="fill:none;stroke:#2ca02c;stroke-width:1.5;stroke-linecap:square"/><use xlink:href="#L" x="536.7" y="231" style="fill:#2ca02c;stroke:#2ca02c;stroke-linejoin:miter"/><g transform="matrix(.08 0 0 -.08 551.1 233.8)"><use xlink:href="#o"/><use xlink:href="#d" transform="translate(63.6)"/><use xlink:href="#y" transform="translate(159)"/><use xlink:href="#S" transform="translate(198)"/><use xlink:href="#C" transform="translate(295.5)"/><use xlink:href="#T" transform="translate(357)"/><use xlink:href="#U" transform="translate(418.3)"/><use xlink:href="#G" transform="translate(481.6)"/></g><path d="M623.4 184h16" style="fill:none;stroke-dasharray:5.55,2.4;stroke-dashoffset:0;stroke:#2ca02c;stroke-width:1.5"/><use xlink:href="#M" x="631.4" y="184" style="fill-opacity:0;stroke:#2ca02c;stroke-linejoin:miter"/><g transform="matrix(.08 0 0 -.08 645.8 186.8)"><use xlink:href="#o"/><use xlink:href="#d" transform="translate(63.6)"/><use xlink:href="#y" transform="translate(159)"/><use xlink:href="#c" transform="translate(198)"/><use xlink:href="#V" transform="translate(261.7)"/><use xlink:href="#W" transform="translate(388.5)"/><use xlink:href="#j" transform="translate(470.3)"/><use xlink:href="#i" transform="translate(531.4)"/><use xlink:href="#D" transform="translate(572.6)"/><use xlink:href="#F" transform="translate(624.7)"/><use xlink:href="#G" transform="translate(663.9)"/></g><path d="M623.4 195.8h16" style="fill:none;stroke:#d62728;stroke-width:1.5;stroke-linecap:square"/><use xlink:href="#N" x="631.4" y="195.8" style="fill:#d62728;stroke:#d62728;stroke-linejoin:miter"/><g transform="matrix(.08 0 0 -.08 645.8 198.6)"><use xlink:href="#e"/><use xlink:href="#d" transform="translate(63.6)"/><use xlink:href="#y" transform="translate(159)"/><use xlink:href="#S" transform="translate(198)"/><use xlink:href="#C" transform="translate(295.5)"/><use xlink:href="#T" transform="translate(357)"/><use xlink:href="#U" transform="translate(418.3)"/><use xlink:href="#G" transform="translate(481.6)"/></g><path d="M623.4 207.5h16" style="fill:none;stroke-dasharray:5.55,2.4;stroke-dashoffset:0;stroke:#d62728;stroke-width:1.5"/><use xlink:href="#O" x="631.4" y="207.5" style="fill-opacity:0;stroke:#d62728;stroke-linejoin:miter"/><g transform="matrix(.08 0 0 -.08 645.8 210.3)"><use xlink:href="#e"/><use xlink:href="#d" transform="translate(63.6)"/><use xlink:href="#y" transform="translate(159)"/><use xlink:href="#c" transform="translate(198)"/><use xlink:href="#V" transform="translate(261.7)"/><use xlink:href="#W" transform="translate(388.5)"/><use xlink:href="#j" transform="translate(470.3)"/><use xlink:href="#i" transform="translate(531.4)"/><use xlink:href="#D" transform="translate(572.6)"/><use xlink:href="#F" transform="translate(624.7)"/><use xlink:href="#G" transform="translate(663.9)"/></g><path d="M623.4 219.3h16" style="fill:none;stroke:#9467bd;stroke-width:1.5;stroke-linecap:square"/><use xlink:href="#P" x="631.4" y="219.3" style="fill:#9467bd;stroke:#9467bd;stroke-linejoin:miter"/><g transform="matrix(.08 0 0 -.08 645.8 222)"><use xlink:href="#p"/><use xlink:href="#d" transform="translate(63.6)"/><use xlink:href="#y" transform="translate(159)"/><use xlink:href="#S" transform="translate(198)"/><use xlink:href="#C" transform="translate(295.5)"/><use xlink:href="#T" transform="translate(357)"/><use xlink:href="#U" transform="translate(418.3)"/><use xlink:href="#G" transform="translate(481.6)"/></g><path d="M623.4 231h16" style="fill:none;stroke-dasharray:5.55,2.4;stroke-dashoffset:0;stroke:#9467bd;stroke-width:1.5"/><use xlink:href="#Q" x="631.4" y="231" style="fill-opacity:0;stroke:#9467bd;stroke-linejoin:miter"/><g transform="matrix(.08 0 0 -.08 645.8 233.8)"><use xlink:href="#p"/><use xlink:href="#d" transform="translate(63.6)"/><use xlink:href="#y" transform="translate(159)"/><use xlink:href="#c" transform="translate(198)"/><use xlink:href="#V" transform="translate(261.7)"/><use xlink:href="#W" transform="translate(388.5)"/><use xlink:href="#j" transform="translate(470.3)"/><use xlink:href="#i" transform="translate(531.4)"/><use xlink:href="#D" transform="translate(572.6)"/><use xlink:href="#F" transform="translate(624.7)"/><use xlink:href="#G" transform="translate(663.9)"/></g><defs><clipPath id="a"><path d="M45.3 26.9h663.9v362.4H45.3z"/></clipPath></defs></svg>