<svg xmlns="http://www.w3.org/2000/svg" xmlns:xlink="http://www.w3.org/1999/xlink" width="960" height="576" viewBox="0 0 720 432"><path d="M0 432h720V0H0z" style="fill:#fff"/><path d="M48.4 389.3h660.8V27H48.4z" style="fill:#fff"/><path d="M78.5 389.3V27" clip-path="url(#a)" style="fill:none;stroke:#b0b0b0;stroke-opacity:.3;stroke-width:.8;stroke-linecap:square"/><defs><path id="b" d="M0 0v3.5" style="stroke:#000;stroke-width:.8"/></defs><use xlink:href="#b" x="78.5" y="389.3" style="stroke:#000;stroke-width:.8"/><g transform="matrix(.1 0 0 -.1 72.1 404)"><defs><path id="c" d="M2597 2516q453-97 707-404 255-306 255-756 0-690-475-1069Q2609-91 1734-91q-293 0-604 58T488 141v609q262-153 574-231 313-78 654-78 593 0 904 234t311 681q0 413-289 645-289 233-804 233h-544v519h569q465 0 712 186t247 536q0 359-255 551-254 193-729 193-260 0-557-57-297-56-653-174v562q360 100 674 150t592 50q719 0 1137-327 419-326 419-882 0-388-222-655t-631-370" transform="scale(.01563)"/><path id="d" d="M2034 4250q-487 0-733-480-245-479-245-1442 0-959 245-1439 246-480 733-480 491 0 736 480 246 480 246 1439 0 963-246 1442-245 480-736 480m0 500q785 0 1199-621 414-620 414-1801 0-1178-414-1799Q2819-91 2034-91q-784 0-1198 620-414 621-414 1799 0 1181 414 1801 414 621 1198 621" transform="scale(.01563)"/></defs><use xlink:href="#c"/><use xlink:href="#d" transform="translate(63.6)"/></g><path d="M164.3 389.3V27" clip-path="url(#a)" style="fill:none;stroke:#b0b0b0;stroke-opacity:.3;stroke-width:.8;stroke-linecap:square"/><use xlink:href="#b" x="164.3" y="389.3" style="stroke:#000;stroke-width:.8"/><g transform="matrix(.1 0 0 -.1 158 404)"><defs><path id="e" d="M2419 4116 825 1625h1594zm-166 550h794V1625h666v-525h-666V0h-628v1100H313v609z" transform="scale(.01563)"/></defs><use xlink:href="#e"/><use xlink:href="#d" transform="translate(63.6)"/></g><path d="M250.1 389.3V27" clip-path="url(#a)" style="fill:none;stroke:#b0b0b0;stroke-opacity:.3;stroke-width:.8;stroke-linecap:square"/><use xlink:href="#b" x="250.1" y="389.3" style="stroke:#000;stroke-width:.8"/><g transform="matrix(.1 0 0 -.1 243.7 404)"><defs><path id="f" d="M691 4666h2478v-532H1269V2991q137 47 274 70 138 23 276 23 781 0 1237-428 457-428 457-1159 0-753-469-1171Q2575-91 1722-91q-294 0-599 50Q819 9 494 109v635q281-153 581-228t634-75q541 0 856 284 316 284 316 772 0 487-316 771-315 285-856 285-253 0-505-56-251-56-513-175z" transform="scale(.01563)"/></defs><use xlink:href="#f"/><use xlink:href="#d" transform="translate(63.6)"/></g><path d="M336 389.3V27" clip-path="url(#a)" style="fill:none;stroke:#b0b0b0;stroke-opacity:.3;stroke-width:.8;stroke-linecap:square"/><use xlink:href="#b" x="335.9" y="389.3" style="stroke:#000;stroke-width:.8"/><g transform="matrix(.1 0 0 -.1 329.6 404)"><defs><path id="g" d="M2113 2584q-425 0-674-291-248-290-248-796 0-503 248-796 249-292 674-292t673 292q248 293 248 796 0 506-248 796-248 291-673 291m1253 1979v-575q-238 112-480 171-242 60-480 60-625 0-955-422-329-422-376-1275 184 272 462 417 279 145 613 145 703 0 1111-427 408-426 408-1160 0-719-425-1154Q2819-91 2113-91q-810 0-1238 620-428 621-428 1799 0 1106 525 1764t1409 658q238 0 480-47t505-140" transform="scale(.01563)"/></defs><use xlink:href="#g"/><use xlink:href="#d" transform="translate(63.6)"/></g><path d="M421.7 389.3V27" clip-path="url(#a)" style="fill:none;stroke:#b0b0b0;stroke-opacity:.3;stroke-width:.8;stroke-linecap:square"/><use xlink:href="#b" x="421.7" y="389.3" style="stroke:#000;stroke-width:.8"/><g transform="matrix(.1 0 0 -.1 415.4 404)"><defs><path id="h" d="M525 4666h3000v-269L1831 0h-659l1594 4134H525z" transform="scale(.01563)"/></defs><use xlink:href="#h"/><use xlink:href="#d" transform="translate(63.6)"/></g><path d="M507.5 389.3V27" clip-path="url(#a)" style="fill:none;stroke:#b0b0b0;stroke-opacity:.3;stroke-width:.8;stroke-linecap:square"/><use xlink:href="#b" x="507.5" y="389.3" style="stroke:#000;stroke-width:.8"/><g transform="matrix(.1 0 0 -.1 501.2 404)"><defs><path id="i" d="M2034 2216q-450 0-708-241-257-241-257-662 0-422 257-663 258-241 708-241t709 242q260 243 260 662 0 421-258 662-257 241-711 241m-631 268q-406 100-633 378-226 279-226 679 0 559 398 884 399 325 1092 325 697 0 1094-325t397-884q0-400-227-679-226-278-629-378 456-106 710-416 255-309 255-755 0-679-414-1042Q2806-91 2034-91q-771 0-1186 362-414 363-414 1042 0 446 256 755 257 310 713 416m-231 997q0-362 226-565 227-203 636-203 407 0 636 203 230 203 230 565 0 363-230 566-229 203-636 203-409 0-636-203-226-203-226-566" transform="scale(.01563)"/></defs><use xlink:href="#i"/><use xlink:href="#d" transform="translate(63.6)"/></g><path d="M593.4 389.3V27" clip-path="url(#a)" style="fill:none;stroke:#b0b0b0;stroke-opacity:.3;stroke-width:.8;stroke-linecap:square"/><use xlink:href="#b" x="593.4" y="389.3" style="stroke:#000;stroke-width:.8"/><g transform="matrix(.1 0 0 -.1 587 404)"><defs><path id="j" d="M703 97v575q238-113 481-172 244-59 479-59 625 0 954 420 330 420 377 1277-181-269-460-413-278-144-615-144-700 0-1108 423-408 424-408 1159 0 718 425 1152 425 435 1131 435 810 0 1236-621 427-620 427-1801 0-1103-524-1761Q2575-91 1691-91q-238 0-482 47Q966 3 703 97m1256 1978q425 0 673 290 249 291 249 798 0 503-249 795-248 292-673 292t-673-292-248-795q0-507 248-798 248-290 673-290" transform="scale(.01563)"/></defs><use xlink:href="#j"/><use xlink:href="#d" transform="translate(63.6)"/></g><path d="M679.2 389.3V27" clip-path="url(#a)" style="fill:none;stroke:#b0b0b0;stroke-opacity:.3;stroke-width:.8;stroke-linecap:square"/><use xlink:href="#b" x="679.2" y="389.3" style="stroke:#000;stroke-width:.8"/><g transform="matrix(.1 0 0 -.1 669.6 404)"><defs><path id="k" d="M794 531h1031v3560L703 3866v575l1116 225h631V531h1031V0H794z" transform="scale(.01563)"/></defs><use xlink:href="#k"/><use xlink:href="#d" transform="translate(63.6)"/><use xlink:href="#d" transform="translate(127.2)"/></g><g transform="matrix(.11 0 0 -.11 359.2 418.4)"><defs><path id="l" d="M2522 4238q-688 0-1093-513-404-512-404-1397 0-881 404-1394 405-512 1093-512 687 0 1089 512 402 513 402 1394 0 885-402 1397-402 513-1089 513M3406 84l832-909h-763L2784-78q-103-6-158-9-54-4-104-4-984 0-1574 658-589 658-589 1761 0 1106 589 1764 590 658 1574 658 981 0 1568-658 588-658 588-1764 0-812-327-1391-326-578-945-853" transform="scale(.01563)"/><path id="m" d="M544 1381v2119h575V1403q0-497 193-746 194-248 582-248 465 0 735 297 271 297 271 810v1984h575V0h-575v538q-209-319-486-474-276-155-642-155-603 0-916 375-312 375-312 1097m1447 2203" transform="scale(.01563)"/><path id="n" d="M2194 1759q-697 0-966-159t-269-544q0-306 202-486 202-179 548-179 479 0 768 339t289 901v128zm1147 238V0h-575v531q-197-318-491-470T1556-91q-537 0-855 302-317 302-317 808 0 590 395 890 396 300 1180 300h807v57q0 397-261 614t-733 217q-300 0-585-72-284-72-546-216v532q315 122 612 182 297 61 578 61 760 0 1135-394 375-393 375-1193" transform="scale(.01563)"/><path id="o" d="M603 4863h575V0H603z" transform="scale(.01563)"/><path id="p" d="M603 3500h575V0H603zm0 1363h575v-729H603z" transform="scale(.01563)"/><path id="q" d="M1172 4494v-994h1184v-447H1172V1153q0-428 117-550t477-122h590V0h-590q-666 0-919 248-253 249-253 905v1900H172v447h422v994z" transform="scale(.01563)"/><path id="r" d="M2059-325q-243-625-475-815-231-191-618-191H506v481h338q237 0 368 113 132 112 291 531l103 262L191 3500h609L1894 763l1094 2737h609z" transform="scale(.01563)"/></defs><use xlink:href="#l"/><use xlink:href="#m" transform="translate(78.7)"/><use xlink:href="#n" transform="translate(142)"/><use xlink:href="#o" transform="translate(203.4)"/><use xlink:href="#p" transform="translate(231.2)"/><use xlink:href="#q" transform="translate(259)"/><use xlink:href="#r" transform="translate(298.1)"/></g><path d="M48.4 382.1h660.8" clip-path="url(#a)" style="fill:none;stroke:#b0b0b0;stroke-opacity:.3;stroke-width:.8;stroke-linecap:square"/><defs><path id="s" d="M0 0h-3.5" style="stroke:#000;stroke-width:.8"/></defs><use xlink:href="#s" x="48.4" y="382.1" style="stroke:#000;stroke-width:.8"/><g transform="matrix(.1 0 0 -.1 25.5 386)"><defs><path id="t" d="M684 794h660V0H684z" transform="scale(.01563)"/></defs><use xlink:href="#d"/><use xlink:href="#t" transform="translate(63.6)"/><use xlink:href="#d" transform="translate(95.4)"/></g><path d="M48.4 318.2h660.8" clip-path="url(#a)" style="fill:none;stroke:#b0b0b0;stroke-opacity:.3;stroke-width:.8;stroke-linecap:square"/><use xlink:href="#s" x="48.4" y="318.2" style="stroke:#000;stroke-width:.8"/><g transform="matrix(.1 0 0 -.1 25.5 322)"><use xlink:href="#d"/><use xlink:href="#t" transform="translate(63.6)"/><use xlink:href="#k" transform="translate(95.4)"/></g><path d="M48.4 254.4h660.8" clip-path="url(#a)" style="fill:none;stroke:#b0b0b0;stroke-opacity:.3;stroke-width:.8;stroke-linecap:square"/><use xlink:href="#s" x="48.4" y="254.4" style="stroke:#000;stroke-width:.8"/><g transform="matrix(.1 0 0 -.1 25.5 258.2)"><defs><path id="u" d="M1228 531h2203V0H469v531q359 372 979 998 621 627 780 809 303 340 423 576 121 236 121 464 0 372-261 606-261 235-680 235-297 0-627-103-329-103-704-313v638q381 153 712 231 332 78 607 78 725 0 1156-363 431-362 431-968 0-288-108-546-107-257-392-607-78-91-497-524-418-433-1181-1211" transform="scale(.01563)"/></defs><use xlink:href="#d"/><use xlink:href="#t" transform="translate(63.6)"/><use xlink:href="#u" transform="translate(95.4)"/></g><path d="M48.4 190.5h660.8" clip-path="url(#a)" style="fill:none;stroke:#b0b0b0;stroke-opacity:.3;stroke-width:.8;stroke-linecap:square"/><use xlink:href="#s" x="48.4" y="190.5" style="stroke:#000;stroke-width:.8"/><g transform="matrix(.1 0 0 -.1 25.5 194.3)"><use xlink:href="#d"/><use xlink:href="#t" transform="translate(63.6)"/><use xlink:href="#c" transform="translate(95.4)"/></g><path d="M48.4 126.6h660.8" clip-path="url(#a)" style="fill:none;stroke:#b0b0b0;stroke-opacity:.3;stroke-width:.8;stroke-linecap:square"/><use xlink:href="#s" x="48.4" y="126.6" style="stroke:#000;stroke-width:.8"/><g transform="matrix(.1 0 0 -.1 25.5 130.4)"><use xlink:href="#d"/><use xlink:href="#t" transform="translate(63.6)"/><use xlink:href="#e" transform="translate(95.4)"/></g><path d="M48.4 62.8h660.8" clip-path="url(#a)" style="fill:none;stroke:#b0b0b0;stroke-opacity:.3;stroke-width:.8;stroke-linecap:square"/><use xlink:href="#s" x="48.4" y="62.8" style="stroke:#000;stroke-width:.8"/><g transform="matrix(.1 0 0 -.1 25.5 66.6)"><use xlink:href="#d"/><use xlink:href="#t" transform="translate(63.6)"/><use xlink:href="#f" transform="translate(95.4)"/></g><g transform="matrix(0 -.11 -.11 0 19.2 294.7)"><defs><path id="v" d="M1259 2228V519h1013q509 0 754 211 246 211 246 645 0 438-246 645-245 208-754 208zm0 1919V2741h935q462 0 688 173 227 174 227 530 0 353-227 528-226 175-688 175zm-631 519h1613q722 0 1112-300 391-300 391-853 0-429-200-682t-588-315q466-100 724-418 258-317 258-792 0-625-425-966Q3088 0 2303 0H628z" transform="scale(.01563)"/><path id="w" d="M3597 1894v-281H953q38-594 358-905t892-311q331 0 642 81t618 244V178Q3153 47 2828-22t-659-69q-838 0-1327 487-489 488-489 1320 0 859 464 1363 464 505 1252 505 706 0 1117-455 411-454 411-1235m-575 169q-6 471-264 752-258 282-683 282-481 0-770-272t-333-766z" transform="scale(.01563)"/><path id="x" d="M2834 3397v-544q-243 125-506 187-262 63-544 63-428 0-642-131t-214-394q0-200 153-314t616-217l197-44q612-131 870-370t258-667q0-488-386-773Q2250-91 1575-91q-281 0-586 55T347 128v594q319-166 628-249 309-82 613-82 406 0 624 139 219 139 219 392 0 234-158 359-157 125-692 241l-200 47q-534 112-772 345-237 233-237 639 0 494 350 762 350 269 994 269 318 0 599-47 282-46 519-140" transform="scale(.01563)"/><path id="y" d="M1159 525v-1856H581v4831h578v-531q182 312 458 463 277 152 661 152 638 0 1036-506 399-506 399-1331T3314 415Q2916-91 2278-91q-384 0-661 152-276 152-458 464m1957 1222q0 634-261 995t-717 361q-457 0-718-361t-261-995 261-995 718-361q456 0 717 361t261 995" transform="scale(.01563)"/><path id="z" d="M2631 2963q-97 56-211 82-114 27-251 27-488 0-749-317t-261-911V0H581v3500h578v-544q182 319 472 473 291 155 707 155 59 0 131-8 72-7 159-23z" transform="scale(.01563)"/><path id="A" d="M1259 4147V2394h794q441 0 681 228 241 228 241 650 0 419-241 647-240 228-681 228zm-631 519h1425q785 0 1186-355 402-355 402-1039 0-691-402-1044-401-353-1186-353h-794V0H628z" transform="scale(.01563)"/><path id="B" d="M3513 3500 2247 1797 3578 0h-678L1881 1375 863 0H184l1360 1831L300 3500h678l928-1247 928 1247z" transform="scale(.01563)"/><path id="C" d="M1984 4856q-418-718-622-1422-203-703-203-1425 0-721 205-1429t620-1424h-500Q1016-109 783 600T550 2009q0 697 231 1403 232 707 703 1444z" transform="scale(.01563)"/><path id="D" d="M1959 3097q-462 0-731-361t-269-989 267-989q268-361 733-361 460 0 728 362 269 363 269 988 0 622-269 986-268 364-728 364m0 487q750 0 1178-488 429-487 429-1349 0-859-429-1349Q2709-91 1959-91q-753 0-1180 489-426 490-426 1349 0 862 426 1349 427 488 1180 488" transform="scale(.01563)"/><path id="E" d="M269 3500h575l719-2731 715 2731h678l719-2731 716 2731h575L4050 0h-678l-753 2869L1863 0h-679z" transform="scale(.01563)"/><path id="F" d="M3116 1747q0 634-261 995t-717 361q-457 0-718-361t-261-995 261-995 718-361q456 0 717 361t261 995M1159 2969q182 312 458 463 277 152 661 152 638 0 1036-506 399-506 399-1331T3314 415Q2916-91 2278-91q-384 0-661 152-276 152-458 464V0H581v4863h578z" transform="scale(.01563)"/><path id="G" d="M513 4856h500q468-737 701-1444 233-706 233-1403 0-700-233-1409T1013-844H513q415 716 620 1424t205 1429q0 722-205 1425-205 704-620 1422" transform="scale(.01563)"/></defs><use xlink:href="#v"/><use xlink:href="#r" transform="translate(68.6)"/><use xlink:href="#q" transform="translate(127.8)"/><use xlink:href="#w" transform="translate(167)"/><use xlink:href="#x" transform="translate(228.5)"/><use xlink:href="#y" transform="translate(312.4)"/><use xlink:href="#w" transform="translate(375.9)"/><use xlink:href="#z" transform="translate(437.4)"/><use xlink:href="#A" transform="translate(510.3)"/><use xlink:href="#p" transform="translate(568.4)"/><use xlink:href="#B" transform="translate(596.1)"/><use xlink:href="#w" transform="translate(652.2)"/><use xlink:href="#o" transform="translate(713.7)"/><use xlink:href="#C" transform="translate(773.3)"/><use xlink:href="#o" transform="translate(812.3)"/><use xlink:href="#D" transform="translate(840)"/><use xlink:href="#E" transform="translate(901.3)"/><use xlink:href="#w" transform="translate(983)"/><use xlink:href="#z" transform="translate(1044.6)"/><use xlink:href="#p" transform="translate(1117.5)"/><use xlink:href="#x" transform="translate(1145.3)"/><use xlink:href="#F" transform="translate(1229.1)"/><use xlink:href="#w" transform="translate(1292.6)"/><use xlink:href="#q" transform="translate(1354.1)"/><use xlink:href="#q" transform="translate(1393.4)"/><use xlink:href="#w" transform="translate(1432.6)"/><use xlink:href="#z" transform="translate(1494)"/><use xlink:href="#G" transform="translate(1535.2)"/></g><path d="m121.4 360.7 42.9-5.2 42.9-6.2 42.9-7.2 43-12 42.8-11.4 43-11.5 42.8-11 43-13.7 42.8-19.5 43-41 42.9-57" clip-path="url(#a)" style="fill:none;stroke:#1f77b4;stroke-width:1.5;stroke-linecap:square"/><defs><path id="H" d="M0 3.5a3.5 3.5 0 1 0 0-7 3.5 3.5 0 0 0 0 7z" style="stroke:#1f77b4"/></defs><g clip-path="url(#a)"><use xlink:href="#H" x="121.4" y="360.7" style="fill:#1f77b4;stroke:#1f77b4"/><use xlink:href="#H" x="164.3" y="355.5" style="fill:#1f77b4;stroke:#1f77b4"/><use xlink:href="#H" x="207.2" y="349.3" style="fill:#1f77b4;stroke:#1f77b4"/><use xlink:href="#H" x="250.1" y="342.1" style="fill:#1f77b4;stroke:#1f77b4"/><use xlink:href="#H" x="293" y="330" style="fill:#1f77b4;stroke:#1f77b4"/><use xlink:href="#H" x="335.9" y="318.7" style="fill:#1f77b4;stroke:#1f77b4"/><use xlink:href="#H" x="378.8" y="307.2" style="fill:#1f77b4;stroke:#1f77b4"/><use xlink:href="#H" x="421.7" y="296.1" style="fill:#1f77b4;stroke:#1f77b4"/><use xlink:href="#H" x="464.6" y="282.5" style="fill:#1f77b4;stroke:#1f77b4"/><use xlink:href="#H" x="507.5" y="263" style="fill:#1f77b4;stroke:#1f77b4"/><use xlink:href="#H" x="550.4" y="222.1" style="fill:#1f77b4;stroke:#1f77b4"/><use xlink:href="#H" x="593.4" y="165.1" style="fill:#1f77b4;stroke:#1f77b4"/></g><path d="m121.4 372.8 42.9-1.8 42.9-2.3 42.9-2.5 43-4.5 42.8-4.2 43-4.7 42.8-4.6 43-6.2 42.8-9.5 43-22.2 42.9-34.1" clip-path="url(#a)" style="fill:none;stroke-dasharray:5.55,2.4;stroke-dashoffset:0;stroke:#1f77b4;stroke-width:1.5"/><defs><path id="I" d="M0 3.5a3.5 3.5 0 1 0 0-7 3.5 3.5 0 0 0 0 7z" style="stroke:#1f77b4"/></defs><g clip-path="url(#a)"><use xlink:href="#I" x="121.4" y="372.8" style="fill-opacity:0;stroke:#1f77b4"/><use xlink:href="#I" x="164.3" y="371" style="fill-opacity:0;stroke:#1f77b4"/><use xlink:href="#I" x="207.2" y="368.7" style="fill-opacity:0;stroke:#1f77b4"/><use xlink:href="#I" x="250.1" y="366.2" style="fill-opacity:0;stroke:#1f77b4"/><use xlink:href="#I" x="293" y="361.7" style="fill-opacity:0;stroke:#1f77b4"/><use xlink:href="#I" x="335.9" y="357.5" style="fill-opacity:0;stroke:#1f77b4"/><use xlink:href="#I" x="378.8" y="352.8" style="fill-opacity:0;stroke:#1f77b4"/><use xlink:href="#I" x="421.7" y="348.2" style="fill-opacity:0;stroke:#1f77b4"/><use xlink:href="#I" x="464.6" y="342" style="fill-opacity:0;stroke:#1f77b4"/><use xlink:href="#I" x="507.5" y="332.5" style="fill-opacity:0;stroke:#1f77b4"/><use xlink:href="#I" x="550.4" y="310.3" style="fill-opacity:0;stroke:#1f77b4"/><use xlink:href="#I" x="593.4" y="276.2" style="fill-opacity:0;stroke:#1f77b4"/></g><path d="m121.4 349.2 42.9-8 42.9-9.8 42.9-11.3 43-19.6 42.8-18.3 43-18.2 42.8-17.4 43-20.8 42.8-28.2 43-54 42.9-68.3" clip-path="url(#a)" style="fill:none;stroke-dasharray:1.5,2.475;stroke-dashoffset:0;stroke:#1f77b4;stroke-width:1.5"/><g clip-path="url(#a)"><use xlink:href="#I" x="121.4" y="349.2" style="fill-opacity:0;stroke:#1f77b4"/><use xlink:href="#I" x="164.3" y="341.1" style="fill-opacity:0;stroke:#1f77b4"/><use xlink:href="#I" x="207.2" y="331.4" style="fill-opacity:0;stroke:#1f77b4"/><use xlink:href="#I" x="250.1" y="320.1" style="fill-opacity:0;stroke:#1f77b4"/><use xlink:href="#I" x="293" y="300.5" style="fill-opacity:0;stroke:#1f77b4"/><use xlink:href="#I" x="335.9" y="282.2" style="fill-opacity:0;stroke:#1f77b4"/><use xlink:href="#I" x="378.8" y="264" style="fill-opacity:0;stroke:#1f77b4"/><use xlink:href="#I" x="421.7" y="246.6" style="fill-opacity:0;stroke:#1f77b4"/><use xlink:href="#I" x="464.6" y="225.8" style="fill-opacity:0;stroke:#1f77b4"/><use xlink:href="#I" x="507.5" y="197.6" style="fill-opacity:0;stroke:#1f77b4"/><use xlink:href="#I" x="550.4" y="143.7" style="fill-opacity:0;stroke:#1f77b4"/><use xlink:href="#I" x="593.4" y="75.3" style="fill-opacity:0;stroke:#1f77b4"/></g><path d="m78.5 337.7 42.9-4.6 42.9-3.7 42.9-4.2 42.9-3.7 43-3.9 42.8-4.7 43-6 42.8-7.4 43-8.5 42.8-13.6 43-19.2 42.9-34.1 42.9-75" clip-path="url(#a)" style="fill:none;stroke:#ff7f0e;stroke-width:1.5;stroke-linecap:square"/><defs><path id="J" d="M-3.5 3.5h7v-7h-7z" style="stroke:#ff7f0e;stroke-linejoin:miter"/></defs><g clip-path="url(#a)"><use xlink:href="#J" x="78.5" y="337.7" style="fill:#ff7f0e;stroke:#ff7f0e;stroke-linejoin:miter"/><use xlink:href="#J" x="121.4" y="333.1" style="fill:#ff7f0e;stroke:#ff7f0e;stroke-linejoin:miter"/><use xlink:href="#J" x="164.3" y="329.4" style="fill:#ff7f0e;stroke:#ff7f0e;stroke-linejoin:miter"/><use xlink:href="#J" x="207.2" y="325.2" style="fill:#ff7f0e;stroke:#ff7f0e;stroke-linejoin:miter"/><use xlink:href="#J" x="250.1" y="321.5" style="fill:#ff7f0e;stroke:#ff7f0e;stroke-linejoin:miter"/><use xlink:href="#J" x="293" y="317.6" style="fill:#ff7f0e;stroke:#ff7f0e;stroke-linejoin:miter"/><use xlink:href="#J" x="335.9" y="312.9" style="fill:#ff7f0e;stroke:#ff7f0e;stroke-linejoin:miter"/><use xlink:href="#J" x="378.8" y="306.8" style="fill:#ff7f0e;stroke:#ff7f0e;stroke-linejoin:miter"/><use xlink:href="#J" x="421.7" y="299.5" style="fill:#ff7f0e;stroke:#ff7f0e;stroke-linejoin:miter"/><use xlink:href="#J" x="464.6" y="291" style="fill:#ff7f0e;stroke:#ff7f0e;stroke-linejoin:miter"/><use xlink:href="#J" x="507.5" y="277.4" style="fill:#ff7f0e;stroke:#ff7f0e;stroke-linejoin:miter"/><use xlink:href="#J" x="550.4" y="258.2" style="fill:#ff7f0e;stroke:#ff7f0e;stroke-linejoin:miter"/><use xlink:href="#J" x="593.4" y="224.1" style="fill:#ff7f0e;stroke:#ff7f0e;stroke-linejoin:miter"/><use xlink:href="#J" x="636.3" y="149.1" style="fill:#ff7f0e;stroke:#ff7f0e;stroke-linejoin:miter"/></g><path d="m78.5 353.4 42.9-2.6 42.9-2.2 42.9-2.5L250 344l43-2.3 42.8-2.9 43-3.8 42.8-4.7 43-5.6 42.8-9.2 43-13.2 42.9-23.7 42.9-52.4" clip-path="url(#a)" style="fill:none;stroke-dasharray:5.55,2.4;stroke-dashoffset:0;stroke:#ff7f0e;stroke-width:1.5"/><defs><path id="K" d="M-3.5 3.5h7v-7h-7z" style="stroke:#ff7f0e;stroke-linejoin:miter"/></defs><g clip-path="url(#a)"><use xlink:href="#K" x="78.5" y="353.4" style="fill-opacity:0;stroke:#ff7f0e;stroke-linejoin:miter"/><use xlink:href="#K" x="121.4" y="350.8" style="fill-opacity:0;stroke:#ff7f0e;stroke-linejoin:miter"/><use xlink:href="#K" x="164.3" y="348.6" style="fill-opacity:0;stroke:#ff7f0e;stroke-linejoin:miter"/><use xlink:href="#K" x="207.2" y="346.1" style="fill-opacity:0;stroke:#ff7f0e;stroke-linejoin:miter"/><use xlink:href="#K" x="250.1" y="344" style="fill-opacity:0;stroke:#ff7f0e;stroke-linejoin:miter"/><use xlink:href="#K" x="293" y="341.7" style="fill-opacity:0;stroke:#ff7f0e;stroke-linejoin:miter"/><use xlink:href="#K" x="335.9" y="338.8" style="fill-opacity:0;stroke:#ff7f0e;stroke-linejoin:miter"/><use xlink:href="#K" x="378.8" y="335" style="fill-opacity:0;stroke:#ff7f0e;stroke-linejoin:miter"/><use xlink:href="#K" x="421.7" y="330.3" style="fill-opacity:0;stroke:#ff7f0e;stroke-linejoin:miter"/><use xlink:href="#K" x="464.6" y="324.7" style="fill-opacity:0;stroke:#ff7f0e;stroke-linejoin:miter"/><use xlink:href="#K" x="507.5" y="315.5" style="fill-opacity:0;stroke:#ff7f0e;stroke-linejoin:miter"/><use xlink:href="#K" x="550.4" y="302.3" style="fill-opacity:0;stroke:#ff7f0e;stroke-linejoin:miter"/><use xlink:href="#K" x="593.4" y="278.6" style="fill-opacity:0;stroke:#ff7f0e;stroke-linejoin:miter"/><use xlink:href="#K" x="636.3" y="226.2" style="fill-opacity:0;stroke:#ff7f0e;stroke-linejoin:miter"/></g><path d="m78.5 325.4 42.9-5.9 42.9-4.9 42.9-5.5 42.9-4.9 43-5 42.8-6.3 43-7.8 42.8-9.6 43-11 42.8-17.2 43-24.7 42.9-43.5 42.9-93.8" clip-path="url(#a)" style="fill:none;stroke-dasharray:1.5,2.475;stroke-dashoffset:0;stroke:#ff7f0e;stroke-width:1.5"/><g clip-path="url(#a)"><use xlink:href="#K" x="78.5" y="325.4" style="fill-opacity:0;stroke:#ff7f0e;stroke-linejoin:miter"/><use xlink:href="#K" x="121.4" y="319.5" style="fill-opacity:0;stroke:#ff7f0e;stroke-linejoin:miter"/><use xlink:href="#K" x="164.3" y="314.6" style="fill-opacity:0;stroke:#ff7f0e;stroke-linejoin:miter"/><use xlink:href="#K" x="207.2" y="309.1" style="fill-opacity:0;stroke:#ff7f0e;stroke-linejoin:miter"/><use xlink:href="#K" x="250.1" y="304.2" style="fill-opacity:0;stroke:#ff7f0e;stroke-linejoin:miter"/><use xlink:href="#K" x="293" y="299.2" style="fill-opacity:0;stroke:#ff7f0e;stroke-linejoin:miter"/><use xlink:href="#K" x="335.9" y="292.9" style="fill-opacity:0;stroke:#ff7f0e;stroke-linejoin:miter"/><use xlink:href="#K" x="378.8" y="285.1" style="fill-opacity:0;stroke:#ff7f0e;stroke-linejoin:miter"/><use xlink:href="#K" x="421.7" y="275.5" style="fill-opacity:0;stroke:#ff7f0e;stroke-linejoin:miter"/><use xlink:href="#K" x="464.6" y="264.5" style="fill-opacity:0;stroke:#ff7f0e;stroke-linejoin:miter"/><use xlink:href="#K" x="507.5" y="247.3" style="fill-opacity:0;stroke:#ff7f0e;stroke-linejoin:miter"/><use xlink:href="#K" x="550.4" y="222.6" style="fill-opacity:0;stroke:#ff7f0e;stroke-linejoin:miter"/><use xlink:href="#K" x="593.4" y="179.1" style="fill-opacity:0;stroke:#ff7f0e;stroke-linejoin:miter"/><use xlink:href="#K" x="636.3" y="85.3" style="fill-opacity:0;stroke:#ff7f0e;stroke-linejoin:miter"/></g><path d="m164.3 356.5 42.9-2 42.9-2.1 43-3 42.8-3.2 43-4.4 42.8-4.4 43-7.9 42.8-11.4 43-17.7 42.9-31.5 42.9-69.8" clip-path="url(#a)" style="fill:none;stroke:#2ca02c;stroke-width:1.5;stroke-linecap:square"/><defs><path id="L" d="m0-3.5-3.5 7h7z" style="stroke:#2ca02c;stroke-linejoin:miter"/></defs><g clip-path="url(#a)"><use xlink:href="#L" x="164.3" y="356.5" style="fill:#2ca02c;stroke:#2ca02c;stroke-linejoin:miter"/><use xlink:href="#L" x="207.2" y="354.6" style="fill:#2ca02c;stroke:#2ca02c;stroke-linejoin:miter"/><use xlink:href="#L" x="250.1" y="352.4" style="fill:#2ca02c;stroke:#2ca02c;stroke-linejoin:miter"/><use xlink:href="#L" x="293" y="349.4" style="fill:#2ca02c;stroke:#2ca02c;stroke-linejoin:miter"/><use xlink:href="#L" x="335.9" y="346.2" style="fill:#2ca02c;stroke:#2ca02c;stroke-linejoin:miter"/><use xlink:href="#L" x="378.8" y="341.8" style="fill:#2ca02c;stroke:#2ca02c;stroke-linejoin:miter"/><use xlink:href="#L" x="421.7" y="337.4" style="fill:#2ca02c;stroke:#2ca02c;stroke-linejoin:miter"/><use xlink:href="#L" x="464.6" y="329.5" style="fill:#2ca02c;stroke:#2ca02c;stroke-linejoin:miter"/><use xlink:href="#L" x="507.5" y="318.1" style="fill:#2ca02c;stroke:#2ca02c;stroke-linejoin:miter"/><use xlink:href="#L" x="550.4" y="300.4" style="fill:#2ca02c;stroke:#2ca02c;stroke-linejoin:miter"/><use xlink:href="#L" x="593.4" y="268.9" style="fill:#2ca02c;stroke:#2ca02c;stroke-linejoin:miter"/><use xlink:href="#L" x="636.3" y="199.1" style="fill:#2ca02c;stroke:#2ca02c;stroke-linejoin:miter"/></g><path d="m164.3 365 42.9-1.1 42.9-1.3 43-1.6 42.8-1.6 43-2.4 42.8-2.9 43-4.3 42.8-6.5 43-9.7 42.9-19 42.9-45.7" clip-path="url(#a)" style="fill:none;stroke-dasharray:5.55,2.4;stroke-dashoffset:0;stroke:#2ca02c;stroke-width:1.5"/><defs><path id="M" d="m0-3.5-3.5 7h7z" style="stroke:#2ca02c;stroke-linejoin:miter"/></defs><g clip-path="url(#a)"><use xlink:href="#M" x="164.3" y="365" style="fill-opacity:0;stroke:#2ca02c;stroke-linejoin:miter"/><use xlink:href="#M" x="207.2" y="363.9" style="fill-opacity:0;stroke:#2ca02c;stroke-linejoin:miter"/><use xlink:href="#M" x="250.1" y="362.6" style="fill-opacity:0;stroke:#2ca02c;stroke-linejoin:miter"/><use xlink:href="#M" x="293" y="361" style="fill-opacity:0;stroke:#2ca02c;stroke-linejoin:miter"/><use xlink:href="#M" x="335.9" y="359.4" style="fill-opacity:0;stroke:#2ca02c;stroke-linejoin:miter"/><use xlink:href="#M" x="378.8" y="357" style="fill-opacity:0;stroke:#2ca02c;stroke-linejoin:miter"/><use xlink:href="#M" x="421.7" y="354.1" style="fill-opacity:0;stroke:#2ca02c;stroke-linejoin:miter"/><use xlink:href="#M" x="464.6" y="349.8" style="fill-opacity:0;stroke:#2ca02c;stroke-linejoin:miter"/><use xlink:href="#M" x="507.5" y="343.3" style="fill-opacity:0;stroke:#2ca02c;stroke-linejoin:miter"/><use xlink:href="#M" x="550.4" y="333.6" style="fill-opacity:0;stroke:#2ca02c;stroke-linejoin:miter"/><use xlink:href="#M" x="593.4" y="314.6" style="fill-opacity:0;stroke:#2ca02c;stroke-linejoin:miter"/><use xlink:href="#M" x="636.3" y="268.9" style="fill-opacity:0;stroke:#2ca02c;stroke-linejoin:miter"/></g><path d="m164.3 349.1 42.9-2.5 42.9-3 43-4.1 42.8-4.7 43-6 42.8-7 43-11.4 42.8-16.7 43-26.5 42.9-45.4 42.9-86.6" clip-path="url(#a)" style="fill:none;stroke-dasharray:1.5,2.475;stroke-dashoffset:0;stroke:#2ca02c;stroke-width:1.5"/><g clip-path="url(#a)"><use xlink:href="#M" x="164.3" y="349.1" style="fill-opacity:0;stroke:#2ca02c;stroke-linejoin:miter"/><use xlink:href="#M" x="207.2" y="346.6" style="fill-opacity:0;stroke:#2ca02c;stroke-linejoin:miter"/><use xlink:href="#M" x="250.1" y="343.6" style="fill-opacity:0;stroke:#2ca02c;stroke-linejoin:miter"/><use xlink:href="#M" x="293" y="339.5" style="fill-opacity:0;stroke:#2ca02c;stroke-linejoin:miter"/><use xlink:href="#M" x="335.9" y="334.8" style="fill-opacity:0;stroke:#2ca02c;stroke-linejoin:miter"/><use xlink:href="#M" x="378.8" y="328.9" style="fill-opacity:0;stroke:#2ca02c;stroke-linejoin:miter"/><use xlink:href="#M" x="421.7" y="321.9" style="fill-opacity:0;stroke:#2ca02c;stroke-linejoin:miter"/><use xlink:href="#M" x="464.6" y="310.4" style="fill-opacity:0;stroke:#2ca02c;stroke-linejoin:miter"/><use xlink:href="#M" x="507.5" y="293.7" style="fill-opacity:0;stroke:#2ca02c;stroke-linejoin:miter"/><use xlink:href="#M" x="550.4" y="267.2" style="fill-opacity:0;stroke:#2ca02c;stroke-linejoin:miter"/><use xlink:href="#M" x="593.4" y="221.8" style="fill-opacity:0;stroke:#2ca02c;stroke-linejoin:miter"/><use xlink:href="#M" x="636.3" y="135.2" style="fill-opacity:0;stroke:#2ca02c;stroke-linejoin:miter"/></g><path d="m78.5 352.6 42.9-2.7 42.9-3 42.9-2.6 42.9-2.6 43-3 42.8-2.6 43-3.4 42.8-3.4 43-3.8 42.8-13.8 43-20.3 42.9-34.1 42.9-59.7 42.9-78.5" clip-path="url(#a)" style="fill:none;stroke:#d62728;stroke-width:1.5;stroke-linecap:square"/><defs><path id="N" d="m0 5 5-5-5-5-5 5z" style="stroke:#d62728;stroke-linejoin:miter"/></defs><g clip-path="url(#a)"><use xlink:href="#N" x="78.5" y="352.6" style="fill:#d62728;stroke:#d62728;stroke-linejoin:miter"/><use xlink:href="#N" x="121.4" y="349.9" style="fill:#d62728;stroke:#d62728;stroke-linejoin:miter"/><use xlink:href="#N" x="164.3" y="346.9" style="fill:#d62728;stroke:#d62728;stroke-linejoin:miter"/><use xlink:href="#N" x="207.2" y="344.3" style="fill:#d62728;stroke:#d62728;stroke-linejoin:miter"/><use xlink:href="#N" x="250.1" y="341.7" style="fill:#d62728;stroke:#d62728;stroke-linejoin:miter"/><use xlink:href="#N" x="293" y="338.8" style="fill:#d62728;stroke:#d62728;stroke-linejoin:miter"/><use xlink:href="#N" x="335.9" y="336.1" style="fill:#d62728;stroke:#d62728;stroke-linejoin:miter"/><use xlink:href="#N" x="378.8" y="332.7" style="fill:#d62728;stroke:#d62728;stroke-linejoin:miter"/><use xlink:href="#N" x="421.7" y="329.3" style="fill:#d62728;stroke:#d62728;stroke-linejoin:miter"/><use xlink:href="#N" x="464.6" y="325.5" style="fill:#d62728;stroke:#d62728;stroke-linejoin:miter"/><use xlink:href="#N" x="507.5" y="311.7" style="fill:#d62728;stroke:#d62728;stroke-linejoin:miter"/><use xlink:href="#N" x="550.4" y="291.4" style="fill:#d62728;stroke:#d62728;stroke-linejoin:miter"/><use xlink:href="#N" x="593.4" y="257.3" style="fill:#d62728;stroke:#d62728;stroke-linejoin:miter"/><use xlink:href="#N" x="636.3" y="197.6" style="fill:#d62728;stroke:#d62728;stroke-linejoin:miter"/><use xlink:href="#N" x="679.2" y="119.1" style="fill:#d62728;stroke:#d62728;stroke-linejoin:miter"/></g><path d="m78.5 367 42.9-1 42.9-1.4 42.9-1.3 42.9-1 43-1.5 42.8-1.2 43-1.5 42.8-1.6 43-1.7 42.8-6.3 43-9.5 42.9-19 42.9-35.6 42.9-60" clip-path="url(#a)" style="fill:none;stroke-dasharray:5.55,2.4;stroke-dashoffset:0;stroke:#d62728;stroke-width:1.5"/><defs><path id="O" d="m0 5 5-5-5-5-5 5z" style="stroke:#d62728;stroke-linejoin:miter"/></defs><g clip-path="url(#a)"><use xlink:href="#O" x="78.5" y="367.1" style="fill-opacity:0;stroke:#d62728;stroke-linejoin:miter"/><use xlink:href="#O" x="121.4" y="365.9" style="fill-opacity:0;stroke:#d62728;stroke-linejoin:miter"/><use xlink:href="#O" x="164.3" y="364.6" style="fill-opacity:0;stroke:#d62728;stroke-linejoin:miter"/><use xlink:href="#O" x="207.2" y="363.3" style="fill-opacity:0;stroke:#d62728;stroke-linejoin:miter"/><use xlink:href="#O" x="250.1" y="362.2" style="fill-opacity:0;stroke:#d62728;stroke-linejoin:miter"/><use xlink:href="#O" x="293" y="360.8" style="fill-opacity:0;stroke:#d62728;stroke-linejoin:miter"/><use xlink:href="#O" x="335.9" y="359.6" style="fill-opacity:0;stroke:#d62728;stroke-linejoin:miter"/><use xlink:href="#O" x="378.8" y="358.1" style="fill-opacity:0;stroke:#d62728;stroke-linejoin:miter"/><use xlink:href="#O" x="421.7" y="356.5" style="fill-opacity:0;stroke:#d62728;stroke-linejoin:miter"/><use xlink:href="#O" x="464.6" y="354.8" style="fill-opacity:0;stroke:#d62728;stroke-linejoin:miter"/><use xlink:href="#O" x="507.5" y="348.5" style="fill-opacity:0;stroke:#d62728;stroke-linejoin:miter"/><use xlink:href="#O" x="550.4" y="339" style="fill-opacity:0;stroke:#d62728;stroke-linejoin:miter"/><use xlink:href="#O" x="593.4" y="319.9" style="fill-opacity:0;stroke:#d62728;stroke-linejoin:miter"/><use xlink:href="#O" x="636.3" y="284.4" style="fill-opacity:0;stroke:#d62728;stroke-linejoin:miter"/><use xlink:href="#O" x="679.2" y="224.3" style="fill-opacity:0;stroke:#d62728;stroke-linejoin:miter"/></g><path d="m78.5 340.6 42.9-4 42.9-4.3 42.9-3.8 42.9-3.8 43-4.2 42.8-4.1 43-4.7 42.8-5.4 43-5.7 42.8-20.2 43-30.7 42.9-47.6 42.9-71.2 42.9-87.5" clip-path="url(#a)" style="fill:none;stroke-dasharray:1.5,2.475;stroke-dashoffset:0;stroke:#d62728;stroke-width:1.5"/><g clip-path="url(#a)"><use xlink:href="#O" x="78.5" y="340.6" style="fill-opacity:0;stroke:#d62728;stroke-linejoin:miter"/><use xlink:href="#O" x="121.4" y="336.7" style="fill-opacity:0;stroke:#d62728;stroke-linejoin:miter"/><use xlink:href="#O" x="164.3" y="332.3" style="fill-opacity:0;stroke:#d62728;stroke-linejoin:miter"/><use xlink:href="#O" x="207.2" y="328.5" style="fill-opacity:0;stroke:#d62728;stroke-linejoin:miter"/><use xlink:href="#O" x="250.1" y="324.7" style="fill-opacity:0;stroke:#d62728;stroke-linejoin:miter"/><use xlink:href="#O" x="293" y="320.5" style="fill-opacity:0;stroke:#d62728;stroke-linejoin:miter"/><use xlink:href="#O" x="335.9" y="316.4" style="fill-opacity:0;stroke:#d62728;stroke-linejoin:miter"/><use xlink:href="#O" x="378.8" y="311.7" style="fill-opacity:0;stroke:#d62728;stroke-linejoin:miter"/><use xlink:href="#O" x="421.7" y="306.3" style="fill-opacity:0;stroke:#d62728;stroke-linejoin:miter"/><use xlink:href="#O" x="464.6" y="300.6" style="fill-opacity:0;stroke:#d62728;stroke-linejoin:miter"/><use xlink:href="#O" x="507.5" y="280.4" style="fill-opacity:0;stroke:#d62728;stroke-linejoin:miter"/><use xlink:href="#O" x="550.4" y="249.7" style="fill-opacity:0;stroke:#d62728;stroke-linejoin:miter"/><use xlink:href="#O" x="593.4" y="202.1" style="fill-opacity:0;stroke:#d62728;stroke-linejoin:miter"/><use xlink:href="#O" x="636.3" y="130.9" style="fill-opacity:0;stroke:#d62728;stroke-linejoin:miter"/><use xlink:href="#O" x="679.2" y="43.4" style="fill-opacity:0;stroke:#d62728;stroke-linejoin:miter"/></g><path d="M48.4 389.3V27m660.8 362.3V27M48.4 389.3h660.8M48.4 26.9h660.8" style="fill:none;stroke:#000;stroke-width:.8;stroke-linejoin:miter;stroke-linecap:square"/><g transform="matrix(.12 0 0 -.12 302.4 20.9)"><defs><path id="P" d="M191 3500h609L1894 563l1094 2937h609L2284 0h-781z" transform="scale(.01563)"/></defs><use xlink:href="#v"/><use xlink:href="#r" transform="translate(68.6)"/><use xlink:href="#q" transform="translate(127.8)"/><use xlink:href="#w" transform="translate(167)"/><use xlink:href="#x" transform="translate(228.5)"/><use xlink:href="#y" transform="translate(312.4)"/><use xlink:href="#w" transform="translate(375.9)"/><use xlink:href="#z" transform="translate(437.4)"/><use xlink:href="#A" transform="translate(510.3)"/><use xlink:href="#p" transform="translate(568.4)"/><use xlink:href="#B" transform="translate(596.1)"/><use xlink:href="#w" transform="translate(652.2)"/><use xlink:href="#o" transform="translate(713.7)"/><use xlink:href="#P" transform="translate(773.3)"/><use xlink:href="#x" transform="translate(832.5)"/><use xlink:href="#l" transform="translate(916.4)"/><use xlink:href="#m" transform="translate(995)"/><use xlink:href="#n" transform="translate(1058.4)"/><use xlink:href="#o" transform="translate(1119.7)"/><use xlink:href="#p" transform="translate(1147.5)"/><use xlink:href="#q" transform="translate(1175.3)"/><use xlink:href="#r" transform="translate(1214.5)"/></g><path d="M54 103.7h218q1.7 0 1.7-1.6V32.5q0-1.6-1.6-1.6H54q-1.7 0-1.7 1.6V102q0 1.6 1.6 1.6z" style="fill:#fff;opacity:.8;stroke:#ccc;stroke-linejoin:miter"/><path d="M55.6 37.4h16" style="fill:none;stroke:#1f77b4;stroke-width:1.5;stroke-linecap:square"/><use xlink:href="#H" x="63.6" y="37.4" style="fill:#1f77b4;stroke:#1f77b4"/><g transform="matrix(.08 0 0 -.08 78 40.2)"><defs><path id="Q" d="M2375 4863v-479h-550q-309 0-430-125-120-125-120-450v-309h947v-447h-947V0H697v3053H147v447h550v244q0 584 272 851 272 268 862 268z" transform="scale(.01563)"/><path id="R" d="M3328 2828q216 388 516 572t706 184q547 0 844-383 297-382 297-1088V0h-578v2094q0 503-179 746-178 244-543 244-447 0-707-297-259-296-259-809V0h-578v2094q0 506-178 748t-550 242q-441 0-701-298-259-298-259-808V0H581v3500h578v-544q197 322 472 475t653 153q382 0 649-194 267-193 395-562" transform="scale(.01563)"/><path id="S" d="M3513 2113V0h-575v2094q0 497-194 743-194 247-581 247-466 0-735-297-269-296-269-809V0H581v3500h578v-544q207 316 486 472 280 156 646 156 603 0 912-373 310-373 310-1098" transform="scale(.01563)"/></defs><use xlink:href="#n"/><use xlink:href="#P" transform="translate(61.3)"/><use xlink:href="#p" transform="translate(120.5)"/><use xlink:href="#Q" transform="translate(148.2)"/><use xlink:href="#C" transform="translate(215.2)"/><use xlink:href="#R" transform="translate(254.2)"/><use xlink:href="#w" transform="translate(351.7)"/><use xlink:href="#n" transform="translate(413.2)"/><use xlink:href="#S" transform="translate(474.5)"/><use xlink:href="#G" transform="translate(537.8)"/></g><path d="M55.6 49.1h16" style="fill:none;stroke-dasharray:5.55,2.4;stroke-dashoffset:0;stroke:#1f77b4;stroke-width:1.5"/><use xlink:href="#I" x="63.6" y="49.1" style="fill-opacity:0;stroke:#1f77b4"/><g transform="matrix(.08 0 0 -.08 78 51.9)"><defs><path id="T" d="M4653 2053q-272 0-427-231-154-231-154-644 0-406 154-639 155-233 427-233 266 0 420 233 155 233 155 639 0 410-155 642-154 233-420 233m0 397q494 0 784-344 291-343 291-928 0-584-292-927-292-342-783-342-500 0-791 342-290 343-290 927 0 588 292 930t789 342M1428 4353q-269 0-424-233-154-232-154-639 0-412 153-644 153-231 425-231t426 231q155 232 155 644 0 403-156 637-156 235-425 235m2822 397h500L1831-91h-500zm-2822 0q494 0 787-342 294-342 294-927 0-590-292-931t-789-341-786 342q-289 343-289 930 0 582 290 925 291 344 785 344" transform="scale(.01563)"/></defs><use xlink:href="#n"/><use xlink:href="#P" transform="translate(61.3)"/><use xlink:href="#p" transform="translate(120.5)"/><use xlink:href="#Q" transform="translate(148.2)"/><use xlink:href="#C" transform="translate(215.2)"/><use xlink:href="#f" transform="translate(254.2)"/><use xlink:href="#T" transform="translate(317.9)"/><use xlink:href="#x" transform="translate(444.7)"/><use xlink:href="#R" transform="translate(496.8)"/><use xlink:href="#n" transform="translate(594.2)"/><use xlink:href="#o" transform="translate(655.5)"/><use xlink:href="#o" transform="translate(683.3)"/><use xlink:href="#w" transform="translate(711)"/><use xlink:href="#x" transform="translate(772.6)"/><use xlink:href="#q" transform="translate(824.7)"/><use xlink:href="#G" transform="translate(863.9)"/></g><path d="M55.6 60.8h16" style="fill:none;stroke-dasharray:1.5,2.475;stroke-dashoffset:0;stroke:#1f77b4;stroke-width:1.5"/><use xlink:href="#I" x="63.6" y="60.8" style="fill-opacity:0;stroke:#1f77b4"/><g transform="matrix(.08 0 0 -.08 78 63.6)"><defs><path id="U" d="M2906 1791q0 625-258 968-257 344-723 344-462 0-720-344-258-343-258-968 0-622 258-966t720-344q466 0 723 344 258 344 258 966m575-1357q0-893-397-1329-396-436-1215-436-303 0-572 45t-522 139v559q253-137 500-202 247-66 503-66 566 0 847 295t281 892v285q-178-310-456-463T1784 0Q1141 0 747 490 353 981 353 1791q0 812 394 1302 394 491 1037 491 388 0 666-153t456-462v531h575z" transform="scale(.01563)"/></defs><use xlink:href="#n"/><use xlink:href="#P" transform="translate(61.3)"/><use xlink:href="#p" transform="translate(120.5)"/><use xlink:href="#Q" transform="translate(148.2)"/><use xlink:href="#C" transform="translate(215.2)"/><use xlink:href="#j" transform="translate(254.2)"/><use xlink:href="#f" transform="translate(317.9)"/><use xlink:href="#T" transform="translate(381.5)"/><use xlink:href="#o" transform="translate(508.3)"/><use xlink:href="#n" transform="translate(536)"/><use xlink:href="#z" transform="translate(597.4)"/><use xlink:href="#U" transform="translate(636.7)"/><use xlink:href="#w" transform="translate(700.2)"/><use xlink:href="#x" transform="translate(761.7)"/><use xlink:href="#q" transform="translate(813.8)"/><use xlink:href="#G" transform="translate(853)"/></g><path d="M55.6 72.6h16" style="fill:none;stroke:#ff7f0e;stroke-width:1.5;stroke-linecap:square"/><use xlink:href="#J" x="63.6" y="72.6" style="fill:#ff7f0e;stroke:#ff7f0e;stroke-linejoin:miter"/><g transform="matrix(.08 0 0 -.08 78 75.4)"><defs><path id="V" d="M603 3500h575V-63q0-668-255-968-254-300-820-300h-219v487H38q328 0 446 152Q603-541 603-63zm0 1363h575v-729H603z" transform="scale(.01563)"/></defs><use xlink:href="#V"/><use xlink:href="#y" transform="translate(27.8)"/><use xlink:href="#w" transform="translate(91.3)"/><use xlink:href="#U" transform="translate(152.8)"/><use xlink:href="#C" transform="translate(248)"/><use xlink:href="#R" transform="translate(287)"/><use xlink:href="#w" transform="translate(384.5)"/><use xlink:href="#n" transform="translate(446)"/><use xlink:href="#S" transform="translate(507.3)"/><use xlink:href="#G" transform="translate(570.7)"/></g><path d="M55.6 84.3h16" style="fill:none;stroke-dasharray:5.55,2.4;stroke-dashoffset:0;stroke:#ff7f0e;stroke-width:1.5"/><use xlink:href="#K" x="63.6" y="84.3" style="fill-opacity:0;stroke:#ff7f0e;stroke-linejoin:miter"/><g transform="matrix(.08 0 0 -.08 78 87.1)"><use xlink:href="#V"/><use xlink:href="#y" transform="translate(27.8)"/><use xlink:href="#w" transform="translate(91.3)"/><use xlink:href="#U" transform="translate(152.8)"/><use xlink:href="#C" transform="translate(248)"/><use xlink:href="#f" transform="translate(287)"/><use xlink:href="#T" transform="translate(350.7)"/><use xlink:href="#x" transform="translate(477.5)"/><use xlink:href="#R" transform="translate(529.6)"/><use xlink:href="#n" transform="translate(627)"/><use xlink:href="#o" transform="translate(688.3)"/><use xlink:href="#o" transform="translate(716)"/><use xlink:href="#w" transform="translate(743.8)"/><use xlink:href="#x" transform="translate(805.4)"/><use xlink:href="#q" transform="translate(857.5)"/><use xlink:href="#G" transform="translate(896.7)"/></g><path d="M55.6 96h16" style="fill:none;stroke-dasharray:1.5,2.475;stroke-dashoffset:0;stroke:#ff7f0e;stroke-width:1.5"/><use xlink:href="#K" x="63.6" y="96.1" style="fill-opacity:0;stroke:#ff7f0e;stroke-linejoin:miter"/><g transform="matrix(.08 0 0 -.08 78 98.9)"><use xlink:href="#V"/><use xlink:href="#y" transform="translate(27.8)"/><use xlink:href="#w" transform="translate(91.3)"/><use xlink:href="#U" transform="translate(152.8)"/><use xlink:href="#C" transform="translate(248)"/><use xlink:href="#j" transform="translate(287)"/><use xlink:href="#f" transform="translate(350.7)"/><use xlink:href="#T" transform="translate(414.3)"/><use xlink:href="#o" transform="translate(541.1)"/><use xlink:href="#n" transform="translate(568.9)"/><use xlink:href="#z" transform="translate(630.2)"/><use xlink:href="#U" transform="translate(669.5)"/><use xlink:href="#w" transform="translate(733)"/><use xlink:href="#x" transform="translate(794.5)"/><use xlink:href="#q" transform="translate(846.6)"/><use xlink:href="#G" transform="translate(885.8)"/></g><path d="M168.9 37.4h16" style="fill:none;stroke:#2ca02c;stroke-width:1.5;stroke-linecap:square"/><use xlink:href="#L" x="176.9" y="37.4" style="fill:#2ca02c;stroke:#2ca02c;stroke-linejoin:miter"/><g transform="matrix(.08 0 0 -.08 191.3 40.2)"><use xlink:href="#V"/><use xlink:href="#B" transform="translate(27.8)"/><use xlink:href="#o" transform="translate(87)"/><use xlink:href="#C" transform="translate(146.5)"/><use xlink:href="#R" transform="translate(185.5)"/><use xlink:href="#w" transform="translate(283)"/><use xlink:href="#n" transform="translate(344.5)"/><use xlink:href="#S" transform="translate(405.8)"/><use xlink:href="#G" transform="translate(469.1)"/></g><path d="M168.9 49.1h16" style="fill:none;stroke-dasharray:5.55,2.4;stroke-dashoffset:0;stroke:#2ca02c;stroke-width:1.5"/><use xlink:href="#M" x="176.9" y="49.1" style="fill-opacity:0;stroke:#2ca02c;stroke-linejoin:miter"/><g transform="matrix(.08 0 0 -.08 191.3 51.9)"><use xlink:href="#V"/><use xlink:href="#B" transform="translate(27.8)"/><use xlink:href="#o" transform="translate(87)"/><use xlink:href="#C" transform="translate(146.5)"/><use xlink:href="#f" transform="translate(185.5)"/><use xlink:href="#T" transform="translate(249.2)"/><use xlink:href="#x" transform="translate(376)"/><use xlink:href="#R" transform="translate(428)"/><use xlink:href="#n" transform="translate(525.5)"/><use xlink:href="#o" transform="translate(586.8)"/><use xlink:href="#o" transform="translate(614.6)"/><use xlink:href="#w" transform="translate(642.3)"/><use xlink:href="#x" transform="translate(703.9)"/><use xlink:href="#q" transform="translate(756)"/><use xlink:href="#G" transform="translate(795.2)"/></g><path d="M168.9 60.8h16" style="fill:none;stroke-dasharray:1.5,2.475;stroke-dashoffset:0;stroke:#2ca02c;stroke-width:1.5"/><use xlink:href="#M" x="176.9" y="60.8" style="fill-opacity:0;stroke:#2ca02c;stroke-linejoin:miter"/><g transform="matrix(.08 0 0 -.08 191.3 63.6)"><use xlink:href="#V"/><use xlink:href="#B" transform="translate(27.8)"/><use xlink:href="#o" transform="translate(87)"/><use xlink:href="#C" transform="translate(146.5)"/><use xlink:href="#j" transform="translate(185.5)"/><use xlink:href="#f" transform="translate(249.2)"/><use xlink:href="#T" transform="translate(312.8)"/><use xlink:href="#o" transform="translate(439.6)"/><use xlink:href="#n" transform="translate(467.4)"/><use xlink:href="#z" transform="translate(528.7)"/><use xlink:href="#U" transform="translate(568)"/><use xlink:href="#w" transform="translate(631.5)"/><use xlink:href="#x" transform="translate(693)"/><use xlink:href="#q" transform="translate(745.1)"/><use xlink:href="#G" transform="translate(784.3)"/></g><path d="M168.9 72.6h16" style="fill:none;stroke:#d62728;stroke-width:1.5;stroke-linecap:square"/><use xlink:href="#N" x="176.9" y="72.6" style="fill:#d62728;stroke:#d62728;stroke-linejoin:miter"/><g transform="matrix(.08 0 0 -.08 191.3 75.4)"><use xlink:href="#E"/><use xlink:href="#w" transform="translate(81.8)"/><use xlink:href="#F" transform="translate(143.3)"/><use xlink:href="#y" transform="translate(206.8)"/><use xlink:href="#C" transform="translate(302)"/><use xlink:href="#R" transform="translate(341)"/><use xlink:href="#w" transform="translate(438.5)"/><use xlink:href="#n" transform="translate(500)"/><use xlink:href="#S" transform="translate(561.3)"/><use xlink:href="#G" transform="translate(624.7)"/></g><path d="M168.9 84.3h16" style="fill:none;stroke-dasharray:5.55,2.4;stroke-dashoffset:0;stroke:#d62728;stroke-width:1.5"/><use xlink:href="#O" x="176.9" y="84.3" style="fill-opacity:0;stroke:#d62728;stroke-linejoin:miter"/><g transform="matrix(.08 0 0 -.08 191.3 87.1)"><use xlink:href="#E"/><use xlink:href="#w" transform="translate(81.8)"/><use xlink:href="#F" transform="translate(143.3)"/><use xlink:href="#y" transform="translate(206.8)"/><use xlink:href="#C" transform="translate(302)"/><use xlink:href="#f" transform="translate(341)"/><use xlink:href="#T" transform="translate(404.7)"/><use xlink:href="#x" transform="translate(531.5)"/><use xlink:href="#R" transform="translate(583.6)"/><use xlink:href="#n" transform="translate(681)"/><use xlink:href="#o" transform="translate(742.3)"/><use xlink:href="#o" transform="translate(770)"/><use xlink:href="#w" transform="translate(797.9)"/><use xlink:href="#x" transform="translate(859.4)"/><use xlink:href="#q" transform="translate(911.5)"/><use xlink:href="#G" transform="translate(950.7)"/></g><path d="M168.9 96h16" style="fill:none;stroke-dasharray:1.5,2.475;stroke-dashoffset:0;stroke:#d62728;stroke-width:1.5"/><use xlink:href="#O" x="176.9" y="96.1" style="fill-opacity:0;stroke:#d62728;stroke-linejoin:miter"/><g transform="matrix(.08 0 0 -.08 191.3 98.9)"><use xlink:href="#E"/><use xlink:href="#w" transform="translate(81.8)"/><use xlink:href="#F" transform="translate(143.3)"/><use xlink:href="#y" transform="translate(206.8)"/><use xlink:href="#C" transform="translate(302)"/><use xlink:href="#j" transform="translate(341)"/><use xlink:href="#f" transform="translate(404.7)"/><use xlink:href="#T" transform="translate(468.3)"/><use xlink:href="#o" transform="translate(595.1)"/><use xlink:href="#n" transform="translate(622.9)"/><use xlink:href="#z" transform="translate(684.2)"/><use xlink:href="#U" transform="translate(723.5)"/><use xlink:href="#w" transform="translate(787)"/><use xlink:href="#x" transform="translate(848.5)"/><use xlink:href="#q" transform="translate(900.6)"/><use xlink:href="#G" transform="translate(939.9)"/></g><defs><clipPath id="a"><path d="M48.4 26.9h660.8v362.4H48.4z"/></clipPath></defs></svg>