<svg xmlns="http://www.w3.org/2000/svg" xmlns:xlink="http://www.w3.org/1999/xlink" width="960" height="576" viewBox="0 0 720 432"><path d="M0 432h720V0H0z" style="fill:#fff"/><path d="M39 389.3h670.2V27H39z" style="fill:#fff"/><path d="M116 389.3V27" clip-path="url(#a)" style="fill:none;stroke:#b0b0b0;stroke-opacity:.3;stroke-width:.8;stroke-linecap:square"/><defs><path id="b" d="M0 0v3.5" style="stroke:#000;stroke-width:.8"/></defs><use xlink:href="#b" x="116" y="389.3" style="stroke:#000;stroke-width:.8"/><g transform="matrix(.1 0 0 -.1 108 404)"><defs><path id="c" d="M2034 4250q-487 0-733-480-245-479-245-1442 0-959 245-1439 246-480 733-480 491 0 736 480 246 480 246 1439 0 963-246 1442-245 480-736 480m0 500q785 0 1199-621 414-620 414-1801 0-1178-414-1799Q2819-91 2034-91q-784 0-1198 620-414 621-414 1799 0 1181 414 1801 414 621 1198 621" transform="scale(.01563)"/><path id="d" d="M684 794h660V0H684z" transform="scale(.01563)"/><path id="e" d="M691 4666h2478v-532H1269V2991q137 47 274 70 138 23 276 23 781 0 1237-428 457-428 457-1159 0-753-469-1171Q2575-91 1722-91q-294 0-599 50Q819 9 494 109v635q281-153 581-228t634-75q541 0 856 284 316 284 316 772 0 487-316 771-315 285-856 285-253 0-505-56-251-56-513-175z" transform="scale(.01563)"/></defs><use xlink:href="#c"/><use xlink:href="#d" transform="translate(63.6)"/><use xlink:href="#e" transform="translate(95.4)"/></g><path d="M216.7 389.3V27" clip-path="url(#a)" style="fill:none;stroke:#b0b0b0;stroke-opacity:.3;stroke-width:.8;stroke-linecap:square"/><use xlink:href="#b" x="216.7" y="389.3" style="stroke:#000;stroke-width:.8"/><g transform="matrix(.1 0 0 -.1 208.8 404)"><defs><path id="f" d="M794 531h1031v3560L703 3866v575l1116 225h631V531h1031V0H794z" transform="scale(.01563)"/></defs><use xlink:href="#f"/><use xlink:href="#d" transform="translate(63.6)"/><use xlink:href="#c" transform="translate(95.4)"/></g><path d="M317.4 389.3V27" clip-path="url(#a)" style="fill:none;stroke:#b0b0b0;stroke-opacity:.3;stroke-width:.8;stroke-linecap:square"/><use xlink:href="#b" x="317.4" y="389.3" style="stroke:#000;stroke-width:.8"/><g transform="matrix(.1 0 0 -.1 309.5 404)"><use xlink:href="#f"/><use xlink:href="#d" transform="translate(63.6)"/><use xlink:href="#e" transform="translate(95.4)"/></g><path d="M418.2 389.3V27" clip-path="url(#a)" style="fill:none;stroke:#b0b0b0;stroke-opacity:.3;stroke-width:.8;stroke-linecap:square"/><use xlink:href="#b" x="418.2" y="389.3" style="stroke:#000;stroke-width:.8"/><g transform="matrix(.1 0 0 -.1 410.2 404)"><defs><path id="g" d="M1228 531h2203V0H469v531q359 372 979 998 621 627 780 809 303 340 423 576 121 236 121 464 0 372-261 606-261 235-680 235-297 0-627-103-329-103-704-313v638q381 153 712 231 332 78 607 78 725 0 1156-363 431-362 431-968 0-288-108-546-107-257-392-607-78-91-497-524-418-433-1181-1211" transform="scale(.01563)"/></defs><use xlink:href="#g"/><use xlink:href="#d" transform="translate(63.6)"/><use xlink:href="#c" transform="translate(95.4)"/></g><path d="M518.9 389.3V27" clip-path="url(#a)" style="fill:none;stroke:#b0b0b0;stroke-opacity:.3;stroke-width:.8;stroke-linecap:square"/><use xlink:href="#b" x="518.9" y="389.3" style="stroke:#000;stroke-width:.8"/><g transform="matrix(.1 0 0 -.1 511 404)"><use xlink:href="#g"/><use xlink:href="#d" transform="translate(63.6)"/><use xlink:href="#e" transform="translate(95.4)"/></g><path d="M619.6 389.3V27" clip-path="url(#a)" style="fill:none;stroke:#b0b0b0;stroke-opacity:.3;stroke-width:.8;stroke-linecap:square"/><use xlink:href="#b" x="619.6" y="389.3" style="stroke:#000;stroke-width:.8"/><g transform="matrix(.1 0 0 -.1 611.6 404)"><defs><path id="h" d="M2597 2516q453-97 707-404 255-306 255-756 0-690-475-1069Q2609-91 1734-91q-293 0-604 58T488 141v609q262-153 574-231 313-78 654-78 593 0 904 234t311 681q0 413-289 645-289 233-804 233h-544v519h569q465 0 712 186t247 536q0 359-255 551-254 193-729 193-260 0-557-57-297-56-653-174v562q360 100 674 150t592 50q719 0 1137-327 419-326 419-882 0-388-222-655t-631-370" transform="scale(.01563)"/></defs><use xlink:href="#h"/><use xlink:href="#d" transform="translate(63.6)"/><use xlink:href="#c" transform="translate(95.4)"/></g><g transform="matrix(.11 0 0 -.11 278.7 418.4)"><defs><path id="i" d="M1259 2228V519h1013q509 0 754 211 246 211 246 645 0 438-246 645-245 208-754 208zm0 1919V2741h935q462 0 688 173 227 174 227 530 0 353-227 528-226 175-688 175zm-631 519h1613q722 0 1112-300 391-300 391-853 0-429-200-682t-588-315q466-100 724-418 258-317 258-792 0-625-425-966Q3088 0 2303 0H628z" transform="scale(.01563)"/><path id="j" d="M603 3500h575V0H603zm0 1363h575v-729H603z" transform="scale(.01563)"/><path id="k" d="M1172 4494v-994h1184v-447H1172V1153q0-428 117-550t477-122h590V0h-590q-666 0-919 248-253 249-253 905v1900H172v447h422v994z" transform="scale(.01563)"/><path id="l" d="M2834 3397v-544q-243 125-506 187-262 63-544 63-428 0-642-131t-214-394q0-200 153-314t616-217l197-44q612-131 870-370t258-667q0-488-386-773Q2250-91 1575-91q-281 0-586 55T347 128v594q319-166 628-249 309-82 613-82 406 0 624 139 219 139 219 392 0 234-158 359-157 125-692 241l-200 47q-534 112-772 345-237 233-237 639 0 494 350 762 350 269 994 269 318 0 599-47 282-46 519-140" transform="scale(.01563)"/><path id="m" d="M1159 525v-1856H581v4831h578v-531q182 312 458 463 277 152 661 152 638 0 1036-506 399-506 399-1331T3314 415Q2916-91 2278-91q-384 0-661 152-276 152-458 464m1957 1222q0 634-261 995t-717 361q-457 0-718-361t-261-995 261-995 718-361q456 0 717 361t261 995" transform="scale(.01563)"/><path id="n" d="M3597 1894v-281H953q38-594 358-905t892-311q331 0 642 81t618 244V178Q3153 47 2828-22t-659-69q-838 0-1327 487-489 488-489 1320 0 859 464 1363 464 505 1252 505 706 0 1117-455 411-454 411-1235m-575 169q-6 471-264 752-258 282-683 282-481 0-770-272t-333-766z" transform="scale(.01563)"/><path id="o" d="M2631 2963q-97 56-211 82-114 27-251 27-488 0-749-317t-261-911V0H581v3500h578v-544q182 319 472 473 291 155 707 155 59 0 131-8 72-7 159-23z" transform="scale(.01563)"/><path id="p" d="M1259 4147V2394h794q441 0 681 228 241 228 241 650 0 419-241 647-240 228-681 228zm-631 519h1425q785 0 1186-355 402-355 402-1039 0-691-402-1044-401-353-1186-353h-794V0H628z" transform="scale(.01563)"/><path id="q" d="M3513 3500 2247 1797 3578 0h-678L1881 1375 863 0H184l1360 1831L300 3500h678l928-1247 928 1247z" transform="scale(.01563)"/><path id="r" d="M603 4863h575V0H603z" transform="scale(.01563)"/><path id="s" d="M1984 4856q-418-718-622-1422-203-703-203-1425 0-721 205-1429t620-1424h-500Q1016-109 783 600T550 2009q0 697 231 1403 232 707 703 1444z" transform="scale(.01563)"/><path id="t" d="M750 794h659V256L897-744H494L750 256z" transform="scale(.01563)"/><path id="u" d="M1959 3097q-462 0-731-361t-269-989 267-989q268-361 733-361 460 0 728 362 269 363 269 988 0 622-269 986-268 364-728 364m0 487q750 0 1178-488 429-487 429-1349 0-859-429-1349Q2709-91 1959-91q-753 0-1180 489-426 490-426 1349 0 862 426 1349 427 488 1180 488" transform="scale(.01563)"/><path id="v" d="M269 3500h575l719-2731 715 2731h678l719-2731 716 2731h575L4050 0h-678l-753 2869L1863 0h-679z" transform="scale(.01563)"/><path id="w" d="M3116 1747q0 634-261 995t-717 361q-457 0-718-361t-261-995 261-995 718-361q456 0 717 361t261 995M1159 2969q182 312 458 463 277 152 661 152 638 0 1036-506 399-506 399-1331T3314 415Q2916-91 2278-91q-384 0-661 152-276 152-458 464V0H581v4863h578z" transform="scale(.01563)"/><path id="x" d="M513 4856h500q468-737 701-1444 233-706 233-1403 0-700-233-1409T1013-844H513q415 716 620 1424t205 1429q0 722-205 1425-205 704-620 1422" transform="scale(.01563)"/></defs><use xlink:href="#i"/><use xlink:href="#j" transform="translate(68.6)"/><use xlink:href="#k" transform="translate(96.4)"/><use xlink:href="#l" transform="translate(135.6)"/><use xlink:href="#m" transform="translate(219.5)"/><use xlink:href="#n" transform="translate(283)"/><use xlink:href="#o" transform="translate(344.5)"/><use xlink:href="#p" transform="translate(417.4)"/><use xlink:href="#j" transform="translate(475.4)"/><use xlink:href="#q" transform="translate(503.2)"/><use xlink:href="#n" transform="translate(559.3)"/><use xlink:href="#r" transform="translate(620.8)"/><use xlink:href="#s" transform="translate(680.4)"/><use xlink:href="#i" transform="translate(719.4)"/><use xlink:href="#p" transform="translate(788)"/><use xlink:href="#p" transform="translate(848.3)"/><use xlink:href="#t" transform="translate(908.6)"/><use xlink:href="#r" transform="translate(972.2)"/><use xlink:href="#u" transform="translate(1000)"/><use xlink:href="#v" transform="translate(1061.1)"/><use xlink:href="#n" transform="translate(1143)"/><use xlink:href="#o" transform="translate(1204.4)"/><use xlink:href="#j" transform="translate(1277.3)"/><use xlink:href="#l" transform="translate(1305.1)"/><use xlink:href="#w" transform="translate(1389)"/><use xlink:href="#n" transform="translate(1452.5)"/><use xlink:href="#k" transform="translate(1514)"/><use xlink:href="#k" transform="translate(1553.2)"/><use xlink:href="#n" transform="translate(1592.4)"/><use xlink:href="#o" transform="translate(1654)"/><use xlink:href="#x" transform="translate(1695)"/></g><path d="M39 325.6h670.2" clip-path="url(#a)" style="fill:none;stroke:#b0b0b0;stroke-opacity:.3;stroke-width:.8;stroke-linecap:square"/><defs><path id="y" d="M0 0h-3.5" style="stroke:#000;stroke-width:.8"/></defs><use xlink:href="#y" x="39" y="325.6" style="stroke:#000;stroke-width:.8"/><use xlink:href="#g" transform="matrix(.1 0 0 -.1 25.6 329.4)"/><path d="M39 248.6h670.2" clip-path="url(#a)" style="fill:none;stroke:#b0b0b0;stroke-opacity:.3;stroke-width:.8;stroke-linecap:square"/><use xlink:href="#y" x="39" y="248.6" style="stroke:#000;stroke-width:.8"/><g transform="matrix(.1 0 0 -.1 25.6 252.4)"><defs><path id="z" d="M2419 4116 825 1625h1594zm-166 550h794V1625h666v-525h-666V0h-628v1100H313v609z" transform="scale(.01563)"/></defs><use xlink:href="#z"/></g><path d="M39 171.5h670.2" clip-path="url(#a)" style="fill:none;stroke:#b0b0b0;stroke-opacity:.3;stroke-width:.8;stroke-linecap:square"/><use xlink:href="#y" x="39" y="171.5" style="stroke:#000;stroke-width:.8"/><g transform="matrix(.1 0 0 -.1 25.6 175.3)"><defs><path id="A" d="M2113 2584q-425 0-674-291-248-290-248-796 0-503 248-796 249-292 674-292t673 292q248 293 248 796 0 506-248 796-248 291-673 291m1253 1979v-575q-238 112-480 171-242 60-480 60-625 0-955-422-329-422-376-1275 184 272 462 417 279 145 613 145 703 0 1111-427 408-426 408-1160 0-719-425-1154Q2819-91 2113-91q-810 0-1238 620-428 621-428 1799 0 1106 525 1764t1409 658q238 0 480-47t505-140" transform="scale(.01563)"/></defs><use xlink:href="#A"/></g><path d="M39 94.5h670.2" clip-path="url(#a)" style="fill:none;stroke:#b0b0b0;stroke-opacity:.3;stroke-width:.8;stroke-linecap:square"/><use xlink:href="#y" x="39" y="94.5" style="stroke:#000;stroke-width:.8"/><g transform="matrix(.1 0 0 -.1 25.6 98.3)"><defs><path id="B" d="M2034 2216q-450 0-708-241-257-241-257-662 0-422 257-663 258-241 708-241t709 242q260 243 260 662 0 421-258 662-257 241-711 241m-631 268q-406 100-633 378-226 279-226 679 0 559 398 884 399 325 1092 325 697 0 1094-325t397-884q0-400-227-679-226-278-629-378 456-106 710-416 255-309 255-755 0-679-414-1042Q2806-91 2034-91q-771 0-1186 362-414 363-414 1042 0 446 256 755 257 310 713 416m-231 997q0-362 226-565 227-203 636-203 407 0 636 203 230 203 230 565 0 363-230 566-229 203-636 203-409 0-636-203-226-203-226-566" transform="scale(.01563)"/></defs><use xlink:href="#B"/></g><g transform="matrix(0 -.11 -.11 0 19.3 292.1)"><defs><path id="C" d="M556 4666h635V1831q0-750 271-1080 272-329 882-329 606 0 878 329 272 330 272 1080v2835h634V1753q0-912-452-1378Q3225-91 2344-91q-885 0-1337 466-451 466-451 1378z" transform="scale(.01563)"/><path id="D" d="M-19 4666h3947v-532H2272V0h-634v4134H-19z" transform="scale(.01563)"/><path id="E" d="M628 4666h2950v-532H1259V2753h2222v-531H1259V531h2375V0H628z" transform="scale(.01563)"/><path id="F" d="M2841 2188q203-69 395-294t386-619L4263 0h-679l-596 1197q-232 469-449 622t-592 153h-688V0H628v4666h1425q800 0 1194-335 394-334 394-1009 0-441-205-732-205-290-595-402M1259 4147V2491h794q456 0 689 211t233 620-233 617-689 208z" transform="scale(.01563)"/><path id="G" d="m2188 4044-857-2322h1716zm-357 622h716L4325 0h-656l-425 1197H1141L716 0H50z" transform="scale(.01563)"/><path id="H" d="M3809 666v1253H2778v519h1656V434q-365-259-806-392-440-133-940-133-1094 0-1712 639-617 640-617 1780 0 1144 617 1783 618 639 1712 639 456 0 867-113 411-112 758-331v-672q-350 297-744 447t-828 150q-857 0-1287-478-429-478-429-1425 0-944 429-1422 430-478 1287-478 334 0 596 58 263 58 472 180" transform="scale(.01563)"/><path id="I" d="M628 4666h631V531h2272V0H628z" transform="scale(.01563)"/><path id="J" d="M628 4666h631V0H628z" transform="scale(.01563)"/></defs><use xlink:href="#i"/><use xlink:href="#C" transform="translate(68.6)"/><use xlink:href="#D" transform="translate(141.8)"/><use xlink:href="#D" transform="translate(201.1)"/><use xlink:href="#E" transform="translate(262.2)"/><use xlink:href="#F" transform="translate(325.4)"/><use xlink:href="#G" transform="translate(390.9)"/><use xlink:href="#C" transform="translate(459.3)"/><use xlink:href="#H" transform="translate(532.5)"/><use xlink:href="#I" transform="translate(610)"/><use xlink:href="#J" transform="translate(665.7)"/><use xlink:href="#s" transform="translate(727)"/><use xlink:href="#r" transform="translate(766)"/><use xlink:href="#u" transform="translate(793.8)"/><use xlink:href="#v" transform="translate(855)"/><use xlink:href="#n" transform="translate(936.7)"/><use xlink:href="#o" transform="translate(998.3)"/><use xlink:href="#j" transform="translate(1071.2)"/><use xlink:href="#l" transform="translate(1099)"/><use xlink:href="#w" transform="translate(1182.8)"/><use xlink:href="#n" transform="translate(1246.3)"/><use xlink:href="#k" transform="translate(1307.8)"/><use xlink:href="#k" transform="translate(1347)"/><use xlink:href="#n" transform="translate(1386.2)"/><use xlink:href="#o" transform="translate(1447.8)"/><use xlink:href="#x" transform="translate(1488.9)"/></g><path d="m69.5 166.3 13 19.6L98 229.3l18.2 21.3 30.6 24.5 28.6 17.4 29 15.7 27.8 8.6 34.5 7.7 49 10.8 103.4 11.3 143.8 15.2" clip-path="url(#a)" style="fill:none;stroke:#1f77b4;stroke-width:1.5;stroke-linecap:square"/><defs><path id="K" d="M0 3.5a3.5 3.5 0 1 0 0-7 3.5 3.5 0 0 0 0 7z" style="stroke:#1f77b4"/></defs><g clip-path="url(#a)"><use xlink:href="#K" x="69.5" y="166.3" style="fill:#1f77b4;stroke:#1f77b4"/><use xlink:href="#K" x="82.4" y="185.9" style="fill:#1f77b4;stroke:#1f77b4"/><use xlink:href="#K" x="98" y="229.3" style="fill:#1f77b4;stroke:#1f77b4"/><use xlink:href="#K" x="116.2" y="250.6" style="fill:#1f77b4;stroke:#1f77b4"/><use xlink:href="#K" x="146.8" y="275.1" style="fill:#1f77b4;stroke:#1f77b4"/><use xlink:href="#K" x="175.4" y="292.5" style="fill:#1f77b4;stroke:#1f77b4"/><use xlink:href="#K" x="204.3" y="308.2" style="fill:#1f77b4;stroke:#1f77b4"/><use xlink:href="#K" x="232.2" y="316.8" style="fill:#1f77b4;stroke:#1f77b4"/><use xlink:href="#K" x="266.7" y="324.5" style="fill:#1f77b4;stroke:#1f77b4"/><use xlink:href="#K" x="315.7" y="335.3" style="fill:#1f77b4;stroke:#1f77b4"/><use xlink:href="#K" x="419.1" y="346.6" style="fill:#1f77b4;stroke:#1f77b4"/><use xlink:href="#K" x="562.9" y="361.8" style="fill:#1f77b4;stroke:#1f77b4"/></g><path d="m69.5 154.3 13 .2L98 211.7l18.2 24.1 30.6 30.5 28.6 15.4 29 18.7 27.8 5.9 34.5 7 49 11.7 103.4 12.1 143.8 15.3" clip-path="url(#a)" style="fill:none;stroke-dasharray:5.55,2.4;stroke-dashoffset:0;stroke:#1f77b4;stroke-width:1.5"/><defs><path id="L" d="M0 3.5a3.5 3.5 0 1 0 0-7 3.5 3.5 0 0 0 0 7z" style="stroke:#1f77b4"/></defs><g clip-path="url(#a)"><use xlink:href="#L" x="69.5" y="154.3" style="fill-opacity:0;stroke:#1f77b4"/><use xlink:href="#L" x="82.4" y="154.5" style="fill-opacity:0;stroke:#1f77b4"/><use xlink:href="#L" x="98" y="211.7" style="fill-opacity:0;stroke:#1f77b4"/><use xlink:href="#L" x="116.2" y="235.8" style="fill-opacity:0;stroke:#1f77b4"/><use xlink:href="#L" x="146.8" y="266.3" style="fill-opacity:0;stroke:#1f77b4"/><use xlink:href="#L" x="175.4" y="281.7" style="fill-opacity:0;stroke:#1f77b4"/><use xlink:href="#L" x="204.3" y="300.4" style="fill-opacity:0;stroke:#1f77b4"/><use xlink:href="#L" x="232.2" y="306.3" style="fill-opacity:0;stroke:#1f77b4"/><use xlink:href="#L" x="266.7" y="313.3" style="fill-opacity:0;stroke:#1f77b4"/><use xlink:href="#L" x="315.7" y="325" style="fill-opacity:0;stroke:#1f77b4"/><use xlink:href="#L" x="419.1" y="337.1" style="fill-opacity:0;stroke:#1f77b4"/><use xlink:href="#L" x="562.9" y="352.4" style="fill-opacity:0;stroke:#1f77b4"/></g><path d="m127.5 148.4 11.4 26.6 9.4 5.6 10.7 22.6 9.3 1.9 9.7 19.5 12 1.8 15.3.3 18.6 2 21.4 22.7 34.3 10.2 48.4 25.6 86 9.7 189.1 23.3" clip-path="url(#a)" style="fill:none;stroke:#ff7f0e;stroke-width:1.5;stroke-linecap:square"/><defs><path id="M" d="M-3.5 3.5h7v-7h-7z" style="stroke:#ff7f0e;stroke-linejoin:miter"/></defs><g clip-path="url(#a)"><use xlink:href="#M" x="127.5" y="148.4" style="fill:#ff7f0e;stroke:#ff7f0e;stroke-linejoin:miter"/><use xlink:href="#M" x="138.9" y="175" style="fill:#ff7f0e;stroke:#ff7f0e;stroke-linejoin:miter"/><use xlink:href="#M" x="148.3" y="180.6" style="fill:#ff7f0e;stroke:#ff7f0e;stroke-linejoin:miter"/><use xlink:href="#M" x="159" y="203.2" style="fill:#ff7f0e;stroke:#ff7f0e;stroke-linejoin:miter"/><use xlink:href="#M" x="168.3" y="205.1" style="fill:#ff7f0e;stroke:#ff7f0e;stroke-linejoin:miter"/><use xlink:href="#M" x="178" y="224.6" style="fill:#ff7f0e;stroke:#ff7f0e;stroke-linejoin:miter"/><use xlink:href="#M" x="190.1" y="226.4" style="fill:#ff7f0e;stroke:#ff7f0e;stroke-linejoin:miter"/><use xlink:href="#M" x="205.3" y="226.7" style="fill:#ff7f0e;stroke:#ff7f0e;stroke-linejoin:miter"/><use xlink:href="#M" x="223.9" y="228.7" style="fill:#ff7f0e;stroke:#ff7f0e;stroke-linejoin:miter"/><use xlink:href="#M" x="245.3" y="251.4" style="fill:#ff7f0e;stroke:#ff7f0e;stroke-linejoin:miter"/><use xlink:href="#M" x="279.6" y="261.6" style="fill:#ff7f0e;stroke:#ff7f0e;stroke-linejoin:miter"/><use xlink:href="#M" x="328" y="287.2" style="fill:#ff7f0e;stroke:#ff7f0e;stroke-linejoin:miter"/><use xlink:href="#M" x="414" y="296.9" style="fill:#ff7f0e;stroke:#ff7f0e;stroke-linejoin:miter"/><use xlink:href="#M" x="603.1" y="320.2" style="fill:#ff7f0e;stroke:#ff7f0e;stroke-linejoin:miter"/></g><path d="m127.5 43.4 11.4 55.2 9.4 7.5 10.7 27 9.3 6.5 9.7 35 12-26.6 15.3 9.6 18.6-2.2 21.4 47.7 34.3-14.2 48.4 50.6 86-4.7 189.1 21.8" clip-path="url(#a)" style="fill:none;stroke-dasharray:5.55,2.4;stroke-dashoffset:0;stroke:#ff7f0e;stroke-width:1.5"/><defs><path id="N" d="M-3.5 3.5h7v-7h-7z" style="stroke:#ff7f0e;stroke-linejoin:miter"/></defs><g clip-path="url(#a)"><use xlink:href="#N" x="127.5" y="43.4" style="fill-opacity:0;stroke:#ff7f0e;stroke-linejoin:miter"/><use xlink:href="#N" x="138.9" y="98.6" style="fill-opacity:0;stroke:#ff7f0e;stroke-linejoin:miter"/><use xlink:href="#N" x="148.3" y="106.1" style="fill-opacity:0;stroke:#ff7f0e;stroke-linejoin:miter"/><use xlink:href="#N" x="159" y="133.1" style="fill-opacity:0;stroke:#ff7f0e;stroke-linejoin:miter"/><use xlink:href="#N" x="168.3" y="139.6" style="fill-opacity:0;stroke:#ff7f0e;stroke-linejoin:miter"/><use xlink:href="#N" x="178" y="174.5" style="fill-opacity:0;stroke:#ff7f0e;stroke-linejoin:miter"/><use xlink:href="#N" x="190.1" y="148" style="fill-opacity:0;stroke:#ff7f0e;stroke-linejoin:miter"/><use xlink:href="#N" x="205.3" y="157.6" style="fill-opacity:0;stroke:#ff7f0e;stroke-linejoin:miter"/><use xlink:href="#N" x="223.9" y="155.4" style="fill-opacity:0;stroke:#ff7f0e;stroke-linejoin:miter"/><use xlink:href="#N" x="245.3" y="203.1" style="fill-opacity:0;stroke:#ff7f0e;stroke-linejoin:miter"/><use xlink:href="#N" x="279.6" y="188.9" style="fill-opacity:0;stroke:#ff7f0e;stroke-linejoin:miter"/><use xlink:href="#N" x="328" y="239.5" style="fill-opacity:0;stroke:#ff7f0e;stroke-linejoin:miter"/><use xlink:href="#N" x="414" y="234.8" style="fill-opacity:0;stroke:#ff7f0e;stroke-linejoin:miter"/><use xlink:href="#N" x="603.1" y="256.6" style="fill-opacity:0;stroke:#ff7f0e;stroke-linejoin:miter"/></g><path d="m80 194.7 4.8 15.7 5.6 17.9 7.5 10.3 8 16.2 11 7.5 11.3 18.6 19.8 15.6 28.8 17.6 44.7 21.8 79.4 18.4 176 18.5" clip-path="url(#a)" style="fill:none;stroke:#2ca02c;stroke-width:1.5;stroke-linecap:square"/><defs><path id="O" d="m0-3.5-3.5 7h7z" style="stroke:#2ca02c;stroke-linejoin:miter"/></defs><g clip-path="url(#a)"><use xlink:href="#O" x="80" y="194.7" style="fill:#2ca02c;stroke:#2ca02c;stroke-linejoin:miter"/><use xlink:href="#O" x="84.8" y="210.4" style="fill:#2ca02c;stroke:#2ca02c;stroke-linejoin:miter"/><use xlink:href="#O" x="90.4" y="228.3" style="fill:#2ca02c;stroke:#2ca02c;stroke-linejoin:miter"/><use xlink:href="#O" x="97.9" y="238.6" style="fill:#2ca02c;stroke:#2ca02c;stroke-linejoin:miter"/><use xlink:href="#O" x="105.9" y="254.8" style="fill:#2ca02c;stroke:#2ca02c;stroke-linejoin:miter"/><use xlink:href="#O" x="116.9" y="262.3" style="fill:#2ca02c;stroke:#2ca02c;stroke-linejoin:miter"/><use xlink:href="#O" x="128.2" y="280.9" style="fill:#2ca02c;stroke:#2ca02c;stroke-linejoin:miter"/><use xlink:href="#O" x="148" y="296.5" style="fill:#2ca02c;stroke:#2ca02c;stroke-linejoin:miter"/><use xlink:href="#O" x="176.8" y="314.1" style="fill:#2ca02c;stroke:#2ca02c;stroke-linejoin:miter"/><use xlink:href="#O" x="221.5" y="335.9" style="fill:#2ca02c;stroke:#2ca02c;stroke-linejoin:miter"/><use xlink:href="#O" x="300.9" y="354.3" style="fill:#2ca02c;stroke:#2ca02c;stroke-linejoin:miter"/><use xlink:href="#O" x="476.9" y="372.8" style="fill:#2ca02c;stroke:#2ca02c;stroke-linejoin:miter"/></g><path d="m80 184.4 4.8 8.6 5.6 15 7.5 9.5 8 21.8 11 4.1 11.3 27 19.8 19.2 28.8 19.8 44.7 23.5L301 352l176 20.2" clip-path="url(#a)" style="fill:none;stroke-dasharray:5.55,2.4;stroke-dashoffset:0;stroke:#2ca02c;stroke-width:1.5"/><defs><path id="P" d="m0-3.5-3.5 7h7z" style="stroke:#2ca02c;stroke-linejoin:miter"/></defs><g clip-path="url(#a)"><use xlink:href="#P" x="80" y="184.4" style="fill-opacity:0;stroke:#2ca02c;stroke-linejoin:miter"/><use xlink:href="#P" x="84.8" y="193" style="fill-opacity:0;stroke:#2ca02c;stroke-linejoin:miter"/><use xlink:href="#P" x="90.4" y="208" style="fill-opacity:0;stroke:#2ca02c;stroke-linejoin:miter"/><use xlink:href="#P" x="97.9" y="217.5" style="fill-opacity:0;stroke:#2ca02c;stroke-linejoin:miter"/><use xlink:href="#P" x="105.9" y="239.3" style="fill-opacity:0;stroke:#2ca02c;stroke-linejoin:miter"/><use xlink:href="#P" x="116.9" y="243.4" style="fill-opacity:0;stroke:#2ca02c;stroke-linejoin:miter"/><use xlink:href="#P" x="128.2" y="270.4" style="fill-opacity:0;stroke:#2ca02c;stroke-linejoin:miter"/><use xlink:href="#P" x="148" y="289.6" style="fill-opacity:0;stroke:#2ca02c;stroke-linejoin:miter"/><use xlink:href="#P" x="176.8" y="309.4" style="fill-opacity:0;stroke:#2ca02c;stroke-linejoin:miter"/><use xlink:href="#P" x="221.5" y="332.9" style="fill-opacity:0;stroke:#2ca02c;stroke-linejoin:miter"/><use xlink:href="#P" x="300.9" y="352.1" style="fill-opacity:0;stroke:#2ca02c;stroke-linejoin:miter"/><use xlink:href="#P" x="476.9" y="372.3" style="fill-opacity:0;stroke:#2ca02c;stroke-linejoin:miter"/></g><path d="m89.8 139.3 6.7 14 7.6 14.2 6.7 24.1 6.6 13.6 7.3-1.6 6.7 9.7 8.6 15 8.5 6.6 9.7 16.7L193 264l51.2 20.6 86.2 18 150.4 18.9 198 4.4" clip-path="url(#a)" style="fill:none;stroke:#d62728;stroke-width:1.5;stroke-linecap:square"/><defs><path id="Q" d="m0 5 5-5-5-5-5 5z" style="stroke:#d62728;stroke-linejoin:miter"/></defs><g clip-path="url(#a)"><use xlink:href="#Q" x="89.8" y="139.3" style="fill:#d62728;stroke:#d62728;stroke-linejoin:miter"/><use xlink:href="#Q" x="96.5" y="153.3" style="fill:#d62728;stroke:#d62728;stroke-linejoin:miter"/><use xlink:href="#Q" x="104.1" y="167.5" style="fill:#d62728;stroke:#d62728;stroke-linejoin:miter"/><use xlink:href="#Q" x="110.8" y="191.6" style="fill:#d62728;stroke:#d62728;stroke-linejoin:miter"/><use xlink:href="#Q" x="117.4" y="205.2" style="fill:#d62728;stroke:#d62728;stroke-linejoin:miter"/><use xlink:href="#Q" x="124.7" y="203.6" style="fill:#d62728;stroke:#d62728;stroke-linejoin:miter"/><use xlink:href="#Q" x="131.4" y="213.3" style="fill:#d62728;stroke:#d62728;stroke-linejoin:miter"/><use xlink:href="#Q" x="140" y="228.3" style="fill:#d62728;stroke:#d62728;stroke-linejoin:miter"/><use xlink:href="#Q" x="148.5" y="234.9" style="fill:#d62728;stroke:#d62728;stroke-linejoin:miter"/><use xlink:href="#Q" x="158.2" y="251.6" style="fill:#d62728;stroke:#d62728;stroke-linejoin:miter"/><use xlink:href="#Q" x="192.9" y="263.9" style="fill:#d62728;stroke:#d62728;stroke-linejoin:miter"/><use xlink:href="#Q" x="244.1" y="284.5" style="fill:#d62728;stroke:#d62728;stroke-linejoin:miter"/><use xlink:href="#Q" x="330.3" y="302.5" style="fill:#d62728;stroke:#d62728;stroke-linejoin:miter"/><use xlink:href="#Q" x="480.7" y="321.4" style="fill:#d62728;stroke:#d62728;stroke-linejoin:miter"/><use xlink:href="#Q" x="678.7" y="325.8" style="fill:#d62728;stroke:#d62728;stroke-linejoin:miter"/></g><path d="m89.8 83.1 6.7 16.9 7.6 18.1 6.7 39.8 6.6 3.3 7.3-4.2 6.7 27.4 8.6-5.6 8.5 22.4 9.7 23.2 34.7-11.6 51.2 22 86.2 3.7 150.4 16.3 198-1.2" clip-path="url(#a)" style="fill:none;stroke-dasharray:5.55,2.4;stroke-dashoffset:0;stroke:#d62728;stroke-width:1.5"/><defs><path id="R" d="m0 5 5-5-5-5-5 5z" style="stroke:#d62728;stroke-linejoin:miter"/></defs><g clip-path="url(#a)"><use xlink:href="#R" x="89.8" y="83.1" style="fill-opacity:0;stroke:#d62728;stroke-linejoin:miter"/><use xlink:href="#R" x="96.5" y="100" style="fill-opacity:0;stroke:#d62728;stroke-linejoin:miter"/><use xlink:href="#R" x="104.1" y="118.1" style="fill-opacity:0;stroke:#d62728;stroke-linejoin:miter"/><use xlink:href="#R" x="110.8" y="157.9" style="fill-opacity:0;stroke:#d62728;stroke-linejoin:miter"/><use xlink:href="#R" x="117.4" y="161.2" style="fill-opacity:0;stroke:#d62728;stroke-linejoin:miter"/><use xlink:href="#R" x="124.7" y="157" style="fill-opacity:0;stroke:#d62728;stroke-linejoin:miter"/><use xlink:href="#R" x="131.4" y="184.4" style="fill-opacity:0;stroke:#d62728;stroke-linejoin:miter"/><use xlink:href="#R" x="140" y="178.8" style="fill-opacity:0;stroke:#d62728;stroke-linejoin:miter"/><use xlink:href="#R" x="148.5" y="201.2" style="fill-opacity:0;stroke:#d62728;stroke-linejoin:miter"/><use xlink:href="#R" x="158.2" y="224.4" style="fill-opacity:0;stroke:#d62728;stroke-linejoin:miter"/><use xlink:href="#R" x="192.9" y="212.8" style="fill-opacity:0;stroke:#d62728;stroke-linejoin:miter"/><use xlink:href="#R" x="244.1" y="234.8" style="fill-opacity:0;stroke:#d62728;stroke-linejoin:miter"/><use xlink:href="#R" x="330.3" y="238.5" style="fill-opacity:0;stroke:#d62728;stroke-linejoin:miter"/><use xlink:href="#R" x="480.7" y="254.8" style="fill-opacity:0;stroke:#d62728;stroke-linejoin:miter"/><use xlink:href="#R" x="678.7" y="253.6" style="fill-opacity:0;stroke:#d62728;stroke-linejoin:miter"/></g><path d="M39 389.3V27m670.2 362.3V27M39 389.3h670.2M39 26.9h670.2" style="fill:none;stroke:#000;stroke-width:.8;stroke-linejoin:miter;stroke-linecap:square"/><g transform="matrix(.12 0 0 -.12 283 20.9)"><defs><path id="S" d="M191 3500h609L1894 563l1094 2937h609L2284 0h-781z" transform="scale(.01563)"/></defs><use xlink:href="#i"/><use xlink:href="#C" transform="translate(68.6)"/><use xlink:href="#D" transform="translate(141.8)"/><use xlink:href="#D" transform="translate(201.1)"/><use xlink:href="#E" transform="translate(262.2)"/><use xlink:href="#F" transform="translate(325.4)"/><use xlink:href="#G" transform="translate(390.9)"/><use xlink:href="#C" transform="translate(459.3)"/><use xlink:href="#H" transform="translate(532.5)"/><use xlink:href="#I" transform="translate(610)"/><use xlink:href="#J" transform="translate(665.7)"/><use xlink:href="#S" transform="translate(727)"/><use xlink:href="#l" transform="translate(786.1)"/><use xlink:href="#i" transform="translate(870)"/><use xlink:href="#j" transform="translate(938.6)"/><use xlink:href="#k" transform="translate(966.4)"/><use xlink:href="#l" transform="translate(1005.6)"/><use xlink:href="#m" transform="translate(1089.5)"/><use xlink:href="#n" transform="translate(1153)"/><use xlink:href="#o" transform="translate(1214.5)"/><use xlink:href="#p" transform="translate(1287.4)"/><use xlink:href="#j" transform="translate(1345.5)"/><use xlink:href="#q" transform="translate(1373.3)"/><use xlink:href="#n" transform="translate(1429.3)"/><use xlink:href="#r" transform="translate(1490.8)"/></g><path d="M508.6 80.3h195q1.6 0 1.6-1.6V32.5q0-1.6-1.6-1.6h-195q-1.6 0-1.6 1.6v46.2q0 1.5 1.6 1.5z" style="fill:#fff;opacity:.8;stroke:#ccc;stroke-linejoin:miter"/><path d="M510.2 37.4h16" style="fill:none;stroke:#1f77b4;stroke-width:1.5;stroke-linecap:square"/><use xlink:href="#K" x="518.2" y="37.4" style="fill:#1f77b4;stroke:#1f77b4"/><g transform="matrix(.08 0 0 -.08 532.6 40.2)"><defs><path id="T" d="M2194 1759q-697 0-966-159t-269-544q0-306 202-486 202-179 548-179 479 0 768 339t289 901v128zm1147 238V0h-575v531q-197-318-491-470T1556-91q-537 0-855 302-317 302-317 808 0 590 395 890 396 300 1180 300h807v57q0 397-261 614t-733 217q-300 0-585-72-284-72-546-216v532q315 122 612 182 297 61 578 61 760 0 1135-394 375-393 375-1193" transform="scale(.01563)"/><path id="U" d="M2375 4863v-479h-550q-309 0-430-125-120-125-120-450v-309h947v-447h-947V0H697v3053H147v447h550v244q0 584 272 851 272 268 862 268z" transform="scale(.01563)"/><path id="V" d="M3328 2828q216 388 516 572t706 184q547 0 844-383 297-382 297-1088V0h-578v2094q0 503-179 746-178 244-543 244-447 0-707-297-259-296-259-809V0h-578v2094q0 506-178 748t-550 242q-441 0-701-298-259-298-259-808V0H581v3500h578v-544q197 322 472 475t653 153q382 0 649-194 267-193 395-562" transform="scale(.01563)"/><path id="W" d="M3513 2113V0h-575v2094q0 497-194 743-194 247-581 247-466 0-735-297-269-296-269-809V0H581v3500h578v-544q207 316 486 472 280 156 646 156 603 0 912-373 310-373 310-1098" transform="scale(.01563)"/></defs><use xlink:href="#T"/><use xlink:href="#S" transform="translate(61.3)"/><use xlink:href="#j" transform="translate(120.5)"/><use xlink:href="#U" transform="translate(148.2)"/><use xlink:href="#s" transform="translate(215.2)"/><use xlink:href="#V" transform="translate(254.2)"/><use xlink:href="#n" transform="translate(351.7)"/><use xlink:href="#T" transform="translate(413.2)"/><use xlink:href="#W" transform="translate(474.5)"/><use xlink:href="#x" transform="translate(537.8)"/></g><path d="M510.2 49.1h16" style="fill:none;stroke-dasharray:5.55,2.4;stroke-dashoffset:0;stroke:#1f77b4;stroke-width:1.5"/><use xlink:href="#L" x="518.2" y="49.1" style="fill-opacity:0;stroke:#1f77b4"/><g transform="matrix(.08 0 0 -.08 532.6 51.9)"><defs><path id="X" d="M4653 2053q-272 0-427-231-154-231-154-644 0-406 154-639 155-233 427-233 266 0 420 233 155 233 155 639 0 410-155 642-154 233-420 233m0 397q494 0 784-344 291-343 291-928 0-584-292-927-292-342-783-342-500 0-791 342-290 343-290 927 0 588 292 930t789 342M1428 4353q-269 0-424-233-154-232-154-639 0-412 153-644 153-231 425-231t426 231q155 232 155 644 0 403-156 637-156 235-425 235m2822 397h500L1831-91h-500zm-2822 0q494 0 787-342 294-342 294-927 0-590-292-931t-789-341-786 342q-289 343-289 930 0 582 290 925 291 344 785 344" transform="scale(.01563)"/></defs><use xlink:href="#T"/><use xlink:href="#S" transform="translate(61.3)"/><use xlink:href="#j" transform="translate(120.5)"/><use xlink:href="#U" transform="translate(148.2)"/><use xlink:href="#s" transform="translate(215.2)"/><use xlink:href="#e" transform="translate(254.2)"/><use xlink:href="#X" transform="translate(317.9)"/><use xlink:href="#v" transform="translate(444.7)"/><use xlink:href="#u" transform="translate(526.5)"/><use xlink:href="#o" transform="translate(587.6)"/><use xlink:href="#l" transform="translate(628.8)"/><use xlink:href="#k" transform="translate(680.9)"/><use xlink:href="#x" transform="translate(720)"/></g><path d="M510.2 60.8h16" style="fill:none;stroke:#ff7f0e;stroke-width:1.5;stroke-linecap:square"/><use xlink:href="#M" x="518.2" y="60.8" style="fill:#ff7f0e;stroke:#ff7f0e;stroke-linejoin:miter"/><g transform="matrix(.08 0 0 -.08 532.6 63.6)"><defs><path id="Y" d="M603 3500h575V-63q0-668-255-968-254-300-820-300h-219v487H38q328 0 446 152Q603-541 603-63zm0 1363h575v-729H603z" transform="scale(.01563)"/><path id="Z" d="M2906 1791q0 625-258 968-257 344-723 344-462 0-720-344-258-343-258-968 0-622 258-966t720-344q466 0 723 344 258 344 258 966m575-1357q0-893-397-1329-396-436-1215-436-303 0-572 45t-522 139v559q253-137 500-202 247-66 503-66 566 0 847 295t281 892v285q-178-310-456-463T1784 0Q1141 0 747 490 353 981 353 1791q0 812 394 1302 394 491 1037 491 388 0 666-153t456-462v531h575z" transform="scale(.01563)"/></defs><use xlink:href="#Y"/><use xlink:href="#m" transform="translate(27.8)"/><use xlink:href="#n" transform="translate(91.3)"/><use xlink:href="#Z" transform="translate(152.8)"/><use xlink:href="#s" transform="translate(248)"/><use xlink:href="#V" transform="translate(287)"/><use xlink:href="#n" transform="translate(384.5)"/><use xlink:href="#T" transform="translate(446)"/><use xlink:href="#W" transform="translate(507.3)"/><use xlink:href="#x" transform="translate(570.7)"/></g><path d="M510.2 72.6h16" style="fill:none;stroke-dasharray:5.55,2.4;stroke-dashoffset:0;stroke:#ff7f0e;stroke-width:1.5"/><use xlink:href="#N" x="518.2" y="72.6" style="fill-opacity:0;stroke:#ff7f0e;stroke-linejoin:miter"/><g transform="matrix(.08 0 0 -.08 532.6 75.4)"><use xlink:href="#Y"/><use xlink:href="#m" transform="translate(27.8)"/><use xlink:href="#n" transform="translate(91.3)"/><use xlink:href="#Z" transform="translate(152.8)"/><use xlink:href="#s" transform="translate(248)"/><use xlink:href="#e" transform="translate(287)"/><use xlink:href="#X" transform="translate(350.7)"/><use xlink:href="#v" transform="translate(477.5)"/><use xlink:href="#u" transform="translate(559.3)"/><use xlink:href="#o" transform="translate(620.5)"/><use xlink:href="#l" transform="translate(661.6)"/><use xlink:href="#k" transform="translate(713.7)"/><use xlink:href="#x" transform="translate(752.9)"/></g><path d="M612 37.4h16" style="fill:none;stroke:#2ca02c;stroke-width:1.5;stroke-linecap:square"/><use xlink:href="#O" x="619.9" y="37.4" style="fill:#2ca02c;stroke:#2ca02c;stroke-linejoin:miter"/><g transform="matrix(.08 0 0 -.08 634.3 40.2)"><use xlink:href="#Y"/><use xlink:href="#q" transform="translate(27.8)"/><use xlink:href="#r" transform="translate(87)"/><use xlink:href="#s" transform="translate(146.5)"/><use xlink:href="#V" transform="translate(185.5)"/><use xlink:href="#n" transform="translate(283)"/><use xlink:href="#T" transform="translate(344.5)"/><use xlink:href="#W" transform="translate(405.8)"/><use xlink:href="#x" transform="translate(469.1)"/></g><path d="M612 49.1h16" style="fill:none;stroke-dasharray:5.55,2.4;stroke-dashoffset:0;stroke:#2ca02c;stroke-width:1.5"/><use xlink:href="#P" x="619.9" y="49.1" style="fill-opacity:0;stroke:#2ca02c;stroke-linejoin:miter"/><g transform="matrix(.08 0 0 -.08 634.3 51.9)"><use xlink:href="#Y"/><use xlink:href="#q" transform="translate(27.8)"/><use xlink:href="#r" transform="translate(87)"/><use xlink:href="#s" transform="translate(146.5)"/><use xlink:href="#e" transform="translate(185.5)"/><use xlink:href="#X" transform="translate(249.2)"/><use xlink:href="#v" transform="translate(376)"/><use xlink:href="#u" transform="translate(457.8)"/><use xlink:href="#o" transform="translate(519)"/><use xlink:href="#l" transform="translate(560)"/><use xlink:href="#k" transform="translate(612.2)"/><use xlink:href="#x" transform="translate(651.4)"/></g><path d="M612 60.8h16" style="fill:none;stroke:#d62728;stroke-width:1.5;stroke-linecap:square"/><use xlink:href="#Q" x="619.9" y="60.8" style="fill:#d62728;stroke:#d62728;stroke-linejoin:miter"/><g transform="matrix(.08 0 0 -.08 634.3 63.6)"><use xlink:href="#v"/><use xlink:href="#n" transform="translate(81.8)"/><use xlink:href="#w" transform="translate(143.3)"/><use xlink:href="#m" transform="translate(206.8)"/><use xlink:href="#s" transform="translate(302)"/><use xlink:href="#V" transform="translate(341)"/><use xlink:href="#n" transform="translate(438.5)"/><use xlink:href="#T" transform="translate(500)"/><use xlink:href="#W" transform="translate(561.3)"/><use xlink:href="#x" transform="translate(624.7)"/></g><path d="M612 72.6h16" style="fill:none;stroke-dasharray:5.55,2.4;stroke-dashoffset:0;stroke:#d62728;stroke-width:1.5"/><use xlink:href="#R" x="619.9" y="72.6" style="fill-opacity:0;stroke:#d62728;stroke-linejoin:miter"/><g transform="matrix(.08 0 0 -.08 634.3 75.4)"><use xlink:href="#v"/><use xlink:href="#n" transform="translate(81.8)"/><use xlink:href="#w" transform="translate(143.3)"/><use xlink:href="#m" transform="translate(206.8)"/><use xlink:href="#s" transform="translate(302)"/><use xlink:href="#e" transform="translate(341)"/><use xlink:href="#X" transform="translate(404.7)"/><use xlink:href="#v" transform="translate(531.5)"/><use xlink:href="#u" transform="translate(613.3)"/><use xlink:href="#o" transform="translate(674.5)"/><use xlink:href="#l" transform="translate(715.6)"/><use xlink:href="#k" transform="translate(767.7)"/><use xlink:href="#x" transform="translate(806.9)"/></g><defs><clipPath id="a"><path d="M39 26.9h670.2v362.4H39z"/></clipPath></defs></svg>