<?xml version="1.0" encoding="utf-8" standalone="no"?>
<!DOCTYPE svg PUBLIC "-//W3C//DTD SVG 1.1//EN"
  "http://www.w3.org/Graphics/SVG/1.1/DTD/svg11.dtd">
<svg xmlns:xlink="http://www.w3.org/1999/xlink" width="720pt" height="432pt" viewBox="0 0 720 432" xmlns="http://www.w3.org/2000/svg" version="1.1">
 <metadata>
  <rdf:RDF xmlns:dc="http://purl.org/dc/elements/1.1/" xmlns:cc="http://creativecommons.org/ns#" xmlns:rdf="http://www.w3.org/1999/02/22-rdf-syntax-ns#">
   <cc:Work>
    <dc:type rdf:resource="http://purl.org/dc/dcmitype/StillImage"/>
    <dc:date>2026-02-27T17:18:22.080449</dc:date>
    <dc:format>image/svg+xml</dc:format>
    <dc:creator>
     <cc:Agent>
      <dc:title>Matplotlib v3.10.8, https://matplotlib.org/</dc:title>
     </cc:Agent>
    </dc:creator>
   </cc:Work>
  </rdf:RDF>
 </metadata>
 <defs>
  <style type="text/css">*{stroke-linejoin: round; stroke-linecap: butt}</style>
 </defs>
 <g id="figure_1">
  <g id="patch_1">
   <path d="M 0 432 
L 720 432 
L 720 0 
L 0 0 
z
" style="fill: #ffffff"/>
  </g>
  <g id="axes_1">
   <g id="patch_2">
    <path d="M 48.44 389.32 
L 709.2 389.32 
L 709.2 26.88 
L 48.44 26.88 
z
" style="fill: #ffffff"/>
   </g>
   <g id="matplotlib.axis_1">
    <g id="xtick_1">
     <g id="line2d_1">
      <path d="M 78.474545 389.32 
L 78.474545 26.88 
" clip-path="url(#pa258ad2c33)" style="fill: none; stroke: #b0b0b0; stroke-opacity: 0.3; stroke-width: 0.8; stroke-linecap: square"/>
     </g>
     <g id="line2d_2">
      <defs>
       <path id="mfd68be066b" d="M 0 0 
L 0 3.5 
" style="stroke: #000000; stroke-width: 0.8"/>
      </defs>
      <g>
       <use xlink:href="#mfd68be066b" x="78.474545" y="389.32" style="stroke: #000000; stroke-width: 0.8"/>
      </g>
     </g>
     <g id="text_1">
      <!-- 40 -->
      <g transform="translate(72.112045 403.918437) scale(0.1 -0.1)">
       <defs>
        <path id="DejaVuSans-34" d="M 2419 4116 
L 825 1625 
L 2419 1625 
L 2419 4116 
z
M 2253 4666 
L 3047 4666 
L 3047 1625 
L 3713 1625 
L 3713 1100 
L 3047 1100 
L 3047 0 
L 2419 0 
L 2419 1100 
L 313 1100 
L 313 1709 
L 2253 4666 
z
" transform="scale(0.015625)"/>
        <path id="DejaVuSans-30" d="M 2034 4250 
Q 1547 4250 1301 3770 
Q 1056 3291 1056 2328 
Q 1056 1369 1301 889 
Q 1547 409 2034 409 
Q 2525 409 2770 889 
Q 3016 1369 3016 2328 
Q 3016 3291 2770 3770 
Q 2525 4250 2034 4250 
z
M 2034 4750 
Q 2819 4750 3233 4129 
Q 3647 3509 3647 2328 
Q 3647 1150 3233 529 
Q 2819 -91 2034 -91 
Q 1250 -91 836 529 
Q 422 1150 422 2328 
Q 422 3509 836 4129 
Q 1250 4750 2034 4750 
z
" transform="scale(0.015625)"/>
       </defs>
       <use xlink:href="#DejaVuSans-34"/>
       <use xlink:href="#DejaVuSans-30" transform="translate(63.623047 0)"/>
      </g>
     </g>
    </g>
    <g id="xtick_2">
     <g id="line2d_3">
      <path d="M 187.691074 389.32 
L 187.691074 26.88 
" clip-path="url(#pa258ad2c33)" style="fill: none; stroke: #b0b0b0; stroke-opacity: 0.3; stroke-width: 0.8; stroke-linecap: square"/>
     </g>
     <g id="line2d_4">
      <g>
       <use xlink:href="#mfd68be066b" x="187.691074" y="389.32" style="stroke: #000000; stroke-width: 0.8"/>
      </g>
     </g>
     <g id="text_2">
      <!-- 50 -->
      <g transform="translate(181.328574 403.918437) scale(0.1 -0.1)">
       <defs>
        <path id="DejaVuSans-35" d="M 691 4666 
L 3169 4666 
L 3169 4134 
L 1269 4134 
L 1269 2991 
Q 1406 3038 1543 3061 
Q 1681 3084 1819 3084 
Q 2600 3084 3056 2656 
Q 3513 2228 3513 1497 
Q 3513 744 3044 326 
Q 2575 -91 1722 -91 
Q 1428 -91 1123 -41 
Q 819 9 494 109 
L 494 744 
Q 775 591 1075 516 
Q 1375 441 1709 441 
Q 2250 441 2565 725 
Q 2881 1009 2881 1497 
Q 2881 1984 2565 2268 
Q 2250 2553 1709 2553 
Q 1456 2553 1204 2497 
Q 953 2441 691 2322 
L 691 4666 
z
" transform="scale(0.015625)"/>
       </defs>
       <use xlink:href="#DejaVuSans-35"/>
       <use xlink:href="#DejaVuSans-30" transform="translate(63.623047 0)"/>
      </g>
     </g>
    </g>
    <g id="xtick_3">
     <g id="line2d_5">
      <path d="M 296.907603 389.32 
L 296.907603 26.88 
" clip-path="url(#pa258ad2c33)" style="fill: none; stroke: #b0b0b0; stroke-opacity: 0.3; stroke-width: 0.8; stroke-linecap: square"/>
     </g>
     <g id="line2d_6">
      <g>
       <use xlink:href="#mfd68be066b" x="296.907603" y="389.32" style="stroke: #000000; stroke-width: 0.8"/>
      </g>
     </g>
     <g id="text_3">
      <!-- 60 -->
      <g transform="translate(290.545103 403.918437) scale(0.1 -0.1)">
       <defs>
        <path id="DejaVuSans-36" d="M 2113 2584 
Q 1688 2584 1439 2293 
Q 1191 2003 1191 1497 
Q 1191 994 1439 701 
Q 1688 409 2113 409 
Q 2538 409 2786 701 
Q 3034 994 3034 1497 
Q 3034 2003 2786 2293 
Q 2538 2584 2113 2584 
z
M 3366 4563 
L 3366 3988 
Q 3128 4100 2886 4159 
Q 2644 4219 2406 4219 
Q 1781 4219 1451 3797 
Q 1122 3375 1075 2522 
Q 1259 2794 1537 2939 
Q 1816 3084 2150 3084 
Q 2853 3084 3261 2657 
Q 3669 2231 3669 1497 
Q 3669 778 3244 343 
Q 2819 -91 2113 -91 
Q 1303 -91 875 529 
Q 447 1150 447 2328 
Q 447 3434 972 4092 
Q 1497 4750 2381 4750 
Q 2619 4750 2861 4703 
Q 3103 4656 3366 4563 
z
" transform="scale(0.015625)"/>
       </defs>
       <use xlink:href="#DejaVuSans-36"/>
       <use xlink:href="#DejaVuSans-30" transform="translate(63.623047 0)"/>
      </g>
     </g>
    </g>
    <g id="xtick_4">
     <g id="line2d_7">
      <path d="M 406.124132 389.32 
L 406.124132 26.88 
" clip-path="url(#pa258ad2c33)" style="fill: none; stroke: #b0b0b0; stroke-opacity: 0.3; stroke-width: 0.8; stroke-linecap: square"/>
     </g>
     <g id="line2d_8">
      <g>
       <use xlink:href="#mfd68be066b" x="406.124132" y="389.32" style="stroke: #000000; stroke-width: 0.8"/>
      </g>
     </g>
     <g id="text_4">
      <!-- 70 -->
      <g transform="translate(399.761632 403.918437) scale(0.1 -0.1)">
       <defs>
        <path id="DejaVuSans-37" d="M 525 4666 
L 3525 4666 
L 3525 4397 
L 1831 0 
L 1172 0 
L 2766 4134 
L 525 4134 
L 525 4666 
z
" transform="scale(0.015625)"/>
       </defs>
       <use xlink:href="#DejaVuSans-37"/>
       <use xlink:href="#DejaVuSans-30" transform="translate(63.623047 0)"/>
      </g>
     </g>
    </g>
    <g id="xtick_5">
     <g id="line2d_9">
      <path d="M 515.340661 389.32 
L 515.340661 26.88 
" clip-path="url(#pa258ad2c33)" style="fill: none; stroke: #b0b0b0; stroke-opacity: 0.3; stroke-width: 0.8; stroke-linecap: square"/>
     </g>
     <g id="line2d_10">
      <g>
       <use xlink:href="#mfd68be066b" x="515.340661" y="389.32" style="stroke: #000000; stroke-width: 0.8"/>
      </g>
     </g>
     <g id="text_5">
      <!-- 80 -->
      <g transform="translate(508.978161 403.918437) scale(0.1 -0.1)">
       <defs>
        <path id="DejaVuSans-38" d="M 2034 2216 
Q 1584 2216 1326 1975 
Q 1069 1734 1069 1313 
Q 1069 891 1326 650 
Q 1584 409 2034 409 
Q 2484 409 2743 651 
Q 3003 894 3003 1313 
Q 3003 1734 2745 1975 
Q 2488 2216 2034 2216 
z
M 1403 2484 
Q 997 2584 770 2862 
Q 544 3141 544 3541 
Q 544 4100 942 4425 
Q 1341 4750 2034 4750 
Q 2731 4750 3128 4425 
Q 3525 4100 3525 3541 
Q 3525 3141 3298 2862 
Q 3072 2584 2669 2484 
Q 3125 2378 3379 2068 
Q 3634 1759 3634 1313 
Q 3634 634 3220 271 
Q 2806 -91 2034 -91 
Q 1263 -91 848 271 
Q 434 634 434 1313 
Q 434 1759 690 2068 
Q 947 2378 1403 2484 
z
M 1172 3481 
Q 1172 3119 1398 2916 
Q 1625 2713 2034 2713 
Q 2441 2713 2670 2916 
Q 2900 3119 2900 3481 
Q 2900 3844 2670 4047 
Q 2441 4250 2034 4250 
Q 1625 4250 1398 4047 
Q 1172 3844 1172 3481 
z
" transform="scale(0.015625)"/>
       </defs>
       <use xlink:href="#DejaVuSans-38"/>
       <use xlink:href="#DejaVuSans-30" transform="translate(63.623047 0)"/>
      </g>
     </g>
    </g>
    <g id="xtick_6">
     <g id="line2d_11">
      <path d="M 624.55719 389.32 
L 624.55719 26.88 
" clip-path="url(#pa258ad2c33)" style="fill: none; stroke: #b0b0b0; stroke-opacity: 0.3; stroke-width: 0.8; stroke-linecap: square"/>
     </g>
     <g id="line2d_12">
      <g>
       <use xlink:href="#mfd68be066b" x="624.55719" y="389.32" style="stroke: #000000; stroke-width: 0.8"/>
      </g>
     </g>
     <g id="text_6">
      <!-- 90 -->
      <g transform="translate(618.19469 403.918437) scale(0.1 -0.1)">
       <defs>
        <path id="DejaVuSans-39" d="M 703 97 
L 703 672 
Q 941 559 1184 500 
Q 1428 441 1663 441 
Q 2288 441 2617 861 
Q 2947 1281 2994 2138 
Q 2813 1869 2534 1725 
Q 2256 1581 1919 1581 
Q 1219 1581 811 2004 
Q 403 2428 403 3163 
Q 403 3881 828 4315 
Q 1253 4750 1959 4750 
Q 2769 4750 3195 4129 
Q 3622 3509 3622 2328 
Q 3622 1225 3098 567 
Q 2575 -91 1691 -91 
Q 1453 -91 1209 -44 
Q 966 3 703 97 
z
M 1959 2075 
Q 2384 2075 2632 2365 
Q 2881 2656 2881 3163 
Q 2881 3666 2632 3958 
Q 2384 4250 1959 4250 
Q 1534 4250 1286 3958 
Q 1038 3666 1038 3163 
Q 1038 2656 1286 2365 
Q 1534 2075 1959 2075 
z
" transform="scale(0.015625)"/>
       </defs>
       <use xlink:href="#DejaVuSans-39"/>
       <use xlink:href="#DejaVuSans-30" transform="translate(63.623047 0)"/>
      </g>
     </g>
    </g>
    <g id="text_7">
     <!-- Quality -->
     <g transform="translate(359.166953 418.356406) scale(0.11 -0.11)">
      <defs>
       <path id="DejaVuSans-51" d="M 2522 4238 
Q 1834 4238 1429 3725 
Q 1025 3213 1025 2328 
Q 1025 1447 1429 934 
Q 1834 422 2522 422 
Q 3209 422 3611 934 
Q 4013 1447 4013 2328 
Q 4013 3213 3611 3725 
Q 3209 4238 2522 4238 
z
M 3406 84 
L 4238 -825 
L 3475 -825 
L 2784 -78 
Q 2681 -84 2626 -87 
Q 2572 -91 2522 -91 
Q 1538 -91 948 567 
Q 359 1225 359 2328 
Q 359 3434 948 4092 
Q 1538 4750 2522 4750 
Q 3503 4750 4090 4092 
Q 4678 3434 4678 2328 
Q 4678 1516 4351 937 
Q 4025 359 3406 84 
z
" transform="scale(0.015625)"/>
       <path id="DejaVuSans-75" d="M 544 1381 
L 544 3500 
L 1119 3500 
L 1119 1403 
Q 1119 906 1312 657 
Q 1506 409 1894 409 
Q 2359 409 2629 706 
Q 2900 1003 2900 1516 
L 2900 3500 
L 3475 3500 
L 3475 0 
L 2900 0 
L 2900 538 
Q 2691 219 2414 64 
Q 2138 -91 1772 -91 
Q 1169 -91 856 284 
Q 544 659 544 1381 
z
M 1991 3584 
L 1991 3584 
z
" transform="scale(0.015625)"/>
       <path id="DejaVuSans-61" d="M 2194 1759 
Q 1497 1759 1228 1600 
Q 959 1441 959 1056 
Q 959 750 1161 570 
Q 1363 391 1709 391 
Q 2188 391 2477 730 
Q 2766 1069 2766 1631 
L 2766 1759 
L 2194 1759 
z
M 3341 1997 
L 3341 0 
L 2766 0 
L 2766 531 
Q 2569 213 2275 61 
Q 1981 -91 1556 -91 
Q 1019 -91 701 211 
Q 384 513 384 1019 
Q 384 1609 779 1909 
Q 1175 2209 1959 2209 
L 2766 2209 
L 2766 2266 
Q 2766 2663 2505 2880 
Q 2244 3097 1772 3097 
Q 1472 3097 1187 3025 
Q 903 2953 641 2809 
L 641 3341 
Q 956 3463 1253 3523 
Q 1550 3584 1831 3584 
Q 2591 3584 2966 3190 
Q 3341 2797 3341 1997 
z
" transform="scale(0.015625)"/>
       <path id="DejaVuSans-6c" d="M 603 4863 
L 1178 4863 
L 1178 0 
L 603 0 
L 603 4863 
z
" transform="scale(0.015625)"/>
       <path id="DejaVuSans-69" d="M 603 3500 
L 1178 3500 
L 1178 0 
L 603 0 
L 603 3500 
z
M 603 4863 
L 1178 4863 
L 1178 4134 
L 603 4134 
L 603 4863 
z
" transform="scale(0.015625)"/>
       <path id="DejaVuSans-74" d="M 1172 4494 
L 1172 3500 
L 2356 3500 
L 2356 3053 
L 1172 3053 
L 1172 1153 
Q 1172 725 1289 603 
Q 1406 481 1766 481 
L 2356 481 
L 2356 0 
L 1766 0 
Q 1100 0 847 248 
Q 594 497 594 1153 
L 594 3053 
L 172 3053 
L 172 3500 
L 594 3500 
L 594 4494 
L 1172 4494 
z
" transform="scale(0.015625)"/>
       <path id="DejaVuSans-79" d="M 2059 -325 
Q 1816 -950 1584 -1140 
Q 1353 -1331 966 -1331 
L 506 -1331 
L 506 -850 
L 844 -850 
Q 1081 -850 1212 -737 
Q 1344 -625 1503 -206 
L 1606 56 
L 191 3500 
L 800 3500 
L 1894 763 
L 2988 3500 
L 3597 3500 
L 2059 -325 
z
" transform="scale(0.015625)"/>
      </defs>
      <use xlink:href="#DejaVuSans-51"/>
      <use xlink:href="#DejaVuSans-75" transform="translate(78.710938 0)"/>
      <use xlink:href="#DejaVuSans-61" transform="translate(142.089844 0)"/>
      <use xlink:href="#DejaVuSans-6c" transform="translate(203.369141 0)"/>
      <use xlink:href="#DejaVuSans-69" transform="translate(231.152344 0)"/>
      <use xlink:href="#DejaVuSans-74" transform="translate(258.935547 0)"/>
      <use xlink:href="#DejaVuSans-79" transform="translate(298.144531 0)"/>
     </g>
    </g>
   </g>
   <g id="matplotlib.axis_2">
    <g id="ytick_1">
     <g id="line2d_13">
      <path d="M 48.44 338.501237 
L 709.2 338.501237 
" clip-path="url(#pa258ad2c33)" style="fill: none; stroke: #b0b0b0; stroke-opacity: 0.3; stroke-width: 0.8; stroke-linecap: square"/>
     </g>
     <g id="line2d_14">
      <defs>
       <path id="mf210c4cd92" d="M 0 0 
L -3.5 0 
" style="stroke: #000000; stroke-width: 0.8"/>
      </defs>
      <g>
       <use xlink:href="#mf210c4cd92" x="48.44" y="338.501237" style="stroke: #000000; stroke-width: 0.8"/>
      </g>
     </g>
     <g id="text_8">
      <!-- 0.5 -->
      <g transform="translate(25.536875 342.300456) scale(0.1 -0.1)">
       <defs>
        <path id="DejaVuSans-2e" d="M 684 794 
L 1344 794 
L 1344 0 
L 684 0 
L 684 794 
z
" transform="scale(0.015625)"/>
       </defs>
       <use xlink:href="#DejaVuSans-30"/>
       <use xlink:href="#DejaVuSans-2e" transform="translate(63.623047 0)"/>
       <use xlink:href="#DejaVuSans-35" transform="translate(95.410156 0)"/>
      </g>
     </g>
    </g>
    <g id="ytick_2">
     <g id="line2d_15">
      <path d="M 48.44 268.914099 
L 709.2 268.914099 
" clip-path="url(#pa258ad2c33)" style="fill: none; stroke: #b0b0b0; stroke-opacity: 0.3; stroke-width: 0.8; stroke-linecap: square"/>
     </g>
     <g id="line2d_16">
      <g>
       <use xlink:href="#mf210c4cd92" x="48.44" y="268.914099" style="stroke: #000000; stroke-width: 0.8"/>
      </g>
     </g>
     <g id="text_9">
      <!-- 1.0 -->
      <g transform="translate(25.536875 272.713318) scale(0.1 -0.1)">
       <defs>
        <path id="DejaVuSans-31" d="M 794 531 
L 1825 531 
L 1825 4091 
L 703 3866 
L 703 4441 
L 1819 4666 
L 2450 4666 
L 2450 531 
L 3481 531 
L 3481 0 
L 794 0 
L 794 531 
z
" transform="scale(0.015625)"/>
       </defs>
       <use xlink:href="#DejaVuSans-31"/>
       <use xlink:href="#DejaVuSans-2e" transform="translate(63.623047 0)"/>
       <use xlink:href="#DejaVuSans-30" transform="translate(95.410156 0)"/>
      </g>
     </g>
    </g>
    <g id="ytick_3">
     <g id="line2d_17">
      <path d="M 48.44 199.326961 
L 709.2 199.326961 
" clip-path="url(#pa258ad2c33)" style="fill: none; stroke: #b0b0b0; stroke-opacity: 0.3; stroke-width: 0.8; stroke-linecap: square"/>
     </g>
     <g id="line2d_18">
      <g>
       <use xlink:href="#mf210c4cd92" x="48.44" y="199.326961" style="stroke: #000000; stroke-width: 0.8"/>
      </g>
     </g>
     <g id="text_10">
      <!-- 1.5 -->
      <g transform="translate(25.536875 203.12618) scale(0.1 -0.1)">
       <use xlink:href="#DejaVuSans-31"/>
       <use xlink:href="#DejaVuSans-2e" transform="translate(63.623047 0)"/>
       <use xlink:href="#DejaVuSans-35" transform="translate(95.410156 0)"/>
      </g>
     </g>
    </g>
    <g id="ytick_4">
     <g id="line2d_19">
      <path d="M 48.44 129.739824 
L 709.2 129.739824 
" clip-path="url(#pa258ad2c33)" style="fill: none; stroke: #b0b0b0; stroke-opacity: 0.3; stroke-width: 0.8; stroke-linecap: square"/>
     </g>
     <g id="line2d_20">
      <g>
       <use xlink:href="#mf210c4cd92" x="48.44" y="129.739824" style="stroke: #000000; stroke-width: 0.8"/>
      </g>
     </g>
     <g id="text_11">
      <!-- 2.0 -->
      <g transform="translate(25.536875 133.539043) scale(0.1 -0.1)">
       <defs>
        <path id="DejaVuSans-32" d="M 1228 531 
L 3431 531 
L 3431 0 
L 469 0 
L 469 531 
Q 828 903 1448 1529 
Q 2069 2156 2228 2338 
Q 2531 2678 2651 2914 
Q 2772 3150 2772 3378 
Q 2772 3750 2511 3984 
Q 2250 4219 1831 4219 
Q 1534 4219 1204 4116 
Q 875 4013 500 3803 
L 500 4441 
Q 881 4594 1212 4672 
Q 1544 4750 1819 4750 
Q 2544 4750 2975 4387 
Q 3406 4025 3406 3419 
Q 3406 3131 3298 2873 
Q 3191 2616 2906 2266 
Q 2828 2175 2409 1742 
Q 1991 1309 1228 531 
z
" transform="scale(0.015625)"/>
       </defs>
       <use xlink:href="#DejaVuSans-32"/>
       <use xlink:href="#DejaVuSans-2e" transform="translate(63.623047 0)"/>
       <use xlink:href="#DejaVuSans-30" transform="translate(95.410156 0)"/>
      </g>
     </g>
    </g>
    <g id="ytick_5">
     <g id="line2d_21">
      <path d="M 48.44 60.152686 
L 709.2 60.152686 
" clip-path="url(#pa258ad2c33)" style="fill: none; stroke: #b0b0b0; stroke-opacity: 0.3; stroke-width: 0.8; stroke-linecap: square"/>
     </g>
     <g id="line2d_22">
      <g>
       <use xlink:href="#mf210c4cd92" x="48.44" y="60.152686" style="stroke: #000000; stroke-width: 0.8"/>
      </g>
     </g>
     <g id="text_12">
      <!-- 2.5 -->
      <g transform="translate(25.536875 63.951905) scale(0.1 -0.1)">
       <use xlink:href="#DejaVuSans-32"/>
       <use xlink:href="#DejaVuSans-2e" transform="translate(63.623047 0)"/>
       <use xlink:href="#DejaVuSans-35" transform="translate(95.410156 0)"/>
      </g>
     </g>
    </g>
    <g id="text_13">
     <!-- Bytes Per Butteraugli Per Pixel (lower is better) -->
     <g transform="translate(19.249219 337.185859) rotate(-90) scale(0.11 -0.11)">
      <defs>
       <path id="DejaVuSans-42" d="M 1259 2228 
L 1259 519 
L 2272 519 
Q 2781 519 3026 730 
Q 3272 941 3272 1375 
Q 3272 1813 3026 2020 
Q 2781 2228 2272 2228 
L 1259 2228 
z
M 1259 4147 
L 1259 2741 
L 2194 2741 
Q 2656 2741 2882 2914 
Q 3109 3088 3109 3444 
Q 3109 3797 2882 3972 
Q 2656 4147 2194 4147 
L 1259 4147 
z
M 628 4666 
L 2241 4666 
Q 2963 4666 3353 4366 
Q 3744 4066 3744 3513 
Q 3744 3084 3544 2831 
Q 3344 2578 2956 2516 
Q 3422 2416 3680 2098 
Q 3938 1781 3938 1306 
Q 3938 681 3513 340 
Q 3088 0 2303 0 
L 628 0 
L 628 4666 
z
" transform="scale(0.015625)"/>
       <path id="DejaVuSans-65" d="M 3597 1894 
L 3597 1613 
L 953 1613 
Q 991 1019 1311 708 
Q 1631 397 2203 397 
Q 2534 397 2845 478 
Q 3156 559 3463 722 
L 3463 178 
Q 3153 47 2828 -22 
Q 2503 -91 2169 -91 
Q 1331 -91 842 396 
Q 353 884 353 1716 
Q 353 2575 817 3079 
Q 1281 3584 2069 3584 
Q 2775 3584 3186 3129 
Q 3597 2675 3597 1894 
z
M 3022 2063 
Q 3016 2534 2758 2815 
Q 2500 3097 2075 3097 
Q 1594 3097 1305 2825 
Q 1016 2553 972 2059 
L 3022 2063 
z
" transform="scale(0.015625)"/>
       <path id="DejaVuSans-73" d="M 2834 3397 
L 2834 2853 
Q 2591 2978 2328 3040 
Q 2066 3103 1784 3103 
Q 1356 3103 1142 2972 
Q 928 2841 928 2578 
Q 928 2378 1081 2264 
Q 1234 2150 1697 2047 
L 1894 2003 
Q 2506 1872 2764 1633 
Q 3022 1394 3022 966 
Q 3022 478 2636 193 
Q 2250 -91 1575 -91 
Q 1294 -91 989 -36 
Q 684 19 347 128 
L 347 722 
Q 666 556 975 473 
Q 1284 391 1588 391 
Q 1994 391 2212 530 
Q 2431 669 2431 922 
Q 2431 1156 2273 1281 
Q 2116 1406 1581 1522 
L 1381 1569 
Q 847 1681 609 1914 
Q 372 2147 372 2553 
Q 372 3047 722 3315 
Q 1072 3584 1716 3584 
Q 2034 3584 2315 3537 
Q 2597 3491 2834 3397 
z
" transform="scale(0.015625)"/>
       <path id="DejaVuSans-20" transform="scale(0.015625)"/>
       <path id="DejaVuSans-50" d="M 1259 4147 
L 1259 2394 
L 2053 2394 
Q 2494 2394 2734 2622 
Q 2975 2850 2975 3272 
Q 2975 3691 2734 3919 
Q 2494 4147 2053 4147 
L 1259 4147 
z
M 628 4666 
L 2053 4666 
Q 2838 4666 3239 4311 
Q 3641 3956 3641 3272 
Q 3641 2581 3239 2228 
Q 2838 1875 2053 1875 
L 1259 1875 
L 1259 0 
L 628 0 
L 628 4666 
z
" transform="scale(0.015625)"/>
       <path id="DejaVuSans-72" d="M 2631 2963 
Q 2534 3019 2420 3045 
Q 2306 3072 2169 3072 
Q 1681 3072 1420 2755 
Q 1159 2438 1159 1844 
L 1159 0 
L 581 0 
L 581 3500 
L 1159 3500 
L 1159 2956 
Q 1341 3275 1631 3429 
Q 1922 3584 2338 3584 
Q 2397 3584 2469 3576 
Q 2541 3569 2628 3553 
L 2631 2963 
z
" transform="scale(0.015625)"/>
       <path id="DejaVuSans-67" d="M 2906 1791 
Q 2906 2416 2648 2759 
Q 2391 3103 1925 3103 
Q 1463 3103 1205 2759 
Q 947 2416 947 1791 
Q 947 1169 1205 825 
Q 1463 481 1925 481 
Q 2391 481 2648 825 
Q 2906 1169 2906 1791 
z
M 3481 434 
Q 3481 -459 3084 -895 
Q 2688 -1331 1869 -1331 
Q 1566 -1331 1297 -1286 
Q 1028 -1241 775 -1147 
L 775 -588 
Q 1028 -725 1275 -790 
Q 1522 -856 1778 -856 
Q 2344 -856 2625 -561 
Q 2906 -266 2906 331 
L 2906 616 
Q 2728 306 2450 153 
Q 2172 0 1784 0 
Q 1141 0 747 490 
Q 353 981 353 1791 
Q 353 2603 747 3093 
Q 1141 3584 1784 3584 
Q 2172 3584 2450 3431 
Q 2728 3278 2906 2969 
L 2906 3500 
L 3481 3500 
L 3481 434 
z
" transform="scale(0.015625)"/>
       <path id="DejaVuSans-78" d="M 3513 3500 
L 2247 1797 
L 3578 0 
L 2900 0 
L 1881 1375 
L 863 0 
L 184 0 
L 1544 1831 
L 300 3500 
L 978 3500 
L 1906 2253 
L 2834 3500 
L 3513 3500 
z
" transform="scale(0.015625)"/>
       <path id="DejaVuSans-28" d="M 1984 4856 
Q 1566 4138 1362 3434 
Q 1159 2731 1159 2009 
Q 1159 1288 1364 580 
Q 1569 -128 1984 -844 
L 1484 -844 
Q 1016 -109 783 600 
Q 550 1309 550 2009 
Q 550 2706 781 3412 
Q 1013 4119 1484 4856 
L 1984 4856 
z
" transform="scale(0.015625)"/>
       <path id="DejaVuSans-6f" d="M 1959 3097 
Q 1497 3097 1228 2736 
Q 959 2375 959 1747 
Q 959 1119 1226 758 
Q 1494 397 1959 397 
Q 2419 397 2687 759 
Q 2956 1122 2956 1747 
Q 2956 2369 2687 2733 
Q 2419 3097 1959 3097 
z
M 1959 3584 
Q 2709 3584 3137 3096 
Q 3566 2609 3566 1747 
Q 3566 888 3137 398 
Q 2709 -91 1959 -91 
Q 1206 -91 779 398 
Q 353 888 353 1747 
Q 353 2609 779 3096 
Q 1206 3584 1959 3584 
z
" transform="scale(0.015625)"/>
       <path id="DejaVuSans-77" d="M 269 3500 
L 844 3500 
L 1563 769 
L 2278 3500 
L 2956 3500 
L 3675 769 
L 4391 3500 
L 4966 3500 
L 4050 0 
L 3372 0 
L 2619 2869 
L 1863 0 
L 1184 0 
L 269 3500 
z
" transform="scale(0.015625)"/>
       <path id="DejaVuSans-62" d="M 3116 1747 
Q 3116 2381 2855 2742 
Q 2594 3103 2138 3103 
Q 1681 3103 1420 2742 
Q 1159 2381 1159 1747 
Q 1159 1113 1420 752 
Q 1681 391 2138 391 
Q 2594 391 2855 752 
Q 3116 1113 3116 1747 
z
M 1159 2969 
Q 1341 3281 1617 3432 
Q 1894 3584 2278 3584 
Q 2916 3584 3314 3078 
Q 3713 2572 3713 1747 
Q 3713 922 3314 415 
Q 2916 -91 2278 -91 
Q 1894 -91 1617 61 
Q 1341 213 1159 525 
L 1159 0 
L 581 0 
L 581 4863 
L 1159 4863 
L 1159 2969 
z
" transform="scale(0.015625)"/>
       <path id="DejaVuSans-29" d="M 513 4856 
L 1013 4856 
Q 1481 4119 1714 3412 
Q 1947 2706 1947 2009 
Q 1947 1309 1714 600 
Q 1481 -109 1013 -844 
L 513 -844 
Q 928 -128 1133 580 
Q 1338 1288 1338 2009 
Q 1338 2731 1133 3434 
Q 928 4138 513 4856 
z
" transform="scale(0.015625)"/>
      </defs>
      <use xlink:href="#DejaVuSans-42"/>
      <use xlink:href="#DejaVuSans-79" transform="translate(68.603516 0)"/>
      <use xlink:href="#DejaVuSans-74" transform="translate(127.783203 0)"/>
      <use xlink:href="#DejaVuSans-65" transform="translate(166.992188 0)"/>
      <use xlink:href="#DejaVuSans-73" transform="translate(228.515625 0)"/>
      <use xlink:href="#DejaVuSans-20" transform="translate(280.615234 0)"/>
      <use xlink:href="#DejaVuSans-50" transform="translate(312.402344 0)"/>
      <use xlink:href="#DejaVuSans-65" transform="translate(369.080078 0)"/>
      <use xlink:href="#DejaVuSans-72" transform="translate(430.603516 0)"/>
      <use xlink:href="#DejaVuSans-20" transform="translate(471.716797 0)"/>
      <use xlink:href="#DejaVuSans-42" transform="translate(503.503906 0)"/>
      <use xlink:href="#DejaVuSans-75" transform="translate(572.107422 0)"/>
      <use xlink:href="#DejaVuSans-74" transform="translate(635.486328 0)"/>
      <use xlink:href="#DejaVuSans-74" transform="translate(674.695312 0)"/>
      <use xlink:href="#DejaVuSans-65" transform="translate(713.904297 0)"/>
      <use xlink:href="#DejaVuSans-72" transform="translate(775.427734 0)"/>
      <use xlink:href="#DejaVuSans-61" transform="translate(816.541016 0)"/>
      <use xlink:href="#DejaVuSans-75" transform="translate(877.820312 0)"/>
      <use xlink:href="#DejaVuSans-67" transform="translate(941.199219 0)"/>
      <use xlink:href="#DejaVuSans-6c" transform="translate(1004.675781 0)"/>
      <use xlink:href="#DejaVuSans-69" transform="translate(1032.458984 0)"/>
      <use xlink:href="#DejaVuSans-20" transform="translate(1060.242188 0)"/>
      <use xlink:href="#DejaVuSans-50" transform="translate(1092.029297 0)"/>
      <use xlink:href="#DejaVuSans-65" transform="translate(1148.707031 0)"/>
      <use xlink:href="#DejaVuSans-72" transform="translate(1210.230469 0)"/>
      <use xlink:href="#DejaVuSans-20" transform="translate(1251.34375 0)"/>
      <use xlink:href="#DejaVuSans-50" transform="translate(1283.130859 0)"/>
      <use xlink:href="#DejaVuSans-69" transform="translate(1341.183594 0)"/>
      <use xlink:href="#DejaVuSans-78" transform="translate(1368.966797 0)"/>
      <use xlink:href="#DejaVuSans-65" transform="translate(1425.021484 0)"/>
      <use xlink:href="#DejaVuSans-6c" transform="translate(1486.544922 0)"/>
      <use xlink:href="#DejaVuSans-20" transform="translate(1514.328125 0)"/>
      <use xlink:href="#DejaVuSans-28" transform="translate(1546.115234 0)"/>
      <use xlink:href="#DejaVuSans-6c" transform="translate(1585.128906 0)"/>
      <use xlink:href="#DejaVuSans-6f" transform="translate(1612.912109 0)"/>
      <use xlink:href="#DejaVuSans-77" transform="translate(1674.09375 0)"/>
      <use xlink:href="#DejaVuSans-65" transform="translate(1755.880859 0)"/>
      <use xlink:href="#DejaVuSans-72" transform="translate(1817.404297 0)"/>
      <use xlink:href="#DejaVuSans-20" transform="translate(1858.517578 0)"/>
      <use xlink:href="#DejaVuSans-69" transform="translate(1890.304688 0)"/>
      <use xlink:href="#DejaVuSans-73" transform="translate(1918.087891 0)"/>
      <use xlink:href="#DejaVuSans-20" transform="translate(1970.1875 0)"/>
      <use xlink:href="#DejaVuSans-62" transform="translate(2001.974609 0)"/>
      <use xlink:href="#DejaVuSans-65" transform="translate(2065.451172 0)"/>
      <use xlink:href="#DejaVuSans-74" transform="translate(2126.974609 0)"/>
      <use xlink:href="#DejaVuSans-74" transform="translate(2166.183594 0)"/>
      <use xlink:href="#DejaVuSans-65" transform="translate(2205.392578 0)"/>
      <use xlink:href="#DejaVuSans-72" transform="translate(2266.916016 0)"/>
      <use xlink:href="#DejaVuSans-29" transform="translate(2308.029297 0)"/>
     </g>
    </g>
   </g>
   <g id="line2d_23">
    <path d="M 78.474545 367.377072 
L 133.08281 366.191034 
L 187.691074 363.499215 
L 242.299339 360.925422 
L 296.907603 359.149127 
L 351.515868 356.818392 
L 406.124132 354.732028 
L 460.732397 353.410605 
L 515.340661 349.948457 
L 569.948926 348.857709 
" clip-path="url(#pa258ad2c33)" style="fill: none; stroke: #1f77b4; stroke-width: 1.5; stroke-linecap: square"/>
    <defs>
     <path id="m135c076389" d="M 0 3.5 
C 0.928211 3.5 1.81853 3.131218 2.474874 2.474874 
C 3.131218 1.81853 3.5 0.928211 3.5 0 
C 3.5 -0.928211 3.131218 -1.81853 2.474874 -2.474874 
C 1.81853 -3.131218 0.928211 -3.5 0 -3.5 
C -0.928211 -3.5 -1.81853 -3.131218 -2.474874 -2.474874 
C -3.131218 -1.81853 -3.5 -0.928211 -3.5 0 
C -3.5 0.928211 -3.131218 1.81853 -2.474874 2.474874 
C -1.81853 3.131218 -0.928211 3.5 0 3.5 
z
" style="stroke: #1f77b4"/>
    </defs>
    <g clip-path="url(#pa258ad2c33)">
     <use xlink:href="#m135c076389" x="78.474545" y="367.377072" style="fill: #1f77b4; stroke: #1f77b4"/>
     <use xlink:href="#m135c076389" x="133.08281" y="366.191034" style="fill: #1f77b4; stroke: #1f77b4"/>
     <use xlink:href="#m135c076389" x="187.691074" y="363.499215" style="fill: #1f77b4; stroke: #1f77b4"/>
     <use xlink:href="#m135c076389" x="242.299339" y="360.925422" style="fill: #1f77b4; stroke: #1f77b4"/>
     <use xlink:href="#m135c076389" x="296.907603" y="359.149127" style="fill: #1f77b4; stroke: #1f77b4"/>
     <use xlink:href="#m135c076389" x="351.515868" y="356.818392" style="fill: #1f77b4; stroke: #1f77b4"/>
     <use xlink:href="#m135c076389" x="406.124132" y="354.732028" style="fill: #1f77b4; stroke: #1f77b4"/>
     <use xlink:href="#m135c076389" x="460.732397" y="353.410605" style="fill: #1f77b4; stroke: #1f77b4"/>
     <use xlink:href="#m135c076389" x="515.340661" y="349.948457" style="fill: #1f77b4; stroke: #1f77b4"/>
     <use xlink:href="#m135c076389" x="569.948926" y="348.857709" style="fill: #1f77b4; stroke: #1f77b4"/>
    </g>
   </g>
   <g id="line2d_24">
    <path d="M 78.474545 318.127589 
L 133.08281 315.077307 
L 187.691074 312.858563 
L 242.299339 309.125808 
L 296.907603 306.873721 
L 351.515868 298.999538 
L 406.124132 293.105572 
L 460.732397 297.070297 
L 515.340661 285.494672 
L 569.948926 297.964113 
" clip-path="url(#pa258ad2c33)" style="fill: none; stroke-dasharray: 5.55,2.4; stroke-dashoffset: 0; stroke: #1f77b4; stroke-width: 1.5"/>
    <defs>
     <path id="m2649575019" d="M 0 3.5 
C 0.928211 3.5 1.81853 3.131218 2.474874 2.474874 
C 3.131218 1.81853 3.5 0.928211 3.5 0 
C 3.5 -0.928211 3.131218 -1.81853 2.474874 -2.474874 
C 1.81853 -3.131218 0.928211 -3.5 0 -3.5 
C -0.928211 -3.5 -1.81853 -3.131218 -2.474874 -2.474874 
C -3.131218 -1.81853 -3.5 -0.928211 -3.5 0 
C -3.5 0.928211 -3.131218 1.81853 -2.474874 2.474874 
C -1.81853 3.131218 -0.928211 3.5 0 3.5 
z
" style="stroke: #1f77b4"/>
    </defs>
    <g clip-path="url(#pa258ad2c33)">
     <use xlink:href="#m2649575019" x="78.474545" y="318.127589" style="fill-opacity: 0; stroke: #1f77b4"/>
     <use xlink:href="#m2649575019" x="133.08281" y="315.077307" style="fill-opacity: 0; stroke: #1f77b4"/>
     <use xlink:href="#m2649575019" x="187.691074" y="312.858563" style="fill-opacity: 0; stroke: #1f77b4"/>
     <use xlink:href="#m2649575019" x="242.299339" y="309.125808" style="fill-opacity: 0; stroke: #1f77b4"/>
     <use xlink:href="#m2649575019" x="296.907603" y="306.873721" style="fill-opacity: 0; stroke: #1f77b4"/>
     <use xlink:href="#m2649575019" x="351.515868" y="298.999538" style="fill-opacity: 0; stroke: #1f77b4"/>
     <use xlink:href="#m2649575019" x="406.124132" y="293.105572" style="fill-opacity: 0; stroke: #1f77b4"/>
     <use xlink:href="#m2649575019" x="460.732397" y="297.070297" style="fill-opacity: 0; stroke: #1f77b4"/>
     <use xlink:href="#m2649575019" x="515.340661" y="285.494672" style="fill-opacity: 0; stroke: #1f77b4"/>
     <use xlink:href="#m2649575019" x="569.948926" y="297.964113" style="fill-opacity: 0; stroke: #1f77b4"/>
    </g>
   </g>
   <g id="line2d_25">
    <path d="M 187.691074 333.074256 
L 242.299339 332.183562 
L 296.907603 327.967178 
L 351.515868 325.078189 
L 406.124132 318.416181 
L 460.732397 320.980098 
L 515.340661 317.634648 
L 569.948926 309.413369 
L 624.55719 295.434634 
L 679.165455 274.042421 
" clip-path="url(#pa258ad2c33)" style="fill: none; stroke: #ff7f0e; stroke-width: 1.5; stroke-linecap: square"/>
    <defs>
     <path id="mfd413fecc5" d="M -3.5 3.5 
L 3.5 3.5 
L 3.5 -3.5 
L -3.5 -3.5 
z
" style="stroke: #ff7f0e; stroke-linejoin: miter"/>
    </defs>
    <g clip-path="url(#pa258ad2c33)">
     <use xlink:href="#mfd413fecc5" x="187.691074" y="333.074256" style="fill: #ff7f0e; stroke: #ff7f0e; stroke-linejoin: miter"/>
     <use xlink:href="#mfd413fecc5" x="242.299339" y="332.183562" style="fill: #ff7f0e; stroke: #ff7f0e; stroke-linejoin: miter"/>
     <use xlink:href="#mfd413fecc5" x="296.907603" y="327.967178" style="fill: #ff7f0e; stroke: #ff7f0e; stroke-linejoin: miter"/>
     <use xlink:href="#mfd413fecc5" x="351.515868" y="325.078189" style="fill: #ff7f0e; stroke: #ff7f0e; stroke-linejoin: miter"/>
     <use xlink:href="#mfd413fecc5" x="406.124132" y="318.416181" style="fill: #ff7f0e; stroke: #ff7f0e; stroke-linejoin: miter"/>
     <use xlink:href="#mfd413fecc5" x="460.732397" y="320.980098" style="fill: #ff7f0e; stroke: #ff7f0e; stroke-linejoin: miter"/>
     <use xlink:href="#mfd413fecc5" x="515.340661" y="317.634648" style="fill: #ff7f0e; stroke: #ff7f0e; stroke-linejoin: miter"/>
     <use xlink:href="#mfd413fecc5" x="569.948926" y="309.413369" style="fill: #ff7f0e; stroke: #ff7f0e; stroke-linejoin: miter"/>
     <use xlink:href="#mfd413fecc5" x="624.55719" y="295.434634" style="fill: #ff7f0e; stroke: #ff7f0e; stroke-linejoin: miter"/>
     <use xlink:href="#mfd413fecc5" x="679.165455" y="274.042421" style="fill: #ff7f0e; stroke: #ff7f0e; stroke-linejoin: miter"/>
    </g>
   </g>
   <g id="line2d_26">
    <path d="M 187.691074 235.622552 
L 242.299339 229.848867 
L 296.907603 212.938918 
L 351.515868 210.191211 
L 406.124132 192.745512 
L 460.732397 201.822423 
L 515.340661 193.642626 
L 569.948926 176.45124 
L 624.55719 127.134424 
L 679.165455 43.354545 
" clip-path="url(#pa258ad2c33)" style="fill: none; stroke-dasharray: 5.55,2.4; stroke-dashoffset: 0; stroke: #ff7f0e; stroke-width: 1.5"/>
    <defs>
     <path id="m316cefb4d0" d="M -3.5 3.5 
L 3.5 3.5 
L 3.5 -3.5 
L -3.5 -3.5 
z
" style="stroke: #ff7f0e; stroke-linejoin: miter"/>
    </defs>
    <g clip-path="url(#pa258ad2c33)">
     <use xlink:href="#m316cefb4d0" x="187.691074" y="235.622552" style="fill-opacity: 0; stroke: #ff7f0e; stroke-linejoin: miter"/>
     <use xlink:href="#m316cefb4d0" x="242.299339" y="229.848867" style="fill-opacity: 0; stroke: #ff7f0e; stroke-linejoin: miter"/>
     <use xlink:href="#m316cefb4d0" x="296.907603" y="212.938918" style="fill-opacity: 0; stroke: #ff7f0e; stroke-linejoin: miter"/>
     <use xlink:href="#m316cefb4d0" x="351.515868" y="210.191211" style="fill-opacity: 0; stroke: #ff7f0e; stroke-linejoin: miter"/>
     <use xlink:href="#m316cefb4d0" x="406.124132" y="192.745512" style="fill-opacity: 0; stroke: #ff7f0e; stroke-linejoin: miter"/>
     <use xlink:href="#m316cefb4d0" x="460.732397" y="201.822423" style="fill-opacity: 0; stroke: #ff7f0e; stroke-linejoin: miter"/>
     <use xlink:href="#m316cefb4d0" x="515.340661" y="193.642626" style="fill-opacity: 0; stroke: #ff7f0e; stroke-linejoin: miter"/>
     <use xlink:href="#m316cefb4d0" x="569.948926" y="176.45124" style="fill-opacity: 0; stroke: #ff7f0e; stroke-linejoin: miter"/>
     <use xlink:href="#m316cefb4d0" x="624.55719" y="127.134424" style="fill-opacity: 0; stroke: #ff7f0e; stroke-linejoin: miter"/>
     <use xlink:href="#m316cefb4d0" x="679.165455" y="43.354545" style="fill-opacity: 0; stroke: #ff7f0e; stroke-linejoin: miter"/>
    </g>
   </g>
   <g id="line2d_27">
    <path d="M 187.691074 372.845455 
L 242.299339 370.372512 
L 296.907603 370.640622 
L 351.515868 370.210488 
L 406.124132 370.256624 
L 460.732397 369.704196 
L 515.340661 368.535101 
L 569.948926 370.116924 
L 624.55719 370.817818 
L 679.165455 371.210857 
" clip-path="url(#pa258ad2c33)" style="fill: none; stroke: #2ca02c; stroke-width: 1.5; stroke-linecap: square"/>
    <defs>
     <path id="mfe77a51b05" d="M 0 -3.5 
L -3.5 3.5 
L 3.5 3.5 
z
" style="stroke: #2ca02c; stroke-linejoin: miter"/>
    </defs>
    <g clip-path="url(#pa258ad2c33)">
     <use xlink:href="#mfe77a51b05" x="187.691074" y="372.845455" style="fill: #2ca02c; stroke: #2ca02c; stroke-linejoin: miter"/>
     <use xlink:href="#mfe77a51b05" x="242.299339" y="370.372512" style="fill: #2ca02c; stroke: #2ca02c; stroke-linejoin: miter"/>
     <use xlink:href="#mfe77a51b05" x="296.907603" y="370.640622" style="fill: #2ca02c; stroke: #2ca02c; stroke-linejoin: miter"/>
     <use xlink:href="#mfe77a51b05" x="351.515868" y="370.210488" style="fill: #2ca02c; stroke: #2ca02c; stroke-linejoin: miter"/>
     <use xlink:href="#mfe77a51b05" x="406.124132" y="370.256624" style="fill: #2ca02c; stroke: #2ca02c; stroke-linejoin: miter"/>
     <use xlink:href="#mfe77a51b05" x="460.732397" y="369.704196" style="fill: #2ca02c; stroke: #2ca02c; stroke-linejoin: miter"/>
     <use xlink:href="#mfe77a51b05" x="515.340661" y="368.535101" style="fill: #2ca02c; stroke: #2ca02c; stroke-linejoin: miter"/>
     <use xlink:href="#mfe77a51b05" x="569.948926" y="370.116924" style="fill: #2ca02c; stroke: #2ca02c; stroke-linejoin: miter"/>
     <use xlink:href="#mfe77a51b05" x="624.55719" y="370.817818" style="fill: #2ca02c; stroke: #2ca02c; stroke-linejoin: miter"/>
     <use xlink:href="#mfe77a51b05" x="679.165455" y="371.210857" style="fill: #2ca02c; stroke: #2ca02c; stroke-linejoin: miter"/>
    </g>
   </g>
   <g id="line2d_28">
    <path d="M 187.691074 344.149871 
L 242.299339 335.302904 
L 296.907603 337.770345 
L 351.515868 338.331185 
L 406.124132 338.785818 
L 460.732397 338.540926 
L 515.340661 334.09339 
L 569.948926 339.587381 
L 624.55719 342.992814 
L 679.165455 344.414851 
" clip-path="url(#pa258ad2c33)" style="fill: none; stroke-dasharray: 5.55,2.4; stroke-dashoffset: 0; stroke: #2ca02c; stroke-width: 1.5"/>
    <defs>
     <path id="md50b311872" d="M 0 -3.5 
L -3.5 3.5 
L 3.5 3.5 
z
" style="stroke: #2ca02c; stroke-linejoin: miter"/>
    </defs>
    <g clip-path="url(#pa258ad2c33)">
     <use xlink:href="#md50b311872" x="187.691074" y="344.149871" style="fill-opacity: 0; stroke: #2ca02c; stroke-linejoin: miter"/>
     <use xlink:href="#md50b311872" x="242.299339" y="335.302904" style="fill-opacity: 0; stroke: #2ca02c; stroke-linejoin: miter"/>
     <use xlink:href="#md50b311872" x="296.907603" y="337.770345" style="fill-opacity: 0; stroke: #2ca02c; stroke-linejoin: miter"/>
     <use xlink:href="#md50b311872" x="351.515868" y="338.331185" style="fill-opacity: 0; stroke: #2ca02c; stroke-linejoin: miter"/>
     <use xlink:href="#md50b311872" x="406.124132" y="338.785818" style="fill-opacity: 0; stroke: #2ca02c; stroke-linejoin: miter"/>
     <use xlink:href="#md50b311872" x="460.732397" y="338.540926" style="fill-opacity: 0; stroke: #2ca02c; stroke-linejoin: miter"/>
     <use xlink:href="#md50b311872" x="515.340661" y="334.09339" style="fill-opacity: 0; stroke: #2ca02c; stroke-linejoin: miter"/>
     <use xlink:href="#md50b311872" x="569.948926" y="339.587381" style="fill-opacity: 0; stroke: #2ca02c; stroke-linejoin: miter"/>
     <use xlink:href="#md50b311872" x="624.55719" y="342.992814" style="fill-opacity: 0; stroke: #2ca02c; stroke-linejoin: miter"/>
     <use xlink:href="#md50b311872" x="679.165455" y="344.414851" style="fill-opacity: 0; stroke: #2ca02c; stroke-linejoin: miter"/>
    </g>
   </g>
   <g id="line2d_29">
    <path d="M 187.691074 355.0558 
L 242.299339 350.694523 
L 296.907603 351.323081 
L 351.515868 348.163137 
L 406.124132 345.392386 
L 460.732397 344.750382 
L 515.340661 336.430957 
L 569.948926 331.134768 
L 624.55719 318.790737 
L 679.165455 296.486522 
" clip-path="url(#pa258ad2c33)" style="fill: none; stroke: #d62728; stroke-width: 1.5; stroke-linecap: square"/>
    <defs>
     <path id="m603b98ce70" d="M -0 4.949747 
L 4.949747 0 
L 0 -4.949747 
L -4.949747 -0 
z
" style="stroke: #d62728; stroke-linejoin: miter"/>
    </defs>
    <g clip-path="url(#pa258ad2c33)">
     <use xlink:href="#m603b98ce70" x="187.691074" y="355.0558" style="fill: #d62728; stroke: #d62728; stroke-linejoin: miter"/>
     <use xlink:href="#m603b98ce70" x="242.299339" y="350.694523" style="fill: #d62728; stroke: #d62728; stroke-linejoin: miter"/>
     <use xlink:href="#m603b98ce70" x="296.907603" y="351.323081" style="fill: #d62728; stroke: #d62728; stroke-linejoin: miter"/>
     <use xlink:href="#m603b98ce70" x="351.515868" y="348.163137" style="fill: #d62728; stroke: #d62728; stroke-linejoin: miter"/>
     <use xlink:href="#m603b98ce70" x="406.124132" y="345.392386" style="fill: #d62728; stroke: #d62728; stroke-linejoin: miter"/>
     <use xlink:href="#m603b98ce70" x="460.732397" y="344.750382" style="fill: #d62728; stroke: #d62728; stroke-linejoin: miter"/>
     <use xlink:href="#m603b98ce70" x="515.340661" y="336.430957" style="fill: #d62728; stroke: #d62728; stroke-linejoin: miter"/>
     <use xlink:href="#m603b98ce70" x="569.948926" y="331.134768" style="fill: #d62728; stroke: #d62728; stroke-linejoin: miter"/>
     <use xlink:href="#m603b98ce70" x="624.55719" y="318.790737" style="fill: #d62728; stroke: #d62728; stroke-linejoin: miter"/>
     <use xlink:href="#m603b98ce70" x="679.165455" y="296.486522" style="fill: #d62728; stroke: #d62728; stroke-linejoin: miter"/>
    </g>
   </g>
   <g id="line2d_30">
    <path d="M 187.691074 291.932426 
L 242.299339 276.193441 
L 296.907603 279.75705 
L 351.515868 264.277007 
L 406.124132 256.645957 
L 460.732397 247.084475 
L 515.340661 229.856553 
L 569.948926 202.659584 
L 624.55719 162.658906 
L 679.165455 87.936208 
" clip-path="url(#pa258ad2c33)" style="fill: none; stroke-dasharray: 5.55,2.4; stroke-dashoffset: 0; stroke: #d62728; stroke-width: 1.5"/>
    <defs>
     <path id="md94ce9d305" d="M -0 4.949747 
L 4.949747 0 
L 0 -4.949747 
L -4.949747 -0 
z
" style="stroke: #d62728; stroke-linejoin: miter"/>
    </defs>
    <g clip-path="url(#pa258ad2c33)">
     <use xlink:href="#md94ce9d305" x="187.691074" y="291.932426" style="fill-opacity: 0; stroke: #d62728; stroke-linejoin: miter"/>
     <use xlink:href="#md94ce9d305" x="242.299339" y="276.193441" style="fill-opacity: 0; stroke: #d62728; stroke-linejoin: miter"/>
     <use xlink:href="#md94ce9d305" x="296.907603" y="279.75705" style="fill-opacity: 0; stroke: #d62728; stroke-linejoin: miter"/>
     <use xlink:href="#md94ce9d305" x="351.515868" y="264.277007" style="fill-opacity: 0; stroke: #d62728; stroke-linejoin: miter"/>
     <use xlink:href="#md94ce9d305" x="406.124132" y="256.645957" style="fill-opacity: 0; stroke: #d62728; stroke-linejoin: miter"/>
     <use xlink:href="#md94ce9d305" x="460.732397" y="247.084475" style="fill-opacity: 0; stroke: #d62728; stroke-linejoin: miter"/>
     <use xlink:href="#md94ce9d305" x="515.340661" y="229.856553" style="fill-opacity: 0; stroke: #d62728; stroke-linejoin: miter"/>
     <use xlink:href="#md94ce9d305" x="569.948926" y="202.659584" style="fill-opacity: 0; stroke: #d62728; stroke-linejoin: miter"/>
     <use xlink:href="#md94ce9d305" x="624.55719" y="162.658906" style="fill-opacity: 0; stroke: #d62728; stroke-linejoin: miter"/>
     <use xlink:href="#md94ce9d305" x="679.165455" y="87.936208" style="fill-opacity: 0; stroke: #d62728; stroke-linejoin: miter"/>
    </g>
   </g>
   <g id="patch_3">
    <path d="M 48.44 389.32 
L 48.44 26.88 
" style="fill: none; stroke: #000000; stroke-width: 0.8; stroke-linejoin: miter; stroke-linecap: square"/>
   </g>
   <g id="patch_4">
    <path d="M 709.2 389.32 
L 709.2 26.88 
" style="fill: none; stroke: #000000; stroke-width: 0.8; stroke-linejoin: miter; stroke-linecap: square"/>
   </g>
   <g id="patch_5">
    <path d="M 48.44 389.32 
L 709.2 389.32 
" style="fill: none; stroke: #000000; stroke-width: 0.8; stroke-linejoin: miter; stroke-linecap: square"/>
   </g>
   <g id="patch_6">
    <path d="M 48.44 26.88 
L 709.2 26.88 
" style="fill: none; stroke: #000000; stroke-width: 0.8; stroke-linejoin: miter; stroke-linecap: square"/>
   </g>
   <g id="text_14">
    <!-- Bytes Per Butteraugli Per Pixel vs Quality -->
    <g transform="translate(256.030937 20.88) scale(0.12 -0.12)">
     <defs>
      <path id="DejaVuSans-76" d="M 191 3500 
L 800 3500 
L 1894 563 
L 2988 3500 
L 3597 3500 
L 2284 0 
L 1503 0 
L 191 3500 
z
" transform="scale(0.015625)"/>
     </defs>
     <use xlink:href="#DejaVuSans-42"/>
     <use xlink:href="#DejaVuSans-79" transform="translate(68.603516 0)"/>
     <use xlink:href="#DejaVuSans-74" transform="translate(127.783203 0)"/>
     <use xlink:href="#DejaVuSans-65" transform="translate(166.992188 0)"/>
     <use xlink:href="#DejaVuSans-73" transform="translate(228.515625 0)"/>
     <use xlink:href="#DejaVuSans-20" transform="translate(280.615234 0)"/>
     <use xlink:href="#DejaVuSans-50" transform="translate(312.402344 0)"/>
     <use xlink:href="#DejaVuSans-65" transform="translate(369.080078 0)"/>
     <use xlink:href="#DejaVuSans-72" transform="translate(430.603516 0)"/>
     <use xlink:href="#DejaVuSans-20" transform="translate(471.716797 0)"/>
     <use xlink:href="#DejaVuSans-42" transform="translate(503.503906 0)"/>
     <use xlink:href="#DejaVuSans-75" transform="translate(572.107422 0)"/>
     <use xlink:href="#DejaVuSans-74" transform="translate(635.486328 0)"/>
     <use xlink:href="#DejaVuSans-74" transform="translate(674.695312 0)"/>
     <use xlink:href="#DejaVuSans-65" transform="translate(713.904297 0)"/>
     <use xlink:href="#DejaVuSans-72" transform="translate(775.427734 0)"/>
     <use xlink:href="#DejaVuSans-61" transform="translate(816.541016 0)"/>
     <use xlink:href="#DejaVuSans-75" transform="translate(877.820312 0)"/>
     <use xlink:href="#DejaVuSans-67" transform="translate(941.199219 0)"/>
     <use xlink:href="#DejaVuSans-6c" transform="translate(1004.675781 0)"/>
     <use xlink:href="#DejaVuSans-69" transform="translate(1032.458984 0)"/>
     <use xlink:href="#DejaVuSans-20" transform="translate(1060.242188 0)"/>
     <use xlink:href="#DejaVuSans-50" transform="translate(1092.029297 0)"/>
     <use xlink:href="#DejaVuSans-65" transform="translate(1148.707031 0)"/>
     <use xlink:href="#DejaVuSans-72" transform="translate(1210.230469 0)"/>
     <use xlink:href="#DejaVuSans-20" transform="translate(1251.34375 0)"/>
     <use xlink:href="#DejaVuSans-50" transform="translate(1283.130859 0)"/>
     <use xlink:href="#DejaVuSans-69" transform="translate(1341.183594 0)"/>
     <use xlink:href="#DejaVuSans-78" transform="translate(1368.966797 0)"/>
     <use xlink:href="#DejaVuSans-65" transform="translate(1425.021484 0)"/>
     <use xlink:href="#DejaVuSans-6c" transform="translate(1486.544922 0)"/>
     <use xlink:href="#DejaVuSans-20" transform="translate(1514.328125 0)"/>
     <use xlink:href="#DejaVuSans-76" transform="translate(1546.115234 0)"/>
     <use xlink:href="#DejaVuSans-73" transform="translate(1605.294922 0)"/>
     <use xlink:href="#DejaVuSans-20" transform="translate(1657.394531 0)"/>
     <use xlink:href="#DejaVuSans-51" transform="translate(1689.181641 0)"/>
     <use xlink:href="#DejaVuSans-75" transform="translate(1767.892578 0)"/>
     <use xlink:href="#DejaVuSans-61" transform="translate(1831.271484 0)"/>
     <use xlink:href="#DejaVuSans-6c" transform="translate(1892.550781 0)"/>
     <use xlink:href="#DejaVuSans-69" transform="translate(1920.333984 0)"/>
     <use xlink:href="#DejaVuSans-74" transform="translate(1948.117188 0)"/>
     <use xlink:href="#DejaVuSans-79" transform="translate(1987.326172 0)"/>
    </g>
   </g>
   <g id="legend_1">
    <g id="patch_7">
     <path d="M 54.04 80.25 
L 249.0625 80.25 
Q 250.6625 80.25 250.6625 78.65 
L 250.6625 32.48 
Q 250.6625 30.88 249.0625 30.88 
L 54.04 30.88 
Q 52.44 30.88 52.44 32.48 
L 52.44 78.65 
Q 52.44 80.25 54.04 80.25 
z
" style="fill: #ffffff; opacity: 0.8; stroke: #cccccc; stroke-linejoin: miter"/>
    </g>
    <g id="line2d_31">
     <path d="M 55.64 37.35875 
L 63.64 37.35875 
L 71.64 37.35875 
" style="fill: none; stroke: #1f77b4; stroke-width: 1.5; stroke-linecap: square"/>
     <g>
      <use xlink:href="#m135c076389" x="63.64" y="37.35875" style="fill: #1f77b4; stroke: #1f77b4"/>
     </g>
    </g>
    <g id="text_15">
     <!-- avif (mean) -->
     <g transform="translate(78.04 40.15875) scale(0.08 -0.08)">
      <defs>
       <path id="DejaVuSans-66" d="M 2375 4863 
L 2375 4384 
L 1825 4384 
Q 1516 4384 1395 4259 
Q 1275 4134 1275 3809 
L 1275 3500 
L 2222 3500 
L 2222 3053 
L 1275 3053 
L 1275 0 
L 697 0 
L 697 3053 
L 147 3053 
L 147 3500 
L 697 3500 
L 697 3744 
Q 697 4328 969 4595 
Q 1241 4863 1831 4863 
L 2375 4863 
z
" transform="scale(0.015625)"/>
       <path id="DejaVuSans-6d" d="M 3328 2828 
Q 3544 3216 3844 3400 
Q 4144 3584 4550 3584 
Q 5097 3584 5394 3201 
Q 5691 2819 5691 2113 
L 5691 0 
L 5113 0 
L 5113 2094 
Q 5113 2597 4934 2840 
Q 4756 3084 4391 3084 
Q 3944 3084 3684 2787 
Q 3425 2491 3425 1978 
L 3425 0 
L 2847 0 
L 2847 2094 
Q 2847 2600 2669 2842 
Q 2491 3084 2119 3084 
Q 1678 3084 1418 2786 
Q 1159 2488 1159 1978 
L 1159 0 
L 581 0 
L 581 3500 
L 1159 3500 
L 1159 2956 
Q 1356 3278 1631 3431 
Q 1906 3584 2284 3584 
Q 2666 3584 2933 3390 
Q 3200 3197 3328 2828 
z
" transform="scale(0.015625)"/>
       <path id="DejaVuSans-6e" d="M 3513 2113 
L 3513 0 
L 2938 0 
L 2938 2094 
Q 2938 2591 2744 2837 
Q 2550 3084 2163 3084 
Q 1697 3084 1428 2787 
Q 1159 2491 1159 1978 
L 1159 0 
L 581 0 
L 581 3500 
L 1159 3500 
L 1159 2956 
Q 1366 3272 1645 3428 
Q 1925 3584 2291 3584 
Q 2894 3584 3203 3211 
Q 3513 2838 3513 2113 
z
" transform="scale(0.015625)"/>
      </defs>
      <use xlink:href="#DejaVuSans-61"/>
      <use xlink:href="#DejaVuSans-76" transform="translate(61.279297 0)"/>
      <use xlink:href="#DejaVuSans-69" transform="translate(120.458984 0)"/>
      <use xlink:href="#DejaVuSans-66" transform="translate(148.242188 0)"/>
      <use xlink:href="#DejaVuSans-20" transform="translate(183.447266 0)"/>
      <use xlink:href="#DejaVuSans-28" transform="translate(215.234375 0)"/>
      <use xlink:href="#DejaVuSans-6d" transform="translate(254.248047 0)"/>
      <use xlink:href="#DejaVuSans-65" transform="translate(351.660156 0)"/>
      <use xlink:href="#DejaVuSans-61" transform="translate(413.183594 0)"/>
      <use xlink:href="#DejaVuSans-6e" transform="translate(474.462891 0)"/>
      <use xlink:href="#DejaVuSans-29" transform="translate(537.841797 0)"/>
     </g>
    </g>
    <g id="line2d_32">
     <path d="M 55.64 49.10125 
L 63.64 49.10125 
L 71.64 49.10125 
" style="fill: none; stroke-dasharray: 5.55,2.4; stroke-dashoffset: 0; stroke: #1f77b4; stroke-width: 1.5"/>
     <g>
      <use xlink:href="#m2649575019" x="63.64" y="49.10125" style="fill-opacity: 0; stroke: #1f77b4"/>
     </g>
    </g>
    <g id="text_16">
     <!-- avif (5% worst) -->
     <g transform="translate(78.04 51.90125) scale(0.08 -0.08)">
      <defs>
       <path id="DejaVuSans-25" d="M 4653 2053 
Q 4381 2053 4226 1822 
Q 4072 1591 4072 1178 
Q 4072 772 4226 539 
Q 4381 306 4653 306 
Q 4919 306 5073 539 
Q 5228 772 5228 1178 
Q 5228 1588 5073 1820 
Q 4919 2053 4653 2053 
z
M 4653 2450 
Q 5147 2450 5437 2106 
Q 5728 1763 5728 1178 
Q 5728 594 5436 251 
Q 5144 -91 4653 -91 
Q 4153 -91 3862 251 
Q 3572 594 3572 1178 
Q 3572 1766 3864 2108 
Q 4156 2450 4653 2450 
z
M 1428 4353 
Q 1159 4353 1004 4120 
Q 850 3888 850 3481 
Q 850 3069 1003 2837 
Q 1156 2606 1428 2606 
Q 1700 2606 1854 2837 
Q 2009 3069 2009 3481 
Q 2009 3884 1853 4118 
Q 1697 4353 1428 4353 
z
M 4250 4750 
L 4750 4750 
L 1831 -91 
L 1331 -91 
L 4250 4750 
z
M 1428 4750 
Q 1922 4750 2215 4408 
Q 2509 4066 2509 3481 
Q 2509 2891 2217 2550 
Q 1925 2209 1428 2209 
Q 931 2209 642 2551 
Q 353 2894 353 3481 
Q 353 4063 643 4406 
Q 934 4750 1428 4750 
z
" transform="scale(0.015625)"/>
      </defs>
      <use xlink:href="#DejaVuSans-61"/>
      <use xlink:href="#DejaVuSans-76" transform="translate(61.279297 0)"/>
      <use xlink:href="#DejaVuSans-69" transform="translate(120.458984 0)"/>
      <use xlink:href="#DejaVuSans-66" transform="translate(148.242188 0)"/>
      <use xlink:href="#DejaVuSans-20" transform="translate(183.447266 0)"/>
      <use xlink:href="#DejaVuSans-28" transform="translate(215.234375 0)"/>
      <use xlink:href="#DejaVuSans-35" transform="translate(254.248047 0)"/>
      <use xlink:href="#DejaVuSans-25" transform="translate(317.871094 0)"/>
      <use xlink:href="#DejaVuSans-20" transform="translate(412.890625 0)"/>
      <use xlink:href="#DejaVuSans-77" transform="translate(444.677734 0)"/>
      <use xlink:href="#DejaVuSans-6f" transform="translate(526.464844 0)"/>
      <use xlink:href="#DejaVuSans-72" transform="translate(587.646484 0)"/>
      <use xlink:href="#DejaVuSans-73" transform="translate(628.759766 0)"/>
      <use xlink:href="#DejaVuSans-74" transform="translate(680.859375 0)"/>
      <use xlink:href="#DejaVuSans-29" transform="translate(720.068359 0)"/>
     </g>
    </g>
    <g id="line2d_33">
     <path d="M 55.64 60.84375 
L 63.64 60.84375 
L 71.64 60.84375 
" style="fill: none; stroke: #ff7f0e; stroke-width: 1.5; stroke-linecap: square"/>
     <g>
      <use xlink:href="#mfd413fecc5" x="63.64" y="60.84375" style="fill: #ff7f0e; stroke: #ff7f0e; stroke-linejoin: miter"/>
     </g>
    </g>
    <g id="text_17">
     <!-- jpeg (mean) -->
     <g transform="translate(78.04 63.64375) scale(0.08 -0.08)">
      <defs>
       <path id="DejaVuSans-6a" d="M 603 3500 
L 1178 3500 
L 1178 -63 
Q 1178 -731 923 -1031 
Q 669 -1331 103 -1331 
L -116 -1331 
L -116 -844 
L 38 -844 
Q 366 -844 484 -692 
Q 603 -541 603 -63 
L 603 3500 
z
M 603 4863 
L 1178 4863 
L 1178 4134 
L 603 4134 
L 603 4863 
z
" transform="scale(0.015625)"/>
       <path id="DejaVuSans-70" d="M 1159 525 
L 1159 -1331 
L 581 -1331 
L 581 3500 
L 1159 3500 
L 1159 2969 
Q 1341 3281 1617 3432 
Q 1894 3584 2278 3584 
Q 2916 3584 3314 3078 
Q 3713 2572 3713 1747 
Q 3713 922 3314 415 
Q 2916 -91 2278 -91 
Q 1894 -91 1617 61 
Q 1341 213 1159 525 
z
M 3116 1747 
Q 3116 2381 2855 2742 
Q 2594 3103 2138 3103 
Q 1681 3103 1420 2742 
Q 1159 2381 1159 1747 
Q 1159 1113 1420 752 
Q 1681 391 2138 391 
Q 2594 391 2855 752 
Q 3116 1113 3116 1747 
z
" transform="scale(0.015625)"/>
      </defs>
      <use xlink:href="#DejaVuSans-6a"/>
      <use xlink:href="#DejaVuSans-70" transform="translate(27.783203 0)"/>
      <use xlink:href="#DejaVuSans-65" transform="translate(91.259766 0)"/>
      <use xlink:href="#DejaVuSans-67" transform="translate(152.783203 0)"/>
      <use xlink:href="#DejaVuSans-20" transform="translate(216.259766 0)"/>
      <use xlink:href="#DejaVuSans-28" transform="translate(248.046875 0)"/>
      <use xlink:href="#DejaVuSans-6d" transform="translate(287.060547 0)"/>
      <use xlink:href="#DejaVuSans-65" transform="translate(384.472656 0)"/>
      <use xlink:href="#DejaVuSans-61" transform="translate(445.996094 0)"/>
      <use xlink:href="#DejaVuSans-6e" transform="translate(507.275391 0)"/>
      <use xlink:href="#DejaVuSans-29" transform="translate(570.654297 0)"/>
     </g>
    </g>
    <g id="line2d_34">
     <path d="M 55.64 72.58625 
L 63.64 72.58625 
L 71.64 72.58625 
" style="fill: none; stroke-dasharray: 5.55,2.4; stroke-dashoffset: 0; stroke: #ff7f0e; stroke-width: 1.5"/>
     <g>
      <use xlink:href="#m316cefb4d0" x="63.64" y="72.58625" style="fill-opacity: 0; stroke: #ff7f0e; stroke-linejoin: miter"/>
     </g>
    </g>
    <g id="text_18">
     <!-- jpeg (5% worst) -->
     <g transform="translate(78.04 75.38625) scale(0.08 -0.08)">
      <use xlink:href="#DejaVuSans-6a"/>
      <use xlink:href="#DejaVuSans-70" transform="translate(27.783203 0)"/>
      <use xlink:href="#DejaVuSans-65" transform="translate(91.259766 0)"/>
      <use xlink:href="#DejaVuSans-67" transform="translate(152.783203 0)"/>
      <use xlink:href="#DejaVuSans-20" transform="translate(216.259766 0)"/>
      <use xlink:href="#DejaVuSans-28" transform="translate(248.046875 0)"/>
      <use xlink:href="#DejaVuSans-35" transform="translate(287.060547 0)"/>
      <use xlink:href="#DejaVuSans-25" transform="translate(350.683594 0)"/>
      <use xlink:href="#DejaVuSans-20" transform="translate(445.703125 0)"/>
      <use xlink:href="#DejaVuSans-77" transform="translate(477.490234 0)"/>
      <use xlink:href="#DejaVuSans-6f" transform="translate(559.277344 0)"/>
      <use xlink:href="#DejaVuSans-72" transform="translate(620.458984 0)"/>
      <use xlink:href="#DejaVuSans-73" transform="translate(661.572266 0)"/>
      <use xlink:href="#DejaVuSans-74" transform="translate(713.671875 0)"/>
      <use xlink:href="#DejaVuSans-29" transform="translate(752.880859 0)"/>
     </g>
    </g>
    <g id="line2d_35">
     <path d="M 157.39125 37.35875 
L 165.39125 37.35875 
L 173.39125 37.35875 
" style="fill: none; stroke: #2ca02c; stroke-width: 1.5; stroke-linecap: square"/>
     <g>
      <use xlink:href="#mfe77a51b05" x="165.39125" y="37.35875" style="fill: #2ca02c; stroke: #2ca02c; stroke-linejoin: miter"/>
     </g>
    </g>
    <g id="text_19">
     <!-- jxl (mean) -->
     <g transform="translate(179.79125 40.15875) scale(0.08 -0.08)">
      <use xlink:href="#DejaVuSans-6a"/>
      <use xlink:href="#DejaVuSans-78" transform="translate(27.783203 0)"/>
      <use xlink:href="#DejaVuSans-6c" transform="translate(86.962891 0)"/>
      <use xlink:href="#DejaVuSans-20" transform="translate(114.746094 0)"/>
      <use xlink:href="#DejaVuSans-28" transform="translate(146.533203 0)"/>
      <use xlink:href="#DejaVuSans-6d" transform="translate(185.546875 0)"/>
      <use xlink:href="#DejaVuSans-65" transform="translate(282.958984 0)"/>
      <use xlink:href="#DejaVuSans-61" transform="translate(344.482422 0)"/>
      <use xlink:href="#DejaVuSans-6e" transform="translate(405.761719 0)"/>
      <use xlink:href="#DejaVuSans-29" transform="translate(469.140625 0)"/>
     </g>
    </g>
    <g id="line2d_36">
     <path d="M 157.39125 49.10125 
L 165.39125 49.10125 
L 173.39125 49.10125 
" style="fill: none; stroke-dasharray: 5.55,2.4; stroke-dashoffset: 0; stroke: #2ca02c; stroke-width: 1.5"/>
     <g>
      <use xlink:href="#md50b311872" x="165.39125" y="49.10125" style="fill-opacity: 0; stroke: #2ca02c; stroke-linejoin: miter"/>
     </g>
    </g>
    <g id="text_20">
     <!-- jxl (5% worst) -->
     <g transform="translate(179.79125 51.90125) scale(0.08 -0.08)">
      <use xlink:href="#DejaVuSans-6a"/>
      <use xlink:href="#DejaVuSans-78" transform="translate(27.783203 0)"/>
      <use xlink:href="#DejaVuSans-6c" transform="translate(86.962891 0)"/>
      <use xlink:href="#DejaVuSans-20" transform="translate(114.746094 0)"/>
      <use xlink:href="#DejaVuSans-28" transform="translate(146.533203 0)"/>
      <use xlink:href="#DejaVuSans-35" transform="translate(185.546875 0)"/>
      <use xlink:href="#DejaVuSans-25" transform="translate(249.169922 0)"/>
      <use xlink:href="#DejaVuSans-20" transform="translate(344.189453 0)"/>
      <use xlink:href="#DejaVuSans-77" transform="translate(375.976562 0)"/>
      <use xlink:href="#DejaVuSans-6f" transform="translate(457.763672 0)"/>
      <use xlink:href="#DejaVuSans-72" transform="translate(518.945312 0)"/>
      <use xlink:href="#DejaVuSans-73" transform="translate(560.058594 0)"/>
      <use xlink:href="#DejaVuSans-74" transform="translate(612.158203 0)"/>
      <use xlink:href="#DejaVuSans-29" transform="translate(651.367188 0)"/>
     </g>
    </g>
    <g id="line2d_37">
     <path d="M 157.39125 60.84375 
L 165.39125 60.84375 
L 173.39125 60.84375 
" style="fill: none; stroke: #d62728; stroke-width: 1.5; stroke-linecap: square"/>
     <g>
      <use xlink:href="#m603b98ce70" x="165.39125" y="60.84375" style="fill: #d62728; stroke: #d62728; stroke-linejoin: miter"/>
     </g>
    </g>
    <g id="text_21">
     <!-- webp (mean) -->
     <g transform="translate(179.79125 63.64375) scale(0.08 -0.08)">
      <use xlink:href="#DejaVuSans-77"/>
      <use xlink:href="#DejaVuSans-65" transform="translate(81.787109 0)"/>
      <use xlink:href="#DejaVuSans-62" transform="translate(143.310547 0)"/>
      <use xlink:href="#DejaVuSans-70" transform="translate(206.787109 0)"/>
      <use xlink:href="#DejaVuSans-20" transform="translate(270.263672 0)"/>
      <use xlink:href="#DejaVuSans-28" transform="translate(302.050781 0)"/>
      <use xlink:href="#DejaVuSans-6d" transform="translate(341.064453 0)"/>
      <use xlink:href="#DejaVuSans-65" transform="translate(438.476562 0)"/>
      <use xlink:href="#DejaVuSans-61" transform="translate(500 0)"/>
      <use xlink:href="#DejaVuSans-6e" transform="translate(561.279297 0)"/>
      <use xlink:href="#DejaVuSans-29" transform="translate(624.658203 0)"/>
     </g>
    </g>
    <g id="line2d_38">
     <path d="M 157.39125 72.58625 
L 165.39125 72.58625 
L 173.39125 72.58625 
" style="fill: none; stroke-dasharray: 5.55,2.4; stroke-dashoffset: 0; stroke: #d62728; stroke-width: 1.5"/>
     <g>
      <use xlink:href="#md94ce9d305" x="165.39125" y="72.58625" style="fill-opacity: 0; stroke: #d62728; stroke-linejoin: miter"/>
     </g>
    </g>
    <g id="text_22">
     <!-- webp (5% worst) -->
     <g transform="translate(179.79125 75.38625) scale(0.08 -0.08)">
      <use xlink:href="#DejaVuSans-77"/>
      <use xlink:href="#DejaVuSans-65" transform="translate(81.787109 0)"/>
      <use xlink:href="#DejaVuSans-62" transform="translate(143.310547 0)"/>
      <use xlink:href="#DejaVuSans-70" transform="translate(206.787109 0)"/>
      <use xlink:href="#DejaVuSans-20" transform="translate(270.263672 0)"/>
      <use xlink:href="#DejaVuSans-28" transform="translate(302.050781 0)"/>
      <use xlink:href="#DejaVuSans-35" transform="translate(341.064453 0)"/>
      <use xlink:href="#DejaVuSans-25" transform="translate(404.6875 0)"/>
      <use xlink:href="#DejaVuSans-20" transform="translate(499.707031 0)"/>
      <use xlink:href="#DejaVuSans-77" transform="translate(531.494141 0)"/>
      <use xlink:href="#DejaVuSans-6f" transform="translate(613.28125 0)"/>
      <use xlink:href="#DejaVuSans-72" transform="translate(674.462891 0)"/>
      <use xlink:href="#DejaVuSans-73" transform="translate(715.576172 0)"/>
      <use xlink:href="#DejaVuSans-74" transform="translate(767.675781 0)"/>
      <use xlink:href="#DejaVuSans-29" transform="translate(806.884766 0)"/>
     </g>
    </g>
   </g>
  </g>
 </g>
 <defs>
  <clipPath id="pa258ad2c33">
   <rect x="48.44" y="26.88" width="660.76" height="362.44"/>
  </clipPath>
 </defs>
</svg>
