<svg xmlns="http://www.w3.org/2000/svg" xmlns:xlink="http://www.w3.org/1999/xlink" width="960" height="576" viewBox="0 0 720 432"><path d="M0 432h720V0H0z" style="fill:#fff"/><path d="M54.7 389.3h654.5V27H54.7z" style="fill:#fff"/><path d="M91.7 389.3V27" clip-path="url(#a)" style="fill:none;stroke:#b0b0b0;stroke-opacity:.3;stroke-width:.8;stroke-linecap:square"/><defs><path id="b" d="M0 0v3.5" style="stroke:#000;stroke-width:.8"/></defs><use xlink:href="#b" x="91.7" y="389.3" style="stroke:#000;stroke-width:.8"/><g transform="matrix(.1 0 0 -.1 80.6 404)"><defs><path id="c" d="M2034 4250q-487 0-733-480-245-479-245-1442 0-959 245-1439 246-480 733-480 491 0 736 480 246 480 246 1439 0 963-246 1442-245 480-736 480m0 500q785 0 1199-621 414-620 414-1801 0-1178-414-1799Q2819-91 2034-91q-784 0-1198 620-414 621-414 1799 0 1181 414 1801 414 621 1198 621" transform="scale(.01563)"/><path id="d" d="M684 794h660V0H684z" transform="scale(.01563)"/><path id="e" d="M691 4666h2478v-532H1269V2991q137 47 274 70 138 23 276 23 781 0 1237-428 457-428 457-1159 0-753-469-1171Q2575-91 1722-91q-294 0-599 50Q819 9 494 109v635q281-153 581-228t634-75q541 0 856 284 316 284 316 772 0 487-316 771-315 285-856 285-253 0-505-56-251-56-513-175z" transform="scale(.01563)"/></defs><use xlink:href="#c"/><use xlink:href="#d" transform="translate(63.6)"/><use xlink:href="#c" transform="translate(95.4)"/><use xlink:href="#e" transform="translate(159)"/></g><path d="M166.3 389.3V27" clip-path="url(#a)" style="fill:none;stroke:#b0b0b0;stroke-opacity:.3;stroke-width:.8;stroke-linecap:square"/><use xlink:href="#b" x="166.3" y="389.3" style="stroke:#000;stroke-width:.8"/><g transform="matrix(.1 0 0 -.1 155.2 404)"><defs><path id="f" d="M794 531h1031v3560L703 3866v575l1116 225h631V531h1031V0H794z" transform="scale(.01563)"/></defs><use xlink:href="#c"/><use xlink:href="#d" transform="translate(63.6)"/><use xlink:href="#f" transform="translate(95.4)"/><use xlink:href="#c" transform="translate(159)"/></g><path d="M241 389.3V27" clip-path="url(#a)" style="fill:none;stroke:#b0b0b0;stroke-opacity:.3;stroke-width:.8;stroke-linecap:square"/><use xlink:href="#b" x="241" y="389.3" style="stroke:#000;stroke-width:.8"/><g transform="matrix(.1 0 0 -.1 229.8 404)"><use xlink:href="#c"/><use xlink:href="#d" transform="translate(63.6)"/><use xlink:href="#f" transform="translate(95.4)"/><use xlink:href="#e" transform="translate(159)"/></g><path d="M315.6 389.3V27" clip-path="url(#a)" style="fill:none;stroke:#b0b0b0;stroke-opacity:.3;stroke-width:.8;stroke-linecap:square"/><use xlink:href="#b" x="315.6" y="389.3" style="stroke:#000;stroke-width:.8"/><g transform="matrix(.1 0 0 -.1 304.4 404)"><defs><path id="g" d="M1228 531h2203V0H469v531q359 372 979 998 621 627 780 809 303 340 423 576 121 236 121 464 0 372-261 606-261 235-680 235-297 0-627-103-329-103-704-313v638q381 153 712 231 332 78 607 78 725 0 1156-363 431-362 431-968 0-288-108-546-107-257-392-607-78-91-497-524-418-433-1181-1211" transform="scale(.01563)"/></defs><use xlink:href="#c"/><use xlink:href="#d" transform="translate(63.6)"/><use xlink:href="#g" transform="translate(95.4)"/><use xlink:href="#c" transform="translate(159)"/></g><path d="M390.2 389.3V27" clip-path="url(#a)" style="fill:none;stroke:#b0b0b0;stroke-opacity:.3;stroke-width:.8;stroke-linecap:square"/><use xlink:href="#b" x="390.2" y="389.3" style="stroke:#000;stroke-width:.8"/><g transform="matrix(.1 0 0 -.1 379 404)"><use xlink:href="#c"/><use xlink:href="#d" transform="translate(63.6)"/><use xlink:href="#g" transform="translate(95.4)"/><use xlink:href="#e" transform="translate(159)"/></g><path d="M464.8 389.3V27" clip-path="url(#a)" style="fill:none;stroke:#b0b0b0;stroke-opacity:.3;stroke-width:.8;stroke-linecap:square"/><use xlink:href="#b" x="464.8" y="389.3" style="stroke:#000;stroke-width:.8"/><g transform="matrix(.1 0 0 -.1 453.7 404)"><defs><path id="h" d="M2597 2516q453-97 707-404 255-306 255-756 0-690-475-1069Q2609-91 1734-91q-293 0-604 58T488 141v609q262-153 574-231 313-78 654-78 593 0 904 234t311 681q0 413-289 645-289 233-804 233h-544v519h569q465 0 712 186t247 536q0 359-255 551-254 193-729 193-260 0-557-57-297-56-653-174v562q360 100 674 150t592 50q719 0 1137-327 419-326 419-882 0-388-222-655t-631-370" transform="scale(.01563)"/></defs><use xlink:href="#c"/><use xlink:href="#d" transform="translate(63.6)"/><use xlink:href="#h" transform="translate(95.4)"/><use xlink:href="#c" transform="translate(159)"/></g><path d="M539.4 389.3V27" clip-path="url(#a)" style="fill:none;stroke:#b0b0b0;stroke-opacity:.3;stroke-width:.8;stroke-linecap:square"/><use xlink:href="#b" x="539.4" y="389.3" style="stroke:#000;stroke-width:.8"/><g transform="matrix(.1 0 0 -.1 528.3 404)"><use xlink:href="#c"/><use xlink:href="#d" transform="translate(63.6)"/><use xlink:href="#h" transform="translate(95.4)"/><use xlink:href="#e" transform="translate(159)"/></g><path d="M614 389.3V27" clip-path="url(#a)" style="fill:none;stroke:#b0b0b0;stroke-opacity:.3;stroke-width:.8;stroke-linecap:square"/><use xlink:href="#b" x="614" y="389.3" style="stroke:#000;stroke-width:.8"/><g transform="matrix(.1 0 0 -.1 602.9 404)"><defs><path id="i" d="M2419 4116 825 1625h1594zm-166 550h794V1625h666v-525h-666V0h-628v1100H313v609z" transform="scale(.01563)"/></defs><use xlink:href="#c"/><use xlink:href="#d" transform="translate(63.6)"/><use xlink:href="#i" transform="translate(95.4)"/><use xlink:href="#c" transform="translate(159)"/></g><path d="M688.6 389.3V27" clip-path="url(#a)" style="fill:none;stroke:#b0b0b0;stroke-opacity:.3;stroke-width:.8;stroke-linecap:square"/><use xlink:href="#b" x="688.6" y="389.3" style="stroke:#000;stroke-width:.8"/><g transform="matrix(.1 0 0 -.1 677.5 404)"><use xlink:href="#c"/><use xlink:href="#d" transform="translate(63.6)"/><use xlink:href="#i" transform="translate(95.4)"/><use xlink:href="#e" transform="translate(159)"/></g><g transform="matrix(.11 0 0 -.11 295.4 418.4)"><defs><path id="j" d="M1259 2228V519h1013q509 0 754 211 246 211 246 645 0 438-246 645-245 208-754 208zm0 1919V2741h935q462 0 688 173 227 174 227 530 0 353-227 528-226 175-688 175zm-631 519h1613q722 0 1112-300 391-300 391-853 0-429-200-682t-588-315q466-100 724-418 258-317 258-792 0-625-425-966Q3088 0 2303 0H628z" transform="scale(.01563)"/><path id="k" d="M2059-325q-243-625-475-815-231-191-618-191H506v481h338q237 0 368 113 132 112 291 531l103 262L191 3500h609L1894 763l1094 2737h609z" transform="scale(.01563)"/><path id="l" d="M1172 4494v-994h1184v-447H1172V1153q0-428 117-550t477-122h590V0h-590q-666 0-919 248-253 249-253 905v1900H172v447h422v994z" transform="scale(.01563)"/><path id="m" d="M3597 1894v-281H953q38-594 358-905t892-311q331 0 642 81t618 244V178Q3153 47 2828-22t-659-69q-838 0-1327 487-489 488-489 1320 0 859 464 1363 464 505 1252 505 706 0 1117-455 411-454 411-1235m-575 169q-6 471-264 752-258 282-683 282-481 0-770-272t-333-766z" transform="scale(.01563)"/><path id="n" d="M2834 3397v-544q-243 125-506 187-262 63-544 63-428 0-642-131t-214-394q0-200 153-314t616-217l197-44q612-131 870-370t258-667q0-488-386-773Q2250-91 1575-91q-281 0-586 55T347 128v594q319-166 628-249 309-82 613-82 406 0 624 139 219 139 219 392 0 234-158 359-157 125-692 241l-200 47q-534 112-772 345-237 233-237 639 0 494 350 762 350 269 994 269 318 0 599-47 282-46 519-140" transform="scale(.01563)"/><path id="o" d="M1159 525v-1856H581v4831h578v-531q182 312 458 463 277 152 661 152 638 0 1036-506 399-506 399-1331T3314 415Q2916-91 2278-91q-384 0-661 152-276 152-458 464m1957 1222q0 634-261 995t-717 361q-457 0-718-361t-261-995 261-995 718-361q456 0 717 361t261 995" transform="scale(.01563)"/><path id="p" d="M2631 2963q-97 56-211 82-114 27-251 27-488 0-749-317t-261-911V0H581v3500h578v-544q182 319 472 473 291 155 707 155 59 0 131-8 72-7 159-23z" transform="scale(.01563)"/><path id="q" d="M1259 4147V2394h794q441 0 681 228 241 228 241 650 0 419-241 647-240 228-681 228zm-631 519h1425q785 0 1186-355 402-355 402-1039 0-691-402-1044-401-353-1186-353h-794V0H628z" transform="scale(.01563)"/><path id="r" d="M603 3500h575V0H603zm0 1363h575v-729H603z" transform="scale(.01563)"/><path id="s" d="M3513 3500 2247 1797 3578 0h-678L1881 1375 863 0H184l1360 1831L300 3500h678l928-1247 928 1247z" transform="scale(.01563)"/><path id="t" d="M603 4863h575V0H603z" transform="scale(.01563)"/><path id="u" d="M1984 4856q-418-718-622-1422-203-703-203-1425 0-721 205-1429t620-1424h-500Q1016-109 783 600T550 2009q0 697 231 1403 232 707 703 1444z" transform="scale(.01563)"/><path id="v" d="M1959 3097q-462 0-731-361t-269-989 267-989q268-361 733-361 460 0 728 362 269 363 269 988 0 622-269 986-268 364-728 364m0 487q750 0 1178-488 429-487 429-1349 0-859-429-1349Q2709-91 1959-91q-753 0-1180 489-426 490-426 1349 0 862 426 1349 427 488 1180 488" transform="scale(.01563)"/><path id="w" d="M269 3500h575l719-2731 715 2731h678l719-2731 716 2731h575L4050 0h-678l-753 2869L1863 0h-679z" transform="scale(.01563)"/><path id="x" d="M3116 1747q0 634-261 995t-717 361q-457 0-718-361t-261-995 261-995 718-361q456 0 717 361t261 995M1159 2969q182 312 458 463 277 152 661 152 638 0 1036-506 399-506 399-1331T3314 415Q2916-91 2278-91q-384 0-661 152-276 152-458 464V0H581v4863h578z" transform="scale(.01563)"/><path id="y" d="M513 4856h500q468-737 701-1444 233-706 233-1403 0-700-233-1409T1013-844H513q415 716 620 1424t205 1429q0 722-205 1425-205 704-620 1422" transform="scale(.01563)"/></defs><use xlink:href="#j"/><use xlink:href="#k" transform="translate(68.6)"/><use xlink:href="#l" transform="translate(127.8)"/><use xlink:href="#m" transform="translate(167)"/><use xlink:href="#n" transform="translate(228.5)"/><use xlink:href="#o" transform="translate(312.4)"/><use xlink:href="#m" transform="translate(375.9)"/><use xlink:href="#p" transform="translate(437.4)"/><use xlink:href="#q" transform="translate(510.3)"/><use xlink:href="#r" transform="translate(568.4)"/><use xlink:href="#s" transform="translate(596.1)"/><use xlink:href="#m" transform="translate(652.2)"/><use xlink:href="#t" transform="translate(713.7)"/><use xlink:href="#u" transform="translate(773.3)"/><use xlink:href="#t" transform="translate(812.3)"/><use xlink:href="#v" transform="translate(840)"/><use xlink:href="#w" transform="translate(901.3)"/><use xlink:href="#m" transform="translate(983)"/><use xlink:href="#p" transform="translate(1044.6)"/><use xlink:href="#r" transform="translate(1117.5)"/><use xlink:href="#n" transform="translate(1145.3)"/><use xlink:href="#x" transform="translate(1229.1)"/><use xlink:href="#m" transform="translate(1292.6)"/><use xlink:href="#l" transform="translate(1354.1)"/><use xlink:href="#l" transform="translate(1393.4)"/><use xlink:href="#m" transform="translate(1432.6)"/><use xlink:href="#p" transform="translate(1494)"/><use xlink:href="#y" transform="translate(1535.2)"/></g><path d="M54.7 341.9h654.5" clip-path="url(#a)" style="fill:none;stroke:#b0b0b0;stroke-opacity:.3;stroke-width:.8;stroke-linecap:square"/><defs><path id="z" d="M0 0h-3.5" style="stroke:#000;stroke-width:.8"/></defs><use xlink:href="#z" x="54.7" y="341.9" style="stroke:#000;stroke-width:.8"/><g transform="matrix(.1 0 0 -.1 25.5 345.7)"><defs><path id="A" d="M2034 2216q-450 0-708-241-257-241-257-662 0-422 257-663 258-241 708-241t709 242q260 243 260 662 0 421-258 662-257 241-711 241m-631 268q-406 100-633 378-226 279-226 679 0 559 398 884 399 325 1092 325 697 0 1094-325t397-884q0-400-227-679-226-278-629-378 456-106 710-416 255-309 255-755 0-679-414-1042Q2806-91 2034-91q-771 0-1186 362-414 363-414 1042 0 446 256 755 257 310 713 416m-231 997q0-362 226-565 227-203 636-203 407 0 636 203 230 203 230 565 0 363-230 566-229 203-636 203-409 0-636-203-226-203-226-566" transform="scale(.01563)"/></defs><use xlink:href="#c"/><use xlink:href="#d" transform="translate(63.6)"/><use xlink:href="#A" transform="translate(95.4)"/><use xlink:href="#c" transform="translate(159)"/></g><path d="M54.7 263.2h654.5" clip-path="url(#a)" style="fill:none;stroke:#b0b0b0;stroke-opacity:.3;stroke-width:.8;stroke-linecap:square"/><use xlink:href="#z" x="54.7" y="263.2" style="stroke:#000;stroke-width:.8"/><g transform="matrix(.1 0 0 -.1 25.5 267)"><use xlink:href="#c"/><use xlink:href="#d" transform="translate(63.6)"/><use xlink:href="#A" transform="translate(95.4)"/><use xlink:href="#e" transform="translate(159)"/></g><path d="M54.7 184.5h654.5" clip-path="url(#a)" style="fill:none;stroke:#b0b0b0;stroke-opacity:.3;stroke-width:.8;stroke-linecap:square"/><use xlink:href="#z" x="54.7" y="184.5" style="stroke:#000;stroke-width:.8"/><g transform="matrix(.1 0 0 -.1 25.5 188.3)"><defs><path id="B" d="M703 97v575q238-113 481-172 244-59 479-59 625 0 954 420 330 420 377 1277-181-269-460-413-278-144-615-144-700 0-1108 423-408 424-408 1159 0 718 425 1152 425 435 1131 435 810 0 1236-621 427-620 427-1801 0-1103-524-1761Q2575-91 1691-91q-238 0-482 47Q966 3 703 97m1256 1978q425 0 673 290 249 291 249 798 0 503-249 795-248 292-673 292t-673-292-248-795q0-507 248-798 248-290 673-290" transform="scale(.01563)"/></defs><use xlink:href="#c"/><use xlink:href="#d" transform="translate(63.6)"/><use xlink:href="#B" transform="translate(95.4)"/><use xlink:href="#c" transform="translate(159)"/></g><path d="M54.7 105.8h654.5" clip-path="url(#a)" style="fill:none;stroke:#b0b0b0;stroke-opacity:.3;stroke-width:.8;stroke-linecap:square"/><use xlink:href="#z" x="54.7" y="105.8" style="stroke:#000;stroke-width:.8"/><g transform="matrix(.1 0 0 -.1 25.5 109.6)"><use xlink:href="#c"/><use xlink:href="#d" transform="translate(63.6)"/><use xlink:href="#B" transform="translate(95.4)"/><use xlink:href="#e" transform="translate(159)"/></g><path d="M54.7 27.1h654.5" clip-path="url(#a)" style="fill:none;stroke:#b0b0b0;stroke-opacity:.3;stroke-width:.8;stroke-linecap:square"/><use xlink:href="#z" x="54.7" y="27.1" style="stroke:#000;stroke-width:.8"/><g transform="matrix(.1 0 0 -.1 25.5 31)"><use xlink:href="#f"/><use xlink:href="#d" transform="translate(63.6)"/><use xlink:href="#c" transform="translate(95.4)"/><use xlink:href="#c" transform="translate(159)"/></g><g transform="matrix(0 -.11 -.11 0 19.2 269.8)"><defs><path id="C" d="M3425 4513v-616q-359 172-678 256-319 85-616 85-515 0-795-200t-280-569q0-310 186-468 186-157 705-254l381-78q706-135 1042-474t336-907q0-679-455-1029Q2797-91 1919-91q-331 0-705 75-373 75-773 222v650q384-215 753-325 369-109 725-109 540 0 834 212 294 213 294 607 0 343-211 537t-692 291l-385 75q-706 140-1022 440-315 300-315 835 0 619 436 975t1201 356q329 0 669-60 341-59 697-177" transform="scale(.01563)"/><path id="D" d="M628 4666h631V0H628z" transform="scale(.01563)"/><path id="E" d="M628 4666h941l1190-3175 1197 3175h941V0h-616v4097L3078 897h-634L1241 4097V0H628z" transform="scale(.01563)"/><path id="F" d="M3513 2113V0h-575v2094q0 497-194 743-194 247-581 247-466 0-735-297-269-296-269-809V0H581v4863h578V2956q207 316 486 472 280 156 646 156 603 0 912-373 310-373 310-1098" transform="scale(.01563)"/><path id="G" d="M2906 1791q0 625-258 968-257 344-723 344-462 0-720-344-258-343-258-968 0-622 258-966t720-344q466 0 723 344 258 344 258 966m575-1357q0-893-397-1329-396-436-1215-436-303 0-572 45t-522 139v559q253-137 500-202 247-66 503-66 566 0 847 295t281 892v285q-178-310-456-463T1784 0Q1141 0 747 490 353 981 353 1791q0 812 394 1302 394 491 1037 491 388 0 666-153t456-462v531h575z" transform="scale(.01563)"/></defs><use xlink:href="#C"/><use xlink:href="#C" transform="translate(63.5)"/><use xlink:href="#D" transform="translate(127)"/><use xlink:href="#E" transform="translate(156.4)"/><use xlink:href="#u" transform="translate(274.5)"/><use xlink:href="#F" transform="translate(313.5)"/><use xlink:href="#r" transform="translate(376.9)"/><use xlink:href="#G" transform="translate(404.7)"/><use xlink:href="#F" transform="translate(468.2)"/><use xlink:href="#m" transform="translate(531.5)"/><use xlink:href="#p" transform="translate(593)"/><use xlink:href="#r" transform="translate(666)"/><use xlink:href="#n" transform="translate(693.8)"/><use xlink:href="#x" transform="translate(777.6)"/><use xlink:href="#m" transform="translate(841.1)"/><use xlink:href="#l" transform="translate(902.6)"/><use xlink:href="#l" transform="translate(941.8)"/><use xlink:href="#m" transform="translate(981)"/><use xlink:href="#p" transform="translate(1042.6)"/><use xlink:href="#y" transform="translate(1083.7)"/></g><path d="m84.8 184.2 16.1-23.7L120 140l21.4-16.6 34.4-19 31-12.8 30.3-9.4 29-7 35.5-7 49.2-7.3 99.4-10.1 132.5-7.4" clip-path="url(#a)" style="fill:none;stroke:#1f77b4;stroke-width:1.5;stroke-linecap:square"/><defs><path id="H" d="M0 3.5a3.5 3.5 0 1 0 0-7 3.5 3.5 0 0 0 0 7z" style="stroke:#1f77b4"/></defs><g clip-path="url(#a)"><use xlink:href="#H" x="84.8" y="184.2" style="fill:#1f77b4;stroke:#1f77b4"/><use xlink:href="#H" x="100.9" y="160.5" style="fill:#1f77b4;stroke:#1f77b4"/><use xlink:href="#H" x="120" y="140" style="fill:#1f77b4;stroke:#1f77b4"/><use xlink:href="#H" x="141.4" y="123.4" style="fill:#1f77b4;stroke:#1f77b4"/><use xlink:href="#H" x="175.8" y="104.4" style="fill:#1f77b4;stroke:#1f77b4"/><use xlink:href="#H" x="206.9" y="91.6" style="fill:#1f77b4;stroke:#1f77b4"/><use xlink:href="#H" x="237.1" y="82.2" style="fill:#1f77b4;stroke:#1f77b4"/><use xlink:href="#H" x="266.2" y="75.2" style="fill:#1f77b4;stroke:#1f77b4"/><use xlink:href="#H" x="301.6" y="68.2" style="fill:#1f77b4;stroke:#1f77b4"/><use xlink:href="#H" x="350.8" y="60.9" style="fill:#1f77b4;stroke:#1f77b4"/><use xlink:href="#H" x="450.2" y="50.8" style="fill:#1f77b4;stroke:#1f77b4"/><use xlink:href="#H" x="582.7" y="43.4" style="fill:#1f77b4;stroke:#1f77b4"/></g><path d="m84.8 326.4 16.1-28.4 19.1-33 21.4-30.4 34.4-44.7 31-25.5 30.3-19.4 29-12.8 35.5-14.2 49.2-17.8 99.4-22.1 132.5-21.2" clip-path="url(#a)" style="fill:none;stroke-dasharray:5.55,2.4;stroke-dashoffset:0;stroke:#1f77b4;stroke-width:1.5"/><defs><path id="I" d="M0 3.5a3.5 3.5 0 1 0 0-7 3.5 3.5 0 0 0 0 7z" style="stroke:#1f77b4"/></defs><g clip-path="url(#a)"><use xlink:href="#I" x="84.8" y="326.4" style="fill-opacity:0;stroke:#1f77b4"/><use xlink:href="#I" x="100.9" y="298" style="fill-opacity:0;stroke:#1f77b4"/><use xlink:href="#I" x="120" y="265" style="fill-opacity:0;stroke:#1f77b4"/><use xlink:href="#I" x="141.4" y="234.6" style="fill-opacity:0;stroke:#1f77b4"/><use xlink:href="#I" x="175.8" y="189.9" style="fill-opacity:0;stroke:#1f77b4"/><use xlink:href="#I" x="206.9" y="164.4" style="fill-opacity:0;stroke:#1f77b4"/><use xlink:href="#I" x="237.1" y="145" style="fill-opacity:0;stroke:#1f77b4"/><use xlink:href="#I" x="266.2" y="132.2" style="fill-opacity:0;stroke:#1f77b4"/><use xlink:href="#I" x="301.6" y="118" style="fill-opacity:0;stroke:#1f77b4"/><use xlink:href="#I" x="350.8" y="100.2" style="fill-opacity:0;stroke:#1f77b4"/><use xlink:href="#I" x="450.2" y="78.1" style="fill-opacity:0;stroke:#1f77b4"/><use xlink:href="#I" x="582.7" y="56.9" style="fill-opacity:0;stroke:#1f77b4"/></g><path d="m132.7 208.6 11.8-13.4 9.8-3.3 11.2-18 9.8-7.8 10.2-7.6 12.8-7.1 15.9-9.3 19.7-.6 22.6-18.1L292 112l50.2-13 87.3-15.7 188-19.5" clip-path="url(#a)" style="fill:none;stroke:#ff7f0e;stroke-width:1.5;stroke-linecap:square"/><defs><path id="J" d="M-3.5 3.5h7v-7h-7z" style="stroke:#ff7f0e;stroke-linejoin:miter"/></defs><g clip-path="url(#a)"><use xlink:href="#J" x="132.7" y="208.6" style="fill:#ff7f0e;stroke:#ff7f0e;stroke-linejoin:miter"/><use xlink:href="#J" x="144.5" y="195.2" style="fill:#ff7f0e;stroke:#ff7f0e;stroke-linejoin:miter"/><use xlink:href="#J" x="154.3" y="191.9" style="fill:#ff7f0e;stroke:#ff7f0e;stroke-linejoin:miter"/><use xlink:href="#J" x="165.5" y="173.9" style="fill:#ff7f0e;stroke:#ff7f0e;stroke-linejoin:miter"/><use xlink:href="#J" x="175.3" y="166.1" style="fill:#ff7f0e;stroke:#ff7f0e;stroke-linejoin:miter"/><use xlink:href="#J" x="185.5" y="158.5" style="fill:#ff7f0e;stroke:#ff7f0e;stroke-linejoin:miter"/><use xlink:href="#J" x="198.3" y="151.4" style="fill:#ff7f0e;stroke:#ff7f0e;stroke-linejoin:miter"/><use xlink:href="#J" x="214.2" y="142.1" style="fill:#ff7f0e;stroke:#ff7f0e;stroke-linejoin:miter"/><use xlink:href="#J" x="233.9" y="141.5" style="fill:#ff7f0e;stroke:#ff7f0e;stroke-linejoin:miter"/><use xlink:href="#J" x="256.5" y="123.4" style="fill:#ff7f0e;stroke:#ff7f0e;stroke-linejoin:miter"/><use xlink:href="#J" x="292" y="112.1" style="fill:#ff7f0e;stroke:#ff7f0e;stroke-linejoin:miter"/><use xlink:href="#J" x="342.2" y="99" style="fill:#ff7f0e;stroke:#ff7f0e;stroke-linejoin:miter"/><use xlink:href="#J" x="429.5" y="83.4" style="fill:#ff7f0e;stroke:#ff7f0e;stroke-linejoin:miter"/><use xlink:href="#J" x="617.5" y="63.9" style="fill:#ff7f0e;stroke:#ff7f0e;stroke-linejoin:miter"/></g><path d="m132.7 361.7 11.8-18.7 9.8-.1 11.2-39.3 9.8-14 10.2-9.8 12.8.5 15.9-31 19.7 8.4 22.6-43 35.5-21.3 50.2-18.3 87.3-44.6 188-33.8" clip-path="url(#a)" style="fill:none;stroke-dasharray:5.55,2.4;stroke-dashoffset:0;stroke:#ff7f0e;stroke-width:1.5"/><defs><path id="K" d="M-3.5 3.5h7v-7h-7z" style="stroke:#ff7f0e;stroke-linejoin:miter"/></defs><g clip-path="url(#a)"><use xlink:href="#K" x="132.7" y="361.7" style="fill-opacity:0;stroke:#ff7f0e;stroke-linejoin:miter"/><use xlink:href="#K" x="144.5" y="343" style="fill-opacity:0;stroke:#ff7f0e;stroke-linejoin:miter"/><use xlink:href="#K" x="154.3" y="342.9" style="fill-opacity:0;stroke:#ff7f0e;stroke-linejoin:miter"/><use xlink:href="#K" x="165.5" y="303.6" style="fill-opacity:0;stroke:#ff7f0e;stroke-linejoin:miter"/><use xlink:href="#K" x="175.3" y="289.6" style="fill-opacity:0;stroke:#ff7f0e;stroke-linejoin:miter"/><use xlink:href="#K" x="185.5" y="279.8" style="fill-opacity:0;stroke:#ff7f0e;stroke-linejoin:miter"/><use xlink:href="#K" x="198.3" y="280.3" style="fill-opacity:0;stroke:#ff7f0e;stroke-linejoin:miter"/><use xlink:href="#K" x="214.2" y="249.2" style="fill-opacity:0;stroke:#ff7f0e;stroke-linejoin:miter"/><use xlink:href="#K" x="233.9" y="257.7" style="fill-opacity:0;stroke:#ff7f0e;stroke-linejoin:miter"/><use xlink:href="#K" x="256.5" y="214.7" style="fill-opacity:0;stroke:#ff7f0e;stroke-linejoin:miter"/><use xlink:href="#K" x="292" y="193.4" style="fill-opacity:0;stroke:#ff7f0e;stroke-linejoin:miter"/><use xlink:href="#K" x="342.2" y="175.1" style="fill-opacity:0;stroke:#ff7f0e;stroke-linejoin:miter"/><use xlink:href="#K" x="429.5" y="130.5" style="fill-opacity:0;stroke:#ff7f0e;stroke-linejoin:miter"/><use xlink:href="#K" x="617.5" y="96.7" style="fill-opacity:0;stroke:#ff7f0e;stroke-linejoin:miter"/></g><path d="m84.5 228 5.2-11 6.4-11.4 8.2-11.8 9.2-10.8 12.4-14.3 14.5-15.5 21.9-16.7 32.1-18.6 48.3-19.2 81.5-19.9 167-19.7" clip-path="url(#a)" style="fill:none;stroke:#2ca02c;stroke-width:1.5;stroke-linecap:square"/><defs><path id="L" d="m0-3.5-3.5 7h7z" style="stroke:#2ca02c;stroke-linejoin:miter"/></defs><g clip-path="url(#a)"><use xlink:href="#L" x="84.5" y="228" style="fill:#2ca02c;stroke:#2ca02c;stroke-linejoin:miter"/><use xlink:href="#L" x="89.7" y="217" style="fill:#2ca02c;stroke:#2ca02c;stroke-linejoin:miter"/><use xlink:href="#L" x="96.1" y="205.6" style="fill:#2ca02c;stroke:#2ca02c;stroke-linejoin:miter"/><use xlink:href="#L" x="104.3" y="193.8" style="fill:#2ca02c;stroke:#2ca02c;stroke-linejoin:miter"/><use xlink:href="#L" x="113.5" y="183" style="fill:#2ca02c;stroke:#2ca02c;stroke-linejoin:miter"/><use xlink:href="#L" x="125.9" y="168.7" style="fill:#2ca02c;stroke:#2ca02c;stroke-linejoin:miter"/><use xlink:href="#L" x="140.4" y="153.2" style="fill:#2ca02c;stroke:#2ca02c;stroke-linejoin:miter"/><use xlink:href="#L" x="162.3" y="136.5" style="fill:#2ca02c;stroke:#2ca02c;stroke-linejoin:miter"/><use xlink:href="#L" x="194.4" y="117.9" style="fill:#2ca02c;stroke:#2ca02c;stroke-linejoin:miter"/><use xlink:href="#L" x="242.7" y="98.7" style="fill:#2ca02c;stroke:#2ca02c;stroke-linejoin:miter"/><use xlink:href="#L" x="324.2" y="78.8" style="fill:#2ca02c;stroke:#2ca02c;stroke-linejoin:miter"/><use xlink:href="#L" x="491.2" y="59.1" style="fill:#2ca02c;stroke:#2ca02c;stroke-linejoin:miter"/></g><path d="m84.5 372.8 5.2-2 6.4-13.2 8.2-16.5 9.2-13.6 12.4-21.3 14.5-22.6 21.9-26.1 32.1-33.8 48.3-55.7 81.5-31.1 167-30.6" clip-path="url(#a)" style="fill:none;stroke-dasharray:5.55,2.4;stroke-dashoffset:0;stroke:#2ca02c;stroke-width:1.5"/><defs><path id="M" d="m0-3.5-3.5 7h7z" style="stroke:#2ca02c;stroke-linejoin:miter"/></defs><g clip-path="url(#a)"><use xlink:href="#M" x="84.5" y="372.8" style="fill-opacity:0;stroke:#2ca02c;stroke-linejoin:miter"/><use xlink:href="#M" x="89.7" y="370.7" style="fill-opacity:0;stroke:#2ca02c;stroke-linejoin:miter"/><use xlink:href="#M" x="96.1" y="357.6" style="fill-opacity:0;stroke:#2ca02c;stroke-linejoin:miter"/><use xlink:href="#M" x="104.3" y="341.1" style="fill-opacity:0;stroke:#2ca02c;stroke-linejoin:miter"/><use xlink:href="#M" x="113.5" y="327.5" style="fill-opacity:0;stroke:#2ca02c;stroke-linejoin:miter"/><use xlink:href="#M" x="125.9" y="306.2" style="fill-opacity:0;stroke:#2ca02c;stroke-linejoin:miter"/><use xlink:href="#M" x="140.4" y="283.6" style="fill-opacity:0;stroke:#2ca02c;stroke-linejoin:miter"/><use xlink:href="#M" x="162.3" y="257.5" style="fill-opacity:0;stroke:#2ca02c;stroke-linejoin:miter"/><use xlink:href="#M" x="194.4" y="223.7" style="fill-opacity:0;stroke:#2ca02c;stroke-linejoin:miter"/><use xlink:href="#M" x="242.7" y="168" style="fill-opacity:0;stroke:#2ca02c;stroke-linejoin:miter"/><use xlink:href="#M" x="324.2" y="136.9" style="fill-opacity:0;stroke:#2ca02c;stroke-linejoin:miter"/><use xlink:href="#M" x="491.2" y="106.3" style="fill-opacity:0;stroke:#2ca02c;stroke-linejoin:miter"/></g><path d="m101.8 202.3 8.3-12.1 9-11.2 8.5-9.4 7.5-7.5 8.1-7.4 8.1-6.7 9.1-6.7 9.4-6.3 10.5-6.2 38.4-18.2 50.7-17.3 84.5-18.2 147.5-15.6 178-7.4" clip-path="url(#a)" style="fill:none;stroke:#d62728;stroke-width:1.5;stroke-linecap:square"/><defs><path id="N" d="m0 5 5-5-5-5-5 5z" style="stroke:#d62728;stroke-linejoin:miter"/></defs><g clip-path="url(#a)"><use xlink:href="#N" x="101.8" y="202.3" style="fill:#d62728;stroke:#d62728;stroke-linejoin:miter"/><use xlink:href="#N" x="110.1" y="190.2" style="fill:#d62728;stroke:#d62728;stroke-linejoin:miter"/><use xlink:href="#N" x="119" y="179" style="fill:#d62728;stroke:#d62728;stroke-linejoin:miter"/><use xlink:href="#N" x="127.6" y="169.6" style="fill:#d62728;stroke:#d62728;stroke-linejoin:miter"/><use xlink:href="#N" x="135.1" y="162.1" style="fill:#d62728;stroke:#d62728;stroke-linejoin:miter"/><use xlink:href="#N" x="143.2" y="154.7" style="fill:#d62728;stroke:#d62728;stroke-linejoin:miter"/><use xlink:href="#N" x="151.3" y="148" style="fill:#d62728;stroke:#d62728;stroke-linejoin:miter"/><use xlink:href="#N" x="160.4" y="141.3" style="fill:#d62728;stroke:#d62728;stroke-linejoin:miter"/><use xlink:href="#N" x="169.8" y="135" style="fill:#d62728;stroke:#d62728;stroke-linejoin:miter"/><use xlink:href="#N" x="180.3" y="128.8" style="fill:#d62728;stroke:#d62728;stroke-linejoin:miter"/><use xlink:href="#N" x="218.7" y="110.6" style="fill:#d62728;stroke:#d62728;stroke-linejoin:miter"/><use xlink:href="#N" x="269.4" y="93.3" style="fill:#d62728;stroke:#d62728;stroke-linejoin:miter"/><use xlink:href="#N" x="353.9" y="75.1" style="fill:#d62728;stroke:#d62728;stroke-linejoin:miter"/><use xlink:href="#N" x="501.4" y="59.5" style="fill:#d62728;stroke:#d62728;stroke-linejoin:miter"/><use xlink:href="#N" x="679.5" y="52.1" style="fill:#d62728;stroke:#d62728;stroke-linejoin:miter"/></g><path d="m101.8 339.3 8.3-13.4 9-20 8.5-13 7.5-12.4 8.1-20.2 8.1-17.7 9.1-10.8 9.4-12.7 10.5-9.4 38.4-30.2 50.7-24.4 84.5-29.2 147.5-29.5 178-16.6" clip-path="url(#a)" style="fill:none;stroke-dasharray:5.55,2.4;stroke-dashoffset:0;stroke:#d62728;stroke-width:1.5"/><defs><path id="O" d="m0 5 5-5-5-5-5 5z" style="stroke:#d62728;stroke-linejoin:miter"/></defs><g clip-path="url(#a)"><use xlink:href="#O" x="101.8" y="339.3" style="fill-opacity:0;stroke:#d62728;stroke-linejoin:miter"/><use xlink:href="#O" x="110.1" y="325.9" style="fill-opacity:0;stroke:#d62728;stroke-linejoin:miter"/><use xlink:href="#O" x="119" y="305.9" style="fill-opacity:0;stroke:#d62728;stroke-linejoin:miter"/><use xlink:href="#O" x="127.6" y="292.9" style="fill-opacity:0;stroke:#d62728;stroke-linejoin:miter"/><use xlink:href="#O" x="135.1" y="280.5" style="fill-opacity:0;stroke:#d62728;stroke-linejoin:miter"/><use xlink:href="#O" x="143.2" y="260.3" style="fill-opacity:0;stroke:#d62728;stroke-linejoin:miter"/><use xlink:href="#O" x="151.3" y="242.6" style="fill-opacity:0;stroke:#d62728;stroke-linejoin:miter"/><use xlink:href="#O" x="160.4" y="231.8" style="fill-opacity:0;stroke:#d62728;stroke-linejoin:miter"/><use xlink:href="#O" x="169.8" y="219.1" style="fill-opacity:0;stroke:#d62728;stroke-linejoin:miter"/><use xlink:href="#O" x="180.3" y="209.7" style="fill-opacity:0;stroke:#d62728;stroke-linejoin:miter"/><use xlink:href="#O" x="218.7" y="179.5" style="fill-opacity:0;stroke:#d62728;stroke-linejoin:miter"/><use xlink:href="#O" x="269.4" y="155.1" style="fill-opacity:0;stroke:#d62728;stroke-linejoin:miter"/><use xlink:href="#O" x="353.9" y="125.9" style="fill-opacity:0;stroke:#d62728;stroke-linejoin:miter"/><use xlink:href="#O" x="501.4" y="96.4" style="fill-opacity:0;stroke:#d62728;stroke-linejoin:miter"/><use xlink:href="#O" x="679.5" y="79.8" style="fill-opacity:0;stroke:#d62728;stroke-linejoin:miter"/></g><path d="M54.7 389.3V27m654.5 362.3V27M54.7 389.3h654.5M54.7 26.9h654.5" style="fill:none;stroke:#000;stroke-width:.8;stroke-linejoin:miter;stroke-linecap:square"/><g transform="matrix(.12 0 0 -.12 312.4 20.9)"><defs><path id="P" d="M191 3500h609L1894 563l1094 2937h609L2284 0h-781z" transform="scale(.01563)"/></defs><use xlink:href="#C"/><use xlink:href="#C" transform="translate(63.5)"/><use xlink:href="#D" transform="translate(127)"/><use xlink:href="#E" transform="translate(156.4)"/><use xlink:href="#P" transform="translate(274.5)"/><use xlink:href="#n" transform="translate(333.7)"/><use xlink:href="#j" transform="translate(417.6)"/><use xlink:href="#k" transform="translate(486.2)"/><use xlink:href="#l" transform="translate(545.4)"/><use xlink:href="#m" transform="translate(584.6)"/><use xlink:href="#n" transform="translate(646)"/><use xlink:href="#o" transform="translate(730)"/><use xlink:href="#m" transform="translate(793.5)"/><use xlink:href="#p" transform="translate(855)"/><use xlink:href="#q" transform="translate(927.9)"/><use xlink:href="#r" transform="translate(986)"/><use xlink:href="#s" transform="translate(1013.7)"/><use xlink:href="#m" transform="translate(1069.8)"/><use xlink:href="#t" transform="translate(1131.3)"/></g><path d="M508.6 385.3h195q1.6 0 1.6-1.6v-46.1q0-1.7-1.6-1.7h-195q-1.6 0-1.6 1.7v46.1q0 1.6 1.6 1.6z" style="fill:#fff;opacity:.8;stroke:#ccc;stroke-linejoin:miter"/><path d="M510.2 342.4h16" style="fill:none;stroke:#1f77b4;stroke-width:1.5;stroke-linecap:square"/><use xlink:href="#H" x="518.2" y="342.4" style="fill:#1f77b4;stroke:#1f77b4"/><g transform="matrix(.08 0 0 -.08 532.6 345.2)"><defs><path id="Q" d="M2194 1759q-697 0-966-159t-269-544q0-306 202-486 202-179 548-179 479 0 768 339t289 901v128zm1147 238V0h-575v531q-197-318-491-470T1556-91q-537 0-855 302-317 302-317 808 0 590 395 890 396 300 1180 300h807v57q0 397-261 614t-733 217q-300 0-585-72-284-72-546-216v532q315 122 612 182 297 61 578 61 760 0 1135-394 375-393 375-1193" transform="scale(.01563)"/><path id="R" d="M2375 4863v-479h-550q-309 0-430-125-120-125-120-450v-309h947v-447h-947V0H697v3053H147v447h550v244q0 584 272 851 272 268 862 268z" transform="scale(.01563)"/><path id="S" d="M3328 2828q216 388 516 572t706 184q547 0 844-383 297-382 297-1088V0h-578v2094q0 503-179 746-178 244-543 244-447 0-707-297-259-296-259-809V0h-578v2094q0 506-178 748t-550 242q-441 0-701-298-259-298-259-808V0H581v3500h578v-544q197 322 472 475t653 153q382 0 649-194 267-193 395-562" transform="scale(.01563)"/><path id="T" d="M3513 2113V0h-575v2094q0 497-194 743-194 247-581 247-466 0-735-297-269-296-269-809V0H581v3500h578v-544q207 316 486 472 280 156 646 156 603 0 912-373 310-373 310-1098" transform="scale(.01563)"/></defs><use xlink:href="#Q"/><use xlink:href="#P" transform="translate(61.3)"/><use xlink:href="#r" transform="translate(120.5)"/><use xlink:href="#R" transform="translate(148.2)"/><use xlink:href="#u" transform="translate(215.2)"/><use xlink:href="#S" transform="translate(254.2)"/><use xlink:href="#m" transform="translate(351.7)"/><use xlink:href="#Q" transform="translate(413.2)"/><use xlink:href="#T" transform="translate(474.5)"/><use xlink:href="#y" transform="translate(537.8)"/></g><path d="M510.2 354.2h16" style="fill:none;stroke-dasharray:5.55,2.4;stroke-dashoffset:0;stroke:#1f77b4;stroke-width:1.5"/><use xlink:href="#I" x="518.2" y="354.2" style="fill-opacity:0;stroke:#1f77b4"/><g transform="matrix(.08 0 0 -.08 532.6 357)"><defs><path id="U" d="M4653 2053q-272 0-427-231-154-231-154-644 0-406 154-639 155-233 427-233 266 0 420 233 155 233 155 639 0 410-155 642-154 233-420 233m0 397q494 0 784-344 291-343 291-928 0-584-292-927-292-342-783-342-500 0-791 342-290 343-290 927 0 588 292 930t789 342M1428 4353q-269 0-424-233-154-232-154-639 0-412 153-644 153-231 425-231t426 231q155 232 155 644 0 403-156 637-156 235-425 235m2822 397h500L1831-91h-500zm-2822 0q494 0 787-342 294-342 294-927 0-590-292-931t-789-341-786 342q-289 343-289 930 0 582 290 925 291 344 785 344" transform="scale(.01563)"/></defs><use xlink:href="#Q"/><use xlink:href="#P" transform="translate(61.3)"/><use xlink:href="#r" transform="translate(120.5)"/><use xlink:href="#R" transform="translate(148.2)"/><use xlink:href="#u" transform="translate(215.2)"/><use xlink:href="#e" transform="translate(254.2)"/><use xlink:href="#U" transform="translate(317.9)"/><use xlink:href="#w" transform="translate(444.7)"/><use xlink:href="#v" transform="translate(526.5)"/><use xlink:href="#p" transform="translate(587.6)"/><use xlink:href="#n" transform="translate(628.8)"/><use xlink:href="#l" transform="translate(680.9)"/><use xlink:href="#y" transform="translate(720)"/></g><path d="M510.2 366h16" style="fill:none;stroke:#ff7f0e;stroke-width:1.5;stroke-linecap:square"/><use xlink:href="#J" x="518.2" y="365.9" style="fill:#ff7f0e;stroke:#ff7f0e;stroke-linejoin:miter"/><g transform="matrix(.08 0 0 -.08 532.6 368.7)"><defs><path id="V" d="M603 3500h575V-63q0-668-255-968-254-300-820-300h-219v487H38q328 0 446 152Q603-541 603-63zm0 1363h575v-729H603z" transform="scale(.01563)"/></defs><use xlink:href="#V"/><use xlink:href="#o" transform="translate(27.8)"/><use xlink:href="#m" transform="translate(91.3)"/><use xlink:href="#G" transform="translate(152.8)"/><use xlink:href="#u" transform="translate(248)"/><use xlink:href="#S" transform="translate(287)"/><use xlink:href="#m" transform="translate(384.5)"/><use xlink:href="#Q" transform="translate(446)"/><use xlink:href="#T" transform="translate(507.3)"/><use xlink:href="#y" transform="translate(570.7)"/></g><path d="M510.2 377.7h16" style="fill:none;stroke-dasharray:5.55,2.4;stroke-dashoffset:0;stroke:#ff7f0e;stroke-width:1.5"/><use xlink:href="#K" x="518.2" y="377.7" style="fill-opacity:0;stroke:#ff7f0e;stroke-linejoin:miter"/><g transform="matrix(.08 0 0 -.08 532.6 380.5)"><use xlink:href="#V"/><use xlink:href="#o" transform="translate(27.8)"/><use xlink:href="#m" transform="translate(91.3)"/><use xlink:href="#G" transform="translate(152.8)"/><use xlink:href="#u" transform="translate(248)"/><use xlink:href="#e" transform="translate(287)"/><use xlink:href="#U" transform="translate(350.7)"/><use xlink:href="#w" transform="translate(477.5)"/><use xlink:href="#v" transform="translate(559.3)"/><use xlink:href="#p" transform="translate(620.5)"/><use xlink:href="#n" transform="translate(661.6)"/><use xlink:href="#l" transform="translate(713.7)"/><use xlink:href="#y" transform="translate(752.9)"/></g><path d="M612 342.4h16" style="fill:none;stroke:#2ca02c;stroke-width:1.5;stroke-linecap:square"/><use xlink:href="#L" x="619.9" y="342.4" style="fill:#2ca02c;stroke:#2ca02c;stroke-linejoin:miter"/><g transform="matrix(.08 0 0 -.08 634.3 345.2)"><use xlink:href="#V"/><use xlink:href="#s" transform="translate(27.8)"/><use xlink:href="#t" transform="translate(87)"/><use xlink:href="#u" transform="translate(146.5)"/><use xlink:href="#S" transform="translate(185.5)"/><use xlink:href="#m" transform="translate(283)"/><use xlink:href="#Q" transform="translate(344.5)"/><use xlink:href="#T" transform="translate(405.8)"/><use xlink:href="#y" transform="translate(469.1)"/></g><path d="M612 354.2h16" style="fill:none;stroke-dasharray:5.55,2.4;stroke-dashoffset:0;stroke:#2ca02c;stroke-width:1.5"/><use xlink:href="#M" x="619.9" y="354.2" style="fill-opacity:0;stroke:#2ca02c;stroke-linejoin:miter"/><g transform="matrix(.08 0 0 -.08 634.3 357)"><use xlink:href="#V"/><use xlink:href="#s" transform="translate(27.8)"/><use xlink:href="#t" transform="translate(87)"/><use xlink:href="#u" transform="translate(146.5)"/><use xlink:href="#e" transform="translate(185.5)"/><use xlink:href="#U" transform="translate(249.2)"/><use xlink:href="#w" transform="translate(376)"/><use xlink:href="#v" transform="translate(457.8)"/><use xlink:href="#p" transform="translate(519)"/><use xlink:href="#n" transform="translate(560)"/><use xlink:href="#l" transform="translate(612.2)"/><use xlink:href="#y" transform="translate(651.4)"/></g><path d="M612 366h16" style="fill:none;stroke:#d62728;stroke-width:1.5;stroke-linecap:square"/><use xlink:href="#N" x="619.9" y="365.9" style="fill:#d62728;stroke:#d62728;stroke-linejoin:miter"/><g transform="matrix(.08 0 0 -.08 634.3 368.7)"><use xlink:href="#w"/><use xlink:href="#m" transform="translate(81.8)"/><use xlink:href="#x" transform="translate(143.3)"/><use xlink:href="#o" transform="translate(206.8)"/><use xlink:href="#u" transform="translate(302)"/><use xlink:href="#S" transform="translate(341)"/><use xlink:href="#m" transform="translate(438.5)"/><use xlink:href="#Q" transform="translate(500)"/><use xlink:href="#T" transform="translate(561.3)"/><use xlink:href="#y" transform="translate(624.7)"/></g><path d="M612 377.7h16" style="fill:none;stroke-dasharray:5.55,2.4;stroke-dashoffset:0;stroke:#d62728;stroke-width:1.5"/><use xlink:href="#O" x="619.9" y="377.7" style="fill-opacity:0;stroke:#d62728;stroke-linejoin:miter"/><g transform="matrix(.08 0 0 -.08 634.3 380.5)"><use xlink:href="#w"/><use xlink:href="#m" transform="translate(81.8)"/><use xlink:href="#x" transform="translate(143.3)"/><use xlink:href="#o" transform="translate(206.8)"/><use xlink:href="#u" transform="translate(302)"/><use xlink:href="#e" transform="translate(341)"/><use xlink:href="#U" transform="translate(404.7)"/><use xlink:href="#w" transform="translate(531.5)"/><use xlink:href="#v" transform="translate(613.3)"/><use xlink:href="#p" transform="translate(674.5)"/><use xlink:href="#n" transform="translate(715.6)"/><use xlink:href="#l" transform="translate(767.7)"/><use xlink:href="#y" transform="translate(806.9)"/></g><defs><clipPath id="a"><path d="M54.7 26.9h654.5v362.4H54.7z"/></clipPath></defs></svg>