<svg xmlns="http://www.w3.org/2000/svg" xmlns:xlink="http://www.w3.org/1999/xlink" width="960" height="576" viewBox="0 0 720 432"><path d="M0 432h720V0H0z" style="fill:#fff"/><path d="M54.7 389.3h654.5V27H54.7z" style="fill:#fff"/><path d="M84.5 389.3V27" clip-path="url(#a)" style="fill:none;stroke:#b0b0b0;stroke-opacity:.3;stroke-width:.8;stroke-linecap:square"/><defs><path id="b" d="M0 0v3.5" style="stroke:#000;stroke-width:.8"/></defs><use xlink:href="#b" x="84.5" y="389.3" style="stroke:#000;stroke-width:.8"/><g transform="matrix(.1 0 0 -.1 78.1 404)"><defs><path id="c" d="M2419 4116 825 1625h1594zm-166 550h794V1625h666v-525h-666V0h-628v1100H313v609z" transform="scale(.01563)"/><path id="d" d="M2034 4250q-487 0-733-480-245-479-245-1442 0-959 245-1439 246-480 733-480 491 0 736 480 246 480 246 1439 0 963-246 1442-245 480-736 480m0 500q785 0 1199-621 414-620 414-1801 0-1178-414-1799Q2819-91 2034-91q-784 0-1198 620-414 621-414 1799 0 1181 414 1801 414 621 1198 621" transform="scale(.01563)"/></defs><use xlink:href="#c"/><use xlink:href="#d" transform="translate(63.6)"/></g><path d="M183.6 389.3V27" clip-path="url(#a)" style="fill:none;stroke:#b0b0b0;stroke-opacity:.3;stroke-width:.8;stroke-linecap:square"/><use xlink:href="#b" x="183.6" y="389.3" style="stroke:#000;stroke-width:.8"/><g transform="matrix(.1 0 0 -.1 177.3 404)"><defs><path id="e" d="M691 4666h2478v-532H1269V2991q137 47 274 70 138 23 276 23 781 0 1237-428 457-428 457-1159 0-753-469-1171Q2575-91 1722-91q-294 0-599 50Q819 9 494 109v635q281-153 581-228t634-75q541 0 856 284 316 284 316 772 0 487-316 771-315 285-856 285-253 0-505-56-251-56-513-175z" transform="scale(.01563)"/></defs><use xlink:href="#e"/><use xlink:href="#d" transform="translate(63.6)"/></g><path d="M282.8 389.3V27" clip-path="url(#a)" style="fill:none;stroke:#b0b0b0;stroke-opacity:.3;stroke-width:.8;stroke-linecap:square"/><use xlink:href="#b" x="282.8" y="389.3" style="stroke:#000;stroke-width:.8"/><g transform="matrix(.1 0 0 -.1 276.4 404)"><defs><path id="f" d="M2113 2584q-425 0-674-291-248-290-248-796 0-503 248-796 249-292 674-292t673 292q248 293 248 796 0 506-248 796-248 291-673 291m1253 1979v-575q-238 112-480 171-242 60-480 60-625 0-955-422-329-422-376-1275 184 272 462 417 279 145 613 145 703 0 1111-427 408-426 408-1160 0-719-425-1154Q2819-91 2113-91q-810 0-1238 620-428 621-428 1799 0 1106 525 1764t1409 658q238 0 480-47t505-140" transform="scale(.01563)"/></defs><use xlink:href="#f"/><use xlink:href="#d" transform="translate(63.6)"/></g><path d="M382 389.3V27" clip-path="url(#a)" style="fill:none;stroke:#b0b0b0;stroke-opacity:.3;stroke-width:.8;stroke-linecap:square"/><use xlink:href="#b" x="382" y="389.3" style="stroke:#000;stroke-width:.8"/><g transform="matrix(.1 0 0 -.1 375.6 404)"><defs><path id="g" d="M525 4666h3000v-269L1831 0h-659l1594 4134H525z" transform="scale(.01563)"/></defs><use xlink:href="#g"/><use xlink:href="#d" transform="translate(63.6)"/></g><path d="M481.1 389.3V27" clip-path="url(#a)" style="fill:none;stroke:#b0b0b0;stroke-opacity:.3;stroke-width:.8;stroke-linecap:square"/><use xlink:href="#b" x="481.1" y="389.3" style="stroke:#000;stroke-width:.8"/><g transform="matrix(.1 0 0 -.1 474.8 404)"><defs><path id="h" d="M2034 2216q-450 0-708-241-257-241-257-662 0-422 257-663 258-241 708-241t709 242q260 243 260 662 0 421-258 662-257 241-711 241m-631 268q-406 100-633 378-226 279-226 679 0 559 398 884 399 325 1092 325 697 0 1094-325t397-884q0-400-227-679-226-278-629-378 456-106 710-416 255-309 255-755 0-679-414-1042Q2806-91 2034-91q-771 0-1186 362-414 363-414 1042 0 446 256 755 257 310 713 416m-231 997q0-362 226-565 227-203 636-203 407 0 636 203 230 203 230 565 0 363-230 566-229 203-636 203-409 0-636-203-226-203-226-566" transform="scale(.01563)"/></defs><use xlink:href="#h"/><use xlink:href="#d" transform="translate(63.6)"/></g><path d="M580.3 389.3V27" clip-path="url(#a)" style="fill:none;stroke:#b0b0b0;stroke-opacity:.3;stroke-width:.8;stroke-linecap:square"/><use xlink:href="#b" x="580.3" y="389.3" style="stroke:#000;stroke-width:.8"/><g transform="matrix(.1 0 0 -.1 574 404)"><defs><path id="i" d="M703 97v575q238-113 481-172 244-59 479-59 625 0 954 420 330 420 377 1277-181-269-460-413-278-144-615-144-700 0-1108 423-408 424-408 1159 0 718 425 1152 425 435 1131 435 810 0 1236-621 427-620 427-1801 0-1103-524-1761Q2575-91 1691-91q-238 0-482 47Q966 3 703 97m1256 1978q425 0 673 290 249 291 249 798 0 503-249 795-248 292-673 292t-673-292-248-795q0-507 248-798 248-290 673-290" transform="scale(.01563)"/></defs><use xlink:href="#i"/><use xlink:href="#d" transform="translate(63.6)"/></g><path d="M679.5 389.3V27" clip-path="url(#a)" style="fill:none;stroke:#b0b0b0;stroke-opacity:.3;stroke-width:.8;stroke-linecap:square"/><use xlink:href="#b" x="679.5" y="389.3" style="stroke:#000;stroke-width:.8"/><g transform="matrix(.1 0 0 -.1 670 404)"><defs><path id="j" d="M794 531h1031v3560L703 3866v575l1116 225h631V531h1031V0H794z" transform="scale(.01563)"/></defs><use xlink:href="#j"/><use xlink:href="#d" transform="translate(63.6)"/><use xlink:href="#d" transform="translate(127.2)"/></g><g transform="matrix(.11 0 0 -.11 362.3 418.4)"><defs><path id="k" d="M2522 4238q-688 0-1093-513-404-512-404-1397 0-881 404-1394 405-512 1093-512 687 0 1089 512 402 513 402 1394 0 885-402 1397-402 513-1089 513M3406 84l832-909h-763L2784-78q-103-6-158-9-54-4-104-4-984 0-1574 658-589 658-589 1761 0 1106 589 1764 590 658 1574 658 981 0 1568-658 588-658 588-1764 0-812-327-1391-326-578-945-853" transform="scale(.01563)"/><path id="l" d="M544 1381v2119h575V1403q0-497 193-746 194-248 582-248 465 0 735 297 271 297 271 810v1984h575V0h-575v538q-209-319-486-474-276-155-642-155-603 0-916 375-312 375-312 1097m1447 2203" transform="scale(.01563)"/><path id="m" d="M2194 1759q-697 0-966-159t-269-544q0-306 202-486 202-179 548-179 479 0 768 339t289 901v128zm1147 238V0h-575v531q-197-318-491-470T1556-91q-537 0-855 302-317 302-317 808 0 590 395 890 396 300 1180 300h807v57q0 397-261 614t-733 217q-300 0-585-72-284-72-546-216v532q315 122 612 182 297 61 578 61 760 0 1135-394 375-393 375-1193" transform="scale(.01563)"/><path id="n" d="M603 4863h575V0H603z" transform="scale(.01563)"/><path id="o" d="M603 3500h575V0H603zm0 1363h575v-729H603z" transform="scale(.01563)"/><path id="p" d="M1172 4494v-994h1184v-447H1172V1153q0-428 117-550t477-122h590V0h-590q-666 0-919 248-253 249-253 905v1900H172v447h422v994z" transform="scale(.01563)"/><path id="q" d="M2059-325q-243-625-475-815-231-191-618-191H506v481h338q237 0 368 113 132 112 291 531l103 262L191 3500h609L1894 763l1094 2737h609z" transform="scale(.01563)"/></defs><use xlink:href="#k"/><use xlink:href="#l" transform="translate(78.7)"/><use xlink:href="#m" transform="translate(142)"/><use xlink:href="#n" transform="translate(203.4)"/><use xlink:href="#o" transform="translate(231.2)"/><use xlink:href="#p" transform="translate(259)"/><use xlink:href="#q" transform="translate(298.1)"/></g><path d="M54.7 357.2h654.5" clip-path="url(#a)" style="fill:none;stroke:#b0b0b0;stroke-opacity:.3;stroke-width:.8;stroke-linecap:square"/><defs><path id="r" d="M0 0h-3.5" style="stroke:#000;stroke-width:.8"/></defs><use xlink:href="#r" x="54.7" y="357.2" style="stroke:#000;stroke-width:.8"/><g transform="matrix(.1 0 0 -.1 25.5 361)"><defs><path id="s" d="M684 794h660V0H684z" transform="scale(.01563)"/></defs><use xlink:href="#d"/><use xlink:href="#s" transform="translate(63.6)"/><use xlink:href="#h" transform="translate(95.4)"/><use xlink:href="#d" transform="translate(159)"/></g><path d="M54.7 278.7h654.5" clip-path="url(#a)" style="fill:none;stroke:#b0b0b0;stroke-opacity:.3;stroke-width:.8;stroke-linecap:square"/><use xlink:href="#r" x="54.7" y="278.7" style="stroke:#000;stroke-width:.8"/><g transform="matrix(.1 0 0 -.1 25.5 282.5)"><use xlink:href="#d"/><use xlink:href="#s" transform="translate(63.6)"/><use xlink:href="#h" transform="translate(95.4)"/><use xlink:href="#e" transform="translate(159)"/></g><path d="M54.7 200.3h654.5" clip-path="url(#a)" style="fill:none;stroke:#b0b0b0;stroke-opacity:.3;stroke-width:.8;stroke-linecap:square"/><use xlink:href="#r" x="54.7" y="200.3" style="stroke:#000;stroke-width:.8"/><g transform="matrix(.1 0 0 -.1 25.5 204)"><use xlink:href="#d"/><use xlink:href="#s" transform="translate(63.6)"/><use xlink:href="#i" transform="translate(95.4)"/><use xlink:href="#d" transform="translate(159)"/></g><path d="M54.7 121.8h654.5" clip-path="url(#a)" style="fill:none;stroke:#b0b0b0;stroke-opacity:.3;stroke-width:.8;stroke-linecap:square"/><use xlink:href="#r" x="54.7" y="121.8" style="stroke:#000;stroke-width:.8"/><g transform="matrix(.1 0 0 -.1 25.5 125.6)"><use xlink:href="#d"/><use xlink:href="#s" transform="translate(63.6)"/><use xlink:href="#i" transform="translate(95.4)"/><use xlink:href="#e" transform="translate(159)"/></g><path d="M54.7 43.4h654.5" clip-path="url(#a)" style="fill:none;stroke:#b0b0b0;stroke-opacity:.3;stroke-width:.8;stroke-linecap:square"/><use xlink:href="#r" x="54.7" y="43.4" style="stroke:#000;stroke-width:.8"/><g transform="matrix(.1 0 0 -.1 25.5 47.2)"><use xlink:href="#j"/><use xlink:href="#s" transform="translate(63.6)"/><use xlink:href="#d" transform="translate(95.4)"/><use xlink:href="#d" transform="translate(159)"/></g><g transform="matrix(0 -.11 -.11 0 19.2 269.8)"><defs><path id="t" d="M3425 4513v-616q-359 172-678 256-319 85-616 85-515 0-795-200t-280-569q0-310 186-468 186-157 705-254l381-78q706-135 1042-474t336-907q0-679-455-1029Q2797-91 1919-91q-331 0-705 75-373 75-773 222v650q384-215 753-325 369-109 725-109 540 0 834 212 294 213 294 607 0 343-211 537t-692 291l-385 75q-706 140-1022 440-315 300-315 835 0 619 436 975t1201 356q329 0 669-60 341-59 697-177" transform="scale(.01563)"/><path id="u" d="M628 4666h631V0H628z" transform="scale(.01563)"/><path id="v" d="M628 4666h941l1190-3175 1197 3175h941V0h-616v4097L3078 897h-634L1241 4097V0H628z" transform="scale(.01563)"/><path id="w" d="M1984 4856q-418-718-622-1422-203-703-203-1425 0-721 205-1429t620-1424h-500Q1016-109 783 600T550 2009q0 697 231 1403 232 707 703 1444z" transform="scale(.01563)"/><path id="x" d="M3513 2113V0h-575v2094q0 497-194 743-194 247-581 247-466 0-735-297-269-296-269-809V0H581v4863h578V2956q207 316 486 472 280 156 646 156 603 0 912-373 310-373 310-1098" transform="scale(.01563)"/><path id="y" d="M2906 1791q0 625-258 968-257 344-723 344-462 0-720-344-258-343-258-968 0-622 258-966t720-344q466 0 723 344 258 344 258 966m575-1357q0-893-397-1329-396-436-1215-436-303 0-572 45t-522 139v559q253-137 500-202 247-66 503-66 566 0 847 295t281 892v285q-178-310-456-463T1784 0Q1141 0 747 490 353 981 353 1791q0 812 394 1302 394 491 1037 491 388 0 666-153t456-462v531h575z" transform="scale(.01563)"/><path id="z" d="M3597 1894v-281H953q38-594 358-905t892-311q331 0 642 81t618 244V178Q3153 47 2828-22t-659-69q-838 0-1327 487-489 488-489 1320 0 859 464 1363 464 505 1252 505 706 0 1117-455 411-454 411-1235m-575 169q-6 471-264 752-258 282-683 282-481 0-770-272t-333-766z" transform="scale(.01563)"/><path id="A" d="M2631 2963q-97 56-211 82-114 27-251 27-488 0-749-317t-261-911V0H581v3500h578v-544q182 319 472 473 291 155 707 155 59 0 131-8 72-7 159-23z" transform="scale(.01563)"/><path id="B" d="M2834 3397v-544q-243 125-506 187-262 63-544 63-428 0-642-131t-214-394q0-200 153-314t616-217l197-44q612-131 870-370t258-667q0-488-386-773Q2250-91 1575-91q-281 0-586 55T347 128v594q319-166 628-249 309-82 613-82 406 0 624 139 219 139 219 392 0 234-158 359-157 125-692 241l-200 47q-534 112-772 345-237 233-237 639 0 494 350 762 350 269 994 269 318 0 599-47 282-46 519-140" transform="scale(.01563)"/><path id="C" d="M3116 1747q0 634-261 995t-717 361q-457 0-718-361t-261-995 261-995 718-361q456 0 717 361t261 995M1159 2969q182 312 458 463 277 152 661 152 638 0 1036-506 399-506 399-1331T3314 415Q2916-91 2278-91q-384 0-661 152-276 152-458 464V0H581v4863h578z" transform="scale(.01563)"/><path id="D" d="M513 4856h500q468-737 701-1444 233-706 233-1403 0-700-233-1409T1013-844H513q415 716 620 1424t205 1429q0 722-205 1425-205 704-620 1422" transform="scale(.01563)"/></defs><use xlink:href="#t"/><use xlink:href="#t" transform="translate(63.5)"/><use xlink:href="#u" transform="translate(127)"/><use xlink:href="#v" transform="translate(156.4)"/><use xlink:href="#w" transform="translate(274.5)"/><use xlink:href="#x" transform="translate(313.5)"/><use xlink:href="#o" transform="translate(376.9)"/><use xlink:href="#y" transform="translate(404.7)"/><use xlink:href="#x" transform="translate(468.2)"/><use xlink:href="#z" transform="translate(531.5)"/><use xlink:href="#A" transform="translate(593)"/><use xlink:href="#o" transform="translate(666)"/><use xlink:href="#B" transform="translate(693.8)"/><use xlink:href="#C" transform="translate(777.6)"/><use xlink:href="#z" transform="translate(841.1)"/><use xlink:href="#p" transform="translate(902.6)"/><use xlink:href="#p" transform="translate(941.8)"/><use xlink:href="#z" transform="translate(981)"/><use xlink:href="#A" transform="translate(1042.6)"/><use xlink:href="#D" transform="translate(1083.7)"/></g><path d="M84.5 176.3 134 156l49.5-16.5 49.6-19 49.6-12.8 49.6-9.3 49.6-7 49.6-7L481 77l49.6-10 49.6-7.5" clip-path="url(#a)" style="fill:none;stroke:#1f77b4;stroke-width:1.5;stroke-linecap:square"/><defs><path id="E" d="M0 3.5a3.5 3.5 0 1 0 0-7 3.5 3.5 0 0 0 0 7z" style="stroke:#1f77b4"/></defs><g clip-path="url(#a)"><use xlink:href="#E" x="84.5" y="176.3" style="fill:#1f77b4;stroke:#1f77b4"/><use xlink:href="#E" x="134.1" y="155.9" style="fill:#1f77b4;stroke:#1f77b4"/><use xlink:href="#E" x="183.6" y="139.4" style="fill:#1f77b4;stroke:#1f77b4"/><use xlink:href="#E" x="233.2" y="120.4" style="fill:#1f77b4;stroke:#1f77b4"/><use xlink:href="#E" x="282.8" y="107.6" style="fill:#1f77b4;stroke:#1f77b4"/><use xlink:href="#E" x="332.4" y="98.3" style="fill:#1f77b4;stroke:#1f77b4"/><use xlink:href="#E" x="382" y="91.2" style="fill:#1f77b4;stroke:#1f77b4"/><use xlink:href="#E" x="431.6" y="84.3" style="fill:#1f77b4;stroke:#1f77b4"/><use xlink:href="#E" x="481.1" y="77" style="fill:#1f77b4;stroke:#1f77b4"/><use xlink:href="#E" x="530.7" y="66.9" style="fill:#1f77b4;stroke:#1f77b4"/><use xlink:href="#E" x="580.3" y="59.5" style="fill:#1f77b4;stroke:#1f77b4"/></g><path d="m84.5 313.4 49.6-32.9 49.5-30.3 49.6-44.5 49.6-25.4 49.6-19.4 49.6-12.7 49.6-14.3 49.5-17.7 49.6-22L580.3 73" clip-path="url(#a)" style="fill:none;stroke-dasharray:5.55,2.4;stroke-dashoffset:0;stroke:#1f77b4;stroke-width:1.5"/><defs><path id="F" d="M0 3.5a3.5 3.5 0 1 0 0-7 3.5 3.5 0 0 0 0 7z" style="stroke:#1f77b4"/></defs><g clip-path="url(#a)"><use xlink:href="#F" x="84.5" y="313.4" style="fill-opacity:0;stroke:#1f77b4"/><use xlink:href="#F" x="134.1" y="280.5" style="fill-opacity:0;stroke:#1f77b4"/><use xlink:href="#F" x="183.6" y="250.2" style="fill-opacity:0;stroke:#1f77b4"/><use xlink:href="#F" x="233.2" y="205.7" style="fill-opacity:0;stroke:#1f77b4"/><use xlink:href="#F" x="282.8" y="180.3" style="fill-opacity:0;stroke:#1f77b4"/><use xlink:href="#F" x="332.4" y="160.9" style="fill-opacity:0;stroke:#1f77b4"/><use xlink:href="#F" x="382" y="148.2" style="fill-opacity:0;stroke:#1f77b4"/><use xlink:href="#F" x="431.6" y="133.9" style="fill-opacity:0;stroke:#1f77b4"/><use xlink:href="#F" x="481.1" y="116.2" style="fill-opacity:0;stroke:#1f77b4"/><use xlink:href="#F" x="530.7" y="94.1" style="fill-opacity:0;stroke:#1f77b4"/><use xlink:href="#F" x="580.3" y="73" style="fill-opacity:0;stroke:#1f77b4"/></g><path d="m183.6 181.9 49.6-7.5 49.6-7.2 49.6-9.2 49.6-.6 49.6-18.1 49.5-11.2 49.6-13 49.6-15.6L629.9 80l49.6-21.7" clip-path="url(#a)" style="fill:none;stroke:#ff7f0e;stroke-width:1.5;stroke-linecap:square"/><defs><path id="G" d="M-3.5 3.5h7v-7h-7z" style="stroke:#ff7f0e;stroke-linejoin:miter"/></defs><g clip-path="url(#a)"><use xlink:href="#G" x="183.6" y="181.9" style="fill:#ff7f0e;stroke:#ff7f0e;stroke-linejoin:miter"/><use xlink:href="#G" x="233.2" y="174.4" style="fill:#ff7f0e;stroke:#ff7f0e;stroke-linejoin:miter"/><use xlink:href="#G" x="282.8" y="167.2" style="fill:#ff7f0e;stroke:#ff7f0e;stroke-linejoin:miter"/><use xlink:href="#G" x="332.4" y="158" style="fill:#ff7f0e;stroke:#ff7f0e;stroke-linejoin:miter"/><use xlink:href="#G" x="382" y="157.4" style="fill:#ff7f0e;stroke:#ff7f0e;stroke-linejoin:miter"/><use xlink:href="#G" x="431.6" y="139.3" style="fill:#ff7f0e;stroke:#ff7f0e;stroke-linejoin:miter"/><use xlink:href="#G" x="481.1" y="128.1" style="fill:#ff7f0e;stroke:#ff7f0e;stroke-linejoin:miter"/><use xlink:href="#G" x="530.7" y="115.1" style="fill:#ff7f0e;stroke:#ff7f0e;stroke-linejoin:miter"/><use xlink:href="#G" x="580.3" y="99.5" style="fill:#ff7f0e;stroke:#ff7f0e;stroke-linejoin:miter"/><use xlink:href="#G" x="629.9" y="80" style="fill:#ff7f0e;stroke:#ff7f0e;stroke-linejoin:miter"/><use xlink:href="#G" x="679.5" y="58.3" style="fill:#ff7f0e;stroke:#ff7f0e;stroke-linejoin:miter"/></g><path d="m183.6 305 49.6-9.7 49.6.5 49.6-31 49.6 8.4 49.6-42.8 49.5-21.3 49.6-18.2 49.6-44.5 49.6-33.7 49.6-26.4" clip-path="url(#a)" style="fill:none;stroke-dasharray:5.55,2.4;stroke-dashoffset:0;stroke:#ff7f0e;stroke-width:1.5"/><defs><path id="H" d="M-3.5 3.5h7v-7h-7z" style="stroke:#ff7f0e;stroke-linejoin:miter"/></defs><g clip-path="url(#a)"><use xlink:href="#H" x="183.6" y="305.1" style="fill-opacity:0;stroke:#ff7f0e;stroke-linejoin:miter"/><use xlink:href="#H" x="233.2" y="295.3" style="fill-opacity:0;stroke:#ff7f0e;stroke-linejoin:miter"/><use xlink:href="#H" x="282.8" y="295.8" style="fill-opacity:0;stroke:#ff7f0e;stroke-linejoin:miter"/><use xlink:href="#H" x="332.4" y="264.8" style="fill-opacity:0;stroke:#ff7f0e;stroke-linejoin:miter"/><use xlink:href="#H" x="382" y="273.2" style="fill-opacity:0;stroke:#ff7f0e;stroke-linejoin:miter"/><use xlink:href="#H" x="431.6" y="230.4" style="fill-opacity:0;stroke:#ff7f0e;stroke-linejoin:miter"/><use xlink:href="#H" x="481.1" y="209.1" style="fill-opacity:0;stroke:#ff7f0e;stroke-linejoin:miter"/><use xlink:href="#H" x="530.7" y="190.9" style="fill-opacity:0;stroke:#ff7f0e;stroke-linejoin:miter"/><use xlink:href="#H" x="580.3" y="146.4" style="fill-opacity:0;stroke:#ff7f0e;stroke-linejoin:miter"/><use xlink:href="#H" x="629.9" y="112.7" style="fill-opacity:0;stroke:#ff7f0e;stroke-linejoin:miter"/><use xlink:href="#H" x="679.5" y="86.3" style="fill-opacity:0;stroke:#ff7f0e;stroke-linejoin:miter"/></g><path d="m183.6 221.3 49.6-11.7 49.6-10.8 49.6-14.3L382 169l49.6-16.6L481 134l49.6-19.2L580.3 95l49.6-19.7 49.6-31.8" clip-path="url(#a)" style="fill:none;stroke:#2ca02c;stroke-width:1.5;stroke-linecap:square"/><defs><path id="I" d="m0-3.5-3.5 7h7z" style="stroke:#2ca02c;stroke-linejoin:miter"/></defs><g clip-path="url(#a)"><use xlink:href="#I" x="183.6" y="221.3" style="fill:#2ca02c;stroke:#2ca02c;stroke-linejoin:miter"/><use xlink:href="#I" x="233.2" y="209.6" style="fill:#2ca02c;stroke:#2ca02c;stroke-linejoin:miter"/><use xlink:href="#I" x="282.8" y="198.8" style="fill:#2ca02c;stroke:#2ca02c;stroke-linejoin:miter"/><use xlink:href="#I" x="332.4" y="184.5" style="fill:#2ca02c;stroke:#2ca02c;stroke-linejoin:miter"/><use xlink:href="#I" x="382" y="169" style="fill:#2ca02c;stroke:#2ca02c;stroke-linejoin:miter"/><use xlink:href="#I" x="431.6" y="152.4" style="fill:#2ca02c;stroke:#2ca02c;stroke-linejoin:miter"/><use xlink:href="#I" x="481.1" y="133.9" style="fill:#2ca02c;stroke:#2ca02c;stroke-linejoin:miter"/><use xlink:href="#I" x="530.7" y="114.7" style="fill:#2ca02c;stroke:#2ca02c;stroke-linejoin:miter"/><use xlink:href="#I" x="580.3" y="94.9" style="fill:#2ca02c;stroke:#2ca02c;stroke-linejoin:miter"/><use xlink:href="#I" x="629.9" y="75.2" style="fill:#2ca02c;stroke:#2ca02c;stroke-linejoin:miter"/><use xlink:href="#I" x="679.5" y="43.4" style="fill:#2ca02c;stroke:#2ca02c;stroke-linejoin:miter"/></g><path d="m183.6 372.8 49.6-16.3 49.6-13.6 49.6-21.3 49.6-22.5 49.6-26 49.5-33.8 49.6-55.5 49.6-31 49.6-30.5 49.6-79" clip-path="url(#a)" style="fill:none;stroke-dasharray:5.55,2.4;stroke-dashoffset:0;stroke:#2ca02c;stroke-width:1.5"/><defs><path id="J" d="m0-3.5-3.5 7h7z" style="stroke:#2ca02c;stroke-linejoin:miter"/></defs><g clip-path="url(#a)"><use xlink:href="#J" x="183.6" y="372.8" style="fill-opacity:0;stroke:#2ca02c;stroke-linejoin:miter"/><use xlink:href="#J" x="233.2" y="356.5" style="fill-opacity:0;stroke:#2ca02c;stroke-linejoin:miter"/><use xlink:href="#J" x="282.8" y="342.9" style="fill-opacity:0;stroke:#2ca02c;stroke-linejoin:miter"/><use xlink:href="#J" x="332.4" y="321.6" style="fill-opacity:0;stroke:#2ca02c;stroke-linejoin:miter"/><use xlink:href="#J" x="382" y="299.1" style="fill-opacity:0;stroke:#2ca02c;stroke-linejoin:miter"/><use xlink:href="#J" x="431.6" y="273.1" style="fill-opacity:0;stroke:#2ca02c;stroke-linejoin:miter"/><use xlink:href="#J" x="481.1" y="239.3" style="fill-opacity:0;stroke:#2ca02c;stroke-linejoin:miter"/><use xlink:href="#J" x="530.7" y="183.8" style="fill-opacity:0;stroke:#2ca02c;stroke-linejoin:miter"/><use xlink:href="#J" x="580.3" y="152.8" style="fill-opacity:0;stroke:#2ca02c;stroke-linejoin:miter"/><use xlink:href="#J" x="629.9" y="122.3" style="fill-opacity:0;stroke:#2ca02c;stroke-linejoin:miter"/><use xlink:href="#J" x="679.5" y="43.4" style="fill-opacity:0;stroke:#2ca02c;stroke-linejoin:miter"/></g><path d="m183.6 178 49.6-7.4 49.6-6.7 49.6-6.7L382 151l49.6-6.1 49.5-18.3 49.6-17.2 49.6-18 49.6-15.7 49.6-7.3" clip-path="url(#a)" style="fill:none;stroke:#d62728;stroke-width:1.5;stroke-linecap:square"/><defs><path id="K" d="m0 5 5-5-5-5-5 5z" style="stroke:#d62728;stroke-linejoin:miter"/></defs><g clip-path="url(#a)"><use xlink:href="#K" x="183.6" y="177.9" style="fill:#d62728;stroke:#d62728;stroke-linejoin:miter"/><use xlink:href="#K" x="233.2" y="170.6" style="fill:#d62728;stroke:#d62728;stroke-linejoin:miter"/><use xlink:href="#K" x="282.8" y="163.9" style="fill:#d62728;stroke:#d62728;stroke-linejoin:miter"/><use xlink:href="#K" x="332.4" y="157.2" style="fill:#d62728;stroke:#d62728;stroke-linejoin:miter"/><use xlink:href="#K" x="382" y="150.9" style="fill:#d62728;stroke:#d62728;stroke-linejoin:miter"/><use xlink:href="#K" x="431.6" y="144.8" style="fill:#d62728;stroke:#d62728;stroke-linejoin:miter"/><use xlink:href="#K" x="481.1" y="126.5" style="fill:#d62728;stroke:#d62728;stroke-linejoin:miter"/><use xlink:href="#K" x="530.7" y="109.3" style="fill:#d62728;stroke:#d62728;stroke-linejoin:miter"/><use xlink:href="#K" x="580.3" y="91.2" style="fill:#d62728;stroke:#d62728;stroke-linejoin:miter"/><use xlink:href="#K" x="629.9" y="75.6" style="fill:#d62728;stroke:#d62728;stroke-linejoin:miter"/><use xlink:href="#K" x="679.5" y="68.3" style="fill:#d62728;stroke:#d62728;stroke-linejoin:miter"/></g><path d="m183.6 296 49.6-20.1 49.6-17.7 49.6-10.8 49.6-12.7 49.6-9.3 49.5-30.1 49.6-24.3 49.6-29.2 49.6-29.4L679.5 96" clip-path="url(#a)" style="fill:none;stroke-dasharray:5.55,2.4;stroke-dashoffset:0;stroke:#d62728;stroke-width:1.5"/><defs><path id="L" d="m0 5 5-5-5-5-5 5z" style="stroke:#d62728;stroke-linejoin:miter"/></defs><g clip-path="url(#a)"><use xlink:href="#L" x="183.6" y="296" style="fill-opacity:0;stroke:#d62728;stroke-linejoin:miter"/><use xlink:href="#L" x="233.2" y="275.9" style="fill-opacity:0;stroke:#d62728;stroke-linejoin:miter"/><use xlink:href="#L" x="282.8" y="258.2" style="fill-opacity:0;stroke:#d62728;stroke-linejoin:miter"/><use xlink:href="#L" x="332.4" y="247.4" style="fill-opacity:0;stroke:#d62728;stroke-linejoin:miter"/><use xlink:href="#L" x="382" y="234.7" style="fill-opacity:0;stroke:#d62728;stroke-linejoin:miter"/><use xlink:href="#L" x="431.6" y="225.4" style="fill-opacity:0;stroke:#d62728;stroke-linejoin:miter"/><use xlink:href="#L" x="481.1" y="195.3" style="fill-opacity:0;stroke:#d62728;stroke-linejoin:miter"/><use xlink:href="#L" x="530.7" y="171" style="fill-opacity:0;stroke:#d62728;stroke-linejoin:miter"/><use xlink:href="#L" x="580.3" y="141.8" style="fill-opacity:0;stroke:#d62728;stroke-linejoin:miter"/><use xlink:href="#L" x="629.9" y="112.4" style="fill-opacity:0;stroke:#d62728;stroke-linejoin:miter"/><use xlink:href="#L" x="679.5" y="95.9" style="fill-opacity:0;stroke:#d62728;stroke-linejoin:miter"/></g><path d="M54.7 389.3V27m654.5 362.3V27M54.7 389.3h654.5M54.7 26.9h654.5" style="fill:none;stroke:#000;stroke-width:.8;stroke-linejoin:miter;stroke-linecap:square"/><g transform="matrix(.12 0 0 -.12 335.5 20.9)"><defs><path id="M" d="M191 3500h609L1894 563l1094 2937h609L2284 0h-781z" transform="scale(.01563)"/></defs><use xlink:href="#t"/><use xlink:href="#t" transform="translate(63.5)"/><use xlink:href="#u" transform="translate(127)"/><use xlink:href="#v" transform="translate(156.4)"/><use xlink:href="#M" transform="translate(274.5)"/><use xlink:href="#B" transform="translate(333.7)"/><use xlink:href="#k" transform="translate(417.6)"/><use xlink:href="#l" transform="translate(496.3)"/><use xlink:href="#m" transform="translate(559.7)"/><use xlink:href="#n" transform="translate(621)"/><use xlink:href="#o" transform="translate(648.7)"/><use xlink:href="#p" transform="translate(676.5)"/><use xlink:href="#q" transform="translate(715.7)"/></g><path d="M60.3 80.3h195q1.7 0 1.7-1.6V32.5q0-1.6-1.6-1.6h-195q-1.7 0-1.7 1.6v46.2q0 1.5 1.6 1.5z" style="fill:#fff;opacity:.8;stroke:#ccc;stroke-linejoin:miter"/><path d="M62 37.4h16" style="fill:none;stroke:#1f77b4;stroke-width:1.5;stroke-linecap:square"/><use xlink:href="#E" x="69.9" y="37.4" style="fill:#1f77b4;stroke:#1f77b4"/><g transform="matrix(.08 0 0 -.08 84.3 40.2)"><defs><path id="N" d="M2375 4863v-479h-550q-309 0-430-125-120-125-120-450v-309h947v-447h-947V0H697v3053H147v447h550v244q0 584 272 851 272 268 862 268z" transform="scale(.01563)"/><path id="O" d="M3328 2828q216 388 516 572t706 184q547 0 844-383 297-382 297-1088V0h-578v2094q0 503-179 746-178 244-543 244-447 0-707-297-259-296-259-809V0h-578v2094q0 506-178 748t-550 242q-441 0-701-298-259-298-259-808V0H581v3500h578v-544q197 322 472 475t653 153q382 0 649-194 267-193 395-562" transform="scale(.01563)"/><path id="P" d="M3513 2113V0h-575v2094q0 497-194 743-194 247-581 247-466 0-735-297-269-296-269-809V0H581v3500h578v-544q207 316 486 472 280 156 646 156 603 0 912-373 310-373 310-1098" transform="scale(.01563)"/></defs><use xlink:href="#m"/><use xlink:href="#M" transform="translate(61.3)"/><use xlink:href="#o" transform="translate(120.5)"/><use xlink:href="#N" transform="translate(148.2)"/><use xlink:href="#w" transform="translate(215.2)"/><use xlink:href="#O" transform="translate(254.2)"/><use xlink:href="#z" transform="translate(351.7)"/><use xlink:href="#m" transform="translate(413.2)"/><use xlink:href="#P" transform="translate(474.5)"/><use xlink:href="#D" transform="translate(537.8)"/></g><path d="M62 49.1h16" style="fill:none;stroke-dasharray:5.55,2.4;stroke-dashoffset:0;stroke:#1f77b4;stroke-width:1.5"/><use xlink:href="#F" x="69.9" y="49.1" style="fill-opacity:0;stroke:#1f77b4"/><g transform="matrix(.08 0 0 -.08 84.3 51.9)"><defs><path id="Q" d="M4653 2053q-272 0-427-231-154-231-154-644 0-406 154-639 155-233 427-233 266 0 420 233 155 233 155 639 0 410-155 642-154 233-420 233m0 397q494 0 784-344 291-343 291-928 0-584-292-927-292-342-783-342-500 0-791 342-290 343-290 927 0 588 292 930t789 342M1428 4353q-269 0-424-233-154-232-154-639 0-412 153-644 153-231 425-231t426 231q155 232 155 644 0 403-156 637-156 235-425 235m2822 397h500L1831-91h-500zm-2822 0q494 0 787-342 294-342 294-927 0-590-292-931t-789-341-786 342q-289 343-289 930 0 582 290 925 291 344 785 344" transform="scale(.01563)"/><path id="R" d="M269 3500h575l719-2731 715 2731h678l719-2731 716 2731h575L4050 0h-678l-753 2869L1863 0h-679z" transform="scale(.01563)"/><path id="S" d="M1959 3097q-462 0-731-361t-269-989 267-989q268-361 733-361 460 0 728 362 269 363 269 988 0 622-269 986-268 364-728 364m0 487q750 0 1178-488 429-487 429-1349 0-859-429-1349Q2709-91 1959-91q-753 0-1180 489-426 490-426 1349 0 862 426 1349 427 488 1180 488" transform="scale(.01563)"/></defs><use xlink:href="#m"/><use xlink:href="#M" transform="translate(61.3)"/><use xlink:href="#o" transform="translate(120.5)"/><use xlink:href="#N" transform="translate(148.2)"/><use xlink:href="#w" transform="translate(215.2)"/><use xlink:href="#e" transform="translate(254.2)"/><use xlink:href="#Q" transform="translate(317.9)"/><use xlink:href="#R" transform="translate(444.7)"/><use xlink:href="#S" transform="translate(526.5)"/><use xlink:href="#A" transform="translate(587.6)"/><use xlink:href="#B" transform="translate(628.8)"/><use xlink:href="#p" transform="translate(680.9)"/><use xlink:href="#D" transform="translate(720)"/></g><path d="M62 60.8h16" style="fill:none;stroke:#ff7f0e;stroke-width:1.5;stroke-linecap:square"/><use xlink:href="#G" x="69.9" y="60.8" style="fill:#ff7f0e;stroke:#ff7f0e;stroke-linejoin:miter"/><g transform="matrix(.08 0 0 -.08 84.3 63.6)"><defs><path id="T" d="M603 3500h575V-63q0-668-255-968-254-300-820-300h-219v487H38q328 0 446 152Q603-541 603-63zm0 1363h575v-729H603z" transform="scale(.01563)"/><path id="U" d="M1159 525v-1856H581v4831h578v-531q182 312 458 463 277 152 661 152 638 0 1036-506 399-506 399-1331T3314 415Q2916-91 2278-91q-384 0-661 152-276 152-458 464m1957 1222q0 634-261 995t-717 361q-457 0-718-361t-261-995 261-995 718-361q456 0 717 361t261 995" transform="scale(.01563)"/></defs><use xlink:href="#T"/><use xlink:href="#U" transform="translate(27.8)"/><use xlink:href="#z" transform="translate(91.3)"/><use xlink:href="#y" transform="translate(152.8)"/><use xlink:href="#w" transform="translate(248)"/><use xlink:href="#O" transform="translate(287)"/><use xlink:href="#z" transform="translate(384.5)"/><use xlink:href="#m" transform="translate(446)"/><use xlink:href="#P" transform="translate(507.3)"/><use xlink:href="#D" transform="translate(570.7)"/></g><path d="M62 72.6h16" style="fill:none;stroke-dasharray:5.55,2.4;stroke-dashoffset:0;stroke:#ff7f0e;stroke-width:1.5"/><use xlink:href="#H" x="69.9" y="72.6" style="fill-opacity:0;stroke:#ff7f0e;stroke-linejoin:miter"/><g transform="matrix(.08 0 0 -.08 84.3 75.4)"><use xlink:href="#T"/><use xlink:href="#U" transform="translate(27.8)"/><use xlink:href="#z" transform="translate(91.3)"/><use xlink:href="#y" transform="translate(152.8)"/><use xlink:href="#w" transform="translate(248)"/><use xlink:href="#e" transform="translate(287)"/><use xlink:href="#Q" transform="translate(350.7)"/><use xlink:href="#R" transform="translate(477.5)"/><use xlink:href="#S" transform="translate(559.3)"/><use xlink:href="#A" transform="translate(620.5)"/><use xlink:href="#B" transform="translate(661.6)"/><use xlink:href="#p" transform="translate(713.7)"/><use xlink:href="#D" transform="translate(752.9)"/></g><path d="M163.7 37.4h16" style="fill:none;stroke:#2ca02c;stroke-width:1.5;stroke-linecap:square"/><use xlink:href="#I" x="171.7" y="37.4" style="fill:#2ca02c;stroke:#2ca02c;stroke-linejoin:miter"/><g transform="matrix(.08 0 0 -.08 186 40.2)"><defs><path id="V" d="M3513 3500 2247 1797 3578 0h-678L1881 1375 863 0H184l1360 1831L300 3500h678l928-1247 928 1247z" transform="scale(.01563)"/></defs><use xlink:href="#T"/><use xlink:href="#V" transform="translate(27.8)"/><use xlink:href="#n" transform="translate(87)"/><use xlink:href="#w" transform="translate(146.5)"/><use xlink:href="#O" transform="translate(185.5)"/><use xlink:href="#z" transform="translate(283)"/><use xlink:href="#m" transform="translate(344.5)"/><use xlink:href="#P" transform="translate(405.8)"/><use xlink:href="#D" transform="translate(469.1)"/></g><path d="M163.7 49.1h16" style="fill:none;stroke-dasharray:5.55,2.4;stroke-dashoffset:0;stroke:#2ca02c;stroke-width:1.5"/><use xlink:href="#J" x="171.7" y="49.1" style="fill-opacity:0;stroke:#2ca02c;stroke-linejoin:miter"/><g transform="matrix(.08 0 0 -.08 186 51.9)"><use xlink:href="#T"/><use xlink:href="#V" transform="translate(27.8)"/><use xlink:href="#n" transform="translate(87)"/><use xlink:href="#w" transform="translate(146.5)"/><use xlink:href="#e" transform="translate(185.5)"/><use xlink:href="#Q" transform="translate(249.2)"/><use xlink:href="#R" transform="translate(376)"/><use xlink:href="#S" transform="translate(457.8)"/><use xlink:href="#A" transform="translate(519)"/><use xlink:href="#B" transform="translate(560)"/><use xlink:href="#p" transform="translate(612.2)"/><use xlink:href="#D" transform="translate(651.4)"/></g><path d="M163.7 60.8h16" style="fill:none;stroke:#d62728;stroke-width:1.5;stroke-linecap:square"/><use xlink:href="#K" x="171.7" y="60.8" style="fill:#d62728;stroke:#d62728;stroke-linejoin:miter"/><g transform="matrix(.08 0 0 -.08 186 63.6)"><use xlink:href="#R"/><use xlink:href="#z" transform="translate(81.8)"/><use xlink:href="#C" transform="translate(143.3)"/><use xlink:href="#U" transform="translate(206.8)"/><use xlink:href="#w" transform="translate(302)"/><use xlink:href="#O" transform="translate(341)"/><use xlink:href="#z" transform="translate(438.5)"/><use xlink:href="#m" transform="translate(500)"/><use xlink:href="#P" transform="translate(561.3)"/><use xlink:href="#D" transform="translate(624.7)"/></g><path d="M163.7 72.6h16" style="fill:none;stroke-dasharray:5.55,2.4;stroke-dashoffset:0;stroke:#d62728;stroke-width:1.5"/><use xlink:href="#L" x="171.7" y="72.6" style="fill-opacity:0;stroke:#d62728;stroke-linejoin:miter"/><g transform="matrix(.08 0 0 -.08 186 75.4)"><use xlink:href="#R"/><use xlink:href="#z" transform="translate(81.8)"/><use xlink:href="#C" transform="translate(143.3)"/><use xlink:href="#U" transform="translate(206.8)"/><use xlink:href="#w" transform="translate(302)"/><use xlink:href="#e" transform="translate(341)"/><use xlink:href="#Q" transform="translate(404.7)"/><use xlink:href="#R" transform="translate(531.5)"/><use xlink:href="#S" transform="translate(613.3)"/><use xlink:href="#A" transform="translate(674.5)"/><use xlink:href="#B" transform="translate(715.6)"/><use xlink:href="#p" transform="translate(767.7)"/><use xlink:href="#D" transform="translate(806.9)"/></g><defs><clipPath id="a"><path d="M54.7 26.9h654.5v362.4H54.7z"/></clipPath></defs></svg>