<svg xmlns="http://www.w3.org/2000/svg" xmlns:xlink="http://www.w3.org/1999/xlink" width="960" height="576" viewBox="0 0 720 432"><path d="M0 432h720V0H0z" style="fill:#fff"/><path d="M61.1 389.3h648.1V27h-648z" style="fill:#fff"/><path d="M90.6 389.3V27" clip-path="url(#a)" style="fill:none;stroke:#b0b0b0;stroke-opacity:.3;stroke-width:.8;stroke-linecap:square"/><defs><path id="b" d="M0 0v3.5" style="stroke:#000;stroke-width:.8"/></defs><use xlink:href="#b" x="90.6" y="389.3" style="stroke:#000;stroke-width:.8"/><g transform="matrix(.1 0 0 -.1 84.2 404)"><defs><path id="c" d="M2419 4116 825 1625h1594zm-166 550h794V1625h666v-525h-666V0h-628v1100H313v609z" transform="scale(.01563)"/><path id="d" d="M2034 4250q-487 0-733-480-245-479-245-1442 0-959 245-1439 246-480 733-480 491 0 736 480 246 480 246 1439 0 963-246 1442-245 480-736 480m0 500q785 0 1199-621 414-620 414-1801 0-1178-414-1799Q2819-91 2034-91q-784 0-1198 620-414 621-414 1799 0 1181 414 1801 414 621 1198 621" transform="scale(.01563)"/></defs><use xlink:href="#c"/><use xlink:href="#d" transform="translate(63.6)"/></g><path d="M188.8 389.3V27" clip-path="url(#a)" style="fill:none;stroke:#b0b0b0;stroke-opacity:.3;stroke-width:.8;stroke-linecap:square"/><use xlink:href="#b" x="188.8" y="389.3" style="stroke:#000;stroke-width:.8"/><g transform="matrix(.1 0 0 -.1 182.4 404)"><defs><path id="e" d="M691 4666h2478v-532H1269V2991q137 47 274 70 138 23 276 23 781 0 1237-428 457-428 457-1159 0-753-469-1171Q2575-91 1722-91q-294 0-599 50Q819 9 494 109v635q281-153 581-228t634-75q541 0 856 284 316 284 316 772 0 487-316 771-315 285-856 285-253 0-505-56-251-56-513-175z" transform="scale(.01563)"/></defs><use xlink:href="#e"/><use xlink:href="#d" transform="translate(63.6)"/></g><path d="M287 389.3V27" clip-path="url(#a)" style="fill:none;stroke:#b0b0b0;stroke-opacity:.3;stroke-width:.8;stroke-linecap:square"/><use xlink:href="#b" x="287" y="389.3" style="stroke:#000;stroke-width:.8"/><g transform="matrix(.1 0 0 -.1 280.6 404)"><defs><path id="f" d="M2113 2584q-425 0-674-291-248-290-248-796 0-503 248-796 249-292 674-292t673 292q248 293 248 796 0 506-248 796-248 291-673 291m1253 1979v-575q-238 112-480 171-242 60-480 60-625 0-955-422-329-422-376-1275 184 272 462 417 279 145 613 145 703 0 1111-427 408-426 408-1160 0-719-425-1154Q2819-91 2113-91q-810 0-1238 620-428 621-428 1799 0 1106 525 1764t1409 658q238 0 480-47t505-140" transform="scale(.01563)"/></defs><use xlink:href="#f"/><use xlink:href="#d" transform="translate(63.6)"/></g><path d="M385.2 389.3V27" clip-path="url(#a)" style="fill:none;stroke:#b0b0b0;stroke-opacity:.3;stroke-width:.8;stroke-linecap:square"/><use xlink:href="#b" x="385.2" y="389.3" style="stroke:#000;stroke-width:.8"/><g transform="matrix(.1 0 0 -.1 378.8 404)"><defs><path id="g" d="M525 4666h3000v-269L1831 0h-659l1594 4134H525z" transform="scale(.01563)"/></defs><use xlink:href="#g"/><use xlink:href="#d" transform="translate(63.6)"/></g><path d="M483.4 389.3V27" clip-path="url(#a)" style="fill:none;stroke:#b0b0b0;stroke-opacity:.3;stroke-width:.8;stroke-linecap:square"/><use xlink:href="#b" x="483.4" y="389.3" style="stroke:#000;stroke-width:.8"/><g transform="matrix(.1 0 0 -.1 477 404)"><defs><path id="h" d="M2034 2216q-450 0-708-241-257-241-257-662 0-422 257-663 258-241 708-241t709 242q260 243 260 662 0 421-258 662-257 241-711 241m-631 268q-406 100-633 378-226 279-226 679 0 559 398 884 399 325 1092 325 697 0 1094-325t397-884q0-400-227-679-226-278-629-378 456-106 710-416 255-309 255-755 0-679-414-1042Q2806-91 2034-91q-771 0-1186 362-414 363-414 1042 0 446 256 755 257 310 713 416m-231 997q0-362 226-565 227-203 636-203 407 0 636 203 230 203 230 565 0 363-230 566-229 203-636 203-409 0-636-203-226-203-226-566" transform="scale(.01563)"/></defs><use xlink:href="#h"/><use xlink:href="#d" transform="translate(63.6)"/></g><path d="M581.5 389.3V27" clip-path="url(#a)" style="fill:none;stroke:#b0b0b0;stroke-opacity:.3;stroke-width:.8;stroke-linecap:square"/><use xlink:href="#b" x="581.5" y="389.3" style="stroke:#000;stroke-width:.8"/><g transform="matrix(.1 0 0 -.1 575.2 404)"><defs><path id="i" d="M703 97v575q238-113 481-172 244-59 479-59 625 0 954 420 330 420 377 1277-181-269-460-413-278-144-615-144-700 0-1108 423-408 424-408 1159 0 718 425 1152 425 435 1131 435 810 0 1236-621 427-620 427-1801 0-1103-524-1761Q2575-91 1691-91q-238 0-482 47Q966 3 703 97m1256 1978q425 0 673 290 249 291 249 798 0 503-249 795-248 292-673 292t-673-292-248-795q0-507 248-798 248-290 673-290" transform="scale(.01563)"/></defs><use xlink:href="#i"/><use xlink:href="#d" transform="translate(63.6)"/></g><path d="M679.7 389.3V27" clip-path="url(#a)" style="fill:none;stroke:#b0b0b0;stroke-opacity:.3;stroke-width:.8;stroke-linecap:square"/><use xlink:href="#b" x="679.7" y="389.3" style="stroke:#000;stroke-width:.8"/><g transform="matrix(.1 0 0 -.1 670.2 404)"><defs><path id="j" d="M794 531h1031v3560L703 3866v575l1116 225h631V531h1031V0H794z" transform="scale(.01563)"/></defs><use xlink:href="#j"/><use xlink:href="#d" transform="translate(63.6)"/><use xlink:href="#d" transform="translate(127.2)"/></g><g transform="matrix(.11 0 0 -.11 365.5 418.4)"><defs><path id="k" d="M2522 4238q-688 0-1093-513-404-512-404-1397 0-881 404-1394 405-512 1093-512 687 0 1089 512 402 513 402 1394 0 885-402 1397-402 513-1089 513M3406 84l832-909h-763L2784-78q-103-6-158-9-54-4-104-4-984 0-1574 658-589 658-589 1761 0 1106 589 1764 590 658 1574 658 981 0 1568-658 588-658 588-1764 0-812-327-1391-326-578-945-853" transform="scale(.01563)"/><path id="l" d="M544 1381v2119h575V1403q0-497 193-746 194-248 582-248 465 0 735 297 271 297 271 810v1984h575V0h-575v538q-209-319-486-474-276-155-642-155-603 0-916 375-312 375-312 1097m1447 2203" transform="scale(.01563)"/><path id="m" d="M2194 1759q-697 0-966-159t-269-544q0-306 202-486 202-179 548-179 479 0 768 339t289 901v128zm1147 238V0h-575v531q-197-318-491-470T1556-91q-537 0-855 302-317 302-317 808 0 590 395 890 396 300 1180 300h807v57q0 397-261 614t-733 217q-300 0-585-72-284-72-546-216v532q315 122 612 182 297 61 578 61 760 0 1135-394 375-393 375-1193" transform="scale(.01563)"/><path id="n" d="M603 4863h575V0H603z" transform="scale(.01563)"/><path id="o" d="M603 3500h575V0H603zm0 1363h575v-729H603z" transform="scale(.01563)"/><path id="p" d="M1172 4494v-994h1184v-447H1172V1153q0-428 117-550t477-122h590V0h-590q-666 0-919 248-253 249-253 905v1900H172v447h422v994z" transform="scale(.01563)"/><path id="q" d="M2059-325q-243-625-475-815-231-191-618-191H506v481h338q237 0 368 113 132 112 291 531l103 262L191 3500h609L1894 763l1094 2737h609z" transform="scale(.01563)"/></defs><use xlink:href="#k"/><use xlink:href="#l" transform="translate(78.7)"/><use xlink:href="#m" transform="translate(142)"/><use xlink:href="#n" transform="translate(203.4)"/><use xlink:href="#o" transform="translate(231.2)"/><use xlink:href="#p" transform="translate(259)"/><use xlink:href="#q" transform="translate(298.1)"/></g><path d="M61.1 349.4h648.1" clip-path="url(#a)" style="fill:none;stroke:#b0b0b0;stroke-opacity:.3;stroke-width:.8;stroke-linecap:square"/><defs><path id="r" d="M0 0h-3.5" style="stroke:#000;stroke-width:.8"/></defs><use xlink:href="#r" x="61.1" y="349.4" style="stroke:#000;stroke-width:.8"/><g transform="matrix(.1 0 0 -.1 25.5 353.2)"><defs><path id="s" d="M684 794h660V0H684z" transform="scale(.01563)"/><path id="t" d="M1228 531h2203V0H469v531q359 372 979 998 621 627 780 809 303 340 423 576 121 236 121 464 0 372-261 606-261 235-680 235-297 0-627-103-329-103-704-313v638q381 153 712 231 332 78 607 78 725 0 1156-363 431-362 431-968 0-288-108-546-107-257-392-607-78-91-497-524-418-433-1181-1211" transform="scale(.01563)"/></defs><use xlink:href="#d"/><use xlink:href="#s" transform="translate(63.6)"/><use xlink:href="#d" transform="translate(95.4)"/><use xlink:href="#d" transform="translate(159)"/><use xlink:href="#t" transform="translate(222.7)"/></g><path d="M61.1 303.4h648.1" clip-path="url(#a)" style="fill:none;stroke:#b0b0b0;stroke-opacity:.3;stroke-width:.8;stroke-linecap:square"/><use xlink:href="#r" x="61.1" y="303.4" style="stroke:#000;stroke-width:.8"/><g transform="matrix(.1 0 0 -.1 25.5 307.2)"><use xlink:href="#d"/><use xlink:href="#s" transform="translate(63.6)"/><use xlink:href="#d" transform="translate(95.4)"/><use xlink:href="#d" transform="translate(159)"/><use xlink:href="#c" transform="translate(222.7)"/></g><path d="M61.1 257.5h648.1" clip-path="url(#a)" style="fill:none;stroke:#b0b0b0;stroke-opacity:.3;stroke-width:.8;stroke-linecap:square"/><use xlink:href="#r" x="61.1" y="257.5" style="stroke:#000;stroke-width:.8"/><g transform="matrix(.1 0 0 -.1 25.5 261.3)"><use xlink:href="#d"/><use xlink:href="#s" transform="translate(63.6)"/><use xlink:href="#d" transform="translate(95.4)"/><use xlink:href="#d" transform="translate(159)"/><use xlink:href="#f" transform="translate(222.7)"/></g><path d="M61.1 211.6h648.1" clip-path="url(#a)" style="fill:none;stroke:#b0b0b0;stroke-opacity:.3;stroke-width:.8;stroke-linecap:square"/><use xlink:href="#r" x="61.1" y="211.6" style="stroke:#000;stroke-width:.8"/><g transform="matrix(.1 0 0 -.1 25.5 215.4)"><use xlink:href="#d"/><use xlink:href="#s" transform="translate(63.6)"/><use xlink:href="#d" transform="translate(95.4)"/><use xlink:href="#d" transform="translate(159)"/><use xlink:href="#h" transform="translate(222.7)"/></g><path d="M61.1 165.6h648.1" clip-path="url(#a)" style="fill:none;stroke:#b0b0b0;stroke-opacity:.3;stroke-width:.8;stroke-linecap:square"/><use xlink:href="#r" x="61.1" y="165.6" style="stroke:#000;stroke-width:.8"/><g transform="matrix(.1 0 0 -.1 25.5 169.4)"><use xlink:href="#d"/><use xlink:href="#s" transform="translate(63.6)"/><use xlink:href="#d" transform="translate(95.4)"/><use xlink:href="#j" transform="translate(159)"/><use xlink:href="#d" transform="translate(222.7)"/></g><path d="M61.1 119.7h648.1" clip-path="url(#a)" style="fill:none;stroke:#b0b0b0;stroke-opacity:.3;stroke-width:.8;stroke-linecap:square"/><use xlink:href="#r" x="61.1" y="119.7" style="stroke:#000;stroke-width:.8"/><g transform="matrix(.1 0 0 -.1 25.5 123.5)"><use xlink:href="#d"/><use xlink:href="#s" transform="translate(63.6)"/><use xlink:href="#d" transform="translate(95.4)"/><use xlink:href="#j" transform="translate(159)"/><use xlink:href="#t" transform="translate(222.7)"/></g><path d="M61.1 73.8h648.1" clip-path="url(#a)" style="fill:none;stroke:#b0b0b0;stroke-opacity:.3;stroke-width:.8;stroke-linecap:square"/><use xlink:href="#r" x="61.1" y="73.8" style="stroke:#000;stroke-width:.8"/><g transform="matrix(.1 0 0 -.1 25.5 77.6)"><use xlink:href="#d"/><use xlink:href="#s" transform="translate(63.6)"/><use xlink:href="#d" transform="translate(95.4)"/><use xlink:href="#j" transform="translate(159)"/><use xlink:href="#c" transform="translate(222.7)"/></g><path d="M61.1 27.8h648.1" clip-path="url(#a)" style="fill:none;stroke:#b0b0b0;stroke-opacity:.3;stroke-width:.8;stroke-linecap:square"/><use xlink:href="#r" x="61.1" y="27.8" style="stroke:#000;stroke-width:.8"/><g transform="matrix(.1 0 0 -.1 25.5 31.6)"><use xlink:href="#d"/><use xlink:href="#s" transform="translate(63.6)"/><use xlink:href="#d" transform="translate(95.4)"/><use xlink:href="#j" transform="translate(159)"/><use xlink:href="#f" transform="translate(222.7)"/></g><g transform="matrix(0 -.11 -.11 0 19.2 340.3)"><defs><path id="u" d="M1259 2228V519h1013q509 0 754 211 246 211 246 645 0 438-246 645-245 208-754 208zm0 1919V2741h935q462 0 688 173 227 174 227 530 0 353-227 528-226 175-688 175zm-631 519h1613q722 0 1112-300 391-300 391-853 0-429-200-682t-588-315q466-100 724-418 258-317 258-792 0-625-425-966Q3088 0 2303 0H628z" transform="scale(.01563)"/><path id="v" d="M3597 1894v-281H953q38-594 358-905t892-311q331 0 642 81t618 244V178Q3153 47 2828-22t-659-69q-838 0-1327 487-489 488-489 1320 0 859 464 1363 464 505 1252 505 706 0 1117-455 411-454 411-1235m-575 169q-6 471-264 752-258 282-683 282-481 0-770-272t-333-766z" transform="scale(.01563)"/><path id="w" d="M2834 3397v-544q-243 125-506 187-262 63-544 63-428 0-642-131t-214-394q0-200 153-314t616-217l197-44q612-131 870-370t258-667q0-488-386-773Q2250-91 1575-91q-281 0-586 55T347 128v594q319-166 628-249 309-82 613-82 406 0 624 139 219 139 219 392 0 234-158 359-157 125-692 241l-200 47q-534 112-772 345-237 233-237 639 0 494 350 762 350 269 994 269 318 0 599-47 282-46 519-140" transform="scale(.01563)"/><path id="x" d="M1259 4147V2394h794q441 0 681 228 241 228 241 650 0 419-241 647-240 228-681 228zm-631 519h1425q785 0 1186-355 402-355 402-1039 0-691-402-1044-401-353-1186-353h-794V0H628z" transform="scale(.01563)"/><path id="y" d="M2631 2963q-97 56-211 82-114 27-251 27-488 0-749-317t-261-911V0H581v3500h578v-544q182 319 472 473 291 155 707 155 59 0 131-8 72-7 159-23z" transform="scale(.01563)"/><path id="z" d="M3425 4513v-616q-359 172-678 256-319 85-616 85-515 0-795-200t-280-569q0-310 186-468 186-157 705-254l381-78q706-135 1042-474t336-907q0-679-455-1029Q2797-91 1919-91q-331 0-705 75-373 75-773 222v650q384-215 753-325 369-109 725-109 540 0 834 212 294 213 294 607 0 343-211 537t-692 291l-385 75q-706 140-1022 440-315 300-315 835 0 619 436 975t1201 356q329 0 669-60 341-59 697-177" transform="scale(.01563)"/><path id="A" d="M3328 2828q216 388 516 572t706 184q547 0 844-383 297-382 297-1088V0h-578v2094q0 503-179 746-178 244-543 244-447 0-707-297-259-296-259-809V0h-578v2094q0 506-178 748t-550 242q-441 0-701-298-259-298-259-808V0H581v3500h578v-544q197 322 472 475t653 153q382 0 649-194 267-193 395-562" transform="scale(.01563)"/><path id="B" d="M3122 3366v-538q-244 135-489 202t-495 67q-560 0-870-355-309-354-309-995t309-996q310-354 870-354 250 0 495 67t489 202V134Q2881 22 2623-34q-257-57-548-57-791 0-1257 497-465 497-465 1341 0 856 470 1346 471 491 1290 491 265 0 518-55 253-54 491-163" transform="scale(.01563)"/><path id="C" d="M3513 3500 2247 1797 3578 0h-678L1881 1375 863 0H184l1360 1831L300 3500h678l928-1247 928 1247z" transform="scale(.01563)"/><path id="D" d="M1984 4856q-418-718-622-1422-203-703-203-1425 0-721 205-1429t620-1424h-500Q1016-109 783 600T550 2009q0 697 231 1403 232 707 703 1444z" transform="scale(.01563)"/><path id="E" d="M1959 3097q-462 0-731-361t-269-989 267-989q268-361 733-361 460 0 728 362 269 363 269 988 0 622-269 986-268 364-728 364m0 487q750 0 1178-488 429-487 429-1349 0-859-429-1349Q2709-91 1959-91q-753 0-1180 489-426 490-426 1349 0 862 426 1349 427 488 1180 488" transform="scale(.01563)"/><path id="F" d="M269 3500h575l719-2731 715 2731h678l719-2731 716 2731h575L4050 0h-678l-753 2869L1863 0h-679z" transform="scale(.01563)"/><path id="G" d="M3116 1747q0 634-261 995t-717 361q-457 0-718-361t-261-995 261-995 718-361q456 0 717 361t261 995M1159 2969q182 312 458 463 277 152 661 152 638 0 1036-506 399-506 399-1331T3314 415Q2916-91 2278-91q-384 0-661 152-276 152-458 464V0H581v4863h578z" transform="scale(.01563)"/><path id="H" d="M513 4856h500q468-737 701-1444 233-706 233-1403 0-700-233-1409T1013-844H513q415 716 620 1424t205 1429q0 722-205 1425-205 704-620 1422" transform="scale(.01563)"/></defs><use xlink:href="#u"/><use xlink:href="#q" transform="translate(68.6)"/><use xlink:href="#p" transform="translate(127.8)"/><use xlink:href="#v" transform="translate(167)"/><use xlink:href="#w" transform="translate(228.5)"/><use xlink:href="#x" transform="translate(312.4)"/><use xlink:href="#v" transform="translate(369)"/><use xlink:href="#y" transform="translate(430.6)"/><use xlink:href="#z" transform="translate(503.5)"/><use xlink:href="#w" transform="translate(567)"/><use xlink:href="#o" transform="translate(619)"/><use xlink:href="#A" transform="translate(646.9)"/><use xlink:href="#l" transform="translate(744.3)"/><use xlink:href="#n" transform="translate(807.7)"/><use xlink:href="#m" transform="translate(835.4)"/><use xlink:href="#B" transform="translate(896.7)"/><use xlink:href="#y" transform="translate(951.7)"/><use xlink:href="#m" transform="translate(992.8)"/><use xlink:href="#t" transform="translate(1054)"/><use xlink:href="#x" transform="translate(1149.5)"/><use xlink:href="#v" transform="translate(1206.2)"/><use xlink:href="#y" transform="translate(1267.7)"/><use xlink:href="#x" transform="translate(1340.6)"/><use xlink:href="#o" transform="translate(1398.7)"/><use xlink:href="#C" transform="translate(1426.4)"/><use xlink:href="#v" transform="translate(1482.5)"/><use xlink:href="#n" transform="translate(1544)"/><use xlink:href="#D" transform="translate(1603.6)"/><use xlink:href="#n" transform="translate(1642.6)"/><use xlink:href="#E" transform="translate(1670.4)"/><use xlink:href="#F" transform="translate(1731.6)"/><use xlink:href="#v" transform="translate(1813.4)"/><use xlink:href="#y" transform="translate(1874.9)"/><use xlink:href="#o" transform="translate(1947.8)"/><use xlink:href="#w" transform="translate(1975.6)"/><use xlink:href="#G" transform="translate(2059.4)"/><use xlink:href="#v" transform="translate(2123)"/><use xlink:href="#p" transform="translate(2184.4)"/><use xlink:href="#p" transform="translate(2223.7)"/><use xlink:href="#v" transform="translate(2262.9)"/><use xlink:href="#y" transform="translate(2324.4)"/><use xlink:href="#H" transform="translate(2365.5)"/></g><path d="m90.6 372.8 49-2.4 49.2-3 49-5 49.2-4.6 49-4.6 49.2-4.4 49-5.4 49.2-7.6 49-15.5 49.1-20.8" clip-path="url(#a)" style="fill:none;stroke:#1f77b4;stroke-width:1.5;stroke-linecap:square"/><defs><path id="I" d="M0 3.5a3.5 3.5 0 1 0 0-7 3.5 3.5 0 0 0 0 7z" style="stroke:#1f77b4"/></defs><g clip-path="url(#a)"><use xlink:href="#I" x="90.6" y="372.8" style="fill:#1f77b4;stroke:#1f77b4"/><use xlink:href="#I" x="139.7" y="370.4" style="fill:#1f77b4;stroke:#1f77b4"/><use xlink:href="#I" x="188.8" y="367.4" style="fill:#1f77b4;stroke:#1f77b4"/><use xlink:href="#I" x="237.9" y="362.4" style="fill:#1f77b4;stroke:#1f77b4"/><use xlink:href="#I" x="287" y="357.8" style="fill:#1f77b4;stroke:#1f77b4"/><use xlink:href="#I" x="336.1" y="353.2" style="fill:#1f77b4;stroke:#1f77b4"/><use xlink:href="#I" x="385.2" y="348.8" style="fill:#1f77b4;stroke:#1f77b4"/><use xlink:href="#I" x="434.3" y="343.4" style="fill:#1f77b4;stroke:#1f77b4"/><use xlink:href="#I" x="483.4" y="335.8" style="fill:#1f77b4;stroke:#1f77b4"/><use xlink:href="#I" x="532.5" y="320.3" style="fill:#1f77b4;stroke:#1f77b4"/><use xlink:href="#I" x="581.5" y="299.5" style="fill:#1f77b4;stroke:#1f77b4"/></g><path d="m90.6 341 49-4.8 49.2-5.7 49-9L287 314l49-7 49.2-6.5 49-7.8 49.2-12 49-22.4 49.1-37" clip-path="url(#a)" style="fill:none;stroke-dasharray:5.55,2.4;stroke-dashoffset:0;stroke:#1f77b4;stroke-width:1.5"/><defs><path id="J" d="M0 3.5a3.5 3.5 0 1 0 0-7 3.5 3.5 0 0 0 0 7z" style="stroke:#1f77b4"/></defs><g clip-path="url(#a)"><use xlink:href="#J" x="90.6" y="340.9" style="fill-opacity:0;stroke:#1f77b4"/><use xlink:href="#J" x="139.7" y="336.2" style="fill-opacity:0;stroke:#1f77b4"/><use xlink:href="#J" x="188.8" y="330.5" style="fill-opacity:0;stroke:#1f77b4"/><use xlink:href="#J" x="237.9" y="321.5" style="fill-opacity:0;stroke:#1f77b4"/><use xlink:href="#J" x="287" y="314" style="fill-opacity:0;stroke:#1f77b4"/><use xlink:href="#J" x="336.1" y="307" style="fill-opacity:0;stroke:#1f77b4"/><use xlink:href="#J" x="385.2" y="300.5" style="fill-opacity:0;stroke:#1f77b4"/><use xlink:href="#J" x="434.3" y="292.7" style="fill-opacity:0;stroke:#1f77b4"/><use xlink:href="#J" x="483.4" y="280.6" style="fill-opacity:0;stroke:#1f77b4"/><use xlink:href="#J" x="532.5" y="258.3" style="fill-opacity:0;stroke:#1f77b4"/><use xlink:href="#J" x="581.5" y="221.2" style="fill-opacity:0;stroke:#1f77b4"/></g><path d="m188.8 355.8 49-1.1 49.2-1.8 49-2 49.2-2.7 49-3.1 49.2-5.2 49-7.6 49.1-13.4 49.1-29.6 49.1-99.3" clip-path="url(#a)" style="fill:none;stroke:#ff7f0e;stroke-width:1.5;stroke-linecap:square"/><defs><path id="K" d="M-3.5 3.5h7v-7h-7z" style="stroke:#ff7f0e;stroke-linejoin:miter"/></defs><g clip-path="url(#a)"><use xlink:href="#K" x="188.8" y="355.8" style="fill:#ff7f0e;stroke:#ff7f0e;stroke-linejoin:miter"/><use xlink:href="#K" x="237.9" y="354.7" style="fill:#ff7f0e;stroke:#ff7f0e;stroke-linejoin:miter"/><use xlink:href="#K" x="287" y="352.9" style="fill:#ff7f0e;stroke:#ff7f0e;stroke-linejoin:miter"/><use xlink:href="#K" x="336.1" y="350.9" style="fill:#ff7f0e;stroke:#ff7f0e;stroke-linejoin:miter"/><use xlink:href="#K" x="385.2" y="348.2" style="fill:#ff7f0e;stroke:#ff7f0e;stroke-linejoin:miter"/><use xlink:href="#K" x="434.3" y="345.1" style="fill:#ff7f0e;stroke:#ff7f0e;stroke-linejoin:miter"/><use xlink:href="#K" x="483.4" y="339.9" style="fill:#ff7f0e;stroke:#ff7f0e;stroke-linejoin:miter"/><use xlink:href="#K" x="532.5" y="332.3" style="fill:#ff7f0e;stroke:#ff7f0e;stroke-linejoin:miter"/><use xlink:href="#K" x="581.5" y="318.9" style="fill:#ff7f0e;stroke:#ff7f0e;stroke-linejoin:miter"/><use xlink:href="#K" x="630.6" y="289.3" style="fill:#ff7f0e;stroke:#ff7f0e;stroke-linejoin:miter"/><use xlink:href="#K" x="679.7" y="190" style="fill:#ff7f0e;stroke:#ff7f0e;stroke-linejoin:miter"/></g><path d="m188.8 322.8 49-2.3 49.2-2 49-2 49.2-3.6 49-5.1 49.2-8.2 49-11.2 49.1-18.9 49.1-39.9 49.1-131.5" clip-path="url(#a)" style="fill:none;stroke-dasharray:5.55,2.4;stroke-dashoffset:0;stroke:#ff7f0e;stroke-width:1.5"/><defs><path id="L" d="M-3.5 3.5h7v-7h-7z" style="stroke:#ff7f0e;stroke-linejoin:miter"/></defs><g clip-path="url(#a)"><use xlink:href="#L" x="188.8" y="322.8" style="fill-opacity:0;stroke:#ff7f0e;stroke-linejoin:miter"/><use xlink:href="#L" x="237.9" y="320.5" style="fill-opacity:0;stroke:#ff7f0e;stroke-linejoin:miter"/><use xlink:href="#L" x="287" y="318.5" style="fill-opacity:0;stroke:#ff7f0e;stroke-linejoin:miter"/><use xlink:href="#L" x="336.1" y="316.6" style="fill-opacity:0;stroke:#ff7f0e;stroke-linejoin:miter"/><use xlink:href="#L" x="385.2" y="312.9" style="fill-opacity:0;stroke:#ff7f0e;stroke-linejoin:miter"/><use xlink:href="#L" x="434.3" y="307.8" style="fill-opacity:0;stroke:#ff7f0e;stroke-linejoin:miter"/><use xlink:href="#L" x="483.4" y="299.6" style="fill-opacity:0;stroke:#ff7f0e;stroke-linejoin:miter"/><use xlink:href="#L" x="532.5" y="288.4" style="fill-opacity:0;stroke:#ff7f0e;stroke-linejoin:miter"/><use xlink:href="#L" x="581.5" y="269.5" style="fill-opacity:0;stroke:#ff7f0e;stroke-linejoin:miter"/><use xlink:href="#L" x="630.6" y="229.6" style="fill-opacity:0;stroke:#ff7f0e;stroke-linejoin:miter"/><use xlink:href="#L" x="679.7" y="98.1" style="fill-opacity:0;stroke:#ff7f0e;stroke-linejoin:miter"/></g><path d="m188.8 372 49-1 49.2-.9 49-1.5 49.2-1.7 49-3.1 49.2-4.7 49-7.3 49.1-12.3 49.1-25.7 49.1-159.2" clip-path="url(#a)" style="fill:none;stroke:#2ca02c;stroke-width:1.5;stroke-linecap:square"/><defs><path id="M" d="m0-3.5-3.5 7h7z" style="stroke:#2ca02c;stroke-linejoin:miter"/></defs><g clip-path="url(#a)"><use xlink:href="#M" x="188.8" y="372.1" style="fill:#2ca02c;stroke:#2ca02c;stroke-linejoin:miter"/><use xlink:href="#M" x="237.9" y="371.1" style="fill:#2ca02c;stroke:#2ca02c;stroke-linejoin:miter"/><use xlink:href="#M" x="287" y="370.1" style="fill:#2ca02c;stroke:#2ca02c;stroke-linejoin:miter"/><use xlink:href="#M" x="336.1" y="368.6" style="fill:#2ca02c;stroke:#2ca02c;stroke-linejoin:miter"/><use xlink:href="#M" x="385.2" y="366.9" style="fill:#2ca02c;stroke:#2ca02c;stroke-linejoin:miter"/><use xlink:href="#M" x="434.3" y="363.8" style="fill:#2ca02c;stroke:#2ca02c;stroke-linejoin:miter"/><use xlink:href="#M" x="483.4" y="359.1" style="fill:#2ca02c;stroke:#2ca02c;stroke-linejoin:miter"/><use xlink:href="#M" x="532.5" y="351.8" style="fill:#2ca02c;stroke:#2ca02c;stroke-linejoin:miter"/><use xlink:href="#M" x="581.5" y="339.5" style="fill:#2ca02c;stroke:#2ca02c;stroke-linejoin:miter"/><use xlink:href="#M" x="630.6" y="313.8" style="fill:#2ca02c;stroke:#2ca02c;stroke-linejoin:miter"/><use xlink:href="#M" x="679.7" y="154.6" style="fill:#2ca02c;stroke:#2ca02c;stroke-linejoin:miter"/></g><path d="m188.8 348.4 49-1.6 49.2-1.6 49-2.4 49.2-2.6 49-4.4 49.2-5.8 49-9.3 49.1-17.6 49.1-34.8 49.1-225" clip-path="url(#a)" style="fill:none;stroke-dasharray:5.55,2.4;stroke-dashoffset:0;stroke:#2ca02c;stroke-width:1.5"/><defs><path id="N" d="m0-3.5-3.5 7h7z" style="stroke:#2ca02c;stroke-linejoin:miter"/></defs><g clip-path="url(#a)"><use xlink:href="#N" x="188.8" y="348.4" style="fill-opacity:0;stroke:#2ca02c;stroke-linejoin:miter"/><use xlink:href="#N" x="237.9" y="346.8" style="fill-opacity:0;stroke:#2ca02c;stroke-linejoin:miter"/><use xlink:href="#N" x="287" y="345.2" style="fill-opacity:0;stroke:#2ca02c;stroke-linejoin:miter"/><use xlink:href="#N" x="336.1" y="342.8" style="fill-opacity:0;stroke:#2ca02c;stroke-linejoin:miter"/><use xlink:href="#N" x="385.2" y="340.2" style="fill-opacity:0;stroke:#2ca02c;stroke-linejoin:miter"/><use xlink:href="#N" x="434.3" y="335.8" style="fill-opacity:0;stroke:#2ca02c;stroke-linejoin:miter"/><use xlink:href="#N" x="483.4" y="330" style="fill-opacity:0;stroke:#2ca02c;stroke-linejoin:miter"/><use xlink:href="#N" x="532.5" y="320.7" style="fill-opacity:0;stroke:#2ca02c;stroke-linejoin:miter"/><use xlink:href="#N" x="581.5" y="303.1" style="fill-opacity:0;stroke:#2ca02c;stroke-linejoin:miter"/><use xlink:href="#N" x="630.6" y="268.3" style="fill-opacity:0;stroke:#2ca02c;stroke-linejoin:miter"/><use xlink:href="#N" x="679.7" y="43.4" style="fill-opacity:0;stroke:#2ca02c;stroke-linejoin:miter"/></g><path d="m188.8 364.5 49-1 49.2-.8 49-1.2 49.2-1.2 49-1.5 49.2-5.6 49-7.6 49.1-13 49.1-23.6 49.1-29.4" clip-path="url(#a)" style="fill:none;stroke:#d62728;stroke-width:1.5;stroke-linecap:square"/><defs><path id="O" d="m0 5 5-5-5-5-5 5z" style="stroke:#d62728;stroke-linejoin:miter"/></defs><g clip-path="url(#a)"><use xlink:href="#O" x="188.8" y="364.5" style="fill:#d62728;stroke:#d62728;stroke-linejoin:miter"/><use xlink:href="#O" x="237.9" y="363.6" style="fill:#d62728;stroke:#d62728;stroke-linejoin:miter"/><use xlink:href="#O" x="287" y="362.7" style="fill:#d62728;stroke:#d62728;stroke-linejoin:miter"/><use xlink:href="#O" x="336.1" y="361.5" style="fill:#d62728;stroke:#d62728;stroke-linejoin:miter"/><use xlink:href="#O" x="385.2" y="360.3" style="fill:#d62728;stroke:#d62728;stroke-linejoin:miter"/><use xlink:href="#O" x="434.3" y="358.8" style="fill:#d62728;stroke:#d62728;stroke-linejoin:miter"/><use xlink:href="#O" x="483.4" y="353.2" style="fill:#d62728;stroke:#d62728;stroke-linejoin:miter"/><use xlink:href="#O" x="532.5" y="345.6" style="fill:#d62728;stroke:#d62728;stroke-linejoin:miter"/><use xlink:href="#O" x="581.5" y="332.6" style="fill:#d62728;stroke:#d62728;stroke-linejoin:miter"/><use xlink:href="#O" x="630.6" y="309" style="fill:#d62728;stroke:#d62728;stroke-linejoin:miter"/><use xlink:href="#O" x="679.7" y="279.6" style="fill:#d62728;stroke:#d62728;stroke-linejoin:miter"/></g><path d="m188.8 332.1 49-2 49.2-1.4 49-2.6 49.2-1.4 49-3 49.2-8.6 49-13.2 49.1-19 49.1-30.6 49.1-38.2" clip-path="url(#a)" style="fill:none;stroke-dasharray:5.55,2.4;stroke-dashoffset:0;stroke:#d62728;stroke-width:1.5"/><defs><path id="P" d="m0 5 5-5-5-5-5 5z" style="stroke:#d62728;stroke-linejoin:miter"/></defs><g clip-path="url(#a)"><use xlink:href="#P" x="188.8" y="332.1" style="fill-opacity:0;stroke:#d62728;stroke-linejoin:miter"/><use xlink:href="#P" x="237.9" y="330" style="fill-opacity:0;stroke:#d62728;stroke-linejoin:miter"/><use xlink:href="#P" x="287" y="328.7" style="fill-opacity:0;stroke:#d62728;stroke-linejoin:miter"/><use xlink:href="#P" x="336.1" y="326.1" style="fill-opacity:0;stroke:#d62728;stroke-linejoin:miter"/><use xlink:href="#P" x="385.2" y="324.7" style="fill-opacity:0;stroke:#d62728;stroke-linejoin:miter"/><use xlink:href="#P" x="434.3" y="321.8" style="fill-opacity:0;stroke:#d62728;stroke-linejoin:miter"/><use xlink:href="#P" x="483.4" y="313.1" style="fill-opacity:0;stroke:#d62728;stroke-linejoin:miter"/><use xlink:href="#P" x="532.5" y="299.9" style="fill-opacity:0;stroke:#d62728;stroke-linejoin:miter"/><use xlink:href="#P" x="581.5" y="280.8" style="fill-opacity:0;stroke:#d62728;stroke-linejoin:miter"/><use xlink:href="#P" x="630.6" y="250.3" style="fill-opacity:0;stroke:#d62728;stroke-linejoin:miter"/><use xlink:href="#P" x="679.7" y="212.1" style="fill-opacity:0;stroke:#d62728;stroke-linejoin:miter"/></g><path d="M61.1 389.3V27m648.1 362.3V27M61.1 389.3h648.1M61.1 26.9h648.1" style="fill:none;stroke:#000;stroke-width:.8;stroke-linejoin:miter;stroke-linecap:square"/><g transform="matrix(.12 0 0 -.12 259 20.9)"><defs><path id="Q" d="M191 3500h609L1894 563l1094 2937h609L2284 0h-781z" transform="scale(.01563)"/></defs><use xlink:href="#u"/><use xlink:href="#q" transform="translate(68.6)"/><use xlink:href="#p" transform="translate(127.8)"/><use xlink:href="#v" transform="translate(167)"/><use xlink:href="#w" transform="translate(228.5)"/><use xlink:href="#x" transform="translate(312.4)"/><use xlink:href="#v" transform="translate(369)"/><use xlink:href="#y" transform="translate(430.6)"/><use xlink:href="#z" transform="translate(503.5)"/><use xlink:href="#w" transform="translate(567)"/><use xlink:href="#o" transform="translate(619)"/><use xlink:href="#A" transform="translate(646.9)"/><use xlink:href="#l" transform="translate(744.3)"/><use xlink:href="#n" transform="translate(807.7)"/><use xlink:href="#m" transform="translate(835.4)"/><use xlink:href="#B" transform="translate(896.7)"/><use xlink:href="#y" transform="translate(951.7)"/><use xlink:href="#m" transform="translate(992.8)"/><use xlink:href="#t" transform="translate(1054)"/><use xlink:href="#x" transform="translate(1149.5)"/><use xlink:href="#v" transform="translate(1206.2)"/><use xlink:href="#y" transform="translate(1267.7)"/><use xlink:href="#x" transform="translate(1340.6)"/><use xlink:href="#o" transform="translate(1398.7)"/><use xlink:href="#C" transform="translate(1426.4)"/><use xlink:href="#v" transform="translate(1482.5)"/><use xlink:href="#n" transform="translate(1544)"/><use xlink:href="#Q" transform="translate(1603.6)"/><use xlink:href="#w" transform="translate(1662.8)"/><use xlink:href="#k" transform="translate(1746.7)"/><use xlink:href="#l" transform="translate(1825.4)"/><use xlink:href="#m" transform="translate(1888.7)"/><use xlink:href="#n" transform="translate(1950)"/><use xlink:href="#o" transform="translate(1977.8)"/><use xlink:href="#p" transform="translate(2005.6)"/><use xlink:href="#q" transform="translate(2044.8)"/></g><path d="M66.7 80.3h195q1.7 0 1.7-1.6V32.5q0-1.6-1.6-1.6h-195q-1.7 0-1.7 1.6v46.2q0 1.5 1.6 1.5z" style="fill:#fff;opacity:.8;stroke:#ccc;stroke-linejoin:miter"/><path d="M68.3 37.4h16" style="fill:none;stroke:#1f77b4;stroke-width:1.5;stroke-linecap:square"/><use xlink:href="#I" x="76.3" y="37.4" style="fill:#1f77b4;stroke:#1f77b4"/><g transform="matrix(.08 0 0 -.08 90.7 40.2)"><defs><path id="R" d="M2375 4863v-479h-550q-309 0-430-125-120-125-120-450v-309h947v-447h-947V0H697v3053H147v447h550v244q0 584 272 851 272 268 862 268z" transform="scale(.01563)"/><path id="S" d="M3513 2113V0h-575v2094q0 497-194 743-194 247-581 247-466 0-735-297-269-296-269-809V0H581v3500h578v-544q207 316 486 472 280 156 646 156 603 0 912-373 310-373 310-1098" transform="scale(.01563)"/></defs><use xlink:href="#m"/><use xlink:href="#Q" transform="translate(61.3)"/><use xlink:href="#o" transform="translate(120.5)"/><use xlink:href="#R" transform="translate(148.2)"/><use xlink:href="#D" transform="translate(215.2)"/><use xlink:href="#A" transform="translate(254.2)"/><use xlink:href="#v" transform="translate(351.7)"/><use xlink:href="#m" transform="translate(413.2)"/><use xlink:href="#S" transform="translate(474.5)"/><use xlink:href="#H" transform="translate(537.8)"/></g><path d="M68.3 49.1h16" style="fill:none;stroke-dasharray:5.55,2.4;stroke-dashoffset:0;stroke:#1f77b4;stroke-width:1.5"/><use xlink:href="#J" x="76.3" y="49.1" style="fill-opacity:0;stroke:#1f77b4"/><g transform="matrix(.08 0 0 -.08 90.7 51.9)"><defs><path id="T" d="M4653 2053q-272 0-427-231-154-231-154-644 0-406 154-639 155-233 427-233 266 0 420 233 155 233 155 639 0 410-155 642-154 233-420 233m0 397q494 0 784-344 291-343 291-928 0-584-292-927-292-342-783-342-500 0-791 342-290 343-290 927 0 588 292 930t789 342M1428 4353q-269 0-424-233-154-232-154-639 0-412 153-644 153-231 425-231t426 231q155 232 155 644 0 403-156 637-156 235-425 235m2822 397h500L1831-91h-500zm-2822 0q494 0 787-342 294-342 294-927 0-590-292-931t-789-341-786 342q-289 343-289 930 0 582 290 925 291 344 785 344" transform="scale(.01563)"/></defs><use xlink:href="#m"/><use xlink:href="#Q" transform="translate(61.3)"/><use xlink:href="#o" transform="translate(120.5)"/><use xlink:href="#R" transform="translate(148.2)"/><use xlink:href="#D" transform="translate(215.2)"/><use xlink:href="#e" transform="translate(254.2)"/><use xlink:href="#T" transform="translate(317.9)"/><use xlink:href="#F" transform="translate(444.7)"/><use xlink:href="#E" transform="translate(526.5)"/><use xlink:href="#y" transform="translate(587.6)"/><use xlink:href="#w" transform="translate(628.8)"/><use xlink:href="#p" transform="translate(680.9)"/><use xlink:href="#H" transform="translate(720)"/></g><path d="M68.3 60.8h16" style="fill:none;stroke:#ff7f0e;stroke-width:1.5;stroke-linecap:square"/><use xlink:href="#K" x="76.3" y="60.8" style="fill:#ff7f0e;stroke:#ff7f0e;stroke-linejoin:miter"/><g transform="matrix(.08 0 0 -.08 90.7 63.6)"><defs><path id="U" d="M603 3500h575V-63q0-668-255-968-254-300-820-300h-219v487H38q328 0 446 152Q603-541 603-63zm0 1363h575v-729H603z" transform="scale(.01563)"/><path id="V" d="M1159 525v-1856H581v4831h578v-531q182 312 458 463 277 152 661 152 638 0 1036-506 399-506 399-1331T3314 415Q2916-91 2278-91q-384 0-661 152-276 152-458 464m1957 1222q0 634-261 995t-717 361q-457 0-718-361t-261-995 261-995 718-361q456 0 717 361t261 995" transform="scale(.01563)"/><path id="W" d="M2906 1791q0 625-258 968-257 344-723 344-462 0-720-344-258-343-258-968 0-622 258-966t720-344q466 0 723 344 258 344 258 966m575-1357q0-893-397-1329-396-436-1215-436-303 0-572 45t-522 139v559q253-137 500-202 247-66 503-66 566 0 847 295t281 892v285q-178-310-456-463T1784 0Q1141 0 747 490 353 981 353 1791q0 812 394 1302 394 491 1037 491 388 0 666-153t456-462v531h575z" transform="scale(.01563)"/></defs><use xlink:href="#U"/><use xlink:href="#V" transform="translate(27.8)"/><use xlink:href="#v" transform="translate(91.3)"/><use xlink:href="#W" transform="translate(152.8)"/><use xlink:href="#D" transform="translate(248)"/><use xlink:href="#A" transform="translate(287)"/><use xlink:href="#v" transform="translate(384.5)"/><use xlink:href="#m" transform="translate(446)"/><use xlink:href="#S" transform="translate(507.3)"/><use xlink:href="#H" transform="translate(570.7)"/></g><path d="M68.3 72.6h16" style="fill:none;stroke-dasharray:5.55,2.4;stroke-dashoffset:0;stroke:#ff7f0e;stroke-width:1.5"/><use xlink:href="#L" x="76.3" y="72.6" style="fill-opacity:0;stroke:#ff7f0e;stroke-linejoin:miter"/><g transform="matrix(.08 0 0 -.08 90.7 75.4)"><use xlink:href="#U"/><use xlink:href="#V" transform="translate(27.8)"/><use xlink:href="#v" transform="translate(91.3)"/><use xlink:href="#W" transform="translate(152.8)"/><use xlink:href="#D" transform="translate(248)"/><use xlink:href="#e" transform="translate(287)"/><use xlink:href="#T" transform="translate(350.7)"/><use xlink:href="#F" transform="translate(477.5)"/><use xlink:href="#E" transform="translate(559.3)"/><use xlink:href="#y" transform="translate(620.5)"/><use xlink:href="#w" transform="translate(661.6)"/><use xlink:href="#p" transform="translate(713.7)"/><use xlink:href="#H" transform="translate(752.9)"/></g><path d="M170 37.4h16" style="fill:none;stroke:#2ca02c;stroke-width:1.5;stroke-linecap:square"/><use xlink:href="#M" x="178.1" y="37.4" style="fill:#2ca02c;stroke:#2ca02c;stroke-linejoin:miter"/><g transform="matrix(.08 0 0 -.08 192.5 40.2)"><use xlink:href="#U"/><use xlink:href="#C" transform="translate(27.8)"/><use xlink:href="#n" transform="translate(87)"/><use xlink:href="#D" transform="translate(146.5)"/><use xlink:href="#A" transform="translate(185.5)"/><use xlink:href="#v" transform="translate(283)"/><use xlink:href="#m" transform="translate(344.5)"/><use xlink:href="#S" transform="translate(405.8)"/><use xlink:href="#H" transform="translate(469.1)"/></g><path d="M170 49.1h16" style="fill:none;stroke-dasharray:5.55,2.4;stroke-dashoffset:0;stroke:#2ca02c;stroke-width:1.5"/><use xlink:href="#N" x="178.1" y="49.1" style="fill-opacity:0;stroke:#2ca02c;stroke-linejoin:miter"/><g transform="matrix(.08 0 0 -.08 192.5 51.9)"><use xlink:href="#U"/><use xlink:href="#C" transform="translate(27.8)"/><use xlink:href="#n" transform="translate(87)"/><use xlink:href="#D" transform="translate(146.5)"/><use xlink:href="#e" transform="translate(185.5)"/><use xlink:href="#T" transform="translate(249.2)"/><use xlink:href="#F" transform="translate(376)"/><use xlink:href="#E" transform="translate(457.8)"/><use xlink:href="#y" transform="translate(519)"/><use xlink:href="#w" transform="translate(560)"/><use xlink:href="#p" transform="translate(612.2)"/><use xlink:href="#H" transform="translate(651.4)"/></g><path d="M170 60.8h16" style="fill:none;stroke:#d62728;stroke-width:1.5;stroke-linecap:square"/><use xlink:href="#O" x="178.1" y="60.8" style="fill:#d62728;stroke:#d62728;stroke-linejoin:miter"/><g transform="matrix(.08 0 0 -.08 192.5 63.6)"><use xlink:href="#F"/><use xlink:href="#v" transform="translate(81.8)"/><use xlink:href="#G" transform="translate(143.3)"/><use xlink:href="#V" transform="translate(206.8)"/><use xlink:href="#D" transform="translate(302)"/><use xlink:href="#A" transform="translate(341)"/><use xlink:href="#v" transform="translate(438.5)"/><use xlink:href="#m" transform="translate(500)"/><use xlink:href="#S" transform="translate(561.3)"/><use xlink:href="#H" transform="translate(624.7)"/></g><path d="M170 72.6h16" style="fill:none;stroke-dasharray:5.55,2.4;stroke-dashoffset:0;stroke:#d62728;stroke-width:1.5"/><use xlink:href="#P" x="178.1" y="72.6" style="fill-opacity:0;stroke:#d62728;stroke-linejoin:miter"/><g transform="matrix(.08 0 0 -.08 192.5 75.4)"><use xlink:href="#F"/><use xlink:href="#v" transform="translate(81.8)"/><use xlink:href="#G" transform="translate(143.3)"/><use xlink:href="#V" transform="translate(206.8)"/><use xlink:href="#D" transform="translate(302)"/><use xlink:href="#e" transform="translate(341)"/><use xlink:href="#T" transform="translate(404.7)"/><use xlink:href="#F" transform="translate(531.5)"/><use xlink:href="#E" transform="translate(613.3)"/><use xlink:href="#y" transform="translate(674.5)"/><use xlink:href="#w" transform="translate(715.6)"/><use xlink:href="#p" transform="translate(767.7)"/><use xlink:href="#H" transform="translate(806.9)"/></g><defs><clipPath id="a"><path d="M61.1 26.9h648.1v362.4H61.1z"/></clipPath></defs></svg>