<svg xmlns="http://www.w3.org/2000/svg" xmlns:xlink="http://www.w3.org/1999/xlink" width="960" height="576" viewBox="0 0 720 432"><path d="M0 432h720V0H0z" style="fill:#fff"/><path d="M54.7 389.3h654.5V27H54.6z" style="fill:#fff"/><path d="M91.6 389.3V27" clip-path="url(#a)" style="fill:none;stroke:#b0b0b0;stroke-opacity:.3;stroke-width:.8;stroke-linecap:square"/><defs><path id="b" d="M0 0v3.5" style="stroke:#000;stroke-width:.8"/></defs><use xlink:href="#b" x="91.6" y="389.3" style="stroke:#000;stroke-width:.8"/><g transform="matrix(.1 0 0 -.1 80.5 404)"><defs><path id="c" d="M2034 4250q-487 0-733-480-245-479-245-1442 0-959 245-1439 246-480 733-480 491 0 736 480 246 480 246 1439 0 963-246 1442-245 480-736 480m0 500q785 0 1199-621 414-620 414-1801 0-1178-414-1799Q2819-91 2034-91q-784 0-1198 620-414 621-414 1799 0 1181 414 1801 414 621 1198 621" transform="scale(.01563)"/><path id="d" d="M684 794h660V0H684z" transform="scale(.01563)"/><path id="e" d="M691 4666h2478v-532H1269V2991q137 47 274 70 138 23 276 23 781 0 1237-428 457-428 457-1159 0-753-469-1171Q2575-91 1722-91q-294 0-599 50Q819 9 494 109v635q281-153 581-228t634-75q541 0 856 284 316 284 316 772 0 487-316 771-315 285-856 285-253 0-505-56-251-56-513-175z" transform="scale(.01563)"/></defs><use xlink:href="#c"/><use xlink:href="#d" transform="translate(63.6)"/><use xlink:href="#c" transform="translate(95.4)"/><use xlink:href="#e" transform="translate(159)"/></g><path d="M166.3 389.3V27" clip-path="url(#a)" style="fill:none;stroke:#b0b0b0;stroke-opacity:.3;stroke-width:.8;stroke-linecap:square"/><use xlink:href="#b" x="166.3" y="389.3" style="stroke:#000;stroke-width:.8"/><g transform="matrix(.1 0 0 -.1 155.1 404)"><defs><path id="f" d="M794 531h1031v3560L703 3866v575l1116 225h631V531h1031V0H794z" transform="scale(.01563)"/></defs><use xlink:href="#c"/><use xlink:href="#d" transform="translate(63.6)"/><use xlink:href="#f" transform="translate(95.4)"/><use xlink:href="#c" transform="translate(159)"/></g><path d="M240.9 389.3V27" clip-path="url(#a)" style="fill:none;stroke:#b0b0b0;stroke-opacity:.3;stroke-width:.8;stroke-linecap:square"/><use xlink:href="#b" x="240.9" y="389.3" style="stroke:#000;stroke-width:.8"/><g transform="matrix(.1 0 0 -.1 229.8 404)"><use xlink:href="#c"/><use xlink:href="#d" transform="translate(63.6)"/><use xlink:href="#f" transform="translate(95.4)"/><use xlink:href="#e" transform="translate(159)"/></g><path d="M315.5 389.3V27" clip-path="url(#a)" style="fill:none;stroke:#b0b0b0;stroke-opacity:.3;stroke-width:.8;stroke-linecap:square"/><use xlink:href="#b" x="315.5" y="389.3" style="stroke:#000;stroke-width:.8"/><g transform="matrix(.1 0 0 -.1 304.4 404)"><defs><path id="g" d="M1228 531h2203V0H469v531q359 372 979 998 621 627 780 809 303 340 423 576 121 236 121 464 0 372-261 606-261 235-680 235-297 0-627-103-329-103-704-313v638q381 153 712 231 332 78 607 78 725 0 1156-363 431-362 431-968 0-288-108-546-107-257-392-607-78-91-497-524-418-433-1181-1211" transform="scale(.01563)"/></defs><use xlink:href="#c"/><use xlink:href="#d" transform="translate(63.6)"/><use xlink:href="#g" transform="translate(95.4)"/><use xlink:href="#c" transform="translate(159)"/></g><path d="M390.1 389.3V27" clip-path="url(#a)" style="fill:none;stroke:#b0b0b0;stroke-opacity:.3;stroke-width:.8;stroke-linecap:square"/><use xlink:href="#b" x="390.1" y="389.3" style="stroke:#000;stroke-width:.8"/><g transform="matrix(.1 0 0 -.1 379 404)"><use xlink:href="#c"/><use xlink:href="#d" transform="translate(63.6)"/><use xlink:href="#g" transform="translate(95.4)"/><use xlink:href="#e" transform="translate(159)"/></g><path d="M464.8 389.3V27" clip-path="url(#a)" style="fill:none;stroke:#b0b0b0;stroke-opacity:.3;stroke-width:.8;stroke-linecap:square"/><use xlink:href="#b" x="464.8" y="389.3" style="stroke:#000;stroke-width:.8"/><g transform="matrix(.1 0 0 -.1 453.6 404)"><defs><path id="h" d="M2597 2516q453-97 707-404 255-306 255-756 0-690-475-1069Q2609-91 1734-91q-293 0-604 58T488 141v609q262-153 574-231 313-78 654-78 593 0 904 234t311 681q0 413-289 645-289 233-804 233h-544v519h569q465 0 712 186t247 536q0 359-255 551-254 193-729 193-260 0-557-57-297-56-653-174v562q360 100 674 150t592 50q719 0 1137-327 419-326 419-882 0-388-222-655t-631-370" transform="scale(.01563)"/></defs><use xlink:href="#c"/><use xlink:href="#d" transform="translate(63.6)"/><use xlink:href="#h" transform="translate(95.4)"/><use xlink:href="#c" transform="translate(159)"/></g><path d="M539.4 389.3V27" clip-path="url(#a)" style="fill:none;stroke:#b0b0b0;stroke-opacity:.3;stroke-width:.8;stroke-linecap:square"/><use xlink:href="#b" x="539.4" y="389.3" style="stroke:#000;stroke-width:.8"/><g transform="matrix(.1 0 0 -.1 528.3 404)"><use xlink:href="#c"/><use xlink:href="#d" transform="translate(63.6)"/><use xlink:href="#h" transform="translate(95.4)"/><use xlink:href="#e" transform="translate(159)"/></g><path d="M614 389.3V27" clip-path="url(#a)" style="fill:none;stroke:#b0b0b0;stroke-opacity:.3;stroke-width:.8;stroke-linecap:square"/><use xlink:href="#b" x="614" y="389.3" style="stroke:#000;stroke-width:.8"/><g transform="matrix(.1 0 0 -.1 602.9 404)"><defs><path id="i" d="M2419 4116 825 1625h1594zm-166 550h794V1625h666v-525h-666V0h-628v1100H313v609z" transform="scale(.01563)"/></defs><use xlink:href="#c"/><use xlink:href="#d" transform="translate(63.6)"/><use xlink:href="#i" transform="translate(95.4)"/><use xlink:href="#c" transform="translate(159)"/></g><path d="M688.6 389.3V27" clip-path="url(#a)" style="fill:none;stroke:#b0b0b0;stroke-opacity:.3;stroke-width:.8;stroke-linecap:square"/><use xlink:href="#b" x="688.6" y="389.3" style="stroke:#000;stroke-width:.8"/><g transform="matrix(.1 0 0 -.1 677.5 404)"><use xlink:href="#c"/><use xlink:href="#d" transform="translate(63.6)"/><use xlink:href="#i" transform="translate(95.4)"/><use xlink:href="#e" transform="translate(159)"/></g><g transform="matrix(.11 0 0 -.11 295.3 418.4)"><defs><path id="j" d="M1259 2228V519h1013q509 0 754 211 246 211 246 645 0 438-246 645-245 208-754 208zm0 1919V2741h935q462 0 688 173 227 174 227 530 0 353-227 528-226 175-688 175zm-631 519h1613q722 0 1112-300 391-300 391-853 0-429-200-682t-588-315q466-100 724-418 258-317 258-792 0-625-425-966Q3088 0 2303 0H628z" transform="scale(.01563)"/><path id="k" d="M2059-325q-243-625-475-815-231-191-618-191H506v481h338q237 0 368 113 132 112 291 531l103 262L191 3500h609L1894 763l1094 2737h609z" transform="scale(.01563)"/><path id="l" d="M1172 4494v-994h1184v-447H1172V1153q0-428 117-550t477-122h590V0h-590q-666 0-919 248-253 249-253 905v1900H172v447h422v994z" transform="scale(.01563)"/><path id="m" d="M3597 1894v-281H953q38-594 358-905t892-311q331 0 642 81t618 244V178Q3153 47 2828-22t-659-69q-838 0-1327 487-489 488-489 1320 0 859 464 1363 464 505 1252 505 706 0 1117-455 411-454 411-1235m-575 169q-6 471-264 752-258 282-683 282-481 0-770-272t-333-766z" transform="scale(.01563)"/><path id="n" d="M2834 3397v-544q-243 125-506 187-262 63-544 63-428 0-642-131t-214-394q0-200 153-314t616-217l197-44q612-131 870-370t258-667q0-488-386-773Q2250-91 1575-91q-281 0-586 55T347 128v594q319-166 628-249 309-82 613-82 406 0 624 139 219 139 219 392 0 234-158 359-157 125-692 241l-200 47q-534 112-772 345-237 233-237 639 0 494 350 762 350 269 994 269 318 0 599-47 282-46 519-140" transform="scale(.01563)"/><path id="o" d="M1159 525v-1856H581v4831h578v-531q182 312 458 463 277 152 661 152 638 0 1036-506 399-506 399-1331T3314 415Q2916-91 2278-91q-384 0-661 152-276 152-458 464m1957 1222q0 634-261 995t-717 361q-457 0-718-361t-261-995 261-995 718-361q456 0 717 361t261 995" transform="scale(.01563)"/><path id="p" d="M2631 2963q-97 56-211 82-114 27-251 27-488 0-749-317t-261-911V0H581v3500h578v-544q182 319 472 473 291 155 707 155 59 0 131-8 72-7 159-23z" transform="scale(.01563)"/><path id="q" d="M1259 4147V2394h794q441 0 681 228 241 228 241 650 0 419-241 647-240 228-681 228zm-631 519h1425q785 0 1186-355 402-355 402-1039 0-691-402-1044-401-353-1186-353h-794V0H628z" transform="scale(.01563)"/><path id="r" d="M603 3500h575V0H603zm0 1363h575v-729H603z" transform="scale(.01563)"/><path id="s" d="M3513 3500 2247 1797 3578 0h-678L1881 1375 863 0H184l1360 1831L300 3500h678l928-1247 928 1247z" transform="scale(.01563)"/><path id="t" d="M603 4863h575V0H603z" transform="scale(.01563)"/><path id="u" d="M1984 4856q-418-718-622-1422-203-703-203-1425 0-721 205-1429t620-1424h-500Q1016-109 783 600T550 2009q0 697 231 1403 232 707 703 1444z" transform="scale(.01563)"/><path id="v" d="M1959 3097q-462 0-731-361t-269-989 267-989q268-361 733-361 460 0 728 362 269 363 269 988 0 622-269 986-268 364-728 364m0 487q750 0 1178-488 429-487 429-1349 0-859-429-1349Q2709-91 1959-91q-753 0-1180 489-426 490-426 1349 0 862 426 1349 427 488 1180 488" transform="scale(.01563)"/><path id="w" d="M269 3500h575l719-2731 715 2731h678l719-2731 716 2731h575L4050 0h-678l-753 2869L1863 0h-679z" transform="scale(.01563)"/><path id="x" d="M3116 1747q0 634-261 995t-717 361q-457 0-718-361t-261-995 261-995 718-361q456 0 717 361t261 995M1159 2969q182 312 458 463 277 152 661 152 638 0 1036-506 399-506 399-1331T3314 415Q2916-91 2278-91q-384 0-661 152-276 152-458 464V0H581v4863h578z" transform="scale(.01563)"/><path id="y" d="M513 4856h500q468-737 701-1444 233-706 233-1403 0-700-233-1409T1013-844H513q415 716 620 1424t205 1429q0 722-205 1425-205 704-620 1422" transform="scale(.01563)"/></defs><use xlink:href="#j"/><use xlink:href="#k" transform="translate(68.6)"/><use xlink:href="#l" transform="translate(127.8)"/><use xlink:href="#m" transform="translate(167)"/><use xlink:href="#n" transform="translate(228.5)"/><use xlink:href="#o" transform="translate(312.4)"/><use xlink:href="#m" transform="translate(375.9)"/><use xlink:href="#p" transform="translate(437.4)"/><use xlink:href="#q" transform="translate(510.3)"/><use xlink:href="#r" transform="translate(568.4)"/><use xlink:href="#s" transform="translate(596.1)"/><use xlink:href="#m" transform="translate(652.2)"/><use xlink:href="#t" transform="translate(713.7)"/><use xlink:href="#u" transform="translate(773.3)"/><use xlink:href="#t" transform="translate(812.3)"/><use xlink:href="#v" transform="translate(840)"/><use xlink:href="#w" transform="translate(901.3)"/><use xlink:href="#m" transform="translate(983)"/><use xlink:href="#p" transform="translate(1044.6)"/><use xlink:href="#r" transform="translate(1117.5)"/><use xlink:href="#n" transform="translate(1145.3)"/><use xlink:href="#x" transform="translate(1229.1)"/><use xlink:href="#m" transform="translate(1292.6)"/><use xlink:href="#l" transform="translate(1354.1)"/><use xlink:href="#l" transform="translate(1393.4)"/><use xlink:href="#m" transform="translate(1432.6)"/><use xlink:href="#p" transform="translate(1494)"/><use xlink:href="#y" transform="translate(1535.2)"/></g><path d="M54.7 380.2h654.5" clip-path="url(#a)" style="fill:none;stroke:#b0b0b0;stroke-opacity:.3;stroke-width:.8;stroke-linecap:square"/><defs><path id="z" d="M0 0h-3.5" style="stroke:#000;stroke-width:.8"/></defs><use xlink:href="#z" x="54.6" y="380.2" style="stroke:#000;stroke-width:.8"/><g transform="matrix(.1 0 0 -.1 25.4 384)"><use xlink:href="#g"/><use xlink:href="#e" transform="translate(63.6)"/><use xlink:href="#d" transform="translate(127.2)"/><use xlink:href="#c" transform="translate(159)"/></g><path d="M54.7 338.6h654.5" clip-path="url(#a)" style="fill:none;stroke:#b0b0b0;stroke-opacity:.3;stroke-width:.8;stroke-linecap:square"/><use xlink:href="#z" x="54.6" y="338.6" style="stroke:#000;stroke-width:.8"/><g transform="matrix(.1 0 0 -.1 25.4 342.4)"><defs><path id="A" d="M525 4666h3000v-269L1831 0h-659l1594 4134H525z" transform="scale(.01563)"/></defs><use xlink:href="#g"/><use xlink:href="#A" transform="translate(63.6)"/><use xlink:href="#d" transform="translate(127.2)"/><use xlink:href="#e" transform="translate(159)"/></g><path d="M54.7 297h654.5" clip-path="url(#a)" style="fill:none;stroke:#b0b0b0;stroke-opacity:.3;stroke-width:.8;stroke-linecap:square"/><use xlink:href="#z" x="54.6" y="297.1" style="stroke:#000;stroke-width:.8"/><g transform="matrix(.1 0 0 -.1 25.4 300.9)"><use xlink:href="#h"/><use xlink:href="#c" transform="translate(63.6)"/><use xlink:href="#d" transform="translate(127.2)"/><use xlink:href="#c" transform="translate(159)"/></g><path d="M54.7 255.5h654.5" clip-path="url(#a)" style="fill:none;stroke:#b0b0b0;stroke-opacity:.3;stroke-width:.8;stroke-linecap:square"/><use xlink:href="#z" x="54.6" y="255.5" style="stroke:#000;stroke-width:.8"/><g transform="matrix(.1 0 0 -.1 25.4 259.3)"><use xlink:href="#h"/><use xlink:href="#g" transform="translate(63.6)"/><use xlink:href="#d" transform="translate(127.2)"/><use xlink:href="#e" transform="translate(159)"/></g><path d="M54.7 214h654.5" clip-path="url(#a)" style="fill:none;stroke:#b0b0b0;stroke-opacity:.3;stroke-width:.8;stroke-linecap:square"/><use xlink:href="#z" x="54.6" y="213.9" style="stroke:#000;stroke-width:.8"/><g transform="matrix(.1 0 0 -.1 25.4 217.7)"><use xlink:href="#h"/><use xlink:href="#e" transform="translate(63.6)"/><use xlink:href="#d" transform="translate(127.2)"/><use xlink:href="#c" transform="translate(159)"/></g><path d="M54.7 172.4h654.5" clip-path="url(#a)" style="fill:none;stroke:#b0b0b0;stroke-opacity:.3;stroke-width:.8;stroke-linecap:square"/><use xlink:href="#z" x="54.6" y="172.4" style="stroke:#000;stroke-width:.8"/><g transform="matrix(.1 0 0 -.1 25.4 176.2)"><use xlink:href="#h"/><use xlink:href="#A" transform="translate(63.6)"/><use xlink:href="#d" transform="translate(127.2)"/><use xlink:href="#e" transform="translate(159)"/></g><path d="M54.7 130.8h654.5" clip-path="url(#a)" style="fill:none;stroke:#b0b0b0;stroke-opacity:.3;stroke-width:.8;stroke-linecap:square"/><use xlink:href="#z" x="54.6" y="130.8" style="stroke:#000;stroke-width:.8"/><g transform="matrix(.1 0 0 -.1 25.4 134.6)"><use xlink:href="#i"/><use xlink:href="#c" transform="translate(63.6)"/><use xlink:href="#d" transform="translate(127.2)"/><use xlink:href="#c" transform="translate(159)"/></g><path d="M54.7 89.3h654.5" clip-path="url(#a)" style="fill:none;stroke:#b0b0b0;stroke-opacity:.3;stroke-width:.8;stroke-linecap:square"/><use xlink:href="#z" x="54.6" y="89.3" style="stroke:#000;stroke-width:.8"/><g transform="matrix(.1 0 0 -.1 25.4 93)"><use xlink:href="#i"/><use xlink:href="#g" transform="translate(63.6)"/><use xlink:href="#d" transform="translate(127.2)"/><use xlink:href="#e" transform="translate(159)"/></g><path d="M54.7 47.7h654.5" clip-path="url(#a)" style="fill:none;stroke:#b0b0b0;stroke-opacity:.3;stroke-width:.8;stroke-linecap:square"/><use xlink:href="#z" x="54.6" y="47.7" style="stroke:#000;stroke-width:.8"/><g transform="matrix(.1 0 0 -.1 25.4 51.5)"><use xlink:href="#i"/><use xlink:href="#e" transform="translate(63.6)"/><use xlink:href="#d" transform="translate(127.2)"/><use xlink:href="#c" transform="translate(159)"/></g><g transform="matrix(0 -.11 -.11 0 19.1 271.2)"><defs><path id="B" d="M3425 4513v-616q-359 172-678 256-319 85-616 85-515 0-795-200t-280-569q0-310 186-468 186-157 705-254l381-78q706-135 1042-474t336-907q0-679-455-1029Q2797-91 1919-91q-331 0-705 75-373 75-773 222v650q384-215 753-325 369-109 725-109 540 0 834 212 294 213 294 607 0 343-211 537t-692 291l-385 75q-706 140-1022 440-315 300-315 835 0 619 436 975t1201 356q329 0 669-60 341-59 697-177" transform="scale(.01563)"/><path id="C" d="M628 4666h850L3547 763v3903h612V0h-850L1241 3903V0H628z" transform="scale(.01563)"/><path id="D" d="M2841 2188q203-69 395-294t386-619L4263 0h-679l-596 1197q-232 469-449 622t-592 153h-688V0H628v4666h1425q800 0 1194-335 394-334 394-1009 0-441-205-732-205-290-595-402M1259 4147V2491h794q456 0 689 211t233 620-233 617-689 208z" transform="scale(.01563)"/><path id="E" d="M3513 2113V0h-575v2094q0 497-194 743-194 247-581 247-466 0-735-297-269-296-269-809V0H581v4863h578V2956q207 316 486 472 280 156 646 156 603 0 912-373 310-373 310-1098" transform="scale(.01563)"/><path id="F" d="M2906 1791q0 625-258 968-257 344-723 344-462 0-720-344-258-343-258-968 0-622 258-966t720-344q466 0 723 344 258 344 258 966m575-1357q0-893-397-1329-396-436-1215-436-303 0-572 45t-522 139v559q253-137 500-202 247-66 503-66 566 0 847 295t281 892v285q-178-310-456-463T1784 0Q1141 0 747 490 353 981 353 1791q0 812 394 1302 394 491 1037 491 388 0 666-153t456-462v531h575z" transform="scale(.01563)"/></defs><use xlink:href="#q"/><use xlink:href="#B" transform="translate(60.3)"/><use xlink:href="#C" transform="translate(123.8)"/><use xlink:href="#D" transform="translate(198.6)"/><use xlink:href="#u" transform="translate(299.9)"/><use xlink:href="#E" transform="translate(338.9)"/><use xlink:href="#r" transform="translate(402.2)"/><use xlink:href="#F" transform="translate(430)"/><use xlink:href="#E" transform="translate(493.5)"/><use xlink:href="#m" transform="translate(556.9)"/><use xlink:href="#p" transform="translate(618.4)"/><use xlink:href="#r" transform="translate(691.3)"/><use xlink:href="#n" transform="translate(719)"/><use xlink:href="#x" transform="translate(803)"/><use xlink:href="#m" transform="translate(866.5)"/><use xlink:href="#l" transform="translate(928)"/><use xlink:href="#l" transform="translate(967.2)"/><use xlink:href="#m" transform="translate(1006.4)"/><use xlink:href="#p" transform="translate(1068)"/><use xlink:href="#y" transform="translate(1109)"/></g><path d="m84.7 254.8 16.1-16.7 19.2-17.2 21.3-16.4 34.4-22.2 31.1-17.1 30.3-15 29-12.7 35.4-14.3 49.2-17.7 99.5-30.4 132.5-31.7" clip-path="url(#a)" style="fill:none;stroke:#1f77b4;stroke-width:1.5;stroke-linecap:square"/><defs><path id="G" d="M0 3.5a3.5 3.5 0 1 0 0-7 3.5 3.5 0 0 0 0 7z" style="stroke:#1f77b4"/></defs><g clip-path="url(#a)"><use xlink:href="#G" x="84.7" y="254.8" style="fill:#1f77b4;stroke:#1f77b4"/><use xlink:href="#G" x="100.8" y="238.1" style="fill:#1f77b4;stroke:#1f77b4"/><use xlink:href="#G" x="120" y="220.9" style="fill:#1f77b4;stroke:#1f77b4"/><use xlink:href="#G" x="141.3" y="204.5" style="fill:#1f77b4;stroke:#1f77b4"/><use xlink:href="#G" x="175.7" y="182.3" style="fill:#1f77b4;stroke:#1f77b4"/><use xlink:href="#G" x="206.8" y="165.2" style="fill:#1f77b4;stroke:#1f77b4"/><use xlink:href="#G" x="237.1" y="150.3" style="fill:#1f77b4;stroke:#1f77b4"/><use xlink:href="#G" x="266.1" y="137.5" style="fill:#1f77b4;stroke:#1f77b4"/><use xlink:href="#G" x="301.5" y="123.2" style="fill:#1f77b4;stroke:#1f77b4"/><use xlink:href="#G" x="350.7" y="105.5" style="fill:#1f77b4;stroke:#1f77b4"/><use xlink:href="#G" x="450.2" y="75.1" style="fill:#1f77b4;stroke:#1f77b4"/><use xlink:href="#G" x="582.7" y="43.4" style="fill:#1f77b4;stroke:#1f77b4"/></g><path d="m84.7 310.7 16.1-20.5 19.2-20.8 21.3-20.1 34.4-25.5 31.1-20 30.3-18.3 29-14.4 35.4-16.5 49.2-19.7 99.5-33.5L582.7 69" clip-path="url(#a)" style="fill:none;stroke-dasharray:5.55,2.4;stroke-dashoffset:0;stroke:#1f77b4;stroke-width:1.5"/><defs><path id="H" d="M0 3.5a3.5 3.5 0 1 0 0-7 3.5 3.5 0 0 0 0 7z" style="stroke:#1f77b4"/></defs><g clip-path="url(#a)"><use xlink:href="#H" x="84.7" y="310.7" style="fill-opacity:0;stroke:#1f77b4"/><use xlink:href="#H" x="100.8" y="290.2" style="fill-opacity:0;stroke:#1f77b4"/><use xlink:href="#H" x="120" y="269.4" style="fill-opacity:0;stroke:#1f77b4"/><use xlink:href="#H" x="141.3" y="249.3" style="fill-opacity:0;stroke:#1f77b4"/><use xlink:href="#H" x="175.7" y="223.8" style="fill-opacity:0;stroke:#1f77b4"/><use xlink:href="#H" x="206.8" y="203.7" style="fill-opacity:0;stroke:#1f77b4"/><use xlink:href="#H" x="237.1" y="185.5" style="fill-opacity:0;stroke:#1f77b4"/><use xlink:href="#H" x="266.1" y="171.1" style="fill-opacity:0;stroke:#1f77b4"/><use xlink:href="#H" x="301.5" y="154.6" style="fill-opacity:0;stroke:#1f77b4"/><use xlink:href="#H" x="350.7" y="134.9" style="fill-opacity:0;stroke:#1f77b4"/><use xlink:href="#H" x="450.2" y="101.4" style="fill-opacity:0;stroke:#1f77b4"/><use xlink:href="#H" x="582.7" y="69" style="fill-opacity:0;stroke:#1f77b4"/></g><path d="m132.6 282 11.8-8.3 9.9-6.4 11.1-6.2 9.8-5.4 10.2-5.2 12.8-6 16-6.6 19.6-8.5 22.6-9.2 35.6-12.5 50.1-16 87.3-23 188.1-37.6" clip-path="url(#a)" style="fill:none;stroke:#ff7f0e;stroke-width:1.5;stroke-linecap:square"/><defs><path id="I" d="M-3.5 3.5h7v-7h-7z" style="stroke:#ff7f0e;stroke-linejoin:miter"/></defs><g clip-path="url(#a)"><use xlink:href="#I" x="132.6" y="281.9" style="fill:#ff7f0e;stroke:#ff7f0e;stroke-linejoin:miter"/><use xlink:href="#I" x="144.4" y="273.7" style="fill:#ff7f0e;stroke:#ff7f0e;stroke-linejoin:miter"/><use xlink:href="#I" x="154.3" y="267.3" style="fill:#ff7f0e;stroke:#ff7f0e;stroke-linejoin:miter"/><use xlink:href="#I" x="165.4" y="261.1" style="fill:#ff7f0e;stroke:#ff7f0e;stroke-linejoin:miter"/><use xlink:href="#I" x="175.2" y="255.7" style="fill:#ff7f0e;stroke:#ff7f0e;stroke-linejoin:miter"/><use xlink:href="#I" x="185.4" y="250.5" style="fill:#ff7f0e;stroke:#ff7f0e;stroke-linejoin:miter"/><use xlink:href="#I" x="198.2" y="244.6" style="fill:#ff7f0e;stroke:#ff7f0e;stroke-linejoin:miter"/><use xlink:href="#I" x="214.1" y="237.9" style="fill:#ff7f0e;stroke:#ff7f0e;stroke-linejoin:miter"/><use xlink:href="#I" x="233.8" y="229.4" style="fill:#ff7f0e;stroke:#ff7f0e;stroke-linejoin:miter"/><use xlink:href="#I" x="256.4" y="220.2" style="fill:#ff7f0e;stroke:#ff7f0e;stroke-linejoin:miter"/><use xlink:href="#I" x="292" y="207.7" style="fill:#ff7f0e;stroke:#ff7f0e;stroke-linejoin:miter"/><use xlink:href="#I" x="342.1" y="191.7" style="fill:#ff7f0e;stroke:#ff7f0e;stroke-linejoin:miter"/><use xlink:href="#I" x="429.4" y="168.7" style="fill:#ff7f0e;stroke:#ff7f0e;stroke-linejoin:miter"/><use xlink:href="#I" x="617.5" y="131.1" style="fill:#ff7f0e;stroke:#ff7f0e;stroke-linejoin:miter"/></g><path d="m132.6 361.7 11.8-8.4 9.9-7 11.1-6.1 9.8-4.7 10.2-4.8 12.8-5.4 16-6.3 19.6-7.9 22.6-10.4 35.6-14.2 50.1-19 87.3-27.6 188.1-36.4" clip-path="url(#a)" style="fill:none;stroke-dasharray:5.55,2.4;stroke-dashoffset:0;stroke:#ff7f0e;stroke-width:1.5"/><defs><path id="J" d="M-3.5 3.5h7v-7h-7z" style="stroke:#ff7f0e;stroke-linejoin:miter"/></defs><g clip-path="url(#a)"><use xlink:href="#J" x="132.6" y="361.7" style="fill-opacity:0;stroke:#ff7f0e;stroke-linejoin:miter"/><use xlink:href="#J" x="144.4" y="353.3" style="fill-opacity:0;stroke:#ff7f0e;stroke-linejoin:miter"/><use xlink:href="#J" x="154.3" y="346.4" style="fill-opacity:0;stroke:#ff7f0e;stroke-linejoin:miter"/><use xlink:href="#J" x="165.4" y="340.2" style="fill-opacity:0;stroke:#ff7f0e;stroke-linejoin:miter"/><use xlink:href="#J" x="175.2" y="335.5" style="fill-opacity:0;stroke:#ff7f0e;stroke-linejoin:miter"/><use xlink:href="#J" x="185.4" y="330.7" style="fill-opacity:0;stroke:#ff7f0e;stroke-linejoin:miter"/><use xlink:href="#J" x="198.2" y="325.3" style="fill-opacity:0;stroke:#ff7f0e;stroke-linejoin:miter"/><use xlink:href="#J" x="214.1" y="319" style="fill-opacity:0;stroke:#ff7f0e;stroke-linejoin:miter"/><use xlink:href="#J" x="233.8" y="311.1" style="fill-opacity:0;stroke:#ff7f0e;stroke-linejoin:miter"/><use xlink:href="#J" x="256.4" y="300.7" style="fill-opacity:0;stroke:#ff7f0e;stroke-linejoin:miter"/><use xlink:href="#J" x="292" y="286.5" style="fill-opacity:0;stroke:#ff7f0e;stroke-linejoin:miter"/><use xlink:href="#J" x="342.1" y="267.4" style="fill-opacity:0;stroke:#ff7f0e;stroke-linejoin:miter"/><use xlink:href="#J" x="429.4" y="239.9" style="fill-opacity:0;stroke:#ff7f0e;stroke-linejoin:miter"/><use xlink:href="#J" x="617.5" y="203.5" style="fill-opacity:0;stroke:#ff7f0e;stroke-linejoin:miter"/></g><path d="m84.4 286.1 5.2-5.3 6.4-6 8.2-6.2 9.2-7.6 12.4-9.2 14.5-11.3 21.9-12.5 32.1-16.7 48.3-21 81.5-28.4 167-43.7" clip-path="url(#a)" style="fill:none;stroke:#2ca02c;stroke-width:1.5;stroke-linecap:square"/><defs><path id="K" d="m0-3.5-3.5 7h7z" style="stroke:#2ca02c;stroke-linejoin:miter"/></defs><g clip-path="url(#a)"><use xlink:href="#K" x="84.4" y="286.1" style="fill:#2ca02c;stroke:#2ca02c;stroke-linejoin:miter"/><use xlink:href="#K" x="89.6" y="280.8" style="fill:#2ca02c;stroke:#2ca02c;stroke-linejoin:miter"/><use xlink:href="#K" x="96" y="274.7" style="fill:#2ca02c;stroke:#2ca02c;stroke-linejoin:miter"/><use xlink:href="#K" x="104.2" y="268.6" style="fill:#2ca02c;stroke:#2ca02c;stroke-linejoin:miter"/><use xlink:href="#K" x="113.4" y="261" style="fill:#2ca02c;stroke:#2ca02c;stroke-linejoin:miter"/><use xlink:href="#K" x="125.8" y="251.8" style="fill:#2ca02c;stroke:#2ca02c;stroke-linejoin:miter"/><use xlink:href="#K" x="140.3" y="240.5" style="fill:#2ca02c;stroke:#2ca02c;stroke-linejoin:miter"/><use xlink:href="#K" x="162.2" y="228" style="fill:#2ca02c;stroke:#2ca02c;stroke-linejoin:miter"/><use xlink:href="#K" x="194.3" y="211.3" style="fill:#2ca02c;stroke:#2ca02c;stroke-linejoin:miter"/><use xlink:href="#K" x="242.6" y="190.4" style="fill:#2ca02c;stroke:#2ca02c;stroke-linejoin:miter"/><use xlink:href="#K" x="324.1" y="161.9" style="fill:#2ca02c;stroke:#2ca02c;stroke-linejoin:miter"/><use xlink:href="#K" x="491.2" y="118.2" style="fill:#2ca02c;stroke:#2ca02c;stroke-linejoin:miter"/></g><path d="m84.4 372.8 5.2-5.5 6.4-6.7 8.2-7.1 9.2-10 12.4-11.5 14.5-14.1 21.9-13.5 32.1-16.4 48.3-19.8 81.5-27 167-41.2" clip-path="url(#a)" style="fill:none;stroke-dasharray:5.55,2.4;stroke-dashoffset:0;stroke:#2ca02c;stroke-width:1.5"/><defs><path id="L" d="m0-3.5-3.5 7h7z" style="stroke:#2ca02c;stroke-linejoin:miter"/></defs><g clip-path="url(#a)"><use xlink:href="#L" x="84.4" y="372.8" style="fill-opacity:0;stroke:#2ca02c;stroke-linejoin:miter"/><use xlink:href="#L" x="89.6" y="367.3" style="fill-opacity:0;stroke:#2ca02c;stroke-linejoin:miter"/><use xlink:href="#L" x="96" y="360.6" style="fill-opacity:0;stroke:#2ca02c;stroke-linejoin:miter"/><use xlink:href="#L" x="104.2" y="353.5" style="fill-opacity:0;stroke:#2ca02c;stroke-linejoin:miter"/><use xlink:href="#L" x="113.4" y="343.5" style="fill-opacity:0;stroke:#2ca02c;stroke-linejoin:miter"/><use xlink:href="#L" x="125.8" y="332" style="fill-opacity:0;stroke:#2ca02c;stroke-linejoin:miter"/><use xlink:href="#L" x="140.3" y="317.9" style="fill-opacity:0;stroke:#2ca02c;stroke-linejoin:miter"/><use xlink:href="#L" x="162.2" y="304.4" style="fill-opacity:0;stroke:#2ca02c;stroke-linejoin:miter"/><use xlink:href="#L" x="194.3" y="288" style="fill-opacity:0;stroke:#2ca02c;stroke-linejoin:miter"/><use xlink:href="#L" x="242.6" y="268.2" style="fill-opacity:0;stroke:#2ca02c;stroke-linejoin:miter"/><use xlink:href="#L" x="324.1" y="241.2" style="fill-opacity:0;stroke:#2ca02c;stroke-linejoin:miter"/><use xlink:href="#L" x="491.2" y="200" style="fill-opacity:0;stroke:#2ca02c;stroke-linejoin:miter"/></g><path d="m101.7 273.1 8.3-7.3 9-7.9 8.5-6.9 7.5-5.2 8.1-5.7 8.1-5.2 9.1-5.5 9.5-5.5 10.4-5.9 38.4-19.3 50.7-20.7 84.6-27.8 147.4-33 178.1-18.9" clip-path="url(#a)" style="fill:none;stroke:#d62728;stroke-width:1.5;stroke-linecap:square"/><defs><path id="M" d="m0 5 5-5-5-5-5 5z" style="stroke:#d62728;stroke-linejoin:miter"/></defs><g clip-path="url(#a)"><use xlink:href="#M" x="101.7" y="273.1" style="fill:#d62728;stroke:#d62728;stroke-linejoin:miter"/><use xlink:href="#M" x="110" y="265.8" style="fill:#d62728;stroke:#d62728;stroke-linejoin:miter"/><use xlink:href="#M" x="119" y="257.9" style="fill:#d62728;stroke:#d62728;stroke-linejoin:miter"/><use xlink:href="#M" x="127.5" y="251" style="fill:#d62728;stroke:#d62728;stroke-linejoin:miter"/><use xlink:href="#M" x="135" y="245.8" style="fill:#d62728;stroke:#d62728;stroke-linejoin:miter"/><use xlink:href="#M" x="143.1" y="240.1" style="fill:#d62728;stroke:#d62728;stroke-linejoin:miter"/><use xlink:href="#M" x="151.2" y="234.9" style="fill:#d62728;stroke:#d62728;stroke-linejoin:miter"/><use xlink:href="#M" x="160.3" y="229.4" style="fill:#d62728;stroke:#d62728;stroke-linejoin:miter"/><use xlink:href="#M" x="169.8" y="223.9" style="fill:#d62728;stroke:#d62728;stroke-linejoin:miter"/><use xlink:href="#M" x="180.2" y="218" style="fill:#d62728;stroke:#d62728;stroke-linejoin:miter"/><use xlink:href="#M" x="218.6" y="198.7" style="fill:#d62728;stroke:#d62728;stroke-linejoin:miter"/><use xlink:href="#M" x="269.3" y="178" style="fill:#d62728;stroke:#d62728;stroke-linejoin:miter"/><use xlink:href="#M" x="353.9" y="150.2" style="fill:#d62728;stroke:#d62728;stroke-linejoin:miter"/><use xlink:href="#M" x="501.3" y="117.3" style="fill:#d62728;stroke:#d62728;stroke-linejoin:miter"/><use xlink:href="#M" x="679.4" y="98.3" style="fill:#d62728;stroke:#d62728;stroke-linejoin:miter"/></g><path d="m101.7 337.6 8.3-9 9-9.2 8.5-5.8 7.5-8.1 8.1-6.5 8.1-5.8 9.1-6.8 9.5-7.2 10.4-5.2 38.4-19.9 50.7-22.1 84.6-23.8 147.4-22.4 178.1-8.5" clip-path="url(#a)" style="fill:none;stroke-dasharray:5.55,2.4;stroke-dashoffset:0;stroke:#d62728;stroke-width:1.5"/><defs><path id="N" d="m0 5 5-5-5-5-5 5z" style="stroke:#d62728;stroke-linejoin:miter"/></defs><g clip-path="url(#a)"><use xlink:href="#N" x="101.7" y="337.6" style="fill-opacity:0;stroke:#d62728;stroke-linejoin:miter"/><use xlink:href="#N" x="110" y="328.7" style="fill-opacity:0;stroke:#d62728;stroke-linejoin:miter"/><use xlink:href="#N" x="119" y="319.4" style="fill-opacity:0;stroke:#d62728;stroke-linejoin:miter"/><use xlink:href="#N" x="127.5" y="313.6" style="fill-opacity:0;stroke:#d62728;stroke-linejoin:miter"/><use xlink:href="#N" x="135" y="305.5" style="fill-opacity:0;stroke:#d62728;stroke-linejoin:miter"/><use xlink:href="#N" x="143.1" y="299" style="fill-opacity:0;stroke:#d62728;stroke-linejoin:miter"/><use xlink:href="#N" x="151.2" y="293.2" style="fill-opacity:0;stroke:#d62728;stroke-linejoin:miter"/><use xlink:href="#N" x="160.3" y="286.4" style="fill-opacity:0;stroke:#d62728;stroke-linejoin:miter"/><use xlink:href="#N" x="169.8" y="279.2" style="fill-opacity:0;stroke:#d62728;stroke-linejoin:miter"/><use xlink:href="#N" x="180.2" y="274" style="fill-opacity:0;stroke:#d62728;stroke-linejoin:miter"/><use xlink:href="#N" x="218.6" y="254.1" style="fill-opacity:0;stroke:#d62728;stroke-linejoin:miter"/><use xlink:href="#N" x="269.3" y="232" style="fill-opacity:0;stroke:#d62728;stroke-linejoin:miter"/><use xlink:href="#N" x="353.9" y="208.2" style="fill-opacity:0;stroke:#d62728;stroke-linejoin:miter"/><use xlink:href="#N" x="501.3" y="185.8" style="fill-opacity:0;stroke:#d62728;stroke-linejoin:miter"/><use xlink:href="#N" x="679.4" y="177.3" style="fill-opacity:0;stroke:#d62728;stroke-linejoin:miter"/></g><path d="M54.7 389.3V27m654.5 362.3V27M54.7 389.3h654.5M54.7 26.9h654.5" style="fill:none;stroke:#000;stroke-width:.8;stroke-linejoin:miter;stroke-linecap:square"/><g transform="matrix(.12 0 0 -.12 310.9 20.9)"><defs><path id="O" d="M191 3500h609L1894 563l1094 2937h609L2284 0h-781z" transform="scale(.01563)"/></defs><use xlink:href="#q"/><use xlink:href="#B" transform="translate(60.3)"/><use xlink:href="#C" transform="translate(123.8)"/><use xlink:href="#D" transform="translate(198.6)"/><use xlink:href="#O" transform="translate(299.9)"/><use xlink:href="#n" transform="translate(359)"/><use xlink:href="#j" transform="translate(443)"/><use xlink:href="#k" transform="translate(511.5)"/><use xlink:href="#l" transform="translate(570.7)"/><use xlink:href="#m" transform="translate(610)"/><use xlink:href="#n" transform="translate(671.4)"/><use xlink:href="#o" transform="translate(755.3)"/><use xlink:href="#m" transform="translate(818.8)"/><use xlink:href="#p" transform="translate(880.3)"/><use xlink:href="#q" transform="translate(953.2)"/><use xlink:href="#r" transform="translate(1011.3)"/><use xlink:href="#s" transform="translate(1039)"/><use xlink:href="#m" transform="translate(1095.1)"/><use xlink:href="#t" transform="translate(1156.6)"/></g><path d="M60.3 80.3h195q1.6 0 1.6-1.6V32.5q0-1.6-1.6-1.6h-195q-1.6 0-1.6 1.6v46.2q0 1.5 1.5 1.5z" style="fill:#fff;opacity:.8;stroke:#ccc;stroke-linejoin:miter"/><path d="M61.9 37.4h16" style="fill:none;stroke:#1f77b4;stroke-width:1.5;stroke-linecap:square"/><use xlink:href="#G" x="69.8" y="37.4" style="fill:#1f77b4;stroke:#1f77b4"/><g transform="matrix(.08 0 0 -.08 84.3 40.2)"><defs><path id="P" d="M2194 1759q-697 0-966-159t-269-544q0-306 202-486 202-179 548-179 479 0 768 339t289 901v128zm1147 238V0h-575v531q-197-318-491-470T1556-91q-537 0-855 302-317 302-317 808 0 590 395 890 396 300 1180 300h807v57q0 397-261 614t-733 217q-300 0-585-72-284-72-546-216v532q315 122 612 182 297 61 578 61 760 0 1135-394 375-393 375-1193" transform="scale(.01563)"/><path id="Q" d="M2375 4863v-479h-550q-309 0-430-125-120-125-120-450v-309h947v-447h-947V0H697v3053H147v447h550v244q0 584 272 851 272 268 862 268z" transform="scale(.01563)"/><path id="R" d="M3328 2828q216 388 516 572t706 184q547 0 844-383 297-382 297-1088V0h-578v2094q0 503-179 746-178 244-543 244-447 0-707-297-259-296-259-809V0h-578v2094q0 506-178 748t-550 242q-441 0-701-298-259-298-259-808V0H581v3500h578v-544q197 322 472 475t653 153q382 0 649-194 267-193 395-562" transform="scale(.01563)"/><path id="S" d="M3513 2113V0h-575v2094q0 497-194 743-194 247-581 247-466 0-735-297-269-296-269-809V0H581v3500h578v-544q207 316 486 472 280 156 646 156 603 0 912-373 310-373 310-1098" transform="scale(.01563)"/></defs><use xlink:href="#P"/><use xlink:href="#O" transform="translate(61.3)"/><use xlink:href="#r" transform="translate(120.5)"/><use xlink:href="#Q" transform="translate(148.2)"/><use xlink:href="#u" transform="translate(215.2)"/><use xlink:href="#R" transform="translate(254.2)"/><use xlink:href="#m" transform="translate(351.7)"/><use xlink:href="#P" transform="translate(413.2)"/><use xlink:href="#S" transform="translate(474.5)"/><use xlink:href="#y" transform="translate(537.8)"/></g><path d="M61.9 49.1h16" style="fill:none;stroke-dasharray:5.55,2.4;stroke-dashoffset:0;stroke:#1f77b4;stroke-width:1.5"/><use xlink:href="#H" x="69.8" y="49.1" style="fill-opacity:0;stroke:#1f77b4"/><g transform="matrix(.08 0 0 -.08 84.3 51.9)"><defs><path id="T" d="M4653 2053q-272 0-427-231-154-231-154-644 0-406 154-639 155-233 427-233 266 0 420 233 155 233 155 639 0 410-155 642-154 233-420 233m0 397q494 0 784-344 291-343 291-928 0-584-292-927-292-342-783-342-500 0-791 342-290 343-290 927 0 588 292 930t789 342M1428 4353q-269 0-424-233-154-232-154-639 0-412 153-644 153-231 425-231t426 231q155 232 155 644 0 403-156 637-156 235-425 235m2822 397h500L1831-91h-500zm-2822 0q494 0 787-342 294-342 294-927 0-590-292-931t-789-341-786 342q-289 343-289 930 0 582 290 925 291 344 785 344" transform="scale(.01563)"/></defs><use xlink:href="#P"/><use xlink:href="#O" transform="translate(61.3)"/><use xlink:href="#r" transform="translate(120.5)"/><use xlink:href="#Q" transform="translate(148.2)"/><use xlink:href="#u" transform="translate(215.2)"/><use xlink:href="#e" transform="translate(254.2)"/><use xlink:href="#T" transform="translate(317.9)"/><use xlink:href="#w" transform="translate(444.7)"/><use xlink:href="#v" transform="translate(526.5)"/><use xlink:href="#p" transform="translate(587.6)"/><use xlink:href="#n" transform="translate(628.8)"/><use xlink:href="#l" transform="translate(680.9)"/><use xlink:href="#y" transform="translate(720)"/></g><path d="M61.9 60.8h16" style="fill:none;stroke:#ff7f0e;stroke-width:1.5;stroke-linecap:square"/><use xlink:href="#I" x="69.8" y="60.8" style="fill:#ff7f0e;stroke:#ff7f0e;stroke-linejoin:miter"/><g transform="matrix(.08 0 0 -.08 84.3 63.6)"><defs><path id="U" d="M603 3500h575V-63q0-668-255-968-254-300-820-300h-219v487H38q328 0 446 152Q603-541 603-63zm0 1363h575v-729H603z" transform="scale(.01563)"/></defs><use xlink:href="#U"/><use xlink:href="#o" transform="translate(27.8)"/><use xlink:href="#m" transform="translate(91.3)"/><use xlink:href="#F" transform="translate(152.8)"/><use xlink:href="#u" transform="translate(248)"/><use xlink:href="#R" transform="translate(287)"/><use xlink:href="#m" transform="translate(384.5)"/><use xlink:href="#P" transform="translate(446)"/><use xlink:href="#S" transform="translate(507.3)"/><use xlink:href="#y" transform="translate(570.7)"/></g><path d="M61.9 72.6h16" style="fill:none;stroke-dasharray:5.55,2.4;stroke-dashoffset:0;stroke:#ff7f0e;stroke-width:1.5"/><use xlink:href="#J" x="69.8" y="72.6" style="fill-opacity:0;stroke:#ff7f0e;stroke-linejoin:miter"/><g transform="matrix(.08 0 0 -.08 84.3 75.4)"><use xlink:href="#U"/><use xlink:href="#o" transform="translate(27.8)"/><use xlink:href="#m" transform="translate(91.3)"/><use xlink:href="#F" transform="translate(152.8)"/><use xlink:href="#u" transform="translate(248)"/><use xlink:href="#e" transform="translate(287)"/><use xlink:href="#T" transform="translate(350.7)"/><use xlink:href="#w" transform="translate(477.5)"/><use xlink:href="#v" transform="translate(559.3)"/><use xlink:href="#p" transform="translate(620.5)"/><use xlink:href="#n" transform="translate(661.6)"/><use xlink:href="#l" transform="translate(713.7)"/><use xlink:href="#y" transform="translate(752.9)"/></g><path d="M163.6 37.4h16" style="fill:none;stroke:#2ca02c;stroke-width:1.5;stroke-linecap:square"/><use xlink:href="#K" x="171.6" y="37.4" style="fill:#2ca02c;stroke:#2ca02c;stroke-linejoin:miter"/><g transform="matrix(.08 0 0 -.08 186 40.2)"><use xlink:href="#U"/><use xlink:href="#s" transform="translate(27.8)"/><use xlink:href="#t" transform="translate(87)"/><use xlink:href="#u" transform="translate(146.5)"/><use xlink:href="#R" transform="translate(185.5)"/><use xlink:href="#m" transform="translate(283)"/><use xlink:href="#P" transform="translate(344.5)"/><use xlink:href="#S" transform="translate(405.8)"/><use xlink:href="#y" transform="translate(469.1)"/></g><path d="M163.6 49.1h16" style="fill:none;stroke-dasharray:5.55,2.4;stroke-dashoffset:0;stroke:#2ca02c;stroke-width:1.5"/><use xlink:href="#L" x="171.6" y="49.1" style="fill-opacity:0;stroke:#2ca02c;stroke-linejoin:miter"/><g transform="matrix(.08 0 0 -.08 186 51.9)"><use xlink:href="#U"/><use xlink:href="#s" transform="translate(27.8)"/><use xlink:href="#t" transform="translate(87)"/><use xlink:href="#u" transform="translate(146.5)"/><use xlink:href="#e" transform="translate(185.5)"/><use xlink:href="#T" transform="translate(249.2)"/><use xlink:href="#w" transform="translate(376)"/><use xlink:href="#v" transform="translate(457.8)"/><use xlink:href="#p" transform="translate(519)"/><use xlink:href="#n" transform="translate(560)"/><use xlink:href="#l" transform="translate(612.2)"/><use xlink:href="#y" transform="translate(651.4)"/></g><path d="M163.6 60.8h16" style="fill:none;stroke:#d62728;stroke-width:1.5;stroke-linecap:square"/><use xlink:href="#M" x="171.6" y="60.8" style="fill:#d62728;stroke:#d62728;stroke-linejoin:miter"/><g transform="matrix(.08 0 0 -.08 186 63.6)"><use xlink:href="#w"/><use xlink:href="#m" transform="translate(81.8)"/><use xlink:href="#x" transform="translate(143.3)"/><use xlink:href="#o" transform="translate(206.8)"/><use xlink:href="#u" transform="translate(302)"/><use xlink:href="#R" transform="translate(341)"/><use xlink:href="#m" transform="translate(438.5)"/><use xlink:href="#P" transform="translate(500)"/><use xlink:href="#S" transform="translate(561.3)"/><use xlink:href="#y" transform="translate(624.7)"/></g><path d="M163.6 72.6h16" style="fill:none;stroke-dasharray:5.55,2.4;stroke-dashoffset:0;stroke:#d62728;stroke-width:1.5"/><use xlink:href="#N" x="171.6" y="72.6" style="fill-opacity:0;stroke:#d62728;stroke-linejoin:miter"/><g transform="matrix(.08 0 0 -.08 186 75.4)"><use xlink:href="#w"/><use xlink:href="#m" transform="translate(81.8)"/><use xlink:href="#x" transform="translate(143.3)"/><use xlink:href="#o" transform="translate(206.8)"/><use xlink:href="#u" transform="translate(302)"/><use xlink:href="#e" transform="translate(341)"/><use xlink:href="#T" transform="translate(404.7)"/><use xlink:href="#w" transform="translate(531.5)"/><use xlink:href="#v" transform="translate(613.3)"/><use xlink:href="#p" transform="translate(674.5)"/><use xlink:href="#n" transform="translate(715.6)"/><use xlink:href="#l" transform="translate(767.7)"/><use xlink:href="#y" transform="translate(806.9)"/></g><defs><clipPath id="a"><path d="M54.6 26.9h654.5v362.4H54.6z"/></clipPath></defs></svg>